<?xml version="1.0" standalone="no"?>
<!DOCTYPE svg PUBLIC "-//W3C//DTD SVG 20010904//EN"
 "http://www.w3.org/TR/2001/REC-SVG-20010904/DTD/svg10.dtd">
<svg version="1.0" xmlns="http://www.w3.org/2000/svg"
 width="1920.000000pt" height="1920.000000pt" viewBox="0 0 1920.000000 1920.000000"
 preserveAspectRatio="xMidYMid meet">
<metadata>
Created by potrace 1.16, written by Peter Selinger 2001-2019
</metadata>
<g transform="translate(0.000000,1920.000000) scale(0.100000,-0.100000)"
fill="#f97316" stroke="none">
<path d="M9525 17216 c-63 -20 -145 -65 -205 -111 -30 -24 -71 -51 -90 -60
-19 -10 -60 -37 -90 -60 -30 -24 -71 -51 -90 -60 -19 -10 -60 -37 -90 -60 -30
-24 -75 -53 -100 -65 -28 -14 -116 -93 -238 -214 -204 -202 -306 -358 -357
-548 -9 -34 -29 -73 -51 -99 -47 -57 -162 -286 -185 -372 -12 -42 -200 -429
-510 -1050 -317 -633 -498 -1007 -511 -1051 -58 -211 -193 -401 -307 -431 -83
-23 -187 -74 -250 -123 -31 -24 -74 -53 -96 -64 -22 -12 -65 -40 -95 -63 -30
-24 -98 -64 -150 -90 -52 -26 -120 -67 -150 -90 -30 -24 -71 -51 -90 -60 -19
-10 -60 -37 -90 -60 -30 -24 -71 -51 -90 -60 -19 -10 -60 -37 -90 -60 -30 -24
-75 -53 -100 -65 -144 -73 -305 -271 -444 -550 -73 -146 -138 -287 -145 -315
-6 -27 -87 -205 -181 -395 -93 -190 -176 -370 -185 -402 -9 -34 -29 -73 -51
-99 -47 -56 -102 -166 -125 -252 -11 -37 -91 -211 -180 -390 -89 -178 -170
-352 -180 -390 -12 -41 -151 -331 -360 -750 -210 -419 -349 -708 -360 -750
-11 -37 -91 -212 -180 -390 -90 -179 -170 -352 -181 -390 -22 -81 -67 -173
-106 -219 -49 -59 -52 -65 -72 -137 -13 -45 -115 -261 -274 -579 -139 -279
-258 -529 -264 -557 -7 -27 -88 -205 -182 -395 -93 -190 -176 -370 -185 -402
-9 -34 -29 -73 -51 -99 -47 -56 -166 -296 -188 -379 -51 -190 -59 -195 -291
-191 -207 4 -230 7 -330 45 -34 13 -114 15 -512 16 -473 0 -473 0 -473 -290 0
-238 3 -292 14 -296 26 -10 143 -179 194 -279 27 -56 67 -121 87 -145 20 -24
61 -92 90 -150 29 -58 70 -126 90 -150 20 -24 47 -65 60 -90 13 -25 40 -66 60
-90 20 -24 47 -65 60 -90 13 -25 40 -66 60 -90 20 -24 61 -92 90 -150 29 -58
70 -126 90 -150 20 -24 61 -92 90 -150 29 -58 70 -126 90 -150 20 -24 47 -65
60 -90 13 -25 40 -66 60 -90 20 -24 61 -92 90 -150 29 -58 70 -126 90 -150 20
-24 48 -67 62 -94 85 -169 254 -287 422 -296 104 -5 135 -11 176 -31 50 -23
53 -24 450 -29 400 -5 400 -5 450 -30 49 -24 56 -24 360 -30 305 -5 311 -5
360 -30 50 -25 50 -25 480 -30 430 -5 430 -5 480 -29 47 -23 65 -25 270 -31
129 -4 236 -12 260 -20 33 -10 51 -10 115 5 111 25 306 18 375 -14 36 -16 79
-25 151 -31 73 -5 114 -14 150 -31 48 -23 54 -24 449 -29 399 -5 400 -5 450
-29 48 -24 61 -25 300 -31 236 -5 253 -6 300 -29 74 -35 199 -40 280 -12 72
25 104 26 153 4 28 -12 81 -18 227 -23 174 -5 194 -8 240 -30 49 -24 58 -24
360 -30 305 -5 311 -5 360 -30 50 -25 50 -25 570 -30 520 -5 520 -5 570 -30
67 -32 369 -43 445 -15 25 9 78 27 118 40 194 63 275 161 495 600 97 194 191
370 212 395 20 24 47 65 61 92 13 26 36 62 52 80 49 59 52 65 73 138 24 89 66
172 114 230 21 25 102 174 181 332 79 157 156 302 171 320 50 59 53 65 74 138
24 89 66 172 114 230 20 24 47 64 60 89 28 57 67 97 120 123 22 12 65 40 95
63 30 24 98 64 150 90 52 26 120 67 150 90 30 24 98 64 150 90 52 26 120 67
150 90 30 24 71 51 90 60 19 10 60 37 90 60 30 24 98 64 150 90 52 26 120 67
150 90 30 24 100 66 155 93 55 28 124 71 153 96 79 68 90 65 195 -49 48 -53
99 -119 113 -148 17 -33 72 -98 149 -177 79 -81 132 -144 149 -179 15 -29 56
-84 91 -121 35 -37 76 -92 91 -121 15 -31 66 -94 119 -149 55 -56 104 -118
120 -150 18 -36 70 -98 150 -180 79 -81 132 -144 149 -179 15 -29 56 -84 91
-121 35 -37 76 -92 91 -121 32 -64 189 -229 254 -267 62 -37 207 -39 287 -4
29 12 87 27 128 32 41 5 88 16 104 24 16 9 59 24 97 35 38 11 94 29 124 40 62
22 120 41 230 77 181 58 238 78 285 97 30 12 81 22 130 24 77 5 216 42 347 95
26 10 82 23 123 28 41 5 88 16 104 24 16 9 59 24 97 35 38 10 86 26 107 35 21
9 71 21 112 26 55 7 97 21 162 54 48 24 121 54 162 66 117 35 152 92 98 164
-13 17 -41 60 -61 96 -21 36 -51 80 -67 98 -16 18 -41 56 -55 84 -14 28 -54
81 -89 118 -35 37 -75 91 -90 120 -15 29 -55 83 -90 120 -35 37 -75 90 -88
117 -14 27 -42 69 -62 93 -20 24 -48 66 -62 93 -13 27 -53 80 -88 117 -35 37
-75 90 -88 117 -14 27 -42 69 -62 93 -20 24 -48 66 -62 93 -13 27 -53 80 -88
117 -35 37 -75 90 -88 117 -14 27 -42 69 -62 93 -20 24 -48 66 -62 93 -13 27
-53 80 -88 117 -35 37 -75 91 -90 120 -15 29 -55 83 -90 120 -35 37 -75 91
-90 120 -15 29 -55 83 -90 120 -35 37 -75 90 -88 117 -14 27 -42 69 -62 93
-20 24 -48 66 -62 93 -13 27 -53 80 -88 117 -35 37 -75 91 -90 120 -15 29 -55
83 -90 120 -35 37 -75 91 -90 120 -15 29 -55 83 -90 120 -35 37 -75 90 -88
117 -14 27 -42 69 -62 93 -20 24 -48 67 -62 94 -17 34 -78 104 -178 206 -178
181 -179 183 -173 344 3 106 3 106 235 573 128 258 240 495 248 527 9 32 89
203 177 380 89 177 169 351 179 389 11 37 92 214 183 395 90 180 169 350 175
378 13 52 26 77 74 137 15 19 37 67 47 106 11 40 54 138 94 220 105 209 123
288 95 408 -27 115 -24 109 -159 248 -136 139 -140 145 -151 241 -9 83 -232
548 -304 634 -20 24 -74 119 -120 210 -46 91 -99 185 -120 210 -20 24 -47 65
-61 92 -13 26 -37 63 -54 81 -65 74 -83 238 -39 357 11 30 29 85 39 123 11 37
106 240 211 450 110 218 200 411 210 450 11 37 91 212 180 390 90 178 170 352
180 390 11 37 68 163 127 280 121 240 144 387 83 527 -20 45 -26 80 -31 185
-6 101 -12 140 -29 177 -12 26 -26 81 -31 123 -6 44 -18 91 -29 109 -40 64
-453 461 -516 496 -39 21 -110 82 -205 175 -189 186 -172 178 -400 185 -170 5
-189 8 -235 30 -50 25 -50 25 -630 30 -580 5 -580 5 -630 30 -50 25 -50 25
-600 30 -550 5 -550 5 -600 30 -50 25 -50 25 -690 30 -640 5 -640 5 -690 30
-50 25 -50 25 -660 30 -610 5 -610 5 -660 30 -60 30 -776 43 -860 16z m850
-216 c50 -25 50 -25 660 -30 610 -5 610 -5 660 -30 50 -25 50 -25 690 -30 640
-5 640 -5 690 -30 50 -25 50 -25 600 -30 550 -5 550 -5 600 -30 50 -25 50 -25
630 -30 580 -5 580 -5 630 -29 46 -22 66 -25 240 -30 206 -7 214 -9 278 -70
70 -66 71 -72 78 -316 5 -200 7 -224 28 -268 33 -71 37 -131 12 -202 -12 -33
-31 -91 -41 -128 -11 -37 -93 -213 -181 -390 -89 -178 -170 -352 -180 -390
-11 -39 -111 -251 -240 -510 -130 -258 -229 -470 -240 -510 -11 -37 -91 -212
-180 -390 -90 -178 -170 -352 -180 -390 -11 -37 -78 -186 -150 -330 -73 -144
-140 -292 -150 -330 -11 -38 -101 -232 -210 -450 -110 -218 -200 -411 -210
-450 -11 -37 -78 -186 -150 -330 -73 -144 -140 -292 -150 -330 -11 -38 -101
-232 -210 -450 -110 -218 -200 -411 -210 -450 -11 -39 -111 -251 -240 -510
-130 -258 -229 -470 -240 -510 -11 -37 -91 -212 -180 -390 -89 -178 -170 -352
-180 -390 -11 -37 -91 -212 -180 -390 -89 -178 -170 -352 -180 -390 -11 -37
-91 -212 -180 -390 -90 -178 -170 -352 -180 -390 -11 -37 -65 -159 -120 -270
-56 -111 -110 -232 -120 -270 -11 -39 -111 -251 -240 -510 -130 -258 -229
-470 -240 -510 -11 -38 -101 -232 -210 -450 -110 -218 -200 -411 -210 -450
-11 -37 -91 -212 -180 -390 -90 -178 -170 -352 -180 -390 -24 -85 -177 -393
-220 -442 -25 -28 -93 -67 -282 -161 -313 -156 -319 -156 -399 -43 -24 33 -53
74 -65 90 -81 111 -30 223 140 310 56 29 127 71 157 94 30 24 74 52 96 63 102
51 207 173 235 272 11 39 38 108 60 153 23 45 50 112 60 150 11 39 111 250
240 510 130 258 229 470 240 510 11 38 101 232 210 450 110 218 200 411 210
450 11 38 101 232 210 450 110 218 200 411 210 450 11 39 111 251 240 510 130
258 229 470 240 510 11 39 111 252 240 510 130 258 229 470 240 510 11 37 91
212 180 390 89 178 170 352 180 390 12 41 131 291 300 630 170 339 289 589
300 630 11 37 65 159 120 270 56 111 110 232 120 270 12 41 131 291 300 630
170 339 289 589 300 630 11 37 91 212 180 390 89 178 170 352 180 390 11 38
101 232 210 450 109 218 200 411 210 450 12 40 121 271 270 570 150 300 259
529 271 570 10 38 39 109 64 160 51 101 59 159 31 214 -9 17 -25 61 -35 99
-34 120 -145 329 -216 402 -113 118 -107 116 -426 122 -268 5 -276 6 -325 30
-50 25 -50 25 -690 30 -640 5 -640 5 -690 30 -50 25 -50 25 -630 30 -580 5
-580 5 -630 30 -50 25 -50 25 -720 30 -670 5 -670 5 -720 30 -50 25 -50 25
-457 28 -455 3 -458 3 -545 -62 -32 -24 -74 -51 -93 -61 -19 -10 -60 -37 -90
-60 -30 -24 -102 -67 -160 -95 -100 -50 -113 -61 -268 -214 -164 -161 -164
-161 -594 -1021 -270 -540 -438 -885 -449 -928 -25 -88 -484 -1007 -533 -1066
-45 -54 -50 -64 -65 -126 -6 -27 -114 -259 -241 -515 -126 -256 -236 -490
-245 -522 -9 -34 -29 -73 -51 -99 -45 -53 -288 -542 -309 -621 -9 -34 -29 -73
-51 -99 -48 -57 -281 -525 -305 -612 -12 -43 -271 -571 -723 -1475 -395 -791
-708 -1429 -715 -1458 -13 -52 -26 -77 -74 -137 -15 -19 -37 -67 -47 -106 -26
-93 -603 -1249 -654 -1310 -45 -53 -52 -66 -61 -111 -4 -19 -17 -62 -30 -95
-13 -33 -30 -85 -39 -117 -9 -33 -31 -74 -52 -100 -44 -52 -228 -421 -249
-500 -9 -34 -29 -73 -51 -99 -20 -24 -122 -215 -226 -424 -223 -445 -216 -419
-144 -562 25 -51 54 -123 65 -160 42 -153 149 -306 261 -372 43 -25 53 -26
230 -31 170 -5 189 -8 235 -30 50 -24 51 -25 450 -30 399 -5 400 -5 450 -30
48 -23 59 -24 330 -30 271 -5 282 -6 330 -29 48 -24 61 -25 295 -31 238 -5
247 -6 327 -34 82 -29 84 -29 168 -16 108 17 122 11 174 -78 22 -38 48 -75 57
-83 70 -58 71 -228 2 -204 -13 5 -194 11 -403 14 -376 6 -381 6 -430 30 -46
22 -66 25 -240 31 -174 5 -194 8 -240 30 -48 23 -60 24 -330 30 -272 5 -281 6
-330 30 -49 24 -54 24 -390 30 -335 5 -341 5 -390 29 -48 24 -61 25 -292 30
-287 7 -270 0 -349 144 -29 54 -67 114 -84 133 -17 19 -55 85 -86 146 -41 81
-72 128 -120 179 -118 126 -157 244 -114 347 10 26 24 67 30 92 6 25 46 119
90 210 44 91 86 190 95 222 9 33 29 73 51 99 45 54 107 178 122 244 7 28 231
491 512 1055 275 553 506 1030 515 1062 9 34 29 73 51 99 48 58 401 765 425
852 25 87 186 409 234 467 48 57 103 167 126 253 22 79 364 769 406 819 50 59
53 65 73 137 13 44 105 240 241 514 129 258 229 470 240 510 12 42 201 430
510 1050 313 625 498 1007 511 1050 23 86 65 170 113 227 48 58 162 286 186
373 12 42 200 429 510 1050 311 622 499 1007 510 1050 23 80 126 291 167 339
49 59 52 65 73 137 58 211 248 474 402 557 29 15 77 46 107 70 30 23 71 50 90
59 19 10 60 37 90 60 30 24 71 51 90 60 19 10 60 37 90 60 60 47 123 81 185
101 84 27 790 14 850 -16z m240 -540 c50 -25 50 -25 720 -30 670 -5 670 -5
720 -30 50 -25 50 -25 630 -30 580 -5 580 -5 630 -30 50 -25 50 -25 690 -30
640 -5 640 -5 690 -30 48 -23 59 -24 322 -30 253 -5 273 -6 299 -25 36 -27
119 -181 145 -270 11 -38 29 -91 40 -117 31 -75 25 -122 -27 -229 -25 -52 -55
-124 -65 -162 -11 -39 -123 -276 -270 -570 -150 -298 -259 -529 -270 -570 -11
-38 -101 -232 -210 -450 -110 -218 -200 -411 -210 -450 -11 -37 -91 -212 -180
-390 -89 -178 -170 -352 -180 -390 -12 -41 -131 -291 -300 -630 -170 -339
-289 -589 -300 -630 -11 -37 -65 -159 -120 -270 -56 -111 -110 -232 -120 -270
-12 -41 -131 -291 -300 -630 -170 -339 -289 -589 -300 -630 -11 -37 -91 -212
-180 -390 -89 -178 -170 -352 -180 -390 -11 -39 -111 -251 -240 -510 -130
-258 -229 -470 -240 -510 -11 -39 -111 -252 -240 -510 -130 -258 -229 -470
-240 -510 -11 -38 -101 -232 -210 -450 -110 -218 -200 -411 -210 -450 -11 -38
-101 -232 -210 -450 -110 -218 -200 -411 -210 -450 -11 -39 -111 -251 -240
-510 -126 -251 -230 -471 -240 -508 -10 -37 -41 -113 -69 -169 -27 -57 -50
-109 -50 -116 0 -78 -461 -374 -582 -374 -62 0 -191 117 -243 220 -110 216
-287 292 -700 300 -262 5 -272 6 -320 30 -49 24 -54 24 -390 30 -336 5 -341 5
-395 30 -90 41 -881 39 -952 -3 -90 -52 -114 -105 -91 -200 35 -148 -33 -215
-157 -155 -41 20 -65 22 -295 28 -239 5 -252 6 -300 30 -48 23 -59 24 -330 30
-272 5 -281 6 -330 30 -50 25 -50 25 -450 30 -398 5 -400 5 -450 29 -45 22
-67 25 -230 30 -232 8 -254 22 -303 197 -11 38 -41 111 -66 163 -73 149 -79
125 138 559 102 204 197 385 213 403 50 60 53 66 73 138 25 90 186 412 234
470 45 53 52 66 61 111 4 19 17 62 30 95 13 33 30 85 39 117 9 33 31 74 52 99
46 55 647 1255 663 1325 13 52 26 77 74 137 15 19 37 67 47 106 14 48 247 524
721 1474 451 902 708 1426 720 1470 22 79 245 530 286 579 50 59 53 65 73 137
25 90 245 532 294 590 45 54 50 64 65 126 6 28 114 259 241 515 126 256 236
490 245 522 9 34 29 73 51 99 49 59 521 1004 545 1092 12 42 177 384 440 910
491 980 467 943 683 1054 61 31 136 75 166 98 30 24 71 51 90 60 19 10 58 36
87 57 75 57 72 57 518 55 410 -2 410 -2 460 -27z m5947 -247 c148 -146 158
-161 169 -258 4 -38 18 -92 30 -120 18 -40 24 -77 29 -180 6 -107 12 -139 31
-180 62 -130 38 -274 -88 -531 -62 -126 -120 -256 -128 -288 -9 -32 -89 -203
-177 -380 -89 -177 -169 -351 -179 -389 -11 -38 -101 -231 -210 -449 -105
-209 -201 -415 -214 -457 -13 -42 -30 -94 -39 -116 -8 -22 -15 -59 -16 -83 0
-63 -23 -108 -89 -177 -68 -70 -356 -628 -392 -758 -12 -40 -121 -271 -270
-570 -150 -299 -259 -529 -270 -570 -11 -37 -65 -159 -120 -270 -56 -111 -110
-233 -121 -270 -22 -81 -67 -173 -106 -219 -49 -59 -52 -65 -72 -137 -12 -40
-78 -187 -151 -334 -73 -144 -140 -292 -150 -330 -12 -41 -131 -291 -300 -630
-170 -338 -289 -589 -300 -630 -11 -38 -101 -232 -210 -450 -109 -218 -200
-411 -210 -450 -12 -41 -141 -311 -330 -690 -190 -379 -319 -649 -330 -690
-11 -38 -103 -234 -213 -455 -106 -213 -198 -409 -205 -437 -6 -27 -61 -151
-121 -275 -60 -124 -116 -250 -125 -282 -9 -34 -29 -73 -51 -99 -48 -57 -222
-406 -245 -492 -11 -37 -78 -186 -150 -330 -73 -144 -140 -293 -150 -330 -22
-78 -145 -328 -184 -375 -52 -62 -112 -37 -167 72 -11 22 -76 97 -143 166
-181 185 -183 206 -56 470 44 91 87 192 96 224 9 32 89 203 177 380 89 177
169 351 179 389 11 38 101 232 210 450 110 218 200 411 210 450 11 39 111 251
240 510 130 258 229 470 240 510 11 37 65 159 120 270 56 111 110 233 120 270
11 37 91 212 180 390 89 178 170 352 180 390 11 37 91 212 180 390 89 178 170
352 180 390 11 37 91 212 180 390 89 178 170 352 180 390 11 39 111 251 240
510 130 258 229 470 240 510 11 38 101 232 210 450 110 218 200 411 210 450
11 37 78 186 150 330 73 144 140 292 150 330 11 38 101 232 210 450 110 218
200 411 210 450 11 37 78 186 150 330 73 144 140 293 150 330 11 37 91 212
180 390 89 178 170 352 180 390 11 39 111 251 240 510 130 258 229 470 240
510 11 37 91 212 180 389 88 176 171 355 184 397 13 42 31 96 40 121 21 57 15
136 -16 205 -52 117 -32 255 37 255 34 0 48 -10 166 -127z m-9922 -3438 c22
-27 4 -65 -474 -1023 -256 -512 -468 -949 -474 -977 -7 -27 -115 -259 -242
-515 -126 -256 -236 -490 -245 -522 -9 -34 -29 -73 -51 -99 -48 -58 -401 -765
-426 -852 -23 -86 -65 -170 -113 -227 -48 -58 -222 -406 -246 -493 -22 -79
-365 -769 -406 -819 -50 -59 -53 -65 -73 -137 -14 -48 -185 -400 -511 -1054
-313 -625 -498 -1007 -511 -1050 -22 -81 -67 -173 -106 -219 -49 -58 -52 -65
-72 -136 -11 -39 -56 -143 -100 -232 -44 -89 -80 -169 -80 -177 0 -86 -112
-116 -230 -61 -40 19 -68 22 -257 27 -267 7 -302 30 -247 159 9 20 25 68 35
105 23 80 127 292 167 339 49 59 52 65 72 137 12 42 88 207 184 399 89 180
168 350 174 377 7 28 129 286 272 575 143 289 266 550 275 582 9 34 29 73 51
99 47 56 102 166 125 252 11 37 91 211 180 390 89 178 170 352 180 390 12 41
151 331 360 750 210 419 349 708 360 750 11 37 91 212 180 390 90 179 170 352
181 390 22 81 67 173 106 219 49 59 52 65 72 137 12 42 87 205 181 394 90 178
170 352 180 390 11 37 73 176 140 308 131 263 167 313 261 364 29 16 78 47
108 71 30 23 71 50 90 59 19 10 60 37 90 60 30 24 71 51 90 60 19 10 60 37 90
60 30 24 98 64 150 90 52 26 120 67 150 90 30 24 74 52 97 64 23 12 58 35 76
51 69 60 164 93 187 65z m9249 -372 c17 -21 47 -58 67 -83 20 -24 73 -119 119
-210 46 -91 100 -186 120 -210 43 -52 269 -497 286 -564 18 -72 5 -126 -49
-199 -55 -75 -165 -297 -187 -378 -9 -36 -30 -75 -55 -105 -22 -27 -45 -67
-51 -89 -21 -83 -32 -106 -66 -147 -46 -56 -161 -286 -184 -371 -11 -37 -65
-159 -120 -270 -56 -111 -110 -233 -120 -270 -25 -87 -126 -289 -174 -347 -48
-57 -103 -167 -126 -253 -11 -37 -79 -188 -153 -335 -73 -147 -139 -290 -145
-318 -13 -52 -26 -77 -74 -137 -15 -19 -37 -67 -47 -106 -13 -45 -114 -260
-274 -579 -139 -279 -259 -530 -265 -558 -13 -52 -26 -77 -74 -137 -15 -19
-37 -67 -47 -106 -11 -40 -66 -163 -121 -274 -56 -111 -110 -232 -120 -270
-11 -39 -102 -231 -217 -460 -277 -551 -277 -661 4 -948 140 -144 142 -149 55
-241 -32 -35 -85 -79 -117 -98 -33 -19 -84 -53 -114 -76 -30 -23 -98 -63 -150
-89 -52 -26 -120 -67 -150 -90 -30 -24 -71 -51 -90 -60 -19 -10 -60 -37 -90
-60 -30 -24 -98 -64 -150 -90 -52 -26 -120 -67 -150 -90 -30 -24 -98 -64 -150
-90 -52 -26 -120 -67 -150 -90 -30 -24 -75 -53 -99 -65 -67 -33 -242 -209
-280 -280 -17 -32 -48 -78 -68 -102 -42 -51 -106 -181 -128 -260 -9 -34 -29
-73 -51 -99 -20 -24 -100 -172 -179 -329 -79 -157 -160 -306 -180 -330 -44
-53 -108 -182 -130 -262 -9 -33 -29 -73 -51 -99 -19 -24 -46 -64 -59 -89 -13
-25 -40 -66 -60 -90 -20 -24 -115 -200 -211 -392 -216 -431 -230 -443 -319
-297 -22 37 -53 81 -68 99 -16 18 -53 83 -83 143 -40 79 -73 128 -119 177 -35
37 -75 90 -88 117 -14 27 -41 68 -61 92 -112 133 -69 249 127 348 51 25 117
65 147 88 30 24 74 53 98 64 67 34 184 152 222 223 19 35 62 93 96 129 72 77
241 396 275 522 11 37 78 186 150 330 73 144 140 293 150 330 22 79 186 410
226 459 50 59 53 65 73 137 11 40 66 163 121 274 56 111 110 232 120 270 11
38 101 231 210 450 109 218 200 411 210 450 12 41 141 311 330 690 190 379
319 649 330 690 11 38 101 232 210 450 109 218 200 411 210 450 12 40 132 294
303 635 155 312 288 590 295 617 6 28 74 178 151 335 77 157 146 310 155 342
9 34 29 73 51 99 47 56 102 166 125 252 11 37 65 159 120 270 56 111 110 232
120 270 12 40 121 271 270 570 150 299 259 529 270 570 22 77 234 507 274 555
39 47 84 45 124 -5z m780 -1407 c172 -89 182 -314 27 -624 -40 -81 -79 -170
-85 -198 -13 -52 -26 -77 -74 -137 -15 -19 -37 -67 -47 -106 -12 -42 -87 -205
-181 -394 -89 -178 -170 -352 -180 -390 -11 -37 -91 -212 -180 -390 -89 -178
-170 -352 -180 -390 -11 -40 -112 -253 -246 -520 -227 -452 -227 -452 -233
-582 -7 -154 -6 -153 -120 -270 -97 -100 -202 -286 -241 -428 -11 -37 -91
-211 -180 -389 -88 -176 -171 -355 -184 -397 -13 -42 -30 -94 -39 -116 -8 -22
-15 -59 -16 -83 0 -63 -23 -108 -89 -177 -58 -61 -293 -500 -331 -620 -38
-120 -146 -73 -233 103 -42 85 -42 85 -42 213 0 128 0 128 202 536 111 224
210 435 218 467 9 33 63 152 119 265 57 113 109 229 115 257 13 52 26 77 74
137 15 19 37 67 47 106 13 45 114 260 274 579 139 279 259 530 265 558 13 52
26 77 74 137 15 19 37 67 47 106 12 40 78 187 151 334 73 144 140 293 151 330
23 86 65 170 113 227 48 58 162 286 186 373 11 37 65 159 120 270 56 111 110
233 120 270 25 90 126 289 178 352 23 28 46 68 52 90 21 81 32 107 58 138 48
58 51 64 72 138 51 185 133 269 218 225z m-1148 -4122 c62 -61 109 -117 128
-154 17 -32 47 -78 67 -101 20 -24 47 -65 61 -92 13 -27 53 -80 88 -117 35
-37 75 -91 90 -120 15 -29 55 -83 90 -120 35 -37 75 -91 90 -120 15 -29 55
-83 90 -120 35 -37 75 -90 88 -117 14 -27 42 -69 62 -93 20 -24 48 -66 62 -93
13 -27 53 -80 88 -117 35 -37 75 -91 90 -120 15 -29 55 -83 90 -120 35 -37 75
-91 90 -120 15 -29 55 -83 90 -120 35 -37 75 -90 88 -117 14 -27 42 -69 62
-93 20 -24 48 -66 62 -93 13 -27 53 -80 88 -117 35 -37 75 -90 88 -117 14 -27
42 -69 62 -93 20 -24 48 -66 62 -93 13 -27 53 -80 88 -117 35 -37 75 -90 88
-117 14 -27 42 -69 62 -93 20 -24 48 -66 62 -93 13 -27 53 -80 88 -117 35 -37
75 -91 90 -120 15 -29 55 -83 90 -120 35 -37 75 -90 88 -117 14 -27 42 -69 63
-94 115 -137 72 -225 -121 -249 -41 -5 -88 -16 -104 -24 -16 -9 -59 -24 -97
-35 -38 -11 -94 -29 -124 -40 -30 -11 -73 -21 -95 -21 -22 -1 -58 -8 -80 -16
-22 -9 -74 -27 -115 -40 -41 -13 -100 -33 -130 -43 -34 -13 -81 -20 -123 -21
-41 0 -90 -8 -124 -20 -104 -36 -137 -23 -199 83 -20 34 -49 77 -65 95 -16 18
-41 56 -55 84 -14 28 -54 81 -89 118 -35 37 -76 92 -91 121 -15 31 -66 94
-119 149 -54 56 -104 118 -120 150 -16 32 -66 94 -120 150 -53 55 -104 118
-119 149 -15 29 -56 84 -91 121 -35 37 -76 92 -91 121 -15 31 -66 94 -119 149
-53 55 -104 118 -119 149 -15 29 -56 84 -91 121 -35 37 -76 92 -91 121 -15 31
-66 94 -119 149 -55 57 -103 117 -120 150 -20 41 -82 110 -240 270 -253 256
-263 275 -214 410 11 30 29 86 39 123 11 37 93 213 181 390 92 182 170 352
181 391 28 103 140 317 188 360 66 59 85 53 201 -60z m-825 -1583 c77 -57 271
-264 299 -321 17 -33 65 -93 120 -150 53 -55 104 -118 119 -149 15 -29 56 -84
91 -121 35 -37 76 -92 91 -121 15 -31 66 -94 119 -149 53 -55 104 -118 119
-149 15 -29 56 -84 91 -121 35 -37 76 -92 91 -121 15 -31 66 -94 119 -149 54
-56 104 -118 120 -150 16 -32 66 -94 120 -150 53 -55 104 -118 119 -149 15
-29 56 -84 91 -121 35 -37 75 -90 88 -117 14 -27 41 -68 60 -91 96 -115 135
-226 91 -261 -29 -23 -90 -46 -284 -106 -41 -13 -92 -31 -113 -39 -21 -9 -70
-21 -110 -26 -40 -5 -94 -19 -121 -31 -149 -66 -291 -28 -352 94 -14 27 -54
80 -89 117 -35 37 -76 92 -91 121 -17 35 -70 98 -149 179 -80 82 -132 144
-150 180 -16 32 -65 94 -120 150 -53 55 -104 118 -119 149 -15 29 -56 84 -91
121 -35 37 -76 92 -91 121 -17 35 -70 98 -149 179 -79 81 -132 144 -149 179
-15 29 -56 84 -91 121 -35 37 -75 90 -89 118 -14 28 -39 66 -55 84 -75 87 -72
146 12 251 15 19 37 68 48 108 26 93 231 502 266 529 38 30 92 26 139 -9z
m-13681 -1190 c45 -22 67 -25 240 -31 171 -7 197 -10 260 -33 70 -26 71 -27
375 -27 282 -1 309 -2 360 -21 30 -11 78 -25 105 -31 116 -23 125 -27 158 -76
18 -25 60 -76 94 -113 43 -47 78 -99 116 -176 30 -60 72 -129 92 -153 20 -24
62 -94 92 -154 47 -94 69 -124 148 -206 90 -93 99 -108 124 -205 6 -22 29 -62
52 -90 22 -27 52 -72 66 -100 31 -60 247 -284 313 -323 41 -25 55 -27 200 -32
136 -5 161 -9 205 -30 47 -23 63 -24 300 -30 239 -5 252 -6 300 -30 48 -23 61
-24 300 -30 239 -5 252 -6 300 -30 49 -24 57 -24 360 -30 301 -5 311 -6 360
-29 44 -21 70 -25 210 -31 141 -5 166 -9 210 -30 49 -24 58 -24 360 -30 390
-6 394 -8 510 -240 41 -82 73 -130 120 -181 80 -84 315 -539 315 -608 0 -84
-104 -114 -215 -61 -47 23 -63 24 -300 30 -240 5 -252 6 -300 30 -50 25 -50
25 -450 30 -394 5 -401 5 -450 28 -36 17 -78 26 -151 32 -71 5 -114 14 -150
30 -67 32 -277 40 -387 16 -57 -13 -79 -14 -107 -5 -19 7 -134 15 -255 18
-206 6 -223 8 -270 31 -50 25 -50 25 -480 30 -430 5 -430 5 -480 30 -49 24
-56 24 -360 30 -305 5 -311 5 -360 30 -50 25 -50 25 -450 30 -395 5 -401 5
-450 29 -41 19 -73 25 -180 30 -161 9 -192 25 -243 127 -11 22 -37 60 -57 84
-20 24 -61 92 -90 150 -29 58 -70 126 -90 150 -20 24 -47 65 -60 90 -13 25
-40 66 -60 90 -20 24 -61 92 -90 150 -29 58 -70 126 -90 150 -20 24 -61 92
-90 150 -29 58 -70 126 -90 150 -20 24 -47 65 -60 90 -13 25 -40 66 -60 90
-20 24 -47 65 -60 90 -13 25 -40 66 -60 90 -20 24 -61 92 -90 150 -29 58 -70
126 -90 150 -20 24 -61 92 -90 150 -29 58 -70 126 -90 150 -20 24 -47 65 -61
92 -13 26 -37 63 -54 81 -82 94 -94 282 -20 310 55 21 796 1 845 -22z m6240
-421 c49 -24 54 -24 390 -30 335 -5 341 -5 390 -30 48 -23 59 -24 330 -30 256
-5 284 -7 330 -27 28 -11 72 -29 99 -38 37 -14 55 -28 79 -64 18 -25 98 -113
179 -196 151 -154 178 -194 178 -262 0 -61 17 -105 61 -158 22 -27 52 -72 66
-100 14 -27 68 -93 119 -146 82 -85 94 -102 109 -155 22 -82 85 -210 129 -263
21 -25 48 -66 61 -91 13 -25 40 -66 60 -90 20 -24 48 -66 62 -93 13 -27 53
-80 87 -116 60 -64 72 -85 95 -176 6 -22 29 -62 52 -90 22 -27 52 -72 66 -99
13 -26 53 -79 88 -116 47 -50 79 -98 119 -178 31 -61 68 -126 84 -144 65 -76
107 -174 92 -212 -21 -55 -273 -66 -375 -16 -50 25 -50 25 -570 30 -520 5
-520 5 -570 30 -49 24 -56 24 -360 30 -302 5 -311 6 -360 29 -45 22 -67 25
-230 31 -212 7 -245 20 -245 94 0 50 -273 560 -335 625 -47 51 -79 98 -121
182 -48 97 -69 127 -144 204 -104 107 -110 118 -121 211 -14 125 -125 331
-244 454 -82 85 -95 103 -110 156 -9 32 -27 86 -40 119 -13 33 -26 76 -30 95
-9 45 -16 58 -60 110 -20 24 -48 66 -62 93 -13 27 -53 80 -87 116 -110 117
-121 290 -21 332 54 23 708 5 760 -21z m-3540 -720 c49 -24 56 -24 390 -30
335 -5 341 -5 390 -30 48 -23 59 -24 330 -30 270 -5 282 -6 330 -29 46 -22 66
-25 240 -31 174 -5 194 -8 240 -30 50 -24 53 -24 420 -30 360 -5 371 -6 420
-28 28 -13 83 -27 123 -32 119 -16 179 -65 252 -210 124 -246 116 -254 -225
-248 -198 3 -213 4 -260 27 -44 21 -70 25 -210 31 -141 5 -166 9 -210 30 -49
24 -58 24 -360 30 -303 5 -311 6 -360 29 -48 24 -61 25 -300 31 -239 5 -252 6
-300 30 -48 23 -61 24 -300 30 -237 5 -253 6 -300 29 -44 21 -70 25 -210 31
-204 8 -257 37 -329 179 -14 28 -39 65 -55 83 -72 83 -68 161 9 191 41 17 225
1 275 -23z m6643 -174 c45 -23 167 -157 197 -216 15 -30 53 -82 85 -115 78
-82 95 -124 74 -179 -23 -59 -487 -326 -566 -326 -60 0 -135 65 -182 158 -13
26 -41 68 -61 92 -113 135 -144 295 -73 376 89 101 455 247 526 210z"/>
</g>
</svg>
