<?xml version="1.0" standalone="no"?>
<!DOCTYPE svg PUBLIC "-//W3C//DTD SVG 20010904//EN"
 "http://www.w3.org/TR/2001/REC-SVG-20010904/DTD/svg10.dtd">
<svg version="1.0" xmlns="http://www.w3.org/2000/svg"
 width="1290.000000pt" height="948.000000pt" viewBox="0 0 1290.000000 948.000000"
 preserveAspectRatio="xMidYMid meet">
<metadata>
Created by potrace 1.16, written by Peter Selinger 2001-2019
</metadata>
<g transform="translate(0.000000,948.000000) scale(0.100000,-0.100000)"
fill="#f97316" stroke="none">
<path d="M6030 8553 c-180 -60 -375 -161 -458 -237 -39 -36 -95 -77 -124 -92
-75 -38 -306 -267 -347 -344 -17 -32 -47 -78 -67 -101 -20 -24 -46 -64 -59
-89 -13 -25 -40 -66 -60 -90 -61 -73 -114 -190 -125 -275 -5 -42 -20 -99 -32
-128 -35 -80 -35 -574 0 -654 12 -29 27 -85 32 -125 5 -40 21 -100 35 -133 46
-111 30 -185 -38 -170 -17 3 -77 10 -133 14 -69 6 -116 15 -150 31 -34 15 -80
24 -150 30 -115 8 -125 13 -204 85 -92 84 -103 88 -280 95 -175 7 -173 6 -268
92 -112 102 -205 140 -361 148 -141 7 -150 10 -231 85 -93 85 -106 90 -250 90
-155 0 -158 -2 -304 -144 -221 -216 -221 -226 0 -442 116 -113 137 -127 225
-153 32 -9 77 -33 105 -55 27 -21 69 -48 93 -60 23 -13 72 -49 108 -82 71 -67
130 -98 183 -99 80 0 108 -17 236 -141 140 -136 178 -158 274 -159 145 0 240
-75 295 -229 37 -104 -48 -160 -260 -171 -106 -6 -139 -12 -180 -31 -46 -22
-66 -24 -270 -29 -202 -6 -224 -8 -269 -30 -36 -16 -79 -25 -150 -30 -73 -6
-115 -15 -151 -31 -47 -22 -65 -24 -295 -29 -266 -5 -257 -4 -346 -71 -121
-92 -224 -117 -317 -76 -99 42 -279 33 -392 -21 -116 -56 -424 -353 -444 -430
-45 -167 272 -395 530 -380 83 5 183 44 269 107 59 43 137 38 280 -18 304
-121 413 -121 546 -1 80 73 189 62 326 -32 83 -57 103 -61 334 -56 203 3 207
5 300 88 75 69 95 68 260 -13 71 -35 152 -69 179 -76 96 -24 215 -81 215 -104
0 -12 -53 -74 -138 -161 -97 -99 -150 -161 -175 -208 -48 -85 -113 -143 -186
-164 -92 -27 -109 -39 -296 -224 -172 -169 -184 -179 -240 -195 -96 -27 -130
-53 -321 -247 -317 -319 -335 -395 -145 -591 158 -163 233 -181 451 -107 160
54 146 44 286 181 132 128 152 139 258 139 173 0 372 103 447 231 50 86 86
116 147 124 251 30 489 153 571 293 52 88 77 111 153 133 417 124 601 278 637
534 15 101 68 142 150 114 47 -16 54 -44 30 -120 -40 -125 -25 -270 42 -404
54 -109 54 -109 60 -330 5 -206 7 -223 30 -270 23 -48 24 -62 29 -295 6 -261
9 -275 59 -333 58 -65 61 -83 61 -353 0 -316 -5 -300 135 -441 164 -165 220
-189 354 -152 100 27 143 54 218 132 80 83 85 96 93 247 5 101 11 135 30 175
20 43 24 72 30 210 5 140 9 166 30 210 22 46 24 65 30 270 5 204 7 224 29 270
19 41 25 74 31 180 5 106 11 139 30 180 21 45 24 69 30 240 5 171 8 195 29
240 19 40 25 74 30 172 6 110 9 124 30 147 56 60 117 18 132 -89 13 -91 23
-106 206 -286 124 -122 168 -159 203 -171 25 -9 72 -26 105 -38 33 -12 83 -27
110 -32 115 -23 125 -27 158 -76 95 -140 237 -261 349 -297 40 -13 91 -30 113
-39 22 -8 56 -15 75 -16 81 -1 108 -17 240 -145 131 -127 229 -191 320 -210
19 -4 62 -17 95 -30 33 -13 86 -31 118 -40 50 -14 71 -28 150 -104 110 -104
100 -98 257 -151 211 -72 298 -54 431 88 111 117 122 242 36 408 -71 137 -335
397 -446 439 -63 24 -78 34 -105 74 -101 150 -305 326 -411 356 -120 33 -163
70 -191 166 -19 64 -262 319 -344 359 -114 57 -73 98 109 110 121 7 121 7 258
74 174 84 192 85 267 16 96 -86 92 -85 336 -85 215 0 215 0 355 68 177 85 194
86 269 17 143 -128 324 -123 639 18 112 49 130 47 298 -33 191 -93 238 -97
419 -35 239 80 316 179 268 344 -22 77 -330 374 -443 428 -113 54 -293 63
-392 20 -120 -52 -194 -40 -288 48 -104 96 -95 94 -375 100 -228 5 -248 7
-295 28 -27 13 -83 27 -123 32 -40 6 -94 20 -120 32 -44 21 -65 22 -327 28
-265 5 -283 6 -330 28 -27 13 -82 27 -120 32 -39 5 -105 23 -147 40 -42 16
-81 30 -87 30 -34 0 -44 49 -22 107 48 124 87 153 220 162 170 12 334 113 442
273 49 72 64 80 170 89 124 10 215 72 310 211 47 68 61 77 145 89 241 34 483
331 389 476 -32 50 -189 204 -235 231 -113 67 -314 37 -420 -63 -81 -77 -86
-78 -260 -85 -186 -7 -187 -8 -316 -131 -112 -106 -120 -109 -319 -109 -171
-1 -199 -8 -278 -68 -67 -51 -138 -87 -224 -111 -37 -10 -86 -27 -108 -36 -22
-10 -82 -21 -135 -25 -72 -5 -108 -13 -151 -33 -31 -15 -64 -25 -73 -21 -45
17 -50 247 -7 339 19 40 25 75 31 180 5 105 11 140 31 185 34 77 35 221 1 297
-12 29 -27 85 -32 125 -5 40 -18 94 -30 120 -11 26 -25 80 -30 122 -11 85 -64
202 -124 275 -19 23 -50 69 -67 101 -23 44 -85 112 -257 282 -246 241 -421
349 -738 452 -168 55 -669 54 -834 -1z m780 -184 c30 -11 86 -29 123 -39 193
-57 423 -193 569 -338 95 -93 146 -153 168 -193 17 -32 47 -77 67 -101 56 -67
104 -176 113 -260 5 -40 18 -94 29 -120 12 -26 25 -80 31 -120 5 -40 19 -95
32 -123 34 -73 33 -219 -1 -290 -19 -41 -25 -73 -31 -180 -5 -107 -11 -139
-30 -180 -22 -46 -24 -66 -29 -270 -7 -249 -3 -237 -95 -335 -167 -178 -69
-490 154 -490 60 0 99 -17 176 -76 114 -87 115 -102 21 -173 -108 -81 -177
-167 -177 -222 0 -72 125 -200 239 -244 104 -39 133 -127 66 -194 -25 -25 -30
-26 -179 -29 -192 -4 -215 2 -301 78 -108 95 -169 78 -257 -73 -23 -40 -56
-89 -73 -109 -42 -50 -55 -97 -55 -204 0 -154 -37 -216 -137 -229 -26 -3 -79
-12 -117 -20 -146 -28 -386 129 -386 254 0 126 -165 272 -297 263 -50 -4 -158
-126 -222 -251 -104 -204 -173 -244 -427 -249 -231 -5 -231 -5 -262 153 -5 28
-19 75 -31 105 -11 30 -25 73 -31 96 -12 51 -68 116 -128 152 -47 27 -47 27
-344 32 -346 6 -353 8 -353 110 0 69 30 98 114 110 146 20 261 149 231 259
-12 45 -105 150 -192 217 -83 64 -80 86 21 135 51 26 96 59 148 110 175 173
217 304 136 424 -40 60 -43 116 -12 185 25 54 27 125 6 167 -9 17 -25 61 -36
99 -10 38 -26 86 -35 107 -9 21 -21 70 -26 110 -5 40 -19 95 -32 122 -36 77
-36 573 0 650 13 28 27 83 32 123 9 84 57 193 114 261 21 25 48 66 61 91 13
25 39 65 59 89 20 23 50 69 67 102 37 69 106 137 176 173 28 14 82 54 122 90
79 74 258 171 378 205 37 11 93 29 123 40 51 19 80 20 360 20 280 0 309 -1
360 -20z m-3951 -1790 c77 -27 60 -78 -71 -206 -128 -125 -165 -131 -250 -42
-137 141 101 325 321 248z m7463 1 c93 -26 128 -136 69 -217 -68 -94 -131
-108 -183 -41 -18 24 -67 75 -108 115 -85 83 -90 116 -20 140 43 15 192 16
242 3z m-6961 -180 c122 -34 137 -93 39 -157 -91 -59 -146 -123 -166 -189 -39
-136 -101 -131 -266 19 -127 115 -123 140 37 257 111 80 233 104 356 70z
m6480 0 c118 -33 195 -180 139 -265 -147 -221 -265 -251 -314 -80 -12 41 -31
70 -74 117 -92 99 -108 135 -86 193 16 41 233 63 335 35z m-5826 -244 c74 -31
60 -97 -38 -169 -92 -69 -96 -74 -158 -187 -74 -138 -103 -159 -195 -145 -140
21 -247 289 -157 395 85 102 408 164 548 106z m5306 -28 c127 -62 159 -119
146 -260 -17 -192 -227 -338 -341 -238 -34 30 -43 50 -66 136 -7 28 -30 64
-73 110 -92 101 -143 196 -130 244 18 67 333 72 464 8z m-4821 -169 c30 -14
78 -24 146 -29 104 -8 127 -15 157 -48 27 -29 19 -83 -13 -98 -157 -72 -186
-98 -251 -226 -40 -79 -43 -89 -49 -198 -10 -169 -20 -180 -130 -149 -36 11
-77 19 -93 19 -50 0 -93 26 -127 77 -18 26 -57 73 -86 103 -154 160 -97 397
112 459 42 12 95 39 134 66 75 53 125 59 200 24z m4076 -60 c64 -58 123 -88
172 -89 28 0 102 -23 102 -32 0 -2 14 -41 30 -88 43 -123 28 -202 -57 -301
-16 -19 -44 -56 -62 -82 -35 -51 -78 -77 -128 -77 -16 0 -57 -8 -93 -19 -107
-30 -130 -5 -130 142 0 113 -13 146 -91 232 -47 51 -72 88 -80 117 -6 24 -20
69 -30 101 -29 94 -1 125 115 128 28 1 65 5 81 9 80 20 111 13 171 -41z m-560
-156 c34 -80 -15 -183 -86 -183 -41 0 -65 51 -55 117 15 98 109 143 141 66z
m-3152 -196 c44 -32 4 -111 -61 -123 -56 -11 -85 9 -81 53 5 63 93 106 142 70z
m-549 -533 c42 -20 46 -29 55 -139 5 -61 16 -106 32 -140 31 -66 41 -457 14
-548 -46 -151 -59 -162 -191 -159 -86 3 -136 10 -175 23 -30 11 -86 29 -125
40 -91 26 -262 116 -289 152 -17 23 -21 43 -21 107 0 100 13 118 128 180 179
96 221 148 218 274 -1 96 8 110 113 163 121 62 184 74 241 47z m4455 -32 c30
-22 78 -51 107 -65 59 -30 63 -38 61 -129 -2 -107 48 -166 219 -258 115 -62
128 -80 128 -180 0 -106 -12 -120 -157 -194 -116 -59 -116 -59 -245 -66 -132
-7 -147 -11 -219 -62 -76 -54 -101 -42 -149 72 -65 154 -68 802 -3 875 60 69
166 71 258 7z m-4059 -65 c67 -45 45 -97 -42 -97 -39 0 -51 5 -68 26 -59 74
25 128 110 71z m3520 -7 c43 -24 9 -83 -45 -78 -42 4 -46 55 -6 75 30 15 27
15 51 3z m-4526 -74 c71 -30 34 -121 -54 -133 -94 -13 -127 101 -40 136 34 14
55 13 94 -3z m5576 -19 c41 -27 53 -82 23 -104 -47 -34 -137 8 -142 67 -6 61
55 80 119 37z m-5986 -43 c19 -8 37 -27 43 -42 5 -15 22 -61 38 -102 39 -101
45 -418 8 -466 -50 -67 -57 -69 -264 -69 -188 0 -188 0 -252 45 -35 24 -88 54
-118 66 -112 45 -94 138 50 245 97 72 185 168 200 216 24 79 34 96 64 109 44
19 190 18 231 -2z m6528 7 c38 -15 54 -37 72 -97 25 -85 152 -210 252 -248
166 -63 141 -178 -61 -281 -189 -96 -495 -92 -570 9 -37 48 -31 365 8 466 16
41 33 87 38 102 18 50 178 80 261 49z m-7346 -144 c39 -39 46 -190 14 -282
-12 -33 -30 -88 -40 -123 -39 -134 -140 -173 -289 -113 -26 10 -77 28 -115 40
-164 51 -219 149 -147 266 33 54 215 223 251 234 78 23 296 9 326 -22z m8267
22 c23 -6 62 -33 100 -68 33 -31 83 -72 109 -90 137 -94 98 -304 -65 -352 -35
-10 -90 -28 -123 -40 -187 -66 -301 -1 -315 182 -4 57 -15 121 -24 141 -70
163 104 287 318 227z m-9107 -142 c40 -39 47 -211 13 -282 -61 -127 -211 -179
-360 -124 -30 11 -77 26 -103 35 -126 40 -121 119 15 250 147 142 356 201 435
121z m9907 -10 c130 -62 256 -195 256 -270 0 -199 -509 -179 -559 21 -13 51
-23 244 -13 259 31 48 205 43 316 -10z m-3539 -315 c234 -8 245 -10 289 -63
60 -71 27 -160 -83 -222 -166 -93 -218 -221 -150 -372 93 -210 -20 -390 -199
-316 -26 11 -74 27 -107 36 -73 21 -203 139 -231 210 -26 70 -17 363 14 430
13 28 27 82 31 120 15 129 77 201 165 191 28 -3 150 -10 271 -14z m-2844 -12
c87 -24 157 -116 170 -223 4 -40 18 -94 30 -122 28 -60 39 -264 20 -350 -26
-113 -103 -191 -225 -226 -39 -11 -92 -29 -118 -40 -200 -82 -287 85 -168 322
50 98 52 140 11 196 -29 40 -48 55 -171 136 -157 103 -177 265 -36 306 43 13
442 13 487 1z m1380 -240 c22 -6 67 -38 110 -76 41 -36 96 -77 122 -91 189
-95 235 -301 119 -533 -49 -99 -142 -68 -230 77 -63 105 -161 193 -214 193
-58 0 -188 -129 -212 -211 -49 -165 -237 -203 -277 -56 -20 73 -7 231 26 312
15 39 32 83 38 98 6 16 35 47 66 69 31 23 95 79 143 124 106 102 189 127 309
94z m-1911 -246 c72 -29 78 -74 23 -184 -47 -96 -52 -184 -14 -270 77 -176 6
-360 -155 -405 -33 -9 -80 -25 -106 -36 -195 -80 -265 -8 -232 239 10 69 -12
124 -77 198 -101 114 -45 264 132 354 24 13 67 40 95 62 81 61 238 80 334 42z
m3985 -49 c27 -20 80 -45 118 -56 112 -33 187 -114 187 -201 0 -48 -11 -68
-81 -145 -55 -61 -61 -84 -43 -161 60 -255 -35 -368 -246 -291 -30 11 -84 28
-118 38 -153 45 -241 251 -175 406 12 28 29 76 38 108 13 47 29 72 85 132 39
43 73 90 80 112 35 107 68 119 155 58z m-2074 -511 c38 -33 106 -77 171 -110
159 -82 178 -113 138 -227 -11 -31 -20 -82 -20 -112 0 -155 -56 -167 -188 -41
-102 96 -135 116 -192 116 -57 0 -90 -20 -192 -116 -147 -140 -188 -119 -188
100 0 170 24 211 140 246 84 25 135 61 194 139 58 74 60 75 137 5z m-2674 -30
c51 -39 66 -77 59 -148 -4 -40 -1 -80 9 -116 63 -234 -33 -397 -250 -426 -135
-19 -171 27 -114 146 52 108 40 178 -41 255 -99 93 -60 187 95 234 39 11 90
34 115 51 55 37 83 38 127 4z m5343 -8 c41 -19 101 -42 133 -51 93 -26 177
-113 177 -185 0 -50 -15 -67 -90 -95 -109 -42 -126 -86 -66 -178 41 -62 52
-112 36 -162 -17 -52 -39 -56 -144 -28 -295 79 -352 166 -262 398 10 26 15 74
16 135 1 201 43 237 200 166z m-5849 -395 c41 -41 38 -76 -17 -190 -42 -87
-47 -105 -53 -196 -10 -140 -34 -174 -143 -206 -35 -10 -88 -27 -118 -38 -159
-58 -310 0 -310 118 0 134 218 396 365 440 39 11 82 29 96 38 78 54 97 63 122
63 18 0 39 -11 58 -29z m6484 -82 c65 -18 187 -145 237 -246 119 -240 17 -386
-212 -302 -30 11 -83 28 -118 38 -131 39 -183 137 -152 288 5 26 12 70 15 96
13 105 111 159 230 126z m-3337 -87 c15 -15 41 -48 59 -74 18 -26 65 -72 106
-102 85 -62 97 -86 96 -180 -1 -135 -29 -158 -108 -91 -137 117 -242 113 -376
-15 -126 -120 -155 -104 -155 85 0 117 9 136 97 201 41 30 88 76 106 102 52
76 82 102 117 102 21 0 40 -9 58 -28z m-18 -582 c11 -6 34 -32 51 -58 18 -26
59 -75 90 -109 86 -93 99 -170 48 -281 -16 -35 -23 -77 -29 -167 -10 -165 -13
-170 -140 -199 -102 -24 -211 25 -246 111 -21 50 -20 520 1 571 42 99 158 168
225 132z"/>
<path d="M5699 6091 c-91 -59 -169 -157 -169 -212 0 -107 113 -180 289 -189
70 -3 132 -10 139 -14 53 -33 132 5 132 63 -1 235 -239 450 -391 352z"/>
<path d="M7079 6091 c-45 -29 -123 -106 -153 -151 -41 -62 0 -154 99 -215 189
-117 494 70 377 231 -110 150 -225 198 -323 135z"/>
<path d="M6164 5302 c-104 -75 -147 -244 -102 -395 15 -50 178 -224 247 -265
151 -89 480 39 529 204 67 227 -77 488 -208 377 -25 -21 -44 -27 -89 -29 -43
-1 -72 -10 -114 -34 -87 -49 -103 -42 -99 47 6 118 -71 162 -164 95z m464
-274 c7 -7 12 -38 12 -70 0 -110 -84 -161 -227 -139 -116 18 -122 54 -16 89
53 17 86 36 133 77 66 58 78 63 98 43z"/>
</g>
</svg>
