<svg height="1872pt" preserveAspectRatio="xMidYMid meet" viewBox="0 0 1872 1872" width="1872pt" xmlns="http://www.w3.org/2000/svg"><g fill="#f97316" transform="matrix(.1 0 0 -.1 0 1872)"><path d="m15836 18129c-70-32-98-40-125-35-127 18-136 18-198-3-45-15-87-21-152-21-91 0-214-31-366-93-30-12-89-23-150-27-69-6-115-15-149-30-35-16-81-25-150-30-68-5-116-15-148-29-26-12-80-25-120-31-40-5-95-19-122-31-34-15-82-24-150-29s-116-15-148-29c-26-12-80-25-120-31-40-5-95-19-122-31-34-15-82-24-150-29s-116-15-148-29c-26-12-80-25-120-31-40-5-95-19-123-31-33-15-76-24-130-27-77-4-217-42-350-95-30-12-90-23-150-27-69-6-115-15-149-30-35-16-81-25-150-30-68-5-116-15-148-29-26-12-80-25-120-31-40-5-94-18-120-30-26-11-80-24-120-30-40-5-95-19-122-31-34-15-82-24-150-29-70-6-116-15-150-30-35-16-81-25-150-30-68-5-116-15-148-29-26-12-80-25-120-31-40-5-94-18-120-30-26-11-80-24-120-30-40-5-95-19-122-31-34-15-82-24-150-29s-116-15-148-29c-26-12-80-26-122-31-162-20-191-42-613-463-304-302-378-382-404-431-24-45-79-109-214-246-124-126-191-201-208-236-14-27-42-70-62-94-172-206-91-339 215-350 171-6 247-31 295-94 35-47 31-779-5-851-25-50-25-50-30-840s-5-790-30-845c-38-83-37-275 1-370 15-36 30-82 33-102 21-115 156-130 185-20 11 40 6 68-30 167-30 85-25 247 11 320 25 50 25 50 30 840s5 790 30 840c29 58 45 821 20 910-34 115-264 245-436 245-128 0-162 55-88 143 14 16 37 53 51 81 17 35 83 109 208 236 135 137 190 201 214 246 26 49 89 117 324 351 328 325 353 343 508 362 41 6 96 20 123 32 34 15 82 24 150 29s116 15 148 29c26 12 80 25 120 31 40 5 94 18 120 30 26 11 80 24 120 30 40 5 95 19 122 31 34 15 82 24 150 29 70 6 116 15 150 30 35 16 81 25 150 30 68 5 116 15 148 29 26 12 80 25 120 31 40 5 94 18 120 30 26 11 80 24 120 30 40 5 95 19 122 31 34 15 82 24 150 29 71 6 116 15 151 31 34 15 75 24 130 27 77 4 217 42 350 95 30 12 90 23 150 27 67 5 116 15 147 29 26 12 80 25 120 31 40 5 95 19 122 31 34 15 82 24 150 29s116 15 148 29c26 12 80 25 120 31 40 5 95 19 122 31 34 15 82 24 150 29 67 5 117 15 150 29 27 12 77 24 110 27 34 2 97 16 141 31 60 19 90 24 118 19 72-14 36-64-58-82-22-4-85-30-140-59s-116-56-135-60-87-31-150-60-140-60-170-69c-69-19-197-62-275-91-33-13-76-26-95-30s-74-27-122-51-118-52-155-63c-38-10-105-37-150-60-45-22-112-50-150-61-89-26-213-67-288-95-33-13-76-26-95-30s-74-27-122-51-117-53-155-64c-89-26-213-67-288-95-33-13-76-26-95-30s-74-27-122-51-117-53-155-64c-147-43-232-74-333-121-58-26-130-55-160-63-67-19-194-61-275-91-33-13-76-26-95-30s-74-27-122-51-117-53-155-64c-359-105-554-214-635-353-23-40-56-89-73-110-55-64-56-76-53-622 3-500 3-500 28-550s25-50 30-660 5-610 30-660 25-50 30-540 5-490 30-540 25-50 28-395c4-428 14-390-143-550-79-81-132-144-149-179-15-29-56-84-91-121-47-50-79-98-121-181-48-98-69-127-149-209s-101-111-149-209c-42-83-74-131-121-181-35-37-75-91-90-120s-55-83-90-120-75-91-90-120-55-83-90-120-75-90-88-117c-14-27-42-69-62-93s-47-65-60-90-40-66-60-90c-54-65-148-256-148-302 0-91 98-158 242-168 68-5 111-14 146-30 40-18 76-24 180-30 105-5 140-11 180-30 40-18 75-24 180-30 104-5 140-11 180-29 35-16 80-25 151-31 70-5 115-14 150-30 39-18 75-24 179-30 102-5 141-11 180-29 28-12 83-26 123-31s96-20 125-32c93-41 226-34 306 16 58 35 67 38 115 33 123-15 192-29 235-48 25-11 79-24 119-29 40-6 94-19 120-30 26-12 80-25 120-30 40-6 92-18 116-28 23-11 65-25 94-32 32-7 76-29 112-56 33-24 101-64 152-90 51-25 118-65 148-89 30-23 71-50 90-60 19-9 60-36 90-60 30-23 71-50 90-60 19-9 60-36 90-60 30-23 98-64 150-90s120-66 150-90c30-23 98-64 150-90s120-66 150-90c30-23 71-50 90-60 19-9 60-36 90-60 30-23 98-64 150-90s120-66 150-90c30-23 71-50 90-60 19-9 60-36 90-60 30-23 128-79 218-124 131-66 176-94 234-147s102-81 240-150c137-69 181-96 239-150 39-35 90-74 113-85 22-12 66-40 96-64 30-23 71-50 90-60 19-9 60-36 90-60 30-23 74-52 98-64s75-51 114-87 94-77 122-91c31-16 100-74 177-148 82-80 144-132 180-150 80-40 555-514 600-599 18-33 61-91 95-127 72-77 170-260 203-380 21-72 24-79 73-137 15-17 35-58 43-90 9-31 25-78 36-104s24-80 29-120 19-95 31-122c15-34 24-82 29-150 6-73 15-115 32-151 34-73 34-276 0-350-13-27-27-83-32-123s-18-94-29-120-27-72-35-104c-10-33-31-74-52-99-19-24-47-66-61-93-34-69-277-314-347-351-28-15-74-45-102-66-50-39-119-69-156-69-23 0-21 11 28 125 20 44 46 114 59 155 12 41 30 93 39 115 11 29 15 77 15 175s-4 146-15 175c-9 22-26 74-39 117-30 96-83 201-129 257-20 23-49 69-67 100-42 80-390 427-467 465-29 15-85 56-124 92-49 46-102 81-172 116-56 27-126 69-156 93-71 55-405 222-493 247-38 10-107 38-155 62s-103 47-122 51-62 17-95 30c-75 28-199 69-289 96-38 11-81 26-97 35-16 8-63 19-105 24-41 5-96 19-122 30-26 12-80 25-120 30-40 6-94 19-120 31-37 17-76 23-177 29-106 5-139 11-180 30-45 21-69 24-240 30-360 11-405 68-269 341 42 85 85 185 95 222 11 38 33 95 49 128 62 121 18 205-79 154-60-31-137-159-172-288-11-37-53-135-94-218-65-129-77-161-85-227-8-69-21-100-120-301-121-243-133-284-109-368 15-57 91-139 160-173 24-12 69-41 99-65 30-23 71-50 90-60 19-9 60-36 90-59 30-24 79-56 108-71 119-64 163-147 126-233-11-24-19-82-24-167-5-104-11-140-29-180-16-35-25-80-31-151-5-69-14-115-30-150-15-34-24-80-30-150-5-70-14-115-30-150-18-39-24-75-30-179-5-102-11-141-29-180-12-27-26-83-31-123-6-40-19-94-31-120-17-37-23-76-29-177-5-102-11-141-29-180-12-27-26-78-31-114-21-149-84-176-411-176-247 0-247 0-300 36-30 20-64 39-77 42-61 14-287-71-376-142-128-102-175 26-80 219 62 129 58 189-16 220-40 17-72-5-113-76-54-92-127-144-252-179-33-9-88-28-122-41-135-53-144-7-36 198 73 140 140 178 318 178 107 0 112 1 175 35 36 19 101 54 144 76 90 46 271 213 302 277 11 22 20 75 24 132 5 65 14 112 29 145 12 28 26 83 31 123 6 40 19 94 31 120 14 32 24 79 28 147 4 55 15 117 24 139 73 170-195 376-653 502-30 8-129 51-220 95-124 60-182 82-230 89-96 14-102 21-234 281-118 234-118 234-126 339-6 74-15 120-30 154-16 35-25 81-30 150-6 70-15 116-30 150-16 35-25 81-30 150-6 73-15 115-31 151-35 75-41 351-9 440 11 33 30 91 41 128 10 38 38 105 60 150 23 45 50 112 60 150 11 38 38 105 60 150 23 45 50 112 60 150 11 37 51 131 89 207 80 159 88 203 45 245-28 29-70 32-103 9-30-21-209-380-234-467-10-38-38-107-62-155-23-48-50-116-60-152-21-80-113-257-147-282-14-11-55-23-93-29-37-5-80-16-95-24-16-8-59-23-97-34-38-10-112-40-164-65-72-35-114-48-172-56-59-7-98-20-167-55-49-24-120-54-158-64-37-11-95-30-128-42-77-27-186-23-260 10-27 12-83 26-123 31s-94 18-120 29c-54 22-176 62-276 92-38 11-81 26-97 35-16 8-63 19-104 24s-97 18-123 29c-26 10-69 27-95 36-52 19-51 16-103 155-41 105-43 287-4 365 23 48 24 59 30 330 5 243 8 285 24 320 43 93 39 165-11 204-61 49-131 7-152-89-6-29-21-74-33-99-21-43-22-65-28-326-5-270-6-282-29-330-33-68-42-255-16-325 9-25 27-79 40-120s31-93 40-115c10-22 21-85 25-140 5-67 15-116 29-147 12-26 25-80 31-120 5-40 18-94 30-120 11-26 25-81 30-122 5-42 16-89 24-105 9-16 24-59 35-97 10-38 26-86 35-107s21-70 26-110 18-93 30-120c51-115 37-189-56-288-51-55-78-98-147-236-47-93-102-189-122-213s-61-92-90-150-70-126-90-150-74-119-120-210-100-186-120-210-61-92-90-150-70-126-90-150c-20-25-88-146-150-270s-130-246-150-270c-56-67-59-79-65-282-5-186-5-186-35-229-73-104-153-134-275-104-66 16-74 16-140 0-106-26-305-18-380 15-129 58-281 38-484-63-199-99-180-92-200-71-22 22-20 93 4 149 11 26 23 64 26 85 32 200-158 269-196 72-18-89-37-103-92-67-83 55-196 36-439-76-182-84-200-79-175 48 20 100 233 534 279 567 45 33 242 31 312-3 135-67 394-42 680 65 33 12 76 25 95 29 166 35 319 180 320 305 0 19 10 60 21 90 10 30 30 89 43 130s31 93 40 115c8 22 15 58 16 80 0 22 10 65 21 95s29 86 40 124 26 81 35 97c8 16 19 63 24 104s18 97 29 123c18 45 41 114 95 282 13 41 31 93 40 115 8 22 15 58 16 80 0 22 10 65 21 95 10 30 30 89 43 130s31 93 40 115c32 82 16 166-45 241-24 29-45 68-54 103-21 78-265 567-309 620-22 26-42 65-51 99-22 80-145 328-190 382-21 25-106 181-191 353-171 341-175 357-132 447 18 38 22 70 27 205 7 163 16 201 55 234 34 29 57 81 66 156 5 42 19 97 30 123 12 26 25 80 30 120 6 40 19 94 30 120 12 26 25 79 30 119s17 89 26 110 25 69 35 107c11 38 26 81 35 97 8 16 19 63 24 105 5 41 19 96 31 122 11 26 24 80 29 120 19 169 55 205 381 367 137 69 276 145 308 169 33 24 81 49 107 55 73 19 102 37 194 126 103 99 110 103 204 115 87 11 188 57 276 125 30 24 156 94 280 155 225 112 225 112 447 332 174 173 229 234 254 282s89 119 304 336c212 213 279 287 300 330 22 44 103 131 405 435 208 209 383 390 389 402 28 55 0 103-59 103-49 0-866-813-925-920-29-53-77-108-214-244-225-224-223-223-311-66-123 220-212 227-590 49-208-98-219-97-278 14-27 52-27 52-32 392-6 336-6 341-30 390-29 58-42 332-21 412 25 93 120 128 220 83 176-80 361 106 281 284-16 34-25 81-30 150-5 68-15 116-29 148-12 26-25 80-31 120-5 40-19 95-31 122-15 34-24 83-29 150-5 56-15 118-24 138-48 111 18 178 175 178 211 0 330 197 208 345-22 27-52 72-66 99-13 26-53 79-88 116s-76 92-91 121c-15 31-66 95-121 151-175 180-191 259-78 379 76 80 112 155 107 226-2 26-99 133-146 162-33 21-153 64-280 101-38 12-80 27-95 34-14 8-42 17-61 21s-62 17-95 30c-75 28-199 69-289 96-38 11-81 26-97 35-16 8-63 19-104 24-113 14-175 51-175 104 0 26 39 69 309 341 227 227 319 326 345 372 38 65 76 102 137 133 47 25 155 124 175 161 49 96-24 138-128 74-44-27-74-37-132-45-42-5-89-16-105-24-16-9-60-24-97-34-38-11-105-37-149-60-44-22-112-49-151-61-42-12-94-38-129-63-32-23-86-50-119-60-165-49-238-78-446-178-124-60-250-116-280-124-31-9-82-34-115-58-32-23-86-49-119-59-34-10-97-34-141-53-110-49-145-46-145 14 0 36 160 357 204 410 21 24 75 119 121 210s100 186 120 210c70 84 235 431 244 514 10 83 25 118 76 166 64 61 83 121 47 153-38 34-79 20-158-54-32-29-94-69-164-104-104-52-123-67-239-179-82-81-145-133-181-151-41-20-111-83-270-240-159-158-229-220-270-240-41-21-113-84-275-244-287-282-387-340-416-242-11 38-7 322 7 424 23 174-293 81-392-116-15-29-67-94-119-147-53-55-104-118-119-149-15-29-56-84-91-121s-75-90-88-117c-14-27-42-69-62-93s-47-65-60-90-40-66-60-90-47-64-60-89c-29-59-68-97-128-128-27-13-92-66-146-117-57-55-120-105-152-121-81-41-451-413-467-471-7-25-12-117-12-230-1-247-26-301-180-379-28-14-95-68-149-120-92-88-108-98-268-178-236-119-326-203-364-338-11-39-27-86-37-103-13-25-18-70-22-221-5-170-8-195-29-240-32-70-31-135 3-183 47-69 448-458 496-482 25-12 71-42 103-66 35-26 84-51 122-63 36-10 87-36 116-56 122-90 261-89 382 3 28 22 68 48 87 57 19 10 60 37 90 60 30 24 100 66 156 93 71 35 123 70 172 116 81 74 371 228 499 265 37 11 93 29 123 40 62 22 120 41 230 77 180 58 238 78 285 97 203 82 367-5 305-163-11-28-20-58-20-66 0-9-11-43-24-77-22-60-49-139-100-297-35-108-55-167-77-230-11-30-30-89-43-130s-31-93-40-115c-8-22-15-58-16-80 0-22-10-65-21-95-10-30-30-89-43-130-33-102-54-165-77-230-11-30-31-89-44-130-32-102-53-165-76-230-11-30-27-80-35-110s-37-102-63-160c-27-58-61-141-75-185s-37-114-50-155c-36-110-55-168-77-230-11-30-29-86-40-124s-26-81-35-97c-8-16-19-63-24-104s-20-99-32-128c-38-86-36-1054 2-1137 25-55 25-57 30-425 6-421 15-455 155-605 52-55 67-79 80-126 9-33 39-107 67-166 47-100 51-115 58-211 4-61 14-115 23-134 9-17 25-61 36-99s29-94 40-124c25-72 47-138 76-230 13-41 44-119 70-172 36-75 49-114 55-171 7-59 19-95 54-165 25-50 55-121 65-159 11-37 29-93 40-123s21-73 21-95c1-22 8-58 16-80 9-22 27-74 40-115s33-100 43-130c26-70 26-111 0-180-11-30-27-80-35-110s-37-102-63-160c-27-58-61-141-75-185s-37-114-50-155c-36-112-55-169-77-230-11-30-27-80-35-110s-37-102-63-160c-27-58-61-141-75-185s-37-114-50-155c-36-110-55-168-77-230-11-30-28-83-38-118-29-100-100-155-258-201-37-11-95-30-128-42-69-24-125-22-202 9-101 41-243 82-280 82-72 0-212-119-266-226-14-28-42-70-62-94s-47-65-61-92c-13-26-36-62-52-80-49-59-52-65-73-138-10-39-37-107-59-150-64-127-46-199 67-270 70-45 114-41 243 20 81 38 124 52 183 60 136 17 337 142 337 208 0 76-78 90-194 37-47-22-102-39-146-44-41-6-104-24-155-46-135-58-155-41-108 86 17 46 36 103 42 126s27 61 47 84c20 24 46 64 60 91 13 26 37 62 52 80 16 18 43 54 61 80 49 74 90 85 179 49 236-94 297-102 444-55 248 79 485 254 517 384 7 25 21 70 32 100s31 89 44 130c32 102 53 165 76 230 11 30 27 80 35 110s37 102 63 160c27 58 61 141 75 185s37 114 50 155c36 112 55 169 77 230 11 30 27 80 35 110s37 102 63 160c92 198 130 337 114 408-14 55-57 186-84 254-11 26-24 82-29 123s-16 88-24 104c-9 16-24 59-35 97-10 38-40 113-66 166-36 75-49 113-55 171-7 59-19 95-54 165-25 50-54 121-65 159-10 37-28 94-40 125-12 32-21 68-21 82 0 13-10 49-21 80-32 81 1 126 39 54 9-18 67-85 128-148 65-67 122-136 137-166 14-27 42-70 62-94s48-67 62-94c61-122 295-329 407-361 32-9 176-75 320-147s288-138 322-148c64-17 224-123 247-164 8-14 14-101 18-261 5-229 6-242 30-290 65-134 19-322-115-464-47-50-79-98-119-178-30-60-72-129-92-153s-47-65-60-90-40-66-60-90-47-65-60-90-40-66-60-90-61-92-90-150-70-126-90-150-47-65-61-92c-13-26-37-62-53-80s-46-62-67-98c-22-39-85-113-155-185-117-120-117-120-253-393-75-150-136-280-136-288 0-71-34-86-215-94-128-6-157-10-200-30-43-21-71-25-210-31-141-6-167-10-220-33-71-30-162-36-172-10-18 47 50 241 121 343 52 77 42 141-23 141-85 0-263-219-283-349-5-30-25-88-44-130-57-122-44-179 54-242 69-44 163-30 367 54 40 17 82 22 210 27 140 6 166 10 210 31 102 49 346 36 431-24 95-65 108-63 284 23 78 39 172 79 208 90 37 11 99 31 137 44 65 22 104 30 147 27 21-1 38-51 38-111 0-188 157-291 292-193 208 154 467 214 613 144 66-32 281-42 387-17 61 14 74 14 138 0 172-39 359 63 456 248 49 93 49 93 54 283 5 202 7 211 62 273 16 18 80 136 142 260 63 125 131 247 151 272 20 24 61 92 90 150s70 126 90 150 74 119 120 210 100 186 120 210 61 92 90 150 70 126 90 150 74 119 120 210c110 218 134 240 272 240 42 0 84 8 129 25 110 41 144 34 195-43 17-26 166-182 329-347 219-220 305-313 323-351 14-27 41-69 61-93 42-50 60-109 52-171-7-54-239-530-284-581-16-19-46-62-66-96-55-95-125-143-263-182-37-10-86-27-108-37-30-13-78-19-195-23-201-8-310-74-393-237-14-28-42-70-62-94-108-129-143-266-87-343 79-111 139-127 261-73 134 60 139 59 235-68 83-110 159-120 321-43 110 52 110 52 480 57 364 5 371 6 420 30 41 19 72 25 176 30 200 10 308 97 309 250 0 19 10 60 21 90s29 86 40 123c35 121 132 301 204 377 35 37 75 91 90 120s55 83 90 120 75 91 90 120 55 83 90 120 76 91 90 121c16 30 69 96 124 153 121 127 146 209 110 365-22 98 7 102 179 23 105-49 195-82 337-123 39-11 116-44 170-73 121-64 135-83 110-154-9-26-20-92-24-148-6-67-15-116-30-150-12-27-26-82-31-122-6-40-19-94-31-120-15-32-23-79-28-147-11-147-24-163-214-256-128-63-128-63-256-69-161-8-173-14-337-182-211-214-311-448-236-551 83-116 138-128 282-63 194 90 241 89 287-3 91-180 208-217 349-110 120 92 229 118 314 77 96-47 601-39 752 12 223 75 264 120 278 300 5 66 14 111 30 145 18 40 24 76 30 180 5 102 11 141 29 180 12 28 26 83 31 123 6 40 19 94 31 120 17 37 23 76 29 177 5 104 11 140 29 180 16 35 25 80 31 151 5 69 14 115 30 150 15 34 24 80 30 150 5 70 14 115 30 150 18 39 24 75 30 179 4 87 12 143 23 169 26 58 22 106-12 152-48 67-255 260-301 284-25 12-70 41-100 65-30 23-75 52-98 64-171 87-198 181-104 363 82 160 146 190 277 128 45-21 68-24 240-30 171-5 195-8 240-29 41-19 74-25 180-31 102-5 141-11 180-29 28-12 83-26 123-31 40-6 94-19 120-30 26-12 79-25 119-30s89-17 110-26c21-8 72-26 113-39 94-29 159-51 230-76 30-11 86-29 123-40 38-11 105-38 150-60 45-23 112-50 150-60 88-25 396-179 467-234 30-23 101-66 158-94 71-35 124-71 172-116 39-35 97-78 129-95 75-40 258-224 294-296 14-27 42-70 62-94 47-56 89-140 114-227 11-37 29-93 40-123 16-44 20-80 20-180s-4-136-20-180c-11-30-29-86-40-123-33-116-75-185-169-282-48-49-101-111-119-137-70-104-339-239-384-193-27 27-29 69-7 131 34 97 39 122 28 162-21 78-94 145-156 145-46 0-341-145-422-208-30-24-98-64-150-90s-120-67-150-90c-30-24-125-78-210-120-85-43-180-97-210-120-30-24-128-80-218-124-170-85-281-172-364-285-71-98 7-217 176-267 39-12 83-28 98-35 16-8 62-19 104-24 41-5 96-19 122-30 26-12 80-25 120-30 40-6 94-19 120-30 26-12 80-25 120-30 40-6 94-19 120-30 26-12 80-25 120-30 40-6 94-19 120-30 26-12 80-25 120-30 40-6 94-19 120-30 26-12 80-25 120-30 40-6 94-19 120-30 26-12 79-25 117-30 39-5 102-21 140-35 193-68 312 21 216 163-48 70-111 199-111 227 0 50 115 108 243 125 39 5 93 18 119 30 26 11 80 25 122 30 57 7 97 20 165 55 49 24 120 54 158 65 165 48 263 88 315 127 29 23 96 62 148 88s120 67 150 90c30 24 74 52 96 64 23 11 73 49 112 85s93 76 119 90c72 36 136 97 171 165 18 33 49 79 68 102 20 24 60 91 89 149s70 126 90 150c21 25 110 189 199 365 161 320 161 320 161 450 0 115-3 136-24 185-17 39-26 85-31 155-5 67-15 116-29 147-12 26-26 81-31 122-5 42-16 89-24 105-9 16-24 60-34 97-11 38-38 106-61 151-22 45-49 112-60 150-10 37-66 164-125 281-130 262-130 260-55 413 84 171 76 201-96 368-79 76-110 98-204 145-80 41-131 75-183 122-78 72-296 188-411 219-47 13-72 28-121 74-35 33-82 71-106 87-58 39-65 61-40 141 23 75 27 230 8 297-33 114-181 199-512 297-38 11-81 26-97 35-16 8-63 19-105 24-41 5-96 19-122 30-26 12-80 25-120 30s-94 18-120 29c-113 45-243 84-325 96-77 12-98 75-56 165 96 204-53 462-282 491-38 5-91 18-117 29-26 12-80 25-120 30-40 6-94 19-120 31-32 14-80 24-148 29-69 5-115 14-150 30-34 15-80 24-153 30-182 14-248 122-172 285 101 215-16 419-248 435-68 5-111 14-146 30-40 18-76 24-180 30-105 5-140 11-180 30-40 18-75 24-180 30-102 5-141 11-180 29-27 12-77 26-111 30-77 11-98 23-111 58-6 15-23 60-38 98-19 49-30 99-35 165-11 137-40 190-139 248-65 38-208 40-291 3-45-20-80-26-185-31-71-4-143-12-158-19-39-15-72-14-87 4-40 48 82 179 244 261 61 32 136 76 166 100 31 23 228 128 449 239 216 108 418 215 448 237 31 24 80 49 116 59 34 10 89 28 121 39 90 32 426 27 501-8 28-13 83-27 123-32s94-18 120-29c54-22 176-62 276-92 38-11 81-26 97-35 16-8 63-19 104-24s97-18 123-28c129-52 252-86 332-93 47-4 110-13 141-20 133-30 299 107 319 265 5 42 20 98 32 124 23 47 23 47 28 749s5 702 311 1315c169 337 322 631 340 654 19 23 48 61 65 86 24 35 44 50 80 63 27 9 72 26 99 37 31 13 89 24 150 28 69 6 115 15 149 30 35 16 81 25 150 30 70 6 116 15 150 30 35 16 81 25 150 30 71 6 116 15 151 31 40 18 76 24 180 29 105 6 140 12 180 30 40 19 75 25 180 30 101 6 140 12 177 29 26 12 80 25 120 31 40 5 96 19 123 32 106 48 238 19 369-81 28-21 61-44 73-50 115-59 306 103 272 232-13 50-59 187-80 239-11 26-24 82-29 123s-16 88-24 104c-9 16-24 59-35 97-30 100-70 222-92 276-11 26-24 82-29 123s-16 88-24 104c-9 16-24 59-35 97s-29 94-40 124-21 73-21 95c-1 22-8 58-16 80-9 22-26 74-39 115s-31 92-39 113c-9 21-21 70-26 110s-18 93-30 119c-11 26-25 80-30 120s-18 94-29 118c-43 94-23 146 66 174 26 9 73 24 103 35 33 12 81 20 119 21 196 1 441 140 441 250 0 64-226 307-340 365-30 15-96 68-151 121-54 51-121 105-149 119s-83 55-122 91-93 77-121 91-94 67-148 118c-54 52-117 104-141 115-24 12-68 41-98 65-30 23-75 52-99 65-25 12-88 64-142 116-54 51-117 103-141 114-24 12-68 41-98 65-30 23-75 52-99 65-25 12-88 64-142 116-54 51-117 103-141 114-24 12-68 41-98 65-30 23-71 50-90 60s-61 37-93 61c-75 56-103 57-221 3zm185-184c19-13 56-37 83-52 27-16 76-49 110-74 34-26 82-57 106-69s87-64 141-116c54-51 117-103 141-114 24-12 68-41 98-65 30-23 75-52 99-65 25-12 88-64 142-116 54-51 117-103 141-114 24-12 68-41 98-65 30-23 75-52 99-65 25-12 88-64 142-116 54-51 121-105 149-119s83-55 122-91 93-77 121-91 94-67 147-118c57-54 122-106 159-125 183-98 138-203-94-220-67-5-115-15-147-29-26-12-79-25-117-30-199-25-300-196-222-373 12-26 25-80 31-120 5-40 18-94 30-120 11-26 25-81 30-122 5-42 16-89 24-105 9-16 24-59 35-97s29-94 40-124 21-73 21-95c1-22 8-58 16-80 9-22 27-74 40-115s33-100 43-130c11-30 21-73 21-95 1-22 8-58 16-80 9-22 27-74 40-115 54-168 77-237 95-282 11-26 24-82 29-123s16-88 24-104c15-29 55-162 64-214 11-67-31-72-119-14-78 51-164 91-240 111-44 12-72 30-130 82-41 36-92 75-114 86s-65 39-95 63c-30 23-152 91-270 150s-240 126-270 150c-30 23-98 64-150 90s-120 66-150 90c-30 23-125 77-210 120-85 42-180 96-210 120-30 23-125 77-210 120-85 42-180 96-210 120-97 75-309 174-396 185-42 5-96 19-122 31-37 17-76 23-177 29-106 5-139 11-180 30-45 21-69 24-240 30-171 5-195 8-240 29-41 19-74 25-180 31-107 5-139 11-180 30-47 23-64 24-300 30-237 5-253 6-300 29-44 21-70 25-210 31-140 5-166 9-210 30-47 23-63 24-300 30-239 5-252 6-300 30-48 23-59 24-330 30-271 5-282 6-330 29-47 23-64 25-270 31-206 5-223 7-270 30-48 23-62 24-300 30-238 5-252 6-300 29-47 23-64 25-271 30-223 6-254 12-254 45 0 31 102 92 201 120 121 35 219 70 319 117 58 26 130 55 160 63 67 19 194 61 275 91 33 13 76 26 95 30s74 27 122 51 117 53 155 64c147 43 232 74 333 121 58 26 130 55 160 63 67 19 194 61 275 91 33 13 76 26 95 30s74 27 122 51 117 53 155 64c89 26 213 67 288 95 33 13 76 26 95 30s74 27 122 51 118 52 155 63c38 10 105 37 150 60 45 22 112 50 150 61 89 26 213 67 288 95 33 13 76 26 95 30s74 27 122 51 118 52 155 63c38 10 105 37 150 60 45 22 112 50 150 61 89 26 213 67 288 95 33 13 76 26 95 30s74 27 122 51 117 53 155 64c174 51 246 81 502 206 296 145 315 150 372 109zm-11187-1310c-1-51-106-273-158-335-21-24-75-119-121-210s-100-186-120-210-82-134-137-244c-127-254-130-294-31-387 89-84 148-89 281-25 50 25 122 54 159 65 40 12 94 39 131 65s85 49 115 57c29 6 145 58 259 115s238 113 275 124c156 45 262 88 312 125 34 24 79 45 123 57 39 10 82 25 97 32 40 21 88 29 96 16 20-32-23-81-439-500-360-361-439-446-466-497-45-86-109-142-231-204-57-28-129-71-159-94-30-24-102-67-160-95-147-73-310-231-310-300 0-54 163-226 259-275 31-15 95-66 150-119 53-50 122-106 153-124 115-64 102-128-33-166-30-8-79-24-109-35s-73-21-95-21c-22-1-58-8-80-16-22-9-74-26-116-39-84-26-304-132-358-174-106-81-113-135-36-292 106-216 70-250-280-259-205-6-223-8-270-30-44-21-69-25-200-30-154-6-218-20-395-90-25-10-70-25-100-34-70-20-197-62-275-91-33-13-76-26-95-30-85-18-424-201-498-269-52-47-103-81-181-121-61-30-125-67-143-83s-55-42-83-57c-27-16-73-46-102-68-71-53-170-65-187-21-15 38 68 128 174 189 36 20 106 76 155 125 50 48 113 99 141 113s83 55 122 91 90 75 114 87 68 41 98 64c30 24 71 51 90 60 19 10 60 37 90 60 30 24 74 52 96 64 23 11 74 50 113 85 58 54 102 81 240 151 207 103 243 147 175 210-59 55-284-33-431-168-40-36-91-76-115-88s-68-41-98-64c-30-24-71-51-90-60-19-10-60-37-90-60-30-24-74-52-96-64-23-11-73-49-112-85s-94-77-122-91-95-68-149-119c-54-52-120-105-148-119s-82-55-121-91-90-75-112-86c-23-12-69-41-102-66-85-62-131-62-216 0-33 25-80 55-104 67-47 23-301 267-324 311-20 39-17 106 8 158 19 39 22 69 28 235 5 174 8 195 32 250 14 33 28 72 31 86 12 50 48 78 198 154 138 70 159 85 248 170 57 54 120 104 152 120 79 40 331 294 347 351 7 25 12 116 12 230 0 163 3 195 19 229 26 55 213 236 279 269 30 15 96 68 151 120 55 53 121 106 151 121 75 38 249 209 289 285 17 32 47 78 67 101 20 24 46 64 59 89s40 66 60 90 48 66 62 93c13 27 53 80 88 117s75 91 90 120c47 92 151 189 189 174 40-15 51-216 16-314-28-79-26-119 9-166 75-105 122-102 244 15 52 50 118 101 148 116 39 20 112 85 269 240 160 158 229 220 270 240 41 21 110 82 270 240 157 155 230 220 269 240 30 15 94 65 145 114 153 147 182 160 180 86zm5481-1164c238-6 252-7 300-31 48-23 61-24 300-30 238-5 252-6 300-29 47-23 64-25 270-31 206-5 223-7 270-30 48-23 59-24 330-30 271-5 282-6 330-29 48-24 61-25 300-31 237-5 253-6 300-29 44-21 70-25 210-31 140-5 166-9 210-30 47-23 63-24 300-30 236-5 253-6 300-29 41-19 73-25 180-31 106-5 139-11 180-30 45-21 69-24 240-30 171-5 195-8 240-29 41-19 74-25 180-31 102-5 141-11 180-29 28-12 84-26 125-31 90-12 278-97 376-172 34-26 131-81 215-123 85-42 179-96 209-120 30-23 125-77 210-120 85-42 180-96 210-120 30-23 98-64 150-90s120-66 150-90c30-23 159-94 286-158 276-139 340-192 287-239-53-46-106-61-238-68-105-6-140-12-180-30-40-19-75-25-180-30-104-6-140-12-179-30-35-16-80-25-150-30-70-6-116-15-150-30-35-16-81-25-150-30-71-6-116-15-151-31-34-15-76-24-130-27-225-12-446-136-528-298-14-28-42-70-62-94-22-27-163-296-349-665-311-620-311-620-316-1320-5-760-4-745-60-775-36-19-174 109-225 210-18 36-69 98-150 180-80 82-132 144-150 180-16 32-65 94-120 150-54 56-104 118-120 150s-66 94-120 150c-55 57-103 117-120 150-21 42-91 119-300 330-213 214-279 287-300 330-31 64-2908 2954-3024 3038-84 60-91 79-91 245 0 197 18 230 110 199 33-11 111-17 295-21zm-4560-570c28-12 83-26 123-31s94-18 120-29c44-18 105-38 282-95 110-36 168-55 230-77 30-11 84-29 120-39 232-67 260-123 131-263-32-34-65-73-74-87-47-69 8-195 148-340 53-55 104-118 119-149 15-29 56-84 91-121s75-90 89-117c14-28 36-64 50-80 73-86 49-129-82-147-52-8-172-66-227-111-97-79-120-158-75-259 16-34 25-81 30-150 5-68 15-116 29-148 12-26 25-80 31-120 5-40 19-95 31-123 15-33 24-81 29-145 4-52 13-116 20-141 24-84 0-101-102-74-156 40-257-16-351-198-54-106-65-412-17-517 25-54 25-59 30-395 4-296 7-344 22-371 10-17 26-65 38-105 23-84 55-130 124-176 78-53 113-48 296 42 83 42 182 84 218 94 37 11 80 24 95 30 96 38 205-78 224-236 17-148-192-356-527-523-124-62-250-132-280-156-124-97-271-136-337-89-36 27-481 905-512 1010-11 39-30 97-42 130-27 78-23 186 10 260 16 35 25 80 31 151 5 68 14 116 29 150 12 27 26 82 31 122 6 40 19 94 31 120 14 32 24 80 29 148s14 116 29 150c12 27 26 82 31 122 6 40 19 94 30 120 12 26 25 80 30 120s20 96 32 125c37 85 36 1353-1 1437-22 48-26 75-31 215-9 242-21 263-352 591-179 177-270 260-310 282-82 46-99 92-58 160s229 86 345 33zm5652-1453c1188-1188 1397-1401 1424-1453 25-47 91-120 304-335 209-211 279-288 300-330 17-33 65-93 120-150 54-56 104-118 120-150s66-94 120-150c55-56 104-118 120-150 18-36 70-98 150-180 78-80 132-144 149-178 15-29 58-87 96-127 141-153 96-264-78-189-20 9-68 25-106 35-38 11-81 26-97 35-16 8-63 19-104 24s-97 18-123 29c-54 22-176 62-276 92-38 11-81 26-97 35-16 8-63 19-105 24-41 5-96 20-122 32-159 76-613 16-765-100-28-22-230-129-447-237-225-113-418-216-450-240-30-24-102-66-160-95-135-67-438-357-460-440-26-102-34-116-125-210-52-53-104-118-119-147-14-29-40-68-56-87-17-19-55-79-84-133-70-129-84-138-194-138-69 0-97 5-137 23-27 13-83 27-123 32-40 6-94 19-120 31-37 17-76 23-177 29-104 5-140 11-180 29-35 16-80 25-151 31-70 5-115 14-150 30-39 18-75 24-179 30-105 5-140 11-180 30-40 18-76 24-180 30-113 6-140 11-207 39-42 17-81 31-87 31-65 0-31 141 61 248 15 18 39 54 52 80 14 27 41 68 61 92s48 66 62 93c13 27 53 80 88 117s75 91 90 120 55 83 90 120 75 91 90 120 55 83 90 120c47 50 79 98 121 181 48 98 69 127 149 209s101 111 149 209c42 83 74 131 121 181 35 37 76 92 91 121 17 35 72 100 154 184 162 167 152 127 148 570-3 350-3 350-28 400s-25 50-30 540-5 490-30 540-25 50-30 660-5 610-30 660c-61 125-37 375 37 375 37 0 70-32 1430-1392zm-6066 1147c34-31 88-69 119-86 42-22 105-78 227-202 224-228 234-249 244-482 5-141 9-166 30-210 37-77 38-1350 1-1430-13-27-27-83-32-123-6-40-19-94-30-120-12-26-25-80-30-120-6-40-19-94-31-120-14-32-24-80-29-148s-14-116-29-150c-12-27-26-82-31-122-6-40-19-94-31-120-14-32-24-80-29-148-5-70-14-115-30-150-31-67-39-201-15-264 9-25 27-79 40-121s135-300 279-587c231-462 256-518 256-562 0-71-39-113-130-140-43-13-90-37-127-64-32-24-185-107-341-185-393-196-503-308-532-536-5-42-19-97-30-123-12-26-25-79-30-119s-17-89-26-110-25-69-35-107c-11-38-26-81-35-97-8-16-19-63-24-105-5-41-19-96-31-122-11-26-24-79-28-118-5-38-18-91-29-117-12-26-26-72-31-102-20-109-56-126-112-52-18 23-72 83-120 132-48 51-98 114-113 144-15 29-56 84-91 121s-75 91-90 119c-14 29-51 80-82 113-56 61-56 61-47 122 22 163 10 1438-14 1494-35 80-38 136-13 207 12 33 31 91 42 129s26 81 35 97c8 16 19 63 24 105 5 41 19 96 30 122 12 26 25 79 30 119s17 89 26 110c8 21 26 72 39 113s30 93 39 115c8 22 15 58 16 80 0 22 10 65 21 95s29 86 40 124 26 81 35 97c8 16 19 63 24 105 5 41 19 96 31 122 11 26 24 79 28 118 5 38 18 92 31 120 15 34 24 80 30 150 5 71 14 114 30 150 22 45 24 67 30 269 5 206 7 224 30 275 58 128 31 358-44 384-82 30-118-27-126-196-5-110-10-142-30-183-22-46-24-66-30-270-5-203-7-224-29-270-16-36-25-79-31-151-10-139-39-180-142-204-29-7-146-59-260-116s-238-113-275-124c-99-29-221-69-275-91-83-34-163-26-174 16-9 36 13 188 34 242 19 45 39 106 96 283 36 112 55 169 77 230 11 30 27 80 36 110 8 30 23 75 33 100 60 151 79 237 64 292-27 102 1 118 207 118 276 0 519 117 519 251 0 26-19 76-60 160-96 195-72 242 157 308 37 11 93 29 123 40s73 21 95 21c22 1 58 8 80 16 22 9 74 27 115 40s111 36 155 50c290 94 351 183 188 274-32 18-99 72-149 120-51 49-115 100-144 115-30 15-97 68-149 119-53 50-123 107-156 126-113 66-100 110 57 190 57 29 128 72 158 96 30 23 100 64 155 92 61 30 124 72 163 106 83 74 101 74 183 1zm-1045-3450c18-45 17-69-7-135-10-30-30-89-43-130s-31-93-40-115c-8-22-15-58-16-80 0-22-10-65-21-95s-29-86-40-124-26-81-35-97c-8-16-19-63-24-105-5-41-19-96-30-122-12-26-25-81-31-122-21-168-118-264-419-415-85-43-180-97-210-120-30-24-125-78-210-120-85-43-180-97-210-120-106-83-265-149-296-124-23 19-15 165 13 234 19 47 39 103 97 285 36 110 55 168 77 230 11 30 29 86 40 123 11 38 39 107 63 155s47 103 51 122 17 62 30 95c25 68 64 184 98 295 45 146 92 190 203 190 55 0 169 32 339 96 33 12 75 25 94 29s124 52 234 106c233 115 268 123 293 64zm-389-1654c42-62 43-83 43-770 0-642-1-666-20-706-29-60-272-296-340-330-38-19-102-74-210-180-107-105-172-161-210-180-34-17-97-69-170-140-192-187-242-194-315-48-30 58-30 58-35 428-6 368-6 370-30 420-25 50-25 50-25 437 0 464-19 412 187 518 80 41 169 94 199 116 30 23 124 77 209 119 85 43 175 94 200 114 24 20 132 82 240 138 219 114 240 119 277 64zm7870-413c17-18 26-42 33-89 5-36 19-86 30-111 11-26 25-81 30-123 20-156 108-233 280-245 67-5 111-14 145-30 40-18 76-24 180-30 105-5 140-11 180-30 40-18 75-24 180-30 102-5 141-11 180-29 27-12 78-26 114-31 116-16 150-99 92-225-111-238 65-474 368-495 67-5 112-14 146-30 35-15 81-24 151-30 68-5 116-14 150-29 27-12 82-26 122-31 40-6 94-19 120-30 25-11 74-25 108-29 127-18 164-131 95-286-48-106-28-167 89-280 67-63 127-94 185-95 22 0 65-10 95-21s86-29 124-40 81-26 97-35c16-8 63-19 105-24 41-5 96-19 122-30 26-12 80-25 120-30s94-18 120-29c53-21 174-62 270-90 132-39 178-161 122-321-43-124 33-250 202-336 28-14 78-52 113-84 71-66 96-81 179-105 111-31 290-129 368-201 50-46 102-81 178-119 191-96 208-144 119-326-74-151-75-148 55-406 58-117 114-243 125-280 10-38 37-105 60-150 22-45 49-112 60-150 10-37 26-85 35-106s21-70 26-110 19-94 31-121c15-34 24-82 29-150 6-73 15-115 32-151 20-44 23-65 23-177 0-126 0-126-156-440-87-174-173-333-194-358-20-24-62-94-92-155-64-127-272-354-377-411-28-15-76-46-106-70-30-23-97-63-149-89s-118-65-148-87c-31-24-80-49-116-59-144-43-228-74-327-120-78-36-124-51-180-58-41-6-96-19-122-31-26-11-80-24-120-30-40-5-94-18-120-30-26-11-79-24-118-29-184-23-267-148-200-297 49-110-40-156-171-88-16 8-63 19-105 24-41 5-96 19-122 30-26 12-80 25-120 30-40 6-94 19-120 30-26 12-80 25-120 30-40 6-94 19-120 30-26 12-80 25-120 30-40 6-94 19-120 30-26 12-80 25-120 30-40 6-94 19-120 30-26 12-80 25-120 30-150 19-215 86-139 143 17 14 93 55 167 92s160 87 190 110c30 24 125 78 210 120 85 43 180 97 210 120 30 24 98 64 150 90s120 67 150 90c60 47 171 106 237 125 66 20 73 9 73-115 0-143 25-203 114-267 64-46 85-41 326 77 187 92 225 107 288 114 87 11 196 59 280 125 31 24 73 52 92 61 19 10 60 37 90 60 30 24 75 53 100 65 69 34 480 446 519 520 17 32 49 80 71 106 22 27 45 67 51 89 5 22 19 65 30 95 12 30 25 78 31 105 14 78 34 156 53 205 25 68 17 256-15 324-16 36-25 79-30 150-5 68-15 116-29 148-12 26-26 81-31 122-5 42-16 89-24 105-9 16-24 61-35 101s-33 88-48 107c-48 60-61 85-74 137-23 97-144 321-213 395-34 36-77 94-95 127-46 87-689 728-771 769-36 18-98 70-181 150-78 76-145 133-178 149-28 15-84 56-123 92s-89 74-112 85c-22 12-66 40-96 64-30 23-71 50-90 60-19 9-60 36-90 60-30 23-74 52-98 64s-75 51-114 87c-58 53-102 81-240 150-137 69-181 96-240 150-58 53-102 81-232 146-89 44-186 99-216 123-30 23-71 50-90 60-19 9-60 36-90 60-30 23-98 64-150 90s-120 66-150 90c-30 23-71 50-90 60-19 9-60 36-90 60-30 23-98 64-150 90s-120 66-150 90c-30 23-98 64-150 90s-120 66-150 90c-30 23-71 50-90 60-19 9-60 36-90 60-30 23-71 50-90 60-19 9-60 36-90 60-30 23-98 64-150 90s-121 67-153 91c-38 28-84 51-130 65-40 12-84 28-99 35-16 8-62 19-104 24-41 5-96 19-122 30-26 12-79 25-119 30-228 29-291 114-182 245 22 27 50 68 61 90 48 95 82 115 212 125 71 6 116 15 151 31 40 18 75 24 180 29 79 4 140 12 155 20 84 45 176 49 217 8zm-7747-1308c11-6 34-32 51-58 18-26 58-74 89-107 32-33 70-85 85-115 16-32 66-94 120-150 53-55 104-118 119-149 15-29 56-84 91-121 94-100 117-271 56-405-44-96-41-105 137-460 88-176 176-340 197-365 49-59 150-261 174-351 21-73 24-78 75-139 38-45 206-387 206-421 0-67-68-66-210 2-79 38-123 52-180 60-62 8-84 16-128 47-29 20-76 51-105 68-29 16-74 47-100 67-27 20-74 44-105 52-31 9-185 78-342 155s-311 147-344 155c-72 20-140 80-185 164-17 33-47 79-67 102-20 24-47 66-61 93-14 28-67 94-118 146-53 55-104 118-119 149-15 29-56 84-91 121s-76 92-90 121c-17 34-69 96-140 169-197 203-198 225-13 406 64 63 124 112 158 129 38 19 102 74 210 180 107 105 172 161 210 180 34 17 97 69 170 140 155 150 188 168 250 135zm5408-2230 23-23c1-1 5-58 9-127 6-97 12-136 30-174 16-35 25-80 31-150 4-56 15-122 24-149 18-49 5-97-26-97-6 0-45-14-87-31-58-24-101-33-177-39-66-5-116-15-147-29-26-12-80-25-120-31-40-5-95-19-122-31-34-15-82-24-150-29-70-6-116-15-150-30-35-16-81-25-150-30-70-6-116-15-150-30-35-16-81-25-150-30-70-6-116-15-151-30-34-16-80-25-145-30-59-4-115-15-148-29-130-52-208 16-232 202-5 42-16 90-24 106-9 16-24 59-35 97-10 38-26 86-35 107s-21 70-26 110-18 93-30 119c-11 25-23 68-26 95-3 26-12 78-21 114-26 105-9 122 96 96 36-9 88-18 114-21s69-14 95-25c54-22 176-62 276-92 38-11 81-26 97-35 16-8 63-19 105-24 41-5 96-19 122-31 121-55 285-27 542 92 79 37 124 51 182 59 59 7 98 20 167 55 49 24 120 53 158 64 37 10 84 26 103 35 50 22 102 20 128-4zm-4203-819c46-22 99-42 117-46s60-17 93-30c33-12 82-30 109-40 76-28 94-90 55-195-11-30-29-86-40-124s-26-81-35-97c-8-16-19-63-24-104s-18-97-29-123c-18-45-41-114-95-282-13-41-31-93-40-115-8-22-15-58-16-80 0-22-10-65-21-95s-29-86-40-124-26-81-35-97c-8-16-19-63-24-104s-18-97-29-123c-21-53-62-175-90-271-25-83-59-117-142-142-108-32-221-70-274-93-71-30-399-32-455-2-102 54-106 117-16 225 21 25 48 66 61 91s40 66 60 90 61 92 90 150 70 126 90 150 47 65 60 90 40 66 60 90 47 65 60 90 40 66 60 90 62 93 92 153c39 79 72 128 118 177 143 152 192 343 125 490-22 49-25 71-28 211-6 247 15 269 183 190zm4360-127c42-20 46-29 55-139 10-126 228-571 335-685 52-55 67-79 80-126 9-33 26-81 37-109 61-145 37-247-87-375-53-55-104-118-119-149-15-29-56-84-91-121s-75-91-90-120-55-83-90-120-75-91-90-120-55-83-90-120c-66-70-193-300-210-380-4-19-21-71-37-115-17-44-34-91-39-105-15-39-47-53-144-61-61-5-106-14-140-31-49-22-58-23-415-28-365-5-365-5-458-47-205-95-243 1-89 226 42 61 46 95 15 128-38 41-61 31-168-72-86-82-106-96-157-110-32-9-86-28-120-41-79-31-101-31-109 1-7 28 34 126 70 165 13 14 38 47 56 73 47 71 76 80 233 75 124-5 129-4 180 23 29 15 77 34 107 43 281 80 321 108 414 294 30 59 71 128 91 152 56 67 295 550 302 611 8 67-11 128-59 185-22 27-51 71-65 99-18 36-109 134-333 360-396 399-412 433-210 455 41 5 97 18 124 31 34 15 82 24 150 29 70 6 116 15 150 30 35 16 81 25 150 30 68 5 116 15 148 29 26 12 80 25 120 31 40 5 95 19 122 31 34 15 82 24 151 29 56 4 112 13 126 20 72 39 144 48 194 24z"/><path d="m2685 14298c-11-6-43-33-71-59-39-36-66-52-110-64-185-50-494-301-494-400 0-130 241-215 381-133 112 66 221 223 264 382 12 44 28 71 64 110 104 111 80 228-34 164z"/><path d="m945 12918c-81-44-215-206-215-260 0-114 119-118 176-6 14 28 47 74 74 102 103 111 79 227-35 164z"/></g></svg>