<?xml version="1.0" standalone="no"?>
<!DOCTYPE svg PUBLIC "-//W3C//DTD SVG 20010904//EN"
 "http://www.w3.org/TR/2001/REC-SVG-20010904/DTD/svg10.dtd">
<svg version="1.0" xmlns="http://www.w3.org/2000/svg"
 width="1272.000000pt" height="624.000000pt" viewBox="0 0 1272.000000 624.000000"
 preserveAspectRatio="xMidYMid meet">
<metadata>
Created by potrace 1.16, written by Peter Selinger 2001-2019
</metadata>
<g transform="translate(0.000000,624.000000) scale(0.100000,-0.100000)"
fill="#f97316" stroke="none">
<path d="M5945 5343 c-11 -3 -68 -27 -127 -54 -122 -56 -167 -61 -238 -26 -42
20 -61 22 -307 25 -285 3 -290 3 -548 -94 -33 -12 -76 -25 -95 -29 -51 -11
-167 -71 -230 -120 -30 -24 -71 -51 -90 -60 -58 -29 -118 -83 -160 -146 -53
-77 -64 -82 -203 -89 -254 -14 -686 -289 -824 -525 -52 -90 -78 -113 -154
-135 -42 -13 -90 -37 -126 -64 -32 -24 -78 -54 -103 -66 -30 -15 -139 -116
-320 -296 -327 -324 -390 -365 -497 -323 -15 6 -59 20 -98 31 -130 36 -176 69
-370 259 -192 188 -221 209 -285 209 -95 0 -260 -152 -260 -240 0 -106 263
-329 439 -370 31 -7 67 -25 86 -42 33 -28 42 -48 64 -133 6 -22 29 -62 51 -88
22 -27 45 -68 51 -90 6 -23 20 -66 30 -95 23 -65 24 -101 3 -150 -8 -20 -19
-70 -24 -110 -15 -138 -70 -211 -208 -281 -152 -77 -242 -195 -234 -307 2 -26
81 -116 136 -156 47 -34 75 -35 168 -7 109 33 201 24 274 -27 30 -21 80 -54
111 -72 31 -18 85 -60 120 -93 103 -96 377 -209 507 -209 107 0 136 -28 150
-142 23 -193 203 -365 312 -297 120 74 184 186 184 323 0 144 34 186 188 233
185 56 246 79 402 154 91 43 188 84 215 90 84 20 197 83 273 153 78 71 113 86
206 86 91 0 251 58 507 182 226 110 226 110 330 118 71 5 119 15 151 29 26 12
81 26 122 31 42 5 89 16 105 24 16 9 60 24 98 34 80 23 185 75 263 132 78 57
126 61 248 21 114 -38 130 -38 242 -1 74 25 107 30 182 30 93 0 210 30 363 93
67 28 163 28 230 0 243 -100 537 -128 670 -62 94 46 225 36 311 -23 92 -63
276 -124 389 -130 55 -3 96 -12 130 -27 40 -18 77 -25 183 -30 133 -8 133 -8
299 -90 140 -69 177 -83 240 -91 41 -5 95 -19 121 -31 32 -14 80 -24 151 -29
100 -8 105 -9 160 -49 78 -57 179 -108 269 -136 43 -13 95 -30 117 -39 22 -8
56 -15 75 -16 69 -1 110 -20 182 -86 39 -36 89 -74 112 -86 22 -11 67 -40 99
-64 38 -28 84 -51 130 -65 40 -12 112 -41 160 -65 63 -32 107 -47 156 -53 37
-5 103 -21 147 -36 142 -49 203 -26 355 133 128 133 147 204 90 334 -12 26
-26 81 -31 122 -5 42 -16 89 -24 105 -9 16 -24 60 -34 98 -24 86 -79 196 -127
253 -20 24 -48 67 -62 94 -16 31 -73 99 -148 176 -122 125 -128 134 -155 240
-26 98 -266 313 -456 408 -188 94 -211 112 -263 201 -98 168 -363 356 -586
417 -57 15 -66 23 -275 229 -248 245 -403 343 -576 365 -42 5 -96 19 -122 30
-26 12 -80 25 -120 30 -92 12 -97 15 -210 122 -141 134 -449 288 -599 298 -70
5 -114 14 -153 31 -81 35 -337 36 -417 1 -120 -52 -194 -40 -287 47 -77 72
-74 70 -222 120 -121 41 -121 41 -545 40 -233 -1 -433 -3 -444 -6z m950 -220
c28 -12 76 -29 108 -38 41 -11 72 -29 104 -57 80 -74 77 -61 86 -448 14 -635
4 -960 -32 -1035 -19 -41 -25 -74 -31 -180 -5 -88 -12 -143 -24 -170 -10 -22
-28 -74 -41 -115 -66 -213 -77 -230 -155 -255 -25 -8 -70 -23 -100 -34 -40
-15 -82 -21 -155 -21 -65 -1 -114 -6 -140 -16 -235 -91 -379 1 -294 186 14 30
24 78 29 145 5 70 14 116 31 155 37 84 36 397 0 480 -22 48 -26 75 -31 215 -5
121 -10 168 -23 191 -9 17 -25 62 -36 100 -44 148 -75 233 -122 334 -26 58
-54 128 -60 155 -15 63 -20 72 -65 126 -113 134 -117 267 -11 298 74 22 907 8
962 -16z m-1374 -43 c53 -15 123 -82 165 -156 20 -36 51 -83 70 -105 20 -24
41 -65 49 -97 9 -32 38 -104 65 -162 27 -58 56 -130 64 -160 22 -79 65 -207
89 -265 17 -40 22 -81 27 -210 6 -140 10 -166 31 -210 36 -75 37 -393 1 -470
-17 -36 -26 -78 -32 -151 -5 -68 -14 -116 -29 -150 -12 -27 -26 -82 -31 -122
-16 -125 -76 -179 -257 -231 -37 -11 -93 -29 -123 -40 -30 -11 -71 -20 -91
-21 -19 0 -59 -7 -88 -16 -144 -42 -172 23 -96 226 28 75 18 437 -14 504 -17
37 -26 77 -31 151 -4 59 -14 113 -23 132 -9 17 -25 61 -35 99 -68 245 -201
446 -480 727 -147 148 -295 289 -328 313 -38 27 -64 54 -68 69 -19 75 120 186
292 234 38 10 79 24 89 30 11 5 51 19 89 30 38 11 94 29 124 40 62 23 499 31
571 11z m2334 -139 c36 -17 79 -25 155 -31 104 -8 104 -8 296 -104 277 -138
295 -168 179 -295 -35 -39 -75 -92 -89 -119 -13 -26 -41 -68 -61 -92 -48 -58
-163 -286 -187 -374 -10 -38 -25 -81 -34 -97 -8 -16 -19 -63 -24 -105 -5 -41
-19 -96 -31 -122 -14 -32 -24 -80 -29 -148 -5 -71 -14 -114 -30 -150 -21 -44
-24 -69 -29 -241 -7 -209 -9 -218 -75 -267 -43 -33 -336 -37 -421 -6 -33 11
-89 29 -125 40 -113 33 -141 86 -100 190 11 28 20 58 20 68 0 9 12 44 26 77
21 49 27 83 33 190 6 106 12 139 31 180 22 47 24 65 31 300 3 138 11 269 18
293 9 34 8 56 -4 108 -21 90 -22 589 -1 637 34 81 78 97 261 94 123 -2 146 -5
190 -26z m-3540 -419 c190 -88 479 -393 600 -633 52 -103 103 -217 114 -255
10 -38 27 -87 36 -109 10 -22 21 -84 25 -140 6 -72 15 -114 32 -150 36 -77 36
-453 0 -530 -17 -35 -26 -78 -31 -143 -10 -125 -15 -130 -202 -227 -367 -189
-480 -178 -395 40 21 56 21 294 0 350 -17 42 -37 118 -53 200 -58 295 -165
465 -498 795 -326 324 -365 351 -524 369 -116 14 -134 31 -109 106 45 136 421
342 651 356 74 5 150 12 169 17 48 13 70 7 185 -46z m4620 -61 c28 -12 84 -26
125 -31 120 -15 332 -124 423 -218 104 -108 112 -90 -167 -371 -267 -270 -363
-418 -386 -597 -5 -42 -20 -96 -32 -122 -19 -42 -22 -69 -28 -252 -8 -259 -14
-274 -110 -243 -25 8 -90 18 -145 22 -62 5 -119 16 -150 29 -27 11 -76 28
-108 37 -77 21 -159 98 -177 164 -22 82 -9 356 19 416 16 36 25 78 31 151 5
68 14 116 29 150 12 27 26 81 31 121 5 40 17 89 26 110 9 21 25 69 35 106 25
87 126 290 174 347 20 24 47 64 60 89 60 119 205 157 350 92z m-5747 -547 c24
-11 82 -19 167 -23 205 -11 229 -24 483 -276 221 -218 297 -330 351 -521 10
-38 26 -86 35 -107 9 -21 21 -70 26 -110 5 -40 19 -94 32 -122 35 -75 35 -335
0 -410 -13 -27 -27 -82 -31 -120 -17 -143 -120 -239 -318 -293 -37 -11 -132
-51 -210 -91 -78 -39 -173 -79 -210 -90 -37 -11 -93 -29 -123 -40 -143 -51
-189 -62 -253 -59 -81 4 -115 -17 -136 -83 -7 -24 -27 -78 -43 -120 -21 -56
-31 -103 -36 -173 -12 -162 -82 -157 -82 7 -1 339 -142 534 -261 361 -51 -74
-110 -89 -209 -53 -30 11 -86 29 -123 40 -104 30 -180 73 -259 145 -39 36 -89
74 -112 86 -22 11 -65 38 -93 60 -75 57 -111 67 -240 68 -73 0 -113 4 -113 11
0 25 25 52 93 98 159 108 270 267 286 414 5 40 16 89 25 111 21 51 20 97 -4
165 -10 31 -24 74 -29 96 -6 22 -29 62 -51 88 -128 155 -52 245 147 176 145
-50 194 -20 543 326 174 172 291 281 318 294 24 12 70 42 102 66 36 26 80 48
112 55 29 7 67 19 83 26 41 18 88 17 133 -2z m6622 -45 c30 -11 86 -29 123
-40 336 -98 498 -301 319 -401 -82 -46 -311 -273 -351 -348 -17 -32 -48 -78
-67 -101 -93 -112 -118 -187 -124 -379 -8 -227 -16 -243 -110 -214 -25 8 -79
19 -120 24 -95 12 -319 118 -368 174 -53 60 -62 426 -14 531 13 28 27 84 32
125 17 148 120 326 283 488 170 170 246 196 397 141z m-8549 -261 c109 -83 64
-176 -56 -118 -78 38 -111 94 -76 129 32 32 81 27 132 -11z m9502 -390 c279
-137 310 -216 125 -312 -207 -109 -548 -489 -573 -641 -20 -120 -66 -133 -230
-64 -164 68 -178 98 -173 369 3 217 22 282 112 389 21 25 49 67 63 94 118 235
396 302 676 165z m467 -514 c38 -37 82 -91 99 -124 17 -32 47 -78 67 -101 46
-56 89 -140 113 -226 10 -37 26 -85 35 -106 9 -21 21 -70 26 -110 5 -40 19
-94 32 -122 89 -196 -61 -346 -257 -257 -27 13 -84 27 -125 32 -57 8 -99 22
-175 58 -55 27 -124 55 -153 62 -32 7 -76 29 -110 54 -31 23 -81 55 -110 71
-229 124 -220 368 25 616 213 216 409 273 533 153z"/>
<path d="M2746 3536 c-154 -58 -222 -248 -146 -416 23 -52 25 -69 30 -275 5
-229 9 -249 52 -279 77 -54 142 12 154 156 12 129 72 148 88 27 8 -61 85 -220
118 -243 90 -63 156 36 108 162 -11 29 -20 69 -20 91 0 50 -17 97 -53 148 -26
37 -28 47 -23 90 15 109 18 325 6 369 -35 126 -197 213 -314 170z m96 -243
c39 -35 17 -163 -26 -147 -36 14 -50 112 -19 146 20 22 22 22 45 1z"/>
</g>
</svg>
