<?xml version="1.0" standalone="no"?>
<!DOCTYPE svg PUBLIC "-//W3C//DTD SVG 20010904//EN"
 "http://www.w3.org/TR/2001/REC-SVG-20010904/DTD/svg10.dtd">
<svg version="1.0" xmlns="http://www.w3.org/2000/svg"
 width="1458.000000pt" height="702.000000pt" viewBox="0 0 1458.000000 702.000000"
 preserveAspectRatio="xMidYMid meet">
<metadata>
Created by potrace 1.16, written by Peter Selinger 2001-2019
</metadata>
<g transform="translate(0.000000,702.000000) scale(0.100000,-0.100000)"
fill="#f97316" stroke="none">
<path d="M7259 6091 c-59 -37 -104 -92 -119 -146 -21 -75 -9 -370 18 -425 27
-57 28 -121 1 -180 -11 -24 -24 -77 -29 -117 -5 -40 -18 -95 -29 -121 -31 -78
-72 -204 -82 -257 -6 -27 -15 -72 -20 -100 -34 -172 -51 -180 -340 -176 -265
3 -265 3 -389 -39 -158 -53 -149 -47 -257 -152 -180 -174 -315 -207 -456 -111
-94 63 -143 74 -226 48 -68 -20 -149 -41 -216 -54 -130 -26 -268 -86 -315
-137 -103 -111 -176 -113 -249 -6 -46 68 -202 222 -248 246 -145 74 -328 -33
-352 -205 -15 -108 -46 -139 -178 -180 -38 -12 -88 -29 -113 -39 -25 -10 -70
-25 -100 -34 -77 -22 -206 -65 -262 -87 -160 -65 -171 -59 -498 266 -204 202
-289 279 -328 299 -29 15 -85 56 -124 92 -39 36 -93 76 -120 90 -27 13 -81 54
-120 91 -66 59 -102 80 -396 227 -323 161 -323 161 -450 161 -318 0 -410 -258
-187 -525 20 -24 47 -65 61 -92 49 -96 117 -151 224 -182 62 -17 105 -55 138
-122 11 -22 37 -60 57 -84 47 -56 208 -377 235 -467 32 -109 71 -224 94 -278
31 -74 30 -220 -2 -290 -13 -27 -27 -83 -32 -123 -5 -40 -18 -94 -29 -120 -18
-44 -38 -105 -95 -282 -37 -115 -56 -170 -78 -230 -30 -83 -65 -264 -60 -309
8 -66 105 -141 183 -141 41 0 85 18 311 131 263 131 263 131 556 422 344 342
348 346 371 432 35 126 81 149 286 143 109 -3 138 -7 180 -26 28 -13 83 -27
123 -32 40 -6 94 -19 120 -30 26 -12 80 -25 121 -31 65 -8 84 -15 148 -58 153
-104 274 -86 430 60 106 100 118 101 205 23 109 -98 321 -195 446 -205 63 -5
121 -16 167 -33 108 -39 169 -32 251 31 73 55 170 85 222 69 49 -16 57 -194
13 -291 -105 -234 85 -430 337 -346 51 17 109 31 130 31 44 0 104 26 148 63
18 15 57 42 88 60 30 17 80 49 110 71 52 36 60 39 153 45 102 8 116 13 197 68
79 54 112 44 216 -62 103 -105 277 -179 445 -187 55 -3 96 -12 130 -27 34 -16
80 -25 145 -30 193 -15 207 -49 106 -261 -36 -74 -72 -162 -81 -195 -16 -57
-25 -68 -163 -208 -93 -93 -161 -171 -187 -214 -38 -63 -75 -98 -157 -148
-107 -66 -39 -172 102 -160 105 10 107 9 186 -5 74 -14 177 9 354 80 25 10 70
25 100 34 149 42 235 77 464 189 137 67 274 142 305 165 31 24 77 54 102 67
26 13 78 53 117 89 39 36 94 77 121 91 28 14 78 51 113 83 97 91 148 104 238
60 43 -21 62 -23 355 -28 304 -5 311 -6 365 -30 85 -39 1053 -39 1140 -1 48
22 76 26 215 31 134 6 168 10 207 29 26 12 81 26 122 31 42 5 88 16 104 24 15
7 59 23 98 35 124 37 192 102 223 215 18 65 45 106 86 129 12 7 96 14 205 17
185 5 185 5 295 57 61 28 135 58 166 67 33 9 81 34 115 60 33 24 104 66 159
94 165 82 275 215 275 332 0 100 -151 300 -272 361 -24 11 -68 40 -98 64 -68
53 -1015 527 -1085 544 -27 6 -124 47 -215 90 -91 44 -201 91 -245 105 -44 14
-114 37 -155 50 -108 35 -167 55 -230 77 -30 11 -89 31 -130 44 -99 31 -163
52 -230 76 -30 11 -86 29 -124 40 -38 11 -81 26 -97 35 -16 8 -63 19 -105 24
-41 5 -96 19 -122 30 -26 12 -80 25 -120 30 -40 6 -94 19 -120 30 -26 12 -80
25 -120 30 -40 6 -94 19 -120 31 -32 14 -80 24 -148 29 -69 5 -115 14 -150 30
-34 15 -80 24 -149 30 -70 5 -116 14 -155 31 -103 45 -519 36 -626 -13 -132
-61 -172 -49 -204 62 -10 36 -28 90 -39 120 -11 30 -25 73 -30 95 -6 22 -29
63 -52 90 -23 28 -65 97 -94 155 -29 58 -69 125 -89 149 -19 23 -49 68 -66
100 -40 75 -511 547 -580 581 -25 12 -70 42 -102 66 -140 109 -256 138 -339
85z m218 -212 c26 -11 73 -39 103 -63 30 -23 78 -55 106 -70 72 -39 373 -343
407 -412 14 -27 42 -70 62 -94 20 -24 61 -92 90 -150 29 -58 69 -125 89 -149
21 -25 42 -66 52 -99 8 -32 24 -77 34 -102 81 -197 76 -214 -99 -395 -125
-128 -152 -161 -161 -197 -6 -24 -20 -68 -31 -98 -11 -30 -29 -86 -40 -124
-11 -38 -27 -83 -36 -100 -13 -23 -18 -70 -23 -191 -5 -140 -9 -167 -31 -215
-37 -84 -37 -396 0 -480 22 -48 26 -76 31 -215 6 -137 10 -167 30 -209 68
-149 25 -283 -80 -249 -25 8 -90 18 -146 22 -68 6 -116 15 -150 31 -34 15 -80
24 -149 30 -63 4 -119 15 -150 28 -27 11 -77 28 -109 37 -50 14 -71 28 -129
83 -104 101 -112 124 -76 227 32 91 25 386 -11 460 -37 74 -38 333 -2 410 17
36 26 78 32 150 4 55 15 118 25 140 9 22 27 74 40 115 13 41 30 93 39 115 8
22 15 60 16 85 1 107 132 252 261 290 179 54 159 177 -33 201 -172 21 -250
105 -202 217 8 20 26 71 39 112 13 41 30 93 39 115 8 22 15 59 16 83 0 24 12
73 27 110 32 80 32 131 2 197 -20 42 -24 71 -27 176 -6 199 20 231 145 178z
m-5775 -1190 c283 -140 318 -160 386 -222 42 -38 98 -80 124 -93 27 -14 81
-54 120 -90 39 -36 94 -77 122 -91 55 -27 415 -374 442 -425 23 -44 8 -73 -60
-122 -94 -67 -243 -227 -256 -276 -27 -102 120 -281 265 -321 74 -21 78 -66
11 -154 -20 -26 -36 -52 -36 -59 0 -80 -26 -115 -258 -349 -227 -228 -227
-228 -445 -338 -120 -60 -229 -109 -242 -109 -56 0 -75 61 -45 146 11 33 31
93 44 134 34 105 54 166 77 230 11 30 29 86 40 124 11 38 26 81 35 97 8 16 19
63 24 105 5 41 19 96 31 122 30 65 37 200 14 262 -9 25 -28 79 -41 120 -13 41
-36 111 -50 155 -34 108 -213 469 -258 523 -19 24 -50 70 -67 102 -39 74 -210
242 -292 288 -160 90 -278 302 -204 369 78 72 155 53 519 -128z m7773 -287
c36 -17 78 -26 151 -32 69 -5 115 -14 150 -30 34 -15 80 -24 150 -30 68 -5
116 -14 150 -29 27 -12 82 -26 122 -31 40 -6 94 -19 120 -30 26 -12 80 -25
120 -30 40 -6 94 -19 120 -30 26 -12 80 -25 120 -30 40 -5 94 -18 120 -29 44
-18 105 -38 282 -95 108 -35 167 -55 230 -77 30 -11 89 -31 130 -44 99 -31
163 -52 230 -76 30 -11 86 -29 123 -40 37 -11 132 -51 210 -90 78 -40 172 -80
210 -90 118 -33 1005 -484 1112 -566 192 -147 192 -257 -2 -370 -26 -15 -74
-46 -105 -69 -34 -25 -79 -47 -110 -54 -29 -7 -100 -36 -158 -64 -104 -51
-104 -51 -500 -51 -395 0 -395 0 -450 25 -137 62 -538 32 -564 -43 -34 -95 26
-121 294 -127 193 -5 220 -8 263 -27 26 -12 65 -25 85 -28 189 -32 87 -196
-140 -225 -40 -5 -95 -19 -123 -31 -42 -20 -74 -24 -210 -29 -140 -6 -166 -10
-210 -31 -79 -38 -1052 -38 -1130 1 -49 24 -57 24 -350 30 -165 3 -308 9 -318
14 -39 18 -48 80 -22 143 46 110 -33 210 -116 144 -29 -22 -92 -152 -114 -235
-20 -72 -80 -140 -165 -185 -33 -18 -91 -61 -129 -96 -39 -35 -89 -74 -113
-86 -24 -12 -68 -41 -98 -64 -70 -54 -497 -268 -587 -294 -37 -11 -93 -29
-123 -40 -83 -30 -153 -52 -350 -114 -162 -51 -134 60 69 268 187 192 178 180
201 264 11 40 54 140 96 223 65 129 76 161 84 224 17 159 123 223 380 233 172
7 216 21 234 74 26 73 -33 118 -166 127 -124 9 -138 24 -149 152 -5 65 -14
108 -31 143 -36 77 -36 573 0 650 17 36 26 78 32 151 5 68 14 116 29 150 12
27 26 81 31 121 8 72 20 100 72 165 15 19 38 70 51 114 39 133 91 195 198 234
86 32 492 25 564 -8z m-2738 -43 c59 -22 57 -48 -13 -190 -31 -63 -66 -148
-79 -189 -13 -41 -30 -95 -39 -119 -15 -38 -16 -96 -14 -490 3 -492 11 -528
132 -660 98 -106 70 -179 -69 -181 -47 -1 -107 -26 -151 -63 -18 -15 -57 -42
-88 -60 -30 -17 -79 -49 -108 -69 -44 -31 -66 -39 -128 -47 -42 -6 -96 -19
-120 -30 -126 -57 -197 15 -138 139 49 104 35 315 -27 387 -56 67 -59 77 -66
248 -5 141 -9 166 -30 210 -36 74 -36 333 -1 410 13 28 27 83 32 123 5 40 18
94 29 120 11 26 27 74 36 107 30 105 209 276 325 309 30 8 80 24 110 35 63 23
354 30 407 10z m1761 -111 c32 -32 5 -131 -54 -197 -48 -54 -63 -94 -64 -169
0 -23 -12 -70 -26 -104 -18 -43 -27 -87 -31 -149 -6 -91 -28 -149 -57 -149
-41 0 -38 268 4 373 17 42 30 80 30 87 0 6 9 29 21 51 11 23 25 69 30 102 18
108 104 198 147 155z m-4183 -100 c20 -17 45 -50 57 -72 11 -23 38 -64 59 -92
45 -59 48 -86 20 -166 -10 -29 -24 -72 -31 -96 -8 -30 -32 -65 -79 -117 -116
-128 -127 -282 -29 -401 158 -192 -91 -414 -300 -267 -83 58 -98 64 -174 74
-38 5 -90 18 -116 29 -26 12 -80 25 -120 30 -40 6 -94 20 -120 32 -41 19 -70
22 -238 27 -192 6 -192 6 -260 53 -38 26 -95 57 -127 68 -117 44 -102 155 32
226 25 13 72 43 103 66 54 39 61 41 140 45 81 5 192 35 363 99 33 12 76 25 95
29 19 4 47 13 61 21 15 7 57 22 95 33 306 90 383 146 403 295 17 118 87 154
166 84z m2650 -18 c10 -15 -23 -148 -52 -210 -20 -43 -26 -76 -30 -155 -6
-102 -22 -155 -48 -155 -43 0 -51 189 -11 268 13 26 27 67 31 92 15 90 88 196
110 160z m-1570 -16 c30 -12 35 -49 16 -111 -10 -32 -25 -80 -34 -108 -9 -27
-23 -70 -32 -94 -31 -85 -17 -738 18 -817 76 -174 13 -255 -143 -183 -31 14
-78 24 -149 29 -100 8 -107 10 -236 73 -237 116 -289 192 -206 301 63 84 85
258 45 361 -63 160 -56 211 34 277 31 22 82 65 113 94 43 41 69 56 115 69 32
9 80 25 106 36 26 11 81 24 121 29 40 5 93 18 117 29 47 20 87 26 115 15z
m219 -296 c22 -83 -25 -181 -62 -131 -27 36 5 153 42 153 8 0 16 -10 20 -22z
m2640 -420 c25 -96 2 -448 -29 -448 -49 0 -70 365 -25 438 23 37 45 41 54 10z
m-2667 -176 c20 -13 33 -60 33 -121 0 -130 -71 -114 -78 18 -5 86 11 124 45
103z m1278 -82 c19 -37 21 -198 2 -224 -36 -49 -67 11 -67 130 0 119 30 162
65 94z m1440 -360 c19 -37 21 -198 2 -224 -36 -49 -67 11 -67 130 0 119 30
162 65 94z"/>
<path d="M9822 3314 c-29 -20 -87 -135 -117 -232 -13 -43 -30 -95 -39 -117
-11 -30 -15 -80 -15 -205 0 -125 4 -175 15 -205 9 -22 27 -76 40 -119 48 -158
153 -233 218 -155 30 35 30 32 15 97 -17 72 -6 96 27 59 13 -15 24 -39 24 -53
0 -57 68 -134 119 -134 86 0 123 99 77 208 -54 128 -41 468 22 584 57 105 62
136 32 185 -38 64 -107 55 -155 -19 -131 -204 -139 -229 -143 -433 -3 -219 -7
-255 -28 -255 -59 0 -83 354 -30 458 13 26 26 68 30 94 4 26 16 72 27 103 38
109 -37 197 -119 139z"/>
<path d="M10475 3251 c-96 -59 -162 -152 -168 -236 -4 -57 -13 -97 -33 -140
-41 -88 -42 -248 -2 -350 15 -39 32 -88 38 -111 20 -81 102 -164 161 -164 76
0 75 90 -2 305 -29 83 -24 245 10 320 12 28 26 82 30 121 9 73 15 89 57 151
58 86 -5 158 -91 104z"/>
<path d="M12167 3012 c-36 -40 -9 -102 45 -102 51 0 78 69 40 103 -24 22 -65
21 -85 -1z"/>
</g>
</svg>
