<?xml version="1.0" standalone="no"?>
<!DOCTYPE svg PUBLIC "-//W3C//DTD SVG 20010904//EN"
 "http://www.w3.org/TR/2001/REC-SVG-20010904/DTD/svg10.dtd">
<svg version="1.0" xmlns="http://www.w3.org/2000/svg"
 width="822.000000pt" height="912.000000pt" viewBox="0 0 822.000000 912.000000"
 preserveAspectRatio="xMidYMid meet">
<metadata>
Created by potrace 1.16, written by Peter Selinger 2001-2019
</metadata>
<g transform="translate(0.000000,912.000000) scale(0.100000,-0.100000)"
fill="#f97316" stroke="none">
<path d="M3469 8157 c-19 -7 -64 -34 -100 -59 -82 -58 -131 -83 -215 -107
-145 -43 -264 -89 -299 -116 -36 -27 -49 -43 -118 -149 -61 -94 -155 -116
-323 -77 -80 19 -153 -13 -261 -112 -40 -36 -96 -78 -124 -93 -170 -86 -179
-115 -179 -604 0 -473 -5 -446 109 -560 109 -108 157 -131 466 -229 100 -32
217 -72 272 -93 29 -11 84 -24 123 -29 65 -8 153 -43 204 -82 18 -14 17 -16
-27 -59 -65 -61 -65 -102 -3 -185 24 -32 53 -77 65 -100 37 -75 100 -95 146
-48 45 44 34 97 -37 187 -34 43 -81 159 -69 171 12 12 142 -9 200 -32 25 -10
68 -27 95 -36 72 -26 78 -46 74 -271 -3 -184 -3 -184 -31 -211 -36 -36 -117
-38 -192 -5 -27 13 -83 28 -125 33 -41 6 -91 18 -110 26 -19 8 -66 24 -104 34
-38 11 -81 26 -97 35 -16 8 -63 19 -105 24 -59 8 -102 22 -182 60 -75 36 -127
54 -176 60 -132 19 -161 73 -66 125 60 33 148 39 288 20 97 -12 132 38 79 116
-73 108 -194 127 -395 60 -151 -50 -151 -50 -228 -121 -34 -33 -86 -71 -115
-86 -159 -80 -179 -133 -179 -478 0 -307 -2 -316 -77 -367 -26 -18 -76 -59
-110 -91 -33 -31 -84 -68 -112 -83 -73 -37 -191 -152 -230 -224 -17 -33 -47
-79 -67 -102 -20 -24 -46 -64 -59 -89 -13 -25 -40 -66 -60 -90 -50 -60 -54
-70 -65 -155 -5 -41 -20 -99 -32 -128 -22 -49 -23 -64 -23 -297 0 -233 1 -248
23 -297 12 -29 27 -87 32 -128 8 -66 22 -99 114 -283 105 -207 105 -207 388
-488 283 -282 283 -282 486 -383 178 -89 212 -103 278 -111 42 -5 96 -20 122
-31 66 -31 256 -39 322 -14 48 18 123 38 205 54 140 27 323 106 418 179 101
77 175 105 288 110 184 8 199 -9 199 -231 0 -214 -26 -276 -154 -371 -80 -59
-117 -101 -135 -155 -62 -187 93 -416 299 -442 39 -4 94 -19 123 -31 79 -35
395 -35 474 0 29 12 84 27 123 31 155 20 370 235 370 371 0 88 -71 190 -168
239 -109 55 -132 99 -132 251 -1 61 -6 109 -16 135 -65 166 -58 209 49 288
112 84 240 223 256 277 25 90 11 555 -19 615 -36 73 -36 217 0 290 25 50 25
50 28 580 3 586 3 585 -58 659 -90 108 -83 278 14 350 42 32 201 30 271 -2 28
-13 83 -27 123 -32 40 -5 94 -18 120 -29 103 -42 220 -71 287 -71 60 0 73 -4
128 -37 128 -79 320 -55 607 78 58 26 128 54 155 60 28 7 89 32 137 55 48 24
118 52 155 63 232 64 375 226 467 528 13 43 32 98 41 123 22 57 15 137 -16
205 -21 45 -24 70 -29 240 -6 172 -9 195 -30 240 -22 46 -25 67 -30 240 -9
293 -126 480 -340 545 -33 10 -83 35 -111 56 -49 36 -125 66 -319 128 -41 13
-93 31 -115 40 -22 8 -58 15 -80 16 -22 0 -65 10 -95 21 -30 10 -89 30 -130
43 -41 13 -93 31 -115 40 -22 8 -58 15 -80 16 -22 0 -65 10 -95 21 -30 10 -89
30 -130 43 -41 13 -93 31 -115 40 -22 8 -57 15 -77 16 -21 0 -78 14 -128 30
-109 36 -135 37 -225 5 -123 -44 -150 -37 -260 63 -93 86 -203 134 -324 142
-88 7 -105 11 -211 60 -105 49 -123 54 -210 60 -87 7 -104 11 -210 61 -128 59
-282 79 -371 46z m21 -355 c81 -57 96 -63 171 -73 38 -5 90 -17 117 -28 44
-18 105 -38 282 -95 235 -76 259 -86 277 -112 31 -47 -63 -115 -227 -164 -82
-24 -141 -65 -183 -128 -102 -150 -273 -252 -375 -224 -86 24 -277 92 -359
128 -37 15 -53 55 -32 80 14 17 94 13 199 -9 30 -6 93 -12 140 -13 47 -1 111
-5 142 -9 52 -7 58 -5 82 18 82 82 -55 201 -224 196 -85 -3 -196 14 -285 42
-180 57 -216 69 -275 92 -160 61 -52 211 205 286 39 11 95 30 125 41 82 31
148 22 220 -28z m1074 -102 c36 -13 34 -40 -3 -40 -35 0 -56 21 -39 38 14 14
11 14 42 2z m713 -180 c26 -11 80 -25 120 -30 40 -5 89 -17 110 -26 21 -9 69
-25 107 -35 38 -11 81 -26 97 -35 16 -8 63 -19 104 -24 41 -5 97 -18 123 -29
79 -32 204 -72 257 -82 105 -21 174 -40 303 -86 92 -32 89 -84 -9 -138 -30
-16 -80 -48 -111 -71 -34 -25 -78 -47 -110 -54 -29 -7 -71 -21 -94 -32 -24
-10 -76 -23 -118 -28 -57 -7 -97 -20 -163 -54 -48 -24 -119 -53 -158 -65 -38
-11 -90 -34 -115 -51 -62 -41 -182 -31 -291 26 -16 8 -63 19 -104 24 -41 5
-97 18 -123 29 -44 18 -105 38 -282 95 -117 38 -171 56 -230 78 -30 11 -77 24
-105 30 -374 70 -416 130 -177 251 93 48 148 84 201 131 58 52 86 70 130 82
31 8 79 25 106 36 32 13 86 23 151 28 55 4 111 13 125 20 81 44 171 48 256 10z
m-3063 -300 c64 -57 89 -71 171 -95 33 -9 72 -23 87 -31 16 -8 63 -19 105 -24
61 -8 101 -21 182 -60 79 -39 123 -53 179 -60 40 -5 94 -19 120 -30 26 -12 80
-25 120 -30 40 -6 93 -18 117 -29 23 -10 58 -22 76 -26 19 -4 61 -17 94 -30
33 -12 81 -30 108 -40 55 -20 66 -36 78 -119 4 -34 18 -84 31 -111 20 -44 23
-72 28 -240 6 -172 9 -195 30 -240 87 -184 -46 -290 -217 -172 -65 44 -148 78
-317 128 -38 11 -77 24 -87 30 -11 5 -54 20 -96 33 -43 13 -96 31 -118 40 -22
8 -58 15 -80 16 -22 0 -65 10 -95 21 -30 10 -89 30 -130 43 -102 33 -165 54
-230 77 -30 11 -90 30 -132 43 -95 28 -155 67 -174 111 -17 42 -21 716 -4 777
23 81 78 88 154 18z m4708 -239 c64 -51 82 -119 89 -331 5 -172 8 -200 27
-240 25 -52 28 -118 8 -146 -23 -30 -45 -9 -106 107 -96 182 -263 337 -386
360 -145 27 -102 108 86 162 30 9 84 37 119 62 73 51 121 59 163 26z m-2832
-105 c41 -14 109 -37 150 -50 41 -13 93 -31 115 -40 22 -8 58 -15 80 -16 22 0
65 -10 95 -21 30 -10 89 -30 130 -43 104 -34 166 -54 230 -77 30 -11 86 -29
124 -40 38 -11 81 -26 97 -35 16 -8 63 -19 105 -24 201 -26 227 -63 235 -333
5 -198 7 -215 30 -262 23 -49 24 -57 29 -355 5 -291 6 -308 29 -367 44 -117
-20 -143 -186 -77 -36 14 -96 30 -135 35 -38 5 -90 18 -116 30 -40 19 -72 23
-209 28 -162 6 -162 6 -220 49 -103 75 -205 121 -291 132 -248 32 -399 204
-413 473 -5 108 -11 141 -30 182 -21 45 -24 69 -29 240 -6 172 -9 195 -30 240
-19 39 -25 72 -28 147 -10 220 35 255 238 184z m1987 -258 c52 -49 32 -100
-87 -223 -143 -147 -171 -213 -182 -435 -14 -253 -7 -368 25 -422 47 -81 272
-289 366 -339 136 -73 138 -106 9 -148 -35 -11 -88 -30 -118 -40 -67 -25 -213
-28 -264 -7 -36 15 -50 43 -60 126 -3 25 -15 68 -28 95 -22 49 -23 58 -23 350
0 300 0 300 -30 360 -29 60 -29 60 -33 281 -4 267 0 282 74 309 27 9 96 39
154 66 118 54 161 61 197 27z m522 -98 c135 -38 266 -374 203 -515 -13 -27
-27 -83 -32 -123 -5 -40 -18 -94 -29 -120 -11 -26 -27 -72 -35 -104 -9 -31
-31 -74 -49 -96 -17 -21 -46 -60 -64 -85 -110 -158 -334 -159 -502 -2 -80 75
-83 89 -79 391 3 261 3 261 45 345 49 99 231 289 294 307 45 13 205 15 248 2z
m494 -579 c39 -71 44 -132 18 -206 -12 -33 -31 -91 -42 -130 -44 -152 -140
-279 -230 -304 -59 -17 -113 -11 -117 11 -4 20 94 196 138 248 17 21 39 68 54
115 13 44 31 98 40 120 8 22 15 57 16 77 1 127 71 166 123 69z m-3287 -331
c15 -6 95 -78 179 -159 178 -175 257 -224 390 -241 196 -25 256 -99 199 -247
-52 -136 -47 -128 -121 -157 -37 -14 -88 -42 -113 -62 -57 -46 -140 -88 -216
-109 -83 -24 -108 -39 -179 -105 -84 -78 -151 -97 -220 -64 -48 23 -49 24 -57
324 -23 760 -4 873 138 820z m-1586 -252 c25 -10 79 -23 120 -28 57 -8 99 -22
179 -60 79 -38 123 -53 177 -60 40 -5 90 -17 111 -26 21 -9 69 -25 107 -35 38
-11 81 -26 97 -35 16 -8 63 -19 105 -24 41 -5 96 -19 122 -30 25 -11 75 -25
111 -30 111 -16 116 -25 116 -230 0 -170 0 -170 -28 -197 -36 -36 -117 -38
-192 -4 -27 12 -82 26 -122 31 -40 5 -89 17 -110 26 -21 8 -72 26 -113 39 -41
13 -93 30 -115 39 -22 8 -58 15 -80 16 -22 0 -65 10 -95 21 -30 11 -80 27
-110 35 -30 9 -75 24 -100 34 -130 51 -251 84 -328 90 -132 10 -136 16 -140
233 -4 188 5 243 41 256 23 9 171 -27 247 -61z m-5 -655 c47 -19 109 -41 285
-97 41 -13 93 -31 115 -40 22 -8 58 -15 80 -16 22 0 65 -10 95 -21 30 -11 86
-29 124 -40 38 -11 81 -26 97 -35 16 -8 63 -19 105 -24 41 -5 96 -19 122 -31
32 -14 80 -24 148 -29 93 -7 110 -12 210 -58 60 -28 135 -58 168 -67 74 -21
158 -99 176 -164 26 -99 8 -647 -23 -678 -36 -36 -117 -38 -192 -4 -27 12 -83
26 -124 31 -128 17 -228 109 -329 306 -62 120 -62 120 -285 342 -269 267 -322
300 -496 312 -68 5 -112 14 -151 31 -102 44 -280 36 -394 -19 -205 -98 -553
-493 -572 -649 -15 -120 -46 -148 -161 -141 -115 7 -152 94 -94 223 12 28 26
82 30 121 9 77 19 102 62 152 16 18 40 55 54 82 14 27 38 64 53 82 16 18 43
54 61 81 18 26 58 66 89 89 31 22 82 65 112 93 31 29 76 63 100 75 24 12 68
40 96 62 72 54 89 58 249 55 116 -2 149 -6 190 -24z m2399 -107 c43 -18 60
-65 54 -148 -7 -91 -34 -113 -138 -113 -122 0 -172 81 -130 210 20 60 130 86
214 51z m-473 -202 c15 -19 -18 -54 -51 -54 -16 0 -50 24 -50 35 0 31 79 46
101 19z m-1942 -155 c46 -16 53 -44 30 -119 -10 -34 -19 -89 -19 -121 0 -89
-18 -123 -76 -144 -27 -10 -76 -28 -109 -40 -33 -13 -76 -26 -95 -30 -19 -4
-47 -13 -61 -21 -35 -18 -208 -66 -238 -66 -109 -1 -44 181 125 352 165 168
318 233 443 189z m475 -98 c154 -75 332 -272 439 -487 96 -193 114 -216 203
-280 129 -92 124 -123 -56 -312 -142 -150 -126 -148 -331 -46 -246 121 -398
285 -458 489 -11 39 -29 95 -40 125 -23 62 -30 381 -11 452 29 102 121 124
254 59z m1963 -44 c28 -27 28 -27 31 -301 4 -361 12 -341 -153 -374 -27 -6
-77 -20 -110 -32 -86 -31 -184 -26 -223 13 -27 27 -27 27 -30 305 -4 382 -10
364 115 373 52 4 110 15 143 28 82 32 189 26 227 -12z m-2417 -494 c27 -28 40
-53 50 -93 44 -189 365 -546 597 -664 236 -120 210 -233 -72 -315 -39 -11 -97
-30 -130 -41 -53 -19 -76 -21 -225 -18 -250 5 -361 60 -608 303 -233 228 -251
263 -263 488 -11 202 -8 206 201 267 99 30 220 70 270 91 77 32 136 26 180
-18z m-905 -209 c44 -21 47 -29 55 -169 11 -198 35 -236 352 -552 253 -251
253 -251 398 -324 240 -121 483 -112 795 30 108 49 306 239 325 311 22 87 31
109 65 152 19 24 49 63 67 88 69 93 129 103 259 45 77 -35 94 -39 199 -45 174
-9 208 -48 147 -170 -20 -41 -22 -60 -23 -235 -1 -104 -2 -195 -3 -202 -4 -38
-91 -33 -211 12 -130 49 -335 2 -478 -109 -71 -55 -141 -90 -229 -115 -37 -10
-85 -26 -106 -35 -21 -9 -70 -21 -110 -26 -40 -5 -94 -19 -122 -32 -44 -20
-66 -23 -175 -23 -109 0 -131 3 -175 23 -27 13 -84 27 -125 32 -402 50 -1020
668 -1070 1070 -5 42 -18 96 -29 120 -36 80 -22 141 39 163 32 11 123 6 155
-9z m3322 -402 c26 -17 33 -69 33 -258 0 -246 -8 -266 -125 -334 -25 -14 -70
-43 -101 -65 -96 -68 -205 -57 -268 29 -36 47 -31 305 8 406 52 139 51 136
103 155 26 9 70 26 97 37 69 28 227 47 253 30z m-362 -927 c59 -44 88 -125 96
-269 4 -79 13 -148 22 -174 36 -96 1 -112 -244 -112 -263 0 -283 14 -217 150
30 62 32 73 37 216 8 205 17 215 183 211 79 -2 102 -6 123 -22z m356 -694 c62
-63 24 -191 -57 -191 -41 0 -64 40 -64 110 0 104 58 143 121 81z m-881 -30
c17 -34 12 -116 -9 -135 -23 -21 -49 -11 -57 21 -20 77 35 171 66 114z m527
-64 c40 -40 40 -114 0 -154 -42 -43 -232 -43 -274 0 -52 51 -34 150 32 178 50
22 213 6 242 -24z"/>
</g>
</svg>
