<?xml version="1.0" standalone="no"?>
<!DOCTYPE svg PUBLIC "-//W3C//DTD SVG 20010904//EN"
 "http://www.w3.org/TR/2001/REC-SVG-20010904/DTD/svg10.dtd">
<svg version="1.0" xmlns="http://www.w3.org/2000/svg"
 width="1920.000000pt" height="1920.000000pt" viewBox="0 0 1920.000000 1920.000000"
 preserveAspectRatio="xMidYMid meet">
<metadata>
Created by potrace 1.16, written by Peter Selinger 2001-2019
</metadata>
<g transform="translate(0.000000,1920.000000) scale(0.100000,-0.100000)"
fill="#f97316" stroke="none">
<path d="M9215 17094 c-87 -34 -131 -44 -191 -44 -43 0 -85 -8 -130 -25 -36
-14 -89 -32 -118 -40 -131 -37 -247 -84 -295 -119 -28 -21 -80 -47 -116 -57
-38 -12 -87 -37 -122 -63 -32 -24 -74 -51 -93 -61 -19 -10 -60 -37 -90 -60
-30 -24 -102 -66 -159 -95 -116 -57 -257 -182 -332 -292 -47 -68 -61 -77 -145
-89 -49 -7 -101 -27 -214 -84 -82 -41 -180 -83 -217 -94 -88 -24 -422 -191
-493 -246 -30 -24 -75 -53 -100 -65 -70 -35 -360 -327 -401 -403 -18 -34 -61
-92 -95 -128 -34 -37 -74 -89 -87 -116 -14 -27 -42 -69 -62 -93 -44 -53 -49
-63 -64 -125 -6 -27 -34 -97 -60 -155 -47 -101 -78 -186 -122 -334 -11 -38
-27 -82 -36 -99 -9 -18 -19 -73 -23 -132 -5 -71 -14 -116 -31 -155 -38 -87
-38 -1413 0 -1500 17 -39 26 -85 31 -155 5 -67 15 -116 29 -147 12 -26 25 -80
31 -120 5 -40 18 -94 30 -120 11 -26 25 -81 30 -122 5 -42 16 -89 24 -105 9
-16 24 -59 35 -97 10 -38 26 -86 35 -107 9 -21 21 -71 26 -112 7 -56 21 -97
55 -164 24 -49 54 -122 64 -162 11 -39 33 -87 48 -106 48 -60 61 -85 74 -137
6 -28 99 -225 205 -438 107 -213 203 -418 214 -455 10 -38 28 -93 39 -123 17
-46 20 -81 21 -203 0 -184 -8 -207 -76 -232 -27 -9 -96 -39 -154 -65 -58 -27
-130 -56 -161 -64 -33 -9 -81 -34 -115 -60 -33 -24 -75 -51 -94 -61 -19 -10
-60 -37 -90 -60 -30 -24 -71 -51 -90 -60 -19 -10 -60 -37 -90 -60 -30 -24
-125 -78 -210 -120 -85 -43 -180 -97 -210 -120 -30 -24 -98 -64 -150 -90 -52
-26 -120 -67 -150 -90 -30 -24 -124 -78 -209 -120 -85 -42 -178 -95 -207 -117
-31 -23 -80 -48 -118 -59 -39 -12 -88 -37 -123 -63 -32 -24 -74 -51 -93 -61
-19 -10 -60 -37 -90 -60 -30 -24 -71 -51 -90 -60 -19 -10 -60 -37 -90 -60 -30
-24 -125 -78 -210 -120 -85 -43 -180 -97 -210 -120 -30 -24 -98 -64 -150 -90
-52 -26 -120 -67 -150 -90 -30 -24 -125 -78 -210 -120 -85 -43 -180 -97 -210
-120 -30 -24 -73 -52 -95 -63 -64 -32 -129 -96 -163 -161 -18 -33 -49 -79 -68
-103 -60 -70 -58 -62 -64 -488 -5 -395 -5 -395 -30 -450 -36 -80 -38 -336 -2
-417 12 -29 27 -87 32 -128 20 -156 156 -347 300 -420 28 -14 83 -55 122 -91
58 -53 102 -81 232 -146 89 -44 186 -99 216 -123 30 -23 125 -77 210 -120 85
-42 180 -96 210 -120 30 -23 71 -50 90 -60 19 -10 61 -37 93 -61 35 -26 84
-51 123 -63 37 -11 87 -36 117 -59 29 -21 68 -47 87 -57 19 -9 60 -36 90 -60
30 -23 125 -77 210 -120 85 -42 180 -96 210 -120 30 -23 98 -64 150 -90 52
-26 120 -66 150 -90 30 -23 125 -77 210 -120 85 -42 180 -96 210 -120 30 -23
125 -77 210 -120 85 -42 180 -96 210 -120 30 -23 98 -64 150 -90 52 -26 121
-67 153 -91 35 -26 84 -51 123 -63 38 -11 87 -36 118 -59 29 -22 95 -61 147
-87 52 -26 119 -66 149 -90 30 -23 98 -64 150 -90 52 -26 120 -66 150 -90 30
-23 127 -79 215 -123 88 -44 185 -100 216 -124 74 -57 406 -217 545 -262 110
-36 110 -36 534 -36 474 0 494 3 750 120 58 27 130 56 161 64 34 9 81 34 115
60 33 24 102 65 154 91 52 26 120 67 150 90 30 24 71 51 90 60 19 10 60 37 90
60 30 24 125 78 210 120 85 43 180 97 210 120 30 24 71 51 90 60 19 10 60 37
90 60 30 24 71 51 90 60 19 10 60 37 90 60 30 24 152 91 270 150 118 59 240
127 270 150 30 24 71 51 90 60 19 10 60 37 90 60 30 24 152 91 270 150 118 59
240 127 270 150 30 24 71 51 90 60 19 10 60 37 90 60 30 24 125 78 210 120 85
43 180 97 210 120 30 24 98 64 150 90 52 26 120 67 150 90 30 24 98 64 150 90
52 26 120 67 150 90 30 24 98 64 150 90 52 26 120 67 150 90 30 24 98 64 150
90 52 26 120 67 150 90 30 24 98 64 150 90 52 26 120 67 150 90 30 24 125 78
210 120 85 43 180 97 210 120 30 24 125 78 210 120 85 43 180 97 210 120 30
24 71 51 90 60 19 10 60 37 90 60 30 24 71 51 90 60 19 10 58 36 87 57 30 23
80 48 117 59 39 12 88 37 123 63 32 24 128 78 213 121 85 43 180 97 210 120
30 24 71 51 90 60 19 10 60 37 90 60 30 24 98 64 150 90 52 26 120 67 150 90
30 24 98 64 150 90 52 26 120 67 150 90 30 24 74 53 98 64 80 40 185 152 239
254 48 92 48 92 53 612 5 519 5 520 28 570 30 64 30 125 1 190 -18 40 -24 75
-29 175 -4 90 -11 135 -24 162 -23 49 -211 230 -267 258 -24 12 -69 41 -99 65
-30 23 -71 50 -90 60 -19 9 -60 36 -90 60 -30 23 -98 64 -150 90 -52 26 -120
66 -150 90 -30 23 -125 77 -210 120 -85 42 -180 96 -210 120 -30 23 -152 91
-270 150 -118 59 -240 126 -270 150 -30 23 -127 79 -215 123 -88 44 -185 100
-216 124 -55 42 -626 330 -722 363 -76 27 -71 -30 -77 870 -5 810 -5 810 -28
857 -12 26 -26 80 -32 120 -5 40 -18 94 -30 120 -11 26 -25 81 -30 122 -5 42
-16 89 -24 105 -9 16 -24 59 -35 97 -10 38 -26 86 -35 107 -9 21 -21 71 -26
112 -7 56 -21 97 -55 164 -24 49 -53 121 -64 158 -10 38 -37 105 -60 150 -22
45 -49 112 -60 150 -10 38 -37 105 -60 150 -22 45 -50 114 -60 153 -21 73 -24
79 -74 138 -15 18 -79 136 -141 260 -63 125 -130 247 -151 272 -20 24 -47 65
-60 90 -13 25 -40 66 -60 90 -20 24 -47 65 -60 90 -13 25 -40 66 -60 90 -20
24 -62 94 -92 155 -51 101 -66 121 -178 235 -81 84 -132 145 -154 186 -42 79
-808 848 -881 884 -25 12 -70 41 -100 65 -30 23 -74 52 -98 64 -24 12 -75 51
-114 87 -49 46 -102 81 -172 116 -56 27 -126 69 -156 93 -71 55 -286 162 -373
187 -38 10 -107 38 -155 62 -48 24 -103 47 -122 51 -19 4 -62 17 -95 29 -168
63 -283 94 -360 98 -57 3 -95 12 -130 28 -66 31 -323 41 -390 14z m380 -213
c36 -16 79 -25 150 -31 61 -4 119 -15 150 -27 57 -23 177 -63 278 -93 38 -11
105 -39 150 -61 45 -23 112 -50 150 -60 88 -25 277 -119 347 -174 30 -23 101
-66 158 -94 71 -36 124 -71 173 -117 40 -36 90 -74 113 -85 22 -12 66 -40 96
-63 30 -24 78 -55 106 -70 78 -42 673 -642 709 -716 19 -37 68 -96 150 -180
112 -114 127 -134 178 -235 30 -61 72 -131 92 -155 20 -24 47 -65 60 -90 13
-25 40 -66 60 -90 20 -24 47 -65 60 -90 13 -25 40 -66 60 -90 21 -25 88 -146
150 -270 62 -124 129 -245 149 -269 21 -26 42 -66 51 -99 9 -32 38 -104 65
-162 27 -58 55 -127 61 -155 7 -27 32 -89 55 -137 24 -48 52 -117 63 -155 10
-37 40 -112 66 -165 37 -75 49 -113 55 -172 5 -41 16 -88 24 -104 8 -16 24
-60 35 -98 10 -38 26 -86 35 -107 9 -21 21 -70 26 -110 5 -40 18 -93 30 -119
11 -26 24 -80 30 -120 5 -40 19 -95 32 -123 35 -76 37 -1768 2 -1850 -24 -56
-67 -183 -90 -265 -8 -30 -37 -102 -64 -160 -27 -58 -56 -130 -64 -161 -10
-36 -31 -75 -56 -105 -22 -27 -45 -67 -51 -89 -21 -83 -31 -106 -65 -146 -18
-22 -47 -66 -64 -98 -58 -109 -529 -565 -605 -586 -33 -9 -80 -25 -105 -35
-25 -10 -70 -25 -101 -34 -33 -9 -82 -35 -117 -61 -127 -96 -379 -198 -445
-181 -48 12 -61 110 -26 206 10 30 30 89 43 130 13 41 31 93 40 115 8 22 15
58 16 80 0 22 10 65 21 95 11 30 29 86 40 124 11 38 27 83 37 100 14 25 18 71
22 251 5 206 7 223 30 275 39 86 39 813 1 900 -22 48 -26 76 -31 215 -6 134
-10 168 -29 207 -12 26 -25 80 -31 120 -5 40 -19 95 -31 122 -15 34 -24 82
-29 151 -4 59 -14 113 -23 132 -9 17 -25 61 -36 99 -11 38 -29 94 -40 124 -22
62 -41 120 -77 230 -13 41 -36 111 -50 155 -14 44 -61 154 -105 245 -43 91
-84 188 -90 215 -16 69 -318 670 -364 725 -20 24 -61 92 -90 150 -29 58 -70
126 -90 150 -20 24 -48 66 -62 93 -13 27 -53 80 -88 117 -35 37 -75 90 -88
117 -14 27 -42 69 -62 93 -20 24 -48 67 -62 94 -17 35 -84 110 -208 236 -135
137 -190 201 -214 246 -44 83 -449 488 -529 528 -29 15 -85 56 -124 92 -39 36
-89 74 -112 85 -22 12 -66 40 -96 64 -30 23 -74 52 -98 64 -24 12 -75 51 -114
87 -106 97 -787 439 -904 454 -42 5 -96 19 -122 30 -26 12 -80 25 -120 30 -40
6 -94 19 -119 30 -26 11 -65 23 -87 26 -122 17 -139 41 -101 137 35 84 73 120
190 179 55 28 125 70 155 93 30 24 70 50 89 60 18 9 60 36 92 60 35 25 79 48
110 55 29 7 80 32 118 58 36 25 93 54 126 64 99 30 217 69 270 91 31 12 88 22
151 27 55 4 111 13 125 20 89 48 341 55 434 11z m-1967 -978 c83 -58 98 -64
174 -74 38 -5 90 -18 116 -29 26 -12 80 -25 120 -30 40 -6 94 -19 120 -30 26
-12 81 -25 122 -30 119 -15 777 -343 888 -443 42 -38 94 -78 116 -89 23 -11
66 -39 96 -63 30 -23 74 -52 98 -64 24 -12 74 -51 113 -86 38 -35 96 -78 128
-95 80 -43 318 -283 356 -360 20 -40 77 -105 210 -240 125 -126 191 -201 208
-236 14 -27 42 -70 62 -94 20 -24 48 -66 62 -93 13 -27 53 -80 88 -117 35 -37
75 -90 88 -117 14 -27 42 -69 62 -93 20 -24 61 -92 90 -150 29 -58 70 -126 90
-150 49 -58 329 -620 354 -707 10 -37 50 -132 90 -210 39 -78 79 -173 90 -210
11 -37 29 -93 40 -123 22 -62 41 -120 77 -230 58 -179 78 -238 97 -285 12 -31
23 -89 27 -150 5 -67 15 -116 29 -147 12 -26 25 -80 31 -120 5 -40 19 -95 31
-123 20 -42 24 -74 29 -210 6 -140 10 -166 31 -210 38 -79 38 -812 0 -890 -23
-47 -25 -64 -31 -270 -5 -181 -9 -227 -24 -260 -10 -22 -28 -74 -41 -115 -13
-41 -30 -93 -39 -115 -8 -22 -15 -58 -16 -80 0 -22 -10 -65 -21 -95 -11 -30
-29 -86 -40 -124 -11 -38 -27 -82 -36 -99 -9 -19 -19 -73 -23 -136 -13 -180
-179 -415 -356 -504 -28 -14 -83 -55 -122 -91 -39 -36 -93 -76 -119 -90 -114
-57 -194 -169 -247 -343 -13 -43 -31 -98 -40 -122 -29 -77 -19 -979 11 -1041
63 -127 -18 -202 -162 -151 -33 12 -91 31 -130 42 -92 27 -383 176 -407 210
-11 14 -23 54 -28 90 -5 36 -19 87 -32 114 -19 42 -23 74 -28 205 -4 120 -9
163 -23 191 -26 54 -272 291 -332 322 -62 31 -100 68 -130 128 -13 25 -40 65
-61 90 -163 194 -233 563 -129 678 44 48 150 97 240 111 169 26 170 26 223 -9
57 -36 84 -38 170 -11 35 11 92 20 125 20 88 0 297 73 370 128 28 22 72 50 96
62 164 82 389 409 410 594 11 93 16 102 127 218 72 76 96 107 104 140 22 87
32 108 69 153 21 26 43 63 50 84 19 66 15 1605 -5 1656 -9 22 -27 74 -40 115
-13 41 -33 100 -43 130 -11 30 -21 71 -21 90 0 69 -20 109 -86 179 -84 89 -94
116 -94 243 -1 68 -6 116 -16 143 -9 22 -27 74 -40 115 -13 41 -36 111 -50
155 -35 110 -153 350 -199 405 -20 24 -61 92 -90 150 -29 58 -70 126 -90 150
-20 24 -47 65 -60 90 -13 25 -40 66 -60 90 -20 24 -48 66 -62 93 -13 27 -53
79 -87 116 -34 36 -77 94 -95 127 -42 79 -809 848 -881 884 -25 12 -70 41
-100 65 -30 23 -100 65 -155 93 -55 27 -125 70 -156 94 -148 114 -469 234
-644 240 -109 4 -111 4 -225 58 -138 66 -365 81 -477 32 -29 -12 -86 -27 -128
-32 -56 -7 -96 -21 -163 -54 -49 -24 -115 -52 -148 -61 -32 -9 -77 -27 -99
-40 -64 -37 -398 -381 -428 -441 -14 -27 -42 -70 -62 -94 -20 -24 -47 -65 -61
-92 -13 -26 -36 -62 -52 -80 -49 -59 -52 -65 -73 -138 -10 -39 -38 -108 -60
-153 -23 -45 -50 -113 -61 -151 -10 -37 -26 -83 -36 -100 -13 -25 -18 -70 -22
-221 -5 -173 -8 -195 -30 -245 -24 -53 -25 -63 -25 -270 0 -207 1 -217 25
-270 22 -50 25 -72 30 -245 6 -166 9 -196 28 -237 12 -26 26 -80 32 -120 5
-40 18 -94 30 -120 11 -26 25 -81 30 -122 5 -42 16 -89 24 -105 9 -16 24 -59
35 -97 49 -164 77 -239 152 -394 43 -91 84 -187 90 -215 16 -68 258 -550 304
-605 20 -24 61 -92 90 -150 29 -58 70 -126 90 -150 20 -24 48 -67 62 -94 14
-28 67 -94 118 -146 55 -56 104 -118 120 -150 18 -36 70 -98 150 -180 82 -84
132 -145 154 -187 42 -78 271 -307 346 -346 118 -60 125 -81 125 -378 0 -314
-1 -316 -140 -333 -25 -3 -66 -14 -92 -26 -26 -11 -80 -25 -122 -30 -100 -13
-208 -67 -305 -154 -101 -91 -197 -110 -321 -65 -30 11 -80 27 -110 35 -30 9
-75 24 -100 34 -25 10 -72 26 -104 35 -51 14 -71 28 -134 88 -121 117 -111 42
-112 857 -1 613 -3 710 -16 745 -9 22 -26 74 -39 116 -13 42 -109 248 -214
457 -115 231 -199 410 -211 453 -20 72 -23 79 -72 137 -15 17 -35 58 -43 90
-9 31 -39 105 -67 164 -39 83 -52 123 -58 182 -5 41 -16 88 -24 104 -8 16 -24
60 -35 98 -10 38 -26 86 -35 107 -9 21 -21 70 -26 110 -5 40 -18 93 -30 119
-11 26 -24 80 -30 120 -5 40 -19 95 -31 122 -15 34 -24 82 -29 150 -6 73 -15
115 -32 151 -23 50 -23 50 -23 745 0 695 0 695 23 745 17 36 26 78 32 150 4
61 15 119 27 150 25 60 68 190 89 265 8 30 37 102 64 160 27 58 56 130 65 162
9 33 30 73 51 99 19 24 47 65 61 92 13 27 53 80 88 117 35 37 76 92 91 121 34
69 160 198 227 234 29 16 77 47 107 71 71 55 379 208 467 233 37 10 129 49
203 86 227 115 328 126 438 48z m294 -1043 c76 -21 106 -92 71 -168 -15 -31
-18 -84 -23 -347 -5 -298 -6 -312 -28 -360 -30 -64 -30 -126 0 -190 21 -47 23
-66 28 -300 6 -231 8 -254 28 -297 12 -26 26 -80 32 -120 5 -40 18 -94 30
-120 11 -26 25 -81 30 -122 5 -42 16 -89 24 -105 9 -16 24 -59 35 -97 44 -148
75 -233 122 -334 26 -58 54 -127 60 -155 7 -27 32 -89 55 -137 24 -48 53 -119
63 -158 21 -73 24 -79 74 -138 15 -18 65 -109 111 -200 46 -92 100 -187 121
-212 20 -24 48 -67 62 -94 31 -61 174 -211 262 -274 65 -47 91 -86 91 -139 0
-61 22 -103 90 -177 38 -41 81 -99 96 -128 18 -36 75 -102 180 -208 286 -291
299 -399 61 -521 -56 -29 -127 -71 -157 -95 -30 -23 -98 -63 -150 -89 -52 -26
-120 -67 -150 -90 -30 -24 -125 -78 -210 -120 -85 -43 -180 -97 -210 -120 -70
-55 -258 -148 -352 -176 -40 -12 -89 -26 -109 -32 -45 -13 -76 -5 -125 34 -21
17 -61 42 -88 56 -70 35 -138 104 -176 176 -23 42 -72 102 -155 187 -80 82
-132 144 -150 180 -16 32 -65 94 -120 150 -51 52 -104 118 -118 146 -14 27
-42 70 -62 94 -20 24 -61 92 -90 150 -29 58 -70 126 -90 150 -49 58 -269 500
-294 587 -10 37 -50 132 -90 210 -39 78 -80 173 -91 210 -29 99 -69 221 -91
275 -11 26 -24 80 -29 120 -5 40 -18 94 -30 120 -11 26 -24 80 -30 120 -5 40
-19 96 -32 123 -20 44 -23 72 -28 240 -6 174 -9 194 -31 240 -37 77 -37 453 0
530 22 46 25 67 31 240 5 164 9 197 27 240 12 28 27 70 33 95 6 25 33 92 60
150 27 58 56 130 65 162 9 33 30 73 51 99 19 24 46 64 59 89 13 25 39 65 59
89 20 23 49 69 67 101 52 99 229 264 304 284 33 10 107 39 165 67 80 37 123
51 183 59 43 5 88 15 100 22 68 36 289 53 379 28z m508 -131 c30 -11 86 -29
123 -40 90 -26 278 -120 347 -174 30 -23 98 -64 150 -90 52 -26 120 -66 150
-89 30 -24 78 -55 106 -70 77 -41 673 -642 709 -715 15 -29 55 -84 90 -121 35
-37 75 -90 88 -117 14 -27 42 -69 62 -93 20 -24 47 -65 60 -90 13 -25 40 -66
60 -90 20 -24 61 -92 90 -150 29 -58 70 -126 90 -150 47 -56 148 -258 175
-347 30 -102 70 -222 93 -278 69 -172 22 -285 -119 -285 -118 0 -574 -191
-720 -301 -31 -24 -80 -49 -118 -60 -39 -12 -88 -37 -123 -63 -32 -24 -74 -51
-93 -61 -19 -10 -60 -37 -90 -61 -64 -50 -285 -160 -341 -169 -93 -16 -168 24
-214 115 -13 25 -40 66 -60 90 -21 25 -74 119 -120 210 -46 91 -99 185 -119
209 -21 26 -42 66 -51 99 -9 32 -38 104 -65 162 -27 58 -55 128 -61 155 -7 28
-32 89 -55 137 -24 48 -53 117 -64 155 -29 99 -69 221 -91 275 -11 26 -24 80
-29 120 -5 40 -18 94 -30 120 -11 26 -24 80 -30 120 -5 40 -19 96 -32 123 -21
47 -23 67 -28 300 -6 230 -8 254 -28 295 -28 58 -28 122 0 180 21 43 23 62 28
355 3 207 9 317 17 330 46 80 136 103 243 64z m2545 -3081 c34 -27 55 -75 55
-130 1 -24 8 -61 16 -83 9 -22 27 -74 40 -115 13 -41 33 -100 43 -130 20 -53
20 -82 21 -843 0 -870 4 -820 -65 -900 -19 -22 -40 -59 -45 -81 -33 -131 -94
-203 -196 -231 -33 -9 -80 -25 -106 -36 -26 -11 -81 -24 -123 -29 -86 -11
-187 -57 -275 -125 -30 -24 -128 -80 -218 -124 -207 -104 -282 -170 -366 -326
-63 -118 -81 -133 -169 -145 -118 -17 -213 -74 -343 -204 -135 -135 -138 -142
-132 -342 4 -148 79 -340 182 -463 19 -23 50 -69 67 -101 40 -75 214 -247 288
-285 145 -73 174 -126 182 -330 5 -135 9 -167 28 -207 12 -26 26 -81 31 -123
12 -93 28 -122 121 -209 83 -79 393 -238 585 -300 255 -83 678 -37 847 92 28
22 122 75 207 117 85 43 180 97 210 120 30 24 125 78 210 120 85 43 180 97
210 120 30 24 71 51 90 60 19 10 60 37 90 60 30 24 102 67 160 95 127 63 257
183 278 256 9 31 12 248 12 828 0 686 2 791 15 824 11 24 108 130 284 307 195
196 276 284 294 320 14 28 44 73 66 100 23 28 46 68 52 90 21 81 32 107 58
138 48 57 51 64 72 137 10 39 39 110 63 158 23 48 50 117 60 153 36 137 104
199 201 185 60 -9 632 -293 705 -350 30 -24 125 -78 210 -121 85 -42 180 -96
210 -120 30 -23 152 -91 270 -150 118 -59 240 -126 270 -150 30 -23 125 -77
210 -120 85 -42 180 -96 210 -120 30 -23 98 -64 150 -90 52 -26 120 -66 150
-90 30 -23 71 -50 90 -60 19 -9 60 -36 90 -60 30 -23 71 -50 90 -60 96 -48
113 -82 121 -240 5 -102 11 -140 27 -175 52 -110 9 -202 -108 -230 -73 -17
-540 -251 -610 -305 -30 -24 -98 -64 -150 -90 -52 -26 -120 -67 -150 -90 -30
-24 -125 -78 -210 -120 -85 -43 -180 -97 -210 -120 -30 -24 -71 -51 -90 -60
-19 -10 -60 -37 -90 -60 -30 -24 -125 -78 -210 -120 -85 -43 -180 -97 -210
-120 -30 -24 -71 -51 -90 -60 -19 -10 -60 -37 -90 -60 -30 -24 -125 -78 -210
-120 -85 -43 -180 -97 -210 -120 -30 -24 -71 -51 -90 -60 -19 -10 -60 -37 -90
-60 -30 -24 -125 -78 -210 -120 -85 -43 -180 -97 -210 -120 -30 -24 -97 -64
-149 -90 -52 -26 -118 -65 -147 -87 -31 -23 -80 -48 -118 -59 -39 -12 -88 -37
-123 -63 -32 -24 -74 -51 -93 -61 -19 -10 -60 -37 -90 -60 -30 -24 -71 -51
-90 -60 -19 -10 -60 -37 -90 -60 -30 -24 -98 -64 -150 -90 -52 -26 -120 -67
-150 -90 -30 -24 -125 -78 -210 -120 -85 -43 -180 -97 -210 -120 -30 -24 -71
-51 -90 -60 -19 -10 -58 -36 -87 -57 -30 -23 -80 -48 -117 -59 -39 -12 -88
-37 -123 -63 -32 -24 -74 -51 -93 -61 -19 -10 -60 -37 -90 -60 -30 -24 -71
-51 -90 -60 -19 -10 -60 -37 -90 -60 -30 -24 -152 -91 -270 -150 -118 -59
-240 -127 -270 -150 -30 -24 -98 -64 -150 -90 -52 -26 -120 -67 -150 -90 -30
-24 -98 -64 -150 -90 -52 -26 -120 -67 -150 -90 -30 -24 -71 -51 -90 -60 -19
-10 -58 -36 -87 -57 -30 -23 -80 -48 -117 -59 -39 -12 -88 -37 -123 -63 -32
-24 -74 -51 -93 -61 -19 -10 -62 -38 -95 -64 -142 -107 -530 -282 -646 -291
-76 -6 -117 -14 -154 -32 -75 -35 -588 -41 -681 -8 -33 11 -90 30 -127 41 -38
10 -107 39 -155 63 -48 24 -111 49 -140 56 -32 7 -75 29 -111 55 -32 24 -74
51 -92 60 -19 10 -59 36 -89 60 -30 23 -152 91 -270 150 -118 59 -240 126
-270 150 -30 23 -125 77 -210 120 -85 42 -180 96 -210 120 -30 23 -125 77
-210 120 -85 42 -180 96 -210 120 -30 23 -152 91 -270 150 -118 59 -240 126
-270 150 -30 23 -125 77 -210 120 -85 42 -180 96 -210 120 -30 23 -71 50 -90
60 -19 9 -60 36 -90 60 -30 23 -125 77 -210 120 -85 42 -180 96 -210 120 -30
23 -71 50 -90 60 -19 9 -60 36 -90 60 -30 23 -125 77 -210 120 -85 42 -180 96
-210 120 -30 23 -152 91 -270 150 -118 59 -240 126 -270 150 -94 73 -547 293
-627 305 -115 16 -117 21 -121 252 -4 245 -5 241 136 380 104 103 111 108 272
188 91 45 190 102 220 125 30 24 98 64 150 90 52 26 120 67 150 90 30 24 125
78 210 120 85 43 180 97 210 120 30 24 71 51 90 60 19 10 60 37 90 60 30 24
71 51 90 60 19 10 58 36 87 57 30 23 80 48 117 59 39 12 88 37 123 63 32 24
128 78 213 121 85 43 180 97 210 120 30 24 98 64 150 90 52 26 120 67 150 90
30 24 125 78 210 120 85 43 180 97 210 120 30 24 71 51 90 60 19 10 60 37 90
60 30 24 70 50 89 60 18 9 60 36 92 60 35 26 79 48 110 55 29 7 98 35 153 61
219 106 220 105 226 -389 6 -462 -12 -403 183 -600 157 -159 201 -192 277
-212 25 -7 65 -20 90 -30 342 -134 471 -127 640 35 103 99 110 103 202 115 40
5 94 18 120 30 26 11 78 24 116 29 85 11 115 26 198 101 51 46 79 64 123 76
31 9 83 26 116 39 33 13 76 26 95 30 54 12 408 192 470 240 69 54 135 87 227
114 46 14 92 37 130 65 32 24 74 51 93 61 19 10 60 37 90 60 30 24 102 66 160
95 99 49 113 60 246 194 167 168 164 161 164 376 0 193 -6 214 -92 306 -55 60
-70 83 -83 131 -40 147 -79 207 -246 378 -108 110 -165 177 -184 215 -15 30
-54 82 -86 115 -73 76 -85 106 -94 226 -8 109 -1 120 109 176 28 14 76 45 106
68 30 24 71 51 90 60 19 10 58 36 87 57 30 23 80 48 117 59 39 12 88 37 123
63 74 56 382 210 470 236 37 10 93 28 123 39 34 13 82 21 125 21 42 1 90 8
120 20 68 25 107 24 140 -2z m-1039 -2003 c22 -54 19 -317 -5 -370 -27 -60
-98 -118 -213 -176 -57 -28 -128 -71 -158 -94 -30 -24 -70 -50 -89 -60 -18 -9
-60 -36 -92 -60 -36 -26 -79 -48 -111 -55 -70 -17 -179 -72 -248 -125 -132
-103 -557 -284 -623 -267 -38 10 -49 64 -45 223 4 188 -1 181 190 279 80 41
169 94 199 116 30 23 124 77 209 119 85 43 180 97 210 120 30 24 98 64 150 90
52 26 120 67 150 91 79 62 374 204 423 204 34 0 40 -4 53 -35z m808 -818 c-3
-91 -108 -258 -189 -299 -21 -11 -63 -39 -92 -61 -31 -23 -80 -48 -116 -58
-34 -10 -87 -27 -117 -38 -95 -33 -280 -34 -298 0 -42 73 51 180 241 276 73
36 157 85 187 108 151 117 387 162 384 72z m1952 -564 c12 -28 14 -148 12
-722 -3 -801 10 -717 -130 -791 -47 -25 -109 -64 -139 -86 -30 -23 -70 -50
-89 -59 -19 -10 -60 -37 -90 -60 -30 -24 -125 -78 -210 -120 -85 -43 -180 -97
-210 -120 -30 -24 -124 -77 -208 -119 -84 -42 -179 -96 -212 -120 -36 -27 -80
-49 -112 -56 -29 -7 -71 -21 -93 -31 -112 -51 -143 -23 -211 192 -27 85 -16
958 13 1024 12 28 29 77 38 109 21 76 187 253 287 306 36 19 102 72 158 125
53 51 116 103 140 115 25 13 68 41 97 63 31 23 80 48 116 58 220 65 441 163
543 241 41 31 79 48 152 68 112 31 129 29 148 -17z m4125 -569 c28 -29 44
-678 19 -789 -24 -112 -149 -229 -350 -330 -52 -26 -120 -67 -150 -90 -30 -24
-98 -64 -150 -90 -52 -26 -120 -67 -150 -90 -30 -24 -71 -51 -90 -60 -19 -10
-60 -37 -90 -60 -30 -24 -124 -78 -209 -120 -85 -42 -178 -95 -207 -117 -31
-23 -80 -48 -118 -59 -39 -12 -88 -37 -123 -63 -32 -24 -74 -51 -93 -61 -19
-10 -60 -37 -90 -60 -30 -24 -71 -51 -90 -60 -19 -10 -60 -37 -90 -60 -30 -24
-125 -78 -210 -120 -85 -43 -180 -97 -210 -120 -30 -24 -125 -78 -210 -120
-85 -43 -180 -97 -210 -120 -30 -24 -98 -64 -150 -90 -52 -26 -120 -67 -150
-90 -30 -24 -98 -64 -150 -90 -52 -26 -120 -67 -150 -90 -30 -24 -98 -64 -150
-90 -52 -26 -120 -67 -150 -90 -30 -24 -98 -64 -150 -90 -52 -26 -120 -67
-150 -90 -30 -24 -98 -64 -150 -90 -52 -26 -120 -67 -150 -90 -30 -24 -125
-78 -210 -120 -85 -43 -180 -97 -210 -120 -30 -24 -71 -51 -90 -60 -19 -10
-60 -37 -90 -60 -30 -24 -152 -91 -270 -150 -118 -59 -240 -127 -270 -150 -30
-24 -71 -51 -90 -60 -19 -10 -60 -37 -90 -60 -30 -24 -152 -91 -270 -150 -118
-59 -240 -127 -270 -150 -30 -24 -71 -51 -90 -60 -19 -10 -60 -37 -90 -60 -30
-24 -71 -51 -90 -60 -19 -10 -60 -37 -90 -60 -30 -24 -125 -78 -210 -120 -85
-43 -180 -97 -210 -120 -30 -24 -71 -51 -90 -60 -19 -10 -60 -37 -90 -60 -30
-24 -97 -64 -148 -89 -51 -26 -119 -66 -152 -90 -37 -27 -79 -49 -112 -56 -29
-7 -92 -32 -140 -56 -48 -24 -117 -53 -155 -63 -37 -11 -93 -29 -123 -40 -85
-31 -875 -31 -960 0 -30 11 -86 29 -123 39 -91 27 -398 181 -467 235 -30 23
-125 77 -210 120 -85 42 -180 96 -210 120 -30 23 -98 64 -150 90 -52 26 -120
66 -150 90 -30 23 -98 64 -150 90 -52 26 -121 67 -153 91 -35 26 -84 51 -123
63 -38 11 -87 36 -118 59 -29 22 -95 61 -147 87 -52 26 -119 66 -149 90 -30
23 -125 77 -210 120 -85 42 -180 96 -210 120 -30 23 -125 77 -210 120 -85 42
-180 96 -210 120 -30 23 -98 64 -150 90 -52 26 -120 66 -150 90 -30 23 -125
77 -210 120 -85 42 -180 96 -210 120 -30 23 -71 50 -90 60 -19 10 -61 37 -93
61 -35 26 -84 51 -123 63 -37 11 -87 36 -117 59 -29 21 -68 47 -87 57 -19 9
-60 36 -90 60 -30 23 -125 77 -210 120 -85 42 -180 96 -210 120 -30 23 -129
79 -219 125 -123 61 -178 95 -220 134 -31 29 -82 72 -114 95 -87 64 -124 129
-137 246 -5 39 -19 93 -32 120 -38 81 -34 321 6 425 16 41 33 87 38 102 14 38
69 62 127 54 61 -8 505 -226 587 -288 34 -26 158 -95 275 -153 118 -59 239
-126 269 -150 30 -23 125 -77 210 -120 85 -42 180 -96 210 -120 30 -23 71 -50
90 -60 19 -9 60 -36 90 -60 30 -23 125 -77 210 -120 85 -42 180 -96 210 -120
30 -23 71 -50 90 -60 19 -9 60 -36 90 -60 30 -23 125 -77 210 -120 85 -42 180
-96 210 -120 30 -23 152 -91 270 -150 118 -59 240 -126 270 -150 30 -23 125
-77 210 -120 85 -42 180 -96 210 -120 30 -23 125 -77 210 -120 85 -42 180 -96
210 -120 30 -23 152 -91 270 -150 118 -59 240 -126 270 -150 30 -23 71 -50 90
-60 19 -10 61 -37 94 -61 34 -26 82 -51 115 -60 31 -8 103 -37 161 -64 247
-113 294 -122 622 -118 285 3 294 4 343 27 36 18 75 26 148 31 108 7 525 197
656 298 31 24 74 53 96 64 21 11 63 38 92 60 30 23 80 48 117 59 39 12 88 37
123 63 32 24 74 51 93 61 19 10 60 37 90 60 30 24 98 64 150 90 52 26 120 67
150 90 30 24 98 64 150 90 52 26 120 67 150 90 30 24 152 91 270 150 118 59
240 127 270 150 30 24 71 51 90 60 19 10 60 37 90 60 30 24 71 51 90 60 19 10
58 36 87 57 30 23 80 48 117 59 39 12 88 37 123 63 32 24 74 51 93 61 19 10
60 37 90 60 30 24 125 78 210 120 85 43 180 97 210 120 30 24 98 64 150 90 52
26 120 67 150 90 30 24 71 51 90 60 19 10 60 37 90 60 30 24 71 51 90 60 19
10 58 36 87 57 30 23 80 48 117 59 39 12 88 37 123 63 32 24 101 65 153 91 52
26 120 67 150 90 30 24 125 78 210 120 85 43 180 97 210 120 30 24 71 51 90
60 19 10 60 37 90 60 30 24 125 78 210 120 85 43 180 97 210 120 30 24 71 51
90 60 19 10 60 37 90 60 30 24 125 78 210 120 85 43 180 97 210 120 30 24 71
51 90 60 19 10 60 37 90 60 30 24 125 78 210 120 85 43 180 97 210 120 30 24
98 64 150 90 52 26 120 67 150 91 30 23 165 97 299 163 269 133 298 141 342
95z"/>
</g>
</svg>
