<?xml version="1.0" standalone="no"?>
<!DOCTYPE svg PUBLIC "-//W3C//DTD SVG 20010904//EN"
 "http://www.w3.org/TR/2001/REC-SVG-20010904/DTD/svg10.dtd">
<svg version="1.0" xmlns="http://www.w3.org/2000/svg"
 width="936.000000pt" height="780.000000pt" viewBox="0 0 936.000000 780.000000"
 preserveAspectRatio="xMidYMid meet">
<metadata>
Created by potrace 1.16, written by Peter Selinger 2001-2019
</metadata>
<g transform="translate(0.000000,780.000000) scale(0.100000,-0.100000)"
fill="#f97316" stroke="none">
<path d="M3110 6877 c-37 -17 -71 -22 -200 -27 -155 -6 -155 -6 -265 -57 -60
-28 -130 -57 -155 -63 -98 -25 -278 -187 -335 -300 -20 -40 -79 -108 -214
-245 -227 -232 -284 -333 -391 -698 -11 -38 -40 -107 -64 -155 -24 -48 -47
-103 -51 -122 -4 -19 -17 -62 -30 -95 -22 -58 -50 -143 -99 -295 -35 -108 -55
-167 -77 -230 -11 -30 -31 -89 -44 -130 -31 -99 -52 -163 -76 -230 -11 -30
-29 -86 -40 -124 -11 -38 -26 -81 -35 -97 -8 -16 -19 -63 -24 -105 -5 -41 -19
-96 -30 -122 -12 -26 -25 -80 -30 -120 -6 -40 -20 -94 -32 -120 -20 -42 -22
-68 -28 -267 -5 -206 -7 -224 -30 -275 -36 -79 -36 -220 -1 -300 20 -45 26
-79 31 -185 11 -212 97 -370 327 -595 293 -287 514 -367 733 -265 110 51 572
497 631 609 33 64 434 482 491 512 35 18 82 18 98 -1 16 -20 -2 -187 -28 -252
-19 -45 -39 -105 -96 -283 -35 -108 -55 -167 -77 -230 -11 -30 -31 -89 -44
-130 -30 -97 -52 -162 -76 -230 -11 -30 -30 -89 -43 -130 -13 -41 -31 -93 -40
-115 -19 -49 -22 -278 -4 -336 15 -51 68 -112 126 -147 74 -43 3510 -43 3584
0 121 72 174 228 122 363 -9 22 -27 74 -40 115 -13 41 -33 100 -43 130 -11 30
-21 73 -21 95 -1 22 -8 58 -16 80 -9 22 -27 74 -40 115 -13 41 -32 100 -43
130 -26 72 -47 138 -76 230 -13 41 -31 92 -39 113 -9 21 -21 70 -26 110 -5 40
-19 95 -31 122 -70 154 18 274 137 186 88 -65 391 -385 423 -447 26 -50 84
-112 289 -316 298 -295 347 -327 502 -336 259 -15 672 246 720 456 7 28 23 67
36 85 72 98 74 103 84 180 5 43 20 101 32 130 37 83 36 813 -1 897 -17 39 -26
85 -31 155 -5 67 -15 116 -29 147 -12 26 -25 80 -31 120 -5 40 -18 94 -30 120
-11 26 -25 81 -30 122 -5 42 -16 89 -24 105 -9 16 -24 59 -35 97 -11 38 -29
94 -40 124 -22 62 -41 120 -77 230 -13 41 -36 111 -50 155 -14 44 -48 127 -75
185 -26 58 -55 130 -63 160 -19 67 -61 194 -91 275 -13 33 -26 76 -30 95 -4
19 -27 74 -51 122 -24 48 -52 117 -62 155 -55 196 -137 321 -362 548 -156 158
-217 227 -248 280 -37 64 -65 96 -115 135 -19 14 -167 67 -281 101 -38 11 -82
27 -99 36 -19 9 -73 19 -132 23 -68 5 -117 14 -149 29 -98 43 -158 27 -263
-71 -141 -131 -146 -132 -738 -139 -317 -3 -534 -10 -557 -16 -28 -8 -53 -7
-100 3 -48 10 -183 13 -568 14 -596 0 -552 -7 -674 109 -134 128 -191 147
-296 98z m370 -380 c44 -22 54 -22 535 -27 627 -6 607 3 416 -195 -121 -126
-149 -214 -109 -349 15 -49 177 -223 248 -265 112 -66 207 -33 360 125 169
175 171 311 8 479 -92 96 -110 127 -98 161 14 37 36 39 520 44 466 5 476 6
520 27 57 28 121 29 180 2 30 -14 78 -24 146 -29 68 -5 116 -14 150 -29 27
-12 82 -26 122 -31 40 -6 94 -19 120 -30 26 -12 80 -25 120 -30 40 -6 94 -19
120 -31 32 -14 80 -24 147 -29 126 -9 137 -15 261 -142 112 -114 202 -267 243
-415 10 -38 37 -105 60 -150 22 -45 50 -112 61 -150 26 -89 67 -213 95 -288
13 -33 26 -76 30 -95 4 -19 27 -74 51 -122 24 -48 52 -117 63 -155 11 -37 29
-93 40 -123 22 -62 41 -120 77 -230 57 -177 77 -238 95 -282 11 -26 24 -80 29
-120 5 -40 18 -94 30 -120 11 -26 24 -80 30 -120 5 -40 19 -95 31 -122 15 -34
24 -82 29 -150 6 -73 15 -115 32 -151 36 -78 36 -811 0 -890 -13 -27 -27 -82
-32 -122 -8 -72 -20 -100 -73 -166 -15 -19 -36 -65 -46 -102 -29 -103 -97
-158 -258 -204 -37 -11 -95 -30 -128 -42 -88 -31 -186 -24 -285 21 -99 45
-397 332 -451 434 -25 48 -88 117 -303 334 -294 297 -301 302 -408 337 -216
70 -218 71 -267 143 -45 66 -141 161 -191 188 -51 28 -2147 35 -2219 8 -32
-12 -82 -53 -172 -140 -132 -127 -159 -144 -240 -144 -76 0 -121 -36 -440
-357 -246 -248 -313 -320 -339 -369 -52 -101 -350 -389 -450 -434 -180 -83
-446 -4 -632 187 -130 135 -209 310 -219 486 -5 109 -10 141 -30 182 -35 73
-35 218 0 290 23 47 25 64 31 270 5 201 7 224 28 270 13 28 27 83 32 123 6 40
19 94 30 120 12 26 25 80 30 120 5 40 18 94 29 120 18 44 38 105 95 282 35
108 55 167 77 230 11 30 31 89 44 130 31 99 52 163 76 230 11 30 29 86 40 124
11 38 26 80 33 95 7 14 18 49 25 76 6 28 34 97 60 155 47 101 78 186 122 334
81 276 326 566 487 577 52 3 121 16 172 32 159 50 245 79 292 98 26 11 80 24
120 29 40 5 95 19 122 31 34 15 82 24 150 29 68 5 116 15 146 29 59 27 123 26
180 -2z m1249 -241 c140 -73 168 -310 47 -400 -64 -49 -186 -25 -240 47 -102
137 54 424 193 353z m1025 -3160 c20 -8 47 -33 66 -63 18 -26 57 -73 86 -103
72 -75 84 -107 84 -232 1 -69 6 -116 16 -143 17 -44 38 -122 52 -200 6 -27 19
-75 30 -105 22 -59 40 -113 78 -230 57 -177 77 -238 95 -282 11 -26 24 -82 29
-123 5 -41 16 -88 24 -104 9 -16 24 -59 35 -97 11 -38 30 -96 42 -129 26 -74
21 -127 -15 -164 -43 -42 -3351 -41 -3393 2 -38 38 -42 229 -7 312 20 47 38
99 98 285 35 108 55 167 77 230 11 30 31 89 44 130 31 99 52 163 76 230 11 30
29 86 40 124 11 38 26 81 35 97 8 16 19 63 24 105 5 41 19 96 31 122 11 26 24
79 28 117 13 108 71 190 157 220 58 21 2119 22 2168 1z"/>
<path d="M6538 6061 c-130 -42 -264 -216 -238 -311 11 -43 149 -197 224 -252
123 -89 386 89 386 262 0 161 -229 347 -372 301z m111 -202 c90 -32 50 -189
-49 -189 -23 0 -41 9 -66 34 -88 88 -7 197 115 155z"/>
<path d="M2625 5877 c-241 -81 -530 -406 -530 -597 1 -134 192 -406 360 -510
227 -141 469 -98 678 120 75 78 99 109 107 142 11 43 25 85 55 168 48 130 -15
262 -229 478 -205 209 -293 248 -441 199z m200 -198 c159 -44 319 -335 266
-484 -12 -33 -30 -88 -40 -123 -24 -81 -59 -118 -131 -138 -30 -8 -76 -24
-102 -35 -26 -10 -65 -19 -88 -19 -23 0 -62 9 -88 19 -26 11 -73 27 -106 36
-122 34 -241 204 -241 344 0 244 294 465 530 400z"/>
<path d="M7019 5551 c-102 -66 -229 -217 -229 -272 0 -57 157 -235 250 -285
194 -103 447 157 346 355 -93 181 -258 272 -367 202z m139 -187 c64 -44 70
-139 11 -169 -76 -40 -179 9 -179 85 0 74 106 127 168 84z"/>
<path d="M6044 5542 c-75 -55 -213 -209 -224 -252 -22 -81 67 -216 189 -288
198 -116 462 141 357 347 -87 170 -233 257 -322 193z m114 -205 c45 -48 38
-122 -15 -146 -66 -30 -123 1 -123 68 0 84 87 133 138 78z"/>
<path d="M4017 5430 c-151 -96 -140 -200 36 -341 80 -64 153 -46 230 55 125
163 -92 396 -266 286z"/>
<path d="M5159 5431 c-157 -99 -163 -245 -15 -353 80 -58 193 -3 289 142 85
127 -137 298 -274 211z"/>
<path d="M6538 5041 c-118 -38 -248 -195 -248 -300 0 -126 175 -291 310 -291
134 0 310 164 310 290 0 162 -229 347 -372 301z m111 -202 c90 -32 50 -189
-49 -189 -23 0 -41 10 -66 34 -88 88 -7 197 115 155z"/>
<path d="M3598 4741 c-83 -27 -219 -162 -242 -241 -22 -73 -30 -84 -100 -134
-169 -120 -231 -235 -194 -360 15 -50 151 -192 214 -224 65 -33 101 -69 143
-141 38 -65 143 -175 190 -200 92 -49 317 89 355 219 23 78 31 86 107 115 76
29 169 106 224 184 81 118 -45 357 -226 426 -73 28 -82 38 -105 115 -42 142
-249 278 -366 241z m117 -205 c36 -15 48 -43 60 -138 12 -90 97 -173 216 -208
145 -44 184 -194 55 -214 -20 -3 -51 -8 -70 -11 -86 -14 -183 -113 -205 -208
-37 -169 -123 -160 -221 22 -54 101 -102 146 -201 186 -136 56 -139 174 -5
228 121 48 190 119 201 205 17 138 69 180 170 138z"/>
<path d="M5565 4677 c-143 -48 -434 -301 -463 -403 -16 -54 -16 -334 0 -388
37 -128 420 -406 558 -406 188 0 435 174 541 380 68 132 67 312 -4 446 -135
259 -437 435 -632 371z m276 -229 c272 -130 286 -640 19 -714 -30 -8 -76 -24
-102 -35 -80 -33 -118 -26 -263 45 -199 97 -205 107 -205 339 0 188 9 216 83
284 135 125 313 155 468 81z"/>
</g>
</svg>
