<?xml version="1.0" standalone="no"?>
<!DOCTYPE svg PUBLIC "-//W3C//DTD SVG 20010904//EN"
 "http://www.w3.org/TR/2001/REC-SVG-20010904/DTD/svg10.dtd">
<svg version="1.0" xmlns="http://www.w3.org/2000/svg"
 width="954.000000pt" height="930.000000pt" viewBox="0 0 954.000000 930.000000"
 preserveAspectRatio="xMidYMid meet">
<metadata>
Created by potrace 1.16, written by Peter Selinger 2001-2019
</metadata>
<g transform="translate(0.000000,930.000000) scale(0.100000,-0.100000)"
fill="#f97316" stroke="none">
<path d="M4500 8404 c-8 -3 -36 -14 -62 -25 -26 -11 -81 -24 -123 -29 -56 -7
-96 -21 -164 -55 -49 -24 -121 -53 -158 -64 -86 -23 -182 -71 -253 -126 -30
-24 -71 -51 -90 -60 -19 -10 -60 -37 -90 -60 -30 -24 -75 -53 -100 -65 -72
-35 -839 -805 -881 -883 -18 -33 -62 -93 -98 -132 -70 -76 -127 -180 -156
-287 -9 -33 -29 -73 -51 -99 -47 -57 -162 -286 -186 -372 -10 -38 -39 -109
-63 -158 -35 -68 -48 -108 -55 -165 -5 -42 -19 -96 -30 -122 -12 -26 -25 -80
-30 -120 -6 -40 -19 -94 -31 -120 -14 -32 -24 -80 -29 -148 -5 -71 -14 -114
-30 -150 -29 -60 -41 -293 -20 -373 18 -65 439 -490 538 -541 171 -90 171
-163 0 -250 -57 -29 -128 -72 -158 -95 -30 -24 -74 -52 -96 -64 -23 -11 -73
-49 -112 -85 -39 -36 -94 -77 -122 -91 -28 -14 -95 -68 -149 -119 -56 -54
-121 -106 -152 -121 -79 -40 -425 -385 -470 -468 -17 -33 -62 -93 -99 -133
-142 -153 -126 -451 35 -644 20 -24 48 -66 62 -93 13 -27 53 -80 88 -116 46
-50 79 -100 124 -189 91 -178 213 -270 386 -292 42 -5 99 -20 128 -32 77 -34
220 -33 297 1 48 22 76 26 215 31 137 6 167 10 209 30 35 16 79 25 150 30 68
5 116 15 148 29 26 12 80 25 120 31 40 5 94 18 120 30 26 11 80 25 120 30 56
7 100 21 179 60 80 39 121 52 180 60 58 7 99 21 182 61 91 44 118 53 180 57
137 8 125 17 467 -323 305 -303 305 -303 505 -403 110 -55 216 -103 235 -107
19 -4 62 -17 95 -29 168 -63 283 -94 360 -98 57 -3 95 -12 130 -28 47 -23 64
-24 300 -30 238 -5 253 -7 305 -30 82 -37 337 -38 420 -1 48 22 76 26 215 31
134 6 168 10 207 29 26 12 81 26 122 31 42 5 89 16 105 24 16 9 59 24 97 35
229 68 444 162 543 239 31 24 78 55 104 68 70 36 188 153 226 223 17 33 48 79
68 103 43 51 102 173 137 283 14 44 37 114 50 155 13 41 32 95 41 120 23 62
16 197 -14 262 -12 26 -26 81 -31 122 -5 42 -16 89 -24 105 -9 16 -24 59 -35
97 -11 38 -29 94 -40 124 -22 62 -41 120 -77 230 -13 41 -36 111 -50 155 -34
107 -96 235 -133 278 -59 66 -61 80 -61 389 -1 231 -4 290 -16 323 -9 22 -26
74 -39 115 -13 41 -31 92 -39 113 -9 21 -21 71 -26 112 -7 56 -21 97 -55 164
-24 49 -53 121 -64 158 -10 38 -37 105 -60 150 -22 45 -49 112 -59 150 -25 87
-139 315 -187 373 -20 24 -61 92 -90 150 -29 58 -70 126 -90 150 -20 24 -48
66 -62 93 -13 27 -53 80 -88 117 -35 37 -76 92 -91 121 -17 35 -70 98 -149
179 -75 77 -132 145 -148 176 -14 27 -42 70 -63 95 -69 82 -105 176 -114 292
-4 61 -14 115 -23 134 -9 17 -25 61 -36 99 -67 226 -124 360 -184 432 -20 24
-51 70 -68 102 -54 102 -214 247 -340 310 -57 29 -129 71 -159 95 -97 75 -309
174 -396 185 -42 5 -96 20 -122 32 -45 22 -846 41 -902 22z m895 -222 c28 -13
84 -27 125 -32 96 -12 297 -108 318 -153 19 -39 -1 -74 -63 -114 -237 -152
-258 -236 -99 -406 61 -66 61 -66 104 -56 142 32 230 145 230 296 0 82 14 130
41 138 55 18 141 -41 184 -125 13 -25 40 -66 60 -90 47 -56 89 -140 114 -227
11 -37 29 -93 39 -123 73 -209 75 -218 58 -245 -27 -41 -94 -23 -174 47 -43
37 -292 161 -356 177 -57 14 -157 63 -202 99 -49 39 -917 36 -1022 -4 -35 -13
-87 -31 -116 -39 -139 -39 -248 -84 -298 -122 -29 -22 -69 -49 -88 -58 -19
-10 -60 -37 -90 -60 -30 -24 -75 -53 -100 -65 -70 -34 -719 -685 -760 -761
-17 -32 -46 -77 -66 -100 -20 -24 -46 -64 -59 -89 -13 -25 -40 -66 -60 -90
-20 -24 -47 -65 -61 -92 -13 -26 -36 -62 -52 -80 -49 -59 -52 -65 -73 -138
-10 -39 -39 -110 -63 -158 -24 -48 -47 -103 -51 -122 -4 -19 -19 -69 -35 -110
-38 -105 -67 -193 -91 -274 -11 -38 -26 -81 -35 -97 -8 -16 -19 -63 -24 -105
-5 -41 -19 -96 -31 -122 -16 -35 -23 -76 -28 -162 -10 -169 -45 -202 -137
-129 -22 17 -61 42 -89 56 -71 36 -319 283 -341 339 -26 68 -16 302 15 369 16
36 25 79 31 151 5 68 14 116 29 150 12 27 26 82 31 122 6 40 19 94 31 120 11
26 24 80 29 120 6 56 19 96 55 170 26 53 56 128 66 165 23 80 126 291 167 339
49 59 52 65 73 138 29 105 72 184 144 260 35 37 75 92 90 121 36 73 632 674
709 715 28 15 76 46 106 70 30 23 71 50 90 59 19 10 60 37 90 60 69 54 139 89
227 114 37 10 111 40 164 65 72 34 116 49 173 56 42 5 87 15 99 22 66 35 97
37 512 35 405 -2 411 -2 460 -25z m410 -1046 c55 -26 131 -57 168 -67 88 -25
277 -119 347 -173 30 -24 101 -67 157 -95 125 -64 189 -120 233 -203 23 -43
72 -102 155 -188 79 -80 132 -144 149 -179 15 -29 56 -84 91 -121 35 -37 75
-90 88 -117 14 -27 42 -69 62 -93 20 -24 61 -92 90 -150 29 -58 70 -126 90
-150 48 -58 149 -260 174 -347 10 -38 37 -105 60 -150 22 -45 49 -112 60 -150
10 -37 40 -112 66 -165 37 -75 49 -113 55 -172 5 -41 16 -88 24 -104 8 -16 24
-60 35 -98 11 -38 29 -94 40 -124 30 -81 31 -593 2 -655 -12 -25 -91 -112
-212 -231 -211 -209 -315 -278 -506 -334 -99 -29 -221 -69 -275 -91 -26 -11
-80 -24 -120 -29 -40 -5 -95 -19 -122 -31 -34 -15 -82 -24 -150 -29 -72 -6
-115 -15 -151 -31 -45 -21 -70 -24 -240 -29 -174 -6 -194 -9 -240 -31 -78 -38
-931 -38 -1010 0 -41 19 -73 25 -180 31 -102 5 -141 11 -180 29 -27 12 -83 26
-123 31 -40 6 -94 19 -120 30 -26 12 -80 25 -120 30 -40 6 -94 19 -120 30 -26
12 -81 25 -122 31 -64 8 -83 15 -130 49 -30 22 -130 78 -223 125 -134 69 -181
98 -239 151 -48 44 -102 81 -168 114 -120 60 -151 86 -196 163 -20 34 -49 77
-65 95 -16 18 -40 54 -53 80 -14 27 -41 68 -62 93 -102 121 -135 268 -85 374
21 44 25 71 31 210 5 136 9 168 29 210 12 28 26 83 31 123 5 40 18 94 29 120
22 54 62 176 92 276 11 38 26 80 33 95 7 14 18 49 25 76 6 28 34 97 61 155 27
58 56 130 65 162 9 33 30 73 51 99 19 24 46 64 59 89 13 25 40 66 60 90 20 24
47 65 60 90 13 25 40 66 60 90 20 24 48 67 62 94 34 70 514 552 587 592 28 15
76 46 106 70 30 23 70 49 89 59 18 9 60 36 92 60 36 26 79 48 111 55 29 7 65
19 79 26 15 7 57 22 95 33 38 11 94 29 124 41 52 19 75 20 495 17 440 -2 440
-2 540 -51z m-3189 -3260 c22 -19 55 -62 73 -96 18 -34 45 -76 60 -93 68 -79
110 -182 89 -220 -14 -26 -150 -133 -208 -162 -19 -10 -60 -37 -90 -60 -30
-24 -74 -52 -96 -64 -23 -11 -73 -49 -112 -85 -39 -36 -95 -77 -124 -92 -81
-40 -535 -494 -590 -589 -22 -38 -77 -108 -123 -155 -45 -47 -96 -104 -114
-127 -51 -67 -74 -61 -151 34 -109 136 -134 202 -139 362 -4 171 3 195 84 281
35 37 76 92 90 121 39 76 219 258 298 300 35 18 101 71 157 124 53 51 119 104
147 118 28 14 82 55 121 91 39 36 90 75 114 87 24 12 68 41 98 64 30 24 97 64
148 89 52 26 112 60 134 76 54 39 85 38 134 -4z m5483 -432 c23 -29 42 -80
106 -284 13 -41 33 -100 44 -130 26 -72 47 -138 76 -230 13 -41 31 -92 39
-113 9 -21 21 -70 26 -110 5 -40 19 -94 31 -121 16 -38 20 -63 17 -111 -6
-104 -18 -106 -101 -18 -131 138 -204 164 -298 104 -129 -81 -159 -196 -77
-295 95 -115 204 -126 308 -31 31 29 100 75 111 75 17 0 9 -111 -12 -168 -11
-31 -29 -88 -40 -125 -23 -82 -68 -174 -107 -219 -16 -18 -43 -54 -60 -80 -66
-97 -339 -268 -509 -318 -99 -29 -221 -69 -275 -91 -26 -11 -80 -24 -120 -29
-40 -5 -95 -19 -123 -31 -42 -20 -74 -24 -210 -29 -140 -6 -166 -10 -210 -31
-76 -37 -335 -36 -410 0 -48 24 -61 25 -300 31 -235 5 -253 7 -300 29 -36 16
-78 25 -150 31 -61 4 -119 15 -150 27 -57 23 -177 64 -279 94 -243 71 -428
194 -698 466 -251 253 -257 259 -273 318 -9 33 -25 80 -35 105 -10 25 -25 70
-34 100 -22 78 -65 207 -88 264 -30 74 -46 233 -25 253 20 20 63 19 113 -2 22
-9 72 -20 112 -25 40 -6 94 -19 120 -30 26 -12 80 -25 120 -30 40 -6 94 -19
120 -31 37 -17 76 -23 177 -29 105 -5 140 -11 185 -31 87 -38 934 -38 1020 1
50 22 72 25 245 30 170 6 195 9 239 30 36 16 79 25 150 30 68 5 116 15 148 29
26 12 81 26 122 31 42 5 89 16 105 24 16 9 59 24 97 35 381 113 463 160 740
434 253 249 268 258 313 201z m-4943 -173 c94 -45 138 -74 194 -126 50 -45
104 -82 170 -115 240 -120 230 -163 -60 -255 -41 -13 -100 -33 -130 -44 -65
-23 -128 -44 -230 -77 -41 -13 -100 -33 -130 -43 -30 -11 -73 -21 -95 -21 -22
-1 -58 -8 -80 -16 -22 -9 -74 -26 -115 -39 -41 -13 -93 -31 -115 -40 -22 -10
-85 -21 -140 -25 -70 -6 -115 -15 -150 -31 -40 -18 -76 -24 -180 -29 -71 -4
-143 -12 -158 -19 -63 -25 -105 -4 -92 46 10 44 305 335 376 373 32 17 90 60
128 95 39 35 89 74 113 86 24 12 68 41 98 64 30 24 71 51 90 60 19 10 62 38
96 64 34 25 83 58 110 74 27 15 64 39 83 52 50 37 82 32 217 -34z m559 -655
c44 -19 83 -80 111 -176 13 -41 32 -99 43 -127 28 -71 37 -153 19 -174 -29
-36 -270 -139 -349 -149 -58 -7 -100 -21 -180 -60 -80 -38 -122 -52 -179 -60
-41 -5 -96 -18 -122 -30 -26 -11 -80 -24 -120 -30 -40 -5 -95 -19 -122 -31
-34 -15 -82 -24 -150 -29 -72 -6 -116 -15 -151 -31 -43 -20 -73 -24 -210 -29
-140 -6 -166 -10 -210 -31 -71 -34 -217 -35 -290 -1 -27 13 -84 27 -125 33
-165 20 -273 173 -197 277 12 17 41 58 65 91 56 79 66 84 207 92 93 5 131 12
170 30 40 18 76 24 180 29 105 6 140 12 180 30 35 16 75 25 130 28 77 4 216
41 347 94 26 10 82 23 123 28 41 5 88 16 104 24 16 9 59 24 97 35 38 11 94 29
124 40 64 23 126 43 230 77 41 13 100 33 130 43 66 24 99 26 145 7z"/>
<path d="M4299 7878 c-138 -107 -138 -229 0 -335 77 -60 149 -35 254 88 66 76
44 138 -86 240 -64 51 -108 53 -168 7z"/>
<path d="M3059 6931 c-92 -58 -140 -145 -120 -218 50 -183 261 -225 380 -75
99 125 -5 322 -169 322 -34 0 -58 -8 -91 -29z"/>
<path d="M2339 5552 c-161 -102 -162 -252 -5 -359 172 -117 398 124 269 286
-80 100 -178 127 -264 73z"/>
<path d="M3104 4401 c-90 -66 -154 -150 -154 -201 0 -78 152 -230 230 -230 63
0 151 79 178 159 59 172 -124 368 -254 272z"/>
<path d="M7079 3631 c-92 -58 -140 -145 -120 -218 49 -182 258 -224 379 -77
101 122 -3 324 -168 324 -34 0 -58 -8 -91 -29z"/>
<path d="M4137 3510 c-141 -89 -140 -184 2 -313 87 -77 161 -53 263 87 71 98
-35 256 -172 256 -34 0 -58 -8 -93 -30z"/>
<path d="M4453 2380 c-87 -52 -35 -160 77 -160 55 0 107 29 116 65 16 65 -34
115 -116 115 -27 0 -58 -8 -77 -20z"/>
<path d="M5324 1762 c-148 -108 -142 -254 15 -353 137 -87 359 84 274 211 -96
145 -209 200 -289 142z"/>
<path d="M6944 1701 c-90 -66 -154 -150 -154 -201 0 -78 152 -230 230 -230 63
0 152 79 179 159 57 173 -125 368 -255 272z"/>
</g>
</svg>
