<?xml version="1.0" standalone="no"?>
<!DOCTYPE svg PUBLIC "-//W3C//DTD SVG 20010904//EN"
 "http://www.w3.org/TR/2001/REC-SVG-20010904/DTD/svg10.dtd">
<svg version="1.0" xmlns="http://www.w3.org/2000/svg"
 width="1302.000000pt" height="780.000000pt" viewBox="0 0 1302.000000 780.000000"
 preserveAspectRatio="xMidYMid meet">
<metadata>
Created by potrace 1.16, written by Peter Selinger 2001-2019
</metadata>
<g transform="translate(0.000000,780.000000) scale(0.100000,-0.100000)"
fill="#f97316" stroke="none">
<path d="M7635 6867 c-78 -28 -142 -58 -182 -87 -59 -41 -66 -43 -145 -47 -79
-5 -213 -40 -348 -93 -25 -10 -70 -25 -100 -34 -195 -55 -333 -115 -432 -188
-54 -39 -61 -41 -140 -45 -79 -5 -213 -40 -348 -93 -25 -10 -70 -25 -100 -33
-30 -9 -82 -25 -115 -37 -33 -12 -79 -29 -102 -37 -23 -8 -74 -43 -113 -78
-84 -75 -111 -85 -234 -85 -89 0 -195 -27 -356 -90 -25 -10 -70 -25 -100 -34
-141 -40 -240 -80 -300 -121 -56 -39 -76 -46 -140 -54 -41 -6 -96 -19 -122
-31 -26 -11 -80 -25 -122 -30 -57 -7 -97 -20 -165 -55 -49 -24 -120 -54 -158
-65 -166 -49 -252 -83 -313 -125 -56 -39 -75 -46 -143 -55 -42 -5 -90 -16
-106 -24 -16 -9 -59 -24 -97 -35 -38 -11 -94 -29 -124 -40 -61 -22 -119 -41
-230 -77 -212 -68 -259 -87 -323 -131 -64 -44 -71 -47 -150 -51 -78 -4 -213
-40 -347 -92 -25 -10 -70 -25 -100 -34 -141 -40 -240 -80 -300 -121 -56 -39
-75 -46 -143 -55 -42 -5 -90 -16 -106 -24 -16 -9 -60 -24 -98 -34 -188 -53
-383 -211 -383 -312 0 -76 120 -195 274 -272 181 -90 180 -88 187 -363 5 -203
7 -224 28 -269 13 -28 27 -82 32 -120 4 -39 18 -93 30 -121 15 -33 24 -81 29
-145 9 -120 15 -133 91 -214 113 -121 175 -138 309 -88 62 24 206 30 272 12
69 -20 130 -88 203 -230 97 -187 141 -221 254 -194 169 40 330 14 381 -63 18
-26 59 -75 90 -108 32 -33 69 -84 84 -112 57 -114 117 -156 208 -146 42 4 70
0 117 -16 37 -13 86 -21 124 -21 132 0 163 -24 252 -200 80 -155 135 -199 223
-179 60 14 114 10 162 -12 24 -11 78 -24 118 -29 40 -5 79 -13 85 -16 31 -17
62 -54 97 -115 104 -177 273 -279 481 -289 129 -7 129 -7 196 -53 127 -87 197
-54 304 143 64 120 83 140 188 195 47 25 112 64 144 87 74 55 213 66 336 29
121 -37 126 -35 263 95 74 72 94 85 145 99 76 20 203 84 276 137 68 50 251 66
383 35 100 -24 188 32 291 184 24 36 42 50 79 64 27 9 99 40 159 68 126 59
295 76 431 44 93 -22 104 -17 240 114 114 110 126 119 190 138 39 12 96 40
137 68 69 48 69 48 286 53 255 6 244 2 377 131 92 89 129 109 201 109 45 0 79
14 157 68 98 67 400 73 501 10 105 -66 151 -44 147 67 -4 107 55 178 177 215
36 11 94 40 134 67 69 48 69 48 286 53 211 5 217 6 261 31 146 87 307 359 320
545 5 71 14 114 30 150 20 41 24 72 29 199 8 196 13 203 143 219 152 18 330
167 330 276 0 107 -179 279 -292 280 -75 0 -108 19 -211 116 -107 101 -411
268 -560 309 -45 12 -72 29 -130 81 -59 53 -107 83 -234 146 -88 44 -183 97
-211 119 -69 53 -113 69 -186 69 -105 0 -129 12 -239 116 -130 123 -441 287
-575 304 -94 12 -99 15 -211 121 -122 117 -438 282 -569 299 -90 12 -97 15
-182 92 -219 199 -593 268 -887 165z m648 -220 c161 -80 186 -121 135 -227
-18 -38 -22 -71 -28 -205 -5 -136 -9 -168 -29 -210 -12 -27 -26 -83 -31 -123
-6 -40 -19 -94 -31 -120 -17 -37 -23 -76 -29 -177 -5 -103 -11 -140 -29 -180
-12 -27 -26 -82 -30 -120 -19 -161 -110 -235 -289 -235 -140 0 -183 36 -228
190 -12 41 -30 93 -40 115 -13 30 -19 80 -24 200 -6 139 -10 166 -31 210 -21
45 -24 68 -29 240 -6 172 -9 195 -30 240 -21 42 -25 69 -28 174 -6 183 5 208
108 239 19 6 60 20 90 32 128 47 438 25 573 -43z m-1005 -147 c22 -21 28 -46
36 -150 2 -38 14 -85 27 -115 21 -45 24 -70 29 -240 6 -172 9 -195 30 -240 21
-44 25 -70 30 -210 5 -121 10 -168 23 -191 9 -17 25 -62 36 -100 10 -38 33
-98 50 -134 54 -113 34 -165 -72 -191 -28 -6 -125 -48 -215 -92 -386 -189
-568 -96 -583 297 -5 141 -9 167 -30 211 -21 45 -24 68 -29 240 -6 173 -9 194
-31 240 -21 44 -24 67 -27 199 -6 243 12 290 127 322 31 8 76 24 101 34 25 10
70 25 100 34 79 22 208 65 260 87 60 24 111 24 138 -1z m1685 -192 c262 -128
297 -175 236 -308 -14 -30 -24 -78 -29 -146 -5 -70 -14 -115 -30 -150 -18 -39
-24 -75 -30 -179 -5 -102 -11 -141 -29 -180 -12 -27 -26 -83 -31 -123 -6 -40
-19 -94 -31 -120 -14 -31 -24 -81 -29 -147 -7 -95 -19 -138 -75 -272 -31 -73
-244 -77 -342 -5 -32 23 -111 69 -175 102 -216 113 -232 156 -105 288 101 105
105 112 117 207 5 42 19 97 31 123 17 37 23 76 29 177 5 102 11 141 29 180 12
28 26 83 31 123 6 40 19 94 31 120 18 39 23 73 29 197 11 260 50 272 373 113z
m-2645 -172 c25 -24 27 -34 33 -148 5 -99 11 -133 30 -173 21 -45 24 -69 29
-240 6 -172 9 -195 30 -240 21 -44 25 -70 30 -210 7 -160 7 -160 73 -294 100
-200 90 -241 -66 -261 -85 -11 -187 -57 -290 -132 -58 -43 -58 -43 -207 -43
-218 0 -258 42 -271 288 -5 108 -11 141 -30 182 -20 43 -24 72 -29 210 -6 140
-10 166 -31 210 -23 49 -24 58 -27 331 -4 333 -2 341 74 369 27 10 76 28 109
40 33 13 76 26 95 30 19 4 47 13 61 21 15 7 57 22 95 33 38 11 94 30 124 41
72 27 133 22 168 -14z m3428 -250 c245 -122 273 -152 227 -254 -11 -27 -18
-81 -23 -197 -5 -137 -9 -167 -29 -210 -16 -35 -25 -79 -31 -151 -5 -70 -14
-115 -30 -150 -18 -39 -24 -75 -30 -179 -5 -103 -11 -140 -29 -180 -12 -27
-26 -83 -31 -124 -9 -83 -50 -173 -94 -206 -58 -42 -252 -29 -323 22 -32 24
-106 68 -165 99 -169 87 -192 133 -118 229 27 36 47 76 61 125 11 40 27 86 36
103 9 19 19 73 23 132 5 69 14 117 29 151 12 27 26 82 31 122 6 40 19 94 31
120 17 37 23 76 29 177 5 104 11 140 29 180 15 32 26 82 31 140 16 194 72 202
376 51z m-4389 -109 c28 -27 28 -27 34 -240 5 -196 7 -216 29 -262 21 -44 25
-70 30 -210 6 -138 10 -167 30 -210 19 -41 25 -74 30 -181 6 -130 6 -130 63
-238 84 -158 74 -182 -93 -230 -146 -42 -240 -80 -304 -124 -68 -47 -68 -47
-186 -47 -165 0 -221 52 -240 226 -5 41 -19 97 -31 124 -20 43 -24 74 -29 210
-6 139 -10 166 -31 210 -21 45 -24 68 -29 240 -6 172 -9 195 -30 240 -62 130
-37 310 46 340 27 10 76 28 109 40 33 13 76 26 95 30 19 4 47 13 61 21 15 7
57 22 95 33 38 11 94 30 124 41 83 31 190 25 227 -13z m5091 -255 c31 -23 109
-69 173 -101 197 -101 214 -135 145 -301 -20 -47 -30 -93 -35 -166 -6 -69 -15
-115 -31 -150 -18 -39 -24 -75 -30 -179 -5 -105 -11 -140 -30 -180 -18 -41
-24 -74 -29 -180 -8 -155 -12 -164 -113 -262 -63 -60 -83 -74 -134 -88 -32 -9
-81 -26 -109 -37 -104 -44 -293 -37 -350 14 -96 84 -116 200 -48 282 50 60
103 183 113 262 5 42 19 96 31 122 17 37 23 76 29 177 5 104 11 140 29 180 16
35 25 80 31 151 5 70 14 115 30 150 18 38 24 75 29 171 9 167 26 186 164 180
73 -4 81 -6 135 -45z m-6097 -64 c6 -10 15 -45 20 -77 5 -32 19 -80 31 -107
20 -43 23 -72 28 -239 6 -172 9 -195 30 -240 21 -44 25 -71 30 -210 6 -134 10
-168 29 -207 12 -26 26 -81 31 -122 6 -47 20 -97 38 -133 90 -180 71 -220
-128 -277 -143 -41 -240 -80 -301 -122 -148 -102 -326 -65 -365 75 -8 31 -25
79 -36 106 -13 31 -24 87 -28 150 -6 71 -15 114 -31 150 -22 46 -24 67 -29
270 -6 206 -8 223 -31 270 -22 47 -24 63 -27 241 -5 260 7 283 175 335 38 11
115 43 173 70 77 36 125 52 180 59 41 5 95 16 120 23 52 16 77 12 91 -15z
m-973 -338 c12 -12 23 -22 23 -23 1 -1 5 -72 9 -157 6 -134 10 -162 31 -205
22 -47 24 -65 29 -270 6 -202 8 -224 30 -269 16 -36 25 -78 30 -151 4 -59 14
-113 23 -132 9 -17 25 -64 37 -104 12 -43 32 -88 50 -110 86 -107 68 -127
-182 -204 -116 -36 -208 -87 -286 -159 -83 -76 -123 -90 -230 -84 -140 9 -165
46 -173 261 -5 142 -9 168 -30 212 -21 45 -24 68 -29 240 -6 172 -9 195 -30
240 -21 44 -25 71 -30 210 -6 138 -10 167 -30 210 -77 166 -26 282 147 336 38
12 88 29 113 39 25 10 70 25 100 34 79 22 208 65 260 87 60 25 111 24 138 -1z
m7928 -74 c263 -130 264 -131 264 -357 0 -212 -8 -227 -141 -243 -25 -3 -92
-28 -150 -56 -80 -38 -122 -52 -179 -60 -42 -5 -96 -18 -120 -29 -126 -57
-197 15 -138 139 16 35 22 74 28 175 5 104 11 140 29 180 16 35 25 80 31 151
8 111 15 130 61 168 57 48 98 40 315 -68z m-3261 -207 c28 -8 66 -37 135 -103
53 -50 118 -107 145 -126 88 -62 41 -116 -140 -161 -63 -15 -183 -76 -258
-131 -89 -65 -225 -65 -314 -1 -32 24 -111 70 -175 103 -253 131 -244 233 27
308 39 11 100 34 135 52 137 69 320 94 445 59z m-5710 -65 c19 -9 37 -27 43
-42 5 -15 22 -58 37 -97 25 -63 29 -87 35 -230 6 -139 10 -167 31 -210 21 -45
24 -68 29 -240 6 -165 9 -196 28 -235 80 -172 16 -239 -156 -161 -48 22 -112
47 -143 55 -44 12 -72 30 -130 82 -97 87 -205 141 -305 154 -140 18 -175 65
-139 183 14 46 13 52 -10 120 -22 63 -25 87 -25 219 0 185 8 208 76 233 27 10
76 28 109 40 33 13 76 26 95 30 19 4 47 13 61 21 15 7 57 22 95 33 38 11 94
29 124 40 67 25 102 26 145 5z m9546 -64 c47 -25 8 -110 -51 -110 -51 0 -66
55 -25 95 26 27 46 31 76 15z m-4920 -170 c22 -6 67 -38 110 -76 41 -36 94
-76 119 -89 25 -13 65 -39 90 -59 25 -19 65 -50 90 -69 82 -60 32 -114 -145
-158 -63 -15 -183 -76 -258 -131 -116 -85 -299 -69 -417 37 -48 43 -110 84
-183 123 -128 66 -153 93 -127 140 24 41 148 100 236 111 87 11 122 28 196 98
81 78 180 103 289 73z m-5545 -116 c8 -20 14 -68 14 -117 0 -46 7 -106 15
-133 39 -130 -12 -150 -125 -49 -34 29 -98 74 -143 98 -171 93 -146 150 93
217 110 31 127 29 146 -16z m7407 -5 c26 -7 68 -39 138 -104 54 -52 123 -107
152 -121 165 -83 147 -152 -56 -214 -92 -27 -216 -88 -289 -141 -110 -81 -242
-68 -358 36 -52 47 -111 85 -213 137 -226 118 -226 177 4 242 133 38 249 85
297 120 76 55 218 75 325 45z m2614 -236 c21 -51 13 -153 -16 -218 -16 -35
-25 -81 -31 -155 -9 -118 -91 -308 -153 -354 -64 -48 -372 -30 -453 26 -38 26
-95 57 -126 68 -67 25 -62 19 -99 123 -46 129 -45 132 68 248 119 122 141 137
234 149 41 5 95 18 121 30 26 11 80 24 120 30 50 6 99 21 158 49 114 54 155
55 177 4z m-5434 -4 c26 -7 68 -39 136 -103 66 -62 124 -107 177 -135 113 -61
141 -96 102 -129 -18 -14 -185 -78 -228 -87 -47 -10 -172 -75 -242 -126 -111
-82 -242 -68 -359 36 -43 39 -108 84 -161 111 -190 99 -168 200 58 262 85 24
180 71 250 124 76 57 171 74 267 47z m1798 -119 c22 -6 67 -38 110 -76 52 -47
107 -83 184 -121 137 -68 175 -96 175 -128 0 -46 -118 -110 -228 -124 -85 -11
-118 -28 -197 -101 -124 -115 -263 -113 -396 6 -49 43 -108 83 -181 120 -199
102 -214 203 -38 254 153 45 260 88 308 124 76 55 170 72 263 46z m1814 -74
c104 -68 93 -193 -22 -258 -30 -17 -85 -59 -123 -94 -87 -79 -104 -84 -316
-84 -226 0 -254 10 -254 96 0 53 56 107 130 124 69 16 296 129 366 182 81 61
159 73 219 34z m-4572 -167 c26 -7 68 -39 138 -104 54 -52 123 -107 152 -121
165 -83 147 -152 -56 -214 -93 -27 -217 -88 -290 -142 -58 -42 -58 -43 -160
-46 -149 -6 -170 2 -285 111 -54 51 -124 108 -157 127 -139 83 -117 155 62
211 38 11 142 56 233 99 91 43 174 81 185 83 39 9 140 7 178 -4z m1860 -120
c26 -7 68 -39 135 -103 54 -50 123 -106 153 -123 115 -65 127 -137 26 -164
-59 -16 -302 -141 -370 -191 -58 -42 -58 -43 -160 -46 -150 -6 -170 2 -286
112 -74 70 -122 106 -190 142 -158 83 -158 158 0 205 152 45 259 87 307 123
75 55 268 78 385 45z m3454 -57 c53 -128 1 -486 -81 -547 -32 -24 -360 -36
-433 -16 -151 43 -343 287 -307 390 12 34 100 86 189 112 39 11 93 30 120 42
40 17 81 22 210 28 94 4 178 13 205 21 58 19 79 13 97 -30z m-8427 -31 c85
-44 93 -61 101 -204 5 -99 11 -132 30 -172 35 -75 35 -212 -1 -250 -82 -88
-225 59 -250 255 -5 41 -19 97 -31 124 -85 192 -3 327 151 247z m6754 -52 c82
-56 82 -100 -2 -140 -25 -13 -90 -64 -143 -115 -117 -112 -111 -111 -377 -117
-228 -5 -232 -3 -248 99 -12 83 16 109 131 124 61 8 97 21 207 76 229 115 343
134 432 73z m-4601 -100 c26 -7 68 -39 138 -104 54 -52 121 -106 147 -119 82
-42 117 -96 85 -134 -17 -20 -58 -37 -209 -86 -98 -32 -107 -38 -211 -137
-176 -168 -350 -148 -573 65 -52 50 -121 106 -153 124 -130 73 -77 159 137
221 153 44 265 88 314 125 76 55 218 75 325 45z m-1654 -124 c54 -25 105 -45
113 -45 28 0 61 -35 61 -64 0 -61 -56 -90 -198 -101 -95 -8 -91 -11 -135 95
-68 165 -22 198 159 115z m3452 5 c22 -6 67 -38 110 -76 49 -44 108 -83 181
-121 176 -90 185 -153 27 -197 -30 -8 -81 -24 -114 -36 -33 -12 -79 -29 -103
-37 -24 -8 -72 -42 -112 -78 -130 -120 -266 -120 -401 1 -49 43 -108 83 -181
120 -197 101 -214 212 -38 254 30 7 114 42 185 78 206 103 321 127 446 92z
m3455 -16 c65 -48 69 -60 72 -246 7 -312 -55 -373 -373 -366 -163 3 -163 3
-231 50 -38 26 -95 57 -127 68 -76 28 -82 43 -103 232 -9 79 41 134 152 167
41 12 94 38 128 62 79 57 88 58 283 56 156 -2 174 -4 199 -23z m-1642 -123
c58 -54 24 -134 -81 -193 -30 -17 -85 -59 -123 -94 -85 -78 -106 -84 -288 -84
-343 0 -329 174 24 279 41 12 94 38 128 62 94 67 283 84 340 30z m-4913 -187
c23 -24 24 -35 30 -177 4 -103 11 -166 22 -195 31 -82 -6 -112 -142 -112 -115
0 -142 11 -231 97 -173 165 -170 303 6 303 45 0 91 20 161 70 69 49 116 54
154 14z m403 -85 c189 -96 222 -128 193 -186 -53 -102 -323 -126 -356 -31 -25
70 -10 250 22 270 17 11 8 14 141 -53z m1739 50 c26 -7 68 -39 137 -104 56
-53 125 -107 160 -126 78 -41 99 -69 77 -102 -20 -32 -136 -91 -222 -115 -83
-23 -187 -75 -268 -134 -116 -85 -299 -69 -418 38 -41 36 -95 77 -122 90 -189
96 -207 235 -37 284 153 45 260 88 308 124 75 55 268 78 385 45z m3434 -22
c51 -50 42 -416 -12 -523 -52 -102 -70 -112 -164 -96 -39 7 -120 12 -179 12
-136 0 -154 5 -255 79 -158 115 -240 279 -173 346 33 33 230 130 313 154 37
11 93 30 123 41 91 34 309 26 347 -13z m-1637 -105 c78 -39 77 -108 -3 -148
-28 -15 -76 -44 -105 -65 -37 -26 -69 -40 -100 -44 -26 -3 -61 -8 -79 -11 -18
-3 -67 -28 -109 -57 -125 -84 -321 -82 -374 5 -46 76 -15 133 88 161 114 32
219 70 322 117 144 66 280 82 360 42z m636 -248 c76 -57 101 -218 55 -349 -12
-33 -29 -85 -37 -115 -45 -159 -49 -161 -286 -152 -197 8 -197 8 -265 55 -37
25 -94 56 -126 67 -75 28 -82 43 -103 231 -9 77 45 136 153 168 40 12 94 38
127 62 79 57 88 58 283 56 156 -2 174 -4 199 -23z m-3784 -26 c7 -14 15 -81
19 -168 5 -119 10 -153 27 -190 81 -170 -40 -214 -277 -100 -150 73 -193 111
-229 205 -34 89 -15 112 106 129 51 7 180 70 236 115 48 39 99 42 118 9z m410
-66 c29 -22 73 -50 97 -62 51 -26 151 -116 151 -137 0 -27 -48 -62 -106 -78
-33 -9 -80 -25 -106 -36 -153 -63 -234 15 -226 217 5 154 71 187 190 96z
m1712 -16 c110 -46 86 -135 -54 -206 -31 -16 -89 -58 -128 -94 -100 -91 -245
-116 -382 -65 -30 11 -86 28 -125 36 -152 33 -116 118 71 164 27 7 88 32 136
55 48 24 117 53 155 63 37 11 93 29 123 40 64 24 157 27 204 7z m683 -259 c50
-49 43 -414 -10 -519 -59 -121 -109 -149 -195 -112 -24 11 -82 19 -169 23
-132 7 -132 7 -200 54 -37 25 -94 56 -125 67 -67 25 -62 19 -99 123 -50 140
-36 168 124 249 55 27 124 68 153 90 73 55 85 57 301 55 193 -2 193 -2 220
-30z m-1654 -116 c76 -48 171 -158 159 -185 -25 -57 -256 -102 -303 -60 -150
136 -24 350 144 245z m-399 -162 c96 -234 42 -367 -122 -300 -26 11 -74 27
-106 36 -103 29 -210 158 -192 231 8 32 78 65 231 109 140 41 141 41 189 -76z
m1011 -65 c49 -23 55 -52 55 -276 0 -246 -3 -257 -87 -287 -32 -12 -89 -43
-127 -69 -69 -47 -69 -47 -195 -47 -195 0 -255 37 -340 208 -85 170 -61 226
103 247 100 13 208 67 305 154 96 86 199 111 286 70z"/>
</g>
</svg>
