<?xml version="1.0" standalone="no"?>
<!DOCTYPE svg PUBLIC "-//W3C//DTD SVG 20010904//EN"
 "http://www.w3.org/TR/2001/REC-SVG-20010904/DTD/svg10.dtd">
<svg version="1.0" xmlns="http://www.w3.org/2000/svg"
 width="1152.000000pt" height="714.000000pt" viewBox="0 0 1152.000000 714.000000"
 preserveAspectRatio="xMidYMid meet">
<metadata>
Created by potrace 1.16, written by Peter Selinger 2001-2019
</metadata>
<g transform="translate(0.000000,714.000000) scale(0.100000,-0.100000)"
fill="#f97316" stroke="none">
<path d="M9090 6153 c-58 -20 -126 -44 -152 -55 -26 -10 -82 -23 -123 -28 -41
-5 -88 -16 -104 -24 -16 -9 -59 -24 -97 -35 -38 -11 -94 -29 -124 -40 -33 -12
-81 -20 -119 -21 -63 0 -201 -38 -336 -93 -30 -12 -82 -22 -130 -24 -77 -5
-216 -42 -347 -95 -26 -10 -80 -23 -120 -28 -40 -5 -94 -18 -120 -30 -26 -11
-80 -24 -120 -30 -40 -5 -94 -18 -120 -30 -26 -11 -81 -25 -122 -30 -42 -5
-89 -16 -105 -24 -16 -9 -59 -24 -97 -35 -38 -11 -94 -29 -124 -40 -30 -11
-73 -21 -95 -21 -22 -1 -58 -8 -80 -16 -22 -9 -74 -27 -115 -40 -41 -13 -100
-33 -130 -43 -30 -11 -73 -21 -95 -21 -22 -1 -58 -8 -80 -16 -22 -9 -74 -26
-115 -39 -41 -13 -92 -31 -113 -39 -21 -9 -70 -21 -110 -26 -40 -5 -93 -18
-119 -30 -26 -11 -80 -24 -120 -30 -40 -5 -94 -18 -120 -30 -26 -11 -81 -25
-122 -30 -42 -5 -89 -16 -105 -24 -16 -9 -59 -24 -97 -35 -38 -11 -94 -29
-124 -40 -30 -11 -73 -21 -95 -21 -22 -1 -58 -8 -80 -16 -22 -9 -74 -27 -115
-40 -41 -13 -100 -33 -130 -43 -33 -12 -81 -20 -119 -21 -62 0 -196 -37 -333
-92 -26 -10 -82 -23 -123 -28 -41 -5 -88 -16 -104 -24 -16 -9 -59 -24 -97 -35
-38 -11 -94 -29 -124 -40 -30 -11 -73 -21 -95 -21 -22 -1 -58 -8 -80 -16 -22
-9 -74 -27 -115 -40 -41 -13 -100 -33 -130 -43 -33 -12 -81 -20 -119 -21 -62
0 -196 -37 -333 -92 -26 -10 -80 -23 -120 -28 -40 -5 -94 -18 -120 -30 -26
-11 -81 -25 -122 -30 -42 -5 -88 -16 -104 -24 -15 -8 -54 -22 -87 -31 -84 -24
-109 -39 -180 -105 -35 -32 -86 -71 -115 -85 -135 -68 -168 -144 -105 -238 65
-96 44 -173 -64 -234 -118 -67 -163 -120 -192 -224 -11 -38 -40 -111 -64 -160
-34 -68 -48 -108 -55 -164 -5 -42 -18 -97 -29 -123 -22 -54 -62 -176 -91 -275
-11 -38 -41 -109 -65 -158 -34 -67 -48 -108 -55 -164 -5 -41 -17 -91 -26 -112
-71 -164 -70 -245 4 -324 142 -154 299 -161 634 -27 26 10 80 23 120 28 40 5
96 19 123 32 70 32 229 34 271 2 56 -41 66 -65 74 -176 4 -62 14 -116 23 -135
9 -17 25 -62 36 -101 45 -164 124 -272 249 -343 31 -17 95 -69 142 -114 134
-129 256 -159 397 -97 29 12 85 27 125 32 40 5 94 18 120 30 26 11 81 25 122
30 42 5 89 16 105 24 16 9 59 24 97 35 38 11 94 29 124 40 30 11 73 21 95 21
22 1 58 8 80 16 22 9 74 26 115 39 41 13 92 31 113 39 21 9 70 21 110 26 40 5
93 18 119 30 26 11 81 25 122 30 42 5 89 16 105 24 16 9 59 24 97 35 38 10 86
26 107 35 21 9 70 21 110 26 40 5 93 18 119 30 26 11 81 25 122 30 42 5 89 16
105 24 16 9 59 24 97 35 38 11 94 29 124 40 30 11 73 21 95 21 22 1 58 8 80
16 22 9 74 27 115 40 41 13 100 33 130 43 30 11 73 21 95 21 22 1 58 8 80 16
22 9 74 27 115 40 41 13 100 33 130 43 30 11 73 21 95 21 22 1 58 8 80 16 22
9 74 27 115 40 41 13 100 33 130 43 30 11 73 21 95 21 22 1 58 8 80 16 22 9
74 26 115 39 41 13 92 31 113 39 21 9 70 21 110 26 40 5 93 18 119 30 26 11
80 24 120 30 40 5 94 18 120 30 26 11 81 25 122 30 42 5 89 16 105 24 16 9 59
24 97 35 38 11 94 29 124 40 71 25 136 47 230 76 41 13 92 31 113 39 21 9 70
21 110 26 40 5 93 18 119 30 26 11 80 24 120 30 40 5 94 18 120 30 26 11 81
25 122 30 42 5 89 16 105 24 16 9 59 24 97 35 38 11 94 29 124 40 30 11 73 21
95 21 22 1 58 8 80 16 22 9 74 27 115 40 41 13 100 33 130 43 30 11 73 21 95
21 22 1 58 8 80 16 22 9 74 27 115 40 41 13 111 36 155 50 185 60 332 154 337
216 5 82 -32 149 -148 269 -82 84 -94 102 -109 155 -9 32 -25 80 -36 106 -11
26 -24 82 -29 123 -5 41 -16 88 -24 104 -9 16 -24 59 -35 97 -11 38 -29 94
-40 124 -11 30 -21 73 -21 95 -1 22 -8 58 -16 80 -9 22 -27 74 -40 115 -13 41
-33 100 -43 130 -11 30 -21 73 -21 95 -1 22 -8 58 -16 80 -9 22 -27 74 -40
115 -13 41 -33 100 -43 130 -11 30 -21 73 -21 95 -1 22 -8 58 -16 80 -9 22
-27 74 -40 115 -13 41 -33 100 -43 130 -11 30 -21 73 -21 95 -1 22 -8 58 -16
80 -9 22 -27 76 -40 119 -13 44 -37 95 -52 114 -50 63 -55 72 -73 138 -57 205
-288 275 -579 177z m245 -187 c29 -21 -3 -52 -73 -72 -30 -9 -73 -24 -95 -34
-23 -10 -76 -22 -117 -26 -41 -4 -97 -17 -125 -29 -27 -12 -79 -25 -115 -29
-36 -4 -93 -18 -127 -32 -60 -23 -129 -30 -167 -15 -36 14 71 81 130 81 6 0
36 11 65 24 30 13 83 26 119 30 59 6 100 20 285 92 71 27 189 33 220 10z m200
-230 c43 -18 91 -93 104 -161 5 -27 14 -72 20 -100 10 -53 51 -179 82 -257 11
-26 24 -82 29 -123 5 -41 16 -88 24 -104 9 -16 24 -59 35 -97 11 -38 29 -94
40 -124 11 -30 21 -73 21 -95 1 -22 8 -58 16 -80 9 -22 27 -74 40 -115 13 -41
33 -100 43 -130 11 -30 21 -73 21 -95 1 -22 8 -58 16 -80 9 -22 26 -74 39
-115 13 -41 31 -92 39 -113 9 -21 21 -70 26 -110 5 -40 18 -93 30 -119 50
-114 34 -194 -46 -223 -27 -9 -70 -26 -96 -36 -26 -11 -82 -24 -123 -29 -41
-5 -88 -16 -104 -24 -16 -9 -59 -24 -97 -35 -38 -11 -94 -29 -124 -40 -30 -11
-73 -21 -95 -21 -22 -1 -58 -8 -80 -16 -22 -9 -74 -26 -115 -39 -41 -13 -92
-31 -113 -39 -21 -9 -70 -21 -110 -26 -40 -5 -93 -18 -119 -30 -26 -11 -81
-25 -122 -30 -42 -5 -89 -16 -105 -24 -16 -9 -59 -24 -97 -35 -38 -10 -86 -26
-107 -35 -21 -9 -70 -21 -110 -26 -40 -5 -93 -18 -119 -30 -26 -11 -81 -25
-122 -30 -42 -5 -89 -16 -105 -24 -16 -9 -59 -24 -97 -35 -38 -11 -94 -29
-124 -40 -30 -11 -73 -21 -95 -21 -22 -1 -58 -8 -80 -16 -22 -9 -74 -27 -115
-40 -41 -13 -100 -33 -130 -43 -30 -11 -73 -21 -95 -21 -22 -1 -58 -8 -80 -16
-22 -9 -74 -26 -115 -39 -41 -13 -92 -31 -113 -39 -21 -9 -70 -21 -110 -26
-40 -5 -93 -18 -119 -30 -26 -11 -80 -24 -120 -30 -40 -5 -94 -18 -120 -30
-26 -11 -81 -25 -122 -30 -42 -5 -89 -16 -105 -24 -16 -9 -59 -24 -97 -35 -38
-11 -94 -29 -124 -40 -30 -11 -73 -21 -95 -21 -22 -1 -58 -8 -80 -16 -22 -9
-74 -27 -115 -40 -41 -13 -100 -33 -130 -43 -30 -11 -73 -21 -95 -21 -22 -1
-58 -8 -80 -16 -22 -9 -74 -27 -115 -40 -41 -13 -100 -33 -130 -43 -30 -11
-73 -21 -95 -21 -22 -1 -58 -8 -80 -16 -22 -9 -74 -27 -115 -40 -41 -13 -100
-33 -130 -43 -30 -11 -73 -21 -95 -21 -22 -1 -58 -8 -80 -16 -22 -9 -74 -26
-115 -39 -41 -13 -92 -31 -113 -39 -21 -9 -70 -21 -110 -26 -40 -5 -93 -18
-119 -30 -26 -11 -80 -24 -120 -30 -40 -5 -94 -18 -120 -30 -26 -11 -81 -25
-122 -30 -42 -5 -89 -16 -105 -24 -16 -9 -59 -24 -97 -35 -38 -11 -94 -29
-124 -40 -30 -11 -73 -21 -95 -21 -22 -1 -58 -8 -80 -16 -22 -9 -74 -27 -115
-40 -41 -13 -102 -33 -135 -45 -33 -11 -79 -28 -102 -36 -24 -8 -72 -41 -108
-74 -98 -89 -138 -90 -217 -9 -35 37 -51 64 -63 107 -9 32 -26 81 -37 108 -13
32 -23 87 -28 150 -7 93 -11 107 -61 208 -53 109 -53 109 -60 240 -5 103 -11
142 -28 179 -12 26 -26 81 -31 122 -5 42 -16 89 -24 105 -9 16 -24 59 -35 97
-10 38 -26 86 -35 107 -9 21 -21 70 -26 110 -5 40 -18 93 -30 119 -11 26 -25
81 -30 122 -5 42 -16 89 -24 105 -9 16 -24 61 -35 101 -21 74 -25 80 -98 162
-98 108 -39 205 132 219 57 4 107 15 137 28 26 12 81 26 122 31 42 5 89 16
105 24 16 9 59 24 97 35 38 10 86 26 107 35 21 9 70 21 110 26 40 5 93 18 119
30 26 11 80 24 120 30 40 5 94 18 120 30 26 11 81 25 122 30 42 5 89 16 105
24 16 9 59 24 97 35 38 10 86 26 107 35 21 9 70 21 110 26 40 5 93 18 119 30
26 11 81 25 122 30 42 5 89 16 105 24 16 9 59 24 97 35 38 11 94 29 124 40 30
11 73 21 95 21 22 1 58 8 80 16 22 9 74 26 115 39 41 13 92 31 113 39 21 9 70
21 110 26 40 5 93 18 119 30 26 11 81 25 122 30 42 5 89 16 105 24 16 9 59 24
97 35 38 10 86 26 107 35 21 9 70 21 110 26 40 5 93 18 119 30 26 11 80 24
120 30 40 5 94 18 120 30 26 11 81 25 122 30 42 5 89 16 105 24 16 9 59 24 97
35 38 10 86 26 107 35 21 9 70 21 110 26 40 5 93 18 119 30 26 11 80 24 120
30 40 5 94 18 120 30 26 11 81 25 122 30 42 5 89 16 105 24 16 9 59 24 97 35
38 11 94 29 124 40 30 11 73 21 95 21 22 1 58 8 80 16 22 9 74 26 115 39 41
13 92 31 113 39 21 9 70 21 110 26 40 5 93 18 119 30 26 11 80 24 120 30 40 5
94 18 120 30 26 11 81 25 122 30 42 5 89 16 105 24 16 9 59 24 97 35 38 10 86
26 107 35 21 9 70 21 110 26 40 5 93 18 119 30 26 11 80 24 120 30 40 5 94 18
120 30 26 11 81 25 122 30 42 5 89 16 105 24 16 9 59 24 97 35 38 11 94 29
124 40 66 24 99 26 145 7z m-1071 -5 c28 -11 -31 -57 -101 -77 -30 -9 -74 -24
-96 -34 -23 -10 -76 -22 -117 -26 -41 -4 -97 -17 -125 -29 -27 -12 -77 -26
-110 -30 -33 -4 -85 -17 -115 -30 -30 -13 -86 -26 -125 -30 -38 -4 -104 -20
-145 -35 -179 -67 -218 -80 -275 -86 -33 -4 -85 -17 -115 -29 -30 -13 -71 -26
-90 -30 -19 -4 -59 -18 -88 -31 -30 -13 -88 -28 -130 -33 -42 -6 -97 -19 -122
-29 -25 -11 -74 -23 -110 -27 -36 -4 -90 -18 -120 -30 -30 -13 -86 -26 -125
-30 -38 -4 -106 -20 -150 -37 -44 -17 -107 -41 -141 -53 -33 -13 -94 -27 -134
-31 -41 -4 -97 -17 -125 -29 -27 -12 -81 -26 -118 -30 -38 -4 -92 -17 -120
-29 -29 -13 -81 -26 -117 -30 -36 -4 -101 -21 -145 -38 -44 -16 -107 -41 -141
-53 -33 -13 -94 -27 -134 -31 -41 -4 -97 -17 -125 -29 -27 -12 -81 -26 -118
-30 -38 -4 -92 -17 -121 -30 -30 -13 -71 -27 -92 -31 -21 -4 -61 -17 -89 -29
-27 -12 -77 -26 -110 -30 -33 -4 -85 -17 -115 -30 -30 -12 -71 -26 -90 -30
-19 -4 -60 -18 -90 -30 -30 -13 -84 -26 -120 -30 -36 -4 -90 -18 -120 -30 -30
-13 -86 -26 -125 -30 -38 -4 -106 -20 -150 -37 -44 -17 -107 -41 -141 -53 -33
-13 -94 -27 -134 -31 -41 -4 -97 -17 -125 -29 -27 -12 -77 -26 -110 -30 -33
-4 -85 -17 -115 -30 -30 -13 -86 -26 -125 -30 -38 -4 -104 -20 -145 -35 -179
-67 -218 -80 -275 -86 -33 -4 -86 -17 -117 -30 -66 -27 -172 -33 -202 -11 -31
23 -5 54 60 73 31 9 75 24 97 34 23 10 71 21 107 25 36 4 90 18 120 30 30 13
87 26 125 30 39 4 104 20 145 35 191 72 215 79 309 84 72 5 114 13 175 37 45
17 108 42 141 54 33 13 92 26 130 30 39 4 104 20 145 35 179 67 218 80 275 86
33 4 85 17 115 29 30 13 71 26 90 30 19 4 60 17 90 30 38 15 86 24 156 29 76
4 115 12 156 30 31 14 73 28 94 32 21 4 61 17 89 29 27 12 79 25 115 29 36 4
101 21 145 38 44 16 107 41 141 53 33 13 94 27 134 31 41 4 97 17 125 29 27
12 81 26 118 30 38 4 92 17 120 29 29 13 81 26 117 30 36 4 101 21 145 38 44
16 107 41 140 53 33 13 92 26 130 30 39 4 104 20 145 35 179 67 218 80 275 86
33 4 85 17 115 29 30 13 71 26 90 30 19 4 59 18 88 31 30 13 88 28 130 33 42
6 97 19 122 29 25 11 74 23 110 27 36 4 90 18 120 30 30 13 87 26 125 30 39 4
104 20 145 35 191 72 215 79 309 84 95 6 99 7 316 92 61 23 205 32 249 15z
m-6584 -2291 c11 -11 22 -32 26 -47 4 -16 17 -54 31 -86 13 -32 28 -90 33
-130 5 -40 18 -93 30 -119 11 -26 25 -81 30 -122 5 -42 16 -89 24 -105 9 -16
24 -59 35 -97 10 -38 26 -86 35 -107 9 -21 21 -70 26 -110 5 -40 19 -94 31
-122 57 -127 24 -209 -92 -225 -36 -5 -86 -19 -111 -30 -26 -11 -81 -25 -122
-30 -42 -5 -89 -16 -105 -24 -16 -9 -59 -24 -97 -35 -38 -11 -94 -29 -124 -40
-99 -36 -251 -24 -266 21 -9 30 5 105 33 177 14 35 29 95 33 133 6 51 21 96
58 176 48 102 78 186 123 336 11 38 27 82 35 98 8 16 19 63 24 105 13 122 141
368 204 393 38 15 85 11 106 -10z m8489 -101 c35 -12 51 -35 51 -71 0 -50 -34
-69 -240 -134 -41 -13 -100 -33 -130 -43 -30 -11 -70 -20 -89 -21 -33 0 -203
-51 -304 -92 -27 -10 -72 -22 -100 -25 -50 -5 -223 -56 -319 -95 -26 -10 -80
-23 -120 -28 -40 -5 -94 -18 -120 -30 -26 -11 -80 -24 -120 -30 -40 -5 -94
-18 -120 -30 -26 -11 -81 -25 -122 -30 -42 -5 -89 -16 -105 -24 -16 -9 -59
-24 -97 -35 -38 -11 -94 -29 -124 -40 -71 -25 -136 -47 -230 -76 -41 -13 -92
-31 -113 -39 -21 -9 -70 -21 -110 -26 -40 -5 -93 -18 -119 -30 -26 -11 -80
-24 -120 -30 -40 -5 -94 -18 -121 -30 -26 -11 -71 -23 -100 -26 -51 -6 -223
-57 -320 -96 -27 -10 -72 -22 -100 -25 -50 -5 -223 -56 -319 -95 -26 -10 -82
-23 -123 -28 -41 -5 -88 -16 -104 -24 -16 -9 -59 -24 -97 -35 -38 -11 -94 -29
-124 -40 -30 -11 -73 -21 -95 -21 -22 -1 -58 -8 -80 -16 -22 -9 -74 -27 -115
-40 -41 -13 -100 -33 -130 -43 -30 -11 -73 -21 -95 -21 -22 -1 -58 -8 -80 -16
-22 -9 -74 -26 -115 -39 -41 -13 -92 -31 -113 -39 -21 -9 -70 -21 -110 -26
-40 -5 -93 -18 -120 -30 -26 -11 -71 -23 -100 -26 -50 -6 -223 -57 -319 -96
-26 -10 -80 -23 -120 -28 -40 -5 -94 -18 -121 -30 -26 -11 -71 -23 -100 -26
-50 -6 -223 -57 -319 -96 -26 -10 -82 -23 -123 -28 -41 -5 -88 -16 -104 -24
-16 -9 -59 -24 -97 -35 -38 -10 -86 -26 -107 -35 -21 -9 -70 -21 -110 -26 -40
-5 -93 -18 -119 -30 -26 -11 -80 -24 -120 -30 -40 -5 -95 -19 -122 -31 -93
-41 -231 -35 -256 11 -24 45 22 94 112 121 96 28 218 69 270 90 26 11 82 24
123 29 41 5 88 16 104 24 16 9 59 24 97 35 38 10 86 26 107 35 21 9 70 21 110
26 40 5 93 18 119 30 26 11 80 24 120 30 40 5 94 18 121 30 26 11 71 23 100
26 51 6 223 57 320 96 27 10 72 22 100 25 50 5 223 56 319 95 26 10 82 23 123
28 41 5 88 16 104 24 16 9 59 24 97 35 38 11 94 29 124 40 30 11 73 21 95 21
22 1 58 8 80 16 22 9 74 27 115 40 41 13 100 33 130 43 30 11 73 21 95 21 22
1 58 8 80 16 22 9 74 26 115 39 41 13 92 31 113 39 21 9 70 21 110 26 40 5 93
18 119 30 26 11 80 24 120 30 40 5 94 18 121 30 26 11 71 23 100 26 51 6 223
57 320 96 27 10 72 22 100 25 50 5 223 56 319 95 26 10 82 23 123 28 41 5 88
16 104 24 16 9 59 24 97 35 38 10 86 26 107 35 21 9 70 21 110 26 40 5 93 18
119 30 26 11 81 25 122 30 42 5 89 16 105 24 16 9 59 24 97 35 38 10 86 26
107 35 21 9 70 21 110 26 40 5 93 18 120 30 26 11 71 23 100 26 51 6 223 57
320 96 27 10 72 22 100 25 50 5 223 56 319 95 27 10 78 22 115 27 38 5 86 16
108 25 22 10 69 26 105 36 36 11 90 28 120 39 63 23 94 25 139 10z"/>
<path d="M7938 4525 c-2 -3 -38 -9 -79 -14 -41 -6 -95 -19 -121 -31 -26 -11
-80 -24 -120 -30 -40 -5 -94 -18 -120 -30 -26 -11 -81 -25 -122 -30 -42 -5
-89 -16 -105 -24 -16 -9 -59 -24 -97 -35 -38 -11 -94 -29 -124 -40 -30 -11
-73 -21 -95 -21 -22 -1 -58 -8 -80 -16 -22 -9 -74 -26 -115 -39 -41 -13 -92
-31 -113 -39 -21 -9 -70 -21 -110 -26 -40 -5 -93 -18 -119 -30 -26 -11 -80
-24 -120 -30 -40 -5 -94 -18 -120 -30 -26 -11 -81 -25 -122 -30 -42 -5 -89
-16 -105 -24 -16 -9 -59 -24 -97 -35 -38 -11 -94 -29 -124 -40 -30 -11 -73
-21 -95 -21 -22 -1 -58 -8 -80 -16 -22 -9 -74 -27 -115 -40 -41 -13 -100 -33
-130 -43 -30 -11 -73 -21 -95 -21 -22 -1 -58 -8 -80 -16 -22 -9 -74 -26 -115
-39 -41 -13 -92 -31 -113 -39 -21 -9 -70 -21 -110 -26 -40 -5 -93 -18 -119
-30 -26 -11 -80 -25 -122 -30 -84 -11 -223 -72 -250 -112 -59 -83 31 -153 145
-112 24 8 76 19 114 24 39 5 91 18 117 30 26 11 81 25 122 30 42 5 89 16 105
24 16 9 59 24 97 35 38 11 94 29 124 40 30 11 73 21 95 21 22 1 58 8 80 16 22
9 74 27 115 40 41 13 100 33 130 43 30 11 73 21 95 21 22 1 58 8 80 16 22 9
74 26 115 39 41 13 92 31 113 39 21 9 70 21 110 26 40 5 93 18 119 30 26 11
80 24 120 30 40 5 94 18 120 30 26 11 81 25 122 30 42 5 89 16 105 24 16 9 59
24 97 35 38 11 94 29 124 40 30 11 73 21 95 21 22 1 58 8 80 16 22 9 74 26
115 39 41 13 92 31 113 39 21 9 70 21 110 26 40 5 93 18 119 30 26 11 80 24
120 30 40 5 94 18 120 30 26 11 79 24 118 29 145 19 261 142 192 204 -17 16
-101 24 -114 12z"/>
<path d="M8400 3941 c-47 -17 -103 -31 -125 -31 -22 0 -58 -8 -80 -16 -22 -9
-74 -26 -115 -39 -41 -13 -92 -31 -113 -39 -21 -9 -70 -21 -110 -26 -40 -5
-93 -18 -119 -30 -26 -11 -80 -24 -120 -30 -40 -5 -94 -18 -120 -30 -26 -11
-81 -25 -122 -30 -42 -5 -89 -16 -105 -24 -16 -9 -59 -24 -97 -35 -38 -11 -94
-29 -124 -40 -30 -11 -73 -21 -95 -21 -22 -1 -58 -8 -80 -16 -22 -9 -74 -27
-115 -40 -41 -13 -100 -33 -130 -43 -30 -11 -73 -21 -95 -21 -22 -1 -58 -8
-80 -16 -22 -9 -74 -27 -115 -40 -41 -13 -100 -33 -130 -43 -30 -11 -73 -21
-95 -21 -22 -1 -58 -8 -80 -16 -22 -9 -74 -26 -115 -39 -41 -13 -92 -31 -113
-39 -21 -9 -70 -21 -110 -26 -40 -5 -93 -18 -119 -30 -26 -11 -80 -24 -120
-30 -40 -5 -94 -18 -120 -30 -26 -11 -81 -25 -122 -30 -42 -5 -89 -16 -105
-24 -16 -9 -59 -24 -97 -35 -38 -10 -86 -26 -107 -35 -21 -9 -70 -21 -110 -26
-40 -5 -93 -18 -119 -30 -26 -11 -81 -25 -122 -30 -42 -5 -89 -16 -105 -24
-16 -9 -59 -24 -97 -35 -38 -11 -94 -29 -124 -40 -30 -11 -73 -20 -95 -21
-127 -1 -193 -117 -99 -172 73 -42 189 -24 406 63 26 11 80 24 120 29 40 5 94
18 120 30 26 11 81 25 122 30 42 5 89 16 105 24 16 9 59 24 97 35 38 10 86 26
107 35 21 9 70 21 110 26 40 5 93 18 119 30 26 11 80 24 120 30 40 5 94 18
120 30 26 11 81 25 122 30 42 5 89 16 105 24 16 9 59 24 97 35 38 11 94 29
124 40 30 11 73 21 95 21 22 1 58 8 80 16 22 9 74 27 115 40 41 13 100 33 130
43 30 11 73 21 95 21 22 1 58 8 80 16 22 9 74 27 115 40 41 13 100 33 130 43
30 11 73 21 95 21 22 1 58 8 80 16 22 9 74 26 115 39 41 13 92 31 113 39 21 9
70 21 110 26 40 5 93 18 119 30 26 11 80 24 120 30 40 5 94 18 120 30 26 11
81 25 122 30 42 5 89 16 105 24 16 9 59 24 97 35 38 10 86 26 107 35 21 9 70
21 110 26 40 5 93 18 119 30 26 11 79 24 117 29 115 15 169 62 145 128 -24 70
-136 89 -264 44z"/>
</g>
</svg>
