<?xml version="1.0" standalone="no"?>
<!DOCTYPE svg PUBLIC "-//W3C//DTD SVG 20010904//EN"
 "http://www.w3.org/TR/2001/REC-SVG-20010904/DTD/svg10.dtd">
<svg version="1.0" xmlns="http://www.w3.org/2000/svg"
 width="960.000000pt" height="966.000000pt" viewBox="0 0 960.000000 966.000000"
 preserveAspectRatio="xMidYMid meet">
<metadata>
Created by potrace 1.16, written by Peter Selinger 2001-2019
</metadata>
<g transform="translate(0.000000,966.000000) scale(0.100000,-0.100000)"
fill="#f97316" stroke="none">
<path d="M2700 8764 c-8 -3 -36 -14 -62 -25 -26 -11 -80 -24 -120 -29 -40 -5
-94 -18 -120 -30 -26 -11 -81 -25 -122 -30 -86 -11 -187 -57 -276 -125 -30
-24 -74 -53 -98 -65 -24 -11 -87 -63 -141 -115 -54 -51 -121 -105 -150 -119
-75 -38 -191 -153 -231 -228 -20 -38 -72 -103 -129 -163 -105 -110 -195 -272
-255 -460 -14 -44 -37 -114 -50 -155 -13 -41 -31 -93 -40 -115 -23 -59 -23
-711 0 -770 9 -22 27 -74 40 -115 13 -41 36 -111 50 -155 73 -226 146 -346
315 -520 109 -112 165 -177 184 -215 19 -39 71 -99 176 -205 165 -167 179
-190 179 -295 0 -112 -5 -119 -299 -415 -196 -197 -276 -284 -294 -321 -14
-27 -42 -70 -62 -94 -20 -24 -47 -64 -60 -90 -13 -25 -42 -68 -64 -95 -43 -52
-61 -96 -61 -155 0 -19 -10 -60 -21 -90 -10 -30 -30 -89 -43 -130 -13 -41 -31
-93 -40 -115 -23 -59 -23 -651 0 -710 17 -42 37 -118 53 -200 59 -300 162
-463 523 -821 227 -226 327 -319 363 -337 28 -14 75 -45 106 -69 101 -78 383
-201 524 -229 82 -16 158 -36 200 -53 58 -22 472 -22 530 0 42 17 118 37 200
53 142 28 533 204 644 289 31 24 79 55 106 69 72 37 364 327 403 402 58 108
100 131 242 131 148 0 133 10 440 -295 195 -193 290 -280 325 -298 28 -14 75
-45 106 -69 83 -64 193 -111 423 -179 38 -11 81 -26 97 -35 16 -8 63 -19 105
-24 41 -5 96 -20 122 -32 65 -31 429 -40 502 -13 48 18 123 38 205 54 78 15
200 58 315 111 58 27 130 56 161 64 34 9 81 34 115 60 33 24 79 54 104 66 29
14 125 102 268 244 224 221 224 221 388 549 151 301 165 334 174 403 5 41 20
96 32 122 31 64 41 607 13 683 -18 47 -38 122 -54 204 -27 139 -163 448 -236
534 -20 25 -48 68 -62 95 -18 37 -98 124 -294 321 -294 296 -299 303 -299 415
0 113 3 117 333 450 302 305 302 305 399 505 95 197 140 312 159 410 16 82 36
158 53 200 22 59 22 591 0 650 -9 22 -27 74 -40 115 -13 41 -36 111 -50 155
-34 108 -213 469 -258 523 -19 24 -49 70 -67 101 -39 75 -390 427 -459 461
-25 12 -70 41 -100 65 -97 75 -309 174 -396 185 -42 5 -96 19 -122 30 -26 12
-80 25 -120 30 -40 5 -96 20 -125 32 -80 35 -514 35 -594 0 -29 -12 -85 -27
-125 -32 -40 -5 -94 -18 -120 -30 -26 -11 -78 -24 -116 -29 -75 -10 -107 -23
-167 -71 -22 -18 -58 -41 -80 -52 -22 -12 -65 -40 -95 -63 -30 -24 -75 -53
-100 -65 -29 -15 -130 -107 -291 -266 -420 -417 -456 -418 -848 -30 -138 136
-232 221 -261 236 -25 12 -70 41 -100 65 -30 23 -71 50 -90 60 -19 9 -60 36
-90 60 -89 68 -190 114 -276 125 -41 5 -96 19 -122 30 -26 12 -80 25 -120 30
-40 6 -94 20 -120 32 -46 22 -491 40 -542 22z m487 -215 c41 -15 76 -51 61
-61 -19 -12 -566 -10 -588 2 -26 14 -15 39 24 56 39 17 460 20 503 3z m3722 0
c42 -15 58 -44 32 -59 -23 -12 -569 -14 -589 -2 -15 10 19 45 58 61 35 14 459
14 499 0z m-3482 -60 c84 -32 82 -67 -4 -68 -72 -2 -170 53 -126 70 28 11 98
10 130 -2z m2877 2 c56 -22 -78 -79 -160 -67 -43 5 -45 4 -101 -52 -44 -43
-86 -71 -173 -114 -159 -78 -727 -641 -792 -783 -42 -93 -85 -218 -99 -290
-16 -82 -36 -157 -54 -205 -28 -75 -18 -437 14 -504 17 -37 26 -77 31 -150 9
-130 110 -345 210 -450 31 -34 75 -92 98 -131 52 -90 328 -365 414 -413 32
-18 88 -59 125 -93 93 -85 277 -168 438 -200 82 -16 158 -36 200 -53 58 -22
412 -22 470 0 42 17 118 37 200 53 134 26 454 166 527 229 18 16 62 46 98 65
78 43 136 101 180 182 18 34 72 101 125 155 82 85 99 109 155 220 34 69 80
154 101 190 32 54 40 78 45 140 5 51 15 91 33 125 41 79 41 672 0 750 -15 28
-30 70 -34 95 -4 25 -18 65 -30 90 -12 25 -26 65 -30 90 -10 60 -67 172 -114
223 -22 23 -55 69 -74 102 -25 41 -107 131 -264 287 -228 226 -228 226 -380
302 -233 116 -265 154 -132 155 63 1 283 -97 364 -163 22 -18 69 -49 105 -69
83 -46 245 -209 291 -292 18 -33 49 -80 69 -105 19 -25 49 -76 65 -114 17 -38
58 -125 91 -195 34 -70 65 -147 69 -172 4 -24 18 -64 30 -89 12 -25 26 -65 30
-90 4 -25 18 -66 31 -92 38 -75 37 -603 -1 -678 -16 -32 -27 -74 -31 -122 -4
-41 -16 -90 -27 -113 -11 -22 -26 -69 -33 -105 -8 -45 -42 -125 -108 -260 -97
-195 -97 -195 -400 -500 -333 -335 -326 -326 -326 -451 0 -124 -5 -117 295
-419 203 -205 281 -290 306 -335 18 -33 49 -80 69 -106 19 -25 47 -72 62 -105
14 -32 42 -93 61 -135 19 -42 38 -96 42 -119 4 -24 18 -66 31 -94 24 -51 29
-91 18 -133 -15 -54 -66 2 -79 85 -4 26 -18 68 -31 94 -13 26 -24 53 -24 60 0
38 -26 95 -60 132 -21 22 -54 68 -73 101 -25 43 -118 141 -324 345 -288 285
-288 285 -490 384 -203 99 -203 99 -330 106 -104 5 -138 11 -183 31 -79 35
-221 35 -300 0 -44 -20 -79 -26 -182 -31 -180 -9 -357 -93 -517 -244 -87 -82
-109 -98 -158 -112 -115 -33 -268 -165 -345 -299 -23 -39 -79 -110 -128 -160
-131 -134 -229 -332 -240 -480 -5 -71 -14 -116 -31 -155 -37 -84 -37 -456 0
-540 17 -39 26 -84 31 -155 7 -101 7 -101 113 -310 106 -210 106 -210 389
-492 274 -274 286 -284 383 -336 288 -154 320 -177 246 -177 -23 0 -58 7 -79
16 -20 8 -67 22 -105 29 -76 17 -173 62 -232 109 -22 18 -67 47 -100 65 -45
25 -127 100 -325 296 -146 144 -281 271 -300 281 -60 33 -271 27 -330 -8 -66
-39 -222 -203 -255 -268 -38 -75 -155 -193 -235 -238 -36 -20 -83 -50 -105
-68 -41 -33 -100 -64 -194 -105 -30 -13 -88 -42 -129 -66 -42 -23 -100 -47
-131 -53 -31 -6 -83 -22 -116 -35 -33 -13 -89 -27 -124 -31 -35 -3 -88 -17
-118 -30 -83 -37 -484 -37 -567 0 -30 13 -85 28 -123 32 -37 4 -88 16 -113 27
-25 11 -73 26 -107 33 -76 17 -288 121 -363 179 -30 24 -75 53 -100 65 -29 15
-123 100 -267 243 -242 240 -333 377 -367 557 -7 36 -22 83 -33 105 -11 23
-23 72 -27 113 -4 48 -15 90 -31 122 -38 76 -39 663 -1 738 13 26 27 68 31 94
13 83 64 139 79 86 12 -45 5 -84 -22 -138 -42 -84 -43 -735 -1 -815 18 -34 28
-74 33 -125 5 -62 13 -86 45 -140 21 -36 52 -93 69 -126 17 -34 50 -83 72
-109 22 -26 54 -73 70 -104 36 -70 341 -377 410 -411 25 -13 70 -42 100 -65
105 -80 418 -232 496 -240 40 -5 93 -19 124 -34 55 -25 57 -25 310 -25 253 0
255 0 310 25 32 16 84 29 125 34 57 5 87 16 161 56 50 26 115 54 145 60 66 14
93 27 149 74 24 20 62 46 84 57 67 33 360 330 408 413 23 39 54 85 70 103 40
47 157 284 180 366 10 38 26 82 35 99 9 19 19 73 23 132 5 73 14 115 31 151
31 67 40 313 14 384 -18 48 -38 123 -54 205 -33 167 -115 346 -202 440 -64 70
-75 89 -99 185 -15 58 -261 308 -352 358 -32 18 -88 60 -125 93 -135 122 -443
261 -600 270 -100 5 -143 13 -198 33 -88 32 -122 32 -210 0 -60 -23 -93 -27
-226 -33 -164 -7 -372 -84 -480 -179 -19 -16 -63 -46 -99 -65 -79 -44 -564
-524 -599 -594 -11 -23 -42 -71 -68 -106 -27 -36 -60 -84 -75 -106 -44 -65
-68 -50 -68 45 0 32 8 53 35 90 19 27 47 71 63 98 15 26 43 69 62 95 20 25 51
73 69 106 47 86 208 247 296 295 83 46 140 103 185 185 18 33 47 77 65 97 39
47 55 97 55 178 0 115 -8 129 -181 305 -109 111 -165 177 -184 215 -19 38 -75
104 -179 210 -129 132 -156 165 -183 225 -17 39 -47 104 -66 146 -19 42 -38
96 -42 120 -4 24 -18 64 -30 89 -12 25 -26 65 -30 90 -4 25 -18 66 -31 92 -41
82 -37 725 6 831 17 42 30 80 30 87 0 6 10 30 22 53 11 23 27 71 34 107 24
126 131 321 229 420 47 47 100 108 118 135 18 28 53 64 79 81 26 16 87 69 136
116 49 48 109 96 133 108 24 12 69 42 101 66 119 92 255 136 332 105 27 -11
-34 -61 -137 -112 -45 -23 -107 -60 -137 -84 -30 -23 -75 -52 -100 -65 -70
-35 -434 -400 -470 -471 -16 -31 -48 -78 -70 -104 -22 -26 -55 -75 -72 -109
-17 -33 -48 -90 -69 -127 -33 -56 -40 -76 -45 -145 -4 -52 -16 -100 -33 -139
-41 -94 -41 -712 0 -790 15 -27 30 -70 34 -95 4 -25 18 -66 31 -92 13 -26 24
-53 24 -60 0 -39 26 -94 65 -139 25 -27 54 -69 66 -92 33 -66 222 -252 299
-295 41 -23 109 -79 186 -153 66 -64 141 -127 165 -139 24 -12 68 -41 97 -63
54 -41 200 -99 297 -118 81 -16 157 -36 200 -53 32 -12 85 -15 259 -16 237 0
253 3 501 96 33 12 76 25 95 29 66 14 186 83 257 147 48 45 103 82 183 123
171 87 296 210 380 375 33 65 76 137 96 161 47 56 102 166 126 252 10 38 26
83 35 100 9 19 19 73 23 132 5 73 14 115 31 151 31 67 40 313 14 384 -18 48
-38 123 -54 205 -27 139 -163 448 -236 534 -20 25 -47 66 -61 93 -33 64 -76
112 -147 160 -32 22 -73 61 -90 86 -89 131 -182 209 -342 286 -162 78 -242
134 -209 147 77 31 216 -13 319 -100 28 -23 75 -55 106 -71 31 -16 69 -40 85
-53 16 -13 56 -39 89 -57 44 -23 118 -89 270 -240 400 -396 453 -394 880 30
176 175 256 247 300 271 33 18 81 49 106 69 26 19 69 47 95 63 27 15 69 43 93
63 43 35 45 35 133 33 78 -1 92 1 111 19 40 38 128 54 181 33z m-3798 -13 c12
-19 -35 -48 -78 -48 -48 0 -47 17 3 42 40 21 65 23 75 6z m4681 -13 c34 -23
28 -35 -16 -35 -44 0 -89 29 -76 49 9 16 58 8 92 -14z m-3892 -223 c28 -13 84
-27 125 -32 87 -11 366 -139 427 -196 62 -58 39 -120 -54 -147 -142 -42 -181
-72 -471 -361 -151 -149 -292 -298 -316 -331 -38 -55 -48 -63 -116 -89 -99
-39 -290 -222 -310 -297 -6 -24 -16 -60 -22 -79 -8 -26 -97 -122 -348 -375
-304 -306 -339 -345 -349 -385 -29 -110 -60 -160 -117 -187 -48 -23 -74 -8
-119 69 -21 35 -50 78 -66 96 -16 17 -36 58 -44 90 -9 31 -25 77 -35 102 -10
25 -25 70 -34 100 -8 30 -25 81 -36 114 -33 92 -27 666 8 741 13 28 27 83 32
124 9 86 109 302 174 380 21 25 49 68 63 95 34 67 218 255 286 292 29 15 77
46 107 70 69 53 258 147 347 173 37 11 93 29 123 41 88 32 671 26 745 -8z
m3755 7 c30 -11 86 -29 123 -39 193 -57 423 -193 569 -338 95 -93 146 -153
168 -193 17 -32 46 -77 66 -100 46 -55 88 -139 114 -226 32 -110 71 -224 94
-278 34 -80 32 -635 -2 -710 -13 -27 -27 -84 -32 -125 -7 -67 -19 -97 -104
-266 -122 -246 -166 -285 -245 -219 -29 25 -38 46 -60 130 -6 22 -29 62 -52
90 -22 27 -52 72 -66 100 -18 36 -101 127 -298 325 -200 202 -275 284 -283
310 -6 19 -16 55 -22 79 -20 76 -211 259 -309 296 -63 24 -77 34 -104 74 -38
55 -559 584 -603 612 -17 10 -66 30 -108 44 -218 71 -218 144 2 254 45 23 110
61 143 86 43 32 72 45 107 50 66 8 118 20 182 44 83 31 636 31 720 0z m-1468
-510 c25 -14 48 -68 48 -116 0 -96 1 -97 355 -453 358 -361 355 -357 355 -424
0 -55 -30 -95 -107 -138 -30 -17 -85 -59 -123 -94 -38 -35 -88 -73 -112 -85
-24 -12 -68 -41 -98 -64 -30 -24 -74 -52 -96 -64 -23 -11 -74 -50 -114 -87
-81 -74 -288 -184 -347 -184 -82 0 -161 137 -173 302 -6 75 -14 117 -32 153
-35 76 -36 453 0 530 13 28 27 82 32 122 5 40 17 89 26 110 9 21 25 69 36 108
34 120 79 192 187 299 100 97 120 108 163 85z m-1474 -23 c80 -41 215 -260
261 -423 10 -37 26 -85 35 -106 9 -21 21 -70 26 -110 5 -40 19 -94 32 -122 35
-76 35 -335 0 -410 -17 -36 -26 -78 -32 -150 -4 -63 -15 -119 -28 -150 -11
-27 -28 -75 -36 -106 -44 -158 -113 -161 -306 -14 -30 23 -71 50 -90 60 -19 9
-60 36 -90 60 -30 23 -74 52 -98 64 -24 12 -75 51 -114 87 -39 36 -93 76 -120
90 -28 14 -78 51 -111 82 -34 32 -83 72 -109 90 -107 73 -91 161 41 235 124
68 433 394 501 528 33 64 76 136 95 160 20 23 46 61 57 83 36 72 41 75 86 52z
m-371 -136 c-42 -208 -330 -520 -481 -520 -54 0 -74 57 -42 118 23 43 387 399
426 416 63 28 104 22 97 -14z m2259 -9 c68 -51 382 -374 403 -416 49 -96 34
-138 -42 -115 -48 14 -468 419 -492 474 -34 78 52 116 131 57z m-2977 -715
c40 -41 39 -172 -2 -213 -63 -64 -225 -32 -242 48 -31 142 146 262 244 165z
m3740 6 c132 -98 72 -306 -89 -307 -105 0 -155 120 -110 267 19 67 133 89 199
40z m-4115 -415 c25 -18 23 -63 -3 -95 -11 -15 -41 -61 -66 -103 -53 -89 -168
-205 -240 -242 -28 -14 -73 -43 -100 -66 -106 -88 -202 -73 -164 26 11 30 388
416 453 464 42 32 90 38 120 16z m699 -9 c12 -6 48 -35 80 -65 32 -29 81 -65
108 -79 27 -13 82 -54 121 -90 39 -36 89 -74 112 -85 22 -12 66 -40 96 -64 30
-23 71 -50 90 -60 61 -31 194 -136 208 -164 34 -68 -57 -203 -175 -258 -112
-52 -150 -45 -204 35 -18 26 -58 74 -89 107 -32 33 -70 85 -85 114 -14 29 -55
84 -90 121 -35 37 -76 92 -90 121 -15 29 -54 81 -86 114 -133 139 -130 324 4
253z m3025 -10 c20 -20 14 -42 -28 -104 -21 -32 -44 -80 -50 -107 -15 -70 -23
-82 -120 -182 -51 -52 -99 -113 -115 -145 -15 -30 -54 -82 -85 -115 -32 -33
-74 -88 -94 -122 -88 -151 -172 -155 -307 -16 -129 132 -124 215 18 295 30 17
85 59 123 94 38 35 88 73 112 85 24 12 68 41 98 64 30 24 74 52 97 64 23 12
71 48 106 81 93 87 213 140 245 108z m869 -150 c164 -164 203 -216 219 -298
11 -54 -70 -39 -161 29 -27 21 -73 51 -102 66 -149 79 -248 236 -209 330 32
76 66 58 253 -127z m-4220 102 c12 -10 28 -43 37 -73 12 -41 32 -71 86 -130
38 -42 81 -100 96 -128 14 -28 54 -82 89 -119 35 -37 75 -91 90 -120 15 -29
55 -83 90 -120 35 -37 75 -89 88 -116 14 -27 39 -67 56 -88 74 -92 32 -148
-149 -200 -88 -25 -211 -66 -265 -90 -79 -33 -516 -32 -590 2 -27 13 -83 27
-123 32 -40 6 -92 18 -116 28 -23 11 -65 25 -94 32 -31 7 -76 29 -110 54 -31
23 -78 54 -104 69 -133 77 -112 175 59 273 26 15 73 47 103 70 30 23 74 51 96
63 23 11 73 49 112 85 39 36 93 76 119 90 104 53 158 118 188 228 35 128 176
220 242 158z m3697 -44 c22 -9 48 -35 74 -73 55 -80 336 -355 392 -383 25 -12
70 -41 100 -65 88 -68 190 -114 276 -125 290 -37 124 -289 -263 -399 -37 -10
-85 -26 -106 -35 -21 -9 -70 -21 -110 -26 -40 -5 -94 -19 -122 -32 -47 -22
-62 -23 -265 -23 -203 0 -218 1 -265 23 -27 13 -83 27 -123 32 -40 5 -94 18
-120 29 -26 11 -72 27 -103 35 -130 36 -159 148 -68 254 16 18 41 56 55 84 14
28 54 81 89 118 35 37 75 91 90 120 15 29 70 98 125 156 77 81 102 114 110
147 22 84 31 104 59 131 46 44 115 57 175 32z m-3657 -1817 c38 -17 75 -23
181 -28 133 -7 133 -7 266 -74 197 -98 223 -141 147 -241 -21 -28 -49 -71 -61
-95 -12 -24 -50 -74 -85 -111 -35 -37 -76 -92 -91 -121 -15 -31 -66 -94 -119
-149 -51 -52 -104 -118 -118 -146 -14 -27 -40 -68 -59 -91 -18 -22 -47 -60
-65 -85 -78 -113 -206 -86 -292 61 -49 83 -392 426 -461 461 -25 12 -68 40
-96 61 -67 51 -113 69 -177 69 -176 0 -168 128 14 220 23 12 70 43 104 69 148
113 292 165 469 171 109 4 169 10 186 20 81 44 173 48 257 9z m3778 1 c41 -18
75 -24 183 -30 230 -11 632 -231 632 -345 0 -50 -40 -92 -108 -111 -81 -23
-106 -38 -177 -104 -35 -32 -87 -71 -117 -86 -64 -32 -396 -355 -462 -449 -74
-106 -173 -114 -239 -18 -18 25 -47 64 -65 86 -19 23 -45 63 -59 90 -13 27
-53 80 -88 117 -35 37 -76 92 -91 121 -15 31 -66 94 -120 150 -102 106 -194
264 -194 336 0 87 236 204 433 213 81 4 142 12 157 20 86 46 227 51 315 10z
m-2871 -401 c111 -31 188 -170 142 -257 -24 -47 -218 -228 -272 -255 -28 -14
-83 -55 -122 -91 -39 -36 -90 -75 -113 -87 -24 -12 -71 -43 -105 -69 -56 -43
-194 -110 -226 -110 -58 0 -34 110 42 197 17 18 42 57 56 86 15 29 67 94 119
147 54 56 104 118 120 150 15 30 53 82 85 115 31 33 72 82 90 108 47 71 100
89 184 66z m1790 -3 c20 -8 47 -33 66 -63 18 -26 72 -88 120 -138 50 -51 99
-113 114 -144 15 -29 56 -84 91 -121 35 -37 75 -90 89 -118 14 -28 39 -66 56
-85 34 -40 78 -122 86 -166 11 -55 -70 -41 -161 29 -27 21 -69 47 -93 59 -24
12 -75 51 -114 87 -39 36 -93 76 -120 90 -27 13 -81 54 -120 90 -39 36 -93 76
-120 90 -144 73 -182 151 -129 267 54 117 141 163 235 123z m-3955 -211 c29
-25 38 -46 60 -130 6 -22 29 -62 51 -89 22 -26 54 -74 71 -106 41 -77 390
-425 464 -463 85 -43 125 -101 125 -182 0 -103 71 -185 227 -263 125 -63 153
-87 202 -171 50 -83 392 -427 461 -461 25 -12 70 -41 100 -65 30 -23 102 -66
159 -95 120 -61 171 -106 171 -150 0 -42 -113 -135 -190 -156 -30 -8 -102 -37
-160 -65 -79 -37 -124 -51 -180 -58 -41 -6 -97 -20 -125 -33 -77 -35 -513 -35
-590 0 -27 13 -84 27 -125 32 -89 11 -390 151 -495 231 -33 25 -83 58 -112 74
-66 35 -192 164 -226 231 -14 27 -42 70 -63 95 -65 78 -165 294 -174 380 -5
41 -19 97 -32 124 -36 78 -36 692 0 770 13 28 27 83 32 123 9 81 58 196 107
253 17 19 47 62 67 96 61 104 115 128 175 78z m6160 -73 c71 -74 112 -136 127
-191 8 -31 24 -76 34 -101 10 -25 25 -70 34 -100 8 -30 25 -81 36 -114 32 -89
27 -663 -6 -741 -23 -52 -61 -166 -93 -272 -18 -63 -24 -72 -74 -136 -15 -19
-36 -65 -46 -102 -11 -37 -28 -79 -40 -94 -12 -14 -39 -52 -61 -83 -22 -32
-66 -77 -98 -100 -31 -22 -82 -65 -113 -93 -63 -61 -148 -106 -246 -134 -37
-10 -111 -40 -163 -65 -71 -34 -114 -48 -170 -55 -41 -6 -97 -20 -125 -33 -77
-35 -513 -35 -590 0 -27 13 -84 27 -125 32 -93 11 -438 176 -484 230 -56 67
-12 145 94 170 71 17 180 71 250 125 30 24 75 53 100 65 44 22 299 263 361
342 17 21 38 67 48 103 22 77 45 106 121 148 90 50 275 241 293 304 23 76 31
87 99 136 132 94 604 585 622 646 23 77 40 99 99 127 68 31 73 31 116 -14z
m-5783 -60 c21 -16 67 -43 100 -61 80 -42 260 -223 298 -300 15 -29 41 -71 57
-94 60 -83 15 -128 -68 -68 -23 16 -65 42 -94 57 -77 38 -258 218 -300 298
-18 33 -45 79 -61 100 -59 82 -14 127 68 68z m5354 9 c34 -65 15 -93 -217
-322 -255 -253 -343 -294 -343 -160 1 91 166 289 298 355 30 15 83 54 118 87
70 65 122 80 144 40z m-3253 -96 c31 -22 70 -93 92 -171 10 -38 26 -86 35
-107 9 -21 21 -70 26 -110 5 -40 19 -94 32 -122 35 -76 35 -335 0 -410 -17
-36 -26 -78 -32 -150 -4 -56 -15 -118 -25 -140 -9 -22 -26 -71 -36 -109 -27
-93 -132 -299 -170 -331 -57 -48 -161 -13 -226 75 -19 25 -47 62 -64 82 -16
21 -46 66 -65 100 -42 75 -386 428 -501 514 -144 108 -126 203 57 294 36 18
90 52 120 75 30 24 74 52 96 64 23 11 73 49 112 85 39 36 95 77 124 92 32 16
98 71 168 139 157 153 196 173 257 130z m1156 4 c12 -7 50 -38 85 -71 35 -32
85 -69 113 -83 27 -14 82 -55 121 -91 39 -36 93 -76 120 -90 27 -13 81 -54
120 -90 39 -36 89 -74 112 -86 269 -136 321 -314 122 -415 -75 -38 -305 -267
-347 -346 -18 -34 -61 -91 -94 -128 -44 -46 -79 -98 -119 -177 -130 -253 -212
-223 -393 142 -95 193 -95 193 -103 297 -6 76 -14 117 -32 154 -36 77 -36 453
0 530 18 36 26 78 32 153 17 220 143 364 263 301z m3047 -421 c34 -56 30 -598
-5 -667 -17 -34 -27 -77 -33 -140 -9 -83 -14 -98 -61 -180 -28 -49 -58 -108
-66 -132 -9 -24 -36 -77 -60 -119 -24 -42 -51 -94 -59 -116 -52 -149 -251
-381 -401 -466 -38 -22 -91 -54 -116 -72 -27 -19 -70 -37 -103 -44 -31 -6 -94
-32 -140 -57 -45 -24 -111 -51 -147 -58 -35 -8 -84 -23 -109 -34 -25 -11 -76
-23 -113 -27 -38 -4 -93 -19 -123 -32 -113 -50 -477 -33 -528 24 -26 29 -17
30 264 35 226 4 237 5 290 29 31 14 86 28 125 33 57 5 87 16 160 55 50 27 121
56 160 65 91 21 185 74 265 151 36 34 92 76 125 94 79 43 197 159 245 240 21
36 50 76 65 90 35 32 51 64 60 120 9 57 19 75 66 127 21 23 41 54 45 70 23
105 77 263 110 323 17 32 19 65 25 375 3 187 6 341 7 343 9 12 36 -4 52 -30z
m-5464 -190 c73 -73 31 -268 -57 -268 -118 0 -214 128 -179 235 23 70 178 92
236 33z m3758 18 c105 -44 51 -240 -71 -261 -120 -20 -187 78 -143 210 20 60
130 86 214 51z m-3497 -458 c67 -25 321 -263 357 -335 11 -21 35 -63 53 -94
66 -114 14 -130 -116 -35 -25 18 -66 44 -91 56 -74 37 -255 223 -290 297 -58
123 -33 156 87 111z m3151 10 c20 -20 11 -71 -34 -204 -18 -52 -149 -181 -221
-218 -29 -14 -68 -39 -86 -56 -171 -150 -265 -67 -112 99 35 39 76 94 91 122
34 69 102 139 166 174 29 16 75 44 102 62 51 35 75 40 94 21z m-121 -1419 c84
-32 82 -67 -4 -68 -72 -2 -170 53 -126 70 28 11 98 10 130 -2z"/>
<path d="M4515 4470 c-51 -20 -52 -27 -25 -219 37 -271 388 -400 559 -205 44
49 53 74 62 179 4 50 11 117 14 150 10 80 -8 98 -103 103 -119 5 -151 -31
-126 -142 26 -109 0 -170 -78 -182 -99 -16 -143 52 -115 178 27 123 -63 189
-188 138z"/>
</g>
</svg>
