<?xml version="1.0" standalone="no"?>
<!DOCTYPE svg PUBLIC "-//W3C//DTD SVG 20010904//EN"
 "http://www.w3.org/TR/2001/REC-SVG-20010904/DTD/svg10.dtd">
<svg version="1.0" xmlns="http://www.w3.org/2000/svg"
 width="1920.000000pt" height="1920.000000pt" viewBox="0 0 1920.000000 1920.000000"
 preserveAspectRatio="xMidYMid meet">
<metadata>
Created by potrace 1.16, written by Peter Selinger 2001-2019
</metadata>
<g transform="translate(0.000000,1920.000000) scale(0.100000,-0.100000)"
fill="#f97316" stroke="none">
<path d="M7665 16796 c-75 -24 -390 -188 -445 -231 -30 -24 -125 -78 -210
-120 -85 -43 -180 -97 -210 -120 -30 -24 -71 -51 -90 -60 -19 -10 -60 -37 -90
-60 -30 -24 -71 -51 -90 -60 -19 -10 -60 -37 -90 -60 -30 -24 -71 -51 -90 -60
-19 -10 -60 -37 -90 -60 -30 -24 -125 -78 -210 -120 -85 -43 -180 -97 -210
-120 -30 -24 -71 -51 -90 -60 -19 -10 -60 -37 -90 -60 -30 -24 -70 -50 -89
-60 -18 -9 -59 -36 -91 -59 -32 -24 -80 -49 -106 -55 -68 -17 -99 -36 -170
-101 -49 -46 -98 -77 -226 -141 -90 -45 -188 -101 -218 -124 -30 -24 -98 -64
-150 -90 -52 -26 -120 -67 -150 -90 -30 -24 -100 -66 -156 -93 -71 -35 -123
-70 -172 -116 -58 -53 -103 -81 -234 -147 -90 -45 -188 -101 -218 -124 -30
-24 -98 -64 -150 -90 -52 -26 -120 -67 -150 -90 -30 -24 -71 -51 -90 -60 -19
-10 -60 -37 -90 -60 -30 -24 -98 -64 -150 -90 -52 -26 -120 -67 -150 -90 -30
-24 -98 -64 -150 -90 -52 -26 -120 -67 -150 -90 -30 -24 -71 -51 -90 -60 -19
-10 -60 -37 -90 -60 -30 -24 -98 -64 -150 -90 -52 -26 -120 -67 -150 -90 -30
-24 -98 -64 -150 -90 -52 -26 -120 -67 -150 -90 -30 -24 -98 -64 -150 -90 -52
-26 -120 -67 -150 -90 -30 -24 -125 -78 -210 -120 -85 -43 -180 -97 -210 -120
-30 -24 -100 -66 -156 -93 -70 -35 -123 -70 -172 -116 -39 -36 -94 -77 -122
-91 -62 -32 -192 -153 -217 -203 -15 -31 -19 -70 -23 -252 -5 -201 -7 -219
-30 -270 -25 -55 -25 -55 -25 -1325 0 -1501 -30 -1327 288 -1642 187 -185 195
-192 297 -243 58 -28 130 -71 160 -95 30 -23 98 -64 150 -90 52 -26 120 -66
150 -90 30 -23 98 -64 150 -90 52 -26 120 -66 150 -90 30 -23 71 -50 90 -60
19 -9 60 -36 90 -60 30 -23 98 -64 150 -90 52 -26 120 -66 150 -90 30 -23 98
-64 150 -90 52 -26 120 -66 150 -90 30 -23 101 -66 158 -94 71 -36 124 -71
174 -117 49 -46 102 -81 172 -116 56 -27 126 -69 156 -93 30 -23 98 -64 150
-90 52 -26 120 -66 150 -90 30 -23 98 -64 150 -90 52 -26 120 -66 150 -90 30
-23 71 -50 90 -60 19 -9 60 -36 90 -60 30 -23 98 -64 150 -90 52 -26 120 -66
150 -90 30 -23 98 -64 150 -90 52 -26 120 -66 150 -90 30 -23 71 -50 90 -60
19 -9 60 -36 90 -60 30 -23 100 -65 155 -93 55 -27 125 -70 156 -94 160 -124
477 -238 661 -238 175 0 408 77 537 178 31 24 128 80 216 124 88 44 185 100
215 123 30 24 71 51 90 60 19 10 60 37 90 60 30 24 125 78 210 120 85 43 180
97 210 120 30 24 71 51 90 60 19 10 60 37 90 60 30 24 71 51 90 60 19 10 60
37 90 60 30 24 98 64 150 90 52 26 120 67 150 90 30 24 98 64 150 90 52 26
120 67 150 90 30 24 98 64 150 90 52 26 120 67 150 90 30 24 71 51 90 60 19
10 60 37 90 60 30 24 98 64 150 90 52 26 120 67 150 90 30 24 71 51 90 60 19
10 60 37 90 60 30 24 125 78 210 120 85 43 180 97 210 120 30 24 71 51 90 60
19 10 60 37 90 60 30 24 98 64 150 90 52 26 120 67 150 90 30 24 98 64 150 90
52 26 120 67 150 90 30 24 98 64 150 90 52 26 120 67 150 90 30 24 98 64 150
90 52 26 120 67 150 90 30 24 71 51 90 60 19 10 60 37 90 60 30 24 98 64 150
90 52 26 120 67 150 90 30 24 71 51 90 60 19 10 60 37 90 60 30 24 98 64 150
90 52 26 120 67 150 90 30 24 98 64 150 90 52 26 120 67 150 90 30 24 98 64
150 90 52 26 120 67 150 90 30 24 71 51 90 60 19 10 60 37 90 60 30 24 71 51
90 60 98 49 151 112 184 222 13 43 31 97 40 121 17 45 18 2716 1 2852 -3 30
-2 74 3 98 11 45 6 74 -27 162 -11 30 -25 75 -32 99 -19 79 -205 255 -339 321
-58 29 -130 71 -160 95 -30 23 -98 64 -150 90 -52 26 -120 66 -150 90 -30 23
-101 66 -158 94 -71 36 -124 71 -174 117 -49 46 -102 81 -172 116 -56 27 -126
69 -156 93 -30 23 -125 77 -210 120 -85 42 -180 96 -210 120 -30 23 -71 50
-90 60 -19 9 -60 36 -90 60 -30 23 -71 50 -90 60 -19 9 -60 36 -90 60 -30 23
-98 64 -150 90 -52 26 -120 66 -150 90 -30 23 -98 64 -150 90 -52 26 -120 66
-150 90 -30 23 -98 64 -150 90 -52 26 -120 66 -150 90 -30 23 -71 50 -90 60
-19 9 -60 36 -90 60 -30 23 -98 64 -150 90 -52 26 -120 66 -150 90 -30 23 -71
50 -90 60 -19 9 -60 36 -90 60 -30 23 -71 50 -90 60 -19 9 -60 36 -90 60 -30
23 -125 77 -210 120 -85 42 -180 96 -210 120 -30 23 -73 51 -95 63 -22 11 -65
40 -96 64 -31 23 -143 86 -249 138 -208 102 -335 126 -455 86z m458 -288 c107
-54 211 -111 229 -127 18 -16 62 -46 98 -66 36 -21 80 -51 98 -67 18 -16 109
-66 200 -112 92 -46 187 -100 212 -121 24 -20 65 -47 92 -61 26 -13 62 -37 80
-53 18 -16 62 -46 98 -66 36 -21 80 -51 98 -67 18 -16 81 -53 140 -82 59 -30
128 -71 152 -91 24 -20 65 -47 90 -60 25 -13 66 -40 89 -59 24 -20 92 -61 152
-92 60 -31 128 -71 150 -90 23 -19 90 -59 150 -90 60 -31 128 -72 151 -91 23
-19 91 -59 150 -89 59 -29 122 -67 140 -83 18 -16 62 -46 98 -66 36 -21 80
-51 98 -67 18 -15 54 -39 80 -52 27 -14 68 -41 92 -61 25 -21 119 -74 210
-120 91 -46 186 -100 210 -120 24 -20 93 -61 152 -91 77 -39 129 -73 180 -120
50 -46 102 -81 177 -119 59 -29 127 -70 151 -90 24 -20 89 -59 145 -87 55 -27
125 -69 155 -93 30 -23 98 -64 150 -90 120 -60 156 -93 176 -165 8 -30 24 -76
35 -102 40 -97 20 -145 -68 -171 -71 -21 -182 -79 -233 -122 -24 -20 -65 -47
-90 -60 -25 -13 -66 -40 -90 -60 -24 -20 -92 -61 -150 -90 -58 -29 -126 -70
-150 -90 -24 -20 -65 -47 -90 -60 -25 -13 -66 -40 -90 -60 -24 -20 -92 -61
-150 -90 -58 -29 -126 -70 -150 -90 -24 -20 -92 -61 -150 -90 -58 -29 -126
-70 -150 -90 -24 -20 -93 -62 -153 -92 -79 -39 -128 -72 -177 -118 -56 -53
-98 -79 -237 -148 -93 -47 -188 -101 -211 -120 -23 -19 -91 -60 -151 -91 -60
-31 -128 -72 -152 -92 -24 -20 -91 -60 -149 -89 -58 -29 -126 -70 -150 -90
-24 -20 -93 -61 -152 -91 -59 -29 -122 -66 -140 -82 -18 -16 -65 -47 -104 -70
-39 -22 -77 -48 -84 -57 -7 -9 -42 -32 -77 -51 -35 -20 -82 -52 -105 -71 -23
-19 -90 -59 -148 -88 -58 -29 -126 -70 -150 -90 -24 -20 -92 -61 -150 -90 -58
-29 -126 -70 -150 -90 -24 -20 -65 -47 -90 -60 -25 -13 -66 -40 -90 -60 -24
-20 -92 -61 -150 -90 -58 -29 -126 -70 -150 -90 -24 -20 -92 -61 -150 -90 -58
-29 -126 -70 -150 -90 -24 -20 -92 -61 -150 -90 -58 -29 -126 -70 -150 -90
-24 -20 -92 -61 -150 -90 -58 -29 -126 -70 -150 -90 -24 -20 -65 -47 -92 -61
-26 -13 -62 -37 -80 -52 -18 -16 -62 -46 -98 -67 -36 -20 -80 -50 -98 -66 -18
-16 -109 -67 -200 -113 -92 -46 -187 -100 -212 -121 -24 -20 -65 -47 -90 -60
-25 -13 -66 -40 -91 -61 -75 -64 -291 -162 -380 -173 -41 -6 -97 -20 -125 -31
-76 -33 -129 -36 -199 -10 -67 25 -117 37 -187 45 -35 5 -63 18 -105 49 -32
24 -104 67 -161 96 -57 29 -121 68 -144 86 -22 19 -89 59 -149 90 -60 31 -128
72 -151 91 -23 19 -63 45 -88 58 -25 13 -66 40 -90 60 -24 20 -92 61 -150 90
-58 29 -125 69 -149 89 -24 20 -92 61 -152 92 -60 31 -127 71 -149 89 -22 18
-68 49 -103 69 -35 19 -70 42 -77 51 -7 9 -45 35 -84 57 -39 23 -86 54 -104
70 -18 16 -81 53 -140 82 -59 30 -128 71 -152 91 -24 20 -92 61 -150 90 -58
29 -126 70 -150 90 -24 20 -92 61 -150 90 -58 29 -126 70 -150 90 -24 20 -92
61 -150 90 -58 29 -126 70 -150 90 -24 20 -65 47 -92 61 -26 13 -62 37 -80 53
-18 16 -62 46 -98 66 -36 21 -80 51 -98 67 -18 16 -110 67 -204 114 -139 70
-182 96 -237 148 -48 45 -100 80 -179 121 -62 31 -131 73 -154 92 -23 19 -87
57 -143 85 -55 28 -124 69 -154 92 -30 22 -93 62 -140 87 -162 87 -185 234
-53 331 32 23 82 65 113 94 36 34 93 71 165 107 60 30 130 72 154 92 24 20
119 74 210 120 91 46 185 99 208 118 23 19 91 60 151 91 60 31 128 72 152 92
24 20 91 60 149 89 58 29 126 70 150 90 24 20 93 61 152 91 59 29 122 66 140
82 18 16 62 46 98 67 36 20 79 50 96 65 17 14 81 52 141 83 61 31 129 72 152
91 22 19 90 59 150 90 60 31 128 72 152 92 23 19 64 46 89 59 25 13 66 40 90
60 24 20 92 61 150 90 58 29 126 70 150 90 24 20 120 75 213 122 139 69 181
95 237 148 49 46 98 79 177 118 60 30 129 72 153 92 24 20 92 61 150 90 58 29
126 70 150 90 24 20 120 75 213 122 139 69 181 95 237 148 63 59 133 95 185
95 7 0 43 23 81 51 38 28 86 60 106 70 21 11 52 32 70 47 18 16 62 46 98 67
36 20 80 50 98 66 18 16 109 68 202 114 93 46 184 97 202 113 18 16 62 46 98
67 36 20 80 50 98 66 18 16 54 40 80 53 27 14 68 41 92 61 24 20 65 47 90 60
25 13 66 40 90 60 25 21 119 74 210 120 91 46 185 99 208 119 44 36 327 184
417 218 126 47 248 25 468 -84z m4678 -3414 c24 -26 24 -26 24 -1344 0 -1317
0 -1317 -44 -1403 -47 -94 -108 -160 -182 -197 -24 -13 -69 -42 -99 -65 -30
-24 -98 -64 -150 -90 -52 -26 -120 -67 -150 -90 -30 -24 -98 -64 -150 -90 -52
-26 -120 -67 -150 -90 -30 -24 -98 -64 -150 -90 -52 -26 -120 -67 -150 -90
-30 -24 -71 -51 -90 -60 -19 -10 -60 -37 -90 -60 -30 -24 -98 -64 -150 -90
-52 -26 -120 -67 -150 -90 -30 -24 -71 -51 -90 -60 -19 -10 -60 -37 -90 -60
-30 -24 -98 -64 -150 -90 -52 -26 -120 -67 -150 -90 -30 -24 -98 -64 -150 -90
-52 -26 -120 -67 -150 -90 -30 -24 -98 -64 -150 -90 -52 -26 -120 -67 -150
-90 -30 -24 -98 -64 -150 -90 -52 -26 -120 -67 -150 -90 -30 -24 -71 -51 -90
-60 -19 -10 -60 -37 -90 -60 -30 -24 -125 -78 -210 -120 -85 -43 -180 -97
-210 -120 -30 -24 -71 -51 -90 -60 -19 -10 -60 -37 -90 -60 -30 -24 -98 -64
-150 -90 -52 -26 -120 -67 -150 -90 -30 -24 -71 -51 -90 -60 -19 -10 -60 -37
-90 -60 -30 -24 -98 -64 -150 -90 -52 -26 -120 -67 -150 -90 -30 -24 -98 -64
-150 -90 -52 -26 -120 -67 -150 -90 -30 -24 -98 -64 -150 -90 -52 -26 -120
-67 -150 -90 -30 -24 -71 -51 -90 -60 -19 -10 -60 -37 -90 -60 -30 -24 -71
-51 -90 -60 -19 -10 -60 -37 -90 -60 -30 -24 -125 -78 -210 -120 -85 -43 -180
-97 -210 -120 -30 -24 -71 -51 -90 -60 -19 -10 -60 -37 -90 -60 -30 -24 -125
-78 -210 -120 -85 -43 -180 -97 -210 -120 -69 -54 -139 -89 -227 -114 -37 -10
-85 -26 -105 -35 -56 -24 -100 -21 -129 10 -35 38 -39 2763 -3 2810 36 49 66
64 146 74 89 11 300 109 398 185 30 24 71 51 90 60 19 10 60 37 90 60 30 24
125 78 210 120 85 43 180 97 210 120 30 24 71 51 90 60 19 10 60 37 90 60 30
24 71 51 90 60 19 10 60 37 90 60 30 24 98 64 150 90 52 26 120 67 150 90 30
24 98 64 150 90 52 26 120 67 150 90 30 24 98 64 150 90 52 26 120 67 150 90
30 24 98 64 150 90 52 26 120 67 150 90 30 24 71 51 90 60 19 10 60 37 90 60
30 24 98 64 150 90 52 26 120 67 150 90 30 24 98 64 150 90 52 26 120 67 150
90 30 24 71 51 90 60 19 10 60 37 90 60 30 24 71 51 90 60 19 10 60 37 90 60
30 24 98 64 150 90 52 26 120 67 150 90 30 24 98 64 150 90 52 26 120 67 150
90 30 24 98 64 150 90 52 26 120 67 150 90 30 24 127 79 216 123 130 65 174
93 232 146 50 46 103 81 174 117 57 28 128 71 158 94 30 24 98 64 150 90 52
26 120 67 150 90 30 24 98 64 150 90 52 26 120 67 150 90 30 24 71 51 90 60
19 10 60 37 90 60 30 24 98 64 150 90 52 26 120 67 150 90 30 24 71 51 90 60
19 10 60 37 90 61 120 94 236 126 281 78z m-12054 -1270 c32 -14 83 -44 113
-68 30 -24 98 -65 150 -91 52 -26 120 -66 150 -90 30 -23 101 -66 158 -94 71
-36 124 -71 174 -117 58 -53 102 -81 232 -146 89 -44 186 -99 216 -123 30 -23
71 -50 90 -60 19 -9 60 -36 90 -60 30 -23 71 -50 90 -60 19 -9 60 -36 90 -60
30 -23 98 -64 150 -90 52 -26 120 -66 150 -90 30 -23 98 -64 150 -90 52 -26
120 -66 150 -90 30 -23 98 -64 150 -90 52 -26 120 -66 150 -90 30 -23 98 -64
150 -90 52 -26 120 -66 150 -90 30 -23 71 -50 90 -60 19 -9 60 -36 90 -60 30
-23 71 -50 90 -60 19 -9 60 -36 90 -60 30 -23 98 -64 150 -90 52 -26 120 -66
150 -90 30 -23 98 -64 150 -90 52 -26 120 -66 150 -90 30 -23 71 -50 90 -60
19 -9 60 -36 90 -60 30 -23 98 -64 150 -90 52 -26 120 -66 150 -90 30 -23 98
-64 150 -90 52 -26 118 -65 146 -86 59 -45 112 -69 152 -69 54 0 93 -21 108
-56 18 -44 21 -2721 3 -2773 -28 -79 -299 2 -479 143 -30 24 -98 65 -150 91
-52 26 -120 66 -150 90 -30 23 -71 50 -90 60 -19 9 -60 36 -90 60 -30 23 -98
64 -150 90 -52 26 -120 66 -150 90 -30 23 -98 64 -150 90 -52 26 -120 66 -150
90 -30 23 -71 50 -90 60 -19 9 -60 36 -90 60 -30 23 -98 64 -150 90 -52 26
-120 66 -150 90 -30 23 -98 64 -150 90 -52 26 -120 66 -150 90 -30 23 -101 66
-158 94 -71 36 -124 71 -174 117 -49 46 -102 81 -172 116 -56 27 -126 69 -156
93 -30 23 -98 64 -150 90 -52 26 -120 66 -150 90 -30 23 -98 64 -150 90 -52
26 -120 66 -150 90 -30 23 -71 50 -90 60 -19 9 -60 36 -90 60 -30 23 -98 64
-150 90 -52 26 -120 66 -150 90 -30 23 -98 64 -150 90 -52 26 -120 66 -150 89
-30 24 -105 68 -165 99 -100 51 -121 67 -217 165 -199 201 -183 69 -186 1497
-3 1352 -5 1304 43 1352 41 41 73 42 152 7z"/>
<path d="M7550 16381 c-51 -16 -167 -80 -208 -114 -23 -19 -91 -60 -151 -91
-60 -31 -128 -72 -152 -92 -23 -19 -64 -46 -89 -59 -25 -13 -66 -40 -90 -60
-24 -20 -65 -47 -90 -60 -25 -13 -66 -40 -90 -60 -24 -20 -92 -61 -150 -90
-58 -29 -125 -69 -148 -88 -23 -19 -91 -60 -151 -91 -60 -31 -128 -72 -152
-92 -24 -20 -91 -60 -149 -89 -58 -29 -125 -69 -148 -88 -23 -19 -91 -60 -151
-91 -60 -31 -128 -72 -152 -92 -23 -19 -64 -46 -89 -59 -25 -13 -65 -39 -88
-58 -23 -19 -91 -60 -151 -91 -60 -31 -128 -72 -152 -92 -24 -20 -91 -60 -149
-89 -58 -29 -126 -70 -150 -90 -24 -20 -92 -61 -150 -90 -58 -29 -126 -70
-150 -90 -24 -20 -89 -59 -145 -87 -55 -28 -122 -67 -150 -88 -27 -21 -75 -53
-105 -70 -30 -18 -70 -45 -88 -61 -18 -16 -81 -54 -140 -83 -59 -30 -128 -71
-152 -91 -24 -20 -65 -47 -90 -60 -25 -13 -66 -40 -90 -60 -25 -21 -119 -74
-210 -120 -91 -46 -185 -99 -208 -118 -23 -19 -91 -61 -152 -92 -61 -31 -125
-69 -143 -84 -18 -15 -64 -46 -103 -69 -39 -22 -77 -48 -84 -57 -7 -9 -42 -32
-77 -51 -35 -20 -82 -52 -105 -71 -23 -19 -90 -59 -148 -88 -58 -29 -126 -70
-150 -90 -24 -20 -119 -74 -210 -120 -91 -46 -185 -99 -208 -118 -23 -19 -91
-60 -151 -91 -60 -31 -128 -72 -152 -92 -23 -19 -66 -47 -93 -61 -76 -38 -271
-237 -286 -291 -24 -92 84 -238 241 -325 36 -20 72 -43 79 -52 7 -9 43 -33 79
-55 36 -21 84 -52 106 -70 22 -18 87 -56 145 -85 58 -29 125 -69 149 -89 24
-20 92 -61 152 -92 60 -31 128 -72 151 -91 23 -19 90 -59 148 -88 58 -29 126
-70 150 -90 24 -20 65 -47 90 -60 25 -13 66 -40 90 -60 24 -20 92 -61 150 -90
58 -29 126 -70 150 -90 24 -20 92 -61 150 -90 58 -29 126 -70 150 -90 53 -45
182 -108 263 -130 51 -14 70 -27 155 -108 55 -53 126 -109 163 -130 36 -20 72
-43 79 -52 7 -9 45 -35 84 -57 39 -23 86 -54 104 -70 18 -16 109 -66 200 -112
92 -46 188 -101 212 -121 24 -20 93 -62 153 -92 79 -39 128 -72 176 -117 48
-45 100 -80 179 -121 62 -31 131 -73 154 -92 24 -19 133 -81 243 -137 290
-147 380 -147 670 0 110 56 221 119 245 139 24 20 92 61 150 90 58 29 126 70
150 90 24 20 120 75 213 122 139 69 181 95 237 148 49 46 98 79 177 118 60 30
129 72 153 92 24 20 92 61 150 90 58 29 126 70 150 90 24 20 92 61 150 90 58
29 126 70 150 90 24 20 92 61 150 90 58 29 126 70 150 90 24 20 65 47 90 60
25 13 66 40 90 60 24 20 92 61 150 90 58 29 126 70 150 90 24 20 92 61 150 90
58 29 126 70 150 90 24 20 93 61 152 91 59 29 122 66 140 82 18 16 65 47 104
70 39 22 77 48 84 57 7 9 42 32 77 51 35 20 82 52 105 71 23 19 63 46 90 59
26 13 93 67 148 119 87 82 107 97 157 110 32 9 78 25 103 35 25 10 71 25 102
34 31 9 76 31 100 49 24 18 73 50 108 71 36 21 80 51 98 67 18 16 52 38 75 50
23 12 65 39 93 60 51 39 72 49 151 69 30 8 64 30 117 80 56 51 103 84 183 124
60 30 129 71 153 91 24 20 92 61 150 90 58 29 126 70 150 90 24 20 65 47 90
60 25 13 66 40 90 60 24 20 92 61 150 90 58 29 126 70 150 90 24 20 66 48 93
61 106 54 277 241 277 304 0 83 -228 309 -396 393 -60 30 -130 72 -154 92 -24
20 -93 61 -152 91 -77 39 -129 73 -180 120 -50 46 -102 81 -177 119 -59 29
-127 70 -151 90 -24 20 -60 45 -79 55 -20 10 -67 41 -105 69 -38 28 -74 51
-81 51 -52 0 -122 36 -185 95 -50 47 -98 79 -178 119 -61 31 -126 69 -144 85
-18 16 -62 46 -98 66 -36 21 -79 51 -97 66 -18 15 -82 53 -143 84 -61 31 -129
73 -152 92 -23 19 -117 72 -208 118 -91 46 -185 99 -210 120 -24 20 -65 47
-92 61 -26 13 -62 37 -80 53 -18 16 -62 46 -98 66 -36 21 -80 51 -98 67 -18
16 -81 53 -140 82 -59 30 -128 71 -152 91 -24 20 -92 61 -150 90 -58 29 -125
69 -148 88 -23 19 -70 51 -105 71 -35 19 -70 42 -77 51 -7 9 -45 35 -84 57
-39 23 -86 54 -104 70 -110 94 -179 113 -437 115 -132 1 -251 -2 -265 -6z
m566 -231 c38 -17 94 -50 124 -74 30 -24 71 -51 90 -61 19 -9 60 -36 90 -60
30 -23 71 -50 90 -60 19 -9 60 -36 90 -60 30 -23 98 -64 150 -90 52 -26 120
-66 150 -90 30 -23 98 -64 150 -90 52 -26 120 -66 150 -90 30 -23 71 -50 90
-60 19 -9 60 -36 90 -60 30 -23 71 -50 90 -60 19 -9 60 -36 90 -60 30 -23 125
-77 210 -120 85 -42 180 -96 210 -120 30 -23 98 -64 150 -90 52 -26 120 -66
150 -90 30 -23 71 -50 90 -60 19 -9 60 -36 90 -60 30 -23 101 -66 158 -94 70
-35 124 -71 167 -111 70 -65 101 -84 169 -101 26 -6 74 -31 106 -55 32 -23 73
-50 91 -59 19 -10 59 -36 89 -60 30 -23 101 -66 158 -94 71 -36 124 -71 174
-117 49 -46 102 -81 172 -116 56 -27 126 -69 156 -92 30 -24 105 -69 167 -100
224 -114 263 -218 115 -303 -26 -15 -72 -46 -102 -69 -30 -23 -98 -63 -150
-89 -52 -26 -120 -67 -150 -90 -30 -24 -71 -51 -90 -60 -19 -10 -60 -37 -90
-60 -30 -24 -98 -64 -150 -90 -52 -26 -120 -67 -150 -90 -30 -24 -100 -66
-156 -93 -70 -35 -123 -70 -172 -116 -60 -54 -82 -68 -141 -86 -44 -13 -91
-36 -128 -64 -32 -24 -74 -51 -93 -61 -19 -10 -60 -37 -90 -60 -30 -24 -70
-50 -89 -60 -18 -9 -60 -36 -92 -60 -35 -26 -79 -48 -111 -55 -29 -7 -71 -21
-93 -31 -88 -40 -135 -27 -239 68 -36 34 -96 73 -160 104 -55 28 -126 70 -156
94 -30 23 -71 50 -90 60 -19 9 -60 36 -90 60 -30 23 -128 79 -218 124 -131 66
-176 94 -234 147 -49 46 -101 81 -172 116 -56 27 -126 69 -156 93 -30 23 -98
64 -150 90 -52 26 -120 66 -150 90 -30 23 -98 64 -150 90 -138 69 -276 176
-290 223 -23 79 -8 2606 15 2632 44 49 113 49 221 0z m-475 4 c24 -26 24 -26
24 -1364 0 -1549 16 -1364 -127 -1440 -47 -25 -109 -64 -139 -86 -30 -23 -97
-63 -149 -89 -52 -26 -120 -67 -150 -90 -30 -24 -98 -64 -150 -90 -52 -26
-120 -67 -150 -90 -30 -24 -71 -51 -90 -60 -19 -10 -60 -37 -90 -60 -30 -24
-98 -64 -150 -90 -52 -26 -120 -67 -150 -90 -30 -24 -98 -64 -150 -90 -52 -26
-120 -67 -150 -90 -30 -24 -98 -64 -150 -90 -52 -26 -120 -67 -150 -90 -30
-24 -70 -50 -89 -60 -18 -9 -59 -36 -91 -59 -32 -24 -80 -49 -106 -55 -68 -17
-99 -36 -169 -101 -43 -40 -97 -76 -167 -111 -57 -28 -128 -71 -158 -94 -30
-24 -98 -64 -150 -90 -52 -26 -120 -67 -150 -90 -30 -24 -98 -64 -150 -90 -52
-26 -120 -67 -150 -90 -30 -24 -98 -64 -150 -90 -52 -26 -120 -67 -150 -90
-30 -24 -100 -66 -156 -93 -70 -35 -123 -70 -172 -116 -39 -36 -90 -75 -112
-86 -23 -12 -69 -41 -102 -66 -94 -69 -197 -51 -338 60 -30 24 -98 65 -150 91
-52 26 -120 66 -150 90 -30 23 -98 64 -150 90 -52 26 -120 66 -150 90 -30 23
-71 50 -90 60 -19 9 -60 36 -90 60 -30 23 -98 64 -150 90 -52 26 -120 66 -150
90 -30 23 -98 64 -150 90 -52 26 -120 66 -150 90 -30 23 -98 64 -150 90 -52
26 -120 66 -150 90 -30 23 -71 50 -90 60 -52 26 -217 152 -224 171 -24 62 17
135 98 176 23 11 66 40 96 63 30 24 98 64 150 90 52 26 120 67 150 90 30 24
125 78 210 120 85 43 180 97 210 120 30 24 98 64 150 90 52 26 120 67 150 90
30 24 71 51 90 60 19 10 60 37 90 60 30 24 71 51 90 60 19 10 60 37 90 60 30
24 98 64 150 90 52 26 120 67 150 90 30 24 125 78 210 120 85 43 180 97 210
120 30 24 71 51 90 60 19 10 60 37 90 60 30 24 98 64 150 90 52 26 120 67 150
90 30 24 71 51 90 60 19 10 60 37 90 60 30 24 98 64 150 90 52 26 120 67 150
90 30 24 98 64 150 90 52 26 120 67 150 90 30 24 98 64 150 90 52 26 120 67
150 90 30 24 98 64 150 90 52 26 120 67 150 90 30 24 71 51 90 60 19 10 60 37
90 60 30 24 98 64 150 90 52 26 120 67 150 90 30 24 98 64 150 90 52 26 120
67 150 90 30 24 98 64 150 90 52 26 120 67 150 90 30 24 98 64 150 90 52 26
120 67 150 90 30 24 71 51 90 60 19 10 60 37 90 60 30 24 71 51 90 60 19 10
60 37 90 60 30 24 98 64 150 90 52 26 120 67 150 91 120 94 236 126 281 78z
m347 -2952 c31 -23 102 -65 157 -93 55 -28 125 -70 155 -94 30 -23 98 -64 150
-90 52 -26 120 -66 150 -90 30 -23 101 -66 158 -94 71 -36 124 -71 174 -117
58 -53 102 -81 232 -146 89 -44 186 -99 216 -123 30 -23 71 -50 90 -60 19 -9
60 -36 90 -59 30 -23 77 -55 103 -70 171 -98 192 -196 59 -273 -26 -15 -72
-46 -102 -69 -30 -23 -71 -50 -90 -59 -19 -10 -60 -37 -90 -60 -30 -24 -71
-51 -90 -60 -19 -10 -60 -37 -90 -60 -30 -24 -98 -64 -150 -90 -52 -26 -120
-67 -150 -90 -30 -24 -98 -64 -150 -90 -52 -26 -120 -67 -150 -90 -30 -24 -98
-64 -150 -90 -52 -26 -120 -67 -150 -90 -30 -24 -71 -51 -90 -60 -19 -10 -60
-37 -90 -60 -30 -24 -98 -64 -150 -90 -52 -26 -120 -67 -150 -90 -30 -24 -98
-64 -150 -90 -52 -26 -120 -67 -150 -90 -30 -24 -98 -64 -150 -90 -52 -26
-120 -67 -150 -90 -30 -24 -100 -66 -156 -93 -71 -35 -123 -70 -172 -116 -58
-53 -103 -81 -234 -147 -90 -45 -188 -101 -218 -124 -30 -24 -97 -64 -149 -90
-52 -26 -122 -68 -155 -93 -160 -122 -418 -227 -556 -227 -138 0 -396 105
-556 227 -34 25 -107 69 -163 97 -70 36 -123 71 -173 117 -49 46 -102 81 -172
116 -56 27 -126 69 -156 93 -30 23 -125 77 -210 120 -85 42 -180 96 -210 120
-30 23 -71 50 -90 60 -19 9 -60 36 -90 59 -30 23 -76 54 -102 69 -153 88 -80
235 182 367 58 29 130 72 160 95 30 24 98 64 150 90 52 26 120 67 150 90 30
24 98 64 150 90 52 26 120 67 150 90 30 24 98 64 150 90 52 26 120 67 150 90
30 24 100 66 156 93 70 35 123 70 172 116 60 54 82 68 141 86 44 13 91 36 128
64 32 24 74 51 93 61 19 10 60 37 90 60 30 24 98 64 150 90 52 26 120 67 150
90 30 24 98 64 150 90 52 26 120 67 150 90 30 24 98 64 150 90 52 26 120 67
150 90 30 24 71 51 90 60 19 10 60 37 90 60 30 24 98 64 150 90 52 26 120 67
150 90 30 24 98 64 150 90 52 26 120 67 150 90 56 44 233 138 305 161 84 28
198 13 263 -34z"/>
<path d="M14867 10856 c-20 -7 -61 -32 -90 -54 -28 -22 -122 -75 -207 -117
-85 -43 -180 -97 -210 -120 -30 -24 -127 -79 -216 -123 -130 -65 -174 -93
-232 -146 -39 -36 -90 -75 -114 -87 -24 -12 -68 -41 -98 -64 -30 -24 -125 -78
-210 -120 -85 -43 -180 -97 -210 -120 -30 -24 -75 -53 -100 -65 -72 -35 -443
-413 -458 -466 -17 -59 -17 -3629 0 -3688 23 -83 448 -492 578 -556 58 -29
130 -71 160 -95 30 -23 98 -64 150 -90 52 -26 120 -66 150 -90 30 -23 71 -50
90 -60 19 -9 60 -36 90 -60 30 -23 98 -64 150 -90 52 -26 120 -66 150 -90 30
-23 98 -64 150 -90 52 -26 120 -66 150 -90 30 -23 71 -50 90 -60 19 -9 60 -36
90 -60 30 -23 98 -64 150 -90 52 -26 120 -66 150 -90 30 -23 98 -64 150 -90
52 -26 120 -66 151 -90 97 -72 289 -128 423 -123 115 4 412 133 545 236 31 24
101 67 156 94 55 28 125 70 155 93 30 24 98 64 150 90 52 26 120 67 150 90 30
24 98 64 150 90 52 26 120 67 150 90 30 24 98 64 150 90 52 26 120 67 150 90
30 24 75 53 100 65 75 38 264 235 280 292 18 66 8 190 -19 250 -12 26 -26 81
-31 123 -14 110 -114 236 -232 296 -24 12 -68 40 -98 64 -30 23 -71 50 -90 60
-19 9 -60 36 -90 60 -30 23 -98 64 -150 90 -52 26 -120 66 -150 90 -30 23 -71
50 -90 60 -19 9 -60 36 -90 60 -30 23 -98 64 -150 90 -52 26 -120 66 -150 90
-30 23 -101 66 -158 94 -71 36 -124 71 -174 117 -49 46 -102 81 -172 116 -56
27 -126 69 -156 93 -30 23 -101 66 -158 94 -226 113 -226 114 -232 536 -6 336
-6 341 -30 390 -36 73 -36 215 0 295 25 55 25 55 25 1085 0 1127 3 1092 -113
1227 -16 18 -47 65 -70 103 -115 199 -313 327 -435 281z m172 -214 c80 -58 61
-107 -67 -175 -55 -29 -121 -75 -162 -112 -57 -53 -80 -67 -139 -85 -44 -13
-91 -36 -128 -64 -32 -24 -74 -51 -93 -61 -19 -10 -60 -37 -90 -60 -30 -24
-98 -64 -150 -90 -52 -26 -120 -67 -150 -90 -30 -24 -98 -64 -150 -90 -52 -26
-120 -67 -150 -90 -30 -24 -102 -66 -160 -95 -129 -64 -497 -415 -519 -495
-14 -53 -15 -3094 -1 -3145 5 -19 28 -57 50 -84 22 -26 54 -74 71 -106 41 -77
331 -366 405 -403 27 -14 70 -42 94 -62 24 -20 89 -59 145 -87 55 -27 125 -69
155 -93 30 -23 98 -64 150 -90 52 -26 120 -66 150 -90 30 -23 98 -64 150 -90
52 -26 120 -66 150 -90 30 -23 71 -50 90 -60 19 -9 60 -36 90 -60 30 -23 98
-64 150 -90 52 -26 120 -66 150 -90 30 -23 98 -64 150 -90 52 -26 120 -66 150
-90 30 -23 70 -50 87 -59 92 -47 136 -122 113 -192 -21 -64 -131 -56 -230 16
-30 22 -100 63 -155 91 -55 28 -125 70 -155 94 -30 23 -98 64 -150 90 -52 26
-120 66 -150 90 -30 23 -71 50 -90 60 -19 9 -60 36 -90 60 -30 23 -98 64 -150
90 -52 26 -120 66 -150 90 -30 23 -98 64 -150 90 -52 26 -120 66 -150 90 -30
23 -73 52 -96 63 -22 11 -60 37 -84 57 -24 20 -89 59 -145 87 -55 27 -125 69
-155 93 -30 23 -102 66 -160 95 -118 59 -352 271 -391 355 -29 62 -29 3647 0
3710 24 51 212 235 271 265 25 13 70 42 100 65 30 24 125 78 210 120 85 43
180 97 210 120 30 24 74 52 96 64 23 11 74 50 113 85 57 53 102 81 233 147 90
45 188 101 218 124 30 24 124 78 209 120 85 42 178 95 207 117 83 62 183 75
243 30z m206 -325 c47 -47 46 -34 43 -864 -3 -741 -3 -741 -27 -767 -34 -36
-80 -34 -170 9 -173 83 -266 -22 -103 -118 32 -19 78 -49 103 -68 25 -19 73
-45 108 -58 98 -36 122 -150 60 -291 -35 -80 -35 -222 1 -300 25 -54 25 -60
28 -355 5 -425 8 -414 -171 -506 -56 -29 -127 -71 -157 -95 -30 -23 -125 -77
-210 -119 -85 -43 -180 -97 -210 -120 -30 -24 -71 -51 -90 -60 -19 -10 -60
-37 -90 -60 -30 -24 -98 -64 -150 -90 -52 -26 -120 -67 -150 -90 -30 -24 -71
-51 -90 -60 -19 -10 -60 -37 -90 -61 -82 -64 -493 -264 -542 -264 -73 0 -68
-112 -68 1597 0 1774 -18 1554 141 1709 90 88 118 109 209 154 58 29 130 72
160 95 30 24 98 64 150 90 52 26 120 67 150 90 30 24 98 64 150 90 52 26 120
67 150 90 30 24 70 50 89 60 18 9 59 36 91 59 32 24 80 49 106 55 68 17 99 36
171 103 48 45 95 74 186 119 145 70 175 73 222 26z m303 -3475 c31 -23 102
-65 157 -93 55 -28 125 -70 155 -94 30 -23 101 -66 158 -94 71 -36 124 -71
174 -117 49 -46 102 -81 172 -116 56 -27 126 -69 156 -93 30 -23 98 -64 150
-90 52 -26 120 -66 150 -90 30 -23 71 -50 90 -60 19 -9 60 -36 90 -60 30 -23
98 -64 150 -90 52 -26 120 -66 150 -90 30 -23 71 -50 90 -60 62 -32 208 -146
214 -168 8 -34 -15 -70 -69 -104 -28 -18 -77 -52 -110 -76 -33 -25 -103 -66
-155 -92 -52 -26 -120 -67 -150 -90 -30 -24 -98 -64 -150 -90 -52 -26 -120
-67 -150 -90 -30 -24 -98 -64 -150 -90 -52 -26 -120 -67 -150 -90 -30 -24 -97
-64 -149 -90 -52 -26 -122 -68 -155 -93 -92 -70 -473 -255 -524 -255 -53 0
-205 72 -288 135 -34 25 -103 67 -155 93 -52 26 -119 66 -149 90 -30 23 -98
64 -150 90 -52 26 -120 66 -150 90 -30 23 -71 50 -90 60 -19 9 -60 36 -90 60
-30 23 -98 64 -150 90 -52 26 -120 66 -150 90 -30 23 -98 64 -150 90 -52 26
-120 66 -150 90 -30 23 -98 64 -150 90 -52 26 -120 66 -150 89 -30 24 -79 55
-107 71 -74 40 -163 134 -163 174 0 41 29 61 230 161 91 46 190 102 220 125
30 24 71 51 90 60 19 10 60 37 90 60 30 24 98 64 150 90 52 26 120 67 150 90
30 24 71 51 90 60 19 10 60 37 90 60 30 24 125 78 210 120 85 43 180 97 210
120 56 44 233 138 305 161 84 28 198 13 263 -34z m2128 -1639 c33 -78 -9 -169
-100 -215 -23 -11 -66 -40 -96 -63 -30 -24 -98 -64 -150 -90 -52 -26 -120 -67
-150 -90 -30 -24 -98 -64 -150 -90 -52 -26 -120 -67 -150 -90 -30 -24 -98 -64
-150 -90 -52 -26 -120 -67 -150 -90 -30 -24 -98 -64 -150 -90 -52 -26 -120
-67 -150 -91 -79 -62 -374 -204 -423 -204 -48 0 -73 46 -62 117 10 71 48 103
228 194 89 45 187 101 217 124 30 24 98 64 150 90 52 26 120 67 150 90 30 24
98 64 150 90 52 26 120 67 150 90 30 24 98 64 150 90 52 26 120 67 150 90 30
24 98 64 150 90 52 26 114 63 138 82 117 95 222 119 248 56z"/>
<path d="M14279 9391 c-116 -74 -289 -344 -289 -450 0 -144 255 -245 401 -159
178 104 259 407 146 543 -78 95 -174 120 -258 66z m98 -244 c27 -82 -27 -177
-100 -177 -65 0 -73 38 -26 126 56 108 102 126 126 51z"/>
<path d="M16367 7872 c-36 -40 -9 -102 45 -102 51 0 78 69 40 103 -24 22 -65
21 -85 -1z"/>
<path d="M17207 7392 c-57 -63 50 -191 237 -283 55 -28 126 -70 156 -93 30
-23 76 -54 101 -69 99 -57 158 -166 169 -315 9 -121 17 -140 89 -216 32 -33
76 -92 99 -131 123 -213 312 -327 423 -256 126 81 179 165 189 304 9 114 19
134 96 184 246 160 259 237 75 426 -94 97 -138 127 -221 151 -30 8 -79 33
-108 55 -106 80 -208 73 -457 -33 -127 -54 -292 -21 -431 86 -34 25 -103 67
-154 93 -51 26 -115 62 -143 81 -55 38 -96 43 -120 16z m1197 -408 c24 -23 12
-232 -16 -291 -82 -176 -294 -190 -318 -22 -5 36 -16 82 -25 102 -35 85 -3
146 93 173 32 8 77 24 102 34 56 24 142 26 164 4z m321 -149 c35 -34 33 -78
-4 -116 -50 -50 -96 -35 -107 33 -15 89 54 141 111 83z m-287 -458 c44 -46 37
-140 -13 -167 -59 -31 -155 24 -155 89 0 79 116 133 168 78z"/>
</g>
</svg>
