<?xml version="1.0" standalone="no"?>
<!DOCTYPE svg PUBLIC "-//W3C//DTD SVG 20010904//EN"
 "http://www.w3.org/TR/2001/REC-SVG-20010904/DTD/svg10.dtd">
<svg version="1.0" xmlns="http://www.w3.org/2000/svg"
 width="1920.000000pt" height="1920.000000pt" viewBox="0 0 1920.000000 1920.000000"
 preserveAspectRatio="xMidYMid meet">
<metadata>
Created by potrace 1.16, written by Peter Selinger 2001-2019
</metadata>
<g transform="translate(0.000000,1920.000000) scale(0.100000,-0.100000)"
fill="#f97316" stroke="none">
<path d="M5255 16674 c-42 -17 -116 -36 -200 -53 -79 -15 -201 -59 -315 -112
-58 -26 -127 -54 -155 -60 -27 -7 -89 -32 -137 -55 -48 -24 -117 -53 -155 -64
-147 -43 -232 -74 -333 -121 -58 -26 -127 -54 -155 -60 -27 -7 -89 -32 -137
-55 -48 -24 -118 -52 -155 -63 -38 -10 -105 -37 -150 -60 -45 -22 -112 -49
-150 -60 -38 -10 -105 -37 -150 -60 -45 -22 -112 -49 -150 -60 -38 -10 -105
-37 -150 -60 -45 -22 -112 -50 -150 -61 -263 -77 -477 -177 -575 -268 -79 -74
-91 -80 -180 -92 -40 -5 -94 -18 -120 -30 -26 -11 -80 -25 -122 -30 -204 -26
-502 -287 -644 -565 -77 -150 -77 -150 -80 -3267 -2 -2840 -1 -3121 14 -3160
9 -24 27 -77 40 -118 13 -41 36 -111 50 -155 35 -110 94 -232 137 -283 20 -24
51 -70 68 -102 39 -73 331 -366 399 -400 25 -12 70 -41 100 -65 30 -23 98 -64
150 -90 52 -26 120 -66 150 -90 30 -23 125 -77 210 -120 85 -42 180 -96 210
-120 30 -23 125 -77 210 -120 85 -42 180 -96 210 -120 30 -23 71 -50 90 -60
19 -9 60 -36 90 -60 30 -23 206 -118 390 -210 184 -92 360 -186 390 -209 30
-24 128 -80 217 -125 182 -92 217 -122 229 -196 10 -67 0 -142 -23 -173 -26
-35 -435 -245 -523 -268 -298 -79 -462 -317 -468 -678 -5 -289 -33 -237 312
-582 222 -222 305 -299 351 -324 33 -18 85 -56 115 -85 104 -98 25 -90 858
-93 876 -3 829 -10 942 148 38 53 55 68 96 84 173 65 202 84 358 236 187 183
201 201 230 296 13 44 31 97 40 119 42 110 18 337 -45 420 -45 60 -59 94 -59
143 0 129 -59 186 -326 320 -109 54 -222 105 -251 111 -29 7 -77 31 -112 56
-34 23 -89 52 -122 65 -80 29 -89 49 -89 209 0 92 -5 134 -20 185 -18 57 -19
70 -8 93 16 33 183 124 283 152 143 42 233 74 335 122 58 26 128 54 155 60 28
7 89 32 137 55 48 24 117 52 155 62 95 27 437 200 494 251 110 96 144 200 142
424 -4 307 -4 332 -1 415 5 138 -136 349 -284 423 -24 11 -68 40 -98 64 -30
23 -71 50 -90 60 -19 9 -60 36 -90 60 -30 23 -179 104 -330 180 -151 75 -300
156 -330 180 -69 53 -297 168 -369 185 -117 28 -141 76 -141 288 0 209 1 210
155 240 28 5 75 19 105 30 59 22 113 40 230 78 41 13 111 36 155 50 117 38
211 83 274 132 31 24 77 55 103 68 125 64 224 188 238 299 5 42 19 97 31 123
33 71 37 199 10 277 -26 74 -26 96 0 170 108 307 -108 613 -609 864 -237 119
-271 133 -338 141 -42 5 -96 20 -122 32 -41 19 -70 22 -237 28 -170 5 -195 8
-240 29 -34 16 -79 25 -143 30 -158 13 -146 -26 -150 524 -3 503 -1 532 45
544 67 16 326 -89 443 -181 30 -24 152 -92 270 -151 118 -59 240 -126 270
-150 30 -23 98 -64 150 -90 52 -26 120 -66 150 -90 30 -23 125 -77 210 -120
85 -42 180 -96 210 -120 30 -23 71 -50 90 -60 19 -9 60 -36 90 -60 30 -23 125
-77 210 -120 85 -42 180 -96 210 -120 30 -23 125 -77 210 -120 85 -42 180 -96
210 -120 30 -23 125 -77 210 -120 85 -42 180 -96 210 -120 30 -23 125 -77 210
-120 85 -42 180 -96 210 -120 30 -23 98 -64 150 -90 52 -26 120 -66 150 -90
30 -23 125 -77 210 -120 85 -42 180 -96 210 -120 30 -23 125 -77 210 -120 85
-42 180 -96 210 -120 30 -23 125 -77 210 -120 85 -42 180 -96 210 -120 30 -23
125 -77 210 -120 85 -42 180 -96 210 -120 30 -23 98 -64 150 -90 52 -26 120
-66 150 -90 30 -23 98 -64 150 -90 52 -26 120 -66 150 -90 30 -23 98 -64 150
-90 52 -26 120 -66 150 -90 30 -23 152 -91 270 -150 118 -59 240 -126 270
-150 30 -23 98 -64 150 -90 52 -26 121 -67 153 -91 38 -28 84 -51 130 -65 40
-12 110 -40 157 -64 47 -23 101 -46 120 -50 19 -4 62 -17 95 -29 219 -82 276
-96 399 -96 75 0 140 -6 181 -16 60 -15 70 -15 130 0 35 9 90 16 121 16 55 0
169 32 339 96 33 12 76 25 95 29 52 11 167 72 230 121 104 81 300 167 394 172
78 4 191 34 361 98 33 12 76 25 95 29 19 4 74 27 122 51 48 24 117 52 155 62
37 11 132 51 210 91 78 39 173 80 210 91 89 26 213 67 288 95 33 13 76 26 95
30 19 4 101 41 182 81 81 41 178 83 215 94 163 48 238 76 393 151 91 43 190
85 220 93 142 39 234 77 475 194 260 127 260 127 477 341 237 234 260 261 277
337 12 52 26 76 74 137 15 19 37 67 47 106 11 40 54 139 95 222 64 127 77 162
85 225 5 42 20 96 32 122 31 63 42 1624 13 1704 -31 85 -44 124 -55 166 -24
94 -225 273 -345 307 -97 27 -174 74 -270 166 -108 102 -101 98 -255 149 -173
57 -250 42 -570 -111 -91 -43 -190 -85 -220 -93 -113 -31 -218 -69 -320 -117
-58 -26 -127 -54 -155 -60 -27 -7 -89 -32 -137 -55 -48 -24 -118 -52 -155 -63
-38 -10 -105 -37 -150 -60 -45 -22 -112 -49 -150 -60 -38 -10 -105 -37 -150
-60 -45 -22 -112 -49 -150 -60 -38 -10 -105 -37 -150 -60 -45 -22 -112 -49
-150 -59 -346 -96 -813 -480 -979 -804 -82 -161 -119 -204 -163 -193 -53 12
-358 168 -411 209 -30 24 -125 78 -210 121 -85 42 -180 96 -210 120 -30 23
-125 77 -210 120 -85 42 -180 96 -210 120 -30 23 -125 77 -210 120 -85 42
-180 96 -210 120 -30 23 -98 64 -150 90 -52 26 -120 66 -150 90 -30 23 -152
91 -270 150 -118 59 -240 126 -270 150 -30 23 -71 50 -90 60 -19 9 -60 36 -90
60 -30 23 -125 77 -210 120 -85 42 -180 96 -210 120 -30 23 -98 64 -150 90
-52 26 -120 66 -150 90 -30 23 -152 91 -270 150 -118 59 -240 126 -270 150
-30 23 -125 77 -210 120 -85 42 -180 96 -210 120 -30 23 -98 64 -150 90 -52
26 -120 66 -150 90 -30 23 -125 77 -210 120 -85 42 -180 96 -210 120 -30 23
-125 77 -210 120 -85 42 -180 96 -210 120 -30 23 -125 77 -210 120 -85 42
-180 96 -210 120 -30 23 -125 77 -210 120 -85 42 -180 96 -210 120 -30 23 -71
50 -90 60 -19 9 -60 36 -90 60 -30 23 -98 64 -150 90 -52 26 -120 66 -150 90
-30 23 -152 91 -270 150 -118 59 -240 126 -270 150 -30 23 -125 77 -210 120
-85 42 -180 96 -210 120 -106 82 -669 354 -756 365 -42 5 -96 20 -122 32 -64
29 -265 37 -327 12z m320 -212 c28 -13 84 -27 125 -32 89 -11 622 -266 736
-352 34 -26 131 -81 215 -123 85 -42 179 -96 209 -120 30 -23 152 -91 270
-150 118 -59 240 -126 270 -150 30 -23 98 -64 150 -90 52 -26 120 -66 150 -90
30 -23 71 -50 90 -60 19 -9 60 -36 90 -60 30 -23 125 -77 210 -120 85 -42 180
-96 210 -120 30 -23 125 -77 210 -120 85 -42 180 -96 210 -120 30 -23 125 -77
210 -120 85 -42 180 -96 210 -120 30 -23 125 -77 210 -120 85 -42 180 -96 210
-120 30 -23 98 -64 150 -90 52 -26 120 -66 150 -90 30 -23 125 -77 210 -120
85 -42 180 -96 210 -120 30 -23 152 -91 270 -150 118 -59 240 -126 270 -150
30 -23 98 -64 150 -90 52 -26 120 -66 150 -90 30 -23 125 -77 210 -120 85 -42
180 -96 210 -120 30 -23 71 -50 90 -60 19 -9 60 -36 90 -60 30 -23 152 -91
270 -150 118 -59 240 -126 270 -150 30 -23 98 -64 150 -90 52 -26 120 -66 150
-90 30 -23 125 -77 210 -120 85 -42 180 -96 210 -120 30 -23 125 -77 210 -120
85 -42 180 -96 210 -120 30 -23 125 -77 210 -120 85 -42 180 -96 210 -120 30
-23 123 -77 207 -118 169 -85 218 -122 233 -175 25 -85 8 -1200 -18 -1257 -17
-36 -26 -78 -32 -151 -5 -68 -14 -116 -29 -150 -12 -27 -26 -82 -31 -122 -5
-40 -18 -94 -29 -120 -11 -26 -27 -73 -36 -105 -13 -46 -29 -72 -86 -134 -53
-58 -73 -89 -85 -129 -21 -74 -42 -96 -141 -148 -49 -26 -113 -65 -144 -87
-55 -40 -60 -41 -160 -49 -75 -6 -118 -14 -154 -31 -36 -17 -68 -23 -115 -23
-47 0 -79 6 -115 23 -36 16 -79 25 -150 31 -61 4 -119 15 -150 27 -57 23 -177
64 -278 93 -89 26 -159 62 -227 115 -30 23 -125 77 -210 120 -85 42 -180 96
-210 120 -30 23 -125 77 -210 120 -85 42 -180 96 -210 120 -30 23 -71 50 -90
60 -19 9 -60 36 -90 60 -30 23 -98 64 -150 90 -52 26 -120 66 -150 90 -30 23
-209 119 -398 214 -311 156 -348 177 -414 237 -61 56 -102 81 -292 176 -122
60 -246 129 -276 153 -30 23 -71 50 -90 60 -19 9 -60 36 -90 60 -30 23 -125
77 -210 120 -85 42 -180 96 -210 120 -30 23 -125 77 -210 120 -85 42 -180 96
-210 120 -30 23 -152 91 -270 150 -118 59 -240 126 -270 150 -30 23 -125 77
-210 120 -85 42 -180 96 -210 120 -30 23 -125 77 -210 120 -85 42 -180 96
-210 120 -30 23 -98 64 -150 90 -52 26 -120 66 -150 90 -30 23 -71 50 -90 60
-19 9 -60 36 -90 60 -30 23 -125 77 -210 120 -85 42 -180 96 -210 120 -30 23
-152 91 -270 150 -118 59 -240 126 -270 150 -30 23 -98 64 -150 90 -52 26
-120 66 -150 90 -30 23 -125 77 -210 120 -85 42 -180 96 -210 120 -30 23 -125
77 -210 120 -85 42 -180 96 -210 120 -30 23 -98 64 -150 90 -52 26 -120 66
-150 90 -30 23 -152 91 -270 150 -118 59 -240 126 -270 150 -30 23 -125 77
-210 120 -85 42 -180 96 -210 120 -30 23 -125 77 -210 120 -85 42 -180 96
-210 120 -30 23 -71 50 -90 60 -19 10 -61 37 -93 61 -35 26 -84 51 -122 63
-36 10 -88 36 -116 57 -29 22 -127 77 -218 124 -185 95 -209 117 -181 168 19
34 223 142 325 171 144 42 233 74 335 122 58 26 128 54 155 60 28 7 89 32 137
55 48 24 118 52 155 63 38 10 105 37 150 60 45 22 112 49 150 60 38 10 105 37
150 60 45 22 112 49 150 60 38 10 105 37 150 60 45 22 112 50 150 61 147 43
232 74 333 121 58 26 128 54 155 60 28 7 89 32 137 55 48 24 117 53 155 63 37
11 93 29 123 40 30 11 71 20 90 21 37 0 60 6 150 40 78 29 252 25 325 -8z
m-3652 -1363 c24 -6 65 -35 109 -75 57 -53 102 -81 232 -146 89 -44 187 -100
219 -124 35 -26 84 -51 123 -63 37 -11 87 -36 117 -59 29 -21 68 -47 87 -57
19 -9 60 -36 90 -60 30 -23 125 -77 210 -120 85 -42 180 -96 210 -120 30 -23
125 -77 210 -120 85 -42 180 -96 210 -120 30 -23 152 -91 270 -150 118 -59
240 -126 270 -150 30 -23 98 -64 150 -90 52 -26 120 -66 150 -90 30 -23 125
-77 210 -120 85 -42 180 -96 210 -120 30 -23 125 -77 210 -120 85 -42 180 -96
210 -120 30 -23 98 -64 150 -90 52 -26 120 -66 150 -90 30 -23 152 -91 270
-150 118 -59 240 -126 270 -150 30 -23 125 -77 210 -120 85 -42 180 -96 210
-120 30 -23 71 -50 90 -60 19 -9 60 -36 90 -60 30 -23 98 -64 150 -90 52 -26
120 -66 150 -90 30 -23 125 -77 210 -120 85 -42 180 -96 210 -120 30 -23 125
-77 210 -120 85 -42 180 -96 210 -120 30 -23 152 -91 270 -150 118 -59 240
-126 270 -150 30 -23 125 -77 210 -120 85 -42 180 -96 210 -120 30 -23 125
-77 210 -120 85 -42 180 -96 210 -120 30 -23 71 -50 90 -60 19 -9 60 -36 90
-60 30 -23 155 -93 278 -154 191 -96 232 -120 294 -177 65 -60 102 -81 412
-236 189 -94 366 -189 396 -213 30 -23 98 -64 150 -90 52 -26 120 -66 150 -90
30 -23 71 -50 90 -60 19 -9 60 -36 90 -60 30 -23 125 -77 210 -120 85 -42 180
-96 210 -120 30 -23 125 -77 210 -120 85 -42 180 -96 210 -120 63 -49 179
-109 230 -120 19 -4 62 -17 95 -29 176 -66 283 -96 343 -96 42 0 91 -10 152
-30 112 -37 128 -37 240 0 63 21 110 30 155 30 76 0 120 16 189 69 28 21 98
62 156 91 131 65 261 186 280 261 24 94 35 116 84 169 82 89 86 94 107 170 11
40 26 85 35 101 8 16 19 63 24 105 5 41 19 96 31 122 14 32 24 80 29 148 5 73
14 113 31 150 24 49 24 49 29 719 5 624 6 673 23 710 11 22 28 71 38 109 98
347 463 686 856 795 38 10 105 37 150 60 45 22 112 49 150 60 38 10 105 37
150 60 45 22 112 49 150 60 38 10 105 37 150 60 45 22 112 49 150 60 38 10
105 37 150 60 45 22 112 49 150 60 38 10 105 37 150 60 45 22 112 50 150 61
163 48 238 76 393 151 91 43 190 85 220 93 30 8 80 24 110 35 69 26 111 26
180 0 30 -11 77 -26 103 -35 175 -55 58 -205 -219 -282 -38 -11 -106 -38 -151
-61 -45 -22 -112 -49 -150 -60 -38 -10 -105 -37 -150 -60 -45 -22 -112 -50
-150 -61 -157 -45 -262 -88 -313 -125 -29 -21 -79 -46 -114 -56 -33 -9 -78
-24 -99 -33 -21 -9 -71 -21 -112 -26 -65 -8 -100 -22 -284 -115 -116 -57 -241
-113 -278 -124 -208 -57 -317 -132 -601 -415 -314 -311 -317 -315 -343 -407
-11 -39 -27 -86 -37 -103 -15 -28 -17 -91 -22 -671 -5 -640 -5 -640 -29 -690
-21 -44 -25 -70 -31 -210 -5 -137 -9 -167 -29 -210 -16 -35 -25 -79 -31 -150
-4 -61 -15 -119 -27 -150 -23 -57 -63 -177 -93 -278 -11 -38 -39 -105 -61
-150 -23 -45 -50 -113 -61 -150 -35 -130 -87 -208 -167 -254 -25 -15 -71 -46
-101 -69 -69 -53 -139 -88 -227 -114 -101 -29 -221 -70 -278 -92 -29 -12 -89
-24 -145 -28 -52 -4 -114 -13 -138 -19 -32 -9 -52 -9 -80 0 -20 6 -109 14
-197 18 -127 6 -170 12 -210 28 -55 23 -173 62 -278 93 -38 11 -107 40 -155
64 -48 24 -111 49 -140 56 -33 7 -75 29 -112 56 -33 24 -101 64 -152 90 -51
25 -118 65 -148 89 -30 23 -152 91 -270 150 -118 59 -240 126 -270 150 -30 23
-98 64 -150 90 -52 26 -120 66 -150 90 -30 23 -98 64 -150 90 -52 26 -120 66
-150 90 -30 23 -98 64 -150 90 -52 26 -120 66 -150 90 -30 23 -125 77 -210
120 -85 42 -180 96 -210 120 -30 23 -125 77 -210 120 -85 42 -180 96 -210 120
-30 23 -125 77 -210 120 -85 42 -180 96 -210 120 -30 23 -125 77 -210 120 -85
42 -180 96 -210 120 -30 23 -98 64 -150 90 -52 26 -120 66 -150 90 -30 23
-125 77 -210 120 -85 42 -180 96 -210 120 -30 23 -125 77 -210 120 -85 42
-180 96 -210 120 -30 23 -125 77 -210 120 -85 42 -180 96 -210 120 -30 23
-125 77 -210 120 -85 42 -180 96 -210 120 -30 23 -71 50 -90 60 -19 9 -60 36
-90 60 -30 23 -125 77 -210 120 -85 42 -180 96 -210 120 -30 23 -98 64 -150
90 -52 26 -120 66 -150 90 -30 23 -152 91 -270 150 -118 59 -240 126 -270 150
-72 55 -286 162 -375 187 -95 26 -187 79 -263 149 -34 32 -82 68 -105 80 -23
12 -67 40 -97 64 -30 23 -98 64 -150 90 -52 26 -120 66 -150 90 -30 23 -125
77 -210 120 -85 42 -180 96 -210 120 -30 23 -71 50 -90 60 -19 9 -60 36 -90
60 -30 23 -179 104 -330 180 -151 75 -300 156 -330 180 -30 23 -98 64 -150 90
-52 26 -120 66 -150 90 -30 23 -100 65 -155 93 -55 27 -125 70 -156 94 -147
114 -309 173 -479 173 -150 0 -157 -1 -200 -26 -71 -42 -233 -216 -248 -265
-17 -60 -18 -6028 0 -6087 16 -52 98 -136 168 -172 30 -15 96 -68 151 -120 54
-52 117 -104 141 -115 24 -12 68 -41 98 -65 30 -23 125 -77 210 -120 85 -42
180 -96 210 -120 30 -23 125 -77 210 -120 85 -42 180 -96 210 -120 30 -23 125
-77 210 -120 85 -42 180 -96 210 -120 30 -23 98 -64 150 -90 52 -26 120 -66
150 -90 61 -47 535 -288 590 -300 19 -4 62 -17 95 -30 33 -12 82 -30 109 -40
71 -26 78 -50 74 -241 -4 -200 -10 -209 -147 -209 -99 0 -381 123 -517 227
-35 27 -203 117 -395 213 -184 92 -359 186 -389 209 -30 24 -71 51 -90 61 -19
9 -60 36 -90 60 -30 23 -125 77 -210 120 -85 42 -180 96 -210 120 -30 23 -125
77 -210 120 -85 42 -180 96 -210 120 -30 23 -98 64 -150 90 -52 26 -120 66
-150 89 -30 24 -78 55 -107 71 -66 35 -192 164 -226 231 -14 27 -42 70 -62 94
-47 56 -89 140 -115 227 -32 110 -71 224 -94 278 -21 50 -21 50 -21 3176 0
3126 0 3126 68 3264 116 236 265 361 460 385 43 5 88 15 100 22 66 35 137 45
200 27z m307 -894 c68 -33 152 -81 186 -107 34 -25 103 -67 155 -93 52 -26
119 -66 149 -90 30 -23 98 -64 150 -90 52 -26 120 -66 150 -90 30 -23 179
-104 330 -180 151 -75 300 -156 330 -179 30 -24 71 -51 90 -61 19 -9 60 -36
90 -60 30 -23 125 -77 210 -120 85 -42 180 -96 210 -120 30 -23 98 -64 150
-90 138 -69 276 -176 290 -223 23 -78 9 -1166 -15 -1198 -51 -68 -121 -88
-330 -95 -167 -5 -196 -8 -237 -27 -26 -12 -81 -27 -122 -32 -42 -5 -89 -16
-105 -24 -16 -9 -59 -24 -97 -34 -88 -25 -303 -132 -374 -187 -30 -24 -75 -53
-99 -65 -84 -42 -244 -210 -298 -314 -75 -142 -75 -790 0 -932 54 -104 214
-272 298 -314 24 -12 69 -41 99 -65 97 -75 309 -174 396 -185 116 -15 234 -78
234 -125 0 -42 -126 -117 -257 -153 -38 -11 -105 -38 -150 -61 -45 -22 -112
-49 -150 -60 -38 -10 -105 -37 -150 -60 -45 -22 -112 -49 -150 -60 -38 -10
-105 -37 -150 -60 -45 -22 -112 -49 -150 -60 -38 -10 -105 -37 -150 -60 -45
-22 -112 -49 -150 -60 -38 -10 -105 -37 -150 -60 -45 -22 -112 -49 -150 -60
-38 -10 -104 -36 -148 -59 -44 -22 -112 -49 -150 -61 -43 -12 -96 -38 -135
-66 -77 -54 -122 -60 -161 -19 -23 24 -46 5875 -24 6002 25 142 299 171 535
57z m16040 -1036 c30 -11 84 -28 119 -38 83 -25 117 -59 142 -142 10 -35 28
-90 39 -122 34 -95 27 -1627 -8 -1702 -13 -27 -27 -83 -32 -124 -7 -63 -20
-99 -89 -240 -44 -91 -87 -191 -96 -222 -9 -36 -30 -75 -55 -105 -22 -27 -45
-67 -51 -89 -25 -102 -37 -119 -177 -257 -137 -136 -137 -136 -379 -257 -133
-66 -273 -130 -310 -141 -163 -48 -238 -76 -393 -151 -91 -43 -190 -85 -220
-93 -129 -36 -225 -72 -380 -147 -91 -43 -190 -85 -220 -93 -66 -18 -192 -60
-275 -91 -33 -13 -76 -26 -95 -30 -19 -4 -101 -41 -182 -81 -81 -41 -178 -82
-215 -93 -38 -10 -105 -37 -150 -60 -45 -22 -112 -49 -150 -60 -37 -11 -93
-29 -123 -40 -297 -106 -332 -71 -202 208 48 102 78 185 123 335 11 38 27 82
36 99 9 19 19 73 23 132 5 72 14 115 30 151 20 42 24 72 30 209 5 142 9 166
30 210 25 50 25 50 30 690 5 630 5 641 27 690 12 28 29 77 38 110 16 58 24 67
213 258 215 216 330 293 518 345 38 11 164 67 281 125 145 72 227 107 260 112
123 15 300 77 373 130 28 21 80 46 114 57 143 42 227 73 326 119 58 26 128 54
155 60 28 7 89 32 137 55 48 24 117 52 155 62 84 24 298 130 369 184 83 62
140 72 234 37z m-13055 -1928 c46 -22 66 -25 240 -31 168 -5 196 -8 240 -28
28 -13 84 -27 125 -32 101 -12 549 -230 631 -307 79 -74 132 -190 137 -303 9
-181 -18 -234 -137 -270 -38 -11 -93 -38 -129 -64 -37 -26 -85 -50 -115 -57
-29 -7 -97 -34 -152 -61 -76 -36 -118 -50 -175 -58 -41 -5 -97 -19 -124 -31
-34 -15 -82 -24 -150 -29 -73 -6 -115 -15 -151 -32 -79 -37 -932 -36 -1010 1
-44 21 -70 25 -210 31 -120 5 -170 11 -200 24 -22 10 -71 27 -108 37 -38 11
-105 38 -150 60 -45 23 -112 50 -150 60 -37 11 -107 39 -155 63 -48 24 -111
49 -141 56 -112 26 -146 87 -139 255 5 154 69 275 173 327 22 12 65 40 95 63
70 55 258 149 347 174 37 10 85 26 106 35 21 9 70 21 110 26 40 5 95 19 122
32 45 20 71 23 240 28 135 4 197 10 215 20 63 35 103 39 335 37 221 -2 232 -3
280 -26z m-1885 -1172 c25 -5 92 -32 150 -59 58 -27 125 -54 150 -60 25 -6 92
-33 150 -59 199 -92 284 -115 455 -121 130 -5 157 -9 205 -30 85 -38 933 -39
1020 -1 39 17 85 26 155 31 67 5 116 15 147 29 26 12 80 26 122 31 56 7 97 20
163 54 48 24 119 53 157 64 40 12 97 40 135 67 168 115 287 74 231 -80 -12
-33 -26 -82 -32 -110 -24 -122 -22 -119 -121 -193 -107 -81 -169 -114 -264
-141 -37 -11 -93 -29 -123 -40 -71 -25 -136 -47 -230 -76 -41 -13 -92 -31
-113 -39 -21 -9 -70 -21 -110 -26 -40 -5 -94 -19 -122 -32 -50 -23 -55 -23
-540 -28 -437 -5 -494 -7 -527 -23 -62 -29 -100 -22 -162 30 -69 58 -303 163
-384 173 -92 12 -279 96 -377 171 -34 26 -79 56 -101 67 -106 54 -192 228
-170 346 12 65 42 77 136 55z m1783 -1028 c93 -6 116 -14 117 -43 0 -21 -36
-36 -104 -41 -46 -4 -101 -17 -143 -34 -46 -19 -86 -28 -123 -28 -37 0 -77 9
-123 28 -42 17 -97 30 -143 34 -90 7 -118 26 -94 63 15 25 376 37 613 21z
m-896 -119 c30 -19 33 -70 33 -675 1 -529 3 -617 16 -652 9 -22 27 -75 40
-118 38 -123 87 -176 229 -244 130 -62 587 -59 719 5 195 93 286 223 271 384
-4 46 -7 119 -6 163 5 173 4 252 -4 307 -5 36 -4 80 3 115 6 32 14 75 17 96 8
48 39 77 84 77 47 0 267 -106 341 -164 30 -24 179 -105 330 -181 151 -75 300
-156 330 -180 30 -23 73 -52 95 -63 309 -160 399 -444 147 -462 -78 -6 -100
-12 -198 -58 -60 -28 -134 -58 -164 -66 -117 -33 -219 -70 -320 -117 -58 -26
-127 -54 -155 -60 -27 -7 -116 -45 -197 -85 -81 -41 -178 -82 -215 -93 -38
-10 -105 -37 -150 -60 -45 -22 -112 -49 -150 -60 -37 -11 -93 -29 -123 -40
-64 -23 -126 -43 -230 -77 -41 -13 -100 -33 -130 -43 -82 -30 -399 -30 -480 0
-30 11 -86 29 -123 39 -91 27 -518 241 -587 295 -30 23 -98 64 -150 90 -52 26
-120 66 -150 90 -30 23 -125 77 -210 120 -85 42 -180 96 -210 120 -30 23 -125
77 -210 120 -85 42 -180 96 -210 120 -30 23 -125 77 -210 120 -85 42 -180 96
-210 119 -30 23 -76 54 -102 69 -101 58 -85 129 35 158 29 6 91 31 139 55 48
24 118 52 155 63 38 10 105 37 150 60 45 22 112 49 150 60 38 10 105 37 150
60 45 22 112 49 150 60 38 10 105 37 150 60 45 22 112 49 150 60 38 10 105 37
150 60 45 22 112 49 150 60 38 10 105 37 150 60 45 22 113 49 151 60 38 10
140 55 228 100 174 88 164 84 181 73z m523 -202 c112 -37 128 -37 242 1 156
52 278 30 278 -51 0 -41 -20 -59 -95 -86 -153 -56 -147 -55 -409 -52 -287 4
-301 8 -301 107 0 112 104 141 285 81z m559 -364 c38 -39 37 -114 -2 -153 -41
-41 -768 -44 -811 -4 -34 32 -34 70 0 102 25 24 27 24 297 29 209 4 278 8 297
19 83 47 176 50 219 7z m-33 -396 c80 -31 67 -129 -18 -145 -109 -20 -736 0
-762 24 -43 40 -26 102 34 124 29 10 718 7 746 -3z m0 -360 c89 -34 67 -122
-44 -177 -59 -29 -448 -48 -582 -28 -107 16 -185 173 -102 204 37 13 692 14
728 1z m1711 -503 c40 -39 47 -211 13 -282 -42 -87 -247 -216 -416 -263 -38
-11 -106 -38 -151 -61 -45 -22 -112 -49 -150 -60 -38 -10 -105 -37 -150 -60
-45 -22 -112 -50 -150 -61 -263 -77 -472 -175 -575 -268 -89 -81 -95 -83 -212
-92 -73 -6 -115 -15 -151 -32 -44 -20 -65 -23 -167 -23 -170 0 -172 2 -176
209 -4 191 3 215 74 241 27 9 69 25 94 35 25 10 70 25 100 34 70 20 197 62
275 91 33 13 76 26 95 30 19 4 74 27 122 51 48 24 117 52 155 62 37 11 132 51
210 91 78 39 173 79 210 90 38 10 105 37 150 60 45 22 112 50 150 61 147 43
232 74 333 120 156 72 263 81 317 27z m-1680 -1380 c72 -72 25 -171 -88 -187
-36 -5 -87 -20 -114 -32 -45 -21 -65 -23 -205 -23 -140 0 -160 2 -205 23 -27
12 -78 27 -113 32 -105 15 -145 76 -86 131 25 24 28 24 267 29 184 4 248 8
267 19 87 50 232 54 277 8z m-615 -419 c81 -35 337 -34 418 1 159 71 288 -20
189 -134 -47 -53 -71 -56 -444 -53 -387 3 -390 4 -390 107 0 106 92 138 227
79z m1038 -143 c39 -28 92 -54 135 -66 203 -60 365 -173 365 -255 0 -66 -2
-69 -239 -307 -266 -269 -286 -280 -401 -225 -39 19 -70 22 -235 28 -178 6
-194 9 -255 35 -92 39 -189 39 -280 -1 -64 -27 -70 -28 -315 -34 -229 -6 -254
-8 -295 -28 -112 -54 -129 -46 -380 203 -113 111 -226 216 -251 233 -98 66
-39 187 111 228 30 8 147 60 260 115 279 135 309 132 310 -28 1 -32 8 -76 16
-98 27 -70 43 -119 54 -161 23 -90 157 -208 282 -249 40 -13 93 -31 118 -40
109 -41 352 -26 465 28 200 97 359 289 341 415 -23 158 -18 193 32 232 42 34
89 26 162 -25z m-420 -244 c55 -35 -5 -124 -120 -180 -90 -43 -348 -59 -447
-28 -228 72 -262 111 -170 199 1 1 148 5 327 8 179 3 341 7 360 8 19 1 42 -2
50 -7z m-1752 -366 c49 -21 358 -327 383 -380 24 -52 27 -256 5 -310 -33 -78
-64 -60 -279 153 -224 221 -226 225 -227 374 0 170 23 202 118 163z m2776 0
c35 -35 34 -194 -2 -280 -11 -27 -28 -77 -37 -110 -24 -86 -136 -200 -251
-256 -153 -74 -197 -49 -202 113 -6 148 -2 154 196 350 191 190 251 227 296
183z m-1229 -385 c45 -21 68 -24 242 -29 268 -8 283 -21 295 -234 4 -73 10
-147 14 -164 25 -125 39 -123 -774 -123 -810 0 -788 -3 -746 111 11 28 19 92
23 176 10 222 17 226 354 233 192 4 258 8 277 19 83 48 227 52 315 11z"/>
</g>
</svg>
