<?xml version="1.0" standalone="no"?>
<!DOCTYPE svg PUBLIC "-//W3C//DTD SVG 20010904//EN"
 "http://www.w3.org/TR/2001/REC-SVG-20010904/DTD/svg10.dtd">
<svg version="1.0" xmlns="http://www.w3.org/2000/svg"
 width="1296.000000pt" height="516.000000pt" viewBox="0 0 1296.000000 516.000000"
 preserveAspectRatio="xMidYMid meet">
<metadata>
Created by potrace 1.16, written by Peter Selinger 2001-2019
</metadata>
<g transform="translate(0.000000,516.000000) scale(0.100000,-0.100000)"
fill="#f97316" stroke="none">
<path d="M1545 4256 c-77 -25 -165 -76 -227 -135 -35 -32 -90 -73 -123 -91
-86 -48 -277 -241 -293 -296 -17 -60 -17 -2429 0 -2488 14 -49 235 -281 308
-324 45 -27 45 -27 5240 -27 5195 0 5195 0 5280 41 146 70 246 176 284 300 13
44 31 98 40 122 15 39 16 154 14 1180 -3 1137 -3 1137 -51 1229 -68 129 -157
213 -308 288 -76 39 -130 74 -174 115 -34 32 -78 67 -96 77 -44 23 -9820 33
-9894 9z m9891 -212 c75 -56 69 45 72 -1085 2 -1003 2 -1009 -19 -1066 -11
-32 -25 -80 -30 -108 -23 -116 -30 -128 -84 -149 -27 -10 -72 -28 -100 -40
-78 -33 -9471 -38 -9563 -6 -31 11 -85 29 -120 39 -69 20 -108 49 -128 97 -19
45 -22 2257 -3 2280 14 17 61 43 99 55 69 21 9848 5 9876 -17z m-10200 -279
c12 -29 14 -182 14 -1017 0 -1141 -11 -1027 118 -1160 116 -120 126 -126 278
-177 191 -65 9477 -65 9668 0 217 73 316 169 336 324 5 42 20 97 32 123 23 47
23 47 28 967 5 982 4 965 54 965 27 0 45 -19 77 -80 41 -78 37 -2292 -5 -2400
-16 -41 -33 -88 -39 -103 -13 -37 -62 -73 -131 -97 -65 -23 -10327 -32 -10410
-9 -48 13 -123 82 -147 134 -22 48 -30 2435 -8 2492 30 79 108 102 135 38z"/>
</g>
</svg>
