<?xml version="1.0" standalone="no"?>
<!DOCTYPE svg PUBLIC "-//W3C//DTD SVG 20010904//EN"
 "http://www.w3.org/TR/2001/REC-SVG-20010904/DTD/svg10.dtd">
<svg version="1.0" xmlns="http://www.w3.org/2000/svg"
 width="1920.000000pt" height="1920.000000pt" viewBox="0 0 1920.000000 1920.000000"
 preserveAspectRatio="xMidYMid meet">
<metadata>
Created by potrace 1.16, written by Peter Selinger 2001-2019
</metadata>
<g transform="translate(0.000000,1920.000000) scale(0.100000,-0.100000)"
fill="#f97316" stroke="none">
<path d="M9825 18476 c-137 -45 -261 -144 -284 -226 -25 -90 -11 -615 19 -675
71 -147 42 -190 -222 -325 -113 -58 -230 -124 -259 -146 -30 -23 -74 -52 -99
-64 -68 -34 -360 -327 -399 -400 -17 -32 -48 -78 -67 -101 -47 -56 -159 -281
-189 -378 -13 -42 -30 -94 -39 -116 -20 -51 -24 -1950 -5 -2016 7 -21 30 -59
51 -86 22 -26 50 -68 63 -93 13 -25 41 -68 64 -95 127 -154 89 -185 -232 -185
-284 0 -561 -87 -756 -238 -31 -24 -78 -55 -106 -69 -75 -39 -304 -268 -346
-346 -22 -42 -74 -105 -159 -192 -148 -153 -150 -158 -150 -335 0 -144 10
-183 61 -245 97 -117 86 -207 -59 -503 -61 -125 -118 -253 -127 -284 -9 -32
-28 -73 -43 -90 -49 -59 -52 -65 -73 -139 -50 -182 -165 -317 -347 -408 -56
-28 -130 -72 -163 -96 -139 -102 -235 -45 -249 149 -6 72 -15 115 -31 151 -21
45 -24 69 -29 240 -4 151 -9 196 -22 221 -10 17 -26 62 -37 100 -10 38 -27 87
-37 109 -14 32 -19 79 -24 230 -6 170 -9 195 -30 239 -16 36 -25 79 -30 150
-6 71 -15 116 -31 151 -18 40 -24 76 -29 180 -6 105 -12 140 -30 180 -19 40
-25 75 -30 180 -6 104 -12 140 -30 179 -16 35 -25 80 -30 150 -6 71 -15 116
-31 151 -18 40 -24 76 -29 180 -6 104 -12 140 -30 179 -16 35 -25 80 -30 150
-6 72 -15 115 -31 151 -21 45 -24 70 -29 240 -6 167 -9 196 -28 237 -12 26
-26 80 -32 120 -5 40 -19 96 -32 123 -21 46 -23 67 -26 241 -4 233 1 253 74
279 331 116 421 284 291 542 -26 50 -55 122 -65 160 -25 89 -676 1392 -726
1452 -22 26 -42 65 -51 99 -47 173 -167 371 -270 448 -111 81 -140 136 -161
298 -12 97 -96 139 -154 76 -45 -48 -52 -126 -20 -217 24 -69 25 -102 4 -151
-8 -20 -19 -70 -24 -110 -6 -40 -19 -94 -31 -120 -14 -32 -24 -80 -29 -148 -5
-72 -14 -114 -31 -150 -23 -48 -23 -58 -29 -389 -5 -333 -5 -341 -29 -390 -21
-44 -25 -70 -31 -210 -5 -142 -9 -166 -30 -210 -25 -50 -25 -50 -28 -460 -4
-484 -6 -469 87 -567 106 -113 126 -122 313 -128 246 -9 251 -14 259 -323 5
-205 7 -226 29 -271 16 -36 25 -79 30 -150 6 -71 15 -116 31 -151 18 -40 24
-76 29 -180 6 -105 12 -139 31 -180 20 -43 24 -72 29 -210 6 -137 10 -167 30
-209 16 -35 25 -79 30 -150 6 -71 15 -116 31 -151 18 -40 24 -76 29 -180 6
-101 12 -140 29 -177 12 -26 25 -80 31 -120 5 -40 19 -95 32 -123 20 -44 23
-72 28 -240 6 -170 9 -195 30 -239 16 -36 25 -79 30 -150 6 -70 15 -116 30
-150 16 -35 25 -81 30 -150 6 -72 15 -116 31 -151 20 -43 24 -73 29 -210 6
-139 10 -167 30 -210 21 -43 25 -71 30 -210 6 -138 10 -167 30 -210 70 -151
42 -244 -120 -410 -130 -134 -150 -165 -150 -237 0 -15 -7 -56 -15 -92 -14
-59 -14 -73 0 -132 8 -36 15 -107 15 -157 1 -58 7 -107 16 -132 9 -22 27 -75
40 -119 50 -163 241 -312 527 -411 68 -24 71 -34 78 -240 5 -161 8 -185 29
-230 19 -41 25 -74 30 -180 6 -104 12 -140 30 -179 16 -35 25 -80 30 -150 6
-72 15 -115 31 -151 21 -45 24 -70 29 -240 6 -167 9 -196 28 -237 12 -26 26
-80 32 -120 5 -40 19 -95 31 -122 15 -34 24 -82 29 -150 6 -72 15 -116 31
-151 20 -43 24 -73 29 -210 6 -137 10 -167 30 -209 16 -35 25 -79 30 -150 6
-72 15 -116 31 -151 20 -43 24 -73 29 -210 6 -134 10 -168 29 -207 12 -26 25
-80 31 -120 5 -40 19 -95 31 -123 20 -42 24 -74 29 -210 6 -137 10 -167 30
-209 16 -35 25 -79 30 -150 6 -71 15 -116 31 -151 18 -40 24 -76 29 -180 6
-105 12 -139 31 -180 20 -43 24 -72 29 -210 6 -134 10 -168 29 -207 12 -26 25
-80 31 -120 5 -40 19 -95 31 -123 20 -42 24 -74 29 -210 6 -134 10 -168 29
-207 12 -26 25 -80 31 -120 5 -40 19 -95 32 -123 20 -44 23 -72 28 -240 6
-167 9 -196 28 -237 12 -26 26 -80 32 -120 5 -40 19 -95 31 -122 15 -34 24
-82 29 -150 6 -72 15 -116 31 -151 20 -43 24 -73 30 -210 4 -109 11 -174 22
-203 37 -97 19 -105 -268 -112 -230 -5 -230 -5 -320 -48 -112 -54 -302 -235
-323 -308 -16 -54 -16 -334 0 -388 20 -69 154 -195 264 -248 89 -43 89 -43
4024 -43 3935 0 3935 0 3980 26 25 15 88 71 141 125 120 125 122 131 117 360
-4 200 -34 280 -152 402 -119 125 -72 116 -687 122 -611 6 -574 0 -600 95 -56
205 -266 422 -544 563 -301 153 -300 152 -300 433 0 230 0 235 -25 284 -39 78
-40 2788 -1 2829 30 32 77 34 141 5 24 -11 78 -24 118 -29 40 -5 94 -19 120
-30 26 -12 80 -25 120 -30 40 -6 94 -20 120 -32 41 -19 72 -22 237 -28 171 -7
197 -10 260 -33 88 -33 122 -33 210 -1 55 20 99 28 200 34 103 6 140 12 180
30 34 16 79 25 145 30 52 4 113 15 135 24 22 9 69 26 105 36 154 46 260 88
309 124 28 21 80 47 116 57 38 12 87 37 122 63 32 24 77 53 99 64 23 12 73 50
112 86 39 36 90 75 114 87 24 12 68 41 98 64 30 24 75 53 99 65 67 33 242 209
280 280 17 32 47 78 67 101 20 24 46 63 59 89 13 25 42 68 64 95 23 28 46 68
52 90 21 83 32 106 66 147 40 49 167 296 178 348 4 19 17 62 30 95 22 59 53
150 99 295 13 41 31 93 40 115 23 60 23 890 0 950 -9 22 -26 74 -39 115 -13
41 -31 93 -40 115 -10 22 -21 84 -25 140 -10 134 -280 693 -394 814 -34 36
-77 94 -95 127 -45 84 -510 548 -589 588 -29 15 -85 56 -124 92 -116 107 -623
350 -803 385 -82 16 -158 36 -200 53 -30 11 -79 15 -193 16 -173 0 -212 10
-229 56 -6 16 -22 60 -37 98 -15 37 -31 101 -36 140 -7 54 -22 99 -60 177 -82
171 -79 238 19 343 98 105 117 166 78 243 -9 17 -25 62 -35 100 -24 85 -79
196 -126 252 -20 23 -49 68 -66 100 -99 184 -589 613 -745 650 -27 7 -99 35
-160 64 -110 52 -110 52 -390 57 -154 3 -288 9 -298 14 -52 24 -27 103 64 201
161 174 154 119 157 1167 2 835 1 931 -14 970 -18 47 -38 126 -52 203 -6 28
-19 75 -31 105 -11 30 -25 73 -30 95 -6 22 -29 62 -52 90 -22 27 -51 70 -64
95 -13 26 -39 65 -59 89 -20 23 -50 69 -67 101 -59 111 -331 366 -459 430 -58
29 -131 72 -163 96 -36 27 -84 51 -126 64 -140 41 -141 46 -141 534 0 448 0
446 -77 524 -116 116 -343 176 -488 128z m291 -212 c72 -53 69 -36 69 -434 0
-443 13 -413 -180 -418 -140 -4 -186 9 -203 56 -5 15 -22 59 -38 97 -54 133
-49 606 8 670 51 59 279 78 344 29z m-5934 -477 c52 -42 105 -148 137 -272 6
-22 29 -62 52 -90 55 -66 691 -1336 718 -1432 10 -38 37 -105 59 -150 100
-198 76 -307 -78 -353 -44 -13 -90 -37 -129 -66 -144 -108 -147 -109 -591
-112 -445 -4 -463 -2 -486 54 -29 68 -16 825 15 889 21 44 25 70 31 210 5 141
9 166 30 210 24 49 24 56 30 390 5 330 6 341 28 390 17 36 26 78 32 150 13
174 74 247 152 182z m6073 -603 c52 -23 166 -61 272 -93 36 -10 85 -35 116
-59 30 -22 101 -64 158 -92 124 -63 238 -165 288 -260 17 -32 47 -78 67 -101
20 -24 46 -64 59 -89 13 -25 40 -65 59 -89 21 -25 42 -66 52 -99 8 -32 24 -78
35 -104 11 -26 24 -80 29 -120 5 -40 19 -95 32 -123 23 -50 23 -50 23 -985 0
-1060 7 -1003 -137 -1158 -35 -37 -77 -88 -94 -114 -25 -35 -43 -50 -80 -63
-27 -9 -70 -26 -96 -36 -26 -11 -81 -24 -123 -29 -56 -7 -96 -21 -164 -55 -49
-24 -120 -53 -158 -64 -37 -10 -113 -41 -168 -67 -100 -49 -100 -49 -465 -49
-365 0 -365 0 -465 49 -55 26 -131 57 -168 67 -38 11 -109 40 -158 64 -68 34
-108 48 -164 55 -42 5 -97 18 -123 29 -26 10 -69 27 -96 36 -36 13 -56 28 -80
63 -17 25 -46 63 -64 85 -19 23 -44 62 -58 89 -13 26 -37 63 -54 81 -63 73
-60 13 -60 1074 1 943 1 969 21 1023 11 30 29 86 40 123 25 89 127 291 174
347 20 24 48 67 62 94 34 67 160 196 226 231 29 16 77 47 107 71 70 53 377
207 467 234 37 10 93 28 123 40 83 30 489 26 565 -6z m-5498 -2106 c26 -26 28
-34 34 -150 5 -95 11 -134 28 -170 12 -26 25 -80 31 -120 5 -40 19 -95 32
-123 20 -44 23 -72 28 -240 6 -170 9 -195 30 -239 16 -36 25 -79 30 -150 6
-71 15 -116 31 -151 18 -40 24 -76 29 -180 6 -104 12 -140 30 -179 16 -35 25
-80 30 -150 6 -71 15 -116 31 -151 18 -40 24 -76 29 -180 6 -105 12 -140 30
-180 19 -40 25 -75 30 -180 6 -104 12 -140 30 -179 16 -35 25 -80 30 -150 6
-72 15 -115 31 -151 21 -45 24 -69 29 -240 4 -151 9 -196 22 -221 10 -17 26
-62 37 -100 10 -38 27 -87 37 -109 14 -32 19 -79 24 -230 6 -170 9 -195 30
-239 16 -35 25 -80 31 -150 5 -72 15 -118 33 -161 14 -33 26 -67 26 -76 0 -9
9 -42 20 -73 36 -106 -13 -144 -126 -96 -26 11 -75 24 -109 29 -102 15 -115
30 -129 141 -3 25 -15 68 -27 95 -20 42 -24 74 -29 210 -6 139 -10 167 -30
210 -21 43 -25 71 -30 210 -6 137 -10 167 -30 209 -16 35 -25 79 -30 150 -6
70 -15 116 -30 150 -16 35 -25 81 -30 150 -6 72 -15 115 -31 151 -21 45 -24
70 -29 240 -6 167 -9 196 -28 237 -12 26 -26 80 -32 120 -5 40 -19 96 -31 123
-18 39 -24 78 -29 180 -6 104 -12 140 -30 179 -16 35 -25 80 -30 150 -6 72
-15 116 -31 151 -20 43 -24 73 -29 210 -6 138 -10 167 -30 210 -19 41 -25 75
-30 180 -6 104 -12 140 -30 179 -16 35 -25 80 -30 150 -6 72 -15 115 -31 151
-22 47 -48 506 -32 552 16 43 207 44 250 1z m4120 -1678 c27 -12 82 -25 123
-31 56 -7 101 -21 180 -59 58 -27 125 -54 150 -60 25 -6 95 -35 155 -63 110
-52 110 -52 475 -52 365 0 365 0 475 52 61 28 130 57 155 63 25 6 92 33 150
60 79 38 124 52 180 59 41 6 98 20 125 32 75 34 156 32 192 -4 28 -27 28 -27
33 -330 6 -294 6 -303 30 -352 22 -46 25 -66 30 -240 6 -167 9 -196 28 -237
12 -26 27 -81 32 -123 22 -177 210 -415 378 -479 95 -37 95 -37 104 -251 4
-99 10 -203 14 -231 7 -63 -78 -166 -185 -223 -33 -17 -92 -61 -130 -96 -39
-35 -94 -76 -123 -91 -80 -40 -604 -564 -649 -648 -18 -33 -61 -91 -95 -127
-45 -48 -78 -98 -117 -176 -30 -60 -72 -129 -92 -153 -42 -51 -109 -179 -120
-230 -7 -33 -52 -159 -81 -227 -21 -51 -50 -55 -394 -51 -301 3 -306 3 -355
28 -49 24 -54 24 -390 30 -334 5 -341 5 -390 29 -46 22 -66 25 -242 30 -246 8
-274 24 -292 171 -6 41 -20 98 -33 125 -22 47 -23 65 -28 330 -6 270 -7 282
-30 330 -22 46 -25 66 -30 240 -6 167 -9 196 -28 237 -12 26 -26 80 -32 120
-5 40 -19 96 -32 123 -34 75 -34 277 1 350 19 41 25 73 30 172 8 151 13 158
141 227 173 92 264 197 280 321 5 42 19 97 30 123 12 26 25 80 30 120 6 40 20
94 32 120 19 41 22 70 28 237 5 173 8 194 30 240 23 47 24 63 29 291 6 261 8
270 66 295 30 13 108 3 162 -21z m-460 -63 c41 -40 44 -410 4 -492 -22 -46
-25 -66 -31 -240 -5 -168 -8 -196 -28 -240 -13 -27 -27 -83 -32 -123 -6 -40
-19 -94 -30 -120 -11 -25 -25 -75 -30 -111 -20 -145 -187 -220 -345 -154 -125
51 -271 91 -351 95 -73 4 -92 10 -194 58 -106 50 -121 54 -211 61 -194 13
-259 93 -259 319 0 169 3 177 149 325 77 78 128 139 146 174 35 71 102 141
167 176 29 16 78 47 108 71 69 53 258 147 347 173 37 11 93 29 123 41 95 35
429 26 467 -13z m3688 -21 c55 -26 131 -57 168 -67 158 -45 470 -308 557 -470
17 -32 46 -77 66 -100 46 -56 89 -140 113 -226 10 -37 26 -85 35 -105 61 -142
-66 -262 -295 -278 -87 -6 -104 -10 -205 -58 -84 -40 -128 -54 -187 -62 -42
-5 -90 -16 -106 -24 -16 -9 -59 -24 -97 -35 -38 -11 -94 -29 -124 -40 -61 -23
-208 -28 -270 -11 -77 21 -156 152 -170 283 -5 40 -19 95 -32 122 -20 44 -23
71 -28 240 -6 174 -9 194 -31 240 -24 49 -24 55 -24 316 0 355 -24 329 305
326 225 -2 225 -2 325 -51z m-4725 -1506 c105 -50 121 -54 210 -60 109 -8 196
-43 235 -94 32 -43 30 -299 -3 -371 -13 -27 -27 -82 -31 -121 -11 -91 -17
-102 -121 -209 -48 -49 -99 -113 -113 -141 -14 -27 -42 -70 -62 -94 -21 -25
-75 -120 -121 -212 -46 -91 -96 -182 -112 -200 -16 -18 -43 -54 -60 -80 -32
-46 -181 -167 -252 -203 -19 -10 -58 -36 -87 -57 -30 -23 -80 -48 -117 -59
-39 -12 -88 -37 -123 -63 -32 -24 -73 -51 -92 -60 -18 -10 -60 -37 -92 -61
-35 -26 -79 -48 -111 -55 -29 -7 -71 -21 -93 -31 -106 -49 -206 0 -219 106
-14 111 -57 245 -127 395 -46 99 -57 147 -43 184 11 29 187 153 294 206 214
107 487 415 529 596 12 52 26 77 74 137 15 19 37 67 47 106 25 87 177 396 221
445 68 78 199 76 369 -4z m5462 50 c74 -21 154 -154 168 -283 5 -40 18 -92 29
-117 64 -141 23 -170 -243 -170 -137 -1 -191 -5 -221 -16 -94 -36 -127 -41
-298 -47 -218 -7 -207 -18 -207 218 0 193 7 215 76 240 27 9 70 26 96 36 26
11 81 24 123 29 55 7 96 20 157 51 135 68 225 85 320 59z m418 -742 c39 -19
69 -22 235 -28 168 -5 196 -8 240 -28 28 -13 82 -27 122 -32 40 -5 89 -17 110
-26 21 -9 69 -25 106 -35 130 -37 537 -250 617 -324 39 -35 97 -78 129 -95 80
-43 377 -342 416 -419 14 -29 55 -84 91 -122 116 -124 374 -660 384 -800 4
-62 14 -117 23 -136 9 -17 25 -61 36 -99 11 -38 29 -94 40 -124 31 -84 31
-875 0 -960 -10 -30 -30 -89 -43 -130 -34 -104 -54 -166 -77 -230 -11 -30 -29
-86 -40 -123 -26 -91 -127 -290 -178 -352 -23 -27 -46 -68 -52 -90 -21 -83
-32 -106 -66 -147 -19 -23 -45 -63 -58 -88 -13 -25 -40 -66 -60 -90 -20 -24
-47 -64 -60 -89 -28 -57 -67 -97 -120 -123 -22 -12 -65 -40 -95 -63 -30 -24
-74 -52 -96 -64 -23 -11 -73 -49 -112 -85 -39 -36 -90 -75 -112 -86 -23 -12
-68 -41 -100 -65 -36 -25 -80 -48 -111 -55 -29 -7 -80 -32 -118 -58 -36 -25
-93 -54 -126 -64 -99 -30 -217 -69 -270 -91 -31 -12 -89 -23 -150 -27 -70 -6
-115 -15 -150 -31 -40 -18 -76 -24 -180 -29 -106 -6 -139 -12 -180 -31 -69
-32 -161 -32 -230 1 -45 21 -68 24 -240 30 -168 5 -196 8 -240 28 -27 13 -83
27 -123 32 -40 6 -94 19 -120 30 -26 12 -80 25 -120 30 -40 5 -94 18 -120 29
-26 11 -72 27 -103 35 -44 12 -72 30 -130 82 -51 46 -107 83 -182 120 -76 39
-128 73 -178 120 -40 36 -95 77 -123 91 -74 37 -256 219 -297 297 -19 36 -70
99 -125 156 -86 90 -97 106 -177 266 -47 93 -101 189 -120 212 -35 41 -45 64
-67 149 -8 32 -34 67 -110 147 -131 140 -147 201 -88 324 23 47 23 52 28 597
5 600 2 563 67 639 18 22 38 58 43 80 6 23 20 66 31 96 11 30 29 86 40 123 25
87 67 171 114 227 20 24 62 93 92 153 39 78 72 128 117 176 34 36 77 94 95
127 43 82 401 439 477 477 28 14 83 55 122 91 39 36 90 75 114 87 24 12 68 41
98 64 30 24 71 51 90 60 19 10 57 35 85 57 112 89 181 112 360 119 140 5 166
9 210 30 46 22 65 24 270 29 198 6 224 8 265 28 58 28 122 28 180 0z m-5432
-320 c51 -64 75 -171 82 -363 6 -173 9 -194 31 -240 23 -48 24 -60 29 -330 6
-262 7 -283 28 -327 12 -26 26 -80 32 -120 5 -40 19 -95 32 -123 40 -90 33
-160 -30 -290 -40 -83 -55 -126 -62 -181 -5 -40 -17 -90 -26 -111 -9 -21 -25
-69 -35 -107 -11 -38 -26 -81 -35 -97 -8 -16 -19 -63 -24 -104 -5 -41 -18 -97
-29 -123 -18 -45 -41 -114 -95 -282 -13 -41 -31 -93 -40 -115 -8 -22 -15 -58
-16 -80 0 -22 -10 -65 -21 -95 -10 -30 -30 -89 -43 -130 -13 -41 -31 -93 -40
-115 -11 -29 -15 -77 -16 -172 0 -108 -4 -143 -20 -185 -64 -169 41 -269 291
-278 232 -8 204 256 204 -1888 0 -1827 0 -1827 -25 -1877 -24 -50 -25 -52 -30
-410 -3 -198 -9 -368 -14 -378 -31 -65 -489 -327 -572 -327 -65 0 -100 47
-114 152 -5 40 -19 96 -31 123 -18 39 -24 78 -29 180 -6 104 -12 140 -30 179
-16 35 -25 80 -30 150 -6 70 -15 116 -30 150 -16 35 -25 81 -30 150 -6 72 -15
116 -31 151 -20 43 -24 73 -29 210 -6 134 -10 168 -29 207 -12 26 -25 80 -31
120 -5 40 -19 96 -31 123 -18 39 -24 78 -29 180 -6 105 -12 140 -30 180 -19
40 -25 75 -30 180 -6 105 -12 139 -31 180 -20 43 -24 72 -29 210 -6 137 -10
167 -30 209 -16 35 -25 79 -30 150 -6 70 -15 116 -30 150 -16 35 -25 81 -30
150 -6 72 -15 115 -31 151 -21 45 -24 70 -29 240 -6 167 -9 196 -28 237 -12
26 -26 80 -32 120 -5 40 -19 96 -31 123 -20 43 -24 74 -29 210 -5 121 -10 168
-23 191 -9 17 -25 62 -36 100 -10 38 -27 87 -37 109 -14 32 -19 79 -24 230 -6
170 -9 195 -30 239 -16 36 -25 79 -30 150 -6 71 -15 116 -31 151 -18 40 -24
76 -29 180 -6 105 -12 140 -30 180 -19 40 -25 75 -30 180 -6 104 -12 140 -30
179 -16 35 -25 80 -30 150 -6 72 -15 116 -31 151 -20 43 -24 73 -29 210 -6
138 -10 167 -30 210 -30 65 -38 175 -17 227 16 39 24 43 142 66 99 20 243 78
297 119 29 22 69 49 88 58 19 10 58 36 87 57 30 23 80 48 117 59 39 12 88 37
123 63 32 24 74 51 93 61 19 10 60 37 90 60 30 24 74 53 98 64 65 33 184 152
221 220 17 33 48 79 67 103 20 23 73 117 119 208 122 243 221 359 263 308z
m-2398 -629 c64 -24 116 -36 183 -44 68 -9 112 -50 133 -124 8 -31 24 -77 35
-103 11 -26 24 -80 29 -120 5 -40 19 -95 32 -123 68 -150 -20 -359 -170 -404
-37 -12 -95 -40 -135 -68 -104 -72 -214 -72 -362 0 -119 58 -159 86 -172 124
-6 15 -23 60 -38 98 -56 141 -64 552 -12 650 23 45 90 105 133 120 64 23 276
19 344 -6z m423 -1113 c6 -12 14 -84 18 -166 5 -121 10 -153 29 -194 16 -35
25 -79 30 -150 6 -71 15 -116 31 -151 18 -40 24 -76 29 -180 6 -105 12 -140
30 -180 19 -40 25 -75 30 -180 6 -104 12 -140 30 -179 16 -35 25 -80 30 -150
6 -72 15 -115 31 -151 21 -45 24 -69 29 -240 4 -151 9 -196 22 -221 10 -17 26
-62 37 -100 10 -38 27 -87 37 -109 13 -30 19 -80 24 -200 6 -134 10 -168 29
-207 12 -26 25 -80 31 -120 5 -40 19 -95 32 -123 20 -44 23 -72 28 -240 6
-170 9 -195 30 -239 16 -36 25 -79 30 -150 6 -70 15 -116 30 -150 16 -35 25
-81 30 -150 6 -72 15 -116 31 -151 20 -43 24 -73 29 -210 6 -138 10 -167 30
-210 19 -41 25 -75 30 -180 6 -105 12 -140 30 -180 19 -40 25 -75 30 -180 6
-101 12 -140 29 -177 12 -26 25 -80 31 -120 5 -40 19 -95 31 -123 20 -42 24
-74 29 -210 6 -137 10 -167 30 -209 16 -35 25 -79 30 -150 6 -70 15 -116 30
-150 16 -35 25 -81 30 -150 6 -71 15 -116 31 -151 18 -40 24 -76 29 -180 6
-101 12 -140 29 -177 12 -26 25 -80 31 -120 5 -40 19 -95 32 -123 22 -47 23
-62 23 -257 0 -258 -3 -263 -134 -263 -147 0 -192 71 -202 320 -5 138 -9 167
-29 209 -16 35 -25 79 -30 150 -5 68 -15 116 -29 148 -12 26 -25 80 -31 120
-5 40 -19 96 -32 123 -20 44 -23 72 -28 240 -6 167 -9 196 -28 237 -12 26 -26
80 -32 120 -5 40 -19 96 -31 123 -20 42 -24 74 -29 210 -6 134 -10 168 -29
207 -12 26 -25 80 -31 120 -5 40 -19 96 -31 123 -20 42 -24 74 -29 210 -6 138
-10 167 -30 210 -19 41 -25 75 -30 180 -6 104 -12 140 -30 179 -16 35 -25 80
-30 150 -6 72 -15 116 -31 151 -20 43 -24 73 -29 210 -6 134 -10 168 -29 207
-12 26 -25 80 -31 120 -5 40 -19 96 -31 123 -20 42 -24 74 -29 210 -6 137 -10
167 -30 209 -16 35 -25 79 -30 150 -6 72 -15 116 -31 151 -20 43 -24 73 -29
210 -6 137 -10 167 -30 209 -16 35 -25 79 -30 150 -5 68 -15 116 -29 148 -12
26 -25 80 -31 120 -5 40 -19 96 -32 123 -20 44 -23 72 -28 240 -6 170 -9 195
-30 239 -16 36 -25 79 -30 150 -6 71 -15 116 -31 151 -18 40 -24 76 -29 180
-6 106 -12 139 -31 180 -21 45 -24 71 -31 240 -4 105 -10 211 -14 237 -8 64
16 85 138 119 102 28 123 27 141 -5z m2902 -36 c49 -24 54 -24 390 -30 336 -5
341 -5 390 -30 48 -23 59 -24 322 -30 367 -7 327 49 331 -463 3 -400 -2 -475
-31 -479 -7 0 -68 -2 -137 -2 -152 -1 -159 -4 -285 -126 -75 -72 -109 -96
-203 -144 -202 -102 -369 -319 -422 -545 -33 -142 -26 -141 -721 -141 -574 0
-630 3 -642 34 -13 33 10 382 27 421 10 22 27 71 37 109 11 38 26 81 35 97 8
16 19 63 24 104 5 41 18 97 29 123 18 45 41 114 95 282 13 41 31 93 40 115 8
22 15 58 16 80 0 22 10 65 21 95 10 30 30 89 43 130 13 41 31 93 40 115 8 22
15 59 16 81 0 83 59 195 113 220 60 27 409 15 472 -16z m1314 -1241 c56 -20
56 -19 61 -474 5 -420 5 -420 30 -470 22 -46 25 -65 30 -240 6 -173 9 -194 31
-240 22 -47 24 -65 29 -270 6 -205 8 -223 30 -270 22 -46 25 -67 30 -240 6
-173 9 -194 31 -240 23 -48 24 -62 29 -300 6 -236 7 -253 30 -300 19 -41 25
-73 30 -180 6 -107 12 -139 31 -180 23 -47 24 -64 29 -300 6 -238 7 -252 30
-300 23 -47 25 -64 30 -270 6 -206 8 -223 31 -270 23 -49 24 -57 29 -360 4
-268 7 -314 22 -341 10 -17 26 -62 37 -100 10 -38 26 -86 35 -106 22 -52 20
-115 -6 -168 -21 -42 -23 -62 -28 -347 -5 -303 -5 -303 -33 -330 -43 -44
-1311 -44 -1354 0 -29 28 -35 143 -44 767 -2 156 17 333 41 385 23 48 24 62
30 330 5 271 6 282 29 330 24 48 25 61 31 300 5 238 6 252 29 300 23 47 25 64
31 270 5 205 7 224 29 270 21 44 25 70 31 210 5 140 9 166 30 210 23 48 24 61
30 330 5 271 6 282 29 330 23 47 25 64 31 270 5 205 7 223 29 270 22 46 25 67
31 240 5 174 8 194 30 240 23 48 24 60 30 330 5 271 6 282 29 330 23 47 25 63
30 270 6 228 9 241 54 283 42 40 156 55 226 31z m-505 -294 c37 -37 34 -198
-4 -280 -23 -48 -24 -62 -30 -330 -5 -270 -6 -282 -29 -330 -22 -46 -25 -66
-31 -240 -5 -173 -8 -194 -30 -240 -22 -47 -24 -65 -30 -270 -5 -206 -7 -223
-30 -270 -23 -48 -24 -59 -30 -330 -5 -269 -6 -282 -29 -330 -21 -44 -25 -70
-31 -210 -5 -140 -9 -166 -30 -210 -22 -46 -24 -65 -30 -270 -5 -206 -7 -223
-30 -270 -23 -48 -24 -62 -30 -300 -5 -239 -6 -252 -30 -300 -23 -48 -24 -59
-30 -330 -5 -267 -6 -282 -28 -330 -17 -35 -26 -78 -31 -143 -11 -138 -23
-147 -179 -147 -103 0 -123 3 -172 25 -78 36 -277 37 -357 3 -93 -41 -155 -23
-168 49 -19 103 0 572 25 623 25 50 25 50 30 1882 5 1833 5 1833 33 1860 27
28 27 28 385 33 419 6 388 -3 533 147 103 106 113 120 133 202 50 197 189 367
250 306z m864 -262 c28 -27 66 -90 127 -213 83 -165 92 -179 179 -270 55 -57
106 -120 125 -156 44 -83 390 -428 469 -468 29 -15 84 -55 122 -90 38 -35 98
-80 134 -100 102 -57 130 -96 120 -171 -24 -182 -9 -2879 16 -2935 40 -88 38
-336 -3 -377 -28 -28 -788 -56 -823 -31 -59 43 -79 155 -84 473 -6 303 -6 311
-30 360 -23 47 -25 63 -30 270 -6 206 -8 223 -31 270 -23 48 -24 62 -29 300
-6 236 -7 253 -30 300 -19 41 -25 73 -30 180 -6 107 -12 139 -31 180 -23 47
-24 64 -29 300 -6 238 -7 252 -30 300 -22 46 -25 67 -30 240 -6 173 -9 194
-31 240 -22 47 -24 65 -29 270 -6 205 -8 223 -30 270 -22 46 -25 67 -30 240
-6 174 -9 194 -31 240 -22 47 -24 61 -24 210 0 215 15 242 93 168z m-1733
-5042 c40 -19 74 -25 173 -30 187 -10 177 10 177 -351 0 -290 0 -290 -28 -317
-27 -28 -27 -28 -827 -28 -931 0 -855 -12 -855 134 0 113 3 116 247 241 113
58 229 124 259 146 30 23 72 51 94 62 22 11 69 46 104 77 64 57 64 57 155 50
82 -5 98 -3 161 20 95 35 261 33 340 -4z m3129 -16 c31 -22 81 -54 112 -72 30
-18 74 -48 97 -66 23 -19 116 -72 206 -116 196 -99 243 -138 301 -254 48 -96
52 -142 14 -178 -43 -41 -1610 -37 -1651 4 -28 27 -28 27 -31 290 -6 464 -38
436 514 434 382 -2 382 -2 438 -42z m-4994 -905 c65 -14 264 -12 338 4 52 11
72 11 125 0 49 -10 237 -13 897 -13 660 0 848 3 898 13 52 11 72 11 125 0 91
-19 1404 -19 1495 0 48 10 72 11 100 3 26 -8 502 -13 1569 -17 1753 -6 1559 7
1617 -105 31 -59 31 -59 31 -246 0 -206 -2 -213 -69 -263 -53 -40 -7881 -31
-7960 9 -95 48 -100 60 -104 238 -7 317 49 358 503 368 154 4 296 11 315 17
36 10 42 9 120 -8z"/>
<path d="M8987 15596 c-101 -37 -177 -137 -177 -234 0 -201 350 -423 685 -434
89 -3 120 -9 165 -29 84 -37 456 -37 540 0 48 22 76 26 215 31 137 6 167 10
210 30 35 16 77 25 146 30 329 22 468 430 201 588 -55 32 -1899 49 -1985 18z
m1887 -215 c32 -30 42 -78 26 -125 -15 -48 -38 -58 -145 -67 -60 -5 -107 -15
-140 -30 -43 -20 -73 -24 -210 -29 -140 -6 -166 -10 -210 -31 -77 -37 -453
-37 -530 0 -41 19 -73 25 -180 31 -98 5 -142 12 -180 28 -27 11 -70 26 -95 32
-175 45 -253 163 -139 209 62 25 1775 8 1803 -18z"/>
</g>
</svg>
