<?xml version="1.0" standalone="no"?>
<!DOCTYPE svg PUBLIC "-//W3C//DTD SVG 20010904//EN"
 "http://www.w3.org/TR/2001/REC-SVG-20010904/DTD/svg10.dtd">
<svg version="1.0" xmlns="http://www.w3.org/2000/svg"
 width="606.000000pt" height="960.000000pt" viewBox="0 0 606.000000 960.000000"
 preserveAspectRatio="xMidYMid meet">
<metadata>
Created by potrace 1.16, written by Peter Selinger 2001-2019
</metadata>
<g transform="translate(0.000000,960.000000) scale(0.100000,-0.100000)"
fill="#f97316" stroke="none">
<path d="M2938 8641 c-130 -42 -178 -121 -188 -302 -7 -141 -38 -227 -115
-319 -63 -76 -60 -10 -65 -1112 -6 -1168 6 -1068 -122 -1076 -127 -8 -187 30
-219 140 -10 35 -27 88 -38 118 -13 34 -21 82 -21 125 -1 39 -8 88 -16 110 -9
22 -27 74 -40 115 -13 41 -33 100 -43 130 -13 34 -21 82 -21 125 -1 39 -8 88
-16 110 -9 22 -26 74 -39 115 -13 41 -31 92 -39 113 -9 21 -21 70 -26 110 -5
40 -18 93 -30 119 -11 26 -25 80 -30 122 -13 101 -72 218 -150 301 -70 72
-122 164 -149 263 -37 136 -179 272 -284 272 -168 0 -273 -239 -186 -425 31
-66 32 -160 2 -230 -12 -27 -29 -75 -37 -106 -13 -45 -30 -72 -85 -132 -115
-128 -124 -240 -32 -427 40 -83 53 -122 61 -183 5 -42 16 -90 24 -106 9 -16
24 -59 35 -97 10 -38 27 -87 37 -109 12 -28 19 -80 24 -170 11 -215 100 -359
261 -420 135 -52 124 -122 -32 -204 -46 -25 -109 -63 -139 -87 -30 -23 -75
-52 -100 -64 -72 -36 -204 -175 -219 -232 -21 -76 -10 -251 20 -313 23 -49 24
-59 29 -360 6 -302 6 -311 30 -360 22 -46 25 -66 30 -240 6 -172 9 -195 30
-240 21 -44 25 -71 30 -210 6 -139 10 -166 31 -210 21 -45 24 -68 29 -240 6
-172 9 -195 30 -240 21 -44 25 -71 30 -210 6 -140 10 -166 31 -210 22 -46 24
-65 29 -270 6 -204 8 -224 30 -270 19 -41 25 -73 30 -175 8 -164 9 -165 203
-357 192 -190 364 -293 523 -313 42 -5 96 -19 122 -31 31 -14 80 -24 147 -29
70 -5 116 -14 155 -31 84 -37 993 -38 1077 -1 29 12 85 27 125 32 40 5 95 19
123 31 34 15 80 24 148 29 113 8 448 160 548 249 68 60 136 196 149 296 5 42
20 97 32 123 19 41 22 70 28 237 5 172 8 195 30 240 21 45 24 68 30 240 5 172
8 195 30 240 21 45 24 68 30 240 5 172 8 195 29 240 21 44 25 71 31 210 5 140
9 166 30 210 22 46 24 65 30 270 5 205 7 223 29 270 22 46 25 67 31 240 5 172
8 195 29 240 21 44 25 71 31 210 5 137 9 167 29 210 58 128 3 251 -202 451
-92 91 -146 135 -177 148 -106 43 -108 44 -120 82 -12 37 -9 170 5 206 18 47
58 30 85 -38 68 -167 185 -120 200 81 5 70 14 116 29 151 12 27 26 81 30 119
5 39 18 93 29 120 32 79 34 100 12 162 -30 85 -29 89 42 293 11 30 27 84 38
119 10 35 28 75 39 90 86 106 98 166 48 238 -15 21 -39 56 -54 77 -28 39 -28
39 -33 495 -6 510 -2 482 -82 568 -149 158 -189 154 -368 -33 -96 -100 -110
-130 -110 -238 0 -91 -18 -128 -108 -221 -109 -112 -110 -114 -133 -195 -11
-40 -26 -85 -35 -101 -8 -16 -19 -63 -24 -105 -5 -41 -19 -96 -30 -122 -12
-26 -25 -79 -30 -119 -5 -40 -17 -89 -26 -110 -9 -21 -25 -69 -35 -107 -11
-38 -26 -81 -35 -97 -8 -16 -19 -63 -24 -105 -5 -41 -19 -96 -30 -122 -12 -26
-25 -80 -30 -120 -6 -40 -19 -94 -31 -120 -17 -37 -23 -76 -29 -180 -6 -134
-6 -134 -66 -250 -81 -157 -80 -157 -255 -157 -174 0 -191 10 -197 123 -7 126
19 177 77 148 148 -77 220 132 100 290 -52 67 -52 101 0 168 60 80 61 85 61
454 0 394 2 385 -93 489 -98 108 -137 193 -147 321 -8 111 -16 136 -59 185
-54 61 -61 91 -61 263 0 177 -8 217 -57 274 -66 77 -176 116 -255 91z m84
-248 c27 -24 26 -143 -2 -168 -35 -32 -60 2 -60 83 0 86 24 119 62 85z m1814
-188 c38 -91 9 -245 -46 -245 -66 0 -111 85 -95 180 16 95 110 138 141 65z
m-3498 -224 c15 -9 62 -131 62 -160 0 -53 -71 -47 -103 8 -41 69 -9 184 41
152z m1771 -22 c43 -15 53 -39 62 -144 4 -57 15 -107 28 -135 27 -59 26 -123
-2 -180 -33 -68 -40 -844 -7 -936 60 -172 -19 -257 -232 -252 -203 5 -182 -84
-186 806 -3 816 -3 814 51 837 39 17 240 20 286 4z m1638 -207 c93 -47 97 -58
101 -235 4 -187 1 -202 -52 -274 -60 -81 -59 -78 -66 -283 -5 -159 -9 -192
-27 -235 -12 -27 -29 -75 -37 -106 -10 -35 -31 -75 -56 -105 -22 -27 -45 -67
-51 -89 -5 -22 -19 -65 -30 -95 -12 -30 -25 -75 -31 -100 -30 -138 -40 -148
-118 -123 -25 8 -87 18 -138 22 -131 11 -147 27 -147 149 0 69 5 97 23 137 13
28 27 83 32 123 6 40 19 94 30 120 12 26 25 79 30 119 5 40 17 89 26 110 9 21
25 69 35 107 11 38 26 81 35 97 8 16 19 63 24 105 5 41 19 96 30 122 12 26 25
80 30 120 5 40 18 94 29 120 11 26 27 72 35 102 35 126 153 163 293 92z
m-3151 -228 c48 -35 64 -66 73 -144 6 -41 17 -95 26 -120 34 -96 -52 -158
-241 -175 -90 -8 -109 1 -119 53 -15 72 -30 110 -56 146 -40 54 -39 97 4 210
22 59 245 81 313 30z m166 -603 c48 -38 80 -122 88 -234 4 -61 14 -115 23
-134 9 -17 25 -61 36 -99 11 -38 29 -94 40 -124 13 -34 21 -82 21 -125 1 -38
8 -88 16 -110 9 -22 26 -74 39 -115 13 -41 45 -119 71 -174 48 -98 48 -99 55
-230 5 -102 11 -141 28 -178 12 -26 26 -81 31 -122 5 -42 16 -89 24 -105 9
-16 24 -59 35 -97 11 -38 29 -94 40 -124 11 -30 20 -73 21 -94 0 -22 7 -66 16
-98 22 -75 26 -73 -134 -70 -209 5 -255 28 -282 143 -7 29 -21 72 -32 95 -10
24 -22 76 -28 116 -5 40 -18 94 -30 120 -11 26 -25 81 -30 122 -5 42 -16 89
-24 105 -9 16 -24 59 -35 97 -11 38 -29 94 -40 124 -13 34 -21 82 -21 125 -1
39 -8 88 -16 110 -9 22 -26 74 -39 115 -13 41 -31 93 -40 115 -10 22 -21 72
-26 110 -4 39 -18 92 -30 119 -12 28 -25 82 -30 120 -5 39 -20 98 -33 131 -14
33 -26 79 -26 101 0 23 -9 72 -20 108 -30 94 -14 113 106 130 23 3 61 15 85
26 56 25 109 25 141 1z m1375 -844 c28 -27 28 -27 28 -707 0 -816 22 -733
-198 -738 -214 -5 -257 16 -219 110 15 38 17 110 22 674 6 766 -16 695 212
691 125 -2 128 -3 155 -30z m1177 -161 c87 -36 81 -323 -9 -428 -37 -44 -55
-91 -55 -148 0 -19 -10 -60 -21 -90 -11 -30 -29 -86 -40 -124 -11 -38 -27 -82
-36 -99 -9 -18 -19 -72 -23 -125 -8 -112 -21 -132 -105 -176 -86 -44 -219 -46
-262 -3 -39 39 -46 190 -14 282 12 33 31 91 42 129 11 38 26 81 35 97 8 16 19
63 24 105 5 41 19 96 31 122 14 31 24 81 29 147 5 71 16 120 35 170 15 39 32
83 38 99 19 53 237 81 331 42z m-1775 -321 c30 -30 41 -532 13 -582 -18 -32
-40 -28 -56 10 -47 109 -86 229 -90 277 -2 30 -15 78 -27 105 -72 158 49 302
160 190z m1135 6 c32 -30 34 -78 5 -141 -11 -24 -24 -77 -29 -117 -5 -40 -21
-99 -35 -132 -14 -33 -25 -68 -25 -78 0 -10 -12 -45 -26 -78 -23 -53 -27 -79
-33 -212 -8 -195 -55 -259 -132 -177 -35 37 -39 886 -4 924 44 49 231 57 279
11z m-2125 -187 c43 -36 50 -52 61 -136 5 -40 18 -94 30 -120 11 -26 25 -80
30 -120 5 -40 16 -92 24 -116 36 -102 -51 -139 -194 -82 -77 30 -203 71 -255
81 -146 30 -155 41 -155 177 0 117 8 131 116 213 167 125 277 159 343 103z
m3135 -35 c59 -16 129 -88 176 -182 74 -147 47 -227 -90 -268 -97 -28 -219
-69 -272 -90 -138 -56 -206 39 -141 196 36 86 82 231 97 307 13 60 90 73 230
37z m-3366 -678 c158 -62 267 -90 377 -93 109 -4 111 -4 225 -58 114 -53 115
-54 240 -61 74 -4 143 -13 169 -23 54 -20 87 -20 141 -1 60 21 113 19 173 -7
85 -37 814 -35 897 2 50 22 72 25 235 30 189 6 244 17 430 93 30 12 82 22 130
24 76 5 216 42 347 94 128 51 195 -18 136 -141 -19 -39 -22 -69 -28 -235 -5
-173 -8 -194 -30 -240 -22 -47 -24 -65 -30 -270 -5 -205 -7 -224 -29 -270 -21
-44 -25 -70 -31 -210 -5 -139 -9 -166 -30 -210 -21 -45 -24 -68 -30 -240 -5
-172 -8 -195 -30 -240 -21 -45 -24 -68 -30 -240 -5 -172 -8 -195 -30 -240 -21
-45 -24 -68 -30 -240 -5 -169 -8 -196 -28 -240 -13 -27 -27 -82 -31 -122 -19
-166 -259 -335 -502 -353 -71 -5 -119 -15 -151 -29 -26 -12 -80 -25 -120 -31
-40 -5 -95 -19 -123 -32 -79 -36 -992 -36 -1070 0 -36 17 -78 26 -151 32 -68
5 -116 14 -150 29 -27 12 -83 26 -124 31 -118 15 -318 117 -417 213 -102 98
-106 107 -114 262 -5 107 -10 139 -30 180 -22 46 -24 66 -29 270 -6 205 -8
224 -30 270 -21 44 -25 70 -30 210 -6 139 -10 166 -31 210 -21 45 -24 68 -29
240 -6 172 -9 195 -30 240 -21 44 -25 71 -30 210 -6 139 -10 166 -31 210 -21
45 -24 68 -29 240 -6 173 -9 194 -31 240 -25 52 -41 351 -24 442 13 70 72 90
163 54z"/>
</g>
</svg>
