<?xml version="1.0" standalone="no"?>
<!DOCTYPE svg PUBLIC "-//W3C//DTD SVG 20010904//EN"
 "http://www.w3.org/TR/2001/REC-SVG-20010904/DTD/svg10.dtd">
<svg version="1.0" xmlns="http://www.w3.org/2000/svg"
 width="1146.000000pt" height="864.000000pt" viewBox="0 0 1146.000000 864.000000"
 preserveAspectRatio="xMidYMid meet">
<metadata>
Created by potrace 1.16, written by Peter Selinger 2001-2019
</metadata>
<g transform="translate(0.000000,864.000000) scale(0.100000,-0.100000)"
fill="#f97316" stroke="none">
<path d="M1249 7736 c-81 -29 -386 -331 -407 -402 -17 -60 -17 -5728 0 -5788
9 -32 44 -74 167 -199 221 -225 187 -211 521 -217 307 -6 289 -2 380 -85 101
-92 91 -90 370 -90 270 0 317 13 473 127 58 43 58 43 342 46 352 4 339 7 459
-107 146 -140 60 -126 796 -126 736 0 650 -14 796 126 111 106 120 109 314
109 82 1 172 7 208 14 52 11 72 11 125 0 42 -9 144 -13 325 -14 309 0 311 -1
370 -87 110 -162 188 -208 352 -208 156 0 156 0 316 156 90 87 131 120 160
128 27 8 427 11 1299 11 1260 0 1260 0 1387 44 152 52 258 130 258 191 0 67
34 120 158 249 168 173 152 70 152 966 0 883 11 797 -122 937 -153 161 -159
240 -25 336 129 92 153 146 142 318 -3 63 -6 143 -6 179 16 1069 27 979 -139
1099 -122 89 -122 173 0 262 133 97 156 147 145 320 -4 63 -6 150 -5 194 3
110 3 532 0 630 -2 44 1 117 5 163 13 145 -31 222 -202 349 -44 32 -88 76
-112 111 -46 68 -202 221 -251 248 -45 25 -8683 35 -8751 10z m634 -197 c55
-15 48 -37 -46 -138 -105 -112 -107 -119 -107 -351 0 -268 28 -322 217 -413
139 -66 5027 -66 5166 0 189 91 217 145 217 413 0 233 -2 241 -107 352 -94 99
-102 122 -45 137 51 15 2732 15 2784 1 91 -26 134 -153 64 -193 -16 -9 -192
-13 -706 -17 -954 -7 -870 69 -870 -790 0 -660 -4 -624 89 -723 125 -132 54
-121 843 -127 784 -6 743 0 743 -110 0 -110 41 -104 -743 -110 -789 -6 -718 5
-843 -127 -93 -99 -89 -66 -89 -693 0 -627 -4 -594 89 -693 125 -132 54 -121
843 -127 784 -6 743 0 743 -110 0 -112 72 -104 -983 -110 -1062 -6 -957 7
-1083 -127 -95 -101 -89 -42 -89 -903 0 -861 -6 -802 89 -903 126 -134 24
-121 1066 -127 501 -3 918 -9 927 -13 64 -32 18 -117 -92 -174 -86 -44 -2553
-44 -2597 0 -28 27 -28 27 -33 565 -6 607 1 562 -93 659 -113 118 -112 118
-397 118 -386 0 -423 -35 -436 -405 -7 -198 -17 -250 -49 -250 -25 0 -32 32
-37 160 -5 111 -9 132 -34 185 -28 60 -28 60 -34 370 -5 310 -5 310 -59 417
-50 100 -54 114 -61 205 -8 112 -16 137 -61 187 -214 244 -551 -36 -408 -339
37 -78 38 -1531 1 -1610 -17 -35 -26 -78 -31 -143 -11 -138 -22 -146 -186
-150 -220 -6 -215 -15 -215 386 0 325 -3 349 -57 412 -86 100 -46 95 -793 95
-762 0 -695 10 -817 -118 -90 -93 -87 -80 -93 -419 -7 -390 28 -353 -330 -353
-344 0 -356 6 -370 192 -10 140 -40 193 -139 251 -72 42 -630 42 -702 0 -104
-61 -130 -112 -138 -270 -9 -177 -2 -172 -276 -176 -139 -2 -229 1 -257 8 -55
15 -190 144 -213 204 -21 56 -18 2106 3 2144 20 34 39 27 76 -31 18 -28 50
-71 69 -95 46 -54 57 -95 57 -206 0 -202 92 -301 280 -301 249 0 377 269 219
461 -24 28 -45 68 -55 103 -8 31 -25 79 -37 106 -36 82 -34 935 2 1010 21 44
25 69 30 210 6 161 6 161 60 273 79 163 76 195 -33 311 -136 144 -218 148
-354 18 -85 -82 -100 -110 -112 -203 -13 -108 -135 -354 -174 -354 -41 0 -41
-2 -44 1175 -2 993 -1 1135 13 1170 20 53 149 182 201 200 48 17 577 21 637 4z
m957 -242 c168 1 331 2 363 3 72 3 97 -15 97 -72 0 -153 175 -158 188 -5 6 74
-16 69 377 75 187 2 369 4 404 5 76 1 108 -23 91 -69 -39 -101 29 -156 120
-99 22 14 49 25 61 25 12 0 34 -11 51 -25 75 -63 158 12 98 88 -11 14 -29 29
-40 32 -75 24 44 46 217 41 165 -5 157 -2 187 -70 58 -131 227 -159 202 -34
-19 90 -9 108 49 94 19 -5 23 -14 27 -63 13 -151 198 -147 198 5 0 79 -18 77
760 69 264 -3 441 -1 487 6 58 9 86 8 145 -5 40 -8 89 -13 108 -11 55 7 73
-13 76 -83 2 -33 6 -92 10 -132 10 -115 -17 -159 -66 -107 -75 80 -168 -13
-95 -94 59 -65 22 -72 -352 -73 -35 0 -211 0 -393 0 -181 0 -356 0 -387 0 -32
0 -206 0 -388 0 -181 1 -358 1 -392 1 -53 0 -833 0 -1023 0 -33 0 -208 0 -390
0 -181 0 -358 0 -392 0 -35 0 -233 1 -440 2 -437 1 -425 -1 -382 76 33 60 27
90 -28 123 -93 57 -176 -42 -116 -138 31 -51 10 -65 -93 -60 -102 4 -121 19
-79 63 34 35 40 78 13 107 -24 27 -75 23 -103 -7 -31 -33 -46 -32 -59 6 -21
62 -8 161 22 159 1 0 22 -6 47 -14 73 -22 128 14 116 76 -19 90 -9 108 49 94
19 -5 23 -14 27 -61 13 -157 188 -156 188 1 0 60 43 90 110 75 14 -3 162 -4
330 -4z m7474 -121 c96 -40 58 -207 -43 -193 -42 5 -186 103 -198 134 -20 52
155 95 241 59z m-711 -57 c35 -9 246 -194 271 -237 15 -25 -44 -68 -125 -92
-119 -36 -154 -99 -88 -161 47 -43 88 -47 172 -13 50 19 100 30 163 35 97 7
113 13 187 67 131 95 181 53 185 -157 5 -227 -26 -268 -138 -186 -166 122
-475 163 -569 76 -95 -89 -7 -162 204 -169 139 -5 165 -11 165 -42 0 -31 -26
-37 -165 -42 -172 -6 -235 -35 -235 -109 0 -123 280 -149 496 -46 177 83 239
72 239 -44 0 -110 53 -104 -839 -107 -881 -3 -845 -6 -866 65 -8 26 -10 201
-8 574 3 590 1 564 63 590 30 12 843 11 888 -2z m-8023 -1699 c33 -33 25 -80
-32 -193 -52 -102 -52 -102 -58 -267 -5 -145 -9 -172 -31 -220 -37 -84 -38
-933 -1 -1018 13 -29 26 -76 29 -104 5 -42 14 -60 55 -106 92 -105 85 -252
-12 -252 -54 0 -74 39 -80 154 -5 103 -5 103 -52 155 -123 136 -123 138 -123
783 0 578 0 578 82 737 50 96 85 176 88 202 13 97 17 111 36 130 25 25 74 24
99 -1z m7924 -164 c26 -11 40 -27 59 -69 30 -66 57 -83 156 -97 90 -13 225
-71 229 -99 6 -35 -49 -53 -179 -61 -162 -9 -221 -48 -193 -127 27 -79 238
-107 374 -50 36 15 88 34 115 42 28 8 77 24 110 36 140 50 189 10 193 -160 6
-186 -34 -236 -129 -165 -57 43 -89 56 -158 65 -36 4 -95 20 -131 35 -146 59
-320 20 -320 -73 0 -63 56 -97 175 -108 98 -9 145 -26 145 -54 0 -23 -10 -26
-105 -36 -149 -17 -257 -131 -199 -213 26 -38 49 -44 91 -26 26 12 83 19 183
24 164 9 180 13 263 75 102 77 182 52 182 -56 0 -101 -11 -105 -328 -101 -150
2 -289 7 -309 12 -24 5 -58 3 -95 -6 -76 -18 -872 -20 -923 -3 -60 21 -60 21
-60 607 0 576 1 585 54 608 46 20 752 20 800 0z m831 -16 c56 -53 36 -160 -30
-160 -43 0 -165 109 -165 148 0 46 149 56 195 12z m-4433 -1827 c9 -10 19 -48
23 -85 5 -48 14 -79 36 -113 88 -139 83 -116 89 -460 6 -304 6 -311 30 -360
37 -74 38 -392 2 -470 -13 -27 -27 -82 -31 -121 -10 -81 -19 -101 -73 -160
-44 -48 -57 -89 -58 -180 0 -48 -4 -65 -20 -79 -59 -54 -84 98 -35 215 39 93
39 1577 0 1662 -45 96 -16 212 37 151z m4408 -14 c62 -22 60 -1 60 -819 0
-818 2 -797 -60 -819 -47 -16 -2033 -16 -2080 0 -62 22 -60 2 -60 817 0 801 0
794 54 818 42 18 2034 21 2086 3z m-3235 -903 c55 -24 56 -34 53 -598 -4 -631
31 -563 -288 -563 -312 0 -285 -34 -285 353 0 294 0 298 24 347 22 45 25 66
30 231 8 250 0 242 259 243 128 1 181 -3 207 -13z m-2078 -499 c48 -48 46
-475 -3 -494 -24 -9 -77 40 -118 111 -79 134 -175 128 -205 -14 -6 -29 -21
-74 -32 -99 -69 -155 -18 -278 113 -274 79 3 114 -11 142 -57 44 -76 6 -83
-429 -77 -735 10 -750 11 -764 50 -18 47 15 62 59 27 37 -29 62 -24 113 20 56
49 58 49 114 0 55 -48 72 -49 112 -10 72 72 71 244 -1 346 -25 35 -29 50 -28
95 3 90 1 99 -25 124 -59 60 -108 28 -182 -118 -138 -278 -192 -250 -192 99
-1 237 5 269 53 290 71 31 1241 14 1273 -19z m1334 -108 c7 -14 12 -103 13
-260 1 -279 -4 -294 -104 -294 -122 0 -155 185 -54 306 49 59 63 89 70 156 11
98 47 143 75 92z m-3815 -295 c35 -17 48 -44 58 -124 3 -25 14 -66 25 -90 45
-99 11 -195 -77 -220 -59 -16 -436 -13 -477 4 -48 21 -57 60 -53 237 4 213 -3
207 286 208 167 1 210 -2 238 -15z m4468 -487 c10 -7 15 -19 11 -28 -22 -56
-285 -55 -285 1 0 39 227 62 274 27z"/>
<path d="M3178 5400 c-65 -20 -144 -89 -171 -149 -9 -18 -13 -190 -17 -601 -5
-575 -5 -575 -29 -625 -61 -127 -39 -328 46 -413 136 -136 141 -137 953 -137
814 0 767 -5 853 95 58 68 57 51 57 870 0 887 5 853 -138 938 -47 27 -1470 48
-1554 22z m1459 -223 c44 -44 44 -1431 0 -1474 -38 -39 -1382 -45 -1433 -7
-78 57 -99 210 -44 319 25 50 25 50 30 591 5 595 3 569 65 595 11 4 320 7 687
6 668 -2 668 -2 695 -30z"/>
<path d="M6778 5280 c-77 -24 -215 -156 -236 -226 -17 -58 -17 -690 0 -748 15
-49 121 -165 187 -204 72 -42 690 -42 762 0 66 39 172 155 187 204 17 58 17
690 0 748 -15 49 -121 165 -187 204 -48 28 -636 46 -713 22z m656 -204 c53
-22 56 -43 56 -396 0 -449 36 -410 -378 -410 -418 0 -382 -39 -382 408 0 352
3 376 54 398 46 20 602 20 650 0z"/>
<path d="M2577 7232 c-27 -29 -35 -66 -27 -112 7 -37 4 -55 -17 -106 -26 -62
-26 -62 -3 -98 74 -121 212 -35 157 98 -22 53 -24 69 -16 105 19 87 -46 166
-94 113z"/>
<path d="M2815 7225 c-46 -45 -23 -115 37 -115 32 0 58 29 58 64 0 27 -39 76
-60 76 -6 0 -22 -11 -35 -25z"/>
<path d="M3051 7224 c-54 -68 25 -159 82 -96 33 37 3 122 -43 122 -10 0 -28
-12 -39 -26z"/>
<path d="M3586 7224 c-43 -44 -17 -114 43 -114 59 0 81 71 36 115 -31 32 -46
31 -79 -1z"/>
<path d="M3835 7225 c-46 -45 -23 -115 37 -115 32 0 58 29 58 64 0 27 -39 76
-60 76 -6 0 -22 -11 -35 -25z"/>
<path d="M4072 7227 c-45 -48 -18 -117 46 -117 53 0 70 64 31 114 -25 32 -49
33 -77 3z"/>
<path d="M4852 7227 c-27 -29 -29 -78 -3 -101 48 -43 126 14 101 74 -22 53
-63 64 -98 27z"/>
<path d="M5626 7224 c-28 -29 -32 -58 -16 -113 8 -27 5 -44 -16 -94 -26 -61
-26 -62 -8 -95 72 -134 210 -44 155 101 -16 43 -18 62 -10 95 21 96 -46 164
-105 106z"/>
<path d="M5937 7232 c-28 -31 -38 -70 -28 -114 8 -33 6 -52 -10 -95 -55 -145
83 -235 155 -101 18 33 18 34 -7 94 -22 51 -24 67 -16 102 19 88 -46 167 -94
114z"/>
<path d="M6175 7225 c-46 -45 -23 -115 37 -115 32 0 58 29 58 64 0 27 -39 76
-60 76 -6 0 -22 -11 -35 -25z"/>
<path d="M6417 7230 c-31 -25 -40 -58 -28 -112 8 -35 6 -51 -16 -102 -25 -60
-25 -61 -7 -94 72 -134 210 -44 155 101 -16 44 -18 62 -10 96 14 62 -18 131
-61 131 -4 0 -19 -9 -33 -20z"/>
<path d="M6655 7226 c-32 -32 -32 -72 0 -116 28 -38 30 -52 13 -113 -21 -80
49 -168 108 -136 78 41 86 99 25 177 -30 38 -39 59 -43 101 -9 92 -57 133
-103 87z"/>
<path d="M6951 7224 c-59 -75 33 -160 97 -91 30 32 27 61 -9 91 -39 33 -62 33
-88 0z"/>
<path d="M2800 6970 c-34 -34 2 -120 50 -120 22 0 60 49 60 78 0 56 -69 83
-110 42z"/>
<path d="M3047 6972 c-33 -37 -3 -122 43 -122 25 0 60 46 60 80 0 53 -68 80
-103 42z"/>
<path d="M3347 6972 c-33 -37 -3 -122 43 -122 25 0 60 46 60 80 0 53 -68 80
-103 42z"/>
<path d="M3587 6972 c-32 -35 -1 -122 43 -122 22 0 60 49 60 78 0 55 -68 83
-103 44z"/>
<path d="M3827 6972 c-33 -37 -3 -122 43 -122 25 0 60 46 60 80 0 53 -68 80
-103 42z"/>
<path d="M4120 6971 c-23 -45 7 -121 49 -121 49 0 80 90 43 123 -26 24 -79 22
-92 -2z"/>
<path d="M4367 6972 c-32 -35 -1 -122 43 -122 22 0 60 49 60 78 0 55 -68 83
-103 44z"/>
<path d="M4607 6972 c-32 -35 -1 -122 43 -122 22 0 60 49 60 78 0 55 -68 83
-103 44z"/>
<path d="M4847 6972 c-33 -37 -3 -122 43 -122 25 0 60 46 60 80 0 53 -68 80
-103 42z"/>
<path d="M5147 6972 c-33 -37 -3 -122 43 -122 25 0 60 46 60 80 0 53 -68 80
-103 42z"/>
<path d="M5387 6972 c-32 -36 -1 -122 43 -122 20 0 70 57 70 79 0 51 -79 81
-113 43z"/>
<path d="M6160 6970 c-34 -34 2 -120 50 -120 19 0 70 57 70 79 0 30 -35 61
-70 61 -17 0 -39 -9 -50 -20z"/>
</g>
</svg>
