<?xml version="1.0" standalone="no"?>
<!DOCTYPE svg PUBLIC "-//W3C//DTD SVG 20010904//EN"
 "http://www.w3.org/TR/2001/REC-SVG-20010904/DTD/svg10.dtd">
<svg version="1.0" xmlns="http://www.w3.org/2000/svg"
 width="924.000000pt" height="780.000000pt" viewBox="0 0 924.000000 780.000000"
 preserveAspectRatio="xMidYMid meet">
<metadata>
Created by potrace 1.16, written by Peter Selinger 2001-2019
</metadata>
<g transform="translate(0.000000,780.000000) scale(0.100000,-0.100000)"
fill="#f97316" stroke="none">
<path d="M1189 6896 c-167 -59 -355 -324 -352 -496 1 -52 1 -138 1 -190 -4
-2001 -5 -1951 22 -2010 25 -55 25 -55 25 -510 0 -455 0 -455 -25 -505 -29
-58 -46 -1773 -19 -1875 14 -52 288 -340 369 -388 45 -27 45 -27 3410 -27
3365 0 3365 0 3450 41 119 57 168 104 226 216 73 139 78 5287 5 5428 -81 157
-197 255 -322 271 -38 5 -91 19 -117 31 -57 28 -6597 42 -6673 14z m6568 -219
c44 -44 44 -5510 0 -5554 -30 -30 -6391 -52 -6500 -22 -54 14 -190 144 -212
203 -31 81 -17 1806 15 1876 25 55 25 55 25 510 0 455 0 455 -25 510 -32 70
-45 1809 -15 1943 14 61 14 74 -1 139 -39 173 37 383 152 418 16 5 1456 8
3281 7 3253 -2 3253 -2 3280 -30z m325 -84 c69 -78 63 168 63 -2723 0 -2615 0
-2615 -23 -2653 -46 -74 -112 -82 -126 -16 -15 75 -7 5338 8 5374 17 40 52 47
78 18z"/>
<path d="M1678 6360 c-80 -24 -217 -159 -238 -234 -22 -78 -9 -310 21 -371 24
-50 24 -50 29 -685 6 -716 -1 -659 93 -757 122 -127 63 -118 757 -118 860 0
790 -70 790 789 0 634 -3 603 64 690 51 67 50 106 -8 183 -24 32 -54 78 -66
103 -28 55 -307 341 -370 378 -46 28 -992 47 -1072 22z m322 -201 c159 4 184
-22 107 -106 -28 -32 -42 -29 -94 17 -64 56 -97 50 -143 -25 -35 -57 -47 -59
-134 -17 -150 73 -102 151 84 135 47 -4 128 -6 180 -4z m889 -165 c39 -50 25
-95 -47 -160 -53 -47 -48 -78 31 -172 59 -70 58 -67 55 -664 -3 -548 -3 -548
-31 -575 -30 -31 -1044 -51 -1140 -23 -68 20 -67 5 -67 672 0 659 -1 648 65
714 56 55 59 55 115 -6 56 -61 87 -65 146 -20 49 37 59 37 108 0 22 -17 51
-30 66 -30 15 0 44 13 66 30 21 16 46 29 54 29 8 0 33 -13 54 -29 22 -17 51
-30 66 -30 15 0 44 13 66 30 21 16 46 29 54 29 8 0 33 -13 54 -29 69 -52 196
-10 182 60 -27 136 -12 200 48 200 25 0 40 -7 55 -26z"/>
<path d="M3778 6360 c-77 -23 -215 -156 -236 -226 -17 -57 -17 -1828 -1 -1885
47 -156 198 -209 335 -116 121 81 947 82 1067 0 262 -177 529 97 341 350 -58
77 -55 50 -52 642 3 520 3 520 26 570 70 151 52 196 -177 428 -264 269 -179
242 -776 244 -275 1 -512 -2 -527 -7z m943 -216 c50 -51 -4 -161 -65 -131 -52
24 -87 21 -132 -13 -21 -16 -46 -29 -54 -29 -8 0 -33 13 -54 29 -22 17 -51 30
-66 30 -15 0 -44 -13 -66 -30 -21 -16 -46 -29 -54 -29 -8 0 -33 13 -54 29 -47
35 -85 38 -132 9 -40 -24 -62 -16 -94 36 -40 65 -84 81 -130 45 -28 -22 -59
-26 -61 -7 -5 50 18 67 95 68 34 1 75 5 91 9 78 21 753 6 776 -16z m333 -214
c45 -54 44 -160 -2 -244 -15 -28 -18 -88 -22 -582 -7 -778 49 -708 -568 -712
-499 -3 -515 -2 -538 53 -26 62 -20 1033 7 1105 22 59 36 117 44 191 9 73 24
88 69 66 52 -24 87 -21 132 13 49 37 59 37 108 0 22 -17 51 -30 66 -30 15 0
44 13 66 30 21 16 46 29 54 29 8 0 33 -13 54 -29 22 -17 51 -30 66 -30 15 0
44 13 66 30 21 16 46 29 54 29 8 0 33 -13 54 -29 66 -50 131 -30 157 48 33
102 80 124 133 62z"/>
<path d="M5878 6360 c-76 -23 -215 -157 -236 -228 -17 -56 -17 -1828 0 -1883
41 -139 178 -197 328 -141 53 20 73 21 510 22 485 0 623 21 745 114 108 83
105 59 105 817 0 554 2 668 15 723 36 157 -76 370 -238 452 -17 9 -61 37 -96
62 -36 25 -81 51 -100 58 -41 15 -986 18 -1033 4z m364 -200 c90 -25 67 -103
-36 -125 -17 -4 -51 -28 -78 -56 -57 -59 -67 -56 -118 28 -18 30 -46 70 -63
89 -18 21 -26 39 -21 44 27 27 242 40 316 20z m578 -20 c24 -24 25 -38 4 -90
-26 -64 -72 -41 -98 47 -15 49 56 81 94 43z m282 -182 c3 -7 0 -30 -5 -51 -8
-30 -5 -53 12 -110 33 -110 29 -1329 -4 -1373 -63 -83 -100 -89 -567 -89 -474
0 -448 -4 -502 69 -37 49 -32 1281 6 1352 40 76 52 83 99 56 52 -30 88 -28
135 8 21 16 46 29 54 29 8 0 33 -13 54 -29 22 -17 51 -30 66 -30 15 0 44 13
66 30 21 16 46 29 54 29 8 0 33 -13 54 -29 22 -17 51 -30 66 -30 15 0 44 13
66 30 21 16 46 29 54 29 8 0 33 -13 54 -29 68 -52 162 -12 181 76 14 66 45 99
57 62z"/>
<path d="M1607 3716 c-161 -58 -234 -298 -146 -481 37 -77 38 -1290 1 -1370
-96 -207 70 -426 331 -434 167 -5 194 1 284 62 119 80 527 80 646 0 159 -107
298 -86 441 68 103 112 108 166 22 280 -59 78 -58 65 -54 494 3 371 3 371 57
480 87 176 87 355 -1 461 -22 27 -51 71 -65 99 -31 60 -247 284 -313 323 -54
32 -1120 48 -1203 18z m501 -197 c87 -30 6 -136 -111 -144 -182 -14 -327 -14
-342 1 -37 38 -10 127 45 147 28 10 377 7 408 -4z m453 -16 c50 -49 0 -108
-124 -147 -139 -43 -160 -27 -116 88 32 87 177 122 240 59z m284 -43 c64 -40
77 -115 22 -134 -48 -17 -97 35 -97 103 0 51 25 62 75 31z m-715 -311 c115
-43 159 -46 251 -15 104 35 149 32 214 -15 38 -27 57 -34 99 -35 82 -2 85 -3
96 -25 6 -11 16 -47 21 -79 5 -35 30 -102 62 -167 52 -107 52 -107 55 -479 3
-446 11 -414 -118 -507 -112 -81 -105 -79 -416 -75 -242 3 -242 3 -310 51 -84
57 -116 67 -220 67 -185 0 -174 -42 -174 648 0 608 1 614 54 638 54 23 318 18
386 -7z"/>
<path d="M3778 3720 c-77 -23 -215 -156 -236 -226 -17 -58 -17 -1768 0 -1825
43 -144 189 -205 356 -150 105 35 1030 49 1163 17 132 -32 214 50 183 182 -11
44 -14 189 -14 660 0 663 -3 629 64 716 78 103 36 198 -188 424 -225 229 -143
207 -771 209 -291 1 -542 -2 -557 -7z m703 -216 c50 -51 -4 -161 -65 -131 -52
24 -87 21 -132 -13 -52 -39 -68 -38 -104 11 -52 72 -50 126 5 150 45 19 273 6
296 -17z m403 4 c104 -54 202 -192 150 -212 -40 -15 -67 -5 -117 44 -57 56
-89 63 -153 33 -58 -28 -115 77 -69 127 28 31 136 36 189 8z m-1030 -4 c24 -9
20 -19 -24 -48 -53 -35 -70 -34 -70 4 0 41 46 63 94 44z m191 -334 c39 -26 87
-25 135 2 39 23 39 23 88 -30 40 -43 54 -52 82 -52 28 0 42 9 82 52 49 53 49
53 88 30 49 -28 90 -28 141 1 40 22 40 22 82 -25 55 -61 71 -68 145 -61 77 7
126 -31 137 -108 23 -159 0 -1169 -28 -1196 -27 -28 -27 -28 -506 -28 -534 0
-501 -4 -555 69 -35 46 -32 1220 3 1286 44 85 57 92 106 60z"/>
<path d="M5878 3720 c-77 -23 -215 -156 -236 -226 -17 -58 -17 -1769 0 -1826
14 -48 122 -168 182 -202 93 -54 163 -47 273 27 120 81 826 81 947 0 127 -86
192 -72 324 72 97 106 102 166 23 268 -22 29 -44 65 -50 80 -19 48 -14 1216 4
1295 26 111 -4 173 -169 340 -190 194 -118 177 -741 179 -291 1 -542 -2 -557
-7z m124 -200 c69 -19 71 -93 3 -112 -16 -5 -54 -18 -84 -30 -65 -25 -81 -14
-81 57 0 76 68 111 162 85z m339 -21 c22 -22 21 -42 -3 -102 -20 -51 -69 -19
-92 60 -15 50 56 81 95 42z m726 -62 c40 -38 48 -71 29 -125 -14 -40 -14 -45
7 -90 22 -47 22 -48 22 -678 0 -865 50 -788 -511 -792 -444 -3 -449 -2 -522
63 -86 77 -83 58 -80 630 3 500 3 500 30 565 15 36 30 81 33 101 10 63 26 77
69 56 52 -24 87 -21 132 13 49 37 59 37 108 0 22 -17 51 -30 66 -30 15 0 44
13 66 30 21 16 46 29 54 29 8 0 33 -13 54 -29 22 -17 51 -30 66 -30 15 0 44
13 66 30 21 16 46 29 54 29 8 0 33 -13 54 -29 56 -42 90 -40 137 10 55 58 57
76 15 155 -65 123 -36 175 51 92z m-1155 -1734 c22 -19 23 -42 4 -49 -21 -8
-56 14 -56 35 0 34 23 41 52 14z"/>
</g>
</svg>
