<?xml version="1.0" standalone="no"?>
<!DOCTYPE svg PUBLIC "-//W3C//DTD SVG 20010904//EN"
 "http://www.w3.org/TR/2001/REC-SVG-20010904/DTD/svg10.dtd">
<svg version="1.0" xmlns="http://www.w3.org/2000/svg"
 width="1026.000000pt" height="876.000000pt" viewBox="0 0 1026.000000 876.000000"
 preserveAspectRatio="xMidYMid meet">
<metadata>
Created by potrace 1.16, written by Peter Selinger 2001-2019
</metadata>
<g transform="translate(0.000000,876.000000) scale(0.100000,-0.100000)"
fill="#f97316" stroke="none">
<path d="M3635 7931 c-50 -30 -144 -141 -155 -183 -19 -70 0 -109 108 -220
158 -163 122 -153 552 -153 430 0 394 -10 550 151 115 119 135 167 114 273
-22 110 -151 120 -184 13 -25 -80 -34 -95 -66 -108 -50 -21 -770 -20 -819 0
-47 20 -50 56 -9 118 58 90 -3 163 -91 109z"/>
<path d="M5322 7934 c-33 -23 -92 -146 -92 -192 0 -59 209 -294 310 -348 64
-35 689 -28 750 7 172 102 288 293 249 410 -57 170 -220 190 -204 25 14 -150
27 -146 -449 -146 -470 0 -473 1 -441 119 27 105 -46 179 -123 125z"/>
<path d="M1365 6296 c-146 -47 -436 -301 -464 -406 -9 -34 -11 -586 -9 -2315
3 -2270 3 -2270 47 -2355 49 -95 190 -250 271 -298 71 -42 7829 -43 7900 -1
72 43 163 145 211 239 44 85 44 85 47 2415 2 1782 0 2341 -9 2375 -20 76 -207
256 -324 312 -90 43 -90 43 -3065 43 -2975 0 -2975 0 -3027 -22 -65 -29 -125
-29 -183 0 -55 27 -1314 39 -1395 13z m1365 -208 c74 -29 166 -28 242 0 116
44 5951 27 6046 -17 82 -39 138 -93 147 -143 3 -18 4 -1077 3 -2354 -3 -2573
4 -2387 -92 -2459 -27 -20 -7654 -40 -7794 -20 -61 9 -111 57 -153 147 -34 73
-34 73 -37 2343 -2 2043 -1 2274 13 2312 28 74 143 162 260 199 80 25 1297 18
1365 -8z"/>
<path d="M1738 5760 c-84 -25 -276 -215 -298 -294 -16 -58 -8 -126 22 -191 37
-80 36 -933 -1 -1010 -88 -183 -13 -417 168 -523 72 -42 1170 -42 1242 0 198
116 259 332 139 493 -20 28 -41 57 -46 65 -5 8 -11 249 -14 535 -6 605 -5 600
-184 783 -153 157 -111 147 -591 149 -225 1 -422 -2 -437 -7z m60 -230 c5 -28
-85 -112 -116 -108 -49 6 -42 76 11 109 38 23 100 22 105 -1z m896 -226 c9 -8
16 -19 16 -24 0 -38 -17 -40 -444 -40 -429 0 -456 3 -441 41 13 35 46 38 452
38 352 1 403 -1 417 -15z m23 -307 c28 -27 28 -27 28 -356 0 -465 46 -426
-493 -426 -586 0 -557 -22 -557 435 0 347 0 346 60 371 62 26 934 4 962 -24z
m142 -940 c17 -47 2 -110 -31 -128 -17 -9 -953 -17 -1130 -10 -74 3 -80 161
-6 161 11 0 57 -17 102 -37 81 -38 81 -38 441 -38 407 0 414 1 487 56 71 54
115 52 137 -4z"/>
<path d="M3649 5756 c-174 -63 -313 -302 -259 -445 34 -89 26 -793 -10 -866
-29 -61 -43 -408 -19 -494 15 -53 118 -168 188 -209 73 -43 1170 -42 1242 0
196 115 247 287 133 441 -57 77 -55 53 -52 612 3 488 3 490 26 540 75 162 13
293 -185 388 -88 42 -88 42 -558 44 -367 2 -478 0 -506 -11z m965 -452 c9 -8
16 -19 16 -24 0 -39 -16 -40 -474 -40 -461 0 -486 2 -471 41 13 35 45 38 482
38 380 1 433 -1 447 -15z m23 -307 c31 -31 50 -628 23 -720 -19 -66 -27 -67
-458 -67 -457 0 -453 -1 -476 107 -4 18 -29 62 -56 98 -60 82 -62 93 -58 351
4 289 -49 264 540 261 458 -2 458 -2 485 -30z m-1014 -878 c12 -7 39 -27 61
-46 77 -69 67 -68 516 -68 363 0 409 2 448 18 103 42 172 -6 110 -78 -26 -29
-1112 -45 -1164 -17 -51 27 -58 164 -11 194 15 10 15 10 40 -3z"/>
<path d="M5578 5760 c-78 -24 -274 -214 -296 -287 -24 -80 -12 -146 41 -220
26 -36 28 -47 23 -90 -3 -26 -9 -106 -14 -178 -7 -106 -13 -139 -33 -180 -29
-60 -44 -762 -18 -854 15 -53 118 -168 188 -209 72 -42 1170 -42 1242 0 176
104 247 297 168 463 -24 49 -24 55 -29 450 -5 395 -6 401 -29 449 -17 37 -26
77 -31 150 -12 166 -147 418 -259 484 -47 28 -873 47 -953 22z m60 -230 c5
-28 -85 -112 -116 -108 -49 6 -42 76 11 109 38 23 100 22 105 -1z m896 -226
c9 -8 16 -19 16 -24 0 -38 -17 -40 -444 -40 -429 0 -456 3 -441 41 13 35 46
38 452 38 352 1 403 -1 417 -15z m83 -307 c28 -27 28 -27 28 -356 0 -465 46
-426 -495 -426 -520 0 -492 -16 -501 283 -6 207 -5 204 -65 284 -75 102 -68
210 16 241 8 3 234 5 502 4 488 -2 488 -2 515 -30z m-970 -929 c126 -63 126
-63 502 -63 376 0 376 0 443 33 78 37 72 36 92 16 25 -24 20 -86 -7 -112 -26
-24 -1083 -41 -1151 -19 -67 23 -74 203 -8 207 2 0 60 -28 129 -62z"/>
<path d="M7498 5760 c-78 -24 -274 -214 -296 -287 -25 -82 -9 -159 45 -222 63
-74 63 -73 63 -481 0 -408 0 -407 -63 -481 -91 -106 -81 -336 20 -437 132
-133 158 -137 803 -137 692 0 663 -8 771 207 67 133 64 214 -12 313 -20 28
-42 63 -48 78 -19 48 -15 910 4 992 28 119 -23 271 -117 348 -131 108 -156
112 -673 114 -258 1 -482 -2 -497 -7z m60 -231 c5 -27 -117 -137 -138 -124
-16 10 -11 78 8 101 36 44 123 60 130 23z m906 -220 c32 -15 39 -34 20 -54
-23 -23 -805 -23 -828 0 -19 19 -12 39 17 53 32 15 758 16 791 1z m73 -312
c28 -27 28 -27 28 -356 0 -465 46 -426 -493 -426 -585 0 -557 -22 -557 435 0
347 0 346 60 371 62 26 934 4 962 -24z m-970 -929 c126 -63 126 -63 487 -63
408 0 415 1 488 55 83 63 138 52 138 -29 0 -34 -41 -88 -79 -102 -38 -15
-1100 -16 -1127 -1 -66 35 -100 145 -58 186 20 21 7 25 151 -46z"/>
<path d="M1678 3420 c-183 -56 -290 -266 -216 -425 37 -80 36 -933 -1 -1010
-71 -146 -40 -327 74 -442 164 -165 179 -168 745 -168 567 0 513 -12 671 152
143 150 157 237 58 368 -61 81 -59 58 -59 682 0 661 4 624 -88 724 -122 132
-81 124 -657 126 -275 1 -512 -2 -527 -7z m38 -235 c8 -20 -13 -45 -37 -45
-19 0 -28 38 -12 53 12 13 44 7 49 -8z m928 -156 c33 -15 42 -40 20 -56 -26
-19 -802 -19 -828 0 -21 15 -13 40 17 55 32 15 758 16 791 1z m73 -312 c31
-31 50 -628 23 -720 -20 -68 -22 -68 -515 -65 -582 4 -530 -38 -530 428 0 358
0 356 60 381 62 26 934 4 962 -24z m-978 -954 c72 -36 880 -49 990 -17 125 37
180 -29 100 -121 -48 -55 -62 -56 -571 -53 -550 4 -618 20 -618 149 0 70 23
79 99 42z"/>
<path d="M3658 3420 c-66 -20 -203 -144 -231 -209 -7 -16 -13 -126 -17 -301
-5 -268 -6 -276 -30 -325 -30 -59 -45 -878 -19 -975 19 -67 97 -140 206 -193
137 -66 1069 -66 1206 0 223 107 287 305 156 478 -61 81 -59 56 -59 712 0 720
2 708 -138 791 -48 28 -992 47 -1074 22z m906 -391 c33 -15 42 -40 20 -56 -19
-14 -783 -20 -831 -7 -33 9 -28 39 10 58 40 20 758 24 801 5z m73 -312 c34
-33 50 -657 19 -731 -23 -55 -42 -58 -478 -54 -491 4 -441 -29 -448 296 -6
260 -5 252 -67 335 -62 85 -56 153 17 180 8 3 221 5 472 4 458 -2 458 -2 485
-30z m-978 -954 c72 -36 880 -49 990 -17 72 21 101 21 118 -2 37 -51 -11 -143
-85 -164 -50 -13 -974 -13 -1024 0 -80 23 -132 145 -82 194 20 20 17 21 83
-11z"/>
<path d="M5578 3420 c-143 -44 -263 -254 -213 -373 21 -51 18 -114 -8 -167
-21 -44 -22 -58 -27 -445 -5 -397 -5 -400 -29 -450 -30 -62 -41 -237 -20 -313
20 -75 149 -199 265 -254 116 -56 1074 -69 1165 -16 176 104 247 297 168 463
-24 50 -24 53 -29 480 -5 427 -6 430 -29 480 -32 66 -38 161 -17 256 21 97 0
168 -75 254 -81 92 -65 90 -624 92 -275 1 -512 -2 -527 -7z m956 -396 c9 -8
16 -19 16 -24 0 -38 -17 -40 -444 -40 -429 0 -456 3 -441 41 13 35 46 38 452
38 352 1 403 -1 417 -15z m83 -307 c34 -33 50 -657 19 -731 -23 -56 -36 -58
-548 -54 -609 4 -553 -39 -553 428 0 358 0 356 60 381 62 26 994 4 1022 -24z
m-1038 -954 c56 -28 56 -28 580 -29 580 -2 541 4 541 -71 0 -96 7 -95 -585
-91 -569 4 -635 19 -635 149 0 70 23 79 99 42z"/>
<path d="M7498 3420 c-78 -24 -274 -214 -296 -287 -25 -82 -9 -159 45 -222 63
-74 63 -76 63 -450 0 -369 0 -367 -59 -446 -61 -80 -83 -233 -49 -349 20 -69
154 -195 264 -248 138 -67 1009 -67 1147 -1 110 53 190 128 207 194 6 24 20
69 31 99 47 125 44 161 -19 243 -64 83 -62 60 -62 654 0 627 4 594 -88 694
-122 132 -81 124 -657 126 -275 1 -512 -2 -527 -7z m966 -391 c33 -15 42 -40
20 -56 -29 -21 -777 -19 -798 3 -9 8 -16 19 -16 24 0 5 7 16 16 24 20 20 735
24 778 5z m73 -312 c28 -27 28 -27 28 -356 0 -467 51 -426 -525 -426 -576 0
-525 -41 -525 425 0 358 0 356 60 381 62 26 934 4 962 -24z m111 -909 c50 -50
-60 -220 -151 -233 -156 -23 -943 0 -1000 30 -91 45 -128 123 -81 169 20 20
17 21 83 -11 56 -28 56 -28 486 -31 471 -3 487 -2 567 53 53 37 76 43 96 23z"/>
</g>
</svg>
