<?xml version="1.0" standalone="no"?>
<!DOCTYPE svg PUBLIC "-//W3C//DTD SVG 20010904//EN"
 "http://www.w3.org/TR/2001/REC-SVG-20010904/DTD/svg10.dtd">
<svg version="1.0" xmlns="http://www.w3.org/2000/svg"
 width="690.000000pt" height="942.000000pt" viewBox="0 0 690.000000 942.000000"
 preserveAspectRatio="xMidYMid meet">
<metadata>
Created by potrace 1.16, written by Peter Selinger 2001-2019
</metadata>
<g transform="translate(0.000000,942.000000) scale(0.100000,-0.100000)"
fill="#f97316" stroke="none">
<path d="M1605 8516 c-55 -18 -156 -70 -191 -99 -73 -60 -99 -61 -188 -2 -118
77 -186 60 -312 -78 -91 -99 -106 -183 -55 -299 12 -26 25 -80 31 -120 5 -40
19 -95 31 -122 15 -34 24 -82 29 -150 5 -68 15 -116 29 -148 12 -26 25 -80 31
-120 5 -40 19 -95 31 -122 15 -34 24 -82 29 -151 4 -57 14 -114 23 -131 8 -16
22 -56 31 -89 9 -33 107 -242 217 -465 188 -380 201 -410 209 -480 5 -41 16
-92 24 -112 36 -85 30 -96 -154 -283 -185 -189 -215 -288 -139 -450 23 -49 24
-58 29 -390 6 -334 6 -341 30 -390 21 -44 25 -69 30 -210 6 -139 10 -166 31
-210 21 -45 24 -68 29 -240 6 -172 9 -195 30 -240 22 -45 25 -68 30 -240 6
-173 9 -194 31 -240 22 -47 24 -65 29 -270 6 -205 8 -224 30 -270 21 -44 25
-70 30 -210 6 -139 10 -167 30 -210 21 -44 25 -70 30 -210 6 -160 6 -160 53
-251 99 -190 349 -379 591 -446 38 -10 81 -25 97 -34 16 -8 63 -19 105 -24 41
-5 96 -19 122 -31 31 -14 80 -24 147 -29 70 -5 116 -14 155 -31 86 -38 874
-38 960 0 39 17 85 26 155 31 67 5 116 15 147 29 26 12 81 26 122 31 42 5 89
16 105 24 16 9 59 24 97 35 379 112 534 218 585 402 11 39 27 86 36 103 12 22
18 70 23 161 5 107 11 139 30 180 21 45 24 69 30 240 5 172 8 195 30 240 21
45 24 68 30 240 5 172 8 195 30 240 21 45 24 68 30 240 5 172 8 195 29 240 21
44 25 71 31 210 5 140 9 166 30 210 23 47 24 63 30 300 5 237 6 253 29 300 21
44 25 70 31 210 5 139 9 167 31 215 20 46 23 68 21 130 -5 117 -4 195 3 318
11 171 7 180 -146 338 -158 163 -182 236 -128 384 11 30 29 86 39 123 11 37
95 216 185 398 152 302 166 336 175 405 5 42 19 96 30 122 12 26 25 80 30 120
6 40 19 94 30 120 12 26 25 80 30 120 6 40 19 94 30 120 12 26 25 80 30 120 6
40 19 94 31 120 14 32 24 80 29 148 5 70 14 115 30 150 110 241 -58 473 -304
421 -77 -17 -152 -4 -291 48 -196 75 -427 -4 -465 -159 -6 -23 -20 -66 -31
-96 -11 -30 -29 -86 -40 -124 -11 -38 -27 -83 -37 -100 -13 -25 -18 -70 -22
-221 -5 -173 -8 -195 -29 -240 -29 -61 -41 -238 -21 -310 24 -87 98 -150 222
-190 271 -87 264 -65 118 -365 -54 -113 -106 -231 -115 -264 -13 -47 -28 -71
-81 -127 -61 -65 -154 -226 -154 -266 0 -86 -110 -115 -230 -62 -28 13 -80 24
-138 28 -148 12 -188 88 -122 226 23 48 25 61 28 280 5 310 14 284 -173 475
-193 196 -179 166 -186 395 -5 171 -8 195 -29 240 -16 35 -25 78 -30 145 -17
227 -87 275 -400 275 -242 0 -265 -6 -339 -91 -54 -61 -55 -67 -61 -396 -5
-306 -5 -306 -37 -350 -18 -24 -51 -74 -74 -113 -23 -38 -81 -111 -130 -161
-121 -124 -113 -91 -119 -506 -6 -430 3 -406 -152 -419 -62 -5 -110 -15 -143
-30 -131 -59 -285 -25 -285 64 0 26 -87 192 -125 237 -35 42 -282 522 -320
622 -23 61 -9 86 61 110 27 9 74 26 104 37 30 11 73 20 96 21 175 1 290 201
215 372 -12 26 -25 80 -31 120 -5 40 -18 94 -30 120 -11 26 -24 80 -30 120 -5
40 -19 95 -31 122 -15 34 -24 82 -29 151 -4 59 -14 113 -23 132 -9 17 -25 63
-36 103 -46 165 -183 251 -326 206z m3798 -221 c99 -49 119 -101 76 -195 -11
-24 -24 -78 -29 -118 -5 -40 -19 -94 -31 -120 -14 -32 -24 -80 -29 -148 -5
-68 -14 -116 -29 -150 -12 -27 -26 -83 -32 -124 -25 -201 -136 -274 -294 -194
-106 55 -137 181 -76 309 22 45 25 67 31 240 5 150 10 198 24 230 10 22 28 74
40 115 55 188 175 240 349 155z m-3671 -54 c47 -68 58 -105 58 -204 0 -64 5
-87 26 -130 19 -36 28 -73 32 -122 3 -39 13 -86 23 -107 34 -66 16 -128 -37
-128 -34 0 -76 -18 -104 -45 -37 -34 -80 -38 -80 -6 0 12 13 25 38 35 60 27
66 32 79 57 45 86 -47 179 -149 152 -25 -7 -41 -7 -45 -1 -7 13 16 28 43 28
33 0 104 86 104 126 0 34 -61 81 -125 95 -73 16 -73 14 -4 94 70 81 77 102 56
157 -33 82 28 81 85 -1z m-530 -20 c32 -36 35 -63 12 -137 -17 -52 -17 -52 36
-163 40 -86 54 -128 60 -184 5 -40 18 -93 29 -119 12 -26 25 -80 31 -120 5
-40 19 -95 32 -123 20 -45 23 -70 28 -240 5 -190 5 -190 167 -510 88 -176 177
-340 198 -365 48 -58 90 -141 114 -230 11 -40 33 -88 48 -107 59 -73 65 -90
73 -196 5 -69 15 -117 29 -149 12 -26 25 -80 31 -120 5 -40 19 -95 31 -123 15
-33 24 -81 29 -145 4 -52 13 -117 21 -143 27 -97 -18 -108 -184 -45 -42 16
-51 42 -58 173 -5 91 -12 131 -28 167 -12 26 -25 80 -31 120 -5 40 -18 94 -30
120 -11 26 -24 80 -30 120 -5 40 -18 94 -30 120 -11 26 -25 80 -30 122 -9 69
-24 104 -199 454 -104 209 -197 404 -206 433 -9 30 -28 86 -43 124 -17 47 -28
101 -33 165 -5 63 -14 111 -28 142 -12 26 -25 80 -31 120 -5 40 -19 95 -31
122 -15 34 -24 82 -29 150 -6 68 -15 116 -29 149 -12 26 -26 80 -30 120 -5 39
-18 92 -29 117 -40 93 -40 162 1 201 33 31 102 21 139 -20z m4582 -7 c23 -23
20 -109 -6 -164 -14 -31 -23 -77 -28 -150 -6 -78 -15 -119 -34 -161 -13 -31
-28 -85 -32 -120 -3 -35 -17 -89 -30 -119 -12 -31 -26 -85 -30 -120 -3 -36
-17 -90 -30 -120 -12 -31 -26 -85 -29 -120 -4 -36 -16 -85 -27 -110 -11 -25
-24 -81 -28 -125 -8 -77 -15 -92 -179 -420 -94 -187 -175 -362 -181 -390 -6
-27 -20 -70 -32 -95 -13 -30 -23 -80 -28 -147 -7 -96 -11 -109 -64 -220 -31
-65 -56 -127 -56 -138 0 -11 -12 -47 -26 -80 -23 -53 -27 -79 -33 -210 -8
-192 -42 -245 -156 -245 -70 0 -92 193 -36 315 16 35 25 80 31 151 5 69 14
115 30 150 16 35 24 78 29 150 7 105 14 122 74 197 15 19 37 67 48 107 29 107
73 185 149 265 57 60 72 83 85 131 25 90 31 104 140 324 57 113 106 221 110
240 4 19 18 60 30 90 13 31 27 85 31 120 3 36 17 90 30 120 12 31 26 85 29
120 4 36 16 85 27 110 14 30 23 81 28 150 6 78 15 119 34 161 13 31 28 85 32
120 15 142 88 274 128 233z m-2188 -380 c35 -17 40 -27 62 -139 6 -27 20 -75
31 -105 35 -94 25 -252 -17 -264 -65 -18 -362 10 -389 37 -38 37 -44 407 -8
447 39 43 247 59 321 24z m-1646 -453 c28 -53 -11 -99 -95 -110 -71 -10 -82
-4 -62 36 42 80 131 122 157 74z m1745 -297 c98 -44 118 -70 73 -96 -31 -18
-516 -25 -577 -8 -88 23 -33 95 109 141 78 25 302 4 395 -37z m344 -283 c44
-44 45 -465 1 -561 -21 -46 -24 -67 -22 -130 4 -86 4 -47 -6 -722 -7 -518 -7
-518 -35 -545 -27 -28 -27 -28 -483 -31 -565 -3 -518 -16 -552 153 -6 28 -20
75 -31 105 -24 65 -33 1622 -10 1689 16 46 41 52 121 29 109 -31 812 -23 878
9 57 28 113 30 139 4z m-1382 -1024 c28 -27 28 -27 33 -360 4 -283 7 -336 21
-362 43 -77 44 -173 3 -189 -69 -27 -276 18 -292 62 -5 15 -22 59 -37 97 -19
50 -30 99 -35 170 -5 66 -15 116 -29 147 -12 26 -26 80 -31 120 -5 40 -18 94
-29 118 -43 94 -23 146 66 174 26 9 73 25 103 36 83 31 190 25 227 -13z m1846
-2 c99 -49 119 -101 76 -195 -14 -30 -24 -78 -29 -146 -5 -71 -14 -114 -30
-150 -20 -41 -24 -72 -29 -199 -9 -200 -26 -223 -163 -213 -117 9 -113 -7
-113 467 0 448 -2 435 60 462 42 19 166 4 228 -26z m828 -302 c86 -73 84 -324
-3 -351 -173 -54 -225 -20 -216 143 10 185 121 290 219 208z m-3647 -93 c74
-179 50 -265 -74 -265 -163 1 -217 191 -90 318 81 81 113 70 164 -53z m192
-522 c69 -47 200 -100 299 -119 83 -16 158 -36 200 -53 26 -10 74 -15 137 -16
81 0 113 -5 189 -30 129 -43 1296 -44 1384 0 44 21 68 25 210 30 137 6 167 10
210 30 35 16 77 25 145 30 88 6 105 10 206 58 83 39 128 54 184 61 41 6 95 19
120 30 138 60 232 21 193 -81 -11 -29 -18 -94 -22 -203 -6 -140 -10 -166 -31
-210 -23 -47 -24 -63 -30 -300 -5 -237 -6 -253 -29 -300 -21 -44 -25 -70 -31
-210 -5 -139 -9 -166 -30 -210 -21 -45 -24 -68 -30 -240 -5 -172 -8 -195 -30
-240 -21 -45 -24 -68 -30 -240 -5 -172 -8 -195 -30 -240 -21 -45 -24 -68 -30
-240 -5 -171 -8 -195 -29 -240 -19 -41 -25 -75 -31 -180 -7 -131 -12 -151 -76
-302 -18 -43 -78 -81 -172 -110 -121 -36 -233 -74 -284 -94 -26 -11 -80 -24
-120 -29 -40 -5 -95 -19 -122 -31 -34 -15 -82 -24 -150 -29 -73 -6 -115 -15
-151 -32 -78 -36 -872 -36 -950 0 -36 17 -78 26 -151 32 -68 5 -116 14 -150
29 -27 12 -81 26 -121 31 -40 5 -89 17 -110 26 -21 9 -69 25 -106 35 -317 90
-427 216 -438 504 -5 139 -9 166 -29 210 -21 43 -25 71 -30 210 -6 140 -10
166 -31 210 -22 46 -24 65 -29 270 -6 205 -8 223 -30 270 -22 46 -25 67 -30
240 -6 172 -9 195 -30 240 -22 45 -25 68 -30 240 -6 172 -9 195 -30 240 -21
44 -25 71 -30 210 -6 140 -10 166 -31 210 -34 72 -38 508 -4 545 56 63 242 56
341 -12z"/>
</g>
</svg>
