<?xml version="1.0" standalone="no"?>
<!DOCTYPE svg PUBLIC "-//W3C//DTD SVG 20010904//EN"
 "http://www.w3.org/TR/2001/REC-SVG-20010904/DTD/svg10.dtd">
<svg version="1.0" xmlns="http://www.w3.org/2000/svg"
 width="642.000000pt" height="882.000000pt" viewBox="0 0 642.000000 882.000000"
 preserveAspectRatio="xMidYMid meet">
<metadata>
Created by potrace 1.16, written by Peter Selinger 2001-2019
</metadata>
<g transform="translate(0.000000,882.000000) scale(0.100000,-0.100000)"
fill="#f97316" stroke="none">
<path d="M2675 7914 c-42 -17 -117 -37 -200 -53 -187 -37 -260 -78 -416 -238
-164 -168 -149 -80 -149 -867 0 -769 8 -710 -101 -751 -94 -35 -346 -276 -367
-351 -9 -30 -12 -246 -12 -788 0 -870 9 -800 -101 -841 -68 -26 -85 -39 -202
-154 -154 -151 -164 -167 -177 -266 -5 -42 -20 -97 -32 -123 -27 -56 -42
-1715 -17 -1812 10 -40 37 -70 218 -250 245 -244 257 -251 595 -351 38 -11 81
-26 97 -35 16 -8 63 -19 105 -24 41 -5 96 -19 122 -31 32 -14 80 -24 148 -29
72 -5 114 -14 150 -31 48 -23 59 -24 389 -29 337 -6 341 -7 410 -33 88 -33
122 -33 210 0 69 26 76 27 380 33 298 6 312 7 359 29 36 17 78 26 150 31 68 5
116 15 148 29 26 12 81 26 122 31 42 5 89 16 105 24 16 9 59 24 97 35 462 137
737 332 764 545 5 42 20 100 32 129 37 85 35 755 -2 837 -37 81 -38 338 -1
415 36 75 41 195 11 281 -15 45 -20 78 -16 103 18 111 18 128 -3 187 -11 32
-25 79 -31 103 -13 51 -266 319 -378 398 -93 67 -86 16 -94 663 -4 316 -8 604
-9 640 -1 36 2 102 6 148 13 139 5 154 -159 318 -132 132 -146 143 -215 169
-109 41 -101 -18 -101 751 0 787 15 699 -149 867 -156 160 -229 201 -416 238
-83 16 -158 36 -200 53 -60 23 -1010 23 -1070 0z m1100 -212 c28 -13 83 -27
123 -32 40 -5 94 -18 120 -29 26 -11 73 -27 105 -36 194 -54 241 -250 65 -275
-35 -5 -85 -19 -110 -30 -26 -11 -80 -24 -120 -30 -40 -5 -95 -19 -123 -31
-42 -20 -74 -24 -210 -29 -140 -6 -166 -10 -210 -31 -46 -22 -62 -24 -205 -24
-143 0 -159 2 -205 24 -44 21 -70 25 -210 31 -136 5 -168 9 -210 29 -27 12
-83 26 -123 31 -40 6 -94 19 -120 30 -25 11 -75 25 -110 30 -176 25 -129 221
65 275 32 9 79 25 105 36 26 11 82 24 123 29 42 5 86 15 98 22 67 35 94 37
602 35 499 -2 500 -2 550 -25z m-1438 -602 c27 -12 81 -25 121 -30 40 -6 94
-19 120 -31 39 -19 73 -23 207 -29 139 -5 167 -9 215 -31 51 -22 67 -24 210
-24 143 0 159 2 210 24 48 22 76 26 215 31 134 6 168 10 207 29 26 12 80 25
120 31 40 5 96 19 123 31 75 34 156 32 192 -4 28 -27 28 -27 31 -630 2 -331 0
-617 -3 -635 -15 -81 -145 -164 -286 -181 -41 -6 -96 -20 -123 -32 -34 -15
-82 -24 -150 -29 -73 -6 -115 -15 -151 -32 -78 -36 -633 -36 -710 1 -41 19
-73 25 -180 31 -102 5 -141 11 -180 29 -27 12 -83 26 -124 32 -211 26 -330
159 -306 341 4 29 10 283 13 564 7 493 8 513 27 534 41 46 114 49 202 10z
m-437 -1317 c14 -9 77 -67 141 -129 140 -136 231 -188 355 -204 42 -5 96 -19
122 -31 37 -17 76 -23 177 -29 105 -5 140 -11 185 -31 85 -37 634 -37 720 0
39 17 85 26 155 31 67 5 116 15 147 29 26 12 80 26 122 31 124 16 215 68 355
204 141 137 154 146 209 146 140 0 247 -192 188 -335 -15 -35 -24 -40 -141
-64 -53 -10 -180 -51 -257 -82 -26 -11 -80 -24 -120 -29 -40 -5 -94 -18 -120
-30 -26 -11 -80 -24 -120 -30 -40 -5 -95 -19 -123 -32 -79 -36 -1291 -36
-1370 0 -27 13 -83 27 -123 32 -40 6 -94 19 -120 30 -26 12 -79 25 -119 30
-40 5 -89 17 -110 26 -21 9 -69 25 -107 35 -38 11 -81 26 -97 34 -15 8 -58 19
-95 24 -95 14 -117 37 -122 130 -10 174 153 322 268 244z m-70 -594 c30 -11
86 -29 124 -40 38 -11 81 -26 97 -35 16 -8 63 -19 105 -24 41 -5 96 -19 122
-30 26 -12 80 -25 120 -30 40 -5 96 -20 125 -32 82 -36 1292 -36 1374 0 29 12
85 27 125 32 40 5 94 18 120 30 26 11 81 25 122 30 42 5 89 16 105 24 16 9 59
24 97 35 38 11 96 30 129 42 74 26 127 21 164 -15 33 -33 47 -1128 16 -1230
-33 -109 -108 -177 -237 -214 -100 -29 -223 -70 -283 -95 -31 -12 -89 -23
-150 -27 -70 -6 -115 -15 -150 -31 -40 -18 -76 -24 -180 -29 -107 -6 -139 -12
-180 -31 -50 -24 -53 -24 -385 -24 -332 0 -335 0 -385 24 -41 19 -73 25 -180
31 -104 5 -140 11 -180 29 -35 16 -80 25 -150 31 -61 4 -119 15 -150 27 -62
25 -191 68 -268 90 -149 41 -292 182 -282 278 3 33 9 304 13 601 7 523 8 543
27 564 40 45 91 50 175 19z m3266 -1338 c73 -53 151 -145 164 -192 7 -24 21
-68 31 -97 25 -72 24 -105 -6 -141 -32 -37 -236 -142 -331 -170 -99 -30 -222
-70 -276 -92 -26 -11 -80 -24 -120 -29 -40 -5 -94 -18 -120 -30 -26 -11 -80
-24 -120 -30 -40 -5 -95 -19 -123 -32 -44 -20 -72 -23 -240 -28 -174 -6 -194
-9 -240 -31 -78 -38 -991 -38 -1070 0 -44 21 -70 25 -210 31 -136 5 -168 9
-210 29 -27 12 -83 26 -123 31 -40 6 -94 19 -120 30 -26 12 -80 25 -120 30
-40 5 -94 18 -120 29 -54 22 -176 62 -275 91 -38 11 -107 40 -155 64 -48 24
-107 50 -131 57 -67 20 -77 43 -52 124 12 37 21 86 21 109 1 111 117 226 230
226 56 0 100 -22 171 -86 41 -36 92 -75 114 -86 22 -11 64 -39 93 -61 51 -39
149 -79 312 -127 36 -10 83 -27 105 -36 22 -9 83 -20 135 -24 66 -5 111 -14
145 -30 40 -18 76 -24 180 -30 105 -5 140 -11 185 -31 86 -38 694 -38 780 0
45 20 80 26 185 31 104 6 140 12 180 30 35 16 75 25 130 28 77 4 192 35 360
98 33 12 76 25 95 29 113 24 280 147 361 267 61 89 112 103 185 49z m-3777
-740 c102 -47 189 -78 335 -122 38 -11 81 -26 97 -35 16 -8 63 -19 105 -24 41
-5 96 -19 122 -30 26 -12 80 -25 120 -30 40 -6 94 -19 120 -31 39 -19 73 -23
207 -29 139 -5 167 -9 215 -31 87 -38 994 -38 1080 1 50 22 72 25 245 30 166
6 196 9 237 28 26 12 80 26 120 32 40 5 94 18 120 30 26 11 81 25 122 30 42 5
89 16 105 24 16 9 59 24 97 35 146 44 233 75 335 122 188 87 264 42 197 -114
-36 -81 -34 -337 2 -417 38 -83 39 -754 2 -835 -13 -27 -25 -70 -28 -95 -11
-95 -16 -111 -46 -146 -37 -42 -233 -144 -335 -174 -99 -29 -221 -69 -275 -91
-26 -11 -80 -24 -120 -29 -40 -5 -95 -19 -122 -31 -34 -15 -82 -24 -150 -29
-73 -6 -115 -15 -151 -32 -48 -22 -61 -23 -360 -28 -302 -6 -311 -6 -360 -30
-69 -34 -161 -34 -230 0 -49 24 -55 24 -390 30 -330 5 -341 6 -390 28 -36 17
-78 26 -151 32 -68 5 -116 14 -150 29 -27 12 -82 26 -122 31 -40 5 -94 18
-120 29 -54 22 -176 62 -275 91 -155 46 -381 225 -422 334 -30 80 -17 1437 14
1470 36 39 77 34 200 -23z"/>
</g>
</svg>
