<?xml version="1.0" standalone="no"?>
<!DOCTYPE svg PUBLIC "-//W3C//DTD SVG 20010904//EN"
 "http://www.w3.org/TR/2001/REC-SVG-20010904/DTD/svg10.dtd">
<svg version="1.0" xmlns="http://www.w3.org/2000/svg"
 width="1920.000000pt" height="1920.000000pt" viewBox="0 0 1920.000000 1920.000000"
 preserveAspectRatio="xMidYMid meet">
<metadata>
Created by potrace 1.16, written by Peter Selinger 2001-2019
</metadata>
<g transform="translate(0.000000,1920.000000) scale(0.100000,-0.100000)"
fill="#f97316" stroke="none">
<path d="M9349 17877 c-78 -29 -426 -371 -473 -464 -14 -29 -38 -67 -54 -85
-49 -59 -52 -65 -73 -137 -24 -90 -125 -292 -174 -351 -53 -63 -57 -80 -65
-221 -6 -127 -6 -127 -61 -235 -54 -109 -54 -109 -57 -525 -2 -366 -1 -422 14
-460 9 -24 26 -78 39 -119 13 -41 31 -93 40 -115 10 -22 21 -84 25 -140 7 -92
11 -108 53 -192 26 -50 55 -122 65 -160 25 -87 139 -315 187 -373 20 -24 47
-65 60 -90 13 -25 40 -66 60 -90 20 -24 48 -66 62 -94 32 -63 108 -144 200
-213 92 -68 96 -80 91 -283 -3 -139 -6 -160 -28 -205 -22 -47 -24 -64 -29
-270 -7 -277 -18 -299 -132 -281 -118 19 -140 43 -150 171 -4 57 -15 107 -28
137 -12 26 -26 81 -31 122 -5 42 -16 89 -24 105 -9 16 -24 60 -35 99 -10 38
-24 79 -30 89 -5 11 -19 51 -30 89 -11 38 -29 94 -40 124 -11 30 -25 73 -30
95 -6 22 -29 63 -52 90 -23 28 -92 151 -156 280 -115 230 -115 230 -238 355
-82 85 -132 145 -154 187 -43 80 -271 308 -349 347 -29 15 -85 56 -124 92 -39
36 -89 74 -112 85 -22 12 -66 40 -96 64 -30 23 -71 50 -90 60 -19 9 -59 36
-88 58 -51 39 -149 79 -308 126 -34 10 -84 34 -110 53 -72 52 -90 59 -166 69
-38 5 -90 18 -116 30 -37 17 -76 23 -177 29 -105 5 -140 11 -185 31 -139 61
-353 27 -501 -80 -44 -32 -44 -32 -135 -26 -207 16 -251 -126 -56 -184 86 -26
124 -64 142 -142 17 -71 138 -313 185 -369 48 -58 90 -141 114 -230 11 -40 33
-88 48 -107 51 -64 56 -73 74 -136 10 -34 27 -87 38 -117 11 -30 25 -73 30
-95 6 -22 29 -62 52 -90 22 -27 52 -72 66 -99 13 -26 53 -78 87 -115 34 -36
77 -94 95 -127 41 -78 510 -549 581 -584 25 -12 70 -41 100 -65 30 -23 100
-65 155 -93 55 -27 125 -70 156 -94 30 -23 87 -57 125 -75 64 -29 101 -42 304
-107 41 -13 93 -31 115 -40 22 -8 58 -15 80 -16 22 0 65 -10 95 -21 30 -11 80
-27 110 -35 30 -9 75 -24 100 -34 207 -81 254 -90 474 -90 248 0 255 -2 317
-91 28 -41 72 -85 120 -121 45 -34 80 -69 86 -85 6 -15 23 -62 39 -103 39
-102 41 -229 4 -305 -23 -48 -24 -62 -30 -300 -5 -241 -6 -252 -30 -300 -25
-50 -25 -50 -28 -430 -3 -424 -2 -436 59 -510 85 -103 81 -285 -7 -285 -109 0
-355 213 -389 336 -44 163 -264 572 -366 679 -56 58 -109 125 -128 161 -45 85
-450 488 -530 529 -31 16 -96 67 -152 121 -92 87 -109 99 -261 175 -90 45
-189 101 -222 125 -34 26 -82 51 -115 60 -31 9 -85 35 -121 59 -89 60 -276
122 -385 127 -54 3 -96 12 -130 27 -35 16 -80 25 -150 31 -70 5 -116 14 -155
31 -84 37 -933 38 -1017 1 -29 -12 -85 -27 -125 -32 -40 -5 -94 -18 -120 -30
-26 -11 -81 -25 -122 -30 -42 -5 -88 -16 -104 -24 -15 -7 -59 -23 -99 -35 -88
-26 -143 -66 -202 -149 -54 -75 -63 -81 -145 -93 -34 -4 -83 -18 -108 -29 -26
-11 -79 -24 -117 -29 -115 -15 -169 -62 -145 -128 23 -67 130 -89 245 -49 135
47 154 41 284 -84 86 -83 115 -102 185 -119 25 -7 119 -47 210 -91 91 -44 191
-86 223 -95 46 -13 72 -28 128 -80 38 -35 96 -78 128 -95 75 -40 258 -224 294
-296 14 -27 42 -70 62 -94 20 -24 48 -66 62 -93 13 -27 53 -80 88 -117 35 -37
75 -91 90 -120 15 -29 55 -83 90 -120 35 -37 76 -92 91 -121 15 -31 66 -95
119 -149 55 -57 105 -120 124 -157 40 -74 213 -249 282 -283 24 -12 69 -41 99
-65 30 -23 100 -65 155 -93 55 -27 118 -64 140 -82 60 -48 92 -61 167 -71 38
-5 90 -18 116 -29 26 -12 81 -25 122 -31 56 -7 101 -22 184 -61 109 -51 110
-52 235 -58 95 -5 137 -12 172 -27 26 -12 62 -24 80 -28 19 -4 61 -17 94 -29
168 -63 283 -94 360 -98 54 -3 97 -12 130 -27 28 -12 83 -26 123 -31 40 -6 93
-18 117 -29 23 -10 58 -22 76 -26 19 -4 61 -17 94 -30 33 -12 82 -30 109 -40
76 -28 77 -33 74 -390 -3 -305 -3 -305 -31 -332 -27 -28 -27 -28 -2390 -33
-2763 -6 -2514 14 -2738 -217 -126 -130 -121 -105 -117 -538 3 -350 3 -350 28
-400 24 -49 25 -57 30 -330 6 -268 7 -282 30 -330 19 -41 25 -73 30 -180 6
-105 12 -139 31 -180 20 -43 24 -72 29 -210 6 -134 10 -168 29 -207 12 -26 26
-80 31 -120 7 -57 21 -100 61 -182 53 -108 53 -108 59 -239 5 -93 11 -141 23
-163 9 -17 25 -63 35 -100 11 -38 38 -106 61 -151 22 -45 49 -112 60 -150 10
-38 37 -105 60 -150 22 -45 50 -112 61 -150 67 -227 123 -359 185 -433 20 -24
75 -120 122 -213 69 -139 95 -181 148 -237 35 -37 75 -90 88 -117 14 -27 42
-69 62 -93 20 -24 48 -67 62 -94 14 -28 67 -94 118 -146 54 -57 105 -120 124
-156 44 -83 390 -428 469 -468 29 -15 85 -56 124 -92 39 -36 93 -76 120 -90
27 -13 81 -54 120 -90 49 -46 102 -81 172 -116 56 -27 126 -69 156 -93 100
-78 429 -234 515 -245 41 -5 91 -17 112 -26 21 -9 69 -25 106 -35 38 -11 109
-40 158 -64 68 -35 108 -48 165 -55 42 -5 96 -19 122 -30 26 -12 80 -25 120
-30 40 -6 94 -20 120 -32 41 -19 71 -22 237 -28 173 -5 195 -8 245 -30 86 -39
1593 -39 1680 -1 48 22 76 26 215 31 137 6 167 10 210 30 35 16 78 25 145 30
52 4 113 15 135 24 22 9 69 26 105 36 166 50 249 83 312 127 65 44 70 46 165
52 104 8 131 18 198 71 22 18 84 54 138 81 54 27 124 69 157 93 32 24 80 49
106 55 68 17 99 36 169 101 45 42 97 76 177 116 133 66 820 728 888 855 17 32
46 77 66 100 20 24 47 65 61 92 13 27 53 80 88 117 71 76 428 765 455 878 6
28 23 67 36 85 72 98 74 103 84 181 5 42 19 98 31 124 11 26 24 80 29 120 6
58 19 97 59 180 40 81 54 123 61 180 5 40 19 94 30 120 12 26 25 80 30 120 6
40 19 94 31 120 14 32 24 80 29 148 5 71 14 115 30 150 20 42 24 72 30 209 5
139 9 167 30 210 20 43 24 71 30 210 5 139 9 167 30 210 20 43 24 71 30 210 5
142 9 166 30 210 30 59 45 938 19 1035 -20 73 -151 197 -265 252 -89 43 -89
43 -2516 48 -2428 5 -2428 5 -2455 33 -28 27 -28 27 -33 390 -5 314 -8 367
-23 399 -23 51 10 243 45 262 2 1 11 7 20 14 9 8 46 18 82 23 45 6 95 23 154
53 49 25 115 52 148 61 32 10 73 24 89 32 43 22 379 357 426 425 22 32 65 77
97 100 31 22 82 65 113 93 30 29 78 64 106 78 28 14 82 55 121 91 60 54 82 68
141 86 44 13 91 36 128 64 74 55 139 88 228 115 42 12 96 38 133 65 37 25 85
50 115 57 28 6 71 21 96 32 29 12 82 22 145 27 68 5 116 15 148 29 26 12 80
25 120 31 40 5 96 19 123 32 50 23 50 23 720 28 670 5 670 5 720 29 36 18 72
26 130 29 140 7 387 97 494 180 31 24 78 55 105 69 135 69 320 296 320 393 0
98 -185 325 -323 395 -29 14 -81 53 -116 85 -79 74 -112 90 -199 101 -60 8
-81 16 -137 54 -38 27 -95 55 -135 67 -38 11 -81 27 -96 34 -16 8 -62 19 -103
24 -41 5 -97 18 -123 28 -227 91 -235 92 -692 92 -458 0 -469 -2 -695 -93 -30
-12 -82 -22 -130 -24 -74 -4 -229 -46 -331 -88 -196 -83 -274 -82 -321 1 -45
77 -19 141 77 189 26 13 79 53 118 89 39 36 95 77 124 92 79 40 425 385 469
468 18 33 61 91 95 127 45 48 78 98 118 177 31 61 68 126 84 144 49 59 52 65
73 138 24 89 66 172 114 230 20 24 61 92 90 150 29 58 70 126 90 150 20 24 47
65 60 90 13 25 40 66 60 90 20 24 48 67 62 94 18 36 88 114 233 261 114 116
222 231 239 257 43 65 59 71 192 78 161 9 221 48 193 127 -18 53 -62 67 -234
73 -174 7 -175 7 -260 85 -99 91 -94 90 -340 90 -205 0 -217 -1 -270 -24 -44
-20 -79 -26 -181 -31 -125 -6 -126 -6 -238 -60 -105 -49 -119 -53 -212 -60
-110 -7 -526 -196 -658 -298 -31 -24 -77 -54 -102 -67 -26 -13 -78 -53 -117
-89 -39 -36 -95 -77 -124 -92 -80 -40 -664 -623 -709 -708 -18 -33 -61 -91
-95 -127 -34 -37 -74 -89 -87 -116 -14 -27 -42 -69 -62 -93 -70 -84 -235 -431
-244 -514 -9 -79 -19 -104 -63 -154 -15 -18 -54 -83 -84 -145 -124 -245 -284
-349 -385 -248 -60 60 -56 130 13 210 48 55 52 74 58 301 5 200 7 218 29 265
21 44 25 69 30 210 8 191 0 175 151 330 71 72 127 140 143 171 14 27 42 70 62
94 20 24 47 65 60 90 13 25 40 66 60 90 47 56 168 298 185 368 6 28 23 67 36
85 72 98 74 103 84 180 5 43 18 99 29 125 32 79 72 204 82 257 16 82 36 157
54 204 28 76 18 619 -13 683 -12 26 -26 80 -32 120 -5 40 -18 94 -30 120 -11
26 -25 81 -30 122 -5 42 -16 89 -24 105 -9 16 -24 59 -34 97 -25 88 -258 556
-307 614 -20 24 -48 67 -62 94 -30 60 -305 344 -370 382 -51 31 -133 40 -184
21z m136 -198 c54 -15 183 -141 224 -219 17 -32 48 -78 67 -102 47 -56 268
-498 293 -585 10 -37 26 -85 35 -106 9 -21 21 -70 26 -110 5 -40 18 -93 30
-119 11 -26 24 -80 30 -120 5 -40 19 -95 32 -123 36 -78 36 -632 0 -710 -13
-27 -27 -82 -32 -122 -5 -40 -17 -89 -26 -110 -8 -21 -26 -72 -39 -113 -13
-41 -30 -93 -39 -115 -8 -22 -15 -60 -16 -85 -1 -51 -26 -109 -70 -160 -19
-23 -38 -63 -50 -108 -25 -91 -126 -293 -175 -352 -20 -24 -47 -65 -60 -90
-13 -25 -40 -66 -60 -90 -20 -24 -47 -65 -60 -90 -81 -159 -295 -156 -408 6
-17 26 -47 65 -65 87 -19 23 -44 62 -57 87 -13 25 -40 66 -60 90 -48 57 -149
260 -174 347 -10 37 -40 112 -66 165 -44 90 -48 105 -55 200 -4 62 -14 116
-23 135 -9 17 -25 61 -36 99 -11 38 -30 95 -41 127 -20 56 -21 75 -18 466 3
407 3 407 57 516 54 110 54 110 60 240 7 136 13 155 63 213 37 43 163 300 183
374 9 33 29 73 50 98 19 23 48 67 65 99 40 75 221 257 276 276 48 17 87 18
139 4z m-3310 -2118 c41 -19 74 -25 180 -31 102 -5 141 -11 180 -29 28 -12 84
-26 125 -32 64 -8 84 -15 140 -54 61 -41 146 -76 307 -124 35 -10 85 -35 115
-58 29 -22 69 -48 88 -58 19 -9 60 -36 90 -60 30 -23 74 -52 98 -64 24 -12 75
-51 114 -87 39 -36 93 -76 121 -90 71 -36 139 -104 177 -177 23 -42 72 -102
155 -187 123 -125 123 -125 238 -355 63 -127 131 -250 151 -274 21 -25 42 -66
52 -99 8 -32 24 -77 34 -102 10 -25 25 -70 34 -100 22 -77 65 -206 87 -262 11
-26 24 -80 29 -120 5 -40 19 -95 32 -123 89 -196 -16 -333 -197 -258 -55 23
-173 62 -279 94 -38 11 -81 26 -97 35 -16 8 -63 19 -104 24 -41 5 -97 18 -123
29 -54 22 -176 62 -275 91 -89 26 -159 62 -227 115 -30 23 -98 64 -150 90 -52
26 -120 66 -150 89 -30 24 -78 55 -106 70 -74 40 -373 343 -409 415 -14 29
-55 84 -90 121 -35 37 -75 90 -88 117 -14 27 -42 68 -61 92 -21 25 -43 66 -52
99 -9 32 -26 84 -39 117 -13 33 -27 77 -30 98 -4 20 -21 56 -39 78 -54 73 -65
91 -77 143 -16 68 -78 191 -124 246 -48 57 -151 264 -171 341 -8 33 -22 75
-30 94 -30 73 0 143 69 165 62 18 246 7 302 -19z m7027 -401 c46 -13 88 -61
88 -101 0 -83 -50 -153 -274 -379 -150 -151 -221 -230 -239 -266 -14 -27 -42
-70 -62 -94 -20 -24 -47 -65 -60 -90 -13 -25 -40 -66 -60 -90 -20 -24 -61 -92
-90 -150 -29 -58 -70 -126 -90 -150 -44 -53 -108 -182 -130 -262 -9 -34 -29
-73 -51 -99 -20 -24 -61 -92 -91 -152 -39 -79 -72 -128 -118 -177 -35 -37 -76
-92 -90 -121 -38 -75 -219 -258 -296 -299 -32 -17 -90 -60 -128 -95 -39 -35
-92 -76 -119 -89 -27 -14 -81 -54 -120 -90 -79 -73 -156 -116 -259 -145 -37
-10 -85 -26 -106 -35 -21 -9 -71 -21 -112 -26 -56 -7 -97 -21 -164 -55 -49
-24 -120 -53 -158 -64 -37 -10 -86 -27 -108 -36 -22 -10 -84 -21 -140 -25 -72
-6 -114 -15 -150 -31 -120 -57 -429 -36 -453 29 -5 15 -21 57 -36 95 -53 136
-48 147 144 342 140 142 151 156 203 260 30 61 71 130 91 154 52 62 56 72 66
158 10 89 163 418 234 502 21 25 49 67 63 94 13 27 53 80 88 117 35 37 75 92
90 121 39 78 455 495 536 539 32 17 90 60 128 95 39 35 89 74 112 86 24 12 70
42 104 68 140 106 531 283 642 290 93 7 107 11 213 61 114 54 114 54 244 60
80 4 141 12 156 20 59 32 108 39 285 39 99 1 197 -4 217 -9z m-6967 -2838 c36
-17 78 -26 151 -32 69 -5 115 -14 150 -30 34 -15 80 -24 149 -30 64 -4 118
-15 150 -28 28 -12 70 -26 95 -32 25 -6 75 -31 111 -56 36 -25 93 -53 128 -64
35 -10 86 -36 115 -58 29 -22 126 -77 216 -122 152 -76 169 -88 260 -174 55
-54 122 -107 157 -125 81 -44 319 -283 358 -361 17 -33 65 -93 120 -150 102
-105 308 -483 354 -649 45 -161 131 -280 244 -338 27 -13 77 -50 110 -81 34
-32 84 -73 110 -91 76 -52 77 -57 77 -390 0 -378 -17 -416 -158 -355 -20 9
-68 25 -106 35 -38 11 -81 26 -97 35 -16 8 -63 19 -105 24 -41 5 -96 19 -122
31 -32 14 -80 24 -148 29 -64 5 -116 15 -146 28 -25 11 -61 23 -79 27 -19 4
-61 17 -94 29 -199 75 -278 94 -391 98 -110 3 -110 3 -219 56 -83 41 -126 55
-183 62 -40 5 -94 19 -120 30 -26 12 -81 25 -122 31 -64 8 -83 15 -130 49 -30
22 -100 63 -155 91 -55 28 -125 70 -155 94 -30 23 -73 51 -95 63 -54 27 -92
66 -122 127 -14 27 -67 93 -118 145 -53 55 -104 118 -119 149 -15 29 -56 84
-91 121 -35 37 -75 91 -90 120 -15 29 -55 83 -90 120 -35 37 -75 90 -88 117
-14 27 -41 68 -61 92 -20 23 -49 69 -67 100 -42 81 -390 427 -467 465 -30 15
-82 54 -117 86 -70 65 -99 83 -165 99 -25 7 -119 47 -210 90 -91 43 -187 87
-215 98 -183 69 -33 301 216 333 41 5 95 18 121 30 26 11 81 25 123 30 41 5
86 15 98 22 66 35 96 37 542 35 439 -2 440 -2 490 -25z m7055 -173 c30 -10 89
-30 130 -43 41 -13 93 -31 115 -40 22 -8 58 -15 80 -16 22 0 65 -10 95 -21 30
-11 83 -28 116 -38 34 -10 84 -34 112 -54 61 -45 111 -67 154 -67 66 0 108
-21 180 -86 39 -36 91 -76 117 -89 184 -94 187 -314 6 -407 -22 -12 -65 -40
-95 -63 -69 -54 -139 -89 -227 -114 -37 -10 -86 -27 -108 -36 -22 -10 -84 -21
-140 -25 -72 -6 -114 -15 -150 -32 -50 -23 -50 -23 -720 -28 -670 -5 -670 -5
-717 -28 -26 -12 -80 -26 -120 -32 -40 -5 -95 -19 -123 -31 -33 -15 -77 -24
-130 -27 -110 -5 -296 -67 -385 -127 -36 -24 -87 -49 -115 -56 -65 -16 -171
-69 -245 -123 -32 -24 -80 -49 -106 -55 -68 -17 -99 -36 -169 -101 -35 -32
-85 -70 -113 -84 -27 -14 -81 -54 -120 -90 -39 -36 -94 -77 -122 -91 -76 -39
-189 -151 -234 -234 -62 -112 -232 -274 -311 -296 -33 -9 -109 -39 -170 -68
-231 -108 -278 -80 -283 168 -4 183 2 206 72 292 25 30 37 57 41 90 15 123 29
140 164 208 96 48 263 207 310 295 17 32 47 78 67 101 20 24 47 66 61 93 14
28 65 92 113 141 48 50 101 111 119 138 18 26 58 66 89 88 31 23 122 106 202
184 100 98 162 151 200 170 38 19 102 74 210 180 146 144 159 154 215 170 33
9 80 25 105 35 25 10 70 25 100 34 80 22 207 65 265 89 30 12 88 23 145 27 52
4 113 15 135 24 22 9 69 26 105 36 36 11 90 28 120 39 84 31 875 31 960 0z
m-2147 -66 c51 -89 39 -134 -68 -242 -65 -67 -117 -110 -159 -132 -43 -23
-106 -77 -216 -184 -104 -102 -172 -161 -208 -179 -76 -38 -192 -153 -232
-228 -20 -38 -70 -100 -125 -158 -51 -52 -104 -118 -118 -146 -14 -27 -42 -70
-62 -94 -20 -24 -47 -64 -60 -89 -35 -70 -70 -99 -190 -157 -220 -107 -217
-112 -213 384 3 366 3 367 27 417 23 47 25 64 30 262 8 286 -12 266 274 274
195 5 216 7 262 29 35 16 74 25 130 28 97 5 252 52 405 123 79 37 124 51 183
59 43 5 88 15 100 22 102 55 211 60 240 11z m3321 -4148 c108 -55 101 -15 101
-563 0 -477 0 -477 -24 -527 -21 -44 -25 -70 -31 -210 -5 -139 -9 -167 -30
-210 -20 -43 -24 -71 -30 -210 -5 -139 -9 -167 -30 -210 -20 -43 -24 -71 -30
-210 -5 -137 -9 -167 -29 -210 -16 -35 -25 -79 -31 -151 -5 -68 -14 -116 -29
-150 -12 -27 -26 -82 -31 -122 -6 -40 -19 -94 -31 -120 -11 -26 -24 -80 -29
-120 -6 -58 -19 -97 -59 -180 -40 -81 -54 -123 -61 -180 -5 -40 -19 -94 -31
-120 -11 -26 -24 -79 -29 -119 -8 -72 -20 -100 -73 -166 -15 -19 -37 -67 -47
-106 -39 -140 -370 -782 -445 -861 -35 -37 -75 -90 -88 -117 -14 -27 -41 -68
-61 -92 -20 -23 -49 -68 -66 -100 -66 -123 -584 -619 -716 -684 -80 -40 -131
-74 -182 -121 -60 -54 -82 -68 -141 -86 -44 -13 -91 -36 -128 -64 -32 -24
-103 -67 -158 -95 -55 -28 -125 -70 -156 -92 -55 -40 -60 -42 -155 -48 -105
-8 -121 -13 -198 -69 -26 -19 -76 -43 -110 -54 -97 -28 -217 -69 -271 -91 -31
-12 -89 -23 -150 -27 -71 -6 -115 -15 -150 -31 -43 -20 -73 -24 -210 -29 -140
-6 -166 -10 -210 -31 -79 -38 -1591 -38 -1670 0 -46 22 -66 25 -240 31 -168 5
-196 8 -240 28 -27 13 -83 27 -123 32 -40 6 -94 19 -120 30 -26 12 -81 25
-122 31 -56 7 -99 21 -170 55 -52 25 -126 55 -164 65 -38 11 -81 26 -97 35
-16 8 -64 19 -106 24 -93 11 -391 150 -499 232 -34 25 -107 69 -163 97 -70 36
-123 71 -172 117 -40 36 -94 76 -121 90 -27 13 -81 54 -120 90 -39 36 -94 77
-122 91 -74 37 -256 219 -297 297 -19 36 -69 99 -124 156 -51 52 -104 118
-118 146 -14 27 -42 70 -62 94 -20 24 -48 66 -62 93 -13 27 -53 80 -88 117
-53 56 -79 98 -148 237 -47 93 -102 188 -122 213 -47 56 -89 139 -115 227 -43
147 -74 232 -121 333 -26 58 -54 128 -60 155 -7 28 -32 89 -55 137 -24 48 -52
117 -63 155 -10 37 -27 86 -37 108 -12 27 -19 81 -24 170 -7 130 -7 130 -60
237 -41 84 -54 121 -60 180 -5 40 -19 96 -31 123 -20 43 -24 74 -29 210 -6
138 -10 167 -30 210 -19 41 -25 75 -30 180 -6 107 -12 139 -31 180 -23 48 -24
62 -29 330 -6 271 -7 282 -30 330 -25 50 -25 52 -28 395 -4 437 0 450 140 491
35 10 88 27 118 38 108 40 9916 26 9994 -14z"/>
</g>
</svg>
