<svg xmlns="http://www.w3.org/2000/svg" width="2496" height="2496" viewBox="0 0 1872 1872"><g fill="#f97316"><path d="M1583.6 59.1c-7 3.2-9.8 4-12.5 3.5-12.7-1.8-13.6-1.8-19.8.3a45 45 0 0 1-15.2 2.1 104 104 0 0 0-36.6 9.3 57 57 0 0 1-15 2.7 48 48 0 0 0-14.9 3 44 44 0 0 1-15 3 47 47 0 0 0-14.8 2.9c-2.6 1.2-8 2.5-12 3.1-4 .5-9.5 1.9-12.2 3.1q-5 2.2-15 2.9c-10 .7-11.6 1.5-14.8 2.9-2.6 1.2-8 2.5-12 3.1-4 .5-9.5 1.9-12.2 3.1q-5 2.2-15 2.9c-10 .7-11.6 1.5-14.8 2.9-2.6 1.2-8 2.5-12 3.1-4 .5-9.5 1.9-12.3 3.1a37 37 0 0 1-13 2.7c-7.7.4-21.7 4.2-35 9.5-3 1.2-9 2.3-15 2.7a48 48 0 0 0-14.9 3 44 44 0 0 1-15 3 47 47 0 0 0-14.8 2.9c-2.6 1.2-8 2.5-12 3.1a50 50 0 0 0-12 3c-2.6 1.1-8 2.4-12 3-4 .5-9.5 1.9-12.2 3.1a47 47 0 0 1-15 2.9 48 48 0 0 0-15 3 44 44 0 0 1-15 3 47 47 0 0 0-14.8 2.9c-2.6 1.2-8 2.5-12 3.1a50 50 0 0 0-12 3c-2.6 1.1-8 2.4-12 3-4 .5-9.5 1.9-12.2 3.1q-5 2.2-15 2.9c-10 .7-11.6 1.5-14.8 2.9-2.6 1.2-8 2.6-12.2 3.1-16.2 2-19.1 4.2-61.3 46.3-30.4 30.2-37.8 38.2-40.4 43.1-2.4 4.5-7.9 10.9-21.4 24.6a147 147 0 0 0-20.8 23.6c-1.4 2.7-4.2 7-6.2 9.4-17.2 20.6-9.1 33.9 21.5 35 17.1.6 24.7 3.1 29.5 9.4 3.5 4.7 3.1 77.9-.5 85.1-2.5 5-2.5 5-3 84s-.5 79-3 84.5a62 62 0 0 0 .1 37c1.5 3.6 3 8.2 3.3 10.2 2.1 11.5 15.6 13 18.5 2 1.1-4 .6-6.8-3-16.7-3-8.5-2.5-24.7 1.1-32 2.5-5 2.5-5 3-84s.5-79 3-84c2.9-5.8 4.5-82.1 2-91-3.4-11.5-26.4-24.5-43.6-24.5-12.8 0-16.2-5.5-8.8-14.3 1.4-1.6 3.7-5.3 5.1-8.1 1.7-3.5 8.3-10.9 20.8-23.6 13.5-13.7 19-20.1 21.4-24.6 2.6-4.9 8.9-11.7 32.4-35.1 32.8-32.5 35.3-34.3 50.8-36.2 4.1-.6 9.6-2 12.3-3.2q5-2.2 15-2.9c10-.7 11.6-1.5 14.8-2.9 2.6-1.2 8-2.5 12-3.1a50 50 0 0 0 12-3c2.6-1.1 8-2.4 12-3 4-.5 9.5-1.9 12.2-3.1a47 47 0 0 1 15-2.9 48 48 0 0 0 15-3 44 44 0 0 1 15-3 47 47 0 0 0 14.8-2.9c2.6-1.2 8-2.5 12-3.1a50 50 0 0 0 12-3c2.6-1.1 8-2.4 12-3 4-.5 9.5-1.9 12.2-3.1a47 47 0 0 1 15-2.9c7.1-.6 11.6-1.5 15.1-3.1q5-2.2 13-2.7c7.7-.4 21.7-4.2 35-9.5 3-1.2 9-2.3 15-2.7q10-.8 14.7-2.9c2.6-1.2 8-2.5 12-3.1 4-.5 9.5-1.9 12.2-3.1q5-2.2 15-2.9c10-.7 11.6-1.5 14.8-2.9 2.6-1.2 8-2.5 12-3.1 4-.5 9.5-1.9 12.2-3.1a47 47 0 0 1 15-2.9 50 50 0 0 0 15-2.9c2.7-1.2 7.7-2.4 11-2.7 3.4-.2 9.7-1.6 14.1-3.1 6-1.9 9-2.4 11.8-1.9 7.2 1.4 3.6 6.4-5.8 8.2-2.2.4-8.5 3-14 5.9s-11.6 5.6-13.5 6-8.7 3.1-15 6-14 6-17 6.9c-6.9 1.9-19.7 6.2-27.5 9.1-3.3 1.3-7.6 2.6-9.5 3s-7.4 2.7-12.2 5.1-11.8 5.2-15.5 6.3c-3.8 1-10.5 3.7-15 6s-11.2 5-15 6.1c-8.9 2.6-21.3 6.7-28.8 9.5-3.3 1.3-7.6 2.6-9.5 3s-7.4 2.7-12.2 5.1-11.7 5.3-15.5 6.4c-8.9 2.6-21.3 6.7-28.8 9.5-3.3 1.3-7.6 2.6-9.5 3s-7.4 2.7-12.2 5.1-11.7 5.3-15.5 6.4a214 214 0 0 0-33.3 12.1 149 149 0 0 1-16 6.3 462 462 0 0 0-27.5 9.1c-3.3 1.3-7.6 2.6-9.5 3s-7.4 2.7-12.2 5.1-11.7 5.3-15.5 6.4c-35.9 10.5-55.4 21.4-63.5 35.3-2.3 4-5.6 8.9-7.3 11-5.5 6.4-5.6 7.6-5.3 62.2.3 50 .3 50 2.8 55s2.5 5 3 66 .5 61 3 66 2.5 5 3 54 .5 49 3 54 2.5 5 2.8 39.5c.4 42.8 1.4 39-14.3 55a94 94 0 0 0-14.9 17.9 68 68 0 0 1-9.1 12.1c-4.7 5-7.9 9.8-12.1 18.1-4.8 9.8-6.9 12.7-14.9 20.9s-10.1 11.1-14.9 20.9a70 70 0 0 1-12.1 18.1c-3.5 3.7-7.5 9.1-9 12s-5.5 8.3-9 12-7.5 9.1-9 12-5.5 8.3-9 12-7.5 9-8.8 11.7-4.2 6.9-6.2 9.3-4.7 6.5-6 9-4 6.6-6 9c-5.4 6.5-14.8 25.6-14.8 30.2 0 9.1 9.8 15.8 24.2 16.8 6.8.5 11.1 1.4 14.6 3a47 47 0 0 0 18 3c10.5.5 14 1.1 18 3s7.5 2.4 18 3c10.4.5 14 1.1 18 2.9 3.5 1.6 8 2.5 15.1 3.1 7 .5 11.5 1.4 15 3a46 46 0 0 0 17.9 3 46 46 0 0 1 18 2.9c2.8 1.2 8.3 2.6 12.3 3.1s9.6 2 12.5 3.2a36 36 0 0 0 30.6-1.6c5.8-3.5 6.7-3.8 11.5-3.3a91 91 0 0 1 23.5 4.8c2.5 1.1 7.9 2.4 11.9 2.9s9.4 1.9 12 3a50 50 0 0 0 12 3c4 .6 9.2 1.8 11.6 2.8 2.3 1.1 6.5 2.5 9.4 3.2 3.2.7 7.6 2.9 11.2 5.6a139 139 0 0 0 15.2 9 99 99 0 0 1 14.8 8.9c3 2.3 7.1 5 9 6s6 3.6 9 6c3 2.3 7.1 5 9 6s6 3.6 9 6c3 2.3 9.8 6.4 15 9s12 6.6 15 9c3 2.3 9.8 6.4 15 9s12 6.6 15 9c3 2.3 7.1 5 9 6s6 3.6 9 6c3 2.3 9.8 6.4 15 9s12 6.6 15 9c3 2.3 7.1 5 9 6s6 3.6 9 6a192 192 0 0 0 21.8 12.4c13.1 6.6 17.6 9.4 23.4 14.7s10.2 8.1 24 15a88 88 0 0 1 23.9 15c3.9 3.5 9 7.4 11.3 8.5 2.2 1.2 6.6 4 9.6 6.4 3 2.3 7.1 5 9 6s6 3.6 9 6c3 2.3 7.4 5.2 9.8 6.4s7.5 5.1 11.4 8.7 9.4 7.7 12.2 9.1c3.1 1.6 10 7.4 17.7 14.8q12.5 12.2 18 15c8 4 55.5 51.4 60 59.9a76 76 0 0 0 9.5 12.7c7.2 7.7 17 26 20.3 38 2.1 7.2 2.4 7.9 7.3 13.7a26 26 0 0 1 4.3 9c.9 3.1 2.5 7.8 3.6 10.4s2.4 8 2.9 12 1.9 9.5 3.1 12.2a47 47 0 0 1 2.9 15c.6 7.3 1.5 11.5 3.2 15.1a61 61 0 0 1 0 35c-1.3 2.7-2.7 8.3-3.2 12.3s-1.8 9.4-2.9 12-2.7 7.2-3.5 10.4c-1 3.3-3.1 7.4-5.2 9.9a71 71 0 0 0-6.1 9.3 170 170 0 0 1-34.7 35.1 98 98 0 0 0-10.2 6.6 32 32 0 0 1-15.6 6.9c-2.3 0-2.1-1.1 2.8-12.5 2-4.4 4.6-11.4 5.9-15.5 1.2-4.1 3-9.3 3.9-11.5 1.1-2.9 1.5-7.7 1.5-17.5s-.4-14.6-1.5-17.5c-.9-2.2-2.6-7.4-3.9-11.7-3-9.6-8.3-20.1-12.9-25.7a79 79 0 0 1-6.7-10c-4.2-8-39-42.7-46.7-46.5a72 72 0 0 1-12.4-9.2 69 69 0 0 0-17.2-11.6c-5.6-2.7-12.6-6.9-15.6-9.3a295 295 0 0 0-49.3-24.7c-3.8-1-10.7-3.8-15.5-6.2s-10.3-4.7-12.2-5.1-6.2-1.7-9.5-3a544 544 0 0 0-28.9-9.6 62 62 0 0 1-9.7-3.5c-1.6-.8-6.3-1.9-10.5-2.4-4.1-.5-9.6-1.9-12.2-3a50 50 0 0 0-12-3c-4-.6-9.4-1.9-12-3.1a48 48 0 0 0-17.7-2.9c-10.6-.5-13.9-1.1-18-3-4.5-2.1-6.9-2.4-24-3-36-1.1-40.5-6.8-26.9-34.1a179 179 0 0 0 9.5-22.2 97 97 0 0 1 4.9-12.8c6.2-12.1 1.8-20.5-7.9-15.4-6 3.1-13.7 15.9-17.2 28.8-1.1 3.7-5.3 13.5-9.4 21.8-6.5 12.9-7.7 16.1-8.5 22.7-.8 6.9-2.1 10-12 30.1-12.1 24.3-13.3 28.4-10.9 36.8 1.5 5.7 9.1 13.9 16 17.3 2.4 1.2 6.9 4.1 9.9 6.5 3 2.3 7.1 5 9 6s6 3.6 9 5.9a80 80 0 0 0 10.8 7.1c11.9 6.4 16.3 14.7 12.6 23.3a61 61 0 0 0-2.4 16.7c-.5 10.4-1.1 14-2.9 18-1.6 3.5-2.5 8-3.1 15.1a44 44 0 0 1-3 15 48 48 0 0 0-3 15c-.5 7-1.4 11.5-3 15a46 46 0 0 0-3 17.9 46 46 0 0 1-2.9 18 54 54 0 0 0-3.1 12.3c-.6 4-1.9 9.4-3.1 12a48 48 0 0 0-2.9 17.7 46 46 0 0 1-2.9 18 51 51 0 0 0-3.1 11.4c-2.1 14.9-8.4 17.6-41.1 17.6-24.7 0-24.7 0-30-3.6-3-2-6.4-3.9-7.7-4.2-6.1-1.4-28.7 7.1-37.6 14.2-12.8 10.2-17.5-2.6-8-21.9 6.2-12.9 5.8-18.9-1.6-22-4-1.7-7.2.5-11.3 7.6-5.4 9.2-12.7 14.4-25.2 17.9a159 159 0 0 0-12.2 4.1c-13.5 5.3-14.4.7-3.6-19.8 7.3-14 14-17.8 31.8-17.8 10.7 0 11.2-.1 17.5-3.5l14.4-7.6a106 106 0 0 0 30.2-27.7c1.1-2.2 2-7.5 2.4-13.2q.7-9.6 2.9-14.5c1.2-2.8 2.6-8.3 3.1-12.3s1.9-9.4 3.1-12q2.2-4.6 2.8-14.7c.4-5.5 1.5-11.7 2.4-13.9 7.3-17-19.5-37.6-65.3-50.2-3-.8-12.9-5.1-22-9.5a86 86 0 0 0-23-8.9c-9.6-1.4-10.2-2.1-23.4-28.1-11.8-23.4-11.8-23.4-12.6-33.9-.6-7.4-1.5-12-3-15.4a44 44 0 0 1-3-15 48 48 0 0 0-3-15 44 44 0 0 1-3-15 45 45 0 0 0-3.1-15.1c-3.5-7.5-4.1-35.1-.9-44l4.1-12.8c1-3.8 3.8-10.5 6-15s5-11.2 6-15c1.1-3.8 3.8-10.5 6-15s5-11.2 6-15a176 176 0 0 1 8.9-20.7c8-15.9 8.8-20.3 4.5-24.5a8 8 0 0 0-10.3-.9c-3 2.1-20.9 38-23.4 46.7-1 3.8-3.8 10.7-6.2 15.5-2.3 4.8-5 11.6-6 15.2a91 91 0 0 1-14.7 28.2 26 26 0 0 1-9.3 2.9c-3.7.5-8 1.6-9.5 2.4-1.6.8-5.9 2.3-9.7 3.4-3.8 1-11.2 4-16.4 6.5a51 51 0 0 1-17.2 5.6 44 44 0 0 0-16.7 5.5c-4.9 2.4-12 5.4-15.8 6.4-3.7 1.1-9.5 3-12.8 4.2a39 39 0 0 1-26-1c-2.7-1.2-8.3-2.6-12.3-3.1s-9.4-1.8-12-2.9a400 400 0 0 0-27.6-9.2 62 62 0 0 1-9.7-3.5c-1.6-.8-6.3-1.9-10.4-2.4s-9.7-1.8-12.3-2.9l-9.5-3.6c-5.2-1.9-5.1-1.6-10.3-15.5-4.1-10.5-4.3-28.7-.4-36.5 2.3-4.8 2.4-5.9 3-33 .5-24.3.8-28.5 2.4-32 4.3-9.3 3.9-16.5-1.1-20.4-6.1-4.9-13.1-.7-15.2 8.9-.6 2.9-2.1 7.4-3.3 9.9-2.1 4.3-2.2 6.5-2.8 32.6-.5 27-.6 28.2-2.9 33a61 61 0 0 0-1.6 32.5l4 12c1.3 4.1 3.1 9.3 4 11.5 1 2.2 2.1 8.5 2.5 14q.8 10 2.9 14.7c1.2 2.6 2.5 8 3.1 12a50 50 0 0 0 3 12c1.1 2.6 2.5 8.1 3 12.2.5 4.2 1.6 8.9 2.4 10.5a62 62 0 0 1 3.5 9.7c1 3.8 2.6 8.6 3.5 10.7s2.1 7 2.6 11 1.8 9.3 3 12c5.1 11.5 3.7 18.9-5.6 28.8a87 87 0 0 0-14.7 23.6c-4.7 9.3-10.2 18.9-12.2 21.3s-6.1 9.2-9 15-7 12.6-9 15-7.4 11.9-12 21-10 18.6-12 21-6.1 9.2-9 15-7 12.6-9 15-8.8 14.6-15 27-13 24.6-15 27c-5.6 6.7-5.9 7.9-6.5 28.2-.5 18.6-.5 18.6-3.5 22.9-7.3 10.4-15.3 13.4-27.5 10.4a21 21 0 0 0-14 0 81 81 0 0 1-38-1.5c-12.9-5.8-28.1-3.8-48.4 6.3-19.9 9.9-18 9.2-20 7.1-2.2-2.2-2-9.3.4-14.9 1.1-2.6 2.3-6.4 2.6-8.5 3.2-20-15.8-26.9-19.6-7.2-1.8 8.9-3.7 10.3-9.2 6.7-8.3-5.5-19.6-3.6-43.9 7.6-18.2 8.4-20 7.9-17.5-4.8 2-10 23.3-53.4 27.9-56.7s24.2-3.1 31.2.3c13.5 6.7 39.4 4.2 68-6.5a91 91 0 0 1 9.5-2.9c16.6-3.5 31.9-18 32-30.5 0-1.9 1-6 2.1-9l4.3-13c1.3-4.1 3.1-9.3 4-11.5s1.5-5.8 1.6-8c0-2.2 1-6.5 2.1-9.5s2.9-8.6 4-12.4 2.6-8.1 3.5-9.7 1.9-6.3 2.4-10.4 1.8-9.7 2.9-12.3c1.8-4.5 4.1-11.4 9.5-28.2 1.3-4.1 3.1-9.3 4-11.5s1.5-5.8 1.6-8c0-2.2 1-6.5 2.1-9.5l4.3-13c1.3-4.1 3.1-9.3 4-11.5a23 23 0 0 0-4.5-24.1 28 28 0 0 1-5.4-10.3 505 505 0 0 0-30.9-62 27 27 0 0 1-5.1-9.9c-2.2-8-14.5-32.8-19-38.2a358 358 0 0 1-19.1-35.3c-17.1-34.1-17.5-35.7-13.2-44.7 1.8-3.8 2.2-7 2.7-20.5.7-16.3 1.6-20.1 5.5-23.4q5.2-4.3 6.6-15.6c.5-4.2 1.9-9.7 3-12.3a50 50 0 0 0 3-12c.6-4 1.9-9.4 3-12s2.5-7.9 3-11.9 1.7-8.9 2.6-11 2.5-6.9 3.5-10.7a62 62 0 0 1 3.5-9.7c.8-1.6 1.9-6.3 2.4-10.5.5-4.1 1.9-9.6 3.1-12.2 1.1-2.6 2.4-8 2.9-12 1.9-16.9 5.5-20.5 38.1-36.7a350 350 0 0 0 30.8-16.9c3.3-2.4 8.1-4.9 10.7-5.5 7.3-1.9 10.2-3.7 19.4-12.6 10.3-9.9 11-10.3 20.4-11.5a60 60 0 0 0 27.6-12.5c3-2.4 15.6-9.4 28-15.5 22.5-11.2 22.5-11.2 44.7-33.2 17.4-17.3 22.9-23.4 25.4-28.2s8.9-11.9 30.4-33.6c21.2-21.3 27.9-28.7 30-33s10.3-13.1 40.5-43.5c20.8-20.9 38.3-39 38.9-40.2 2.8-5.5 0-10.3-5.9-10.3-4.9 0-86.6 81.3-92.5 92-2.9 5.3-7.7 10.8-21.4 24.4-22.5 22.4-22.3 22.3-31.1 6.6-12.3-22-21.2-22.7-59-4.9-20.8 9.8-21.9 9.7-27.8-1.4-2.7-5.2-2.7-5.2-3.2-39.2-.6-33.6-.6-34.1-3-39-2.9-5.8-4.2-33.2-2.1-41.2 2.5-9.3 12-12.8 22-8.3 17.6 8 36.1-10.6 28.1-28.4a43 43 0 0 1-3-15 47 47 0 0 0-2.9-14.8c-1.2-2.6-2.5-8-3.1-12-.5-4-1.9-9.5-3.1-12.2a48 48 0 0 1-2.9-15 63 63 0 0 0-2.4-13.8c-4.8-11.1 1.8-17.8 17.5-17.8 21.1 0 33-19.7 20.8-34.5a71 71 0 0 1-6.6-9.9c-1.3-2.6-5.3-7.9-8.8-11.6s-7.6-9.2-9.1-12.1a78 78 0 0 0-12.1-15.1c-17.5-18-19.1-25.9-7.8-37.9q11.4-12 10.7-22.6a50 50 0 0 0-14.6-16.2c-3.3-2.1-15.3-6.4-28-10.1-3.8-1.2-8-2.7-9.5-3.4-1.4-.8-4.2-1.7-6.1-2.1s-6.2-1.7-9.5-3a544 544 0 0 0-28.9-9.6 62 62 0 0 1-9.7-3.5c-1.6-.8-6.3-1.9-10.4-2.4-11.3-1.4-17.5-5.1-17.5-10.4 0-2.6 3.9-6.9 30.9-34.1 22.7-22.7 31.9-32.6 34.5-37.2a31 31 0 0 1 13.7-13.3 70 70 0 0 0 17.5-16.1c4.9-9.6-2.4-13.8-12.8-7.4a29 29 0 0 1-13.2 4.5c-4.2.5-8.9 1.6-10.5 2.4-1.6.9-6 2.4-9.7 3.4a97 97 0 0 0-14.9 6c-4.4 2.2-11.2 4.9-15.1 6.1a47 47 0 0 0-12.9 6.3c-3.2 2.3-8.6 5-11.9 6A243 243 0 0 0 522 299c-12.4 6-25 11.6-28 12.4-3.1.9-8.2 3.4-11.5 5.8a49 49 0 0 1-11.9 5.9c-3.4 1-9.7 3.4-14.1 5.3-11 4.9-14.5 4.6-14.5-1.4 0-3.6 16-35.7 20.4-41 2.1-2.4 7.5-11.9 12.1-21s10-18.6 12-21c7-8.4 23.5-43.1 24.4-51.4 1-8.3 2.5-11.8 7.6-16.6 6.4-6.1 8.3-12.1 4.7-15.3-3.8-3.4-7.9-2-15.8 5.4a81 81 0 0 1-16.4 10.4 73 73 0 0 0-23.9 17.9 93 93 0 0 1-18.1 15.1c-4.1 2-11.1 8.3-27 24-15.9 15.8-22.9 22-27 24-4.1 2.1-11.3 8.4-27.5 24.4-28.7 28.2-38.7 34-41.6 24.2-1.1-3.8-.7-32.2.7-42.4 2.3-17.4-29.3-8.1-39.2 11.6a85 85 0 0 1-11.9 14.7 80 80 0 0 0-11.9 14.9c-1.5 2.9-5.6 8.4-9.1 12.1s-7.5 9-8.8 11.7-4.2 6.9-6.2 9.3-4.7 6.5-6 9-4 6.6-6 9-4.7 6.4-6 8.9a27 27 0 0 1-12.8 12.8 89 89 0 0 0-14.6 11.7 82 82 0 0 1-15.2 12.1c-8.1 4.1-45.1 41.3-46.7 47.1-.7 2.5-1.2 11.7-1.2 23-.1 24.7-2.6 30.1-18 37.9a89 89 0 0 0-14.9 12c-9.2 8.8-10.8 9.8-26.8 17.8-23.6 11.9-32.6 20.3-36.4 33.8a60 60 0 0 1-3.7 10.3c-1.3 2.5-1.8 7-2.2 22.1-.5 17-.8 19.5-2.9 24-3.2 7-3.1 13.5.3 18.3 4.7 6.9 44.8 45.8 49.6 48.2 2.5 1.2 7.1 4.2 10.3 6.6 3.5 2.6 8.4 5.1 12.2 6.3 3.6 1 8.7 3.6 11.6 5.6 12.2 9 26.1 8.9 38.2-.3 2.8-2.2 6.8-4.8 8.7-5.7s6-3.7 9-6c3-2.4 10-6.6 15.6-9.3 7.1-3.5 12.3-7 17.2-11.6a195 195 0 0 1 62.2-30.5c6.2-2.2 12-4.1 23-7.7 18-5.8 23.8-7.8 28.5-9.7 20.3-8.2 36.7.5 30.5 16.3-1.1 2.8-2 5.8-2 6.6 0 .9-1.1 4.3-2.4 7.7-2.2 6-4.9 13.9-10 29.7l-7.7 23c-1.1 3-3 8.9-4.3 13s-3.1 9.3-4 11.5-1.5 5.8-1.6 8c0 2.2-1 6.5-2.1 9.5l-4.3 13-7.7 23-4.4 13a630 630 0 0 1-7.6 23c-1.1 3-2.7 8-3.5 11s-3.7 10.2-6.3 16a195 195 0 0 0-7.5 18.5l-5 15.5c-3.6 11-5.5 16.8-7.7 23-1.1 3-2.9 8.6-4 12.4s-2.6 8.1-3.5 9.7-1.9 6.3-2.4 10.4-2 9.9-3.2 12.8c-3.8 8.6-3.6 105.4.2 113.7 2.5 5.5 2.5 5.7 3 42.5.6 42.1 1.5 45.5 15.5 60.5 5.2 5.5 6.7 7.9 8 12.6.9 3.3 3.9 10.7 6.7 16.6 4.7 10 5.1 11.5 5.8 21.1.4 6.1 1.4 11.5 2.3 13.4.9 1.7 2.5 6.1 3.6 9.9s2.9 9.4 4 12.4c2.5 7.2 4.7 13.8 7.6 23 1.3 4.1 4.4 11.9 7 17.2a47 47 0 0 1 5.5 17.1c.7 5.9 1.9 9.5 5.4 16.5 2.5 5 5.5 12.1 6.5 15.9 1.1 3.7 2.9 9.3 4 12.3s2.1 7.3 2.1 9.5c.1 2.2.8 5.8 1.6 8s2.7 7.4 4 11.5l4.3 13c2.6 7 2.6 11.1 0 18-1.1 3-2.7 8-3.5 11s-3.7 10.2-6.3 16a195 195 0 0 0-7.5 18.5l-5 15.5a655 655 0 0 1-7.7 23c-1.1 3-2.7 8-3.5 11s-3.7 10.2-6.3 16a195 195 0 0 0-7.5 18.5l-5 15.5c-3.6 11-5.5 16.8-7.7 23l-3.8 11.8c-2.9 10-10 15.5-25.8 20.1-3.7 1.1-9.5 3-12.8 4.2a26 26 0 0 1-20.2-.9 129 129 0 0 0-28-8.2c-7.2 0-21.2 11.9-26.6 22.6-1.4 2.8-4.2 7-6.2 9.4s-4.7 6.5-6.1 9.2a44 44 0 0 1-5.2 8 27 27 0 0 0-7.3 13.8c-1 3.9-3.7 10.7-5.9 15-6.4 12.7-4.6 19.9 6.7 27 7 4.5 11.4 4.1 24.3-2a57 57 0 0 1 18.3-6c13.6-1.7 33.7-14.2 33.7-20.8 0-7.6-7.8-9-19.4-3.7a51 51 0 0 1-14.6 4.4c-4.1.6-10.4 2.4-15.5 4.6-13.5 5.8-15.5 4.1-10.8-8.6 1.7-4.6 3.6-10.3 4.2-12.6s2.7-6.1 4.7-8.4 4.6-6.4 6-9.1c1.3-2.6 3.7-6.2 5.2-8 1.6-1.8 4.3-5.4 6.1-8 4.9-7.4 9-8.5 17.9-4.9 23.6 9.4 29.7 10.2 44.4 5.5 24.8-7.9 48.5-25.4 51.7-38.4.7-2.5 2.1-7 3.2-10l4.4-13c3.2-10.2 5.3-16.5 7.6-23 1.1-3 2.7-8 3.5-11s3.7-10.2 6.3-16a195 195 0 0 0 7.5-18.5l5-15.5c3.6-11.2 5.5-16.9 7.7-23 1.1-3 2.7-8 3.5-11s3.7-10.2 6.3-16c9.2-19.8 13-33.7 11.4-40.8-1.4-5.5-5.7-18.6-8.4-25.4-1.1-2.6-2.4-8.2-2.9-12.3s-1.6-8.8-2.4-10.4a62 62 0 0 1-3.5-9.7c-1-3.8-4-11.3-6.6-16.6a46 46 0 0 1-5.5-17.1c-.7-5.9-1.9-9.5-5.4-16.5-2.5-5-5.4-12.1-6.5-15.9-1-3.7-2.8-9.4-4-12.5a32 32 0 0 1-2.1-8.2c0-1.3-1-4.9-2.1-8-3.2-8.1.1-12.6 3.9-5.4.9 1.8 6.7 8.5 12.8 14.8a99 99 0 0 1 13.7 16.6c1.4 2.7 4.2 7 6.2 9.4s4.8 6.7 6.2 9.4c6.1 12.2 29.5 32.9 40.7 36.1 3.2.9 17.6 7.5 32 14.7s28.8 13.8 32.2 14.8a69 69 0 0 1 24.7 16.4q1.2 2.1 1.8 26.1c.5 22.9.6 24.2 3 29 6.5 13.4 1.9 32.2-11.5 46.4a68 68 0 0 0-11.9 17.8c-3 6-7.2 12.9-9.2 15.3s-4.7 6.5-6 9-4 6.6-6 9-4.7 6.5-6 9-4 6.6-6 9-6.1 9.2-9 15-7 12.6-9 15-4.7 6.5-6.1 9.2-3.7 6.2-5.3 8-4.6 6.2-6.7 9.8a121 121 0 0 1-15.5 18.5c-11.7 12-11.7 12-25.3 39.3-7.5 15-13.6 28-13.6 28.8 0 7.1-3.4 8.6-21.5 9.4-12.8.6-15.7 1-20 3-4.3 2.1-7.1 2.5-21 3.1-14.1.6-16.7 1-22 3.3-7.1 3-16.2 3.6-17.2 1-1.8-4.7 5-24.1 12.1-34.3 5.2-7.7 4.2-14.1-2.3-14.1-8.5 0-26.3 21.9-28.3 34.9-.5 3-2.5 8.8-4.4 13-5.7 12.2-4.4 17.9 5.4 24.2 6.9 4.4 16.3 3 36.7-5.4 4-1.7 8.2-2.2 21-2.7 14-.6 16.6-1 21-3.1 10.2-4.9 34.6-3.6 43.1 2.4 9.5 6.5 10.8 6.3 28.4-2.3a185 185 0 0 1 34.5-13.4c6.5-2.2 10.4-3 14.7-2.7 2.1.1 3.8 5.1 3.8 11.1 0 18.8 15.7 29.1 29.2 19.3 20.8-15.4 46.7-21.4 61.3-14.4 6.6 3.2 28.1 4.2 38.7 1.7 6.1-1.4 7.4-1.4 13.8 0 17.2 3.9 35.9-6.3 45.6-24.8 4.9-9.3 4.9-9.3 5.4-28.3.5-20.2.7-21.1 6.2-27.3 1.6-1.8 8-13.6 14.2-26a275 275 0 0 1 15.1-27.2c2-2.4 6.1-9.2 9-15s7-12.6 9-15 7.4-11.9 12-21 10-18.6 12-21 6.1-9.2 9-15 7-12.6 9-15 7.4-11.9 12-21c11-21.8 13.4-24 27.2-24a36 36 0 0 0 12.9-2.5c11-4.1 14.4-3.4 19.5 4.3 1.7 2.6 16.6 18.2 32.9 34.7 21.9 22 30.5 31.3 32.3 35.1a62 62 0 0 0 6.1 9.3q6.4 7.7 5.2 17.1c-.7 5.4-23.9 53-28.4 58.1a86 86 0 0 0-6.6 9.6c-5.5 9.5-12.5 14.3-26.3 18.2-3.7 1-8.6 2.7-10.8 3.7-3 1.3-7.8 1.9-19.5 2.3-20.1.8-31 7.4-39.3 23.7-1.4 2.8-4.2 7-6.2 9.4-10.8 12.9-14.3 26.6-8.7 34.3 7.9 11.1 13.9 12.7 26.1 7.3 13.4-6 13.9-5.9 23.5 6.8 8.3 11 15.9 12 32.1 4.3 11-5.2 11-5.2 48-5.7 36.4-.5 37.1-.6 42-3 4.1-1.9 7.2-2.5 17.6-3 20-1 30.8-9.7 30.9-25 0-1.9 1-6 2.1-9s2.9-8.6 4-12.3a114 114 0 0 1 20.4-37.7c3.5-3.7 7.5-9.1 9-12s5.5-8.3 9-12 7.5-9.1 9-12 5.5-8.3 9-12 7.6-9.1 9-12.1c1.6-3 6.9-9.6 12.4-15.3 12.1-12.7 14.6-20.9 11-36.5-2.2-9.8.7-10.2 17.9-2.3 10.5 4.9 19.5 8.2 33.7 12.3 3.9 1.1 11.6 4.4 17 7.3 12.1 6.4 13.5 8.3 11 15.4-.9 2.6-2 9.2-2.4 14.8a50 50 0 0 1-3 15 53 53 0 0 0-3.1 12.2c-.6 4-1.9 9.4-3.1 12a44 44 0 0 0-2.8 14.7c-1.1 14.7-2.4 16.3-21.4 25.6-12.8 6.3-12.8 6.3-25.6 6.9-16.1.8-17.3 1.4-33.7 18.2-21.1 21.4-31.1 44.8-23.6 55.1 8.3 11.6 13.8 12.8 28.2 6.3 19.4-9 24.1-8.9 28.7.3q13.7 27 34.9 11c12-9.2 22.9-11.8 31.4-7.7 9.6 4.7 60.1 3.9 75.2-1.2 22.3-7.5 26.4-12 27.8-30 .5-6.6 1.4-11.1 3-14.5a47 47 0 0 0 3-18 46 46 0 0 1 2.9-18c1.2-2.8 2.6-8.3 3.1-12.3s1.9-9.4 3.1-12c1.7-3.7 2.3-7.6 2.9-17.7.5-10.4 1.1-14 2.9-18 1.6-3.5 2.5-8 3.1-15.1a44 44 0 0 1 3-15 48 48 0 0 0 3-15c.5-7 1.4-11.5 3-15a46 46 0 0 0 3-17.9q.6-13 2.3-16.9c2.6-5.8 2.2-10.6-1.2-15.2-4.8-6.7-25.5-26-30.1-28.4-2.5-1.2-7-4.1-10-6.5-3-2.3-7.5-5.2-9.8-6.4-17.1-8.7-19.8-18.1-10.4-36.3 8.2-16 14.6-19 27.7-12.8 4.5 2.1 6.8 2.4 24 3 17.1.5 19.5.8 24 2.9 4.1 1.9 7.4 2.5 18 3.1a46 46 0 0 1 18 2.9c2.8 1.2 8.3 2.6 12.3 3.1s9.4 1.9 12 3 7.9 2.5 11.9 3 8.9 1.7 11 2.6c2.1.8 7.2 2.6 11.3 3.9 9.4 2.9 15.9 5.1 23 7.6 3 1.1 8.6 2.9 12.3 4s10.5 3.8 15 6 11.2 5 15 6c8.8 2.5 39.6 17.9 46.7 23.4 3 2.3 10.1 6.6 15.8 9.4a68 68 0 0 1 17.2 11.6c3.9 3.5 9.7 7.8 12.9 9.5 7.5 4 25.8 22.4 29.4 29.6 1.4 2.7 4.2 7 6.2 9.4 4.7 5.6 8.9 14 11.4 22.7 1.1 3.7 2.9 9.3 4 12.3 1.6 4.4 2 8 2 18s-.4 13.6-2 18c-1.1 3-2.9 8.6-4 12.3a59 59 0 0 1-16.9 28.2 142 142 0 0 0-11.9 13.7c-7 10.4-33.9 23.9-38.4 19.3q-4-4-.7-13.1c3.4-9.7 3.9-12.2 2.8-16.2-2.1-7.8-9.4-14.5-15.6-14.5-4.6 0-34.1 14.5-42.2 20.8-3 2.4-9.8 6.4-15 9s-12 6.7-15 9c-3 2.4-12.5 7.8-21 12s-18 9.7-21 12-12.8 8-21.8 12.4a95 95 0 0 0-36.4 28.5c-7.1 9.8.7 21.7 17.6 26.7 3.9 1.2 8.3 2.8 9.8 3.5 1.6.8 6.2 1.9 10.4 2.4 4.1.5 9.6 1.9 12.2 3a50 50 0 0 0 12 3c4 .6 9.4 1.9 12 3a50 50 0 0 0 12 3c4 .6 9.4 1.9 12 3a50 50 0 0 0 12 3c4 .6 9.4 1.9 12 3a50 50 0 0 0 12 3c4 .6 9.4 1.9 12 3a50 50 0 0 0 12 3c4 .6 9.4 1.9 12 3s7.9 2.5 11.7 3c3.9.5 10.2 2.1 14 3.5 19.3 6.8 31.2-2.1 21.6-16.3a84 84 0 0 1-11.1-22.7c0-5 11.5-10.8 24.3-12.5 3.9-.5 9.3-1.8 11.9-3s8-2.5 12.2-3c5.7-.7 9.7-2 16.5-5.5 4.9-2.4 12-5.4 15.8-6.5 16.5-4.8 26.3-8.8 31.5-12.7 2.9-2.3 9.6-6.2 14.8-8.8s12-6.7 15-9c3-2.4 7.4-5.2 9.6-6.4 2.3-1.1 7.3-4.9 11.2-8.5s9.3-7.6 11.9-9a40 40 0 0 0 17.1-16.5c1.8-3.3 4.9-7.9 6.8-10.2 2-2.4 6-9.1 8.9-14.9s7-12.6 9-15c2.1-2.5 11-18.9 19.9-36.5 16.1-32 16.1-32 16.1-45 0-11.5-.3-13.6-2.4-18.5a46 46 0 0 1-3.1-15.5 46 46 0 0 0-2.9-14.7 50 50 0 0 1-3.1-12.2c-.5-4.2-1.6-8.9-2.4-10.5-.9-1.6-2.4-6-3.4-9.7-1.1-3.8-3.8-10.6-6.1-15.1s-4.9-11.2-6-15c-1-3.7-6.6-16.4-12.5-28.1-13-26.2-13-26-5.5-41.3 8.4-17.1 7.6-20.1-9.6-36.8-7.9-7.6-11-9.8-20.4-14.5-8-4.1-13.1-7.5-18.3-12.2a136 136 0 0 0-41.1-21.9 25 25 0 0 1-12.1-7.4c-3.5-3.3-8.2-7.1-10.6-8.7-5.8-3.9-6.5-6.1-4-14.1 2.3-7.5 2.7-23 .8-29.7-3.3-11.4-18.1-19.9-51.2-29.7a62 62 0 0 1-9.7-3.5c-1.6-.8-6.3-1.9-10.5-2.4-4.1-.5-9.6-1.9-12.2-3s-8-2.5-12-3-9.4-1.8-12-2.9a167 167 0 0 0-32.5-9.6c-7.7-1.2-9.8-7.5-5.6-16.5 9.6-20.4-5.3-46.2-28.2-49.1-3.8-.5-9.1-1.8-11.7-2.9a50 50 0 0 0-12-3c-4-.6-9.4-1.9-12-3.1a47 47 0 0 0-14.8-2.9 44 44 0 0 1-15-3c-3.4-1.5-8-2.4-15.3-3-18.2-1.4-24.8-12.2-17.2-28.5 10.1-21.5-1.6-41.9-24.8-43.5a42 42 0 0 1-14.6-3 47 47 0 0 0-18-3c-10.5-.5-14-1.1-18-3s-7.5-2.4-18-3a46 46 0 0 1-18-2.9 46 46 0 0 0-11.1-3c-7.7-1.1-9.8-2.3-11.1-5.8l-3.8-9.8c-1.9-4.9-3-9.9-3.5-16.5-1.1-13.7-4-19-13.9-24.8-6.5-3.8-20.8-4-29.1-.3-4.5 2-8 2.6-18.5 3.1-7.1.4-14.3 1.2-15.8 1.9-3.9 1.5-7.2 1.4-8.7-.4-4-4.8 8.2-17.9 24.4-26.1 6.1-3.2 13.6-7.6 16.6-10 3.1-2.3 22.8-12.8 44.9-23.9a710 710 0 0 0 44.8-23.7c3.1-2.4 8-4.9 11.6-5.9l12.1-3.9c9-3.2 42.6-2.7 50.1.8 2.8 1.3 8.3 2.7 12.3 3.2s9.4 1.8 12 2.9a400 400 0 0 0 27.6 9.2 62 62 0 0 1 9.7 3.5c1.6.8 6.3 1.9 10.4 2.4s9.7 1.8 12.3 2.8a130 130 0 0 0 33.2 9.3c4.7.4 11 1.3 14.1 2 13.3 3 29.9-10.7 31.9-26.5.5-4.2 2-9.8 3.2-12.4 2.3-4.7 2.3-4.7 2.8-74.9s.5-70.2 31.1-131.5c16.9-33.7 32.2-63.1 34-65.4 1.9-2.3 4.8-6.1 6.5-8.6 2.4-3.5 4.4-5 8-6.3 2.7-.9 7.2-2.6 9.9-3.7 3.1-1.3 8.9-2.4 15-2.8a48 48 0 0 0 14.9-3 44 44 0 0 1 15-3 48 48 0 0 0 15-3 44 44 0 0 1 15-3c7.1-.6 11.6-1.5 15.1-3.1 4-1.8 7.6-2.4 18-2.9s14-1.2 18-3 7.5-2.5 18-3c10.1-.6 14-1.2 17.7-2.9 2.6-1.2 8-2.5 12-3.1 4-.5 9.6-1.9 12.3-3.2 10.6-4.8 23.8-1.9 36.9 8.1 2.8 2.1 6.1 4.4 7.3 5 11.5 5.9 30.6-10.3 27.2-23.2-1.3-5-5.9-18.7-8-23.9-1.1-2.6-2.4-8.2-2.9-12.3s-1.6-8.8-2.4-10.4a62 62 0 0 1-3.5-9.7c-3-10-7-22.2-9.2-27.6-1.1-2.6-2.4-8.2-2.9-12.3s-1.6-8.8-2.4-10.4c-.9-1.6-2.4-5.9-3.5-9.7s-2.9-9.4-4-12.4-2.1-7.3-2.1-9.5c-.1-2.2-.8-5.8-1.6-8l-3.9-11.5c-1.3-4.1-3.1-9.2-3.9-11.3-.9-2.1-2.1-7-2.6-11s-1.8-9.3-3-11.9-2.5-8-3-12-1.8-9.4-2.9-11.8c-4.3-9.4-2.3-14.6 6.6-17.4l10.3-3.5c3.3-1.2 8.1-2 11.9-2.1 19.6-.1 44.1-14 44.1-25 0-6.4-22.6-30.7-34-36.5-3-1.5-9.6-6.8-15.1-12.1-5.4-5.1-12.1-10.5-14.9-11.9s-8.3-5.5-12.2-9.1-9.3-7.7-12.1-9.1-9.4-6.7-14.8-11.8a83 83 0 0 0-14.1-11.5 69 69 0 0 1-9.8-6.5 92 92 0 0 0-9.9-6.5 86 86 0 0 1-14.2-11.6 86 86 0 0 0-14.1-11.4 69 69 0 0 1-9.8-6.5 92 92 0 0 0-9.9-6.5 86 86 0 0 1-14.2-11.6 86 86 0 0 0-14.1-11.4 69 69 0 0 1-9.8-6.5c-3-2.3-7.1-5-9-6s-6.1-3.7-9.3-6.1c-7.5-5.6-10.3-5.7-22.1-.3m18.5 18.4c1.9 1.3 5.6 3.7 8.3 5.2a164 164 0 0 1 11 7.4c3.4 2.6 8.2 5.7 10.6 6.9s8.7 6.4 14.1 11.6a86 86 0 0 0 14.1 11.4c2.4 1.2 6.8 4.1 9.8 6.5a92 92 0 0 0 9.9 6.5c2.5 1.2 8.8 6.4 14.2 11.6a86 86 0 0 0 14.1 11.4c2.4 1.2 6.8 4.1 9.8 6.5a92 92 0 0 0 9.9 6.5c2.5 1.2 8.8 6.4 14.2 11.6s12.1 10.5 14.9 11.9 8.3 5.5 12.2 9.1 9.3 7.7 12.1 9.1 9.4 6.7 14.7 11.8a89 89 0 0 0 15.9 12.5c18.3 9.8 13.8 20.3-9.4 22a47 47 0 0 0-14.7 2.9 50 50 0 0 1-11.7 3c-19.9 2.5-30 19.6-22.2 37.3 1.2 2.6 2.5 8 3.1 12a50 50 0 0 0 3 12c1.1 2.6 2.5 8.1 3 12.2.5 4.2 1.6 8.9 2.4 10.5.9 1.6 2.4 5.9 3.5 9.7s2.9 9.4 4 12.4 2.1 7.3 2.1 9.5c.1 2.2.8 5.8 1.6 8s2.7 7.4 4 11.5l4.3 13a35 35 0 0 1 2.1 9.5c.1 2.2.8 5.8 1.6 8s2.7 7.4 4 11.5c5.4 16.8 7.7 23.7 9.5 28.2 1.1 2.6 2.4 8.2 2.9 12.3s1.6 8.8 2.4 10.4c1.5 2.9 5.5 16.2 6.4 21.4q1.5 10-11.9 1.4a86 86 0 0 0-24-11.1c-4.4-1.2-7.2-3-13-8.2-4.1-3.6-9.2-7.5-11.4-8.6s-6.5-3.9-9.5-6.3c-3-2.3-15.2-9.1-27-15s-24-12.6-27-15c-3-2.3-9.8-6.4-15-9s-12-6.6-15-9c-3-2.3-12.5-7.7-21-12s-18-9.6-21-12c-3-2.3-12.5-7.7-21-12s-18-9.6-21-12a119 119 0 0 0-39.6-18.5c-4.2-.5-9.6-1.9-12.2-3.1a48 48 0 0 0-17.7-2.9c-10.6-.5-13.9-1.1-18-3-4.5-2.1-6.9-2.4-24-3-17.1-.5-19.5-.8-24-2.9a44 44 0 0 0-18-3.1c-10.7-.5-13.9-1.1-18-3-4.7-2.3-6.4-2.4-30-3-23.7-.5-25.3-.6-30-2.9-4.4-2.1-7-2.5-21-3.1-14-.5-16.6-.9-21-3-4.7-2.3-6.3-2.4-30-3-23.9-.5-25.2-.6-30-3-4.8-2.3-5.9-2.4-33-3-27.1-.5-28.2-.6-33-2.9-4.7-2.3-6.4-2.5-27-3.1-20.6-.5-22.3-.7-27-3-4.8-2.3-6.2-2.4-30-3-23.8-.5-25.2-.6-30-2.9-4.7-2.3-6.4-2.5-27.1-3-22.3-.6-25.4-1.2-25.4-4.5 0-3.1 10.2-9.2 20.1-12 12.1-3.5 21.9-7 31.9-11.7a149 149 0 0 1 16-6.3 462 462 0 0 0 27.5-9.1c3.3-1.3 7.6-2.6 9.5-3s7.4-2.7 12.2-5.1 11.7-5.3 15.5-6.4c14.7-4.3 23.2-7.4 33.3-12.1a149 149 0 0 1 16-6.3 462 462 0 0 0 27.5-9.1c3.3-1.3 7.6-2.6 9.5-3s7.4-2.7 12.2-5.1 11.7-5.3 15.5-6.4c8.9-2.6 21.3-6.7 28.8-9.5 3.3-1.3 7.6-2.6 9.5-3s7.4-2.7 12.2-5.1 11.8-5.2 15.5-6.3c3.8-1 10.5-3.7 15-6s11.2-5 15-6.1c8.9-2.6 21.3-6.7 28.8-9.5 3.3-1.3 7.6-2.6 9.5-3s7.4-2.7 12.2-5.1 11.8-5.2 15.5-6.3c3.8-1 10.5-3.7 15-6s11.2-5 15-6.1c8.9-2.6 21.3-6.7 28.8-9.5 3.3-1.3 7.6-2.6 9.5-3s7.4-2.7 12.2-5.1 11.7-5.3 15.5-6.4c17.4-5.1 24.6-8.1 50.2-20.6 29.6-14.5 31.5-15 37.2-10.9m-1118.7 131c-.1 5.1-10.6 27.3-15.8 33.5-2.1 2.4-7.5 11.9-12.1 21s-10 18.6-12 21-8.2 13.4-13.7 24.4c-12.7 25.4-13 29.4-3.1 38.7 8.9 8.4 14.8 8.9 28.1 2.5 5-2.5 12.2-5.4 15.9-6.5 4-1.2 9.4-3.9 13.1-6.5s8.5-4.9 11.5-5.7c2.9-.6 14.5-5.8 25.9-11.5s23.8-11.3 27.5-12.4q23.5-6.9 31.2-12.5c3.4-2.4 7.9-4.5 12.3-5.7 3.9-1 8.2-2.5 9.7-3.2 4-2.1 8.8-2.9 9.6-1.6 2 3.2-2.3 8.1-43.9 50-36 36.1-43.9 44.6-46.6 49.7-4.5 8.6-10.9 14.2-23.1 20.4-5.7 2.8-12.9 7.1-15.9 9.4s-10.2 6.7-16 9.5c-14.7 7.3-31 23.1-31 30 0 5.4 16.3 22.6 25.9 27.5 3.1 1.5 9.5 6.6 15 11.9 5.3 5 12.2 10.6 15.3 12.4 11.5 6.4 10.2 12.8-3.3 16.6-3 .8-7.9 2.4-10.9 3.5s-7.3 2.1-9.5 2.1c-2.2.1-5.8.8-8 1.6s-7.4 2.6-11.6 3.9a192 192 0 0 0-35.8 17.4c-10.6 8.1-11.3 13.5-3.6 29.2 10.6 21.6 7 25-28 25.9-20.5.6-22.3.8-27 3-4.4 2.1-6.9 2.5-20 3-15.4.6-21.8 2-39.5 9-2.5 1-7 2.5-10 3.4-7 2-19.7 6.2-27.5 9.1a75 75 0 0 1-9.5 3 218 218 0 0 0-49.8 26.9 78 78 0 0 1-18.1 12.1c-6.1 3-12.5 6.7-14.3 8.3s-5.5 4.2-8.3 5.7a129 129 0 0 0-10.2 6.8c-7.1 5.3-17 6.5-18.7 2.1-1.5-3.8 6.8-12.8 17.4-18.9a91 91 0 0 0 15.5-12.5c5-4.8 11.3-9.9 14.1-11.3s8.3-5.5 12.2-9.1 9-7.5 11.4-8.7 6.8-4.1 9.8-6.4 7.1-5.1 9-6 6-3.7 9-6c3-2.4 7.4-5.2 9.6-6.4 2.3-1.1 7.4-5 11.3-8.5a89 89 0 0 1 24-15.1c20.7-10.3 24.3-14.7 17.5-21-5.9-5.5-28.4 3.3-43.1 16.8-4 3.6-9.1 7.6-11.5 8.8s-6.8 4.1-9.8 6.4-7.1 5.1-9 6-6 3.7-9 6c-3 2.4-7.4 5.2-9.6 6.4-2.3 1.1-7.3 4.9-11.2 8.5s-9.4 7.7-12.2 9.1-9.5 6.8-14.9 11.9-12 10.5-14.8 11.9-8.2 5.5-12.1 9.1-9 7.5-11.2 8.6a89 89 0 0 0-10.2 6.6c-8.5 6.2-13.1 6.2-21.6 0-3.3-2.5-8-5.5-10.4-6.7a212 212 0 0 1-32.4-31.1c-2-3.9-1.7-10.6.8-15.8 1.9-3.9 2.2-6.9 2.8-23.5.5-17.4.8-19.5 3.2-25 1.4-3.3 2.8-7.2 3.1-8.6 1.2-5 4.8-7.8 19.8-15.4 13.8-7 15.9-8.5 24.8-17a85 85 0 0 1 15.2-12c7.9-4 33.1-29.4 34.7-35.1.7-2.5 1.2-11.6 1.2-23 0-16.3.3-19.5 1.9-22.9 2.6-5.5 21.3-23.6 27.9-26.9 3-1.5 9.6-6.8 15.1-12a87 87 0 0 1 15.1-12.1c7.5-3.8 24.9-20.9 28.9-28.5 1.7-3.2 4.7-7.8 6.7-10.1 2-2.4 4.6-6.4 5.9-8.9s4-6.6 6-9 4.8-6.6 6.2-9.3c1.3-2.7 5.3-8 8.8-11.7s7.5-9.1 9-12c4.7-9.2 15.1-18.9 18.9-17.4 4 1.5 5.1 21.6 1.6 31.4-2.8 7.9-2.6 11.9.9 16.6 7.5 10.5 12.2 10.2 24.4-1.5 5.2-5 11.8-10.1 14.8-11.6 3.9-2 11.2-8.5 26.9-24 16-15.8 22.9-22 27-24 4.1-2.1 11-8.2 27-24 15.7-15.5 23-22 26.9-24 3-1.5 9.4-6.5 14.5-11.4 15.3-14.7 18.2-16 18-8.6m548.1 116.4c23.8.6 25.2.7 30 3.1 4.8 2.3 6.1 2.4 30 3 23.8.5 25.2.6 30 2.9 4.7 2.3 6.4 2.5 27 3.1 20.6.5 22.3.7 27 3 4.8 2.3 5.9 2.4 33 3 27.1.5 28.2.6 33 2.9 4.8 2.4 6.1 2.5 30 3.1 23.7.5 25.3.6 30 2.9 4.4 2.1 7 2.5 21 3.1 14 .5 16.6.9 21 3 4.7 2.3 6.3 2.4 30 3 23.6.5 25.3.6 30 2.9 4.1 1.9 7.3 2.5 18 3.1 10.6.5 13.9 1.1 18 3 4.5 2.1 6.9 2.4 24 3 17.1.5 19.5.8 24 2.9 4.1 1.9 7.4 2.5 18 3.1a46 46 0 0 1 18 2.9c2.8 1.2 8.4 2.6 12.5 3.1 9 1.2 27.8 9.7 37.6 17.2 3.4 2.6 13.1 8.1 21.5 12.3s17.9 9.6 20.9 12c3 2.3 12.5 7.7 21 12s18 9.6 21 12c3 2.3 9.8 6.4 15 9s12 6.6 15 9c3 2.3 15.9 9.4 28.6 15.8 27.6 13.9 34 19.2 28.7 23.9s-10.6 6.1-23.8 6.8c-10.5.6-14 1.2-18 3s-7.5 2.5-18 3a46 46 0 0 0-17.9 3c-3.5 1.6-8 2.5-15 3a48 48 0 0 0-15 3 44 44 0 0 1-15 3c-7.1.6-11.6 1.5-15.1 3.1a37 37 0 0 1-13 2.7c-22.5 1.2-44.6 13.6-52.8 29.8-1.4 2.8-4.2 7-6.2 9.4a1175 1175 0 0 0-34.9 66.5c-31.1 62-31.1 62-31.6 132-.5 76-.4 74.5-6 77.5-3.6 1.9-17.4-10.9-22.5-21a91 91 0 0 0-15-18 95 95 0 0 1-15-18 78 78 0 0 0-12-15c-5.4-5.6-10.4-11.8-12-15s-6.6-9.4-12-15a82 82 0 0 1-12-15c-2.1-4.2-9.1-11.9-30-33-21.3-21.4-27.9-28.7-30-33-3.1-6.4-290.8-295.4-302.4-303.8-8.4-6-9.1-7.9-9.1-24.5 0-19.7 1.8-23 11-19.9 3.3 1.1 11.1 1.7 29.5 2.1m-456 57c2.8 1.2 8.3 2.6 12.3 3.1s9.4 1.8 12 2.9c4.4 1.8 10.5 3.8 28.2 9.5 11 3.6 16.8 5.5 23 7.7 3 1.1 8.4 2.9 12 3.9 23.2 6.7 26 12.3 13.1 26.3a92 92 0 0 0-7.4 8.7c-4.7 6.9.8 19.5 14.8 34a80 80 0 0 1 11.9 14.9c1.5 2.9 5.6 8.4 9.1 12.1s7.5 9 8.9 11.7c1.4 2.8 3.6 6.4 5 8 7.3 8.6 4.9 12.9-8.2 14.7a67 67 0 0 0-22.7 11.1c-9.7 7.9-12 15.8-7.5 25.9 1.6 3.4 2.5 8.1 3 15a47 47 0 0 0 2.9 14.8c1.2 2.6 2.5 8 3.1 12 .5 4 1.9 9.5 3.1 12.3q2.2 5 2.9 14.5c.4 5.2 1.3 11.6 2 14.1 2.4 8.4 0 10.1-10.2 7.4-15.6-4-25.7 1.6-35.1 19.8-5.4 10.6-6.5 41.2-1.7 51.7 2.5 5.4 2.5 5.9 3 39.5.4 29.6.7 34.4 2.2 37.1 1 1.7 2.6 6.5 3.8 10.5a27 27 0 0 0 12.4 17.6c7.8 5.3 11.3 4.8 29.6-4.2a169 169 0 0 1 31.3-12.4c9.6-3.8 20.5 7.8 22.4 23.6 1.7 14.8-19.2 35.6-52.7 52.3a258 258 0 0 0-28 15.6c-12.4 9.7-27.1 13.6-33.7 8.9-3.6-2.7-48.1-90.5-51.2-101-1.1-3.9-3-9.7-4.2-13a39 39 0 0 1 1-26c1.6-3.5 2.5-8 3.1-15.1a47 47 0 0 1 2.9-15c1.2-2.7 2.6-8.2 3.1-12.2s1.9-9.4 3.1-12q2.1-4.7 2.9-14.8c.8-10.1 1.4-11.6 2.9-15 1.2-2.7 2.6-8.2 3.1-12.2s1.9-9.4 3-12 2.5-8 3-12 2-9.6 3.2-12.5c3.7-8.5 3.6-135.3-.1-143.7-2.2-4.8-2.6-7.5-3.1-21.5-.9-24.2-2.1-26.3-35.2-59.1-17.9-17.7-27-26-31-28.2-8.2-4.6-9.9-9.2-5.8-16s22.9-8.6 34.5-3.3m565.2 145.3c118.8 118.8 139.7 140.1 142.4 145.3 2.5 4.7 9.1 12 30.4 33.5 20.9 21.1 27.9 28.8 30 33 1.7 3.3 6.5 9.3 12 15s10.4 11.8 12 15 6.6 9.4 12 15a78 78 0 0 1 12 15q2.9 5.5 15 18c7.8 8 13.2 14.4 14.9 17.8 1.5 2.9 5.8 8.7 9.6 12.7 14.1 15.3 9.6 26.4-7.8 18.9-2-.9-6.8-2.5-10.6-3.5a62 62 0 0 1-9.7-3.5c-1.6-.8-6.3-1.9-10.4-2.4s-9.7-1.8-12.3-2.9a400 400 0 0 0-27.6-9.2 62 62 0 0 1-9.7-3.5c-1.6-.8-6.3-1.9-10.5-2.4a50 50 0 0 1-12.2-3.2c-15.9-7.6-61.3-1.6-76.5 10-2.8 2.2-23 12.9-44.7 23.7a637 637 0 0 0-45 24c-3 2.4-10.2 6.6-16 9.5-13.5 6.7-43.8 35.7-46 44-2.6 10.2-3.4 11.6-12.5 21a85 85 0 0 0-11.9 14.7c-1.4 2.9-4 6.8-5.6 8.7a94 94 0 0 0-8.4 13.3c-7 12.9-8.4 13.8-19.4 13.8-6.9 0-9.7-.5-13.7-2.3a49 49 0 0 0-12.3-3.2c-4-.6-9.4-1.9-12-3.1a48 48 0 0 0-17.7-2.9c-10.4-.5-14-1.1-18-2.9-3.5-1.6-8-2.5-15.1-3.1-7-.5-11.5-1.4-15-3a46 46 0 0 0-17.9-3c-10.5-.5-14-1.1-18-3a47 47 0 0 0-18-3c-11.3-.6-14-1.1-20.7-3.9a65 65 0 0 0-8.7-3.1c-6.5 0-3.1-14.1 6.1-24.8 1.5-1.8 3.9-5.4 5.2-8 1.4-2.7 4.1-6.8 6.1-9.2s4.8-6.6 6.2-9.3c1.3-2.7 5.3-8 8.8-11.7s7.5-9.1 9-12 5.5-8.3 9-12 7.5-9.1 9-12 5.5-8.3 9-12c4.7-5 7.9-9.8 12.1-18.1 4.8-9.8 6.9-12.7 14.9-20.9s10.1-11.1 14.9-20.9a70 70 0 0 1 12.1-18.1 68 68 0 0 0 9.1-12.1c1.7-3.5 7.2-10 15.4-18.4 16.2-16.7 15.2-12.7 14.8-57-.3-35-.3-35-2.8-40s-2.5-5-3-54-.5-49-3-54-2.5-5-3-66-.5-61-3-66c-6.1-12.5-3.7-37.5 3.7-37.5 3.7 0 7 3.2 143 139.2M534.1 412.5c3.4 3.1 8.8 6.9 11.9 8.6 4.2 2.2 10.5 7.8 22.7 20.2 22.4 22.8 23.4 24.9 24.4 48.2.5 14.1.9 16.6 3 21 3.7 7.7 3.8 135 .1 143a49 49 0 0 0-3.2 12.3c-.6 4-1.9 9.4-3 12a50 50 0 0 0-3 12c-.6 4-1.9 9.4-3.1 12q-2.1 4.7-2.9 14.8c-.8 10.1-1.4 11.6-2.9 15a53 53 0 0 0-3.1 12.2c-.6 4-1.9 9.4-3.1 12a47 47 0 0 0-2.9 14.8c-.5 7-1.4 11.5-3 15a44 44 0 0 0-1.5 26.4l4 12.1c1.3 4.2 13.5 30 27.9 58.7C619.5 929 622 934.6 622 939c0 7.1-3.9 11.3-13 14-4.3 1.3-9 3.7-12.7 6.4a401 401 0 0 1-34.1 18.5c-39.3 19.6-50.3 30.8-53.2 53.6-.5 4.2-1.9 9.7-3 12.3s-2.5 7.9-3 11.9-1.7 8.9-2.6 11-2.5 6.9-3.5 10.7a62 62 0 0 1-3.5 9.7c-.8 1.6-1.9 6.3-2.4 10.5-.5 4.1-1.9 9.6-3.1 12.2a50 50 0 0 0-2.8 11.8c-.5 3.8-1.8 9.1-2.9 11.7a48 48 0 0 0-3.1 10.2q-2.9 16.3-11.2 5.2c-1.8-2.3-7.2-8.3-12-13.2a84 84 0 0 1-11.3-14.4c-1.5-2.9-5.6-8.4-9.1-12.1s-7.5-9.1-9-11.9c-1.4-2.9-5.1-8-8.2-11.3-5.6-6.1-5.6-6.1-4.7-12.2 2.2-16.3 1-143.8-1.4-149.4-3.5-8-3.8-13.6-1.3-20.7 1.2-3.3 3.1-9.1 4.2-12.9s2.6-8.1 3.5-9.7 1.9-6.3 2.4-10.5c.5-4.1 1.9-9.6 3-12.2s2.5-7.9 3-11.9 1.7-8.9 2.6-11c.8-2.1 2.6-7.2 3.9-11.3s3-9.3 3.9-11.5 1.5-5.8 1.6-8c0-2.2 1-6.5 2.1-9.5s2.9-8.6 4-12.4 2.6-8.1 3.5-9.7 1.9-6.3 2.4-10.5c.5-4.1 1.9-9.6 3.1-12.2a50 50 0 0 0 2.8-11.8 50 50 0 0 1 3.1-12 48 48 0 0 0 3-15c.5-7.1 1.4-11.4 3-15 2.2-4.5 2.4-6.7 3-26.9.5-20.6.7-22.4 3-27.5 5.8-12.8 3.1-35.8-4.4-38.4-8.2-3-11.8 2.7-12.6 19.6-.5 11-1 14.2-3 18.3-2.2 4.6-2.4 6.6-3 27-.5 20.3-.7 22.4-2.9 27a46 46 0 0 0-3.1 15.1c-1 13.9-3.9 18-14.2 20.4-2.9.7-14.6 5.9-26 11.6S379 753.9 375.3 755c-9.9 2.9-22.1 6.9-27.5 9.1-8.3 3.4-16.3 2.6-17.4-1.6a73 73 0 0 1 3.4-24.2 409 409 0 0 0 9.6-28.3c3.6-11.2 5.5-16.9 7.7-23 1.1-3 2.7-8 3.6-11s2.3-7.5 3.3-10c6-15.1 7.9-23.7 6.4-29.2-2.7-10.2.1-11.8 20.7-11.8 27.6 0 51.9-11.7 51.9-25.1 0-2.6-1.9-7.6-6-16-9.6-19.5-7.2-24.2 15.7-30.8 3.7-1.1 9.3-2.9 12.3-4s7.3-2.1 9.5-2.1c2.2-.1 5.8-.8 8-1.6s7.4-2.7 11.5-4l15.5-5q43.4-14 18.8-27.4a100 100 0 0 1-14.9-12 86 86 0 0 0-14.4-11.5c-3-1.5-9.7-6.8-14.9-11.9-5.3-5-12.3-10.7-15.6-12.6-11.3-6.6-10-11 5.7-19 5.7-2.9 12.8-7.2 15.8-9.6s10-6.4 15.5-9.2a82 82 0 0 0 16.3-10.6c8.3-7.4 10.1-7.4 18.3-.1m-104.5 345c1.8 4.5 1.7 6.9-.7 13.5l-4.3 13c-1.3 4.1-3.1 9.3-4 11.5s-1.5 5.8-1.6 8c0 2.2-1 6.5-2.1 9.5s-2.9 8.6-4 12.4-2.6 8.1-3.5 9.7-1.9 6.3-2.4 10.5c-.5 4.1-1.9 9.6-3 12.2a55 55 0 0 0-3.1 12.2c-2.1 16.8-11.8 26.4-41.9 41.5-8.5 4.3-18 9.7-21 12s-12.5 7.8-21 12-18 9.7-21 12c-10.6 8.3-26.5 14.9-29.6 12.4-2.3-1.9-1.5-16.5 1.3-23.4 1.9-4.7 3.9-10.3 9.7-28.5 3.6-11 5.5-16.8 7.7-23 1.1-3 2.9-8.6 4-12.3s3.9-10.7 6.3-15.5 4.7-10.3 5.1-12.2 1.7-6.2 3-9.5c2.5-6.8 6.4-18.4 9.8-29.5 4.5-14.6 9.2-19 20.3-19q8.3 0 33.9-9.6c3.3-1.2 7.5-2.5 9.4-2.9s12.4-5.2 23.4-10.6c23.3-11.5 26.8-12.3 29.3-6.4m-38.9 165.4c4.2 6.2 4.3 8.3 4.3 77 0 64.2-.1 66.6-2 70.6-2.9 6-27.2 29.6-34 33-3.8 1.9-10.2 7.4-21 18a115 115 0 0 1-21 18 91 91 0 0 0-17 14c-19.2 18.7-24.2 19.4-31.5 4.8-3-5.8-3-5.8-3.5-42.8-.6-36.8-.6-37-3-42-2.5-5-2.5-5-2.5-43.7 0-46.4-1.9-41.2 18.7-51.8a196 196 0 0 0 19.9-11.6c3-2.3 12.4-7.7 20.9-11.9a174 174 0 0 0 20-11.4c2.4-2 13.2-8.2 24-13.8 21.9-11.4 24-11.9 27.7-6.4m787 41.3c1.7 1.8 2.6 4.2 3.3 8.9.5 3.6 1.9 8.6 3 11.1 1.1 2.6 2.5 8.1 3 12.3 2 15.6 10.8 23.3 28 24.5 6.7.5 11.1 1.4 14.5 3a47 47 0 0 0 18 3c10.5.5 14 1.1 18 3s7.5 2.4 18 3a46 46 0 0 1 18 2.9c2.7 1.2 7.8 2.6 11.4 3.1 11.6 1.6 15 9.9 9.2 22.5-11.1 23.8 6.5 47.4 36.8 49.5 6.7.5 11.2 1.4 14.6 3 3.5 1.5 8.1 2.4 15.1 3a47 47 0 0 1 15 2.9c2.7 1.2 8.2 2.6 12.2 3.1s9.4 1.9 12 3a46 46 0 0 0 10.8 2.9c12.7 1.8 16.4 13.1 9.5 28.6-4.8 10.6-2.8 16.7 8.9 28q10 9.4 18.5 9.5c2.2 0 6.5 1 9.5 2.1s8.6 2.9 12.4 4 8.1 2.6 9.7 3.5 6.3 1.9 10.5 2.4c4.1.5 9.6 1.9 12.2 3s8 2.5 12 3 9.4 1.8 12 2.9c5.3 2.1 17.4 6.2 27 9 13.2 3.9 17.8 16.1 12.2 32.1-4.3 12.4 3.3 25 20.2 33.6a64 64 0 0 1 11.3 8.4c7.1 6.6 9.6 8.1 17.9 10.5a114 114 0 0 1 36.8 20.1c5 4.6 10.2 8.1 17.8 11.9 19.1 9.6 20.8 14.4 11.9 32.6-7.4 15.1-7.5 14.8 5.5 40.6a289 289 0 0 1 12.5 28c1 3.8 3.7 10.5 6 15s4.9 11.2 6 15c1 3.7 2.6 8.5 3.5 10.6s2.1 7 2.6 11 1.9 9.4 3.1 12.1a47 47 0 0 1 2.9 15c.6 7.3 1.5 11.5 3.2 15.1 2 4.4 2.3 6.5 2.3 17.7 0 12.6 0 12.6-15.6 44a389 389 0 0 1-19.4 35.8 103 103 0 0 0-9.2 15.5c-6.4 12.7-27.2 35.4-37.7 41.1a84 84 0 0 0-10.6 7c-3 2.3-9.7 6.3-14.9 8.9s-11.8 6.5-14.8 8.7c-3.1 2.4-8 4.9-11.6 5.9a219 219 0 0 0-32.7 12 57 57 0 0 1-18 5.8c-4.1.6-9.6 1.9-12.2 3.1-2.6 1.1-8 2.4-12 3a50 50 0 0 0-12 3 55 55 0 0 1-11.8 2.9c-18.4 2.3-26.7 14.8-20 29.7 4.9 11-4 15.6-17.1 8.8-1.6-.8-6.3-1.9-10.5-2.4-4.1-.5-9.6-1.9-12.2-3a50 50 0 0 0-12-3c-4-.6-9.4-1.9-12-3a50 50 0 0 0-12-3c-4-.6-9.4-1.9-12-3a50 50 0 0 0-12-3c-4-.6-9.4-1.9-12-3a50 50 0 0 0-12-3c-4-.6-9.4-1.9-12-3a50 50 0 0 0-12-3c-15-1.9-21.5-8.6-13.9-14.3 1.7-1.4 9.3-5.5 16.7-9.2s16-8.7 19-11 12.5-7.8 21-12 18-9.7 21-12 9.8-6.4 15-9 12-6.7 15-9c6-4.7 17.1-10.6 23.7-12.5s7.3-.9 7.3 11.5c0 14.3 2.5 20.3 11.4 26.7 6.4 4.6 8.5 4.1 32.6-7.7 18.7-9.2 22.5-10.7 28.8-11.4a62 62 0 0 0 28-12.5c3.1-2.4 7.3-5.2 9.2-6.1 1.9-1 6-3.7 9-6 3-2.4 7.5-5.3 10-6.5 6.9-3.4 48-44.6 51.9-52 1.7-3.2 4.9-8 7.1-10.6 2.2-2.7 4.5-6.7 5.1-8.9s1.9-6.5 3-9.5 2.5-7.8 3.1-10.5c1.4-7.8 3.4-15.6 5.3-20.5a63 63 0 0 0-1.5-32.4 43 43 0 0 1-3-15 47 47 0 0 0-2.9-14.8 50 50 0 0 1-3.1-12.2c-.5-4.2-1.6-8.9-2.4-10.5-.9-1.6-2.4-6.1-3.5-10.1s-3.3-8.8-4.8-10.7a30 30 0 0 1-7.4-13.7 132 132 0 0 0-21.3-39.5 76 76 0 0 1-9.5-12.7c-4.6-8.7-68.9-72.8-77.1-76.9q-5.5-2.8-18.1-15a99 99 0 0 0-17.8-14.9c-2.8-1.5-8.4-5.6-12.3-9.2s-8.9-7.4-11.2-8.5c-2.2-1.2-6.6-4-9.6-6.4-3-2.3-7.1-5-9-6s-6-3.6-9-6c-3-2.3-7.4-5.2-9.8-6.4s-7.5-5.1-11.4-8.7a89 89 0 0 0-24-15 90 90 0 0 1-24-15 86 86 0 0 0-23.2-14.6c-8.9-4.4-18.6-9.9-21.6-12.3-3-2.3-7.1-5-9-6s-6-3.6-9-6c-3-2.3-9.8-6.4-15-9s-12-6.6-15-9c-3-2.3-7.1-5-9-6s-6-3.6-9-6c-3-2.3-9.8-6.4-15-9s-12-6.6-15-9c-3-2.3-9.8-6.4-15-9s-12-6.6-15-9c-3-2.3-7.1-5-9-6s-6-3.6-9-6c-3-2.3-7.1-5-9-6s-6-3.6-9-6c-3-2.3-9.8-6.4-15-9s-12.1-6.7-15.3-9.1a44 44 0 0 0-13-6.5c-4-1.2-8.4-2.8-9.9-3.5-1.6-.8-6.2-1.9-10.4-2.4-4.1-.5-9.6-1.9-12.2-3a49 49 0 0 0-11.9-3c-22.8-2.9-29.1-11.4-18.2-24.5 2.2-2.7 5-6.8 6.1-9 4.8-9.5 8.2-11.5 21.2-12.5 7.1-.6 11.6-1.5 15.1-3.1 4-1.8 7.5-2.4 18-2.9 7.9-.4 14-1.2 15.5-2 8.4-4.5 17.6-4.9 21.7-.8M403 1095c1.1.6 3.4 3.2 5.1 5.8 1.8 2.6 5.8 7.4 8.9 10.7s7 8.5 8.5 11.5c1.6 3.2 6.6 9.4 12 15a80 80 0 0 1 11.9 14.9 68 68 0 0 0 9.1 12.1 38 38 0 0 1 5.6 40.5c-4.4 9.6-4.1 10.5 13.7 46 8.8 17.6 17.6 34 19.7 36.5a142 142 0 0 1 17.4 35.1c2.1 7.3 2.4 7.8 7.5 13.9a250 250 0 0 1 20.6 42.1q.2 10-21-.2a55 55 0 0 0-18-6c-6.2-.8-8.4-1.6-12.8-4.7-2.9-2-7.6-5.1-10.5-6.8a97 97 0 0 1-10-6.7c-2.7-2-7.4-4.4-10.5-5.2-3.1-.9-18.5-7.8-34.2-15.5s-31.1-14.7-34.4-15.5c-7.2-2-14-8-18.5-16.4a62 62 0 0 0-6.7-10.2 62 62 0 0 1-6.1-9.3 84 84 0 0 0-11.8-14.6 80 80 0 0 1-11.9-14.9c-1.5-2.9-5.6-8.4-9.1-12.1s-7.6-9.2-9-12.1a92 92 0 0 0-14-16.9c-19.7-20.3-19.8-22.5-1.3-40.6a81 81 0 0 1 15.8-12.9c3.8-1.9 10.2-7.4 21-18a115 115 0 0 1 21-18c3.4-1.7 9.7-6.9 17-14 15.5-15 18.8-16.8 25-13.5m540.8 223 2.3 2.3.9 12.7c.6 9.7 1.2 13.6 3 17.4 1.6 3.5 2.5 8 3.1 15 .4 5.6 1.5 12.2 2.4 14.9 1.8 4.9.5 9.7-2.6 9.7a65 65 0 0 0-8.7 3.1 51 51 0 0 1-17.7 3.9 47 47 0 0 0-14.7 2.9c-2.6 1.2-8 2.5-12 3.1-4 .5-9.5 1.9-12.2 3.1a47 47 0 0 1-15 2.9 48 48 0 0 0-15 3 44 44 0 0 1-15 3 48 48 0 0 0-15 3 44 44 0 0 1-15 3c-7 .6-11.6 1.5-15.1 3q-5 2.3-14.5 3c-5.9.4-11.5 1.5-14.8 2.9q-19.5 7.8-23.2-20.2c-.5-4.2-1.6-9-2.4-10.6a62 62 0 0 1-3.5-9.7c-1-3.8-2.6-8.6-3.5-10.7s-2.1-7-2.6-11-1.8-9.3-3-11.9a39 39 0 0 1-2.6-9.5 109 109 0 0 0-2.1-11.4c-2.6-10.5-.9-12.2 9.6-9.6 3.6.9 8.8 1.8 11.4 2.1s6.9 1.4 9.5 2.5a400 400 0 0 0 27.6 9.2 62 62 0 0 1 9.7 3.5c1.6.8 6.3 1.9 10.5 2.4 4.1.5 9.6 1.9 12.2 3.1 12.1 5.5 28.5 2.7 54.2-9.2a58 58 0 0 1 18.2-5.9 44 44 0 0 0 16.7-5.5 122 122 0 0 1 15.8-6.4c3.7-1 8.4-2.6 10.3-3.5 5-2.2 10.2-2 12.8.4m-420.3 81.9c4.6 2.2 9.9 4.2 11.7 4.6s6 1.7 9.3 3l10.9 4c7.6 2.8 9.4 9 5.5 19.5-1.1 3-2.9 8.6-4 12.4s-2.6 8.1-3.5 9.7-1.9 6.3-2.4 10.4-1.8 9.7-2.9 12.3c-1.8 4.5-4.1 11.4-9.5 28.2-1.3 4.1-3.1 9.3-4 11.5s-1.5 5.8-1.6 8c0 2.2-1 6.5-2.1 9.5s-2.9 8.6-4 12.4-2.6 8.1-3.5 9.7-1.9 6.3-2.4 10.4-1.8 9.7-2.9 12.3c-2.1 5.3-6.2 17.5-9 27.1-2.5 8.3-5.9 11.7-14.2 14.2-10.8 3.2-22.1 7-27.4 9.3-7.1 3-39.9 3.2-45.5.2-10.2-5.4-10.6-11.7-1.6-22.5 2.1-2.5 4.8-6.6 6.1-9.1s4-6.6 6-9 6.1-9.2 9-15 7-12.6 9-15 4.7-6.5 6-9 4-6.6 6-9 4.7-6.5 6-9 4-6.6 6-9 6.2-9.3 9.2-15.3a67 67 0 0 1 11.8-17.7c14.3-15.2 19.2-34.3 12.5-49-2.2-4.9-2.5-7.1-2.8-21.1-.6-24.7 1.5-26.9 18.3-19m436 12.7c4.2 2 4.6 2.9 5.5 13.9 1 12.6 22.8 57.1 33.5 68.5 5.2 5.5 6.7 7.9 8 12.6.9 3.3 2.6 8.1 3.7 10.9 6.1 14.5 3.7 24.7-8.7 37.5a80 80 0 0 0-11.9 14.9c-1.5 2.9-5.6 8.4-9.1 12.1s-7.5 9.1-9 12-5.5 8.3-9 12-7.5 9.1-9 12-5.5 8.3-9 12a133 133 0 0 0-24.7 49.5l-3.9 10.5c-1.5 3.9-4.7 5.3-14.4 6.1q-9 .7-14 3.1c-4.9 2.2-5.8 2.3-41.5 2.8-36.5.5-36.5.5-45.8 4.7-20.5 9.5-24.3-.1-8.9-22.6 4.2-6.1 4.6-9.5 1.5-12.8-3.8-4.1-6.1-3.1-16.8 7.2-8.6 8.2-10.6 9.6-15.7 11-3.2.9-8.6 2.8-12 4.1-7.9 3.1-10.1 3.1-10.9-.1-.7-2.8 3.4-12.6 7-16.5 1.3-1.4 3.8-4.7 5.6-7.3 4.7-7.1 7.6-8 23.3-7.5 12.4.5 12.9.4 18-2.3 2.9-1.5 7.7-3.4 10.7-4.3 28.1-8 32.1-10.8 41.4-29.4a109 109 0 0 1 9.1-15.2c5.6-6.7 29.5-55 30.2-61.1q1.2-10-5.9-18.5a65 65 0 0 1-6.5-9.9c-1.8-3.6-10.9-13.4-33.3-36-39.6-39.9-41.2-43.3-21-45.5 4.1-.5 9.7-1.8 12.4-3.1a47 47 0 0 1 15-2.9 48 48 0 0 0 15-3 44 44 0 0 1 15-3 47 47 0 0 0 14.8-2.9c2.6-1.2 8-2.5 12-3.1 4-.5 9.5-1.9 12.2-3.1q5-2.2 15.1-2.9c5.6-.4 11.2-1.3 12.6-2 7.2-3.9 14.4-4.8 19.4-2.4"/><path d="M268.5 442.2c-1.1.6-4.3 3.3-7.1 5.9a24 24 0 0 1-11 6.4c-18.5 5-49.4 30.1-49.4 40 0 13 24.1 21.5 38.1 13.3a67 67 0 0 0 26.4-38.2c1.2-4.4 2.8-7.1 6.4-11 10.4-11.1 8-22.8-3.4-16.4m-174 138c-8.1 4.4-21.5 20.6-21.5 26 0 11.4 11.9 11.8 17.6.6 1.4-2.8 4.7-7.4 7.4-10.2 10.3-11.1 7.9-22.7-3.5-16.4"/></g></svg>