<svg xmlns="http://www.w3.org/2000/svg" width="2560" height="2560" viewBox="0 0 1920 1920"><path fill="#f97316" d="M921.5 210.6a47 47 0 0 1-19.1 4.4 36 36 0 0 0-13 2.5c-3.6 1.4-8.9 3.2-11.8 4a112 112 0 0 0-29.5 11.9c-2.8 2.1-8 4.7-11.6 5.7a46 46 0 0 0-12.2 6.3 89 89 0 0 1-9.3 6.1c-1.9 1-6 3.7-9 6-3 2.4-10.2 6.6-15.9 9.5a99 99 0 0 0-33.2 29.2c-4.7 6.8-6.1 7.7-14.5 8.9-4.9.7-10.1 2.7-21.4 8.4a188 188 0 0 1-21.7 9.4 287 287 0 0 0-49.3 24.6c-3 2.4-7.5 5.3-10 6.5-7 3.5-36 32.7-40.1 40.3a73 73 0 0 1-9.5 12.8 64 64 0 0 0-8.7 11.6 63 63 0 0 1-6.2 9.3 23 23 0 0 0-6.4 12.5c-.6 2.7-3.4 9.7-6 15.5a221 221 0 0 0-12.2 33.4 69 69 0 0 1-3.6 9.9c-.9 1.8-1.9 7.3-2.3 13.2a46 46 0 0 1-3.1 15.5c-3.8 8.7-3.8 141.3 0 150 1.7 3.9 2.6 8.5 3.1 15.5q.8 10 2.9 14.7c1.2 2.6 2.5 8 3.1 12a50 50 0 0 0 3 12c1.1 2.6 2.5 8.1 3 12.2.5 4.2 1.6 8.9 2.4 10.5a62 62 0 0 1 3.5 9.7c1 3.8 2.6 8.6 3.5 10.7s2.1 7.1 2.6 11.2c.7 5.6 2.1 9.7 5.5 16.4a104 104 0 0 1 6.4 16.2c1.1 3.9 3.3 8.7 4.8 10.6a30 30 0 0 1 7.4 13.7 574 574 0 0 0 20.5 43.8 642 642 0 0 1 21.4 45.5c1 3.8 2.8 9.3 3.9 12.3 1.7 4.6 2 8.1 2.1 20.3 0 18.4-.8 20.7-7.6 23.2-2.7.9-9.6 3.9-15.4 6.5-5.8 2.7-13 5.6-16.1 6.4-3.3.9-8.1 3.4-11.5 6a100 100 0 0 1-9.4 6.1c-1.9 1-6 3.7-9 6-3 2.4-7.1 5.1-9 6s-6 3.7-9 6c-3 2.4-12.5 7.8-21 12s-18 9.7-21 12-9.8 6.4-15 9-12 6.7-15 9c-3 2.4-12.4 7.8-20.9 12s-17.8 9.5-20.7 11.7c-3.1 2.3-8 4.8-11.8 5.9a45 45 0 0 0-12.3 6.3 89 89 0 0 1-9.3 6.1c-1.9 1-6 3.7-9 6-3 2.4-7.1 5.1-9 6s-6 3.7-9 6c-3 2.4-12.5 7.8-21 12s-18 9.7-21 12-9.8 6.4-15 9-12 6.7-15 9c-3 2.4-12.5 7.8-21 12s-18 9.7-21 12-7.3 5.2-9.5 6.3a40 40 0 0 0-16.3 16.1 88 88 0 0 1-6.8 10.3c-6 7-5.8 6.2-6.4 48.8-.5 39.5-.5 39.5-3 45-3.6 8-3.8 33.6-.2 41.7 1.2 2.9 2.7 8.7 3.2 12.8a62 62 0 0 0 30 42c2.8 1.4 8.3 5.5 12.2 9.1a86 86 0 0 0 23.2 14.6c8.9 4.4 18.6 9.9 21.6 12.3 3 2.3 12.5 7.7 21 12s18 9.6 21 12c3 2.3 7.1 5 9 6s6.1 3.7 9.3 6.1c3.5 2.6 8.4 5.1 12.3 6.3 3.7 1.1 8.7 3.6 11.7 5.9a96 96 0 0 0 8.7 5.7 190 190 0 0 0 30 18c8.5 4.2 18 9.6 21 12 3 2.3 9.8 6.4 15 9s12 6.6 15 9c3 2.3 12.5 7.7 21 12s18 9.6 21 12c3 2.3 12.5 7.7 21 12s18 9.6 21 12c3 2.3 9.8 6.4 15 9s12.1 6.7 15.3 9.1c3.5 2.6 8.4 5.1 12.3 6.3 3.8 1.1 8.7 3.6 11.8 5.9 2.9 2.2 9.5 6.1 14.7 8.7a104 104 0 0 1 14.9 9c3 2.3 9.8 6.4 15 9s12 6.6 15 9a187 187 0 0 0 21.5 12.3c8.8 4.4 18.5 10 21.6 12.4a312 312 0 0 0 54.5 26.2c11 3.6 11 3.6 53.4 3.6 47.4 0 49.4-.3 75-12 5.8-2.7 13-5.6 16.1-6.4 3.4-.9 8.1-3.4 11.5-6 3.3-2.4 10.2-6.5 15.4-9.1s12-6.7 15-9c3-2.4 7.1-5.1 9-6s6-3.7 9-6c3-2.4 12.5-7.8 21-12a190 190 0 0 0 30-18c1.9-1 6-3.7 9-6 3-2.4 7.1-5.1 9-6s6-3.7 9-6c3-2.4 15.2-9.1 27-15s24-12.7 27-15 7.1-5.1 9-6 6-3.7 9-6c3-2.4 15.2-9.1 27-15s24-12.7 27-15 7.1-5.1 9-6 6-3.7 9-6c3-2.4 12.5-7.8 21-12s18-9.7 21-12 9.8-6.4 15-9 12-6.7 15-9c3-2.4 9.8-6.4 15-9s12-6.7 15-9c3-2.4 9.8-6.4 15-9s12-6.7 15-9c3-2.4 9.8-6.4 15-9s12-6.7 15-9c3-2.4 9.8-6.4 15-9s12-6.7 15-9c3-2.4 12.5-7.8 21-12s18-9.7 21-12 12.5-7.8 21-12a190 190 0 0 0 30-18c1.9-1 6-3.7 9-6 3-2.4 7.1-5.1 9-6a96 96 0 0 0 8.7-5.7c3-2.3 8-4.8 11.7-5.9 3.9-1.2 8.8-3.7 12.3-6.3 3.2-2.4 12.8-7.8 21.3-12.1a190 190 0 0 0 30-18c1.9-1 6-3.7 9-6 3-2.4 9.8-6.4 15-9s12-6.7 15-9c3-2.4 9.8-6.4 15-9s12-6.7 15-9c3-2.4 7.4-5.3 9.8-6.4a67 67 0 0 0 23.9-25.4c4.8-9.2 4.8-9.2 5.3-61.2.5-51.9.5-52 2.8-57q4.5-9.4.1-19c-1.8-4-2.4-7.5-2.9-17.5-.4-9-1.1-13.5-2.4-16.2-2.3-4.9-21.1-23-26.7-25.8a69 69 0 0 1-9.9-6.5c-3-2.3-7.1-5-9-6s-6-3.6-9-6c-3-2.3-9.8-6.4-15-9s-12-6.6-15-9c-3-2.3-12.5-7.7-21-12s-18-9.6-21-12c-3-2.3-15.2-9.1-27-15s-24-12.6-27-15a187 187 0 0 0-21.5-12.3c-8.8-4.4-18.5-10-21.6-12.4-5.5-4.2-62.6-33-72.2-36.3-7.6-2.7-7.1 3-7.7-87-.5-81-.5-81-2.8-85.7-1.2-2.6-2.6-8-3.2-12a50 50 0 0 0-3-12 56 56 0 0 1-3-12.2c-.5-4.2-1.6-8.9-2.4-10.5a62 62 0 0 1-3.5-9.7c-1-3.8-2.6-8.6-3.5-10.7s-2.1-7.1-2.6-11.2c-.7-5.6-2.1-9.7-5.5-16.4a128 128 0 0 1-6.4-15.8c-1-3.8-3.7-10.5-6-15s-4.9-11.2-6-15-3.7-10.5-6-15-5-11.4-6-15.3a26 26 0 0 0-7.4-13.8c-1.5-1.8-7.9-13.6-14.1-26-6.3-12.5-13-24.7-15.1-27.2-2-2.4-4.7-6.5-6-9s-4-6.6-6-9-4.7-6.5-6-9-4-6.6-6-9a103 103 0 0 1-9.2-15.5 71 71 0 0 0-17.8-23.5 103 103 0 0 1-15.4-18.6c-4.2-7.9-80.8-84.8-88.1-88.4-2.5-1.2-7-4.1-10-6.5-3-2.3-7.4-5.2-9.8-6.4a68 68 0 0 1-11.4-8.7 69 69 0 0 0-17.2-11.6c-5.6-2.7-12.6-6.9-15.6-9.3a171 171 0 0 0-37.3-18.7c-3.8-1-10.7-3.8-15.5-6.2a77 77 0 0 0-12.2-5.1 91 91 0 0 1-9.5-2.9 135 135 0 0 0-36-9.8 34 34 0 0 1-13-2.8 89 89 0 0 0-39-1.4m38 21.3c3.6 1.6 7.9 2.5 15 3.1 6.1.4 11.9 1.5 15 2.7 5.7 2.3 17.7 6.3 27.8 9.3 3.8 1.1 10.5 3.9 15 6.1 4.5 2.3 11.2 5 15 6 8.8 2.5 27.7 11.9 34.7 17.4 3 2.3 10.1 6.6 15.8 9.4a71 71 0 0 1 17.3 11.7c4 3.6 9 7.4 11.3 8.5 2.2 1.2 6.6 4 9.6 6.3a84 84 0 0 0 10.6 7c7.8 4.2 67.3 64.2 70.9 71.6q2.8 5.5 15 18a71 71 0 0 1 17.8 23.5 103 103 0 0 0 9.2 15.5c2 2.4 4.7 6.5 6 9s4 6.6 6 9 4.7 6.5 6 9 4 6.6 6 9c2.1 2.5 8.8 14.6 15 27a251 251 0 0 0 14.9 26.9 30 30 0 0 1 5.1 9.9c.9 3.2 3.8 10.4 6.5 16.2s5.5 12.7 6.1 15.5c.7 2.7 3.2 8.9 5.5 13.7 2.4 4.8 5.2 11.7 6.3 15.5 1 3.7 4 11.2 6.6 16.5a44 44 0 0 1 5.5 17.2c.5 4.1 1.6 8.8 2.4 10.4a77 77 0 0 1 3.5 9.8c1 3.8 2.6 8.6 3.5 10.7a51 51 0 0 1 2.6 11c.5 4 1.8 9.3 3 11.9s2.4 8 3 12a50 50 0 0 0 3.2 12.3c3.5 7.6 3.7 176.8.2 185-2.4 5.6-6.7 18.3-9 26.5a134 134 0 0 1-6.4 16c-2.7 5.8-5.6 13-6.4 16.1-1 3.6-3.1 7.5-5.6 10.5a31 31 0 0 0-5.1 8.9c-2.1 8.3-3.1 10.6-6.5 14.6a72 72 0 0 0-6.4 9.8c-5.8 10.9-52.9 56.5-60.5 58.6-3.3.9-8 2.5-10.5 3.5s-7 2.5-10.1 3.4c-3.3.9-8.2 3.5-11.7 6.1-12.7 9.6-37.9 19.8-44.5 18.1-4.8-1.2-6.1-11-2.6-20.6l4.3-13c1.3-4.1 3.1-9.3 4-11.5s1.5-5.8 1.6-8c0-2.2 1-6.5 2.1-9.5s2.9-8.6 4-12.4 2.7-8.3 3.7-10c1.4-2.5 1.8-7.1 2.2-25.1.5-20.6.7-22.3 3-27.5 3.9-8.6 3.9-81.3.1-90-2.2-4.8-2.6-7.6-3.1-21.5-.6-13.4-1-16.8-2.9-20.7-1.2-2.6-2.5-8-3.1-12-.5-4-1.9-9.5-3.1-12.2a47 47 0 0 1-2.9-15.1 49 49 0 0 0-2.3-13.2c-.9-1.7-2.5-6.1-3.6-9.9l-4-12.4c-2.2-6.2-4.1-12-7.7-23l-5-15.5c-1.4-4.4-6.1-15.4-10.5-24.5-4.3-9.1-8.4-18.8-9-21.5-1.6-6.9-31.8-67-36.4-72.5-2-2.4-6.1-9.2-9-15s-7-12.6-9-15-4.8-6.6-6.2-9.3c-1.3-2.7-5.3-8-8.8-11.7s-7.5-9-8.8-11.7a63 63 0 0 0-6.2-9.3c-2-2.4-4.8-6.7-6.2-9.4-1.7-3.5-8.4-11-20.8-23.6-13.5-13.7-19-20.1-21.4-24.6-4.4-8.3-44.9-48.8-52.9-52.8a72 72 0 0 1-12.4-9.2 63 63 0 0 0-11.2-8.5c-2.2-1.2-6.6-4-9.6-6.4-3-2.3-7.4-5.2-9.8-6.4a68 68 0 0 1-11.4-8.7c-10.6-9.7-78.7-43.9-90.4-45.4-4.2-.5-9.6-1.9-12.2-3a50 50 0 0 0-12-3c-4-.6-9.4-1.9-11.9-3a42 42 0 0 0-8.7-2.6c-12.2-1.7-13.9-4.1-10.1-13.7 3.5-8.4 7.3-12 19-17.9a126 126 0 0 0 15.5-9.3c3-2.4 7-5 8.9-6 1.8-.9 6-3.6 9.2-6 3.5-2.5 7.9-4.8 11-5.5a44 44 0 0 0 11.8-5.8c3.6-2.5 9.3-5.4 12.6-6.4a375 375 0 0 0 27-9.1c3.1-1.2 8.8-2.2 15.1-2.7 5.5-.4 11.1-1.3 12.5-2a70 70 0 0 1 43.4-1.1m-196.7 97.8c8.3 5.8 9.8 6.4 17.4 7.4 3.8.5 9 1.8 11.6 2.9a50 50 0 0 0 12 3c4 .6 9.4 1.9 12 3s8.1 2.5 12.2 3c11.9 1.5 77.7 34.3 88.8 44.3 4.2 3.8 9.4 7.8 11.6 8.9 2.3 1.1 6.6 3.9 9.6 6.3 3 2.3 7.4 5.2 9.8 6.4s7.4 5.1 11.3 8.6c3.8 3.5 9.6 7.8 12.8 9.5 8 4.3 31.8 28.3 35.6 36 2 4 7.7 10.5 21 24a141 141 0 0 1 20.8 23.6c1.4 2.7 4.2 7 6.2 9.4s4.8 6.6 6.2 9.3c1.3 2.7 5.3 8 8.8 11.7s7.5 9 8.8 11.7 4.2 6.9 6.2 9.3 6.1 9.2 9 15 7 12.6 9 15c4.9 5.8 32.9 62 35.4 70.7 1 3.7 5 13.2 9 21a177 177 0 0 1 13 33.3c2.2 6.2 4.1 12 7.7 23 5.8 17.9 7.8 23.8 9.7 28.5 1.2 3.1 2.3 8.9 2.7 15q.8 10 2.9 14.7c1.2 2.6 2.5 8 3.1 12 .5 4 1.9 9.5 3.1 12.3 2 4.2 2.4 7.4 2.9 21 .6 14 1 16.6 3.1 21 3.8 7.9 3.8 81.2 0 89-2.3 4.7-2.5 6.4-3.1 27-.5 18.1-.9 22.7-2.4 26a138 138 0 0 0-4.1 11.5c-1.3 4.1-3 9.3-3.9 11.5s-1.5 5.8-1.6 8c0 2.2-1 6.5-2.1 9.5l-4 12.4a69 69 0 0 1-3.6 9.9c-.9 1.9-1.9 7.3-2.3 13.6-1.3 18-17.9 41.5-35.6 50.4a69 69 0 0 0-12.2 9.1 76 76 0 0 1-11.9 9q-17 8.4-24.7 34.3c-1.3 4.3-3.1 9.8-4 12.2-2.9 7.7-1.9 97.9 1.1 104.1 6.3 12.7-1.8 20.2-16.2 15.1-3.3-1.2-9.1-3.1-13-4.2-9.2-2.7-38.3-17.6-40.7-21a24 24 0 0 1-2.8-9c-.5-3.6-1.9-8.7-3.2-11.4-1.9-4.2-2.3-7.4-2.8-20.5-.4-12-.9-16.3-2.3-19.1a178 178 0 0 0-33.2-32.2c-6.2-3.1-10-6.8-13-12.8-1.3-2.5-4-6.5-6.1-9-16.3-19.4-23.3-56.3-12.9-67.8 4.4-4.8 15-9.7 24-11.1 16.9-2.6 17-2.6 22.3.9 5.7 3.6 8.4 3.8 17 1.1 3.5-1.1 9.2-2 12.5-2 8.8 0 29.7-7.3 37-12.8 2.8-2.2 7.2-5 9.6-6.2 16.4-8.2 38.9-40.9 41-59.4 1.1-9.3 1.6-10.2 12.7-21.8 7.2-7.6 9.6-10.7 10.4-14 2.2-8.7 3.2-10.8 6.9-15.3 2.1-2.6 4.3-6.3 5-8.4 1.9-6.6 1.5-160.5-.5-165.6-.9-2.2-2.7-7.4-4-11.5l-4.3-13c-1.1-3-2.1-7.1-2.1-9 0-6.9-2-10.9-8.6-17.9-8.4-8.9-9.4-11.6-9.4-24.3q-.1-10.2-1.6-14.3c-.9-2.2-2.7-7.4-4-11.5l-5-15.5c-3.5-11-15.3-35-19.9-40.5-2-2.4-6.1-9.2-9-15s-7-12.6-9-15-4.7-6.5-6-9-4-6.6-6-9-4.8-6.6-6.2-9.3a64 64 0 0 0-8.7-11.6 76 76 0 0 1-9.5-12.7c-4.2-7.9-80.9-84.8-88.1-88.4-2.5-1.2-7-4.1-10-6.5-3-2.3-10-6.5-15.5-9.3-5.5-2.7-12.5-7-15.6-9.4a144 144 0 0 0-64.4-24c-10.9-.4-11.1-.4-22.5-5.8-13.8-6.6-36.5-8.1-47.7-3.2a58 58 0 0 1-12.8 3.2c-5.6.7-9.6 2.1-16.3 5.4a109 109 0 0 1-14.8 6.1 51 51 0 0 0-9.9 4 312 312 0 0 0-42.8 44.1c-1.4 2.7-4.2 7-6.2 9.4s-4.7 6.5-6.1 9.2a44 44 0 0 1-5.2 8 27 27 0 0 0-7.3 13.8c-1 3.9-3.8 10.8-6 15.3s-5 11.3-6.1 15.1-2.6 8.3-3.6 10c-1.3 2.5-1.8 7-2.2 22.1-.5 17.3-.8 19.5-3 24.5-2.4 5.3-2.5 6.3-2.5 27s.1 21.7 2.5 27c2.2 5 2.5 7.2 3 24.5.6 16.6.9 19.6 2.8 23.7 1.2 2.6 2.6 8 3.2 12a50 50 0 0 0 3 12c1.1 2.6 2.5 8.1 3 12.2.5 4.2 1.6 8.9 2.4 10.5a62 62 0 0 1 3.5 9.7c4.9 16.4 7.7 23.9 15.2 39.4 4.3 9.1 8.4 18.7 9 21.5 1.6 6.8 25.8 55 30.4 60.5 2 2.4 6.1 9.2 9 15s7 12.6 9 15 4.8 6.7 6.2 9.4 6.7 9.4 11.8 14.6a78 78 0 0 1 12 15q2.8 5.5 15 18a95 95 0 0 1 15.4 18.7c4.2 7.8 27.1 30.7 34.6 34.6 11.8 6 12.5 8.1 12.5 37.8 0 31.4-.1 31.6-14 33.3-2.5.3-6.6 1.4-9.2 2.6-2.6 1.1-8 2.5-12.2 3a59 59 0 0 0-30.5 15.4c-10.1 9.1-19.7 11-32.1 6.5-3-1.1-8-2.7-11-3.5-3-.9-7.5-2.4-10-3.4a126 126 0 0 0-10.4-3.5c-5.1-1.4-7.1-2.8-13.4-8.8-12.1-11.7-11.1-4.2-11.2-85.7-.1-61.3-.3-71-1.6-74.5-.9-2.2-2.6-7.4-3.9-11.6a625 625 0 0 0-21.4-45.7 534 534 0 0 1-21.1-45.3c-2-7.2-2.3-7.9-7.2-13.7a26 26 0 0 1-4.3-9c-.9-3.1-3.9-10.5-6.7-16.4a50 50 0 0 1-5.8-18.2c-.5-4.1-1.6-8.8-2.4-10.4a77 77 0 0 1-3.5-9.8c-1-3.8-2.6-8.6-3.5-10.7a51 51 0 0 1-2.6-11c-.5-4-1.8-9.3-3-11.9s-2.4-8-3-12c-.5-4-1.9-9.5-3.1-12.2a47 47 0 0 1-2.9-15 42 42 0 0 0-3.2-15.1c-2.3-5-2.3-5-2.3-74.5s0-69.5 2.3-74.5c1.7-3.6 2.6-7.8 3.2-15 .4-6.1 1.5-11.9 2.7-15 2.5-6 6.8-19 8.9-26.5.8-3 3.7-10.2 6.4-16s5.6-13 6.5-16.2a30 30 0 0 1 5.1-9.9c1.9-2.4 4.7-6.5 6.1-9.2s5.3-8 8.8-11.7a68 68 0 0 0 9.1-12.1c3.4-6.9 16-19.8 22.7-23.4a90 90 0 0 0 10.7-7.1c7.1-5.5 37.9-20.8 46.7-23.3a152 152 0 0 0 20.3-8.6c22.7-11.5 32.8-12.6 43.8-4.8M792.2 434c7.6 2.1 10.6 9.2 7.1 16.8-1.5 3.1-1.8 8.4-2.3 34.7-.5 29.8-.6 31.2-2.8 36q-4.5 9.5 0 19c2.1 4.7 2.3 6.6 2.8 30 .6 23.1.8 25.4 2.8 29.7 1.2 2.6 2.6 8 3.2 12a50 50 0 0 0 3 12c1.1 2.6 2.5 8.1 3 12.2.5 4.2 1.6 8.9 2.4 10.5a62 62 0 0 1 3.5 9.7 221 221 0 0 0 12.2 33.4 115 115 0 0 1 6 15.5c.7 2.7 3.2 8.9 5.5 13.7a100 100 0 0 1 6.3 15.8 26 26 0 0 0 7.4 13.8c1.5 1.8 6.5 10.9 11.1 20s10 18.7 12.1 21.2c2 2.4 4.8 6.7 6.2 9.4 3.1 6.1 17.4 21.1 26.2 27.4 6.5 4.7 9.1 8.6 9.1 13.9 0 6.1 2.2 10.3 9 17.7 3.8 4.1 8.1 9.9 9.6 12.8 1.8 3.6 7.5 10.2 18 20.8 28.6 29.1 29.9 39.9 6.1 52.1-5.6 2.9-12.7 7.1-15.7 9.5-3 2.3-9.8 6.3-15 8.9s-12 6.7-15 9c-3 2.4-12.5 7.8-21 12s-18 9.7-21 12c-7 5.5-25.8 14.8-35.2 17.6l-10.9 3.2c-4.5 1.3-7.6.5-12.5-3.4a63 63 0 0 0-8.8-5.6 43 43 0 0 1-17.6-17.6q-3.2-6.1-15.5-18.7a95 95 0 0 1-15-18 78 78 0 0 0-12-15 84 84 0 0 1-11.8-14.6c-1.4-2.7-4.2-7-6.2-9.4s-6.1-9.2-9-15-7-12.6-9-15c-4.9-5.8-26.9-50-29.4-58.7-1-3.7-5-13.2-9-21-3.9-7.8-8-17.3-9.1-21-2.9-9.9-6.9-22.1-9.1-27.5-1.1-2.6-2.4-8-2.9-12a50 50 0 0 0-3-12c-1.1-2.6-2.4-8-3-12-.5-4-1.9-9.6-3.2-12.3-2-4.4-2.3-7.2-2.8-24-.6-17.4-.9-19.4-3.1-24-3.7-7.7-3.7-45.3 0-53 2.2-4.6 2.5-6.7 3.1-24 .5-16.4.9-19.7 2.7-24a72 72 0 0 0 3.3-9.5c.6-2.5 3.3-9.2 6-15s5.6-13 6.5-16.2a30 30 0 0 1 5.1-9.9c1.9-2.4 4.6-6.4 5.9-8.9s3.9-6.5 5.9-8.9c2-2.3 4.9-6.9 6.7-10.1 5.2-9.9 22.9-26.4 30.4-28.4 3.3-1 10.7-3.9 16.5-6.7 8-3.7 12.3-5.1 18.3-5.9 4.3-.5 8.8-1.5 10-2.2a78 78 0 0 1 37.9-2.8m50.8 13.1c3 1.1 8.6 2.9 12.3 4 9 2.6 27.8 12 34.7 17.4 3 2.3 9.8 6.4 15 9s12 6.6 15 8.9a84 84 0 0 0 10.6 7c7.7 4.1 67.3 64.2 70.9 71.5 1.5 2.9 5.5 8.4 9 12.1s7.5 9 8.8 11.7 4.2 6.9 6.2 9.3 4.7 6.5 6 9 4 6.6 6 9 6.1 9.2 9 15 7 12.6 9 15c4.7 5.6 14.8 25.8 17.5 34.7 3 10.2 7 22.2 9.3 27.8 6.9 17.2 2.2 28.5-11.9 28.5-11.8 0-57.4 19.1-72 30.1-3.1 2.4-8 4.9-11.8 6a45 45 0 0 0-12.3 6.3 89 89 0 0 1-9.3 6.1c-1.9 1-6 3.7-9 6.1-6.4 5-28.5 16-34.1 16.9-9.3 1.6-16.8-2.4-21.4-11.5-1.3-2.5-4-6.6-6-9-2.1-2.5-7.4-11.9-12-21s-9.9-18.5-11.9-20.9a30 30 0 0 1-5.1-9.9c-.9-3.2-3.8-10.4-6.5-16.2a110 110 0 0 1-6.1-15.5c-.7-2.8-3.2-8.9-5.5-13.7a114 114 0 0 1-6.4-15.5c-2.9-9.9-6.9-22.1-9.1-27.5-1.1-2.6-2.4-8-2.9-12a50 50 0 0 0-3-12c-1.1-2.6-2.4-8-3-12-.5-4-1.9-9.6-3.2-12.3-2.1-4.7-2.3-6.7-2.8-30-.6-23-.8-25.4-2.8-29.5a20 20 0 0 1 0-18c2.1-4.3 2.3-6.2 2.8-35.5q.5-31 1.7-33c4.6-8 13.6-10.3 24.3-6.4m254.5 308.1c3.4 2.7 5.5 7.5 5.5 13a33 33 0 0 0 1.6 8.3c.9 2.2 2.7 7.4 4 11.5l4.3 13c2 5.3 2 8.2 2.1 84.3 0 87 .4 82-6.5 90-1.9 2.2-4 5.9-4.5 8.1-3.3 13.1-9.4 20.3-19.6 23.1-3.3.9-8 2.5-10.6 3.6a56 56 0 0 1-12.3 2.9 60 60 0 0 0-27.5 12.5c-3 2.4-12.8 8-21.8 12.4-20.7 10.4-28.2 17-36.6 32.6-6.3 11.8-8.1 13.3-16.9 14.5-11.8 1.7-21.3 7.4-34.3 20.4-13.5 13.5-13.8 14.2-13.2 34.2.4 14.8 7.9 34 18.2 46.3 1.9 2.3 5 6.9 6.7 10.1a110 110 0 0 0 28.8 28.5c14.5 7.3 17.4 12.6 18.2 33 .5 13.5.9 16.7 2.8 20.7a50 50 0 0 1 3.1 12.3c1.2 9.3 2.8 12.2 12.1 20.9 8.3 7.9 39.3 23.8 58.5 30 25.5 8.3 67.8 3.7 84.7-9.2 2.8-2.2 12.2-7.5 20.7-11.7 8.5-4.3 18-9.7 21-12s12.5-7.8 21-12a190 190 0 0 0 30-18c1.9-1 6-3.7 9-6 3-2.4 10.2-6.7 16-9.5 12.7-6.3 25.7-18.3 27.8-25.6.9-3.1 1.2-24.8 1.2-82.8 0-68.6.2-79.1 1.5-82.4 1.1-2.4 10.8-13 28.4-30.7 19.5-19.6 27.6-28.4 29.4-32 1.4-2.8 4.4-7.3 6.6-10 2.3-2.8 4.6-6.8 5.2-9 2.1-8.1 3.2-10.7 5.8-13.8a26 26 0 0 0 7.2-13.7c1-3.9 3.9-11 6.3-15.8 2.3-4.8 5-11.7 6-15.3q5.5-20.6 20.1-18.5c6 .9 63.2 29.3 70.5 35 3 2.4 12.5 7.8 21 12.1s18 9.6 21 12c3 2.3 15.2 9.1 27 15s24 12.6 27 15c3 2.3 12.5 7.7 21 12s18 9.6 21 12c3 2.3 9.8 6.4 15 9s12 6.6 15 9c3 2.3 7.1 5 9 6s6 3.6 9 6c3 2.3 7.1 5 9 6 9.6 4.8 11.3 8.2 12.1 24 .5 10.2 1.1 14 2.7 17.5 5.2 11 .9 20.2-10.8 23-7.3 1.7-54 25.1-61 30.5-3 2.4-9.8 6.4-15 9s-12 6.7-15 9c-3 2.4-12.5 7.8-21 12a190 190 0 0 0-30 18c-1.9 1-6 3.7-9 6-3 2.4-12.5 7.8-21 12a190 190 0 0 0-30 18c-1.9 1-6 3.7-9 6-3 2.4-12.5 7.8-21 12a190 190 0 0 0-30 18c-1.9 1-6 3.7-9 6-3 2.4-12.5 7.8-21 12s-18 9.7-21 12a104 104 0 0 1-14.9 9c-5.2 2.6-11.8 6.5-14.7 8.7-3.1 2.3-8 4.8-11.8 5.9a45 45 0 0 0-12.3 6.3 89 89 0 0 1-9.3 6.1c-1.9 1-6 3.7-9 6-3 2.4-7.1 5.1-9 6s-6 3.7-9 6c-3 2.4-9.8 6.4-15 9s-12 6.7-15 9c-3 2.4-12.5 7.8-21 12a190 190 0 0 0-30 18 96 96 0 0 0-8.7 5.7c-3 2.3-8 4.8-11.7 5.9a45 45 0 0 0-12.3 6.3 89 89 0 0 1-9.3 6.1c-1.9 1-6 3.7-9 6-3 2.4-7.1 5.1-9 6s-6 3.7-9 6c-3 2.4-15.2 9.1-27 15s-24 12.7-27 15-9.8 6.4-15 9-12 6.7-15 9c-3 2.4-9.8 6.4-15 9s-12 6.7-15 9c-3 2.4-7.1 5.1-9 6a96 96 0 0 0-8.7 5.7c-3 2.3-8 4.8-11.7 5.9a45 45 0 0 0-12.3 6.3 89 89 0 0 1-9.3 6.1 79 79 0 0 0-9.5 6.4c-14.2 10.7-53 28.2-64.6 29.1a41 41 0 0 0-15.4 3.2c-7.5 3.5-58.8 4.1-68.1.8l-12.7-4.1c-3.8-1-10.7-3.9-15.5-6.3a86 86 0 0 0-14-5.6c-3.2-.7-7.5-2.9-11.1-5.5a80 80 0 0 0-9.2-6c-1.9-1-5.9-3.6-8.9-6-3-2.3-15.2-9.1-27-15s-24-12.6-27-15c-3-2.3-12.5-7.7-21-12s-18-9.6-21-12c-3-2.3-12.5-7.7-21-12s-18-9.6-21-12c-3-2.3-15.2-9.1-27-15s-24-12.6-27-15c-3-2.3-12.5-7.7-21-12s-18-9.6-21-12c-3-2.3-7.1-5-9-6s-6-3.6-9-6c-3-2.3-12.5-7.7-21-12s-18-9.6-21-12c-3-2.3-7.1-5-9-6s-6-3.6-9-6c-3-2.3-12.5-7.7-21-12s-18-9.6-21-12c-3-2.3-15.2-9.1-27-15s-24-12.6-27-15c-9.4-7.3-54.7-29.3-62.7-30.5-11.5-1.6-11.7-2.1-12.1-25.2-.4-24.5-.5-24.1 13.6-38A72 72 0 0 1 288 1207c9.1-4.5 19-10.2 22-12.5s9.8-6.4 15-9 12-6.7 15-9c3-2.4 12.5-7.8 21-12a190 190 0 0 0 30-18c1.9-1 6-3.7 9-6 3-2.4 7.1-5.1 9-6a96 96 0 0 0 8.7-5.7c3-2.3 8-4.8 11.7-5.9 3.9-1.2 8.8-3.7 12.3-6.3 3.2-2.4 12.8-7.8 21.3-12.1s18-9.7 21-12 9.8-6.4 15-9 12-6.7 15-9c3-2.4 12.5-7.8 21-12a190 190 0 0 0 30-18c1.9-1 6-3.7 9-6 3-2.4 7-5 8.9-6 1.8-.9 6-3.6 9.2-6 3.5-2.6 7.9-4.8 11-5.5 2.9-.7 9.8-3.5 15.3-6.1 21.9-10.6 22-10.5 22.6 38.9.6 46.2-1.2 40.3 18.3 60 15.7 15.9 20.1 19.2 27.7 21.2 2.5.7 6.5 2 9 3 34.2 13.4 47.1 12.7 64-3.5 10.3-9.9 11-10.3 20.2-11.5a50 50 0 0 0 12-3c2.6-1.1 7.8-2.4 11.6-2.9 8.5-1.1 11.5-2.6 19.8-10.1 5.1-4.6 7.9-6.4 12.3-7.6 3.1-.9 8.3-2.6 11.6-3.9s7.6-2.6 9.5-3c5.4-1.2 40.8-19.2 47-24a63 63 0 0 1 22.7-11.4 44 44 0 0 0 13-6.5c3.2-2.4 7.4-5.1 9.3-6.1s6-3.7 9-6c3-2.4 10.2-6.6 16-9.5 9.9-4.9 11.3-6 24.6-19.4 16.7-16.8 16.4-16.1 16.4-37.6 0-19.3-.6-21.4-9.2-30.6-5.5-6-7-8.3-8.3-13.1-4-14.7-7.9-20.7-24.6-37.8a117 117 0 0 1-18.4-21.5c-1.5-3-5.4-8.2-8.6-11.5-7.3-7.6-8.5-10.6-9.4-22.6-.8-10.9-.1-12 10.9-17.6 2.8-1.4 7.6-4.5 10.6-6.8 3-2.4 7.1-5.1 9-6a96 96 0 0 0 8.7-5.7c3-2.3 8-4.8 11.7-5.9 3.9-1.2 8.8-3.7 12.3-6.3 7.4-5.6 38.2-21 47-23.6 3.7-1 9.3-2.8 12.3-3.9 3.4-1.3 8.2-2.1 12.5-2.1 4.2-.1 9-.8 12-2 6.8-2.5 10.7-2.4 14 .2M993.6 955.5a100 100 0 0 1-.5 37q-4 9-21.3 17.6c-5.7 2.8-12.8 7.1-15.8 9.4s-7 5-8.9 6c-1.8.9-6 3.6-9.2 6a34 34 0 0 1-11.1 5.5c-7 1.7-17.9 7.2-24.8 12.5-13.2 10.3-55.7 28.4-62.3 26.7-3.8-1-4.9-6.4-4.5-22.3.4-18.8-.1-18.1 19-27.9a196 196 0 0 0 19.9-11.6c3-2.3 12.4-7.7 20.9-11.9s18-9.7 21-12 9.8-6.4 15-9 12-6.7 15-9.1c7.9-6.2 37.4-20.4 42.3-20.4 3.4 0 4 .4 5.3 3.5m80.8 81.8a47 47 0 0 1-18.9 29.9 85 85 0 0 0-9.2 6.1c-3.1 2.3-8 4.8-11.6 5.8-3.4 1-8.7 2.7-11.7 3.8-9.5 3.3-28 3.4-29.8 0-4.2-7.3 5.1-18 24.1-27.6 7.3-3.6 15.7-8.5 18.7-10.8 15.1-11.7 38.7-16.2 38.4-7.2m195.2 56.4c1.2 2.8 1.4 14.8 1.2 72.2-.3 80.1 1 71.7-13 79.1-4.7 2.5-10.9 6.4-13.9 8.6-3 2.3-7 5-8.9 5.9s-6 3.7-9 6c-3 2.4-12.5 7.8-21 12s-18 9.7-21 12a166 166 0 0 1-20.8 11.9c-8.4 4.2-17.9 9.6-21.2 12-3.6 2.7-8 4.9-11.2 5.6-2.9.7-7.1 2.1-9.3 3.1-11.2 5.1-14.3 2.3-21.1-19.2-2.7-8.5-1.6-95.8 1.3-102.4a107 107 0 0 0 3.8-10.9c2.1-7.6 18.7-25.3 28.7-30.6a93 93 0 0 0 15.8-12.5 90 90 0 0 1 14-11.5 83 83 0 0 0 9.7-6.3c3.1-2.3 8-4.8 11.6-5.8 22-6.5 44.1-16.3 54.3-24.1a40 40 0 0 1 15.2-6.8c11.2-3.1 12.9-2.9 14.8 1.7m412.5 56.9c2.8 2.9 4.4 67.8 1.9 78.9-2.4 11.2-14.9 22.9-35 33-5.2 2.6-12 6.7-15 9-3 2.4-9.8 6.4-15 9s-12 6.7-15 9c-3 2.4-7.1 5.1-9 6s-6 3.7-9 6c-3 2.4-12.4 7.8-20.9 12s-17.8 9.5-20.7 11.7c-3.1 2.3-8 4.8-11.8 5.9a45 45 0 0 0-12.3 6.3 89 89 0 0 1-9.3 6.1c-1.9 1-6 3.7-9 6-3 2.4-7.1 5.1-9 6s-6 3.7-9 6c-3 2.4-12.5 7.8-21 12s-18 9.7-21 12-12.5 7.8-21 12-18 9.7-21 12-9.8 6.4-15 9-12 6.7-15 9c-3 2.4-9.8 6.4-15 9s-12 6.7-15 9c-3 2.4-9.8 6.4-15 9s-12 6.7-15 9c-3 2.4-9.8 6.4-15 9s-12 6.7-15 9c-3 2.4-9.8 6.4-15 9s-12 6.7-15 9c-3 2.4-12.5 7.8-21 12a190 190 0 0 0-30 18 249 249 0 0 1-36 21c-11.8 5.9-24 12.7-27 15s-7.1 5.1-9 6-6 3.7-9 6c-3 2.4-15.2 9.1-27 15s-24 12.7-27 15-7.1 5.1-9 6-6 3.7-9 6c-3 2.4-7.1 5.1-9 6s-6 3.7-9 6c-3 2.4-12.5 7.8-21 12a190 190 0 0 0-30 18c-1.9 1-6 3.7-9 6-3 2.4-9.7 6.4-14.8 8.9a139 139 0 0 0-15.2 9 33 33 0 0 1-11.2 5.6c-2.9.7-9.2 3.2-14 5.6s-11.7 5.3-15.5 6.3c-3.7 1.1-9.3 2.9-12.3 4-8.5 3.1-87.5 3.1-96 0-3-1.1-8.6-2.9-12.3-3.9a269 269 0 0 1-46.7-23.5c-3-2.3-12.5-7.7-21-12s-18-9.6-21-12c-3-2.3-9.8-6.4-15-9s-12-6.6-15-9c-3-2.3-9.8-6.4-15-9s-12.1-6.7-15.3-9.1a45 45 0 0 0-12.3-6.3 42 42 0 0 1-11.8-5.9c-2.9-2.2-9.5-6.1-14.7-8.7a104 104 0 0 1-14.9-9c-3-2.3-12.5-7.7-21-12s-18-9.6-21-12c-3-2.3-12.5-7.7-21-12s-18-9.6-21-12c-3-2.3-9.8-6.4-15-9s-12-6.6-15-9c-3-2.3-12.5-7.7-21-12s-18-9.6-21-12c-3-2.3-7.1-5-9-6s-6.1-3.7-9.3-6.1a45 45 0 0 0-12.3-6.3 42 42 0 0 1-11.7-5.9 96 96 0 0 0-8.7-5.7 190 190 0 0 0-30-18c-8.5-4.2-18-9.6-21-12-3-2.3-12.9-7.9-21.9-12.5a90 90 0 0 1-22-13.4c-3.1-2.9-8.2-7.2-11.4-9.5a31 31 0 0 1-13.7-24.6c-.5-3.9-1.9-9.3-3.2-12-3.8-8.1-3.4-32.1.6-42.5l3.8-10.2c1.4-3.8 6.9-6.2 12.7-5.4 6.1.8 50.5 22.6 58.7 28.8a255 255 0 0 0 27.5 15.3 244 244 0 0 1 26.9 15c3 2.3 12.5 7.7 21 12s18 9.6 21 12c3 2.3 7.1 5 9 6s6 3.6 9 6c3 2.3 12.5 7.7 21 12s18 9.6 21 12c3 2.3 7.1 5 9 6s6 3.6 9 6c3 2.3 12.5 7.7 21 12s18 9.6 21 12c3 2.3 15.2 9.1 27 15s24 12.6 27 15c3 2.3 12.5 7.7 21 12s18 9.6 21 12c3 2.3 12.5 7.7 21 12s18 9.6 21 12c3 2.3 15.2 9.1 27 15a249 249 0 0 1 36 21c1.9 1 6.1 3.7 9.4 6.1 3.4 2.6 8.2 5.1 11.5 6 3.1.8 10.3 3.7 16.1 6.4 24.7 11.3 29.4 12.2 62.2 11.8 28.5-.3 29.4-.4 34.3-2.7 3.6-1.8 7.5-2.6 14.8-3.1 10.8-.7 52.5-19.7 65.6-29.8 3.1-2.4 7.4-5.3 9.6-6.4s6.3-3.8 9.2-6c3-2.3 8-4.8 11.7-5.9 3.9-1.2 8.8-3.7 12.3-6.3 3.2-2.4 7.4-5.1 9.3-6.1s6-3.7 9-6c3-2.4 9.8-6.4 15-9s12-6.7 15-9c3-2.4 9.8-6.4 15-9s12-6.7 15-9c3-2.4 15.2-9.1 27-15s24-12.7 27-15 7.1-5.1 9-6 6-3.7 9-6c3-2.4 7.1-5.1 9-6a96 96 0 0 0 8.7-5.7c3-2.3 8-4.8 11.7-5.9 3.9-1.2 8.8-3.7 12.3-6.3 3.2-2.4 7.4-5.1 9.3-6.1s6-3.7 9-6c3-2.4 12.5-7.8 21-12s18-9.7 21-12 9.8-6.4 15-9 12-6.7 15-9c3-2.4 7.1-5.1 9-6s6-3.7 9-6c3-2.4 7.1-5.1 9-6a96 96 0 0 0 8.7-5.7c3-2.3 8-4.8 11.7-5.9 3.9-1.2 8.8-3.7 12.3-6.3 3.2-2.4 10.1-6.5 15.3-9.1s12-6.7 15-9c3-2.4 12.5-7.8 21-12a190 190 0 0 0 30-18c1.9-1 6-3.7 9-6 3-2.4 12.5-7.8 21-12a190 190 0 0 0 30-18c1.9-1 6-3.7 9-6 3-2.4 12.5-7.8 21-12a190 190 0 0 0 30-18c1.9-1 6-3.7 9-6 3-2.4 12.5-7.8 21-12s18-9.7 21-12 9.8-6.4 15-9 12-6.7 15-9.1 16.5-9.7 29.9-16.3c26.9-13.3 29.8-14.1 34.2-9.5"/></svg>