<svg xmlns="http://www.w3.org/2000/svg" width="2560" height="2560" viewBox="0 0 1920 1920"><g fill="#f97316"><path d="M1187.5 295.9c-9.8 3.6-15.7 5.6-25.6 8.6-10 3.1-42.9 19.6-49.9 25-3 2.4-9.8 6.4-15 9s-12 6.7-15 9c-3 2.4-9.8 6.4-15 9s-12 6.7-15 9c-3 2.4-12.5 7.8-21 12s-18 9.7-21 12-9.8 6.4-15 9-12 6.7-15 9c-3 2.4-9.8 6.4-15 9s-12 6.7-15 9c-3 2.4-15.2 9.1-27 15s-24 12.7-27 15-9.8 6.4-15 9-12 6.7-15 9a104 104 0 0 1-14.9 9c-5.2 2.6-11.8 6.5-14.7 8.7-3.1 2.3-8 4.8-11.8 5.9a45 45 0 0 0-12.3 6.3 89 89 0 0 1-9.3 6.1c-1.9 1-6 3.7-9 6-3 2.4-12.5 7.8-21 12s-18 9.7-21 12-12.5 7.8-21 12-18 9.7-21 12-9.8 6.4-15 9-12 6.7-15 9c-3 2.4-9.7 6.4-14.8 8.9a139 139 0 0 0-15.2 9 36 36 0 0 1-10.6 5.5c-6.8 1.7-9.9 3.6-17 10.1a86 86 0 0 1-22.6 14.1 192 192 0 0 0-21.8 12.4c-3 2.4-12.5 7.8-21 12s-18 9.7-21 12-9.8 6.4-15 9-12 6.7-15 9c-3 2.4-15.2 9.1-27 15s-24 12.7-27 15-7.1 5.1-9 6-6 3.7-9 6c-3 2.4-9.8 6.4-15 9s-12 6.7-15 9c-3 2.4-15.2 9.1-27 15s-24 12.7-27 15-9.8 6.4-15 9-12 6.7-15 9c-3 2.4-9.8 6.4-15 9s-12 6.7-15 9c-3 2.4-15.2 9.1-27 15s-24 12.7-27 15-7.1 5.1-9 6-6 3.7-9 6c-3 2.4-15.2 9.1-27 15s-24 12.7-27 15-9.8 6.4-15 9-12 6.7-15 9c-3 2.4-12.5 7.8-21 12a190 190 0 0 0-30 18c-1.9 1-6 3.7-9 6-3 2.4-7.5 5.3-10 6.5a210 210 0 0 0-32.1 30.6 36 36 0 0 0-2.9 10.9c-.5 4.2-2 9.7-3.2 12.3-1.9 4.1-2.2 7-2.8 23.7-.5 17.3-.8 19.4-3 24a85 85 0 0 0-1.5 38.5c.9 2.5 2.8 8.1 4.1 12.5 1.5 4.7 3.7 9.4 5.4 11.5a54 54 0 0 1 5.6 8c2.8 4.7 5.8 9.2 9.9 14.9 5 6.8 3.4 11.9-5.9 18.5a45 45 0 0 0-20.1 34.6c0 14.9 16.2 41.8 29 48.2 2.2 1.1 6.5 3.9 9.5 6.3 3 2.3 7.1 5 9 6s6 3.6 9 6c3 2.3 7.1 5 9 6s6 3.6 9 6c3 2.3 15.2 9.1 27 15s24 12.6 27 15c3 2.3 10 6.5 15.5 9.3 5.5 2.7 12.5 7 15.6 9.4a75 75 0 0 0 70.7 14.3c19.3-6 26.8-10.1 37.6-20.4 10-9.6 12.9-11 18.5-9.4l10.9 3.2c9.4 2.8 40.1 18.1 47.2 23.6 3 2.3 9.8 6.4 15 9s12 6.6 15 9c3 2.3 9.8 6.4 15 9s12 6.6 15 9c3 2.3 15.5 9.3 27.8 15.4 34 17 35.2 18.5 35.1 43.6 0 13.7-.3 16.8-2 21.5-4.9 13-4.9 17.2 0 30 1.1 3 2.5 7.5 3.1 9.9 1.4 5.5 9.4 13.7 16.9 17.5 2.8 1.5 8.4 5.6 12.3 9.2a69 69 0 0 0 17.2 11.6c5.6 2.7 12.6 6.9 15.6 9.3 3 2.3 9.8 6.4 15 9s12 6.6 15 9c3 2.3 9.8 6.4 15 9s12 6.6 15 9c10.4 8 54.9 29.4 63.6 30.5 4.2.5 9.6 1.9 12.2 3.1 3.7 1.7 7.6 2.3 17.7 2.9 10.5.5 14 1.1 18 3a45 45 0 0 0 40.1-3.2c7.5-5.2 7.5-5.2 20.5-5.8 14-.7 42.3-12.6 56.8-23.8 3.1-2.4 7.4-5.3 9.6-6.4s6.3-3.8 9.2-6c3-2.3 8-4.8 11.7-5.9 3.9-1.2 8.8-3.7 12.3-6.3 3.2-2.4 10.1-6.5 15.3-9.1s12-6.7 15-9c3-2.4 9.8-6.4 15-9s12-6.7 15-9c3-2.4 9.8-6.4 15-9s12-6.7 15-9c3-2.4 12.7-7.9 21.6-12.3 13-6.5 17.4-9.3 23.2-14.6 6-5.4 8.2-6.8 14.1-8.6 4.4-1.3 9.1-3.6 12.8-6.4 3.2-2.4 10.1-6.5 15.3-9.1s12-6.7 15-9c3-2.4 9.8-6.4 15-9s12-6.7 15-9c3-2.4 12.5-7.8 21-12s18-9.7 21-12 12.5-7.8 21-12 18-9.7 21-12 9.8-6.4 15-9 12-6.7 15-9c3-2.4 9.8-6.4 15-9s12-6.7 15-9c3-2.4 7.1-5.1 9-6a96 96 0 0 0 8.7-5.7c3-2.3 8-4.8 11.7-5.9 3.9-1.2 8.8-3.7 12.3-6.3 3.2-2.4 7.4-5.1 9.3-6.1s6-3.7 9-6c3-2.4 9.8-6.4 15-9s12-6.7 15-9c3-2.4 12.4-7.8 20.9-12s17.8-9.5 20.7-11.7c3.1-2.3 8-4.8 11.8-5.9s8.8-3.7 12.3-6.3c3.2-2.4 7.4-5.1 9.3-6.1s6-3.7 9-6c3-2.4 9.8-6.4 15-9s12-6.7 15-9c3-2.4 15.2-9.1 27-15s24-12.7 27-15 9.8-6.4 15-9 12-6.7 15-9c3-2.4 9.8-6.4 15-9s12-6.7 15-9c3-2.4 9.7-6.4 14.9-9s11.8-6.5 14.7-8.7c3.1-2.3 8-4.8 11.8-5.9s8.8-3.7 12.3-6.3c3.2-2.4 7.4-5.1 9.3-6.1s6-3.7 9-6c3-2.4 12.5-7.8 21-12a190 190 0 0 0 30-18 249 249 0 0 1 36-21c11.8-5.9 24-12.7 27-15s9.8-6.4 15-9 12-6.7 15-9c3-2.4 9.8-6.4 15-9s12-6.7 15-9c3-2.4 9.8-6.4 15-9s12-6.7 15-9c3-2.4 7.1-5.1 9-6s6-3.7 9-6c3-2.4 7.3-5.2 9.5-6.3 10.5-5.3 18.7-16.9 23.9-33.9l4.1-12.3c2.7-7.4 1.8-37.7-1.5-44.5-3.8-8.1-4.9-28.2-3.3-64.5.8-17.5 1.1-20.1 3.3-25a43 43 0 0 0 0-30c-2.4-5.3-2.5-6.4-3-33-.6-33.8 1.3-29.4-23.3-53.7-19.2-19.1-19.2-19.1-35.7-27.3-9.1-4.5-19-10.1-22-12.5-3-2.3-9.8-6.4-15-9s-12-6.6-15-9c-3-2.3-9.8-6.4-15-9s-12-6.6-15-9c-3-2.3-9.8-6.4-15-9s-12-6.6-15-9c-3-2.3-12.5-7.7-21-12s-18-9.6-21-12c-3-2.3-9.8-6.4-15-9s-12-6.6-15-9c-3-2.3-12.5-7.7-21-12s-18-9.6-21-12c-3-2.3-12.5-7.7-21-12s-18-9.6-21-12c-3-2.3-9.8-6.4-15-9s-12-6.6-15-9c-3-2.3-9.8-6.4-15-9s-12-6.6-15-9c-3-2.3-12.5-7.7-21-12s-18-9.6-21-12c-3-2.3-9.8-6.4-15-9s-12-6.6-15-9c-3-2.3-9.8-6.4-15-9s-12-6.6-15-9c-3-2.3-9.8-6.4-15-9s-12-6.6-15-9c-3-2.3-15.2-9.1-27-15s-24-12.6-27-15c-3-2.3-9.8-6.4-15-9s-12-6.6-15-9a119 119 0 0 0-39.6-18.5c-4.2-.5-9.6-2-12.2-3.2-8.2-3.9-37.9-3.8-48.7.1m48 19.9c2.8 1.3 8.4 2.7 12.5 3.2 9 1.2 27.8 9.7 37.6 17.2 3.4 2.5 10.3 6.7 15.5 9.3a104 104 0 0 1 14.9 9c3 2.3 15.2 9.1 27 15s24 12.6 27 15c3 2.3 9.8 6.4 15 9s12 6.6 15 9c3 2.3 9.8 6.4 15 9s12 6.6 15 9c3 2.3 9.8 6.4 15 9s12 6.6 15 9c3 2.3 12.5 7.7 21 12s18 9.6 21 12c3 2.3 9.8 6.4 15 9s12 6.6 15 9c3 2.3 9.8 6.4 15 9s12 6.6 15 9c3 2.3 12.5 7.7 21 12s18 9.6 21 12c3 2.3 12.5 7.7 21 12s18 9.6 21 12c3 2.3 9.8 6.4 15 9s12 6.6 15 9c3 2.3 12.5 7.7 21 12s18 9.6 21 12c3 2.3 9.8 6.4 15 9s12 6.6 15 9c3 2.3 9.8 6.4 15 9s12 6.6 15 9c3 2.3 9.8 6.4 15 9s12 6.6 15 9c3 2.3 12.9 8 22 12.5 16.1 8 16.8 8.5 27.2 18.8 13.6 13.3 14.1 14.5 13.6 32-.4 16.8-.2 16.5-19 26.2a196 196 0 0 0-19.9 11.6c-3 2.3-7 5-8.9 5.9s-6 3.7-9 6.1-17.9 10.4-33 17.9c-15.1 7.6-30 15.7-33 18s-7.1 5.1-9 6-6 3.7-9 6c-3 2.4-9.8 6.4-15 9s-12 6.7-15 9c-3 2.4-12.5 7.8-21 12s-18 9.7-21 12-12.5 7.8-21 12-18 9.7-21 12a104 104 0 0 1-14.9 9c-5.2 2.6-11.8 6.5-14.7 8.7-3.1 2.3-8 4.8-11.8 5.9a45 45 0 0 0-12.3 6.3c-3.2 2.4-10.1 6.5-15.3 9.1s-12 6.7-15 9c-3 2.4-9.8 6.4-15 9s-12 6.7-15 9c-3 2.4-9.8 6.4-15 9s-12 6.7-15 9c-3 2.4-7.1 5.1-9 6a96 96 0 0 0-8.7 5.7c-3 2.3-8 4.8-11.7 5.9a45 45 0 0 0-12.3 6.3c-3.2 2.4-10.1 6.5-15.3 9.1s-12 6.7-15 9c-3 2.4-12.5 7.8-21 12s-18 9.7-21 12-9.8 6.4-15 9-12 6.7-15 9c-3 2.4-12.5 7.8-21 12s-18 9.7-21 12-9.8 6.4-15 9-12 6.7-15 9c-3 2.4-7.1 5.1-9 6s-6 3.7-9 6c-3 2.4-15.2 9.1-27 15s-24 12.7-27 15-7.1 5.1-9 6-6 3.7-9 6c-3 2.4-15.2 9.1-27 15s-24 12.7-27 15-9.8 6.4-15 9-12 6.7-15 9c-3 2.4-9.8 6.4-15 9s-12 6.7-15 9c-3 2.4-9.8 6.4-15 9s-12 6.7-15 9a104 104 0 0 1-14.9 9c-5.2 2.6-11.8 6.5-14.7 8.7-3.1 2.3-8 4.8-11.8 5.9a45 45 0 0 0-12.3 6.3c-3.2 2.4-10.1 6.5-15.3 9.1s-12 6.7-15 9c-3 2.4-15.2 9.1-27 15s-24 12.7-27 15-9.8 6.4-15 9-12 6.7-15 9c-3 2.4-9.8 6.4-15 9s-12 6.7-15 9a104 104 0 0 1-14.9 9c-5.2 2.6-11.8 6.5-14.7 8.7-3.1 2.3-8 4.8-11.8 5.9-4 1.2-8.8 3.7-12.5 6.5-14.2 10.6-15.5 10.9-53.1 10.9-32.9 0-33.6 0-38.5-2.3a49 49 0 0 0-12.5-3.2c-9-1.1-39-15.2-49.6-23.2-3.3-2.5-10.3-6.7-15.5-9.3a104 104 0 0 1-14.9-9c-3-2.3-7.1-5-9-6s-6-3.6-9-6c-3-2.3-9.8-6.4-15-9s-12-6.6-15-9c-3-2.3-12.5-7.7-21-12s-18-9.6-21-12c-3-2.3-9.8-6.4-15-9s-12-6.6-15-9c-3-2.3-15.2-9.1-27-15a249 249 0 0 1-36-21c-1.9-.9-6-3.6-9-6-3-2.3-9.8-6.4-15-9s-12-6.6-15-9c-3-2.3-15.2-9.1-27-15a249 249 0 0 1-36-21 190 190 0 0 0-30-18c-8.5-4.2-18-9.6-21-12-3-2.3-7.1-5-9-6s-6-3.6-9-6c-3-2.3-15.2-9.1-27-15s-24-12.6-27-15c-3-2.3-9.8-6.4-15-9s-12-6.6-15-9c-3-2.3-12.5-7.7-21-12s-18-9.6-21-12c-3-2.3-9.8-6.4-15-9s-12-6.6-15-9a85 85 0 0 0-23.2-12.2c-9-2.6-11-7.9-6.7-17.3 1.1-2.5 2.4-7.7 2.8-11.5 1.3-10.8 6.6-18.2 17.3-23.6 2.3-1.2 6.8-4.1 9.8-6.4s7.1-5.1 9-6 6-3.7 9-6c3-2.4 12.5-7.8 21-12s18-9.7 21-12 9.8-6.4 15-9 12-6.7 15-9c3-2.4 15.2-9.1 27-15s24-12.7 27-15 7.1-5.1 9-6 6-3.7 9-6c3-2.4 15.2-9.1 27-15s24-12.7 27-15 9.8-6.4 15-9 12-6.7 15-9c3-2.4 9.8-6.4 15-9s12-6.7 15-9c3-2.4 15.2-9.1 27-15s24-12.7 27-15 9.8-6.4 15-9 12-6.7 15-9c3-2.4 7.1-5.1 9-6s6-3.7 9-6c3-2.4 15.2-9.1 27-15s24-12.7 27-15 9.8-6.4 15-9 12-6.7 15-9c3-2.4 12.5-7.8 21-12s18-9.7 21-12 12.7-7.9 21.6-12.3c13-6.5 17.4-9.3 23.2-14.6 6-5.4 8.2-6.8 14.1-8.6 4.4-1.3 9.1-3.6 12.8-6.4 3.2-2.4 10.1-6.5 15.3-9.1s12-6.7 15-9c3-2.4 9.8-6.4 15-9s12-6.7 15-9c3-2.4 12.5-7.8 21-12s18-9.7 21-12 12.5-7.8 21-12a190 190 0 0 0 30-18 96 96 0 0 0 8.7-5.7c3-2.3 8-4.8 11.7-5.9 3.9-1.2 8.8-3.7 12.3-6.3 3.2-2.4 10.1-6.5 15.3-9.1s12-6.7 15-9c3-2.4 9.8-6.4 15-9s12-6.7 15-9c3-2.4 15.2-9.1 27-15s24-12.7 27-15 9.8-6.4 15-9 12-6.7 15-9c3-2.4 9.8-6.4 15-9s12-6.7 15-9c3-2.4 12.5-7.8 21-12s18-9.7 21-12 9.8-6.4 15-9 12-6.7 15-9c3-2.4 9.8-6.4 15-9s12-6.7 15-9c7.1-5.6 37.9-20.9 46.8-23.4a51 51 0 0 0 8.9-3c1.1-.5 5.1-1.9 8.9-3s9.4-3 12.4-4.1c8.4-3.1 37.1-2.6 44.5.8m636.4 433.8c5.8 4.8 6.8 19.7 2.1 29.9-2.1 4.5-2.4 6.9-2.9 23-.7 20.5-1 21.6-7.8 24a367 367 0 0 0-48.2 24.3c-3.1 2.4-10.1 6.7-15.6 9.4a126 126 0 0 0-15.5 9.3c-3 2.4-9.8 6.4-15 9s-12 6.7-15 9c-3 2.4-15.2 9.1-27 15s-24 12.7-27 15-7.1 5.1-9 6-6 3.7-9 6c-3 2.4-9.8 6.4-15 9s-12 6.7-15 9a104 104 0 0 1-14.9 9c-5.2 2.6-11.8 6.5-14.7 8.7-3.1 2.3-8 4.8-11.8 5.9a45 45 0 0 0-12.3 6.3c-3.2 2.4-10.1 6.5-15.3 9.1s-12 6.7-15 9c-3 2.4-9.8 6.4-15 9s-12 6.7-15 9c-3 2.4-12.5 7.8-21 12s-18 9.7-21 12-9.8 6.4-15 9-12 6.7-15 9c-3 2.4-9.8 6.4-15 9s-12 6.7-15 9a104 104 0 0 1-14.9 9c-5.2 2.6-11.8 6.5-14.7 8.7-3.1 2.3-8 4.8-11.8 5.9a45 45 0 0 0-12.3 6.3c-3.2 2.4-10.1 6.5-15.3 9.1s-12 6.7-15 9c-3 2.4-9.8 6.4-15 9s-12 6.7-15 9c-3 2.4-9.8 6.4-15 9s-12 6.7-15 9c-3 2.4-12.5 7.8-21 12s-18 9.7-21 12-9.8 6.4-15 9-12 6.7-15 9c-3 2.4-12.5 7.8-21 12a190 190 0 0 0-30 18c-1.9 1-6 3.7-9 6-3 2.4-12.5 7.8-21 12s-18 9.7-21 12-12.5 7.8-21 12-18 9.7-21 12-9.8 6.4-15 9-12 6.7-15 9c-3 2.4-12.7 7.9-21.6 12.3a86 86 0 0 0-23.2 14.6c-6 5.4-8.2 6.8-14.1 8.6a42 42 0 0 0-12.8 6.4c-3.2 2.4-10.1 6.5-15.3 9.1s-12 6.7-15 9c-3 2.4-9.8 6.4-15 9s-12 6.7-15 9c-3 2.4-15.2 9.1-27 15s-24 12.7-27 15-9.8 6.4-15 9-12 6.7-15 9.1c-8 6.2-53.3 28.4-57.9 28.4-8.5-.1-9.1-2.4-9.1-35.3.1-35.1 2.4-40.5 20.1-45.7a44 44 0 0 0 12.6-6.4c3.2-2.4 10.1-6.5 15.3-9.1s12-6.7 15-9c3-2.4 9.8-6.4 15-9s12-6.7 15-9c3-2.4 9.8-6.4 15-9s12-6.7 15-9c3-2.4 15.2-9.1 27-15s24-12.7 27-15 9.7-6.4 14.9-9 11.8-6.5 14.7-8.7c3.1-2.3 8-4.8 11.8-5.9s8.8-3.7 12.3-6.3c3.2-2.4 10.1-6.5 15.3-9.1s12-6.7 15-9c3-2.4 9.8-6.4 15-9s12-6.7 15-9c3-2.4 9.8-6.4 15-9s12-6.7 15-9c3-2.4 9.8-6.4 15-9s12-6.7 15-9c3-2.4 15.2-9.1 27-15s24-12.7 27-15 7.1-5.1 9-6 6-3.7 9-6c3-2.4 15.2-9.1 27-15s24-12.7 27-15 7.1-5.1 9-6 6-3.7 9-6c3-2.4 9.8-6.4 15-9s12-6.7 15-9c3-2.4 12.5-7.8 21-12s18-9.7 21-12 9.8-6.4 15-9 12-6.7 15-9c3-2.4 12.5-7.8 21-12s18-9.7 21-12 9.7-6.4 14.9-9 11.8-6.5 14.7-8.7c3.1-2.3 8-4.8 11.8-5.9s8.8-3.7 12.3-6.3c3.2-2.4 7.4-5.1 9.3-6.1s6-3.7 9-6c3-2.4 9.8-6.4 15-9s12-6.7 15-9c3-2.4 9.8-6.4 15-9s12-6.7 15-9c3-2.4 9.7-6.4 14.9-9s11.8-6.5 14.7-8.7c3.1-2.3 8-4.8 11.8-5.9s8.8-3.7 12.3-6.3c3.2-2.4 10.1-6.5 15.3-9.1s12-6.7 15-9c3-2.4 12.5-7.8 21-12s18-9.7 21-12 12.5-7.8 21-12 18-9.7 21-12 9.8-6.4 15-9 12-6.7 15-9c3-2.4 7.1-5.1 9-6s6-3.7 9-6.1 17.9-10.4 33-17.9c15.1-7.6 30-15.7 33-18s7.1-5.1 9-6 6-3.7 9-6.1c6.9-5.4 27.4-15.4 31.7-15.4 1.9 0 4.3 1 6.2 2.6m-4.1 100.4c1.1 1.1 2.4 3.7 2.7 5.7.9 6.3 2.3 11.5 4.5 17.8 3.1 8.5 2.6 36.3-.7 44a97 97 0 0 0-3.8 10.8 55 55 0 0 1-21.7 24.2 91 91 0 0 0-10.8 7.1c-3 2.3-9.8 6.3-15 8.9s-12 6.7-15 9c-3 2.4-9.8 6.4-15 9s-12 6.7-15 9c-3 2.4-9.8 6.4-15 9s-12 6.7-15 9c-3 2.4-15.2 9.1-27 15s-24 12.7-27 15-7.1 5.1-9 6-6 3.7-9 6c-3 2.4-12.5 7.8-21 12a190 190 0 0 0-30 18 96 96 0 0 0-8.7 5.7c-3 2.3-8 4.8-11.7 5.9a45 45 0 0 0-12.3 6.3c-3.2 2.4-10.1 6.5-15.3 9.1s-12 6.7-15 9c-3 2.4-9.8 6.4-15 9s-12 6.7-15 9c-3 2.4-9.8 6.4-15 9s-12 6.7-15 9c-3 2.4-15.2 9.1-27 15s-24 12.7-27 15-9.8 6.4-15 9-12 6.7-15 9c-3 2.4-7.1 5.1-9 6a96 96 0 0 0-8.7 5.7c-3 2.3-8 4.8-11.7 5.9a45 45 0 0 0-12.3 6.3c-3.2 2.4-12.8 7.8-21.3 12.1s-18 9.7-21 12-9.8 6.4-15 9-12 6.7-15 9c-3 2.4-7.1 5.1-9 6a96 96 0 0 0-8.7 5.7c-3 2.3-8 4.8-11.7 5.9a45 45 0 0 0-12.3 6.3 89 89 0 0 1-9.3 6.1c-1.9 1-6 3.7-9 6-3 2.4-9.8 6.4-15 9s-12 6.7-15 9c-3 2.4-9.8 6.4-15 9s-12 6.7-15 9c-3 2.4-12.5 7.8-21 12s-18 9.7-21 12-12.5 7.8-21 12-18 9.7-21 12-9.8 6.4-15 9-12 6.7-15 9c-3 2.4-9.7 6.4-14.8 8.9a139 139 0 0 0-15.2 9 36 36 0 0 1-10.6 5.5c-6.8 1.7-9.9 3.6-17 10.1a86 86 0 0 1-22.6 14.1 192 192 0 0 0-21.8 12.4c-3 2.4-9.8 6.4-15 9s-12 6.7-15 9c-3 2.4-9.8 6.4-15 9s-12 6.7-15 9a104 104 0 0 1-14.9 9c-5.2 2.6-11.8 6.5-14.7 8.7-3.1 2.3-8 4.8-11.8 5.9a45 45 0 0 0-12.3 6.3 89 89 0 0 1-9.3 6.1 79 79 0 0 0-9.5 6.4 235 235 0 0 1-46.5 22.7c-8.2 1.1-12.1-.8-23-11.1a94 94 0 0 0-14.3-11.6c-2.3-1.2-6.7-4-9.7-6.4-3-2.3-7.5-5.2-10-6.5a74 74 0 0 1-12.5-10.1c-4.4-4.3-10.9-9.9-14.5-12.6-15.8-11.8-12.7-16.4 11.5-17.2A56 56 0 0 0 755 1482c4.7-3.5 6.6-4.1 13.2-5 8.9-1.1 53.2-22.3 63.8-30.5 3-2.4 9.8-6.4 15-9s12-6.7 15-9c3-2.4 15.2-9.1 27-15s24-12.7 27-15 9.8-6.4 15-9 12-6.7 15-9c3-2.4 9.7-6.4 14.8-8.9a139 139 0 0 0 15.2-9 36 36 0 0 1 10.6-5.5c6.8-1.7 9.9-3.6 17-10.1 4.9-4.6 9.8-7.7 22.6-14.1a192 192 0 0 0 21.8-12.4c3-2.4 9.8-6.4 15-9s12-6.7 15-9c3-2.4 12.5-7.8 21-12s18-9.7 21-12 12.5-7.8 21-12a190 190 0 0 0 30-18c1.9-1 6-3.7 9-6 3-2.4 12.5-7.8 21-12s18-9.7 21-12 9.8-6.4 15-9 12-6.7 15-9c3-2.4 12.5-7.8 21-12s18-9.7 21-12 9.8-6.4 15-9 12-6.7 15-9c3-2.4 9.8-6.4 15-9s12-6.7 15-9c3-2.4 9.7-6.4 14.9-9s11.8-6.5 14.7-8.7c3.1-2.3 8-4.8 11.8-5.9s8.8-3.7 12.3-6.3c3.2-2.4 10.1-6.5 15.3-9.1s12-6.7 15-9c3-2.4 9.8-6.4 15-9s12-6.7 15-9c3-2.4 9.8-6.4 15-9s12-6.7 15-9c3-2.4 12.5-7.8 21-12s18-9.7 21-12 9.8-6.4 15-9 12-6.7 15-9c3-2.4 9.7-6.4 14.9-9s11.8-6.5 14.7-8.7c3.1-2.3 8-4.8 11.8-5.9s8.8-3.7 12.3-6.3c3.2-2.4 10.1-6.5 15.3-9.1s12-6.7 15-9c3-2.4 9.8-6.4 15-9s12-6.7 15-9c3-2.4 7.1-5.1 9-6s6-3.7 9-6c3-2.4 15.2-9.1 27-15s24-12.7 27-15 9.8-6.4 15-9 12-6.7 15-9c3-2.4 9.8-6.4 15-9s12-6.7 15-9.1 13.8-8.3 23.9-13.3c19.9-9.8 23.9-10.8 27.9-7.1m-1806 187c3.7 1.7 9.2 5 12.2 7.4s9.8 6.5 15 9.1 12 6.6 15 9c3 2.3 12.5 7.7 21 12s18 9.6 21 12c3 2.3 9.8 6.4 15 9s12 6.6 15 9c3 2.3 15.2 9.1 27 15a249 249 0 0 1 36 21 190 190 0 0 0 30 18c8.5 4.2 18 9.6 21 12 3 2.3 7.1 5 9 6s6 3.6 9 6c3 2.3 15.2 9.1 27 15s24 12.6 27 15c3 2.3 9.8 6.4 15 9s12 6.6 15 9c3 2.3 7.1 5 9 6s6 3.6 9 6c3 2.3 15.2 9.1 27 15s24 12.6 27 15c3 2.3 9.8 6.4 15 9s12 6.6 15 9c3 2.3 12.5 7.7 21 12s18 9.6 21 12c3 2.3 9.8 6.4 15 9s12 6.6 15 9c3 2.3 7.1 5 9 6s6 3.6 9 6c3 2.3 9.8 6.4 15 9s12 6.6 15 9c10.1 7.8 42.9 23.4 51.6 24.5 4.2.5 9.6 2 12.2 3.2 4.4 2.1 6.5 2.3 31.9 2.8 36.4.7 32.8-3.6 32.8 39 0 44.5 1.7 42.2-31.8 43.1-18.2.4-22.9.9-26.1 2.3a14 14 0 0 1-8 1.2c-13.7-2-13.9-1.9-16.8.8-5 4.5-3.2 10.8 4.1 14.6 6.2 3.1 9.9 6.8 14.1 13.9 4.6 8 15.9 19 23.2 22.7a93 93 0 0 1 14.9 11.9 90 90 0 0 0 14.1 11.6c14.4 7.3 24.8 17.7 23.4 23.5-1.5 6-22.1 7.6-33.1 2.5a45 45 0 0 0-18-3.1 46 46 0 0 1-18-2.9 54 54 0 0 0-12.5-3.1c-8.9-1.1-50.6-20.8-61.6-29.2-3.3-2.5-10.3-6.7-15.5-9.3a104 104 0 0 1-14.9-9c-3-2.3-9.8-6.4-15-9s-12-6.6-15-9a125 125 0 0 0-16-9.5c-26.2-13.1-40.5-37.9-32-55.5 2.9-6.1 4.2-35 1.9-43.4-3.1-11.6-26.5-31.4-51.9-44.1-12.4-6.1-25-13.1-28-15.5-3-2.3-9.8-6.4-15-9s-12-6.6-15-9c-3-2.3-9.8-6.4-15-9s-12-6.6-15-9a289 289 0 0 0-49.5-24.7 64 64 0 0 1-29.1-17.8c-5-4.9-11.1-9.8-13.5-11-2.4-1.3-7-4.2-10.2-6.6a29.7 29.7 0 0 0-41 3.6c-5.5 6.4-6 9.7-5.6 35.2.4 24.7.3 25.2-5.1 25-4.3-.1-25.3-10.4-32-15.6-3-2.4-9.8-6.5-15-9.1s-12-6.6-15-9c-3-2.3-15.2-9.1-27-15a249 249 0 0 1-36-21c-1.9-.9-6-3.6-9-6-3-2.3-7.5-5.2-10-6.5-12.1-6.1-27.1-26-28.6-38-1.2-8.8.5-11.9 14.6-26.6 17.2-17.8 18.4-22.4 8.9-33.9-2.2-2.7-5.1-7-6.4-9.5-1.3-2.6-4-6.5-5.9-8.9a31 31 0 0 1-5.2-9.9 79 79 0 0 0-3.7-10.7c-3.7-8.4-3.3-33.9.6-41.5 5.6-10.8 9.9-12.2 21.5-7M259 1260c3 2.2 7.6 5.1 10.1 6.4 19.7 10.5 12.8 27.1-14.3 34.6-17.9 5-20.3 1.9-19.6-25.7.3-12.4.5-14.4 2.3-16.3 4.9-5.5 13.2-5.1 21.5 1"/><path d="M1114.5 396.4a180 180 0 0 0-32.5 17.1c-3 2.4-15.2 9.1-27 15s-24 12.7-27 15-12.5 7.8-21 12-18 9.7-21 12-15.2 9.1-27 15-24 12.7-27 15-9.8 6.4-15 9-12 6.7-15 9c-3 2.4-7.1 5.1-9 6s-6 3.7-9 6c-3 2.4-12.5 7.8-21 12s-18 9.7-21 12-9.8 6.4-15 9-12 6.7-15 9c-3 2.4-12.5 7.8-21 12s-18 9.7-21 12-12.5 7.8-21 12-18 9.7-21 12-9.8 6.4-15 9-12 6.7-15 9c-3 2.4-12.5 7.8-21 12s-18 9.7-21 12-9.8 6.4-15 9-12 6.7-15 9c-3 2.4-9.8 6.4-15 9s-12 6.7-15 9c-3 2.4-9.8 6.4-15 9s-12 6.7-15 9c-3 2.4-12.5 7.8-21 12s-18 9.7-21 12-12.5 7.8-21 12-18 9.7-21 12-15.2 9.1-27 15-24 12.7-27 15-9.8 6.4-15 9-12 6.7-15 9c-3 2.4-9.8 6.4-15 9s-12 6.7-15 9c-3 2.4-7.1 5.1-9 6s-6 3.7-9 6c-3 2.4-15.2 9.1-27 15s-24 12.7-27 15a104 104 0 0 1-14.9 9c-5.2 2.6-11.8 6.5-14.7 8.7-3.1 2.3-8 4.8-11.8 5.9a45 45 0 0 0-12.3 6.3A91 91 0 0 1 232 906c-7.9 3.9-38.4 35.4-40 41.3-4.1 15.1 14.5 44.7 34.6 55 2.7 1.4 7.4 4.5 10.5 6.9 14.4 11.1 47.7 23.8 62.6 23.8 6.3 0 11.1.6 15.5 2 7.7 2.4 10.3 2.5 15.9.4 3-1.2 9.3-1.9 19.9-2.3 15.5-.7 15.5-.7 26.5-5.8 6.1-2.8 13.5-5.8 16.6-6.7 3.3-.9 8.1-3.4 11.5-6 3.3-2.4 15.6-9.2 27.4-15.1s24-12.7 27-15 9.8-6.4 15-9 12-6.7 15-9c3-2.4 15.2-9.1 27-15s24-12.7 27-15 9.8-6.4 15-9 12-6.7 15-9c3-2.4 7.1-5.1 9-6s6-3.7 9-6c3-2.4 9.8-6.4 15-9s12-6.7 15-9c3-2.4 15.2-9.1 27-15s24-12.7 27-15 9.8-6.4 15-9 12-6.7 15-9c3-2.4 9.8-6.4 15-9s12-6.7 15-9c3-2.4 9.8-6.4 15-9s12-6.7 15-9c3-2.4 12.4-7.8 20.9-12s18.1-9.7 21.5-12.3c12.3-9.4 44.5-22.3 50.2-20.1 8.5 3.1 13.9 47.9 7.5 61.4-5.2 10.9-3.9 25.7 2.9 33.9 3.8 4.6 4.7 6.7 7 15.5 3.3 12.8 31.3 34.1 47.6 36.1 4.2.5 9.6 2 12.2 3.2 6.5 3 31.3 3.9 38.2 1.3 4.8-1.8 12.3-3.8 20.5-5.4q42.1-8.3 44.5-39.1c.5-6.5 1.5-11.2 3.1-15 2.4-5.5 2.4-5.5 2.4-51.5 0-55.5.3-54.5-22.9-77.3-17.1-16.8-24.7-21-40.4-22.2a93 93 0 0 1-11.4-1.4c-7.2-3.1 3-14.9 20.3-23.7 5.7-2.8 12.9-7.1 15.9-9.4s9.8-6.4 15-9 12-6.7 15-9c3-2.4 9.8-6.4 15-9s12-6.7 15-9c3-2.4 12.5-7.8 21-12s18-9.7 21-12 9.8-6.4 15-9 12-6.7 15-9c3-2.4 15.2-9.1 27-15s24-12.7 27-15 9.8-6.4 15-9 12-6.7 15-9c3-2.4 10.2-6.6 15.9-9.5 24-11.9 40.6-34 40.6-54 0-29.3-36.2-61.5-88.1-78.4-12.1-4-65.5-5.5-75.9-2.2m70.5 20.7c3 1.1 8.6 2.9 12.4 4 12.4 3.6 43.5 20.1 49 25.9a42 42 0 0 1 8.5 47c-4.7 9.7-7.3 12.2-19.4 18.2a126 126 0 0 0-15.5 9.3c-3 2.4-9.8 6.4-15 9s-12 6.7-15 9c-3 2.4-15.2 9.1-27 15s-24 12.7-27 15-9.8 6.4-15 9-12 6.7-15 9c-3 2.4-12.5 7.8-21 12s-18 9.7-21 12-9.8 6.4-15 9-12 6.7-15 9c-3 2.4-9.8 6.4-15 9s-12 6.7-15 9c-3 2.4-9.8 6.4-15 9s-12 6.7-15 9c-3 2.4-7.1 5.1-9 6a44 44 0 0 0-16 14.6c-4.8 6.9-6.2 7.8-14.6 9-12.5 1.8-44.1 18.8-56.4 30.4-8.6 8.2-10.8 9.7-15.7 11.1-3.2.9-8.5 2.6-11.8 3.9a75 75 0 0 1-9.5 3 180 180 0 0 0-35 18c-3 2.4-12.5 7.8-21 12s-18 9.7-21 12-9.8 6.4-15 9-12 6.7-15 9c-3 2.4-9.8 6.4-15 9s-12 6.7-15 9c-3 2.4-9.8 6.4-15 9s-12 6.7-15 9c-3 2.4-15.2 9.1-27 15s-24 12.7-27 15-9.8 6.4-15 9-12 6.7-15 9c-3 2.4-7.1 5.1-9 6s-6 3.7-9 6c-3 2.4-9.8 6.4-15 9s-12 6.7-15 9c-3 2.4-15.2 9.1-27 15s-24 12.7-27 15-9.8 6.4-15 9-12 6.7-15 9a237 237 0 0 1-26.8 14.9 284 284 0 0 0-27.2 15c-3.6 2.7-8 4.9-11.2 5.6-2.9.7-10 3.6-15.7 6.4-10.5 5.1-10.5 5.1-26.5 5.7-11.7.4-17.1 1-19.8 2.2-4.9 2.2-8.1 2.1-15.1-.3-4.1-1.5-8.3-2-15.4-2-7.2-.1-11.2-.6-15.3-2.1-3-1.1-8.6-2.9-12.3-4-9-2.6-27.8-12-34.7-17.4-3-2.3-7.3-5.1-9.5-6.3-11.9-6-20.4-25.4-16.1-36.5 2-5.3 15-18.3 21.6-21.7 2.4-1.2 6.8-4 9.7-6.2 3-2.3 8-4.8 11.7-5.9 3.9-1.2 8.8-3.7 12.3-6.3 3.2-2.4 10.1-6.5 15.3-9.1s12-6.7 15-9c3-2.4 15.2-9.1 27-15s24-12.7 27-15 7.1-5.1 9-6 6-3.7 9-6c3-2.4 9.8-6.4 15-9s12-6.7 15-9c3-2.4 9.8-6.4 15-9s12-6.7 15-9c3-2.4 15.2-9.1 27-15s24-12.7 27-15 12.5-7.8 21-12 18-9.7 21-12 12.5-7.8 21-12 18-9.7 21-12 9.8-6.4 15-9 12-6.7 15-9c3-2.4 9.8-6.4 15-9s12-6.7 15-9c3-2.4 9.8-6.4 15-9s12-6.7 15-9c3-2.4 12.5-7.8 21-12s18-9.7 21-12 9.8-6.4 15-9 12-6.7 15-9c3-2.4 12.5-7.8 21-12s18-9.7 21-12 12.5-7.8 21-12 18-9.7 21-12 9.8-6.4 15-9 12-6.7 15-9c3-2.4 12.5-7.8 21-12a190 190 0 0 0 30-18c1.9-1 6-3.7 9-6 3-2.4 9.8-6.4 15-9s12-6.7 15-9c3-2.4 15.2-9.1 27-15s24-12.7 27-15 12.5-7.8 21-12 18-9.7 21-12 15.2-9.1 27-15 24-12.7 27-15c5.7-4.5 23.6-13.9 30.5-16.1 7.4-2.3 63.7-1.8 70.5.7M953.5 718c4.3 2 7.1 2.4 21 2.9 15.8.6 16.1.7 23.7 4.3 23.1 11 35.4 41.4 19.2 47.3l-10.9 4a74 74 0 0 1-9.4 3c-1.8.4-5.3 1.6-7.6 2.6a55 55 0 0 1-11.7 2.9 50 50 0 0 0-12.3 3.2c-7 3.2-21.6 3.3-29 .2-5.5-2.4-17.9-6.6-26.5-9-3-.9-7.5-2.4-10-3.4l-9.4-3.5c-6.3-2.3-7.6-5.3-7.6-17.4 0-15.5 1.5-17.3 24.5-28.9 24.7-12.4 33.6-14 46-8.2m68.2 78.2c4.4 4.1 2 10.9-4.4 12.4-1.6.3-8.2 3.2-14.8 6.3-18.8 8.8-78.9 8.7-96.8-.2-14.7-7.3-18.3-11.7-14.4-17.1 2.1-2.9 8-2 23.7 3.6 3 1.1 7.8 2.6 10.5 3.3 2.8.8 7.9 2.6 11.5 4.1 9.1 3.7 19 3.7 28 0 3.6-1.5 8.8-3 11.5-3.3 4.9-.5 22.7-5.8 31.5-9.4q9.2-3.7 13.7.3M906 835.3c10.5 5.2 10.5 5.2 48 5.2s37.5 0 48-5.2c11.7-5.9 16-6.6 19.7-3.1 6.2 5.8-.1 17-10.2 18.2-6.9.9-12 2.1-18.9 4.6-9.3 3.4-66.6 2.7-74.1-.9-4-1.9-7.4-2.5-17-3.1-16-.9-19.7-3.5-18.1-12.8 1.5-9.6 7.6-10.4 22.6-2.9m12 39.2c5.9 2.5 6 2.5 39 2.5s33.1 0 39-2.5c9.8-4.1 19.8-2.9 18.8 2.3-.5 2.3-14.9 8.1-24.3 9.7-4.4.7-10.2 2.4-13 3.6-4.6 2.2-6.3 2.4-20.5 2.4s-15.9-.2-20.5-2.4a65 65 0 0 0-13.2-3.6c-14.3-2.4-25.4-10-19.5-13.4 2.9-1.7 8-1.2 14.2 1.4m472.5-394.1c-16 5.2-44.9 31.2-47 42.3-.4 2.1-2 7.4-3.7 11.8l-4.1 10.8a27 27 0 0 1-8.1 8.1 71 71 0 0 0-19.9 21.2c-3 6-6.8 9.9-12.2 12.6-2.2 1.2-6.5 4-9.5 6.3-3 2.4-12.5 7.8-21 12s-18 9.7-21 12-7.5 5.3-10 6.5c-6.8 3.4-26.3 23.4-27.8 28.6-3.4 11.5-1.3 16.4 12.7 30.4 19.5 19.3 46.9 29.4 63.6 23.5 3.9-1.4 10.2-3 14.2-3.5 13.2-1.7 44.4-18.3 57.3-30.5 8.7-8.2 10.7-9.6 15.7-11 3.2-.9 13.4-5.3 22.7-9.8 16.9-8.2 16.9-8.2 41.5-8.7 30.3-.6 35-2.3 51.3-17.8 5.2-5 12.2-10.5 15.4-12.3 32.9-18.3 33.1-55.3.4-73.6-7.6-4.2-9.9-7.1-12.1-14.8-2.2-7.9-4.3-10.6-19.2-25.3-18.5-18-22.8-19.6-52.2-19.9-16.7-.2-24.1.1-27 1.1m57.7 22.8c12.9 6.1 20.7 15.1 20.8 23.7 0 1.9.5 6 1.2 9.1 2.3 11.1-.8 13.9-16.2 15.1-6.7.5-11 1.4-14.5 3-7.6 3.6-39.4 3.6-47 .1a42 42 0 0 0-15.1-3.2c-17.1-1.3-21.2-6-16.5-19.2l3.1-9.7c2.2-8.1 13.8-17.7 26.4-21.7 10-3.2 49.2-1.3 57.8 2.8m54.2 61c2.3 3.2 2.3 21 0 23.2q-6.5 6.8-6.4-12.3c0-12.8 2.3-16.8 6.4-10.9m-30 7.3c3.7 3.7 3.7 37.2 0 42.2-5.4 7.3-11.4 8.7-38.4 9.3-24.5.5-24.5.5-41.5 8.7-29.2 14.2-29 14.4-29-26.9 0-30 0-30 2.5-32 3.6-2.9 18.1-2.2 26 1.3 8.3 3.7 39.6 3.7 48 0q5.5-2.4 14.5-3.1c14.7-1.1 16.3-1.1 17.9.5m-132.3 3.1c3.5 3.7 3.8 82.3.3 87.1-3.6 5-35.2 20.2-44.4 21.3-4.1.5-9.6 1.8-12.3 3a25 25 0 0 1-20.2 1.1c-3.3-1.2-9.1-3.1-12.8-4.2-27.6-8-35.2-29.5-14.3-40.1 2.3-1.1 6.6-4 9.6-6.3 3-2.4 12.5-7.8 21-12s18-9.7 21-12 7.5-5.3 9.9-6.5c5.6-2.8 22.1-18.7 27.2-26.2 5.8-8.5 10.4-10.1 15-5.2m222.9 76.1a483 483 0 0 0-65.9 32.1c-3.1 2.4-12.8 8-21.6 12.4a187 187 0 0 0-21.5 12.3c-3 2.4-9.8 6.4-15 9s-12 6.7-15 9c-3 2.4-9.8 6.4-15 9s-12 6.7-15 9c-3 2.4-12.5 7.8-21 12s-18 9.7-21 12-12.5 7.8-21 12a190 190 0 0 0-30 18c-1.9 1-6 3.7-9 6-3 2.4-12.5 7.8-21 12s-18 9.7-21 12-12.5 7.8-21 12-18 9.7-21 12-9.8 6.4-15 9-12 6.7-15 9c-3 2.4-15.2 9.1-27 15s-24 12.7-27 15-9.8 6.4-15 9-12 6.7-15 9c-3 2.4-9.8 6.4-15 9s-12 6.7-15 9c-3 2.4-7.1 5.1-9 6a96 96 0 0 0-8.7 5.7c-3 2.3-8 4.8-11.7 5.9a45 45 0 0 0-12.3 6.3c-3.2 2.4-10.1 6.5-15.3 9.1s-12 6.7-15 9c-3 2.4-9.8 6.4-15 9s-12 6.7-15 9c-3 2.4-15.2 9.1-27 15s-24 12.7-27 15-9.8 6.4-15 9-12 6.7-15 9c-3 2.4-9.8 6.4-15 9s-12 6.7-15 9c-3 2.4-7.1 5.1-9 6s-6 3.7-9 6c-3 2.4-15.2 9.1-27 15s-24 12.7-27 15-9.8 6.4-15 9-12 6.7-15 9c-3 2.4-15.2 9.1-27 15s-24 12.7-27 15-7.1 5.1-9 6-6 3.7-9 6c-3 2.4-7.5 5.3-10 6.5-6.9 3.4-26.3 23.4-27.8 28.6a80 80 0 0 0 0 26.8c1.6 5.5 20.9 25.2 28.6 29 3 1.5 8.2 5.4 11.7 8.6 7 6.5 9.9 8.2 16.5 10 2.5.6 7.4 3.1 11 5.5a81 81 0 0 0 42.8 12.5c9.2 0 13.5.5 18.4 2 7.9 2.5 9.7 2.5 17.6 0a50 50 0 0 1 12.5-2c12.4 0 68.1-23.9 83.6-35.8 3.1-2.4 10.1-6.7 15.6-9.4a126 126 0 0 0 15.5-9.3c3-2.4 9.8-6.4 15-9s12-6.7 15-9c3-2.4 9.8-6.4 15-9s12-6.7 15-9c3-2.4 12.5-7.8 21-12s18-9.7 21-12 9.8-6.4 15-9 12-6.7 15-9c3-2.4 9.7-6.4 14.9-9s11.8-6.5 14.7-8.7c3.1-2.3 8-4.8 11.8-5.9s8.8-3.7 12.3-6.3c3.2-2.4 7.4-5.1 9.3-6.1s6-3.7 9-6c3-2.4 9.8-6.4 15-9s12-6.7 15-9c3-2.4 12.5-7.8 21-12s18-9.7 21-12 9.8-6.4 15-9 12-6.7 15-9c3-2.4 12.5-7.8 21-12s18-9.7 21-12 9.8-6.4 15-9 12-6.7 15-9c3-2.4 9.8-6.4 15-9s12-6.7 15-9c3-2.4 15.2-9.1 27-15s24-12.7 27-15 9.8-6.4 15-9 12-6.7 15-9c3-2.4 9.8-6.4 15-9s12-6.7 15-9c3-2.4 12.5-7.8 21-12s18-9.7 21-12 9.8-6.4 15-9 12-6.7 15-9c3-2.4 12.5-7.8 21-12s18-9.7 21-12 9.8-6.4 15-9 12-6.7 15-9c3-2.4 12.5-7.8 21-12a190 190 0 0 0 30-18c1.9-1 6-3.7 9-6a63 63 0 0 1 22.7-11.4 44 44 0 0 0 13-6.5c3.2-2.4 10.3-6.6 15.8-9.4 15.2-7.6 18-10.6 27.2-28.5 10.2-20 10.6-24.8 3-39.3A139 139 0 0 0 1682 678c-2.5-1.2-7-4.1-10-6.5a80 80 0 0 0-23-12 91 91 0 0 1-9.5-2.9c-30.5-11.4-54.5-13.3-76.5-5.9m56.5 18.9a299 299 0 0 0 27.8 9.4 67 67 0 0 1 22.7 11.4c3 2.4 7.9 5.5 10.8 7.1 28.2 15.2 28 52.6-.4 69.1-2.7 1.5-7.5 4.7-10.6 7a33 33 0 0 1-11 5.4 80 80 0 0 0-24.8 12.5c-3 2.4-7.1 5.1-9 6s-6 3.7-9 6c-3 2.4-12.5 7.8-21 12s-18 9.7-21 12-9.8 6.4-15 9-12 6.7-15 9c-3 2.4-12.5 7.8-21 12s-18 9.7-21 12-9.8 6.4-15 9-12 6.7-15 9c-3 2.4-12.5 7.8-21 12s-18 9.7-21 12-9.8 6.4-15 9-12 6.7-15 9c-3 2.4-9.8 6.4-15 9s-12 6.7-15 9c-3 2.4-15.2 9.1-27 15s-24 12.7-27 15-9.8 6.4-15 9-12 6.7-15 9c-3 2.4-9.8 6.4-15 9s-12 6.7-15 9c-3 2.4-12.5 7.8-21 12s-18 9.7-21 12-9.8 6.4-15 9-12 6.7-15 9c-3 2.4-12.5 7.8-21 12s-18 9.7-21 12-9.8 6.4-15 9-12 6.7-15 9c-3 2.4-7.1 5.1-9 6a96 96 0 0 0-8.7 5.7c-3 2.3-8 4.8-11.7 5.9a45 45 0 0 0-12.3 6.3c-3.2 2.4-10.1 6.5-15.3 9.1s-12 6.7-15 9c-3 2.4-9.8 6.4-15 9s-12 6.7-15 9c-3 2.4-12.5 7.8-21 12s-18 9.7-21 12-9.8 6.4-15 9-12 6.7-15 9c-3 2.4-9.8 6.4-15 9s-12 6.7-15 9c-3 2.4-9.8 6.4-15 9s-12 6.7-15 9a424 424 0 0 1-58.7 29.5c-3.7 1-9.3 2.8-12.3 3.9-3.4 1.3-8.1 2-12.3 2.1-4.1 0-9 .8-12.4 2-7.2 2.5-9.4 2.5-16.6 0a50 50 0 0 0-18.4-2 50 50 0 0 1-18.3-2.1c-3-1.1-8.2-2.8-11.6-3.7-3.3-1-8.7-3.7-11.9-6a47 47 0 0 0-12.7-6.3 29 29 0 0 1-14-8.5 68 68 0 0 0-11.7-8.9c-9.8-5-12.1-9.5-12.1-23.5 0-13.8 2.3-18.5 11.5-23.2 2.2-1.2 6.5-4 9.5-6.3 3-2.4 7.1-5.1 9-6s6-3.7 9-6c3-2.4 15.2-9.1 27-15s24-12.7 27-15 9.8-6.4 15-9 12-6.7 15-9c3-2.4 15.2-9.1 27-15s24-12.7 27-15 7.1-5.1 9-6 6-3.7 9-6c3-2.4 9.8-6.4 15-9s12-6.7 15-9c3-2.4 9.8-6.4 15-9s12-6.7 15-9c3-2.4 15.2-9.1 27-15s24-12.7 27-15 9.8-6.4 15-9 12-6.7 15-9c3-2.4 9.7-6.4 14.9-9s11.8-6.5 14.7-8.7c3.1-2.3 8-4.8 11.8-5.9s8.8-3.7 12.3-6.3c3.2-2.4 7.4-5.1 9.3-6.1s6-3.7 9-6c3-2.4 9.8-6.4 15-9s12-6.7 15-9c3-2.4 9.8-6.4 15-9s12-6.7 15-9c3-2.4 15.2-9.1 27-15s24-12.7 27-15 9.8-6.4 15-9 12-6.7 15-9c3-2.4 12.5-7.8 21-12s18-9.7 21-12 12.5-7.8 21-12a190 190 0 0 0 30-18c1.9-1 6-3.7 9-6 3-2.4 12.5-7.8 21-12s18-9.7 21-12 12.5-7.8 21-12 18-9.7 21-12 9.8-6.4 15-9 12-6.7 15-9c3-2.4 9.8-6.4 15-9s12-6.7 15-9c3-2.4 12.5-7.8 21-12s18-9.7 21-12c6.9-5.4 49.6-26.8 58.7-29.5 3.7-1 9.3-2.8 12.3-4 8.2-3 42.9-2.6 50.5.6m-1003 320.8a570 570 0 0 0-56.6 29.1c-7.3 5.3-11.9 5.9-20.2 2.2-10.9-4.7-64-3.2-75.2 2.1-11.9 5.7-36.5 29.5-38.5 37.2-2.7 10.6-3.2 11.3-18.9 27.5-18.7 19.1-21.3 25.6-16.9 40.9 1.5 5.3 14.9 18.9 23 23.4a82 82 0 0 1 12.5 9.3c25.9 23.5 96.6 29.5 126.8 10.9 6.1-3.8 27.1-26.3 30.4-32.6A96 96 0 0 1 618 1108a125 125 0 0 0 16-9.5c3-2.4 12.5-7.8 21-12s18-9.7 21-12 7.5-5.3 9.9-6.5c6.8-3.4 14.7-11.9 16.1-17.1.6-2.4 2-6.9 3-10 2.8-7.9 2.6-11.8-.9-16.5-4.4-6-30.2-30.9-34.1-33-4.5-2.5-46.7-3.2-53.5-1m50 19.7c7.4 2.1 20.5 16.4 20.5 22.5q-.2 17.8-33.1 34.5c-9 4.5-18.9 10.1-21.9 12.4s-10.2 6.6-15.9 9.5a68 68 0 0 0-22.6 17.1c-21.2 20.6-22.5 19.2-22.5-24.5 0-26.8-.2-30-2-36-3.2-10.2-3.3-10.2 21.5-22.8 11.6-5.9 23-11.4 25.5-12.2 5.6-1.8 44.4-2.2 50.5-.5m-126.1 32.4c9.8 5 10.1 5.8 10.1 25.6 0 22.8.6 22.2-20.8 23-13.2.5-15.9.9-20.2 3a29 29 0 0 1-23 0c-4.4-2.1-7-2.5-21-3-16.8-.7-18.9-1.3-22.4-5.7-2.6-3.3-2.6-6.7-.2-13.6l3.1-9.7c2.2-8.1 13.8-17.7 26.4-21.7 9.3-3 61.2-1.4 68 2.1m-116.8 63.2c2.6 6 1.6 20.4-1.5 23.7-8.2 8.7-16.4-4.5-12.1-19.3 2.4-8.6 10.8-11.3 13.6-4.4m62.4 8.3c5 1.6 10.4 3 12 3s7-1.4 12-3c19.5-6.5 35.9-4.2 43.1 6l6.7 9.2c6.5 9-1.6 23.5-15.5 27.3-3.2.9-8 2.6-10.8 3.8-7.7 3.4-59.2 3.9-68.1.7l-12.4-4q-16.1-4.6-10.4-17.8c.9-2 1.9-7.9 2.3-12.9 1.1-14 2.6-15.1 20.3-15.2 10.5-.1 12.7.2 20.8 2.9"/></g></svg>