<svg xmlns="http://www.w3.org/2000/svg" width="2560" height="2560" viewBox="0 0 1920 1920"><g fill="#f97316"><path d="M766.5 240.4c-7.5 2.4-39 18.8-44.5 23.1-3 2.4-12.5 7.8-21 12a190 190 0 0 0-30 18c-1.9 1-6 3.7-9 6-3 2.4-7.1 5.1-9 6s-6 3.7-9 6c-3 2.4-7.1 5.1-9 6s-6 3.7-9 6c-3 2.4-12.5 7.8-21 12a190 190 0 0 0-30 18c-1.9 1-6 3.7-9 6-3 2.4-7 5-8.9 6-1.8.9-5.9 3.6-9.1 5.9a36 36 0 0 1-10.6 5.5c-6.8 1.7-9.9 3.6-17 10.1a86 86 0 0 1-22.6 14.1 192 192 0 0 0-21.8 12.4c-3 2.4-9.8 6.4-15 9s-12 6.7-15 9c-3 2.4-10 6.6-15.6 9.3-7.1 3.5-12.3 7-17.2 11.6a89 89 0 0 1-23.4 14.7 192 192 0 0 0-21.8 12.4c-3 2.4-9.8 6.4-15 9s-12 6.7-15 9c-3 2.4-7.1 5.1-9 6s-6 3.7-9 6c-3 2.4-9.8 6.4-15 9s-12 6.7-15 9c-3 2.4-9.8 6.4-15 9s-12 6.7-15 9c-3 2.4-7.1 5.1-9 6s-6 3.7-9 6c-3 2.4-9.8 6.4-15 9s-12 6.7-15 9c-3 2.4-9.8 6.4-15 9s-12 6.7-15 9c-3 2.4-9.8 6.4-15 9s-12 6.7-15 9c-3 2.4-12.5 7.8-21 12s-18 9.7-21 12-10 6.6-15.6 9.3a69 69 0 0 0-17.2 11.6 69 69 0 0 1-12.2 9.1 77 77 0 0 0-21.7 20.3c-1.5 3.1-1.9 7-2.3 25.2-.5 20.1-.7 21.9-3 27-2.5 5.5-2.5 5.5-2.5 132.5 0 150.1-3 132.7 28.8 164.2 18.7 18.5 19.5 19.2 29.7 24.3 5.8 2.8 13 7.1 16 9.5 3 2.3 9.8 6.4 15 9s12 6.6 15 9c3 2.3 9.8 6.4 15 9s12 6.6 15 9c3 2.3 7.1 5 9 6s6 3.6 9 6c3 2.3 9.8 6.4 15 9s12 6.6 15 9c3 2.3 9.8 6.4 15 9s12 6.6 15 9c3 2.3 10.1 6.6 15.8 9.4a74 74 0 0 1 17.4 11.7 69 69 0 0 0 17.2 11.6c5.6 2.7 12.6 6.9 15.6 9.3 3 2.3 9.8 6.4 15 9s12 6.6 15 9c3 2.3 9.8 6.4 15 9s12 6.6 15 9c3 2.3 7.1 5 9 6s6 3.6 9 6c3 2.3 9.8 6.4 15 9s12 6.6 15 9c3 2.3 9.8 6.4 15 9s12 6.6 15 9c3 2.3 7.1 5 9 6s6 3.6 9 6c3 2.3 10 6.5 15.5 9.3 5.5 2.7 12.5 7 15.6 9.4 16 12.4 47.7 23.8 66.1 23.8 17.5 0 40.8-7.7 53.7-17.8 3.1-2.4 12.8-8 21.6-12.4a187 187 0 0 0 21.5-12.3c3-2.4 7.1-5.1 9-6s6-3.7 9-6c3-2.4 12.5-7.8 21-12a190 190 0 0 0 30-18c1.9-1 6-3.7 9-6 3-2.4 7.1-5.1 9-6s6-3.7 9-6c3-2.4 9.8-6.4 15-9s12-6.7 15-9c3-2.4 9.8-6.4 15-9s12-6.7 15-9c3-2.4 9.8-6.4 15-9s12-6.7 15-9c3-2.4 7.1-5.1 9-6s6-3.7 9-6c3-2.4 9.8-6.4 15-9s12-6.7 15-9c3-2.4 7.1-5.1 9-6s6-3.7 9-6c3-2.4 12.5-7.8 21-12a190 190 0 0 0 30-18c1.9-1 6-3.7 9-6 3-2.4 9.8-6.4 15-9s12-6.7 15-9c3-2.4 9.8-6.4 15-9s12-6.7 15-9c3-2.4 9.8-6.4 15-9s12-6.7 15-9c3-2.4 9.8-6.4 15-9s12-6.7 15-9c3-2.4 7.1-5.1 9-6s6-3.7 9-6c3-2.4 9.8-6.4 15-9s12-6.7 15-9c3-2.4 7.1-5.1 9-6s6-3.7 9-6c3-2.4 9.8-6.4 15-9s12-6.7 15-9c3-2.4 9.8-6.4 15-9s12-6.7 15-9c3-2.4 9.8-6.4 15-9s12-6.7 15-9c3-2.4 7.1-5.1 9-6s6-3.7 9-6c3-2.4 7.1-5.1 9-6a33 33 0 0 0 18.4-22.2c1.3-4.3 3.1-9.7 4-12.1 1.7-4.5 1.8-271.6.1-285.2-.3-3-.2-7.4.3-9.8 1.1-4.5.6-7.4-2.7-16.2-1.1-3-2.5-7.5-3.2-9.9-1.9-7.9-20.5-25.5-33.9-32.1-5.8-2.9-13-7.1-16-9.5-3-2.3-9.8-6.4-15-9s-12-6.6-15-9c-3-2.3-10.1-6.6-15.8-9.4a74 74 0 0 1-17.4-11.7 69 69 0 0 0-17.2-11.6c-5.6-2.7-12.6-6.9-15.6-9.3-3-2.3-12.5-7.7-21-12s-18-9.6-21-12c-3-2.3-7.1-5-9-6s-6-3.6-9-6c-3-2.3-7.1-5-9-6s-6-3.6-9-6c-3-2.3-9.8-6.4-15-9s-12-6.6-15-9c-3-2.3-9.8-6.4-15-9s-12-6.6-15-9c-3-2.3-9.8-6.4-15-9s-12-6.6-15-9c-3-2.3-7.1-5-9-6s-6-3.6-9-6c-3-2.3-9.8-6.4-15-9s-12-6.6-15-9c-3-2.3-7.1-5-9-6s-6-3.6-9-6c-3-2.3-7.1-5-9-6s-6-3.6-9-6c-3-2.3-12.5-7.7-21-12s-18-9.6-21-12c-3-2.3-7.3-5.1-9.5-6.3-2.2-1.1-6.5-4-9.6-6.4-3.1-2.3-14.3-8.6-24.9-13.8-20.8-10.2-33.5-12.6-45.5-8.6m45.8 28.8a213 213 0 0 1 22.9 12.7c1.8 1.6 6.2 4.6 9.8 6.6a77 77 0 0 1 9.8 6.7c1.8 1.6 10.9 6.6 20 11.2s18.7 10 21.2 12.1c2.4 2 6.5 4.7 9.2 6.1s6.2 3.7 8 5.3 6.2 4.6 9.8 6.6a77 77 0 0 1 9.8 6.7 89 89 0 0 0 14 8.2 109 109 0 0 1 15.2 9.1c2.4 2 6.5 4.7 9 6s6.6 4 8.9 5.9 9.2 6.1 15.2 9.2 12.8 7.1 15 9c2.3 1.9 9 5.9 15 9s12.8 7.2 15.1 9.1 9.1 5.9 15 8.9a88 88 0 0 1 14 8.3c1.8 1.6 6.2 4.6 9.8 6.6a77 77 0 0 1 9.8 6.7c1.8 1.5 5.4 3.9 8 5.2 2.7 1.4 6.8 4.1 9.2 6.1 2.5 2.1 11.9 7.4 21 12s18.6 10 21 12 9.3 6.1 15.2 9.1a74 74 0 0 1 18 12c5 4.6 10.2 8.1 17.7 11.9a99 99 0 0 1 15.1 9c2.4 2 8.9 5.9 14.5 8.7a105 105 0 0 1 15.5 9.3c3 2.3 9.8 6.4 15 9 12 6 15.6 9.3 17.6 16.5.8 3 2.4 7.6 3.5 10.2 4 9.7 2 14.5-6.8 17.1a81 81 0 0 0-23.3 12.2c-2.4 2-6.5 4.7-9 6s-6.6 4-9 6-9.2 6.1-15 9-12.6 7-15 9-6.5 4.7-9 6-6.6 4-9 6-9.2 6.1-15 9-12.6 7-15 9-9.2 6.1-15 9-12.6 7-15 9-9.3 6.2-15.3 9.2a67 67 0 0 0-17.7 11.8 82 82 0 0 1-23.7 14.8 181 181 0 0 0-21.1 12c-2.3 1.9-9.1 6-15.1 9.1s-12.8 7.2-15.2 9.2-9.1 6-14.9 8.9-12.6 7-15 9a109 109 0 0 1-15.2 9.1 89 89 0 0 0-14 8.2 87 87 0 0 1-10.4 7 45 45 0 0 0-8.4 5.7c-.7.9-4.2 3.2-7.7 5.1-3.5 2-8.2 5.2-10.5 7.1a104 104 0 0 1-14.8 8.8c-5.8 2.9-12.6 7-15 9s-9.2 6.1-15 9-12.6 7-15 9-6.5 4.7-9 6-6.6 4-9 6-9.2 6.1-15 9-12.6 7-15 9-9.2 6.1-15 9-12.6 7-15 9-9.2 6.1-15 9-12.6 7-15 9-9.2 6.1-15 9-12.6 7-15 9-6.5 4.7-9.2 6.1a50 50 0 0 0-8 5.2 77 77 0 0 1-9.8 6.7c-3.6 2-8 5-9.8 6.6s-10.9 6.7-20 11.3-18.7 10-21.2 12.1c-2.4 2-6.5 4.7-9 6s-6.6 4-9.1 6.1a109 109 0 0 1-38 17.3c-4.1.6-9.7 2-12.5 3.1a24 24 0 0 1-19.9 1 72 72 0 0 0-18.7-4.5c-3.5-.5-6.3-1.8-10.5-4.9-3.2-2.4-10.4-6.7-16.1-9.6s-12.1-6.8-14.4-8.6a105 105 0 0 0-14.9-9c-6-3.1-12.8-7.2-15.1-9.1a61 61 0 0 0-8.8-5.8c-2.5-1.3-6.6-4-9-6s-9.2-6.1-15-9-12.5-6.9-14.9-8.9-9.2-6.1-15.2-9.2-12.7-7.1-14.9-8.9a92 92 0 0 0-10.3-6.9c-3.5-1.9-7-4.2-7.7-5.1s-4.5-3.5-8.4-5.7a87 87 0 0 1-10.4-7 89 89 0 0 0-14-8.2 109 109 0 0 1-15.2-9.1c-2.4-2-9.2-6.1-15-9s-12.6-7-15-9-9.2-6.1-15-9-12.6-7-15-9-9.2-6.1-15-9-12.6-7-15-9-6.5-4.7-9.2-6.1a44 44 0 0 1-8-5.3 68 68 0 0 0-9.8-6.6 77 77 0 0 1-9.8-6.7c-1.8-1.6-11-6.7-20.4-11.4a86 86 0 0 1-23.7-14.8c-4.8-4.5-10-8-17.9-12.1-6.2-3.1-13.1-7.3-15.4-9.2a99 99 0 0 0-14.3-8.5c-5.5-2.8-12.4-6.9-15.4-9.2s-9.3-6.2-14-8.7c-16.2-8.7-18.5-23.4-5.3-33.1 3.2-2.3 8.2-6.5 11.3-9.4q5.5-5.2 16.5-10.7c6-3 13-7.2 15.4-9.2s11.9-7.4 21-12 18.5-9.9 20.8-11.8 9.1-6 15.1-9.1 12.8-7.2 15.2-9.2 9.1-6 14.9-8.9 12.6-7 15-9 9.3-6.1 15.2-9.1a89 89 0 0 0 14-8.2 77 77 0 0 1 9.8-6.7c3.6-2 7.9-5 9.6-6.5 1.7-1.4 8.1-5.2 14.1-8.3s12.9-7.2 15.2-9.1 9-5.9 15-9 12.8-7.2 15.2-9.2 6.4-4.6 8.9-5.9 6.6-4 9-6 9.2-6.1 15-9 12.6-7 15-9 12-7.5 21.3-12.2a82 82 0 0 0 23.7-14.8c4.9-4.6 9.8-7.9 17.7-11.8 6-3 12.9-7.2 15.3-9.2s9.2-6.1 15-9 12.6-7 15-9 12-7.5 21.3-12.2a82 82 0 0 0 23.7-14.8c6.3-5.9 13.3-9.5 18.5-9.5.7 0 4.3-2.3 8.1-5.1s8.6-6 10.6-7c2.1-1.1 5.2-3.2 7-4.7a77 77 0 0 1 9.8-6.7c3.6-2 8-5 9.8-6.6a156 156 0 0 1 20.2-11.4 160 160 0 0 0 30-18c3.6-2 8-5 9.8-6.6s5.4-4 8-5.3c2.7-1.4 6.8-4.1 9.2-6.1s6.5-4.7 9-6 6.6-4 9-6c2.5-2.1 11.9-7.4 21-12s18.5-9.9 20.8-11.9c4.4-3.6 32.7-18.4 41.7-21.8 12.6-4.7 24.8-2.5 46.8 8.4m467.8 341.4c2.4 2.6 2.4 2.6 2.4 134.4 0 131.7 0 131.7-4.4 140.3a42 42 0 0 1-18.2 19.7 92 92 0 0 0-9.9 6.5c-3 2.4-9.8 6.4-15 9s-12 6.7-15 9c-3 2.4-9.8 6.4-15 9s-12 6.7-15 9c-3 2.4-9.8 6.4-15 9s-12 6.7-15 9c-3 2.4-7.1 5.1-9 6s-6 3.7-9 6c-3 2.4-9.8 6.4-15 9s-12 6.7-15 9c-3 2.4-7.1 5.1-9 6s-6 3.7-9 6c-3 2.4-9.8 6.4-15 9s-12 6.7-15 9c-3 2.4-9.8 6.4-15 9s-12 6.7-15 9c-3 2.4-9.8 6.4-15 9s-12 6.7-15 9c-3 2.4-9.8 6.4-15 9s-12 6.7-15 9c-3 2.4-7.1 5.1-9 6s-6 3.7-9 6c-3 2.4-12.5 7.8-21 12a190 190 0 0 0-30 18c-1.9 1-6 3.7-9 6-3 2.4-9.8 6.4-15 9s-12 6.7-15 9c-3 2.4-7.1 5.1-9 6s-6 3.7-9 6c-3 2.4-9.8 6.4-15 9s-12 6.7-15 9c-3 2.4-9.8 6.4-15 9s-12 6.7-15 9c-3 2.4-9.8 6.4-15 9s-12 6.7-15 9c-3 2.4-7.1 5.1-9 6s-6 3.7-9 6c-3 2.4-7.1 5.1-9 6s-6 3.7-9 6c-3 2.4-12.5 7.8-21 12a190 190 0 0 0-30 18c-1.9 1-6 3.7-9 6-3 2.4-12.5 7.8-21 12s-18 9.7-21 12a63 63 0 0 1-22.7 11.4c-3.7 1-8.5 2.6-10.5 3.5q-8.5 3.6-12.9-1c-3.5-3.8-3.9-276.3-.3-281 3.6-4.9 6.6-6.4 14.6-7.4a117 117 0 0 0 39.8-18.5c3-2.4 7.1-5.1 9-6s6-3.7 9-6c3-2.4 12.5-7.8 21-12a190 190 0 0 0 30-18c1.9-1 6-3.7 9-6 3-2.4 7.1-5.1 9-6s6-3.7 9-6c3-2.4 9.8-6.4 15-9s12-6.7 15-9c3-2.4 9.8-6.4 15-9s12-6.7 15-9c3-2.4 9.8-6.4 15-9s12-6.7 15-9c3-2.4 9.8-6.4 15-9s12-6.7 15-9c3-2.4 7.1-5.1 9-6s6-3.7 9-6c3-2.4 9.8-6.4 15-9s12-6.7 15-9c3-2.4 9.8-6.4 15-9s12-6.7 15-9c3-2.4 7.1-5.1 9-6s6-3.7 9-6c3-2.4 7.1-5.1 9-6s6-3.7 9-6c3-2.4 9.8-6.4 15-9s12-6.7 15-9c3-2.4 9.8-6.4 15-9s12-6.7 15-9c3-2.4 9.8-6.4 15-9s12-6.7 15-9c3-2.4 12.7-7.9 21.6-12.3 13-6.5 17.4-9.3 23.2-14.6 5-4.6 10.3-8.1 17.4-11.7 5.7-2.8 12.8-7.1 15.8-9.4s9.8-6.4 15-9 12-6.7 15-9c3-2.4 9.8-6.4 15-9s12-6.7 15-9c3-2.4 7.1-5.1 9-6s6-3.7 9-6c3-2.4 9.8-6.4 15-9s12-6.7 15-9c3-2.4 7.1-5.1 9-6s6-3.7 9-6.1c12-9.4 23.6-12.6 28.1-7.8M74.7 737.6c3.2 1.4 8.3 4.4 11.3 6.8s9.8 6.5 15 9.1 12 6.6 15 9c3 2.3 10.1 6.6 15.8 9.4a74 74 0 0 1 17.4 11.7 86 86 0 0 0 23.2 14.6c8.9 4.4 18.6 9.9 21.6 12.3 3 2.3 7.1 5 9 6s6 3.6 9 6c3 2.3 7.1 5 9 6s6 3.6 9 6c3 2.3 9.8 6.4 15 9s12 6.6 15 9c3 2.3 9.8 6.4 15 9s12 6.6 15 9c3 2.3 9.8 6.4 15 9s12 6.6 15 9c3 2.3 9.8 6.4 15 9s12 6.6 15 9c3 2.3 7.1 5 9 6s6 3.6 9 6c3 2.3 7.1 5 9 6s6 3.6 9 6c3 2.3 9.8 6.4 15 9s12 6.6 15 9c3 2.3 9.8 6.4 15 9s12 6.6 15 9c3 2.3 7.1 5 9 6s6 3.6 9 6c3 2.3 9.8 6.4 15 9s12 6.6 15 9c3 2.3 9.8 6.4 15 9s11.8 6.5 14.6 8.6q9 6.8 15.2 6.9c5.4 0 9.3 2.1 10.8 5.6 1.8 4.4 2.1 272.1.3 277.3-2.8 7.9-29.9-.2-47.9-14.3-3-2.4-9.8-6.5-15-9.1s-12-6.6-15-9c-3-2.3-7.1-5-9-6s-6-3.6-9-6c-3-2.3-9.8-6.4-15-9s-12-6.6-15-9c-3-2.3-9.8-6.4-15-9s-12-6.6-15-9c-3-2.3-7.1-5-9-6s-6-3.6-9-6c-3-2.3-9.8-6.4-15-9s-12-6.6-15-9c-3-2.3-9.8-6.4-15-9s-12-6.6-15-9c-3-2.3-10.1-6.6-15.8-9.4a74 74 0 0 1-17.4-11.7 69 69 0 0 0-17.2-11.6c-5.6-2.7-12.6-6.9-15.6-9.3-3-2.3-9.8-6.4-15-9s-12-6.6-15-9c-3-2.3-9.8-6.4-15-9s-12-6.6-15-9c-3-2.3-7.1-5-9-6s-6-3.6-9-6c-3-2.3-9.8-6.4-15-9s-12-6.6-15-9c-3-2.3-9.8-6.4-15-9s-12-6.6-15-8.9-10.5-6.8-16.5-9.9a63 63 0 0 1-21.7-16.5c-19.9-20.1-18.3-6.9-18.6-149.7-.3-135.2-.5-130.4 4.3-135.2 4.1-4.1 7.3-4.2 15.2-.7"/><path d="M755 281.9c-5.1 1.6-16.7 8-20.8 11.4-2.3 1.9-9.1 6-15.1 9.1s-12.8 7.2-15.2 9.2a62 62 0 0 1-8.9 5.9c-2.5 1.3-6.6 4-9 6s-6.5 4.7-9 6-6.6 4-9 6-9.2 6.1-15 9a104 104 0 0 0-14.8 8.8c-2.3 1.9-9.1 6-15.1 9.1s-12.8 7.2-15.2 9.2-9.1 6-14.9 8.9a104 104 0 0 0-14.8 8.8c-2.3 1.9-9.1 6-15.1 9.1s-12.8 7.2-15.2 9.2a62 62 0 0 1-8.9 5.9 61 61 0 0 0-8.8 5.8c-2.3 1.9-9.1 6-15.1 9.1s-12.8 7.2-15.2 9.2-9.1 6-14.9 8.9-12.6 7-15 9-9.2 6.1-15 9-12.6 7-15 9-8.9 5.9-14.5 8.7-12.2 6.7-15 8.8c-2.7 2.1-7.5 5.3-10.5 7s-7 4.5-8.8 6.1a88 88 0 0 1-14 8.3 109 109 0 0 0-15.2 9.1c-2.4 2-6.5 4.7-9 6s-6.6 4-9 6c-2.5 2.1-11.9 7.4-21 12s-18.5 9.9-20.8 11.8a109 109 0 0 1-15.2 9.2c-6.1 3.1-12.5 6.9-14.3 8.4a100 100 0 0 1-10.3 6.9 45 45 0 0 0-8.4 5.7c-.7.9-4.2 3.2-7.7 5.1-3.5 2-8.2 5.2-10.5 7.1a104 104 0 0 1-14.8 8.8c-5.8 2.9-12.6 7-15 9s-11.9 7.4-21 12-18.5 9.9-20.8 11.8-9.1 6-15.1 9.1-12.8 7.2-15.2 9.2a65 65 0 0 1-9.3 6.1c-7.6 3.8-27.1 23.7-28.6 29.1-2.4 9.2 8.4 23.8 24.1 32.5 3.6 2 7.2 4.3 7.9 5.2s4.3 3.3 7.9 5.5c3.6 2.1 8.4 5.2 10.6 7s8.7 5.6 14.5 8.5 12.5 6.9 14.9 8.9 9.2 6.1 15.2 9.2 12.8 7.2 15.1 9.1 9 5.9 14.8 8.8 12.6 7 15 9 6.5 4.7 9 6 6.6 4 9 6 9.2 6.1 15 9 12.6 7 15 9 9.2 6.1 15 9 12.6 7 15 9a87 87 0 0 0 26.3 13c5.1 1.4 7 2.7 15.5 10.8 5.5 5.3 12.6 10.9 16.3 13 3.6 2 7.2 4.3 7.9 5.2s4.5 3.5 8.4 5.7 8.6 5.4 10.4 7 10.9 6.6 20 11.2a170 170 0 0 1 21.2 12.1c2.4 2 9.3 6.2 15.3 9.2a67 67 0 0 1 17.6 11.7c4.8 4.5 10 8 17.9 12.1 6.2 3.1 13.1 7.3 15.4 9.2s13.3 8.1 24.3 13.7c29 14.7 38 14.7 67 0 11-5.6 22.1-11.9 24.5-13.9s9.2-6.1 15-9 12.6-7 15-9 12-7.5 21.3-12.2a82 82 0 0 0 23.7-14.8c4.9-4.6 9.8-7.9 17.7-11.8 6-3 12.9-7.2 15.3-9.2s9.2-6.1 15-9 12.6-7 15-9 9.2-6.1 15-9 12.6-7 15-9 9.2-6.1 15-9 12.6-7 15-9 6.5-4.7 9-6 6.6-4 9-6 9.2-6.1 15-9 12.6-7 15-9 9.2-6.1 15-9 12.6-7 15-9 9.3-6.1 15.2-9.1a89 89 0 0 0 14-8.2c1.8-1.6 6.5-4.7 10.4-7s7.7-4.8 8.4-5.7 4.2-3.2 7.7-5.1c3.5-2 8.2-5.2 10.5-7.1s6.3-4.6 9-5.9c2.6-1.3 9.3-6.7 14.8-11.9 8.7-8.2 10.7-9.7 15.7-11 3.2-.9 7.8-2.5 10.3-3.5s7.1-2.5 10.2-3.4 7.6-3.1 10-4.9 7.3-5 10.8-7.1a77 77 0 0 0 9.8-6.7c1.8-1.6 5.2-3.8 7.5-5a84 84 0 0 0 9.3-6c5.1-3.9 7.2-4.9 15.1-6.9 3-.8 6.4-3 11.7-8a72 72 0 0 1 18.3-12.4c6-3 12.9-7.1 15.3-9.1s9.2-6.1 15-9 12.6-7 15-9 6.5-4.7 9-6 6.6-4 9-6 9.2-6.1 15-9 12.6-7 15-9 6.6-4.8 9.3-6.1c10.6-5.4 27.7-24.1 27.7-30.4 0-8.3-22.8-30.9-39.6-39.3-6-3-13-7.2-15.4-9.2a109 109 0 0 0-15.2-9.1 74 74 0 0 1-18-12c-5-4.6-10.2-8.1-17.7-11.9a99 99 0 0 1-15.1-9c-2.4-2-6-4.5-7.9-5.5s-6.7-4.1-10.5-6.9a38 38 0 0 0-8.1-5.1c-5.2 0-12.2-3.6-18.5-9.5a68 68 0 0 0-17.8-11.9c-6.1-3.1-12.6-6.9-14.4-8.5a68 68 0 0 0-9.8-6.6 88 88 0 0 1-9.7-6.6c-1.8-1.5-8.2-5.3-14.3-8.4a109 109 0 0 1-15.2-9.2c-2.3-1.9-11.7-7.2-20.8-11.8s-18.5-9.9-21-12c-2.4-2-6.5-4.7-9.2-6.1a44 44 0 0 1-8-5.3 68 68 0 0 0-9.8-6.6 77 77 0 0 1-9.8-6.7 89 89 0 0 0-14-8.2 109 109 0 0 1-15.2-9.1c-2.4-2-9.2-6.1-15-9a104 104 0 0 1-14.8-8.8c-2.3-1.9-7-5.1-10.5-7.1-3.5-1.9-7-4.2-7.7-5.1s-4.5-3.5-8.4-5.7a87 87 0 0 1-10.4-7c-11-9.4-17.9-11.3-43.7-11.5-13.2-.1-25.1.2-26.5.6m56.6 23.1a69 69 0 0 1 12.4 7.4c3 2.4 7.1 5.1 9 6.1s6 3.6 9 6c3 2.3 7.1 5 9 6s6 3.6 9 6c3 2.3 9.8 6.4 15 9s12 6.6 15 9c3 2.3 9.8 6.4 15 9s12 6.6 15 9c3 2.3 7.1 5 9 6s6 3.6 9 6c3 2.3 7.1 5 9 6s6 3.6 9 6c3 2.3 12.5 7.7 21 12s18 9.6 21 12c3 2.3 9.8 6.4 15 9s12 6.6 15 9c3 2.3 7.1 5 9 6s6 3.6 9 6c3 2.3 10.1 6.6 15.8 9.4q10.4 5.2 16.7 11.1c7 6.5 10.1 8.4 16.9 10.1a36 36 0 0 1 10.6 5.5c3.2 2.3 7.3 5 9.1 5.9 1.9 1 5.9 3.6 8.9 6 3 2.3 10.1 6.6 15.8 9.4a74 74 0 0 1 17.4 11.7 69 69 0 0 0 17.2 11.6 111 111 0 0 1 15.6 9.2c3 2.4 10.5 6.9 16.7 10 22.4 11.4 26.3 21.8 11.5 30.3-2.6 1.5-7.2 4.6-10.2 6.9s-9.8 6.3-15 8.9-12 6.7-15 9c-3 2.4-7.1 5.1-9 6s-6 3.7-9 6c-3 2.4-9.8 6.4-15 9s-12 6.7-15 9c-3 2.4-10 6.6-15.6 9.3a69 69 0 0 0-17.2 11.6c-6 5.4-8.2 6.8-14.1 8.6a42 42 0 0 0-12.8 6.4 89 89 0 0 1-9.3 6.1c-1.9 1-6 3.7-9 6-3 2.4-7 5-8.9 6-1.8.9-6 3.6-9.2 6a33 33 0 0 1-11.1 5.5c-2.9.7-7.1 2.1-9.3 3.1-8.8 4-13.5 2.7-23.9-6.8a68 68 0 0 0-16-10.4c-5.5-2.8-12.6-7-15.6-9.4-3-2.3-7.1-5-9-6s-6-3.6-9-6a192 192 0 0 0-21.8-12.4 89 89 0 0 1-23.4-14.7 67 67 0 0 0-17.2-11.6c-5.6-2.7-12.6-6.9-15.6-9.3-3-2.3-9.8-6.4-15-9s-12-6.6-15-9c-3-2.3-9.8-6.4-15-9-13.8-6.9-27.6-17.6-29-22.3-2.3-7.9-.8-260.6 1.5-263.2 4.4-4.9 11.3-4.9 22.1 0m-47.5-.4c2.4 2.6 2.4 2.6 2.4 136.4 0 154.9 1.6 136.4-12.7 144-4.7 2.5-10.9 6.4-13.9 8.6-3 2.3-9.7 6.3-14.9 8.9s-12 6.7-15 9c-3 2.4-9.8 6.4-15 9s-12 6.7-15 9c-3 2.4-7.1 5.1-9 6s-6 3.7-9 6c-3 2.4-9.8 6.4-15 9s-12 6.7-15 9c-3 2.4-9.8 6.4-15 9s-12 6.7-15 9c-3 2.4-9.8 6.4-15 9s-12 6.7-15 9c-3 2.4-7 5-8.9 6-1.8.9-5.9 3.6-9.1 5.9a36 36 0 0 1-10.6 5.5c-6.8 1.7-9.9 3.6-16.9 10.1q-6.3 6-16.7 11.1c-5.7 2.8-12.8 7.1-15.8 9.4s-9.8 6.4-15 9-12 6.7-15 9c-3 2.4-9.8 6.4-15 9s-12 6.7-15 9c-3 2.4-9.8 6.4-15 9s-12 6.7-15 9c-3 2.4-10 6.6-15.6 9.3a69 69 0 0 0-17.2 11.6c-3.9 3.6-9 7.5-11.2 8.6a89 89 0 0 0-10.2 6.6c-9.4 6.9-19.7 5.1-33.8-6-3-2.4-9.8-6.5-15-9.1s-12-6.6-15-9c-3-2.3-9.8-6.4-15-9s-12-6.6-15-9c-3-2.3-7.1-5-9-6s-6-3.6-9-6c-3-2.3-9.8-6.4-15-9s-12-6.6-15-9c-3-2.3-9.8-6.4-15-9s-12-6.6-15-9c-3-2.3-9.8-6.4-15-9s-12-6.6-15-9c-3-2.3-7.1-5-9-6a121 121 0 0 1-22.4-17.1c-2.4-6.2 1.7-13.5 9.8-17.6 2.3-1.1 6.6-4 9.6-6.3 3-2.4 9.8-6.4 15-9s12-6.7 15-9c3-2.4 12.5-7.8 21-12s18-9.7 21-12 9.8-6.4 15-9 12-6.7 15-9c3-2.4 7.1-5.1 9-6s6-3.7 9-6c3-2.4 7.1-5.1 9-6s6-3.7 9-6c3-2.4 9.8-6.4 15-9s12-6.7 15-9c3-2.4 12.5-7.8 21-12a190 190 0 0 0 30-18c1.9-1 6-3.7 9-6 3-2.4 9.8-6.4 15-9s12-6.7 15-9c3-2.4 7.1-5.1 9-6s6-3.7 9-6c3-2.4 9.8-6.4 15-9s12-6.7 15-9c3-2.4 9.8-6.4 15-9s12-6.7 15-9c3-2.4 9.8-6.4 15-9s12-6.7 15-9c3-2.4 9.8-6.4 15-9s12-6.7 15-9c3-2.4 7.1-5.1 9-6s6-3.7 9-6c3-2.4 9.8-6.4 15-9s12-6.7 15-9c3-2.4 9.8-6.4 15-9s12-6.7 15-9c3-2.4 9.8-6.4 15-9s12-6.7 15-9c3-2.4 9.8-6.4 15-9s12-6.7 15-9c3-2.4 7.1-5.1 9-6s6-3.7 9-6c3-2.4 7.1-5.1 9-6s6-3.7 9-6c3-2.4 9.8-6.4 15-9s12-6.7 15-9.1c12-9.4 23.6-12.6 28.1-7.8m34.7 295.2c3.1 2.3 10.2 6.5 15.7 9.3s12.5 7 15.5 9.4c3 2.3 9.8 6.4 15 9s12 6.6 15 9c3 2.3 10.1 6.6 15.8 9.4a74 74 0 0 1 17.4 11.7 86 86 0 0 0 23.2 14.6c8.9 4.4 18.6 9.9 21.6 12.3 3 2.3 7.1 5 9 6s6 3.6 9 5.9 7.7 5.5 10.3 7c17.1 9.8 19.2 19.6 5.9 27.3-2.6 1.5-7.2 4.6-10.2 6.9s-7.1 5-9 5.9-6 3.7-9 6c-3 2.4-7.1 5.1-9 6s-6 3.7-9 6c-3 2.4-9.8 6.4-15 9s-12 6.7-15 9c-3 2.4-9.8 6.4-15 9s-12 6.7-15 9c-3 2.4-9.8 6.4-15 9s-12 6.7-15 9c-3 2.4-7.1 5.1-9 6s-6 3.7-9 6c-3 2.4-9.8 6.4-15 9s-12 6.7-15 9c-3 2.4-9.8 6.4-15 9s-12 6.7-15 9c-3 2.4-9.8 6.4-15 9s-12 6.7-15 9c-3 2.4-10 6.6-15.6 9.3-7.1 3.5-12.3 7-17.2 11.6a89 89 0 0 1-23.4 14.7 192 192 0 0 0-21.8 12.4 104 104 0 0 1-14.9 9c-5.2 2.6-12.2 6.8-15.5 9.3-16 12.2-41.8 22.7-55.6 22.7s-39.6-10.5-55.6-22.7c-3.4-2.5-10.7-6.9-16.3-9.7-7-3.6-12.3-7.1-17.3-11.7a69 69 0 0 0-17.2-11.6c-5.6-2.7-12.6-6.9-15.6-9.3-3-2.3-12.5-7.7-21-12s-18-9.6-21-12c-3-2.3-7.1-5-9-6s-6-3.6-9-5.9-7.6-5.4-10.2-6.9c-15.3-8.8-8-23.5 18.2-36.7a125 125 0 0 0 16-9.5c3-2.4 9.8-6.4 15-9s12-6.7 15-9c3-2.4 9.8-6.4 15-9s12-6.7 15-9c3-2.4 9.8-6.4 15-9s12-6.7 15-9c3-2.4 10-6.6 15.6-9.3a69 69 0 0 0 17.2-11.6c6-5.4 8.2-6.8 14.1-8.6 4.4-1.3 9.1-3.6 12.8-6.4 3.2-2.4 7.4-5.1 9.3-6.1s6-3.7 9-6c3-2.4 9.8-6.4 15-9s12-6.7 15-9c3-2.4 9.8-6.4 15-9s12-6.7 15-9c3-2.4 9.8-6.4 15-9s12-6.7 15-9c3-2.4 7.1-5.1 9-6s6-3.7 9-6c3-2.4 9.8-6.4 15-9s12-6.7 15-9c3-2.4 9.8-6.4 15-9s12-6.7 15-9c5.6-4.4 23.3-13.8 30.5-16.1a32 32 0 0 1 26.3 3.4m687.9 234.6c-2 .7-6.1 3.2-9 5.4-2.8 2.2-12.2 7.5-20.7 11.7-8.5 4.3-18 9.7-21 12s-12.7 7.9-21.6 12.3a86 86 0 0 0-23.2 14.6c-3.9 3.6-9 7.5-11.4 8.7a77 77 0 0 0-9.8 6.4c-3 2.4-12.5 7.8-21 12s-18 9.7-21 12-7.5 5.3-10 6.5c-7.2 3.5-44.3 41.3-45.8 46.6-1.7 5.9-1.7 362.9 0 368.8 2.3 8.3 44.8 49.2 57.8 55.6 5.8 2.9 13 7.1 16 9.5 3 2.3 9.8 6.4 15 9s12 6.6 15 9c3 2.3 7.1 5 9 6s6 3.6 9 6c3 2.3 9.8 6.4 15 9s12 6.6 15 9c3 2.3 9.8 6.4 15 9s12 6.6 15 9c3 2.3 7.1 5 9 6s6 3.6 9 6c3 2.3 9.8 6.4 15 9s12 6.6 15 9c3 2.3 9.8 6.4 15 9s12 6.6 15.1 9a78 78 0 0 0 42.3 12.3c11.5-.4 41.2-13.3 54.5-23.6 3.1-2.4 10.1-6.7 15.6-9.4a126 126 0 0 0 15.5-9.3c3-2.4 9.8-6.4 15-9s12-6.7 15-9c3-2.4 9.8-6.4 15-9s12-6.7 15-9c3-2.4 9.8-6.4 15-9s12-6.7 15-9c3-2.4 7.5-5.3 10-6.5 7.5-3.8 26.4-23.5 28-29.2a47 47 0 0 0-1.9-25 50 50 0 0 1-3.1-12.3c-1.4-11-11.4-23.6-23.2-29.6-2.4-1.2-6.8-4-9.8-6.4-3-2.3-7.1-5-9-6s-6-3.6-9-6c-3-2.3-9.8-6.4-15-9s-12-6.6-15-9c-3-2.3-7.1-5-9-6s-6-3.6-9-6c-3-2.3-9.8-6.4-15-9s-12-6.6-15-9c-3-2.3-10.1-6.6-15.8-9.4a74 74 0 0 1-17.4-11.7 69 69 0 0 0-17.2-11.6c-5.6-2.7-12.6-6.9-15.6-9.3-3-2.3-10.1-6.6-15.8-9.4-22.6-11.3-22.6-11.4-23.2-53.6-.6-33.6-.6-34.1-3-39a42 42 0 0 1 0-29.5c2.5-5.5 2.5-5.5 2.5-108.5 0-112.7.3-109.2-11.3-122.7a94 94 0 0 1-7-10.3c-11.5-19.9-31.3-32.7-43.5-28.1m17.2 21.4c8 5.8 6.1 10.7-6.7 17.5a89 89 0 0 0-16.2 11.2 29 29 0 0 1-13.9 8.5 42 42 0 0 0-12.8 6.4 89 89 0 0 1-9.3 6.1c-1.9 1-6 3.7-9 6-3 2.4-9.8 6.4-15 9s-12 6.7-15 9c-3 2.4-9.8 6.4-15 9s-12 6.7-15 9c-3 2.4-10.2 6.6-16 9.5-12.9 6.4-49.7 41.5-51.9 49.5-1.4 5.3-1.5 309.4-.1 314.5a30 30 0 0 0 5 8.4c2.2 2.6 5.4 7.4 7.1 10.6 4.1 7.7 33.1 36.6 40.5 40.3 2.7 1.4 7 4.2 9.4 6.2s8.9 5.9 14.5 8.7a105 105 0 0 1 15.5 9.3c3 2.3 9.8 6.4 15 9s12 6.6 15 9c3 2.3 9.8 6.4 15 9s12 6.6 15 9c3 2.3 7.1 5 9 6s6 3.6 9 6c3 2.3 9.8 6.4 15 9s12 6.6 15 9c3 2.3 9.8 6.4 15 9s12 6.6 15 9c3 2.3 7 5 8.7 5.9 9.2 4.7 13.6 12.2 11.3 19.2-2.1 6.4-13.1 5.6-23-1.6-3-2.2-10-6.3-15.5-9.1s-12.5-7-15.5-9.4c-3-2.3-9.8-6.4-15-9s-12-6.6-15-9c-3-2.3-7.1-5-9-6s-6-3.6-9-6c-3-2.3-9.8-6.4-15-9s-12-6.6-15-9c-3-2.3-9.8-6.4-15-9s-12-6.6-15-9c-3-2.3-7.3-5.2-9.6-6.3s-6-3.7-8.4-5.7-8.9-5.9-14.5-8.7a105 105 0 0 1-15.5-9.3 125 125 0 0 0-16-9.5c-11.8-5.9-35.2-27.1-39.1-35.5-2.9-6.2-2.9-364.7 0-371A122 122 0 0 1 1320 955c2.5-1.3 7-4.2 10-6.5 3-2.4 12.5-7.8 21-12s18-9.7 21-12 7.4-5.2 9.6-6.4c2.3-1.1 7.4-5 11.3-8.5a86 86 0 0 1 23.3-14.7 192 192 0 0 0 21.8-12.4c3-2.4 12.4-7.8 20.9-12s17.8-9.5 20.7-11.7c8.3-6.2 18.3-7.5 24.3-3m20.6 32.5c4.7 4.7 4.6 3.4 4.3 86.4-.3 74.1-.3 74.1-2.7 76.7-3.4 3.6-8 3.4-17-.9-17.3-8.3-26.6 2.2-10.3 11.8 3.2 1.9 7.8 4.9 10.3 6.8s7.3 4.5 10.8 5.8c9.8 3.6 12.2 15 6 29.1-3.5 8-3.5 22.2.1 30 2.5 5.4 2.5 6 2.8 35.5.5 42.5.8 41.4-17.1 50.6-5.6 2.9-12.7 7.1-15.7 9.5-3 2.3-12.5 7.7-21 11.9a190 190 0 0 0-30 18c-1.9 1-6 3.7-9 6-3 2.4-9.8 6.4-15 9s-12 6.7-15 9c-3 2.4-7.1 5.1-9 6s-6 3.7-9 6.1c-8.2 6.4-49.3 26.4-54.2 26.4-7.3 0-6.8 11.2-6.8-159.7 0-177.4-1.8-155.4 14.1-170.9 9-8.8 11.8-10.9 20.9-15.4a125 125 0 0 0 16-9.5c3-2.4 9.8-6.4 15-9s12-6.7 15-9c3-2.4 9.8-6.4 15-9s12-6.7 15-9c3-2.4 7-5 8.9-6 1.8-.9 5.9-3.6 9.1-5.9a36 36 0 0 1 10.6-5.5c6.8-1.7 9.9-3.6 17.1-10.3 4.8-4.5 9.5-7.4 18.6-11.9 14.5-7 17.5-7.3 22.2-2.6m30.3 347.5c3.1 2.3 10.2 6.5 15.7 9.3s12.5 7 15.5 9.4c3 2.3 10.1 6.6 15.8 9.4a74 74 0 0 1 17.4 11.7 69 69 0 0 0 17.2 11.6c5.6 2.7 12.6 6.9 15.6 9.3 3 2.3 9.8 6.4 15 9s12 6.6 15 9c3 2.3 7.1 5 9 6s6 3.6 9 6c3 2.3 9.8 6.4 15 9s12 6.6 15 9c3 2.3 7.1 5 9 6a91 91 0 0 1 21.4 16.8q1.2 5.2-6.9 10.4l-11 7.6c-3.3 2.5-10.3 6.6-15.5 9.2s-12 6.7-15 9c-3 2.4-9.8 6.4-15 9s-12 6.7-15 9c-3 2.4-9.8 6.4-15 9s-12 6.7-15 9a104 104 0 0 1-14.9 9c-5.2 2.6-12.2 6.8-15.5 9.3-9.2 7-47.3 25.5-52.4 25.5-5.3 0-20.5-7.2-28.8-13.5-3.4-2.5-10.3-6.7-15.5-9.3a104 104 0 0 1-14.9-9c-3-2.3-9.8-6.4-15-9s-12-6.6-15-9c-3-2.3-7.1-5-9-6s-6-3.6-9-6c-3-2.3-9.8-6.4-15-9s-12-6.6-15-9c-3-2.3-9.8-6.4-15-9s-12-6.6-15-9c-3-2.3-9.8-6.4-15-9s-12-6.6-15-8.9-7.9-5.5-10.7-7.1c-7.4-4-16.3-13.4-16.3-17.4 0-4.1 2.9-6.1 23-16.1a203 203 0 0 0 31-18.5c1.9-1 6-3.7 9-6 3-2.4 9.8-6.4 15-9s12-6.7 15-9c3-2.4 7.1-5.1 9-6s6-3.7 9-6c3-2.4 12.5-7.8 21-12s18-9.7 21-12c5.6-4.4 23.3-13.8 30.5-16.1a32 32 0 0 1 26.3 3.4m212.8 163.9c3.3 7.8-.9 16.9-10 21.5-2.3 1.1-6.6 4-9.6 6.3-3 2.4-9.8 6.4-15 9s-12 6.7-15 9c-3 2.4-9.8 6.4-15 9s-12 6.7-15 9c-3 2.4-9.8 6.4-15 9s-12 6.7-15 9c-3 2.4-9.8 6.4-15 9s-12 6.7-15 9.1c-7.9 6.2-37.4 20.4-42.3 20.4s-7.3-4.6-6.2-11.7 4.8-10.3 22.8-19.4c8.9-4.5 18.7-10.1 21.7-12.4s9.8-6.4 15-9 12-6.7 15-9c3-2.4 9.8-6.4 15-9s12-6.7 15-9c3-2.4 9.8-6.4 15-9s12-6.7 15-9c3-2.4 9.8-6.4 15-9s11.4-6.3 13.8-8.2c11.7-9.5 22.2-11.9 24.8-5.6"/><path d="M1427.9 980.9c-11.6 7.4-28.9 34.4-28.9 45 0 14.4 25.5 24.5 40.1 15.9 17.8-10.4 25.9-40.7 14.6-54.3-7.8-9.5-17.4-12-25.8-6.6m9.8 24.4c2.7 8.2-2.7 17.7-10 17.7-6.5 0-7.3-3.8-2.6-12.6 5.6-10.8 10.2-12.6 12.6-5.1m199 127.5a6 6 0 0 0 4.5 10.2c5.1 0 7.8-6.9 4-10.3-2.4-2.2-6.5-2.1-8.5.1m84 48c-5.7 6.3 5 19.1 23.7 28.3 5.5 2.8 12.6 7 15.6 9.3s7.6 5.4 10.1 6.9c9.9 5.7 15.8 16.6 16.9 31.5.9 12.1 1.7 14 8.9 21.6 3.2 3.3 7.6 9.2 9.9 13.1 12.3 21.3 31.2 32.7 42.3 25.6 12.6-8.1 17.9-16.5 18.9-30.4.9-11.4 1.9-13.4 9.6-18.4 24.6-16 25.9-23.7 7.5-42.6-9.4-9.7-13.8-12.7-22.1-15.1a38 38 0 0 1-10.8-5.5c-10.6-8-20.8-7.3-45.7 3.3-12.7 5.4-29.2 2.1-43.1-8.6-3.4-2.5-10.3-6.7-15.4-9.3s-11.5-6.2-14.3-8.1q-8.3-5.7-12-1.6m119.7 40.8c2.4 2.3 1.2 23.2-1.6 29.1-8.2 17.6-29.4 19-31.8 2.2-.5-3.6-1.6-8.2-2.5-10.2-3.5-8.5-.3-14.6 9.3-17.3 3.2-.8 7.7-2.4 10.2-3.4 5.6-2.4 14.2-2.6 16.4-.4m32.1 14.9c3.5 3.4 3.3 7.8-.4 11.6-5 5-9.6 3.5-10.7-3.3-1.5-8.9 5.4-14.1 11.1-8.3m-28.7 45.8c4.4 4.6 3.7 14-1.3 16.7-5.9 3.1-15.5-2.4-15.5-8.9 0-7.9 11.6-13.3 16.8-7.8"/></g></svg>