<svg xmlns="http://www.w3.org/2000/svg" width="2560" height="2560" viewBox="0 0 1920 1920"><path fill="#f97316" d="M525.5 252.6a130 130 0 0 1-20 5.3c-7.9 1.5-20.1 5.9-31.5 11.2a115 115 0 0 1-15.5 6c-2.7.7-8.9 3.2-13.7 5.5a114 114 0 0 1-15.5 6.4 214 214 0 0 0-33.3 12.1 115 115 0 0 1-15.5 6c-2.7.7-8.9 3.2-13.7 5.5-4.8 2.4-11.8 5.2-15.5 6.3-3.8 1-10.5 3.7-15 6s-11.2 4.9-15 6-10.5 3.7-15 6-11.2 4.9-15 6-10.5 3.7-15 6-11.2 5-15 6.1c-26.3 7.7-47.7 17.7-57.5 26.8-7.9 7.4-9.1 8-18 9.2a50 50 0 0 0-12 3c-2.6 1.1-8 2.5-12.2 3-20.4 2.6-50.2 28.7-64.4 56.5-7.7 15-7.7 15-8 326.7-.2 284-.1 312.1 1.4 316l4 11.8 5 15.5c3.5 11 9.4 23.2 13.7 28.3 2 2.4 5.1 7 6.8 10.2 3.9 7.3 33.1 36.6 39.9 40 2.5 1.2 7 4.1 10 6.5 3 2.3 9.8 6.4 15 9s12 6.6 15 9c3 2.3 12.5 7.7 21 12s18 9.6 21 12c3 2.3 12.5 7.7 21 12s18 9.6 21 12c3 2.3 7.1 5 9 6s6 3.6 9 6c3 2.3 20.6 11.8 39 21a503 503 0 0 1 39 20.9c3 2.4 12.8 8 21.7 12.5 18.2 9.2 21.7 12.2 22.9 19.6 1 6.7 0 14.2-2.3 17.3-2.6 3.5-43.5 24.5-52.3 26.8-29.8 7.9-46.2 31.7-46.8 67.8-.5 28.9-3.3 23.7 31.2 58.2 22.2 22.2 30.5 29.9 35.1 32.4 3.3 1.8 8.5 5.6 11.5 8.5 10.4 9.8 2.5 9 85.8 9.3 87.6.3 82.9 1 94.2-14.8 3.8-5.3 5.5-6.8 9.6-8.4 17.3-6.5 20.2-8.4 35.8-23.6 18.7-18.3 20.1-20.1 23-29.6 1.3-4.4 3.1-9.7 4-11.9 4.2-11 1.8-33.7-4.5-42-4.5-6-5.9-9.4-5.9-14.3 0-12.9-5.9-18.6-32.6-32a204 204 0 0 0-25.1-11.1 39 39 0 0 1-11.2-5.6 76 76 0 0 0-12.2-6.5c-8-2.9-8.9-4.9-8.9-20.9 0-9.2-.5-13.4-2-18.5-1.8-5.7-1.9-7-.8-9.3 1.6-3.3 18.3-12.4 28.3-15.2 14.3-4.2 23.3-7.4 33.5-12.2 5.8-2.6 12.8-5.4 15.5-6 2.8-.7 8.9-3.2 13.7-5.5a100 100 0 0 1 15.5-6.2c9.5-2.7 43.7-20 49.4-25.1 11-9.6 14.4-20 14.2-42.4-.4-30.7-.4-33.2-.1-41.5.5-13.8-13.6-34.9-28.4-42.3-2.4-1.1-6.8-4-9.8-6.4-3-2.3-7.1-5-9-6s-6-3.6-9-6c-3-2.3-17.9-10.4-33-18s-30-15.6-33-18a170 170 0 0 0-36.9-18.5c-11.7-2.8-14.1-7.6-14.1-28.8 0-20.9.1-21 15.5-24 2.8-.5 7.5-1.9 10.5-3 5.9-2.2 11.3-4 23-7.8l15.5-5a92 92 0 0 0 27.4-13.2c3.1-2.4 7.7-5.5 10.3-6.8 12.5-6.4 22.4-18.8 23.8-29.9a50 50 0 0 1 3.1-12.3 44 44 0 0 0 1-27.7c-2.6-7.4-2.6-9.6 0-17 10.8-30.7-10.8-61.3-60.9-86.4-23.7-11.9-27.1-13.3-33.8-14.1-4.2-.5-9.6-2-12.2-3.2-4.1-1.9-7-2.2-23.7-2.8-17-.5-19.5-.8-24-2.9a42 42 0 0 0-14.3-3c-15.8-1.3-14.6 2.6-15-52.4-.3-50.3-.1-53.2 4.5-54.4 6.7-1.6 32.6 8.9 44.3 18.1a244 244 0 0 0 27 15.1c11.8 5.9 24 12.6 27 15 3 2.3 9.8 6.4 15 9s12 6.6 15 9c3 2.3 12.5 7.7 21 12s18 9.6 21 12c3 2.3 7.1 5 9 6s6 3.6 9 6c3 2.3 12.5 7.7 21 12s18 9.6 21 12c3 2.3 12.5 7.7 21 12s18 9.6 21 12c3 2.3 12.5 7.7 21 12s18 9.6 21 12c3 2.3 12.5 7.7 21 12s18 9.6 21 12c3 2.3 9.8 6.4 15 9s12 6.6 15 9c3 2.3 12.5 7.7 21 12s18 9.6 21 12c3 2.3 12.5 7.7 21 12s18 9.6 21 12c3 2.3 12.5 7.7 21 12s18 9.6 21 12c3 2.3 12.5 7.7 21 12s18 9.6 21 12c3 2.3 9.8 6.4 15 9s12 6.6 15 9c3 2.3 9.8 6.4 15 9s12 6.6 15 9c3 2.3 9.8 6.4 15 9s12 6.6 15 9c3 2.3 15.2 9.1 27 15s24 12.6 27 15c3 2.3 9.8 6.4 15 9s12.1 6.7 15.3 9.1a44 44 0 0 0 13 6.5c4 1.2 11 4 15.7 6.4a80 80 0 0 0 12 5 91 91 0 0 1 9.5 2.9c21.9 8.2 27.6 9.6 39.9 9.6 7.5 0 14 .6 18.1 1.6 6 1.5 7 1.5 13 0 3.5-.9 9-1.6 12.1-1.6q8.3 0 33.9-9.6a91 91 0 0 1 9.5-2.9 79 79 0 0 0 23-12.1c10.4-8.1 30-16.7 39.4-17.2 7.8-.4 19.1-3.4 36.1-9.8a91 91 0 0 1 9.5-2.9c1.9-.4 7.4-2.7 12.2-5.1a100 100 0 0 1 15.5-6.2c3.7-1.1 13.2-5.1 21-9.1 7.8-3.9 17.3-8 21-9.1 8.9-2.6 21.3-6.7 28.8-9.5 3.3-1.3 7.6-2.6 9.5-3a160 160 0 0 0 18.2-8.1c8.1-4.1 17.8-8.3 21.5-9.4a211 211 0 0 0 39.3-15.1c9.1-4.3 19-8.5 22-9.3 14.2-3.9 23.4-7.7 47.5-19.4 26-12.7 26-12.7 47.7-34.1 23.7-23.4 26-26.1 27.7-33.7 1.2-5.2 2.6-7.6 7.4-13.7 1.5-1.9 3.7-6.7 4.7-10.6 1.1-4 5.4-13.9 9.5-22.2 6.4-12.7 7.7-16.2 8.5-22.5.5-4.2 2-9.6 3.2-12.2 3.1-6.3 4.2-162.4 1.3-170.4-3.1-8.5-4.4-12.4-5.5-16.6-2.4-9.4-22.5-27.3-34.5-30.7a61 61 0 0 1-27-16.6c-10.8-10.2-10.1-9.8-25.5-14.9-17.3-5.7-25-4.2-57 11.1-9.1 4.3-19 8.5-22 9.3a196 196 0 0 0-32 11.7 115 115 0 0 1-15.5 6c-2.7.7-8.9 3.2-13.7 5.5-4.8 2.4-11.8 5.2-15.5 6.3-3.8 1-10.5 3.7-15 6s-11.2 4.9-15 6-10.5 3.7-15 6-11.2 4.9-15 6-10.5 3.7-15 6-11.2 4.9-15 5.9c-34.6 9.6-81.3 48-97.9 80.4-8.2 16.1-11.9 20.4-16.3 19.3a275 275 0 0 1-41.1-20.9c-3-2.4-12.5-7.8-21-12.1s-18-9.6-21-12c-3-2.3-12.5-7.7-21-12s-18-9.6-21-12c-3-2.3-12.5-7.7-21-12s-18-9.6-21-12c-3-2.3-9.8-6.4-15-9s-12-6.6-15-9c-3-2.3-15.2-9.1-27-15a249 249 0 0 1-36-21 190 190 0 0 0-30-18c-8.5-4.2-18-9.6-21-12-3-2.3-9.8-6.4-15-9s-12-6.6-15-9c-3-2.3-15.2-9.1-27-15s-24-12.6-27-15c-3-2.3-12.5-7.7-21-12s-18-9.6-21-12c-3-2.3-9.8-6.4-15-9s-12-6.6-15-9c-3-2.3-12.5-7.7-21-12s-18-9.6-21-12c-3-2.3-12.5-7.7-21-12s-18-9.6-21-12c-3-2.3-12.5-7.7-21-12s-18-9.6-21-12c-3-2.3-12.5-7.7-21-12s-18-9.6-21-12c-3-2.3-7.1-5-9-6s-6-3.6-9-6c-3-2.3-9.8-6.4-15-9s-12-6.6-15-9c-3-2.3-15.2-9.1-27-15s-24-12.6-27-15c-3-2.3-12.5-7.7-21-12s-18-9.6-21-12c-10.6-8.2-66.9-35.4-75.6-36.5-4.2-.5-9.6-2-12.2-3.2a67 67 0 0 0-32.7-1.2m32 21.2c2.8 1.3 8.4 2.7 12.5 3.2 8.9 1.1 62.2 26.6 73.6 35.2 3.4 2.6 13.1 8.1 21.5 12.3s17.9 9.6 20.9 12c3 2.3 15.2 9.1 27 15s24 12.6 27 15c3 2.3 9.8 6.4 15 9s12 6.6 15 9c3 2.3 7.1 5 9 6s6 3.6 9 6c3 2.3 12.5 7.7 21 12s18 9.6 21 12c3 2.3 12.5 7.7 21 12s18 9.6 21 12c3 2.3 12.5 7.7 21 12s18 9.6 21 12c3 2.3 12.5 7.7 21 12s18 9.6 21 12c3 2.3 9.8 6.4 15 9s12 6.6 15 9c3 2.3 12.5 7.7 21 12s18 9.6 21 12c3 2.3 15.2 9.1 27 15s24 12.6 27 15c3 2.3 9.8 6.4 15 9s12 6.6 15 9c3 2.3 12.5 7.7 21 12s18 9.6 21 12c3 2.3 7.1 5 9 6s6 3.6 9 6c3 2.3 15.2 9.1 27 15s24 12.6 27 15c3 2.3 9.8 6.4 15 9s12 6.6 15 9c3 2.3 12.5 7.7 21 12s18 9.6 21 12c3 2.3 12.5 7.7 21 12s18 9.6 21 12c3 2.3 12.5 7.7 21 12s18 9.6 21 12c3 2.3 12.3 7.7 20.7 11.8 16.9 8.5 21.8 12.2 23.3 17.5 2.5 8.5.8 120-1.8 125.7a42 42 0 0 0-3.2 15.1 47 47 0 0 1-2.9 15 53 53 0 0 0-3.1 12.2c-.5 4-1.8 9.4-2.9 12a107 107 0 0 0-3.6 10.5c-1.3 4.6-2.9 7.2-8.6 13.4a32 32 0 0 0-8.5 12.9c-2.1 7.4-4.2 9.6-14.1 14.8-4.9 2.6-11.3 6.5-14.4 8.7-5.5 4-6 4.1-16 4.9-7.5.6-11.8 1.4-15.4 3.1a25 25 0 0 1-11.5 2.3c-4.7 0-7.9-.6-11.5-2.3a46 46 0 0 0-15-3.1 58 58 0 0 1-15-2.7c-5.7-2.3-17.7-6.4-27.8-9.3a65 65 0 0 1-22.7-11.5c-3-2.3-12.5-7.7-21-12s-18-9.6-21-12c-3-2.3-12.5-7.7-21-12s-18-9.6-21-12c-3-2.3-7.1-5-9-6s-6-3.6-9-6c-3-2.3-9.8-6.4-15-9s-12-6.6-15-9c-3-2.3-20.9-11.9-39.8-21.4-31.1-15.6-34.8-17.7-41.4-23.7-6.1-5.6-10.2-8.1-29.2-17.6a240 240 0 0 1-36.6-21.3 190 190 0 0 0-30-18c-8.5-4.2-18-9.6-21-12-3-2.3-12.5-7.7-21-12s-18-9.6-21-12c-3-2.3-15.2-9.1-27-15s-24-12.6-27-15c-3-2.3-12.5-7.7-21-12s-18-9.6-21-12c-3-2.3-12.5-7.7-21-12s-18-9.6-21-12c-3-2.3-9.8-6.4-15-9s-12-6.6-15-9c-3-2.3-7.1-5-9-6s-6-3.6-9-6c-3-2.3-12.5-7.7-21-12s-18-9.6-21-12c-3-2.3-15.2-9.1-27-15s-24-12.6-27-15c-3-2.3-9.8-6.4-15-9s-12-6.6-15-9c-3-2.3-12.5-7.7-21-12s-18-9.6-21-12c-3-2.3-12.5-7.7-21-12s-18-9.6-21-12c-3-2.3-9.8-6.4-15-9s-12-6.6-15-9c-3-2.3-15.2-9.1-27-15s-24-12.6-27-15c-3-2.3-12.5-7.7-21-12s-18-9.6-21-12c-3-2.3-12.5-7.7-21-12s-18-9.6-21-12c-3-2.3-7.1-5-9-6s-6.1-3.7-9.3-6.1a46 46 0 0 0-12.2-6.3c-3.6-1-8.8-3.6-11.6-5.7a226 226 0 0 0-21.8-12.4c-18.5-9.5-20.9-11.7-18.1-16.8 1.9-3.4 22.3-14.2 32.5-17.1 14.4-4.2 23.3-7.4 33.5-12.2 5.8-2.6 12.8-5.4 15.5-6 2.8-.7 8.9-3.2 13.7-5.5 4.8-2.4 11.8-5.2 15.5-6.3 3.8-1 10.5-3.7 15-6s11.2-4.9 15-6 10.5-3.7 15-6 11.2-4.9 15-6 10.5-3.7 15-6 11.2-5 15-6.1c14.7-4.3 23.2-7.4 33.3-12.1 5.8-2.6 12.8-5.4 15.5-6 2.8-.7 8.9-3.2 13.7-5.5 4.8-2.4 11.7-5.3 15.5-6.3 3.7-1.1 9.3-2.9 12.3-4s7.1-2 9-2.1c3.7 0 6-.6 15-4a58 58 0 0 1 32.5.8M192.3 410.1c2.4.6 6.5 3.5 10.9 7.5a85 85 0 0 0 23.2 14.6c8.9 4.4 18.7 10 21.9 12.4 3.5 2.6 8.4 5.1 12.3 6.3 3.7 1.1 8.7 3.6 11.7 5.9a96 96 0 0 0 8.7 5.7 190 190 0 0 0 30 18c8.5 4.2 18 9.6 21 12 3 2.3 12.5 7.7 21 12s18 9.6 21 12c3 2.3 15.2 9.1 27 15s24 12.6 27 15c3 2.3 9.8 6.4 15 9s12 6.6 15 9c3 2.3 12.5 7.7 21 12s18 9.6 21 12c3 2.3 12.5 7.7 21 12s18 9.6 21 12c3 2.3 9.8 6.4 15 9s12 6.6 15 9c3 2.3 15.2 9.1 27 15s24 12.6 27 15c3 2.3 12.5 7.7 21 12s18 9.6 21 12c3 2.3 7.1 5 9 6s6 3.6 9 6c3 2.3 9.8 6.4 15 9s12 6.6 15 9c3 2.3 12.5 7.7 21 12s18 9.6 21 12c3 2.3 12.5 7.7 21 12s18 9.6 21 12c3 2.3 15.2 9.1 27 15s24 12.6 27 15c3 2.3 12.5 7.7 21 12s18 9.6 21 12c3 2.3 12.5 7.7 21 12s18 9.6 21 12c3 2.3 7.1 5 9 6s6 3.6 9 6c3 2.3 15.5 9.3 27.8 15.4 19.1 9.6 23.2 12 29.4 17.7 6.5 6 10.2 8.1 41.2 23.6a452 452 0 0 1 39.6 21.3c3 2.3 9.8 6.4 15 9s12 6.6 15 9c3 2.3 7.1 5 9 6s6 3.6 9 6c3 2.3 12.5 7.7 21 12s18 9.6 21 12c3 2.3 12.5 7.7 21 12s18 9.6 21 12a80 80 0 0 0 23 12 91 91 0 0 1 9.5 2.9c17.6 6.6 28.3 9.6 34.3 9.6q6.2 0 15.2 3c11.2 3.7 12.8 3.7 24 0 6.3-2.1 11-3 15.5-3 7.6 0 12-1.6 18.9-6.9 2.8-2.1 9.8-6.2 15.6-9.1 13.1-6.5 26.1-18.6 28-26.1 2.4-9.4 3.5-11.6 8.4-16.9 8.2-8.9 8.6-9.4 10.7-17 1.1-4 2.6-8.5 3.5-10.1s1.9-6.3 2.4-10.5c.5-4.1 1.9-9.6 3.1-12.2a47 47 0 0 0 2.9-14.8c.5-7.3 1.4-11.3 3.1-15 2.4-4.9 2.4-4.9 2.9-71.9.5-62.4.6-67.3 2.3-71a71 71 0 0 0 3.8-10.9c9.8-34.7 46.3-68.6 85.6-79.5 3.8-1 10.5-3.7 15-6s11.2-4.9 15-6 10.5-3.7 15-6 11.2-4.9 15-6 10.5-3.7 15-6 11.2-4.9 15-6 10.5-3.7 15-6 11.2-4.9 15-6 10.5-3.7 15-6 11.2-5 15-6.1a211 211 0 0 0 39.3-15.1 214 214 0 0 1 33-12.8 22 22 0 0 1 18 0l10.3 3.5c17.5 5.5 5.8 20.5-21.9 28.2-3.8 1.1-10.6 3.8-15.1 6.1s-11.2 4.9-15 6-10.5 3.7-15 6-11.2 5-15 6.1a113 113 0 0 0-31.3 12.5 43 43 0 0 1-11.4 5.6 95 95 0 0 0-9.9 3.3c-2.1.9-7.1 2.1-11.2 2.6-6.5.8-10 2.2-28.4 11.5a299 299 0 0 1-27.8 12.4c-20.8 5.7-31.7 13.2-60.1 41.5-31.4 31.1-31.7 31.5-34.3 40.7a60 60 0 0 1-3.7 10.3c-1.5 2.8-1.7 9.1-2.2 67.1-.5 64-.5 64-2.9 69-2.1 4.4-2.5 7-3.1 21-.5 13.7-.9 16.7-2.9 21a45 45 0 0 0-3.1 15 58 58 0 0 1-2.7 15c-2.3 5.7-6.3 17.7-9.3 27.8-1.1 3.8-3.9 10.5-6.1 15-2.3 4.5-5 11.3-6.1 15-3.5 13-8.7 20.8-16.7 25.4-2.5 1.5-7.1 4.6-10.1 6.9a67 67 0 0 1-22.7 11.4c-10.1 2.9-22.1 7-27.8 9.2a55 55 0 0 1-14.5 2.8c-5.2.4-11.4 1.3-13.8 1.9-3.2.9-5.2.9-8 0-2-.6-10.9-1.4-19.7-1.8a64 64 0 0 1-21-2.8c-5.5-2.3-17.3-6.2-27.8-9.3a114 114 0 0 1-15.5-6.4 86 86 0 0 0-14-5.6c-3.3-.7-7.5-2.9-11.2-5.6a139 139 0 0 0-15.2-9 99 99 0 0 1-14.8-8.9c-3-2.3-15.2-9.1-27-15s-24-12.6-27-15c-3-2.3-9.8-6.4-15-9s-12-6.6-15-9c-3-2.3-9.8-6.4-15-9s-12-6.6-15-9c-3-2.3-9.8-6.4-15-9s-12-6.6-15-9c-3-2.3-12.5-7.7-21-12s-18-9.6-21-12c-3-2.3-12.5-7.7-21-12s-18-9.6-21-12c-3-2.3-12.5-7.7-21-12s-18-9.6-21-12c-3-2.3-12.5-7.7-21-12s-18-9.6-21-12c-3-2.3-9.8-6.4-15-9s-12-6.6-15-9c-3-2.3-12.5-7.7-21-12s-18-9.6-21-12c-3-2.3-12.5-7.7-21-12s-18-9.6-21-12c-3-2.3-12.5-7.7-21-12s-18-9.6-21-12c-3-2.3-12.5-7.7-21-12s-18-9.6-21-12c-3-2.3-7.1-5-9-6s-6-3.6-9-6c-3-2.3-12.5-7.7-21-12s-18-9.6-21-12c-3-2.3-9.8-6.4-15-9s-12-6.6-15-9c-3-2.3-15.2-9.1-27-15s-24-12.6-27-15a171 171 0 0 0-37.5-18.7 65 65 0 0 1-26.3-14.9 62 62 0 0 0-10.5-8c-2.3-1.2-6.7-4-9.7-6.4-3-2.3-9.8-6.4-15-9s-12-6.6-15-9c-3-2.3-12.5-7.7-21-12s-18-9.6-21-12c-3-2.3-7.1-5-9-6s-6-3.6-9-6c-3-2.3-17.9-10.4-33-18s-30-15.6-33-18c-3-2.3-9.8-6.4-15-9s-12-6.6-15-9c-3-2.3-10-6.5-15.5-9.3-5.5-2.7-12.5-7-15.6-9.4a77 77 0 0 0-47.9-17.3c-15 0-15.7.1-20 2.6-7.1 4.2-23.3 21.6-24.8 26.5-1.7 6-1.8 602.8 0 608.7a39 39 0 0 0 16.8 17.2c3 1.5 9.6 6.8 15.1 12a83 83 0 0 0 14.1 11.5c2.4 1.2 6.8 4.1 9.8 6.5 3 2.3 12.5 7.7 21 12s18 9.6 21 12c3 2.3 12.5 7.7 21 12s18 9.6 21 12c3 2.3 12.5 7.7 21 12s18 9.6 21 12c3 2.3 9.8 6.4 15 9s12 6.6 15 9a513 513 0 0 0 59 30c1.9.4 6.2 1.7 9.5 3l10.9 4c7.1 2.6 7.8 5 7.4 24.1-.4 20-1 20.9-14.7 20.9-9.9 0-38.1-12.3-51.7-22.7a448 448 0 0 0-39.5-21.3 493 493 0 0 1-38.9-20.9c-3-2.4-7.1-5.1-9-6.1s-6-3.6-9-6c-3-2.3-12.5-7.7-21-12s-18-9.6-21-12c-3-2.3-12.5-7.7-21-12s-18-9.6-21-12c-3-2.3-9.8-6.4-15-9s-12-6.6-15-8.9a90 90 0 0 0-10.7-7.1 78 78 0 0 1-22.6-23.1c-1.4-2.7-4.2-7-6.2-9.4-4.7-5.6-8.9-14-11.5-22.7a299 299 0 0 0-9.4-27.8c-2.1-5-2.1-5-2.1-317.6s0-312.6 6.8-326.4c11.6-23.6 26.5-36.1 46-38.5 4.3-.5 8.8-1.5 10-2.2a27 27 0 0 1 20-2.7m30.7 89.4c6.8 3.3 15.2 8.1 18.6 10.7s10.3 6.7 15.5 9.3a104 104 0 0 1 14.9 9c3 2.3 9.8 6.4 15 9s12 6.6 15 9c3 2.3 17.9 10.4 33 18s30 15.6 33 17.9c3 2.4 7.1 5.1 9 6.1s6 3.6 9 6c3 2.3 12.5 7.7 21 12s18 9.6 21 12c3 2.3 9.8 6.4 15 9 13.8 6.9 27.6 17.6 29 22.3 2.3 7.8.9 116.6-1.5 119.8-5.1 6.8-12.1 8.8-33 9.5-16.7.5-19.6.8-23.7 2.7a50 50 0 0 1-12.2 3.2c-4.2.5-8.9 1.6-10.5 2.4-1.6.9-5.9 2.4-9.7 3.4a170 170 0 0 0-37.4 18.7c-3 2.4-7.5 5.3-9.9 6.5a98 98 0 0 0-29.8 31.4c-7.5 14.2-7.5 79 0 93.2a98 98 0 0 0 29.8 31.4c2.4 1.2 6.9 4.1 9.9 6.5a119 119 0 0 0 39.6 18.5c11.6 1.5 23.4 7.8 23.4 12.5 0 4.2-12.6 11.7-25.7 15.3a103 103 0 0 0-15 6.1c-4.5 2.2-11.2 4.9-15 6s-10.5 3.7-15 6-11.2 4.9-15 6-10.5 3.7-15 6-11.2 4.9-15 6-10.5 3.7-15 6-11.2 4.9-15 6-10.5 3.7-15 6-11.2 4.9-15 6-10.4 3.6-14.8 5.9c-4.4 2.2-11.2 4.9-15 6.1a47 47 0 0 0-13.5 6.6c-7.7 5.4-12.2 6-16.1 1.9-2.3-2.4-4.6-587.5-2.4-600.2 2.5-14.2 29.9-17.1 53.5-5.7m1604 103.6c3 1.1 8.4 2.8 11.9 3.8 8.3 2.5 11.7 5.9 14.2 14.2 1 3.5 2.8 9 3.9 12.2 3.4 9.5 2.7 162.7-.8 170.2a49 49 0 0 0-3.2 12.4c-.7 6.3-2 9.9-8.9 24a224 224 0 0 0-9.6 22.2 28 28 0 0 1-5.5 10.5 31 31 0 0 0-5.1 8.9c-2.5 10.2-3.7 11.9-17.7 25.7-13.7 13.6-13.7 13.6-37.9 25.7-13.3 6.6-27.3 13-31 14.1a211 211 0 0 0-39.3 15.1c-9.1 4.3-19 8.5-22 9.3a205 205 0 0 0-38 14.7c-9.1 4.3-19 8.5-22 9.3-6.6 1.8-19.2 6-27.5 9.1a75 75 0 0 1-9.5 3 160 160 0 0 0-18.2 8.1c-8.1 4.1-17.8 8.2-21.5 9.3-3.8 1-10.5 3.7-15 6s-11.2 4.9-15 6c-3.7 1.1-9.3 2.9-12.3 4-29.7 10.6-33.2 7.1-20.2-20.8 4.8-10.2 7.8-18.5 12.3-33.5 1.1-3.8 2.7-8.2 3.6-9.9.9-1.9 1.9-7.3 2.3-13.2.5-7.2 1.4-11.5 3-15.1 2-4.2 2.4-7.2 3-20.9.5-14.2.9-16.6 3-21 2.5-5 2.5-5 3-69 .5-63 .5-64.1 2.7-69a101 101 0 0 0 3.8-11c1.6-5.8 2.4-6.7 21.3-25.8 21.5-21.6 33-29.3 51.8-34.5 3.8-1.1 16.4-6.7 28.1-12.5a137 137 0 0 1 26-11.2 100 100 0 0 0 37.3-13c2.8-2.1 8-4.6 11.4-5.7 14.3-4.2 22.7-7.3 32.6-11.9 5.8-2.6 12.8-5.4 15.5-6 2.8-.7 8.9-3.2 13.7-5.5a100 100 0 0 1 15.5-6.2c8.4-2.4 29.8-13 36.9-18.4 8.3-6.2 14-7.2 23.4-3.7M521.5 795.9c4.6 2.2 6.6 2.5 24 3.1 16.8.5 19.6.8 24 2.8 2.8 1.3 8.4 2.7 12.5 3.2 10.1 1.2 54.9 23 63.1 30.7 7.9 7.4 13.2 19 13.7 30.3.9 18.1-1.8 23.4-13.7 27a49 49 0 0 0-12.9 6.4c-3.7 2.6-8.5 5-11.5 5.7-2.9.7-9.7 3.4-15.2 6.1-7.6 3.6-11.8 5-17.5 5.8-4.1.5-9.7 1.9-12.4 3.1a47 47 0 0 1-15 2.9c-7.3.6-11.5 1.5-15.1 3.2-7.9 3.7-93.2 3.6-101-.1-4.4-2.1-7-2.5-21-3.1a65 65 0 0 1-20-2.4c-2.2-1-7.1-2.7-10.8-3.7-3.8-1.1-10.5-3.8-15-6s-11.2-5-15-6c-3.7-1.1-10.7-3.9-15.5-6.3a83 83 0 0 0-14.1-5.6c-11.2-2.6-14.6-8.7-13.9-25.5.5-15.4 6.9-27.5 17.3-32.7 2.2-1.2 6.5-4 9.5-6.3 7-5.5 25.8-14.9 34.7-17.4 3.7-1 8.5-2.6 10.6-3.5a51 51 0 0 1 11-2.6 48 48 0 0 0 12.2-3.2c4.5-2 7.1-2.3 24-2.8 13.5-.4 19.7-1 21.5-2 6.3-3.5 10.3-3.9 33.5-3.7 22.1.2 23.2.3 28 2.6M333 913.1c2.5.5 9.2 3.2 15 5.9s12.5 5.4 15 6 9.2 3.3 15 5.9c19.9 9.2 28.4 11.5 45.5 12.1 13 .5 15.7.9 20.5 3 8.5 3.8 93.3 3.9 102 .1 3.9-1.7 8.5-2.6 15.5-3.1q10-.8 14.7-2.9c2.6-1.2 8-2.6 12.2-3.1 5.6-.7 9.7-2 16.3-5.4 4.8-2.4 11.9-5.3 15.7-6.4 4-1.2 9.7-4 13.5-6.7 16.8-11.5 28.7-7.4 23.1 8-1.2 3.3-2.6 8.2-3.2 11-2.4 12.2-2.2 11.9-12.1 19.3a71 71 0 0 1-26.4 14.1c-3.7 1.1-9.3 2.9-12.3 4-7.1 2.5-13.6 4.7-23 7.6-4.1 1.3-9.2 3.1-11.3 3.9a51 51 0 0 1-11 2.6c-4 .5-9.4 1.9-12.2 3.2-5 2.3-5.5 2.3-54 2.8-43.7.5-49.4.7-52.7 2.3-6.2 2.9-10 2.2-16.2-3a122 122 0 0 0-38.4-17.3c-9.2-1.2-27.9-9.6-37.7-17.1a83 83 0 0 0-10.1-6.7 37 37 0 0 1-17-34.6c1.2-6.5 4.2-7.7 13.6-5.5m178.3 102.8c9.3.6 11.6 1.4 11.7 4.3q-.1 3.3-10.4 4.1c-4.6.4-10.1 1.7-14.3 3.4a32 32 0 0 1-12.3 2.8q-5.5 0-12.3-2.8c-4.2-1.7-9.7-3-14.3-3.4-9-.7-11.8-2.6-9.4-6.3 1.5-2.5 37.6-3.7 61.3-2.1m-89.6 11.9c3 1.9 3.3 7 3.3 67.5.1 52.9.3 61.7 1.6 65.2.9 2.2 2.7 7.5 4 11.8 3.8 12.3 8.7 17.6 22.9 24.4 13 6.2 58.7 5.9 71.9-.5q29.3-14.1 27.1-38.4c-.4-4.6-.7-11.9-.6-16.3.5-17.3.4-25.2-.4-30.7a37 37 0 0 1 .3-11.5l1.7-9.6c.8-4.8 3.9-7.7 8.4-7.7 4.7 0 26.7 10.6 34.1 16.4 3 2.4 17.9 10.5 33 18.1 15.1 7.5 30 15.6 33 18 3 2.3 7.3 5.2 9.5 6.3 30.9 16 39.9 44.4 14.7 46.2-7.8.6-10 1.2-19.8 5.8-6 2.8-13.4 5.8-16.4 6.6-11.7 3.3-21.9 7-32 11.7a115 115 0 0 1-15.5 6c-2.7.7-11.6 4.5-19.7 8.5s-17.8 8.2-21.5 9.3c-3.8 1-10.5 3.7-15 6s-11.2 4.9-15 6c-3.7 1.1-9.3 2.9-12.3 4-6.4 2.3-12.6 4.3-23 7.7l-13 4.3c-8.2 3-39.9 3-48 0-3-1.1-8.6-2.9-12.3-3.9a424 424 0 0 1-58.7-29.5c-3-2.3-9.8-6.4-15-9s-12-6.6-15-9c-3-2.3-12.5-7.7-21-12s-18-9.6-21-12c-3-2.3-12.5-7.7-21-12s-18-9.6-21-12c-3-2.3-12.5-7.7-21-12s-18-9.6-21-11.9-7.6-5.4-10.2-6.9c-10.1-5.8-8.5-12.9 3.5-15.8 2.9-.6 9.1-3.1 13.9-5.5s11.8-5.2 15.5-6.3c3.8-1 10.5-3.7 15-6s11.2-4.9 15-6 10.5-3.7 15-6 11.2-4.9 15-6 10.5-3.7 15-6 11.2-4.9 15-6 10.5-3.7 15-6 11.2-4.9 15-6 10.5-3.7 15-6a115 115 0 0 1 15.1-6c3.8-1 14-5.5 22.8-10 17.4-8.8 16.4-8.4 18.1-7.3M474 1048c11.2 3.7 12.8 3.7 24.2-.1 15.6-5.2 27.8-3 27.8 5.1 0 4.1-2 5.9-9.5 8.6-15.3 5.6-14.7 5.5-40.9 5.2-28.7-.4-30.1-.8-30.1-10.7 0-11.2 10.4-14.1 28.5-8.1m55.9 36.4c3.8 3.9 3.7 11.4-.2 15.3-4.1 4.1-76.8 4.4-81.1.4-3.4-3.2-3.4-7 0-10.2 2.5-2.4 2.7-2.4 29.7-2.9 20.9-.4 27.8-.8 29.7-1.9 8.3-4.7 17.6-5 21.9-.7m-3.3 39.6c8 3.1 6.7 12.9-1.8 14.5-10.9 2-73.6 0-76.2-2.4-4.3-4-2.6-10.2 3.4-12.4 2.9-1 71.8-.7 74.6.3m0 36c8.9 3.4 6.7 12.2-4.4 17.7-5.9 2.9-44.8 4.8-58.2 2.8-10.7-1.6-18.5-17.3-10.2-20.4a680 680 0 0 1 72.8-.1m171.1 50.3c4 3.9 4.7 21.1 1.3 28.2-4.2 8.7-24.7 21.6-41.6 26.3-3.8 1.1-10.6 3.8-15.1 6.1s-11.2 4.9-15 6-10.5 3.7-15 6-11.2 5-15 6.1c-26.3 7.7-47.2 17.5-57.5 26.8-8.9 8.1-9.5 8.3-21.2 9.2-7.3.6-11.5 1.5-15.1 3.2-4.4 2-6.5 2.3-16.7 2.3-17 0-17.2-.2-17.6-20.9-.4-19.1.3-21.5 7.4-24.1l9.4-3.5c2.5-1 7-2.5 10-3.4 7-2 19.7-6.2 27.5-9.1 3.3-1.3 7.6-2.6 9.5-3s7.4-2.7 12.2-5.1a100 100 0 0 1 15.5-6.2c3.7-1.1 13.2-5.1 21-9.1a177 177 0 0 1 21-9c3.8-1 10.5-3.7 15-6s11.2-5 15-6.1c14.7-4.3 23.2-7.4 33.3-12q23.5-10.8 31.7-2.7m-168 138c7.2 7.2 2.5 17.1-8.8 18.7a51 51 0 0 0-11.4 3.2c-4.5 2.1-6.5 2.3-20.5 2.3s-16-.2-20.5-2.3a52 52 0 0 0-11.3-3.2c-10.5-1.5-14.5-7.6-8.6-13.1 2.5-2.4 2.8-2.4 26.7-2.9 18.4-.4 24.8-.8 26.7-1.9 8.7-5 23.2-5.4 27.7-.8m-61.5 41.9a85 85 0 0 0 41.8-.1c15.9-7.1 28.8 2 18.9 13.4-4.7 5.3-7.1 5.6-44.4 5.3-38.7-.3-39-.4-39-10.7 0-10.6 9.2-13.8 22.7-7.9m103.8 14.3a47 47 0 0 0 13.5 6.6c20.3 6 36.5 17.3 36.5 25.5 0 6.6-.2 6.9-23.9 30.7-26.6 26.9-28.6 28-40.1 22.5-3.9-1.9-7-2.2-23.5-2.8-17.8-.6-19.4-.9-25.5-3.5a35 35 0 0 0-28 .1c-6.4 2.7-7 2.8-31.5 3.4-22.9.6-25.4.8-29.5 2.8-11.2 5.4-12.9 4.6-38-20.3a399 399 0 0 0-25.1-23.3c-9.8-6.6-3.9-18.7 11.1-22.8 3-.8 14.7-6 26-11.5 27.9-13.5 30.9-13.2 31 2.8.1 3.2.8 7.6 1.6 9.8 2.7 7 4.3 11.9 5.4 16.1 2.3 9 15.7 20.8 28.2 24.9l11.8 4a78 78 0 0 0 46.5-2.8c20-9.7 35.9-28.9 34.1-41.5-2.3-15.8-1.8-19.3 3.2-23.2 4.2-3.4 8.9-2.6 16.2 2.5m-42 24.4c5.5 3.5-.5 12.4-12 18-9 4.3-34.8 5.9-44.7 2.8-22.8-7.2-26.2-11.1-17-19.9.1-.1 14.8-.5 32.7-.8l36-.8c1.9-.1 4.2.2 5 .7m-175.2 36.6c4.9 2.1 35.8 32.7 38.3 38 2.4 5.2 2.7 25.6.5 31-3.3 7.8-6.4 6-27.9-15.3-22.4-22.1-22.6-22.5-22.7-37.4 0-17 2.3-20.2 11.8-16.3m277.6 0c3.5 3.5 3.4 19.4-.2 28-1.1 2.7-2.8 7.7-3.7 11-2.4 8.6-13.6 20-25.1 25.6-15.3 7.4-19.7 4.9-20.2-11.3-.6-14.8-.2-15.4 19.6-35 19.1-19 25.1-22.7 29.6-18.3M509.5 1504c4.5 2.1 6.8 2.4 24.2 2.9 26.8.8 28.3 2.1 29.5 23.4.4 7.3 1 14.7 1.4 16.4 2.5 12.5 3.9 12.3-77.4 12.3-81 0-78.8.3-74.6-11.1 1.1-2.8 1.9-9.2 2.3-17.6 1-22.2 1.7-22.6 35.4-23.3 19.2-.4 25.8-.8 27.7-1.9a39 39 0 0 1 31.5-1.1"/></svg>