<svg xmlns="http://www.w3.org/2000/svg" width="2560" height="2560" viewBox="0 0 1920 1920"><g fill="#f97316"><path d="M966 62.6c-3.3 2.2-16.4 15-20.1 19.6a36 36 0 0 0-5 10.8c-1.1 3.9-3.9 11-6.3 15.8-2.3 4.8-4.8 10.9-5.5 13.6-4.6 18.5-12.7 20.3-28.1 6.1a74 74 0 0 0-11.9-9 52 52 0 0 1-8.6-5.5c-8.3-6.6-22.3-10.9-28-8.6-6.6 2.8-6.9 4.3-7.5 31.3-.6 29.8-.3 29.2-14.8 30.3-22.5 1.6-33.7 22.5-25.2 46.7 3.8 10.8 3.9 10.6-15 29.8-18.3 18.7-17.2 15.6-16.8 50 .3 25.1.4 26.2 2.8 31 1.9 4.1 2.5 7.2 3 17.5.9 16.7.3 15.7 22.8 38.1 19.3 19.3 19.9 19.8 30.2 24.9 5.8 2.9 13 7.1 16 9.5a179 179 0 0 0 49.8 22.9c3.9 1.5 12.1 1.6 78.5 1.4 74.2-.3 74.2-.3 85.2-5.5 6.1-2.8 13.5-5.8 16.6-6.7 3.3-.9 8.2-3.4 11.5-6 3.3-2.4 7.5-5.1 9.4-6.1s6-3.7 9-6c3-2.4 7.1-5.1 9-6s6-3.7 9-6c3-2.4 7.4-5.3 9.8-6.4a67 67 0 0 0 23.9-25.4c4.8-9.2 4.8-9.2 5.1-56.2.4-58 1.7-52-14.9-69.1-15.8-16.3-17.3-20.2-12.8-32.4 8.5-22.7 7.7-29.9-3.9-36.7-4.4-2.6-5.4-2.8-17.2-2.9-6.9 0-13-.2-13.7-.2-2.3-.4-3.3-6.9-3.3-22.5 0-21.7-2-26.9-12.9-33.8-7.5-4.8-13.8-3.9-22.6 3.1a52 52 0 0 1-8.6 5.5 74 74 0 0 0-11.9 9c-11 10.1-17.6 12.1-22.3 6.5-2.8-3.3-5.1-9.1-11.2-29.2-4-13-8.9-21.4-17.9-30.7-13.6-14-19.2-16.8-25.6-12.5m11.8 20.8a53 53 0 0 1 11.1 21.1c2.8 9.5 6.9 21.7 9.7 29.2 1.3 3.4 2.4 6.8 2.4 7.7 0 .8.9 3.8 2 6.6a29 29 0 0 1 2 8.3c0 4.1-16.2 37.3-21.3 43.7l-7 9c-5.4 7.4-6.7 6.8-12.8-5.5-3-5.8-7.1-12.7-9.3-15.3a60 60 0 0 1-9.7-52.7c1.2-3.3 3.1-9.1 4.2-12.8 1-3.8 3.9-10.7 6.3-15.5A83 83 0 0 0 961 93c2.5-10.5 10.3-15 16.8-9.6m-99.2 49.7a64 64 0 0 0 8.7 5.5c2.6 1.4 7.9 5.3 11.7 8.8s9.3 7.7 12.3 9.4c6.9 3.9 9.8 7.4 15.7 19.2a86 86 0 0 0 8.6 14c10.6 12.7 15 32.6 7.2 32.4a77 77 0 0 1-26.7-12.7c-2.9-2.3-14.6-8.9-25.9-14.7-26.6-13.6-24.6-10.7-25-37-.4-28.8 2.3-33.8 13.4-24.9m199 .4c1.7 4.1 2 34.8.4 40.7-1.4 4.9-6.2 8.9-17.3 14.5-5.1 2.5-11.7 6.5-14.7 8.8s-7.1 5.1-9 6-6 3.7-9 6c-3 2.4-7.4 5.2-9.7 6.4a56 56 0 0 0-10 7.4c-8.4 7.7-10.1 8.7-15.5 8.7-9.1 0-9.8-3.7-2.2-12.2 1.8-2.1 4.4-5.9 5.8-8.6s4.1-6.8 6.1-9.2c2-2.5 7.2-11.5 11.5-20 9-18 11.3-21 18.7-25.2 3-1.7 8.5-5.9 12.3-9.4s9.1-7.4 11.7-8.8a64 64 0 0 0 8.7-5.5c5.6-4.5 10.2-4.3 12.2.4M846.1 188a40 40 0 0 1 11 7.6c6.3 5.6 10.7 8.3 29.4 17.6 12.1 6 24.5 12.9 27.5 15.2 3 2.4 12.7 7.9 21.5 12.4 25.4 12.8 30.7 19 25.9 30a56 56 0 0 0-2.3 16c-1 18-8.1 22.5-25.6 16.3-3.3-1.2-9.1-3.1-12.9-4.2-23.3-6.8-42.9-19.6-66.8-43.6-22-22.2-22.7-23-24.3-28.8-.9-3.3-2.6-8.3-3.8-11-3-7-3.1-21.2-.2-24.5 3.6-4 12.4-5.3 20.6-3m271.6 2.2c2.9 2.7 3 7.7.2 13.8a47 47 0 0 0-2.8 11.6c-1.1 9-1.7 10.1-12.1 20.9a88 88 0 0 0-11.9 15.1c-9 17.1-41.4 39.6-67.8 47.4-3.7 1-9.5 2.9-12.8 4.1-9.2 3.2-24.3 2.5-28.2-1.4-4.2-4.2-4.7-19.3-.9-30.2 1.4-4.1 2.6-9.1 2.6-10.9 0-4.5 1.8-6.2 8-7.5 7.1-1.5 10.3-3.4 17.5-10.1a75 75 0 0 1 10.6-8.1c2.4-1.2 6.9-4.1 9.9-6.4s7.1-5.1 9-6 6-3.7 9-6a258 258 0 0 1 46.7-23.4c3.7-1 8.4-2.6 10.3-3.5 5.1-2.2 9.9-2 12.7.6m-295.2 57.9c3.3.9 8.5 5.6 29 25.8 25 24.6 25 24.6 45 34.3 34 16.4 36 16.8 75.5 16.8s41.5-.4 75.5-16.8c20-9.7 20-9.7 38.9-28.2a313 313 0 0 0 22.8-24.3c7.9-11.6 25.1-12.3 33.2-1.3 2.7 3.6 3.8 62.8 1.3 68.8-1.9 4.6-16.9 15.4-24.5 17.7-8.3 2.6-9.8 3.5-19.7 13.1-5 4.8-11 9.7-13.5 11s-7 4.2-10 6.6c-14.5 11.3-10.1 10.8-98.5 11.6-43.4.3-81.3.9-84.1 1.3-5.1.7-5.1.7-11.5-5a85 85 0 0 0-17.2-11.1 73 73 0 0 1-17.8-12 67 67 0 0 0-11.3-8.5c-2.2-1.2-6.6-4-9.6-6.4-3-2.3-9.6-6.3-14.7-8.8-18.2-9.2-18.3-9.3-18.3-42.7 0-27.7.4-29.3 7.7-36.3a21 21 0 0 1 21.8-5.6M814.9 355c3.5 1.7 7.9 4.4 9.8 6 1.9 1.7 5.7 4.2 8.5 5.6s8.1 5.4 11.7 8.8c4.8 4.5 10 8 17.7 11.9 11.9 6.1 16 9.6 17 14.3 1.9 9.6-12.3 6.8-29.1-5.8-3.3-2.5-11-7-17-10.1-26.6-13.6-44.4-42.9-18.6-30.7m325.9-1.8c3.3 3.3-.7 12.3-7.8 17.5-2.5 1.9-6.2 4.7-8.2 6.4-2.1 1.6-6.6 4.6-10 6.5s-7.4 4.6-8.8 5.8a44 44 0 0 1-7.5 5.1c-2.7 1.6-7.2 4.5-10 6.6-7.7 5.8-14.6 6.5-16.4 1.6-1.9-4.9 3.5-11.7 13.9-17.5 3.6-2 10.8-7.7 16.2-12.8 8.9-8.6 10.2-9.4 16.9-11.4a55 55 0 0 0 12.2-5.6c5.2-3.6 7.6-4.1 9.5-2.2m-95.4 52.7c3.4 3.2 3.4 7 0 10.2-2.6 2.4-2.6 2.4-70.4 2.4s-67.8 0-70.4-2.4c-4.3-4-2.6-10.2 3.4-12.4s135-.1 137.4 2.2m-289.5 80c-5 1.6-7.6 3.6-19.4 15.1a91 91 0 0 1-17.5 14.5c-4.3 2.1-12.8 10-39 36-24.5 24.4-34.8 33.9-38.5 35.8a42 42 0 0 0-18 17.6 43 43 0 0 1-18.6 18.6c-8.9 4.4-63.3 59.4-64.8 65.5-.7 2.5-2.1 7-3.2 10s-3 8.9-4.3 13l-4 11.8c-1.5 3.9-1.6 24.7-1.4 229 .3 224.7.3 224.7 5.2 234a41 41 0 0 0 19 19.9c2.7 1.4 9.3 6.7 14.7 11.9a93 93 0 0 0 14.9 11.9c2.8 1.4 8.3 5.5 12.2 9.1s9.3 7.6 12 9c2.7 1.3 8.1 5.4 12 9s9.3 7.6 12 9c2.7 1.3 8.1 5.4 12 9a69 69 0 0 0 12.1 9.1c2.8 1.4 9.4 6.7 14.8 11.9a93 93 0 0 0 14.9 11.9c2.8 1.4 8.3 5.5 12.2 9.1s9.3 7.6 12 9c2.7 1.3 8.1 5.4 12 9s8.9 7.4 11.2 8.6 6.7 4 9.9 6.4a44 44 0 0 0 13 6.5c9.1 2.7 15.6 6 23 11.5 9.1 6.8-3.3 6.4 198.3 6.2 184.9-.3 184.9-.3 189.9-2.7 3.6-1.7 7.5-2.6 14.5-3.1 10.2-.7 11.4-1.1 20.5-7.5 3.3-2.4 10.2-6.4 15.4-9a94 94 0 0 0 33-30.4 28 28 0 0 1 13.6-13.8c3.4-1.8 11.7-9.2 26.5-23.8 16.1-15.9 22.9-21.9 27-24 10.4-5.1 84.8-80.5 90.8-92 4.7-9 4.7-9 4.7-238s0-229-2.3-234.2a59 59 0 0 1-3.2-12.9 33 33 0 0 0-3-10.8 128 128 0 0 0-27-25.1c-3-1.5-9.6-6.8-15.1-12.1a69 69 0 0 0-21-15 67 67 0 0 1-21-14.9 89 89 0 0 0-14.9-12 69 69 0 0 1-12.2-9.1 71 71 0 0 0-12-9 66 66 0 0 1-12-9 71 71 0 0 0-12-9 66 66 0 0 1-12-9 69 69 0 0 0-12.1-9.1 91 91 0 0 1-14.8-11.8 83 83 0 0 0-14.1-11.5 69 69 0 0 1-9.8-6.5c-3-2.3-7.1-5-9-6s-6.1-3.7-9.2-6.1c-16.6-12.9 1.9-11.9-218.3-12.1-108.3-.1-198.2.2-199.6.6m403.1 22.6c3.6 1.6 9.2 5.1 12.5 7.6s7.6 5.4 9.5 6.4 6 3.6 9 6a92 92 0 0 0 9.9 6.5c2.5 1.2 8.8 6.4 14.2 11.6a93 93 0 0 0 14.9 11.9c2.8 1.4 8.3 5.5 12.2 9.1s9.3 7.6 12 9c2.7 1.3 8.1 5.4 12 9s9.3 7.6 12 9c2.7 1.3 8.1 5.4 12 9a69 69 0 0 0 12.1 9.1c2.8 1.4 9.4 6.7 14.8 11.9a69 69 0 0 0 21 15 67 67 0 0 1 21 14.9c5.4 5.2 12 10.5 14.7 11.9 15.2 7.7 15.3 20.6.3 28.8-4.2 2.4-17.8 15.2-54.1 51.4-39.2 38.9-49.6 48.7-54 50.9-4.2 2.1-11.2 8.4-29.5 26.6a253 253 0 0 1-29.7 27.1c-3.2 1.8-8.3 5.1-11.4 7.3-5.6 4-5.6 4-202.7 4s-197.2 0-203.2 2.2c-11.5 4.4-19.2 1.5-34.4-13.1a95 95 0 0 0-15.1-12.1 69 69 0 0 1-12.2-9.1 71 71 0 0 0-12-9 66 66 0 0 1-12-9 69 69 0 0 0-12.1-9.1 88 88 0 0 1-14.8-11.9 93 93 0 0 0-14.9-11.9 69 69 0 0 1-12.2-9.1 69 69 0 0 0-12.1-9.1 91 91 0 0 1-14.8-11.8 83 83 0 0 0-14.1-11.5 69 69 0 0 1-9.8-6.5c-3-2.3-7.4-5.2-9.8-6.4a62 62 0 0 1-11.1-8.5 72 72 0 0 0-12.4-8.9c-7.5-3.5-8.6-9.4-3.7-20.2 2.7-6.1 38.9-41.5 46-45 4.5-2.2 15.2-12.3 57-54 41.4-41.3 52.6-51.8 57-54q5.5-2.8 17.6-14.7a75 75 0 0 1 16.1-13.4c9.3-3.3 396.9-1.3 404.3 2.1m230.6 207c1.2 3 1.4 32.6 1.2 223.2-.3 219.8-.3 219.8-3.7 227.3-4.6 9.9-62.8 69.5-73.5 75.1-4.6 2.4-11.4 8.4-27.6 24.4-15.7 15.6-23 22-26.9 24a109 109 0 0 0-29 28.4c-5.1 9.6-14.2 16.1-22.5 16.1-5.2 0-5.9-2.2-6.7-19-.5-12.4-.9-15.2-3-19.5a28 28 0 0 1 .1-23c3.6-7.2 4.5-372.2 1-382.2-3.6-10.3-2.1-14 7.9-19.5 3.9-2.2 13.1-10.6 30.1-27.4 18.6-18.4 25.8-24.8 30-26.9 4.4-2.2 14.8-12 54-51.1 51.7-51.5 53.7-53.2 63.3-53.3 3.4-.1 3.9.3 5.3 3.4m-826.7 12.1c3.9 1.1 7 3.2 12.3 8 3.9 3.6 8.9 7.4 11.2 8.5 2.2 1.2 6.6 4 9.6 6.4a92 92 0 0 0 9.9 6.5c2.5 1.2 8.8 6.4 14.2 11.6a93 93 0 0 0 14.9 11.9c2.8 1.4 8.3 5.5 12.2 9.1a69 69 0 0 0 12.1 9.1c2.8 1.4 9.4 6.7 14.8 11.9a93 93 0 0 0 14.9 11.9c2.8 1.4 8.3 5.5 12.2 9.1s9.3 7.6 12 9c2.7 1.3 8 5.4 11.9 8.9 3.8 3.5 9.6 7.8 12.9 9.6 8.6 4.6 26.4 23 28 29 1.5 5.4.7 11.7-2.2 17.7-2.3 4.7-2.3 4.7-2.8 214.9-.5 210.1-.5 210.1-2.9 212.7-3.9 4.1-8.6 3.6-15.9-1.8a89 89 0 0 0-10.2-6.6c-2.2-1.1-7.3-5-11.2-8.6a71 71 0 0 0-12-9 66 66 0 0 1-12-9 69 69 0 0 0-12.1-9.1 88 88 0 0 1-14.8-11.9 93 93 0 0 0-14.9-11.9 69 69 0 0 1-12.2-9.1 71 71 0 0 0-12-9 66 66 0 0 1-12-9 71 71 0 0 0-12-9 66 66 0 0 1-12-9 69 69 0 0 0-12.2-9.1c-6.4-3.2-30.8-27-33.6-32.8-2.3-4.8-3.2-442.1-.9-448.2 1.8-4.8 5.5-5.5 14.8-2.7m610.7 158c7.6 5.7 6.9-15.2 7.2 192.5.2 184.9.2 184.9-1.9 190.7-4.9 13.4-4.9 16.9-.1 30.2 2.1 5.8 3.8 44.4 2.1 47.1-.4.6-3.8 2-7.5 3s-9.4 2.7-12.4 3.8c-5.4 2-7.6 2-188.3 2.1-200.9 0-188.3.4-190.6-6-2.4-7-1.4-433.4 1-440 1.1-3 2.5-7.8 3.1-10.5 2.2-11.4 2.8-12.6 6.1-14 6.1-2.7 377.7-1.6 381.3 1.1"/><path d="M1086 518.3c-5.5 2.2-5.5 2.2-153 2.7-142.6.5-147.6.6-151 2.4a97 97 0 0 0-12.5 10.6 65 65 0 0 1-20.5 14.5c-11.5 5.7-11.5 5.7-48 42-29.1 28.9-37.6 36.8-42 39-8.2 4-51.1 47.2-52.8 53.1a25 25 0 0 0 0 14.8c1.7 5.8 38.6 43.1 46.7 47.1a85 85 0 0 1 15.2 12 83 83 0 0 0 14.1 11.5c2.4 1.2 6.8 4.1 9.8 6.5 3 2.3 7.4 5.2 9.8 6.4s7.5 5.1 11.4 8.7 8.9 7.4 11.2 8.5c2.2 1.2 6.6 4 9.6 6.4 3 2.3 10.2 6.6 16 9.6 9.3 4.7 12 6.8 23.3 17.7 24.5 23.7 6.9 21.7 192.7 21.7 160.5 0 160.5 0 167-2.9 5.6-2.4 8.3-2.9 19.1-3.5 19.4-1.1 25-4.1 45.7-24.5a117 117 0 0 1 21.2-18.1c8.2-4 108.5-104.1 113.1-112.8 3.7-7.1 4.1-12.2 1.1-16.4a255 255 0 0 0-36.1-33.8 82 82 0 0 1-15.2-12.1 96 96 0 0 0-15-12 85 85 0 0 1-15-12 96 96 0 0 0-15-12 85 85 0 0 1-15-12 68 68 0 0 0-20.9-14.9c-7.9-4-13-7.4-18.2-12.1a75 75 0 0 0-28.9-15.9 27 27 0 0 1-12.3-7.5c-9.5-8.6-11.1-9.2-25.6-10a68 68 0 0 1-16-2.2c-6.4-2.7-8.3-2.8-14-.5m12.8 20.3c2 .9 7.9 1.9 13 2.3 16.5 1.3 14.7-16.3 14.7 146.1 0 140 0 140-2.8 142.7-4.8 4.8-317 4.3-327.2-.5q-10.5-5-13.8-10.7c-.9-1.5-1.4-35.9-1.8-132-.4-71.5-1-132.1-1.4-134.7q-1-8.3 7.6-10.2c1.8-.3 68-.6 147.3-.6 138.3-.1 144.3-.2 149.1-2 6.3-2.3 10.6-2.4 15.3-.4m67.6 24.8q7.3 3.4 14.6 10a72 72 0 0 0 18.3 12.3 67 67 0 0 1 20.8 14.8 92 92 0 0 0 15 12.1c2.9 1.4 9.6 6.8 15 12a96 96 0 0 0 15 12 85 85 0 0 1 14.9 11.9 93 93 0 0 0 15.8 12.5c15.8 8.4 21.9 19.2 16.7 29.6-3.4 6.9-45.9 49.2-53 52.7a41 41 0 0 0-17.9 17.6 75 75 0 0 1-24.6 24.6c-3.8 1.9-10.3 7.5-21.1 18.1q-33.1 32.5-45.6 20.1c-4.1-4.1-4.5-256.8-.4-261.1 3.4-3.6 7.6-3.4 16.5.8m-406.8 8.1c2.1 5.2 2.1 213.8 0 219-2.5 6-12.2 4-23.6-4.9-3-2.4-7.4-5.3-9.8-6.5a68 68 0 0 1-11.4-8.7 63 63 0 0 0-11.2-8.5c-2.2-1.2-6.6-4-9.6-6.4a92 92 0 0 0-9.9-6.5 86 86 0 0 1-14.2-11.6 90 90 0 0 0-15.1-12 116 116 0 0 1-27.9-26.9 21 21 0 0 1 0-17 160 160 0 0 1 34.1-33c4.4-2.2 13.1-10.3 42-39.1 38.8-38.6 42-41.2 51.3-41.3 3.4-.1 3.9.3 5.3 3.4m20.3 832.4c-5.1 1.7-7.6 3.6-19.4 15.1a92 92 0 0 1-17.5 14.5c-4.1 2-11.1 8.3-27 24-16 15.8-22.9 22-27 24-4.2 2.1-11.4 8.6-30 27s-25.8 24.9-30 27c-4.1 2-10.8 8-25.8 22.9-24.9 24.6-25.6 25.5-28.6 35.2-1.3 4.4-3.1 9.7-4 11.9a185 185 0 0 0-.4 45.9c1.6 5.5 15.2 19.3 22.8 23.1q5.6 2.9 18.1 15a100 100 0 0 0 17.9 15c3 1.5 9.6 6.8 15.1 12.1a90 90 0 0 0 15.1 12c3.3 1.7 9.9 7.2 17.9 14.9a100 100 0 0 0 17.9 15c3 1.5 9.6 6.8 15.1 12.1a93 93 0 0 0 14.9 11.9 73 73 0 0 1 12.1 9 78 78 0 0 0 18 12.1c7 3.6 13.2 7.6 17.4 11.4 11.6 10.5-1.6 9.5 118.5 9.5 105.5 0 105.5 0 111-2.5 5.4-2.4 6-2.5 30-2.5s24.6.1 30 2.5c5.5 2.5 5.5 2.5 51 2.5 51.1 0 50.9 0 66.9-11.8 3.6-2.7 10.9-7.1 16.2-9.7q9.6-4.9 16.7-11.4c3.9-3.6 9.5-7.7 12.4-9.2 3.9-1.9 11.9-9.1 29.8-26.9 15.9-15.8 26.1-25 29-26.5a44 44 0 0 0 17-15.1c2.5-3.6 6.8-7.9 11.3-11.3 3.9-2.9 17.8-16.1 30.8-29.2 26.4-26.8 25.9-26 25.9-40.7 0-4.7.7-11.5 1.5-15.1 1.4-5.9 1.4-7.3 0-13.2-.8-3.6-1.5-9-1.5-12.1 0-11-.8-12.3-19.4-30.9-12.6-12.6-18.6-17.9-22.6-19.9-3.9-2-10.1-7.3-21-18a124 124 0 0 0-20.9-18 79 79 0 0 1-15.2-12.1 90 90 0 0 0-15.1-12c-3.3-1.7-9.9-7.2-17.9-14.9a100 100 0 0 0-17.9-15c-3-1.5-9.6-6.8-15.1-12.1a93 93 0 0 0-14.9-11.9c-2.9-1.5-8-5.3-11.5-8.5-10.2-9.5-10.2-9.5-31.5-9.5-17.6 0-18.8.1-24 2.5-5.5 2.5-5.5 2.5-156 2.5s-150.5 0-161.7-5.3c-11.6-5.5-18.9-7.1-24.4-5.3m10.7 20.1c11.5 4.4 3.2 22.1-12.5 26.6-9.4 2.7-10.8 3.9-35.6 28.4-18.3 18.1-25.3 24.4-29.5 26.5-5.7 2.8-74.8 70.2-80.7 78.7-7.2 10.4-.2 22.9 17.7 31.8a36 36 0 0 1 17 14 46 46 0 0 0 16.9 15c2.5 1.2 8.8 6.4 14.2 11.6a90 90 0 0 0 15.1 12c3.3 1.7 9.9 7.2 17.9 14.9 8.1 8 14.5 13.3 18 15 3.7 1.9 10.4 7.6 20.9 17.9 8.5 8.3 17.8 16.7 20.5 18.6 6.1 4.3 6.6 6.9 1.5 8.7-9.8 3.5-23.6-2.4-37.9-16.1a92 92 0 0 0-15.3-12.2c-3.3-1.7-9.9-7.2-17.9-14.9a95 95 0 0 0-18-15 120 120 0 0 1-20.9-18 124 124 0 0 0-20.9-18 79 79 0 0 1-15.2-12.1 93 93 0 0 0-14.9-11.9 68 68 0 0 1-12-8.9 84 84 0 0 0-12.3-9.4c-10-5.6-13.4-13.2-9.3-21 2.7-5.2 27.8-28.8 33.6-31.7 4.2-2.1 11.4-8.6 30-27s25.8-24.9 30-27 11-8.2 27-24c15.9-15.7 22.9-22 27-24q5.5-2.9 17.6-14.7c14.5-14.2 19.9-16.8 28-13.8m373.6 6c2.3.7 6.5 3.6 10.7 7.5a81 81 0 0 0 12.2 9.1c2.9 1.4 9.6 6.8 15 12a90 90 0 0 0 15.1 12c3.3 1.7 9.9 7.2 17.9 14.9a100 100 0 0 0 17.9 15c3 1.5 9.6 6.8 15.1 12.1a90 90 0 0 0 15.1 12q5.2 2.6 20.8 17.9a115 115 0 0 0 21 18c20.6 10.4 28.4 27.4 16.2 35.6a511 511 0 0 0-28.7 26.9c-18.1 18-25.3 24.4-29.5 26.5s-11 8.2-27 24c-15.5 15.4-23 22-26.8 23.9-3 1.5-9.6 6.7-15.1 12a89 89 0 0 1-14.9 12 41 41 0 0 0-16.4 14.9c-4.6 6.8-8.2 8.7-16 8.6-12.7-.1-15.6-4-7.3-9.9 2.8-1.9 17.4-15.7 32.5-30.6 20.8-20.5 28.8-27.8 32.9-29.9 3.5-1.8 9.8-7 18-15 7.5-7.2 14.7-13.3 17.6-14.8a41 41 0 0 0 17.5-16.7 32 32 0 0 1 14.3-14.2 31 31 0 0 0 15.5-37.2c-1.6-5.8-38.6-43-46.8-47.1q-5.5-2.8-18.1-15a100 100 0 0 0-17.9-15c-3-1.5-9.6-6.8-15.1-12.1a90 90 0 0 0-15.1-12c-3.3-1.7-9.7-7-17.3-14.4-12.5-12.2-15-14-22.5-16-11.7-3.1-17.8-12.1-10.2-14.9a51 51 0 0 1 19.4-.1m-54.5 5.9a63 63 0 0 1 11.9 7.2c11.1 8.1 11.7 9.3 11.2 25.5-.5 20.2 20.9 17.9-163.8 17.9-185.1 0-163.3 2.5-163.8-18.7-.5-18.2 4.7-28.4 16.2-31.7 4.2-1.2 284.1-1.4 288.3-.2m65.7 44a100 100 0 0 0 17.6 14.6c3 1.5 9.6 6.8 15.1 12.1a90 90 0 0 0 15.1 12c3.3 1.7 9.9 7.2 17.8 14.9q12.5 12 18.6 15.4c8.5 4.5 26.7 23 28.3 28.6 2.2 7.9.7 15-4 18.9-5.8 4.9-8.9 3.7-21-8a88 88 0 0 0-14-11q-5.4-2.5-20.9-17.9a124 124 0 0 0-20.9-18 79 79 0 0 1-15.2-12.1 90 90 0 0 0-15.1-12c-14.7-7.4-23.7-20.3-23.8-33.7 0-20.4 4.6-21.2 22.4-3.8m-393.4-5.4c2.9 3.1 3.9 12.5 2 19.5-1.6 6.3-48.9 54.1-58.4 59.1-4.6 2.4-11.4 8.4-27.6 24.5-22.1 21.8-24.3 23.4-32 23.4-8.3 0-15-5.2-15-11.8 0-4.9 53.3-59 63.4-64.3 4.7-2.5 11.6-8.6 29.6-26.4 29.6-29.2 31.8-30.6 38-24m358.5 33.6c3 .8 7 4.1 16.5 13.4 8.1 7.8 14.6 13.3 18 15 3 1.5 9.6 6.8 15.1 12.1a90 90 0 0 0 15.1 12q5.3 2.6 20.8 17.9a118 118 0 0 0 21.8 18.5c12 6.4 17.4 14.9 13.8 21.8a249 249 0 0 1-38.6 36.7c-4.2 2.1-11.8 9-33 30-20.1 19.9-28.9 28-32.6 29.8a69 69 0 0 0-12.2 9.1c-9.8 9-8 8.7-58.6 8.4-43.4-.3-43.4-.3-50.2-5.1-9.8-6.7-10-6.7-46.4-6.7s-36.6 0-46.4 6.7c-10.3 7.2-118.7 7.6-128.3.5-3.2-2.3-10.7-6.7-16.8-9.8-10.3-5.3-11.9-6.6-26.5-20.9a115 115 0 0 0-21-18 96 96 0 0 1-18-15 106 106 0 0 0-18.5-15.3c-9-4.8-30.3-26.4-31.2-31.5-.8-4.9 32-38.9 43.1-44.8 4.6-2.4 11.4-8.4 27.6-24.4 14.8-14.7 23-22 26.5-23.8 2.8-1.4 8.3-5.5 12.4-9.1s8.8-7 10.5-7.5c4.7-1.4 332.1-1.4 337.1 0m207.1 113.4a47 47 0 0 1-.5 25c-2.8 6-33.2 35.6-40.1 39-4.4 2.2-13.1 10.2-42 39-27.2 27.1-37.8 36.9-41.6 38.8a77 77 0 0 0-12.7 9.6q-16.8 15-20.6 5a44 44 0 0 1 .8-22.4c2.8-6 33.1-35.5 40.1-39 4.1-2.1 11-8.2 27-24s22.9-22 27-24c4.2-2.1 11.3-8.6 29.6-26.6 27.1-26.9 29.6-28.5 33-20.4m-743.3 4.9c3.1 1.3 8.7 5.3 12.7 9s9.5 7.9 12.3 9.3 9.4 6.7 14.8 11.9a90 90 0 0 0 15.1 12q5.2 2.6 20.8 17.9a115 115 0 0 0 21 18c3.6 1.8 9.9 7.1 18 15q12.5 12 18.6 15.4c8.5 4.5 26.7 23 28.3 28.6 6.2 22.4-7.4 27-26.9 9.1-4-3.7-9.5-7.9-12.3-9.3a88 88 0 0 1-14.8-11.9 90 90 0 0 0-15.1-12c-3.3-1.7-9.9-7.2-17.9-14.9a100 100 0 0 0-17.9-15c-3-1.5-9.6-6.8-15.1-12.1a90 90 0 0 0-15.1-12c-3.3-1.7-9.8-7-17.3-14.4a205 205 0 0 0-16.8-14.9c-6.1-4.2-7.7-7.8-7.7-17.6 0-14.5 3.6-17.3 15.3-12.1m333.3 131.9c9.8 6.7 10 6.7 46.4 6.7s36.6 0 46.4-6.7c10.7-7.5 100.4-7.5 111.2-.1 7.8 5.3 11.2 6.8 15.6 6.8 9.3 0 12.2 5 11.6 20.1-.4 10.6-1.4 13-7.2 17.3-4.7 3.6-91.7 3.2-99.6-.4-5.4-2.4-6-2.5-30-2.5s-24.6.1-30 2.5c-7.8 3.5-203.7 4.5-211.5 1.1-5.4-2.4-6.3-5.1-4.7-13.1.7-3.1 1.2-8 1.2-10.8 0-8.8 1.7-11.5 9.4-14.5 3.6-1.4 8.9-4.2 11.6-6.2 7.4-5.5 6.2-5.4 66.6-5.2 56.2.2 56.2.2 63 5"/><path d="M940.9 1590.4c-13 4.7-26.8 23-26.1 34.5.2 3 27.8 31.1 34.2 34.9 6.1 3.6 44.7 4.2 51 .8 5.8-3.2 16-13.7 20.3-21.1 2.2-3.8 5.5-8.9 7.4-11.3 6.3-8.3 4.5-13-10.3-27.3-12.4-12-10.1-11.4-43.9-11.6-22-.2-29.9 0-32.6 1.1m54.2 44.6c1 .6 1.9 1.9 1.9 3 0 3.4-3.2 4-22.4 4q-32.2 0-23-6.7c2.2-1.6 40.5-1.8 43.5-.3"/></g></svg>