<svg xmlns="http://www.w3.org/2000/svg" width="2560" height="2560" viewBox="0 0 1920 1920"><g fill="#f97316"><path d="M1306.5 304.4a171 171 0 0 0-38.5 19.1c-3 2.4-17.9 10.5-33 18s-30 15.7-33 18-12.5 7.8-21 12-18 9.7-21 12-9.8 6.4-15 9-12 6.7-15 9c-3 2.4-12.5 7.8-21 12s-18 9.7-21 12-9.8 6.4-15 9-12 6.7-15 9c-3 2.4-9.8 6.4-15 9s-12 6.7-15 9c-3 2.4-12.5 7.8-21 12s-18 9.7-21 12-9.8 6.4-15 9-12 6.7-15 9c-3 2.4-15.2 9.1-27 15s-24 12.7-27 15-9.8 6.4-15 9-12 6.7-15 9c-3 2.4-9.8 6.4-15 9s-12 6.7-15 9c-3 2.4-12.5 7.8-21 12s-18 9.7-21 12-9.8 6.4-15 9-12 6.7-15 9c-3 2.4-9.8 6.4-15 9s-12 6.7-15 9c-3 2.4-12.5 7.8-21 12s-18 9.7-21 12-12.5 7.8-21 12-18 9.7-21 12-12.5 7.8-21 12-18 9.7-21 12-9.8 6.4-15 9-12 6.7-15 9c-3 2.4-12.5 7.8-21 12s-18 9.7-21 12-12.5 7.8-21 12-18 9.7-21 12-12.5 7.8-21 12-18 9.7-21 12-9.8 6.4-15 9-12 6.7-15 9c-3 2.4-9.8 6.4-15 9s-12 6.7-15 9c-3 2.4-12.5 7.8-21 12s-18 9.7-21 12-9.8 6.4-15 9-12 6.7-15 9c-3 2.4-12.5 7.8-21 12s-18 9.7-21 12-9.8 6.4-15 9-12 6.7-15 9c-3 2.4-12.5 7.8-21 12s-18 9.7-21 12-9.8 6.4-15 9-12 6.7-15 9c-3 2.4-9.8 6.4-15 9s-12 6.7-15 9c-3 2.4-15.2 9.1-27 15s-24 12.7-27 15-7.1 5.1-9 6-6 3.7-9 6c-3 2.4-12.5 7.8-21 12s-18 9.7-21 12-7.5 5.3-9.9 6.5c-10 5-17.1 14.8-17.1 23.7a65 65 0 0 1-3 12.4c-4.5 13.4-4.3 87.3.1 94.9 3.5 5.9 20.4 22.2 26 25 2.4 1.2 6.9 4.1 9.9 6.5 3 2.3 7.4 5.2 9.6 6.3 9 4.6 10.9 9.5 7.4 19.5-2.4 6.7-2.9 33.8-.8 41.1 2.2 7.9 26.9 31.2 39.8 37.6 5.8 2.9 13 7.1 16 9.5a192 192 0 0 0 21.8 12.4 89 89 0 0 1 23.4 14.7c6.1 5.6 10.2 8.1 29.2 17.6 12.2 6 24.6 12.9 27.6 15.3 3 2.3 9.8 6.4 15 9s12 6.6 15 9c3 2.3 12.5 7.7 21 12s18 9.6 21 12c3 2.3 7.1 5 9 6s6 3.6 9 6c3 2.3 15.2 9.1 27 15a249 249 0 0 1 36 21c1.9.9 6 3.6 9 6 3 2.3 9.8 6.4 15 9s12 6.6 15 9c3 2.3 9.8 6.4 15 9s12 6.6 15 9c3 2.3 9.8 6.4 15 9s12 6.6 15 9c3 2.3 12.5 7.7 21 12s18 9.6 21 12c3 2.3 15.2 9.1 27 15a264 264 0 0 1 27.2 15.1c20 15.6 32 16.1 59.8 2.4a235 235 0 0 0 24.9-13.8c3.1-2.4 10.1-6.7 15.6-9.4a126 126 0 0 0 15.5-9.3c3-2.4 12.5-7.8 21-12s18-9.7 21-12 9.8-6.4 15-9 12-6.7 15-9c3-2.4 12.5-7.8 21-12s18-9.7 21-12 9.8-6.4 15-9 12-6.7 15-9c3-2.4 9.8-6.4 15-9s12-6.7 15-9c3-2.4 12.5-7.8 21-12s18-9.7 21-12 9.8-6.4 15-9 12-6.7 15-9c3-2.4 12.5-7.8 21-12s18-9.7 21-12 9.8-6.4 15-9 12-6.7 15-9c3-2.4 9.8-6.4 15-9s12-6.7 15-9c3-2.4 9.8-6.4 15-9s12-6.7 15-9c3-2.4 12.5-7.8 21-12s18-9.7 21-12 9.8-6.4 15-9 12-6.7 15-9c3-2.4 12.5-7.8 21-12s18-9.7 21-12 9.8-6.4 15-9 12-6.7 15-9c3-2.4 12.5-7.8 21-12s18-9.7 21-12 9.8-6.4 15-9 12-6.7 15-9c3-2.4 9.8-6.4 15-9s12-6.7 15-9c3-2.4 12.5-7.8 21-12s18-9.7 21-12 12.5-7.8 21-12a190 190 0 0 0 30-18c1.9-1 6-3.7 9-6 3-2.4 12.5-7.8 21-12s18-9.7 21-12 9.8-6.4 15-9 12-6.7 15-9c3-2.4 12.5-7.8 21-12a190 190 0 0 0 30-18c1.9-1 6-3.7 9-6 3-2.4 12.5-7.8 21-12s18-9.7 21-12 12.5-7.8 21-12 18-9.7 21-12 9.8-6.4 15-9 12-6.7 15-9c3-2.4 9.8-6.4 15-9s12-6.7 15-9c3-2.4 15.2-9.1 27-15s24-12.7 27-15 7.1-5.1 9-6a96 96 0 0 0 8.7-5.7c3-2.3 8-4.8 11.7-5.9 3.9-1.2 8.8-3.7 12.3-6.3 3.2-2.4 10.1-6.5 15.3-9.1s12-6.7 15-9c3-2.4 7.4-5.3 9.8-6.4a77 77 0 0 0 20.9-19.9c1.6-3.2 1.9-7.1 2.3-30.4.6-31.5 0-29.8 13.2-36.8 4.7-2.5 10.9-6.4 13.9-8.6 3-2.3 7.4-5.2 9.9-6.4 7.2-3.6 26.5-23.5 27.9-28.8 2.5-9.1 1-73.8-1.8-79.6a49 49 0 0 1-3.2-12.3 49 49 0 0 0-23.4-35.5 67 67 0 0 1-9.5-6.3c-3-2.3-7.1-5-9-6s-6-3.6-9-6c-3-2.3-12.5-7.7-21-12s-18-9.6-21-12c-3-2.3-9.8-6.4-15-9s-12-6.6-15-9c-3-2.3-9.8-6.4-15-9s-12-6.6-15-9c-3-2.3-9.8-6.4-15-9s-12-6.6-15-9c-3-2.3-7.1-5-9-6s-6.1-3.7-9.3-6.1a45 45 0 0 0-12.3-6.3 42 42 0 0 1-11.7-5.9 96 96 0 0 0-8.7-5.7c-1.9-.9-6-3.6-9-6-3-2.3-9.8-6.4-15-9s-12-6.6-15-9c-3-2.3-9.8-6.4-15-9s-12-6.6-15-9c-3-2.3-9.8-6.4-15-9s-12-6.6-15-9c-3-2.3-12.5-7.7-21-12s-18-9.6-21-12c-3-2.3-7.1-5-9-6s-6-3.6-9-6c-3-2.3-12.5-7.7-21-12s-18-9.6-21-12c-3-2.3-9.8-6.4-15-9s-12-6.6-15-9c-3-2.3-9.8-6.4-15-9s-12-6.6-15-9c-3-2.3-12.5-7.7-21-12s-18-9.6-21-12c-11.2-8.6-41.3-21.7-49.5-21.4-1.1 0-5.6 1.1-10 2.3m20.2 20.1a137 137 0 0 1 37.3 18c3 2.3 12.5 7.7 21 12s18 9.6 21 12c3 2.3 9.8 6.4 15 9s12 6.6 15 9c3 2.3 9.8 6.4 15 9s12 6.6 15 9c3 2.3 12.5 7.7 21 12s18 9.6 21 12c3 2.3 7.1 5 9 6s6 3.6 9 6c3 2.3 12.5 7.7 21 12s18 9.6 21 12c3 2.3 9.8 6.4 15 9s12 6.6 15 9c3 2.3 9.8 6.4 15 9s12 6.6 15 9c3 2.3 9.8 6.4 15 9s12 6.6 15 9c3 2.3 7.1 5 9 6s6.1 3.7 9.3 6.1c3.5 2.6 8.4 5.1 12.3 6.3 3.7 1.1 8.7 3.6 11.7 5.9a96 96 0 0 0 8.7 5.7c1.9.9 6 3.6 9 6 3 2.3 9.8 6.4 15 9s12 6.6 15 9c3 2.3 9.8 6.4 15 9s12 6.6 15 9c3 2.3 9.8 6.4 15 9s12 6.6 15 9c3 2.3 12.5 7.7 21 12s18 9.6 21 11.9 7.9 5.5 10.7 7.1c6.2 3.3 16.9 14 17.9 17.9 1 4.2-1.7 7-12.8 12.6-5.7 2.9-12.8 7.2-15.8 9.6s-12.5 7.7-21 11.9-18 9.7-21 12-9.8 6.4-15 9-12 6.7-15 9c-3 2.4-12.5 7.8-21 12s-18 9.7-21 12-12.5 7.8-21 12-18 9.7-21 12-9.8 6.4-15 9-12 6.7-15 9c-3 2.4-9.8 6.4-15 9s-12 6.7-15 9c-3 2.4-12.5 7.8-21 12s-18 9.7-21 12-9.8 6.4-15 9-12 6.7-15 9c-3 2.4-12.5 7.8-21 12s-18 9.7-21 12-9.8 6.4-15 9-12 6.7-15 9c-3 2.4-9.8 6.4-15 9s-12 6.7-15 9c-3 2.4-12.5 7.8-21 12s-18 9.7-21 12-12.5 7.8-21 12-18 9.7-21 12-9.8 6.4-15 9-12 6.7-15 9c-3 2.4-12.5 7.8-21 12a190 190 0 0 0-30 18c-1.9 1-6 3.7-9 6-3 2.4-12.5 7.8-21 12s-18 9.7-21 12-12.5 7.8-21 12a190 190 0 0 0-30 18c-1.9 1-6 3.7-9 6-3 2.4-12.5 7.8-21 12s-18 9.7-21 12-15.2 9.1-27 15-24 12.7-27 15-7.1 5.1-9 6-6 3.7-9 6c-3 2.4-12.5 7.8-21 12s-18 9.7-21 12-12.5 7.8-21 12a190 190 0 0 0-30 18c-1.9 1-6 3.7-9 6-3 2.4-12.5 7.8-21 12s-18 9.7-21 12-12.5 7.8-21 12-18 9.7-21 12-12.5 7.8-21 12a190 190 0 0 0-30 18 249 249 0 0 1-36 21c-11.8 5.9-24 12.7-27 15s-9.8 6.4-15 9-12 6.7-15 9c-3 2.4-12.5 7.8-21 12s-18 9.7-21 12-9.8 6.4-15 9-12 6.7-15 9a104 104 0 0 1-14.9 9c-5.2 2.6-12.1 6.8-15.5 9.3-12.5 9.6-16.4 10.7-37.6 10.7s-25.1-1.1-37.6-10.7c-3.4-2.5-10.3-6.7-15.5-9.3a104 104 0 0 1-14.9-9c-3-2.3-12.5-7.7-21-12s-18-9.6-21-12c-3-2.3-12.5-7.7-21-12s-18-9.6-21-12c-3-2.3-9.8-6.4-15-9s-12-6.6-15-9c-3-2.3-7.1-5-9-6s-6-3.6-9-6c-3-2.3-12.5-7.7-21-12s-18-9.6-21-12c-3-2.3-9.8-6.4-15-9s-12-6.6-15-9c-3-2.3-9.8-6.4-15-9s-12-6.6-15-9c-3-2.3-9.8-6.4-15-9s-12-6.6-15-9c-3-2.3-12.5-7.7-21-12s-18-9.6-21-12c-3-2.3-7.1-5-9-6s-6-3.6-9-6c-3-2.3-12.5-7.7-21-12s-18-9.6-21-12c-3-2.3-12.5-7.7-21-12s-18-9.6-21-12c-3-2.3-7.1-5-9-6s-6-3.6-9-6c-3-2.3-12.5-7.7-21-12s-18-9.6-21-11.9-10.1-6.6-15.7-9.5c-23.6-12.1-20.8-20.8 11.9-37.2a192 192 0 0 0 30.8-18.4 249 249 0 0 1 36-21c11.8-5.9 24-12.7 27-15s9.8-6.4 15-9 12-6.7 15-9c3-2.4 9.8-6.4 15-9s12-6.7 15-9c3-2.4 12.5-7.8 21-12s18-9.7 21-12 9.8-6.4 15-9 12-6.7 15-9c3-2.4 12.5-7.8 21-12s18-9.7 21-12 9.8-6.4 15-9 12-6.7 15-9c3-2.4 12.5-7.8 21-12s18-9.7 21-12 9.8-6.4 15-9 12-6.7 15-9c3-2.4 9.8-6.4 15-9s12-6.7 15-9c3-2.4 12.5-7.8 21-12s18-9.7 21-12 12.5-7.8 21-12 18-9.7 21-12 12.5-7.8 21-12 18-9.7 21-12 9.8-6.4 15-9 12-6.7 15-9c3-2.4 12.5-7.8 21-12s18-9.7 21-12 12.5-7.8 21-12 18-9.7 21-12 12.5-7.8 21-12 18-9.7 21-12 9.8-6.4 15-9 12-6.7 15-9c3-2.4 9.8-6.4 15-9s12-6.7 15-9c3-2.4 12.5-7.8 21-12s18-9.7 21-12 9.8-6.4 15-9 12-6.7 15-9c3-2.4 9.8-6.4 15-9s12-6.7 15-9c3-2.4 15.2-9.1 27-15s24-12.7 27-15 9.8-6.4 15-9 12-6.7 15-9c3-2.4 12.5-7.8 21-12s18-9.7 21-12 9.8-6.4 15-9 12-6.7 15-9c3-2.4 9.8-6.4 15-9s12-6.7 15-9c3-2.4 12.5-7.8 21-12s18-9.7 21-12 9.8-6.4 15-9 12-6.7 15-9c3-2.4 12.5-7.8 21-12s18-9.7 21-12 17.9-10.5 33-18 30-15.7 33-18a140 140 0 0 1 36.8-18c10.8-2.9 9.1-2.9 19.9 0m560.9 361c1.8 4.3 2.1 66.5.3 71.2a22 22 0 0 1-10.4 10.5c-2.2 1.2-6.5 4-9.5 6.3-3 2.4-10 6.5-15.5 9.3a77 77 0 0 0-17.4 11.6 32 32 0 0 1-14.1 8.6c-4.3 1.3-9 3.7-12.7 6.4-3.2 2.4-10.1 6.5-15.3 9.1s-12 6.7-15 9c-3 2.4-12.5 7.8-21 12s-18 9.7-21 12-9.8 6.4-15 9-12 6.7-15 9c-3 2.4-12.5 7.8-21 12s-18 9.7-21 12-12.5 7.8-21 12-18 9.7-21 12-12.5 7.8-21 12-18 9.7-21 12-9.8 6.4-15 9-12 6.7-15 9c-3 2.4-9.8 6.4-15 9s-12 6.7-15 9c-3 2.4-15.2 9.1-27 15s-24 12.7-27 15-7.1 5.1-9 6-6 3.7-9 6c-3 2.4-12.5 7.8-21 12s-18 9.7-21 12-9.8 6.4-15 9-12 6.7-15 9c-3 2.4-12.5 7.8-21 12s-18 9.7-21 12-12.5 7.8-21 12-18 9.7-21 12-9.8 6.4-15 9-12 6.7-15 9c-3 2.4-12.5 7.8-21 12s-18 9.7-21 12-9.8 6.4-15 9-12 6.7-15 9c-3 2.4-9.8 6.4-15 9s-12 6.7-15 9c-3 2.4-12.5 7.8-21 12s-18 9.7-21 12-9.8 6.4-15 9-12 6.7-15 9c-3 2.4-12.5 7.8-21 12s-18 9.7-21 12-9.8 6.4-15 9-12 6.7-15 9c-3 2.4-9.8 6.4-15 9s-12 6.7-15 9c-3 2.4-9.8 6.4-15 9s-12 6.7-15 9c-3 2.4-9.8 6.4-15 9s-12 6.7-15 9c-3 2.4-12.5 7.8-21 12s-18 9.7-21 12-12.5 7.8-21 12-18 9.7-21 12-9.8 6.4-15 9-12 6.7-15 9c-3 2.4-12.5 7.8-21 12s-18 9.7-21 12-9.8 6.4-15 9-12 6.7-15 9c-3 2.4-9.8 6.4-15 9s-12 6.7-15 9a104 104 0 0 1-14.9 9c-5.2 2.6-12.2 6.8-15.5 9.3-11.3 8.6-53.7 28.6-60.7 28.7-11.4 0-11.4.2-11.7-39-.3-39.1-.3-39.2 7.4-42a93 93 0 0 0 24.3-12.3c3.1-2.4 10.1-6.7 15.6-9.4a126 126 0 0 0 15.5-9.3c3-2.4 9.8-6.4 15-9s12-6.7 15-9c3-2.4 12.5-7.8 21-12s18-9.7 21-12 9.8-6.4 15-9 12-6.7 15-9c3-2.4 15.2-9.1 27-15s24-12.7 27-15 7.1-5.1 9-6 6-3.7 9-6c3-2.4 12.5-7.8 21-12s18-9.7 21-12 12.5-7.8 21-12 18-9.7 21-12 12.5-7.8 21-12a190 190 0 0 0 30-18c1.9-1 6-3.7 9-6 3-2.4 12.5-7.8 21-12s18-9.7 21-12 12.5-7.8 21-12a190 190 0 0 0 30-18 249 249 0 0 1 36-21c11.8-5.9 24-12.7 27-15s12.5-7.8 21-12a190 190 0 0 0 30-18c1.9-1 6-3.7 9-6 3-2.4 12.5-7.8 21-12s18-9.7 21-12 12.5-7.8 21-12a190 190 0 0 0 30-18c1.9-1 6-3.7 9-6 3-2.4 12.5-7.8 21-12s18-9.7 21-12 9.8-6.4 15-9 12-6.7 15-9c3-2.4 12.5-7.8 21-12s18-9.7 21-12 12.5-7.8 21-12 18-9.7 21-12 9.8-6.4 15-9 12-6.7 15-9c3-2.4 9.8-6.4 15-9s12-6.7 15-9c3-2.4 12.5-7.8 21-12s18-9.7 21-12 9.8-6.4 15-9 12-6.7 15-9c3-2.4 12.5-7.8 21-12s18-9.7 21-12 9.8-6.4 15-9 12-6.7 15-9c3-2.4 9.8-6.4 15-9s12-6.7 15-9c3-2.4 12.5-7.8 21-12s18-9.7 21-12 12.5-7.8 21-12 18-9.7 21-12 9.8-6.4 15-9 12-6.7 15-9c3-2.4 12.5-7.8 21-12s18-9.7 21-12.1c15-11.7 32.9-17.3 35.6-10.9m-66 144c1.7 4.2 2 28.6.3 33.4-1.5 4.2-16.3 15.3-28.8 21.6-5.2 2.6-11.8 6.5-14.7 8.7-3.1 2.3-8 4.8-11.8 5.9a45 45 0 0 0-12.3 6.3 89 89 0 0 1-9.3 6.1 249 249 0 0 1-36 21c-11.8 5.9-24 12.7-27 15s-9.8 6.4-15 9-12 6.7-15 9c-3 2.4-9.8 6.4-15 9s-12 6.7-15 9c-3 2.4-12.5 7.8-21 12s-18 9.7-21 12-12.5 7.8-21 12a190 190 0 0 0-30 18c-1.9 1-6 3.7-9 6-3 2.4-12.5 7.8-21 12s-18 9.7-21 12-9.8 6.4-15 9-12 6.7-15 9c-3 2.4-12.5 7.8-21 12a190 190 0 0 0-30 18c-1.9 1-6 3.7-9 6-3 2.4-12.5 7.8-21 12s-18 9.7-21 12-12.5 7.8-21 12-18 9.7-21 12-9.8 6.4-15 9-12 6.7-15 9c-3 2.4-9.8 6.4-15 9s-12 6.7-15 9c-3 2.4-12.5 7.8-21 12s-18 9.7-21 12-9.8 6.4-15 9-12 6.7-15 9c-3 2.4-12.5 7.8-21 12s-18 9.7-21 12-9.8 6.4-15 9-12 6.7-15 9c-3 2.4-12.5 7.8-21 12s-18 9.7-21 12-9.8 6.4-15 9-12 6.7-15 9c-3 2.4-9.8 6.4-15 9s-12 6.7-15 9c-3 2.4-9.8 6.4-15 9s-12 6.7-15 9c-3 2.4-12.5 7.8-21 12s-18 9.7-21 12-9.8 6.4-15 9-12 6.7-15 9c-3 2.4-12.5 7.8-21 12s-18 9.7-21 12-9.8 6.4-15 9-12 6.7-15 9c-3 2.4-9.8 6.4-15 9s-12 6.7-15 9c-3 2.4-12.5 7.8-21 12s-18 9.7-21 12-9.8 6.4-15 9-12 6.7-15 9c-3 2.4-12.5 7.8-21 12s-18 9.7-21 12a104 104 0 0 1-14.9 9c-5.2 2.6-12.2 6.8-15.5 9.3s-14.4 8.7-24.5 13.7c-26.6 13-38 12.7-56.7-1.7a255 255 0 0 0-27.5-15.3 244 244 0 0 1-26.9-15c-3-2.3-12.5-7.7-21-12s-18-9.6-21-12c-3-2.3-9.8-6.4-15-9s-12-6.6-15-9c-3-2.3-9.8-6.4-15-9s-12-6.6-15-9c-3-2.3-9.8-6.4-15-9s-12-6.6-15-9c-3-2.3-7.1-5-9-6s-6-3.6-9-6c-3-2.3-15.2-9.1-27-15a249 249 0 0 1-36-21 190 190 0 0 0-30-18c-8.5-4.2-18-9.6-21-12-3-2.3-9.8-6.4-15-9s-12-6.6-15-9c-3-2.3-15.5-9.3-27.8-15.4-19.1-9.6-23.2-12-29.4-17.7a86 86 0 0 0-23.2-14.6c-8.9-4.4-18.6-9.9-21.6-12.3-3-2.3-10.1-6.6-15.8-9.4-20.2-10.1-23.1-14.8-23.2-36.4 0-21.2 1.7-24.3 11.6-20.7a226 226 0 0 1 46.4 25.5 190 190 0 0 0 30 18c8.5 4.2 18 9.6 21 12 3 2.3 9.8 6.4 15 9s12 6.6 15 9c3 2.3 9.8 6.4 15 9s12 6.6 15 9c3 2.3 9.8 6.4 15 9s12 6.6 15 9c3 2.3 9.8 6.4 15 9s12 6.6 15 9c3 2.3 9.8 6.4 15 9s12 6.6 15 9c3 2.3 12.5 7.7 21 12s18 9.6 21 12c3 2.3 9.8 6.4 15 9s12 6.6 15 9c3 2.3 7.1 5 9 6s6 3.6 9 6c3 2.3 12.5 7.7 21 12s18 9.6 21 12c3 2.3 7.1 5 9 6s6 3.6 9 6a283 283 0 0 0 27.5 15.3c12.1 6 24.5 13 27.6 15.4 16.9 13.2 30.5 17.3 57 17.3 24.7 0 24.7 0 49.9-12.5a346 346 0 0 0 30.9-16.8c3.1-2.4 10.1-6.7 15.6-9.4a126 126 0 0 0 15.5-9.3c3-2.4 9.8-6.4 15-9s12-6.7 15-9c3-2.4 9.8-6.4 15-9s12-6.7 15-9c3-2.4 12.5-7.8 21-12s18-9.7 21-12 9.8-6.4 15-9 12-6.7 15-9c3-2.4 12.5-7.8 21-12s18-9.7 21-12 12.5-7.8 21-12 18-9.7 21-12 9.8-6.4 15-9 12-6.7 15-9c3-2.4 9.8-6.4 15-9s12-6.7 15-9c3-2.4 9.8-6.4 15-9s12-6.7 15-9c3-2.4 9.8-6.4 15-9s12-6.7 15-9c3-2.4 12.5-7.8 21-12s18-9.7 21-12 9.8-6.4 15-9 12-6.7 15-9c3-2.4 12.5-7.8 21-12s18-9.7 21-12 9.8-6.4 15-9 12-6.7 15-9c3-2.4 9.8-6.4 15-9s12-6.7 15-9c3-2.4 12.5-7.8 21-12s18-9.7 21-12 9.8-6.4 15-9 12-6.7 15-9c3-2.4 12.5-7.8 21-12s18-9.7 21-12 12.5-7.8 21-12 18-9.7 21-12 9.8-6.4 15-9 12-6.7 15-9c3-2.4 12.5-7.8 21-12a190 190 0 0 0 30-18 249 249 0 0 1 36-21c11.8-5.9 24-12.7 27-15s9.8-6.4 15-9 12-6.7 15-9c3-2.4 9.8-6.4 15-9s12-6.7 15-9c3-2.4 12.5-7.8 21-12s18-9.7 21-12 12.5-7.8 21-12 18-9.7 21-12 12.5-7.8 21-12 18-9.7 21-12 9.8-6.4 15-9 12-6.7 15-9c3-2.4 12.5-7.8 21-12s18-9.7 21-12 10-6.6 15.5-9.3 11.7-6.4 13.9-8.1c5.6-4.5 10.2-4.3 12.2.4M46 1101.1c5.8 2.7 13 7 16 9.3s12.5 7.8 21 12.1 18 9.6 21 12c3 2.3 7.1 5 9 6s6 3.6 9 6c3 2.3 12.5 7.7 21 12s18 9.6 21 12c3 2.3 12.5 7.7 21 12s18 9.6 21 12c3 2.3 7.1 5 9 6s6 3.6 9 6c3 2.3 12.5 7.7 21 12s18 9.6 21 12c3 2.3 9.8 6.4 15 9s12 6.6 15 9c3 2.3 9.8 6.4 15 9s12 6.6 15 9c3 2.3 9.8 6.4 15 9s12 6.6 15 9c3 2.3 12.5 7.7 21 12s18 9.6 21 12c3 2.3 7.1 5 9 6s6 3.6 9 6c3 2.3 9.8 6.4 15 9s12 6.6 15 9c3 2.3 12.5 7.7 21 12s18 9.6 21 12c3 2.3 12.5 7.7 21 12s18 9.6 21 12c3 2.3 9.8 6.4 15 9s11.9 6.6 14.9 8.9c3 2.2 9.3 6.2 14 8.7 13.5 7.2 12.6 4 12.6 44.9 0 39.5-.1 40-8.4 40-4.7 0-26.7-10.6-34.1-16.4a244 244 0 0 0-27-15.1 249 249 0 0 1-36-21 190 190 0 0 0-30-18c-8.5-4.2-18-9.6-21-12-3-2.3-7.1-5-9-6s-6-3.6-9-6c-3-2.3-9.8-6.4-15-9s-12-6.6-15-9c-3-2.3-12.5-7.7-21-12s-18-9.6-21-12c-3-2.3-9.8-6.4-15-9s-12-6.6-15-9c-3-2.3-9.8-6.4-15-9s-12-6.6-15-9c-3-2.3-9.8-6.4-15-9s-12-6.6-15-9c-3-2.3-9.8-6.4-15-9s-12-6.6-15-9c-3-2.3-9.8-6.4-15-9s-12-6.6-15-9c-3-2.3-12.5-7.7-21-12s-18-9.6-21-12c-3-2.3-7.3-5.1-9.5-6.3-2.2-1.1-6.5-4-9.6-6.4a304 304 0 0 0-49.2-24.3c-4.7-1.3-7.1-2.8-12.9-8.1a63 63 0 0 0-11.2-8.5c-2.2-1.2-6.6-4-9.6-6.4-3-2.3-7.3-5.1-9.5-6.3-11.1-5.7-11.5-7.1-11.5-45.8 0-44.5 0-44.4 21-34.3"/><path d="M1300.5 360.4a75 75 0 0 0-20.5 11.1c-3 2.4-12.5 7.8-21 12s-18 9.7-21 12-12.5 7.8-21 12-18 9.7-21 12-12.5 7.8-21 12-18 9.7-21 12-12.5 7.8-21 12-18 9.7-21 12-9.8 6.4-15 9-12 6.7-15 9c-3 2.4-9.8 6.4-15 9s-12 6.7-15 9c-3 2.4-12.5 7.8-21 12s-18 9.7-21 12-9.8 6.4-15 9-12 6.7-15 9c-3 2.4-12.5 7.8-21 12s-18 9.7-21 12-12.5 7.8-21 12-18 9.7-21 12-9.8 6.4-15 9-12 6.7-15 9c-3 2.4-12.5 7.8-21 12s-18 9.7-21 12-12.5 7.8-21 12-18 9.7-21 12-12.5 7.8-21 12-18 9.7-21 12-12.5 7.8-21 12a190 190 0 0 0-30 18c-1.9 1-6 3.7-9 6-3 2.4-12.5 7.8-21 12s-18 9.7-21 12-12.5 7.8-21 12-18 9.7-21 12-12.5 7.8-21 12-18 9.7-21 12-9.8 6.4-15 9-12 6.7-15 9c-3 2.4-12.5 7.8-21 12s-18 9.7-21 12-9.8 6.4-15 9-12 6.7-15 9c-3 2.4-12.5 7.8-21 12s-18 9.7-21 12-9.8 6.4-15 9-12 6.7-15 9c-3 2.4-12.5 7.8-21 12s-18 9.7-21 12-12.5 7.8-21 12-18 9.7-21 12-9.8 6.4-15 9-12 6.7-15 9c-3 2.4-9.8 6.4-15 9s-12 6.7-15 9c-3 2.4-12.5 7.8-21 12s-18 9.7-21 12-15.2 9.1-27 15-24 12.7-27 15-7.5 5.3-9.8 6.5a122 122 0 0 0-24.4 22.4c-5.3 7.3-3.3 13.3 7.9 23.7 7.7 7.2 10.2 8.2 23.3 8.9 13.5.7 14.7 1.2 19.9 8.8 7.5 11.1 15.4 17.3 34.2 26.8a82 82 0 0 1 26.4 17.4c10.9 10.4 13.6 11.9 22.9 13.1 11.4 1.4 19.8 6.1 31.6 17.4a71 71 0 0 0 32.1 19c4.4 1.2 7.2 2.9 13 8.1a59 59 0 0 0 30.5 15.4c9 1.2 9.7 1.5 18.1 9.1 3.7 3.3 8.5 7 10.7 8.1 2.3 1.1 6.6 3.9 9.6 6.3 3 2.3 10.2 6.6 16 9.6a71 71 0 0 1 16.6 11c7 6.5 9.5 8 17.8 10.4 10.6 3 17.4 7.2 27.7 17.1a67 67 0 0 0 31.4 18.6 70 70 0 0 1 23.2 11.9 107 107 0 0 0 14.5 8.5 79 79 0 0 1 18.1 12.1 70 70 0 0 0 11.1 8.5c2.2 1.1 6.7 4 9.9 6.4 16.4 12.3 45.8 8.2 64.4-8.9a59 59 0 0 1 24.9-14.2 35 35 0 0 0 17.9-10.5 59 59 0 0 1 25.2-13.9 76 76 0 0 0 25.3-12.6c3-2.4 7.3-5.2 9.5-6.3a78 78 0 0 0 11.4-8.6c5.7-5.1 8.7-7 13-8.2 8-2.3 10.5-3.8 17.6-10.4a59 59 0 0 1 25.2-13.9 76 76 0 0 0 25.3-12.6c3-2.4 7.3-5.2 9.5-6.3a78 78 0 0 0 11.4-8.6c5.8-5.2 8.6-6.9 13-8.1a74 74 0 0 0 28.9-15.9c8-7.3 15.7-11.6 25.9-14.5a75 75 0 0 0 25.3-12.6c3-2.4 12.5-7.8 21-12s18-9.7 21-12 9.8-6.4 15-9 12-6.7 15-9c3-2.4 9.8-6.4 15-9s12-6.7 15-9c3-2.4 12.5-7.8 21-12s18-9.7 21-12 9.8-6.4 15-9 12-6.7 15-9c3-2.4 9.8-6.4 15-9s12-6.7 15-9c3-2.4 12.5-7.8 21-12s18-9.7 21-12 12.5-7.8 21-12 18-9.7 21-12 9.8-6.4 15-9 12-6.7 15-9c3-2.4 12.5-7.8 21-12s18-9.7 21-12 7.4-5.3 9.8-6.5c2.4-1.1 8.7-6.3 14.1-11.5a61 61 0 0 1 28.8-17.4 44 44 0 0 0 13-6.5c3.2-2.4 18.4-10.7 33.8-18.4 24.6-12.3 28.9-14.8 35.4-20.6 5.7-5.1 8.6-7 13-8.2 8.5-2.5 10.7-3.9 20.7-13.5 8.1-7.7 10.1-9 15.1-10.4a224 224 0 0 0 53.2-27.9c5.8-5.2 8.5-6.9 13-8.1a72 72 0 0 0 32-18.9c8.8-8.3 10.8-9.7 15.8-11.1 14-3.8 33.4-14.7 44.2-24.9 8.7-8.2 10.9-9.8 15.8-11.2a34 34 0 0 0 17.8-10.4c5-4.6 7.6-6.3 12.2-7.5 3.2-.9 8.5-2.7 11.8-4s7.6-2.6 9.5-3c12-2.5 32.4-18.4 42.2-32.8 4.7-6.9 8.1-8.7 16.5-8.7 7.2-.1 11.7-1.7 18.2-6.5 2.9-2 8.1-4.6 11.8-5.7 8.1-2.4 11.3-5.4 11.3-10.4 0-4.4-17-22.4-25-26.4-2.5-1.2-7-4.1-10-6.5-3-2.3-9.8-6.4-15-9s-12-6.6-15-9c-3-2.3-9.8-6.4-15-9s-12-6.6-15-9c-3-2.3-12.5-7.7-21-12s-18-9.6-21-12c-3-2.3-7.1-5-9-6s-6-3.6-9-6c-3-2.3-12.5-7.7-21-12s-18-9.6-21-12c-3-2.3-12.5-7.7-21-12s-18-9.6-21-12c-3-2.3-7.1-5-9-6s-6-3.6-9-6c-3-2.3-12.5-7.7-21-12s-18-9.6-21-12c-3-2.3-9.8-6.4-15-9s-12-6.6-15-9c-3-2.3-9.8-6.4-15-9s-12-6.6-15-9c-3-2.3-9.8-6.4-15-9s-12-6.6-15-9c-3-2.3-9.8-6.4-15-9s-12-6.6-15-9c-3-2.3-12.5-7.7-21-12s-18.1-9.7-21.2-12.1c-14.2-11-38.2-16-53.3-11m5.1 25.3c3.8 9.1-1.9 18.8-12.6 21.3a646 646 0 0 0-73 36.5 346 346 0 0 1-32.5 17.7 412 412 0 0 0-33 17.8c-2.7 2.1-7.5 5.3-10.5 7s-7 4.5-8.8 6.1-5.4 4-8 5.3a61 61 0 0 0-9.2 6.1c-2.5 2.1-14.7 8.8-27.2 15.1a257 257 0 0 0-26 14.2c-1.8 1.6-6 4.4-9.2 6.3a77 77 0 0 0-22.7 21.1c-5 7.2-6.4 8-17.4 8.9-9.9.8-55.2 21.8-65.2 30.2-2.4 1.9-9.2 6-15.2 9.1s-12.8 7.2-15.2 9.2a252 252 0 0 1-27.2 15.1c-19.9 9.9-23.8 12.2-29.7 17.8s-9.8 7.9-29.7 17.8a252 252 0 0 0-27.3 15.2c-2.4 2-11.9 7.4-21 12s-18.6 10-21 12-9.2 6.1-15 9-12.6 7-15 9-12 7.5-21.2 12.1-18.2 9.6-20 11.2a77 77 0 0 1-9.8 6.7c-3.6 2-8 5-9.8 6.6a45 45 0 0 1-7.5 5 81 81 0 0 0-9.4 6.1 41 41 0 0 1-11.4 5.8 57 57 0 0 0-12.8 6.4 55 55 0 0 1-12.2 6c-3.2.9-8 3.4-11 5.6-3 2.3-13 7.9-22.3 12.7a86 86 0 0 0-23.7 14.9c-6 5.6-9.8 7.8-35.7 20.8-16 8-30.6 15.8-32.4 17.4s-6 4.4-9.3 6.3a96 96 0 0 0-15 12c-11 10.4-11.5 10.7-20.9 11.9-11 1.4-33 12.5-42.6 21.5a84 84 0 0 1-23.2 14.6c-8.9 4.5-19 10.2-22.3 12.6a285 285 0 0 1-27.7 15.4c-11.9 6-23.2 12.1-25 13.7s-6 4.4-9.3 6.3c-3.5 2-11.2 8.3-18.6 15.5-13.9 13.4-15.7 14.4-26.5 14.4-7.9 0-11.6 1.3-18.9 6.8-3.3 2.4-10.5 6.7-16 9.4-9.5 4.8-11 6-28.5 23.3-23.8 23.4-27.9 25.7-46.4 26.3-23.2.8-29.1-7.5-11.6-16.3a245 245 0 0 1 36.5-21.3c12.1-6 24-12.6 26.3-14.6a184 184 0 0 1 21.1-12c9.2-4.7 18.8-10.1 21.2-12.1 2.4-2.1 8.8-6 14.4-8.7a126 126 0 0 0 15.5-9.3c3-2.4 10-6.6 15.5-9.3s12-6.6 14.4-8.6c2.3-1.9 11.8-7.4 21-12a167 167 0 0 0 21.2-12.2c2.4-2 11.8-7.3 20.9-11.9s18.6-10 21-12 8.9-6 14.5-8.7c5.5-2.8 12.7-7.1 16-9.5s13-8 21.5-12.3 17.6-9.5 20-11.5 9.2-6.1 15-9 12.5-6.9 14.9-8.9c2.3-1.9 11.8-7.4 21-12a167 167 0 0 0 21.2-12.2c2.4-2 9.1-6 14.9-8.9s12.5-6.9 14.9-8.9c2.3-1.9 11.8-7.4 21-12 9.2-4.7 18.7-10.1 21-12a159 159 0 0 1 21-12 167 167 0 0 0 21.2-12.2c2.4-2 11.9-7.4 21.1-12 9.1-4.6 18.2-9.6 20-11.2a77 77 0 0 1 9.8-6.7c3.6-2 8-5 9.8-6.6s10.9-6.7 20-11.3a170 170 0 0 0 21.2-12.1c2.4-2 11.9-7.4 21-12s18.6-10 21-12 11.9-7.4 21-12 18.6-10 21-12a163 163 0 0 1 20.5-11.7 212 212 0 0 0 22-12.5c3.3-2.5 10.3-6.7 15.5-9.3a97 97 0 0 0 14-8.5c2.4-2 11.9-7.4 21-12s18.5-9.9 20.8-11.9a184 184 0 0 1 21.1-12 167 167 0 0 0 21.2-12.2c2.4-2 9.1-6 14.9-8.9s12.6-7 15-9 11.9-7.4 21-12 18.5-9.9 20.8-11.8 9.1-6 15.1-9.1 12.8-7.2 15.2-9.2 9.1-6 14.9-8.9 12.6-7 15-9a163 163 0 0 1 20.5-11.7 212 212 0 0 0 22-12.5c3.3-2.5 13-8 21.5-12.3s17.6-9.5 20-11.5 11.9-7.4 21-12 18.6-10 21-12 12-7.5 21.2-12.1 18.2-9.7 20.1-11.4c10.3-9 21.8-11.5 24.3-5.3m37.6-.7c3.3 1.7 7.6 4.4 9.5 6 1.9 1.7 11 6.8 20.1 11.4s18.7 10 21.1 12 9.2 6.1 15.2 9.2 12.8 7.1 15 9c2.3 1.9 9 5.9 15 9s12.8 7.2 15.1 9.1 9 5.9 14.8 8.8 12.6 7 15 9 8.7 5.8 14 8.5c5.2 2.6 12.2 6.8 15.5 9.3 3.3 2.4 13.3 8.1 22.2 12.6s17.7 9.4 19.5 11 6.2 4.6 9.8 6.6a77 77 0 0 1 9.8 6.7c1.8 1.6 10.9 6.6 20 11.2a170 170 0 0 1 21.2 12.1c2.4 2 11.9 7.4 21 12s18.5 9.9 21 12c2.4 2 6.5 4.7 9 6s6.6 4 9 6c2.3 2 11.9 7.4 21.1 12.1s18.7 10.1 21 12 9.1 6 14.9 8.9 12.5 6.9 14.9 8.9 9.6 6.3 16 9.6c15.4 7.9 24 15.4 22.6 19.6-2.5 7-19.7 7.4-29.1.8-3-2.1-8.3-5.6-11.7-7.7s-10-7.5-14.7-12.1a91 91 0 0 0-14.5-11.5 70 70 0 0 1-9.3-6.3c-4.4-3.8-42-22.3-49.5-24.3-5-1.4-7-2.7-15.7-11a102 102 0 0 0-13.8-11.4c-2.1-1-6.5-4-9.9-6.6a40 40 0 0 0-12.7-6.4 36 36 0 0 1-11.8-5.8c-2.9-2.2-9.9-6.4-15.6-9.3s-12.2-6.8-14.5-8.7c-2.2-1.9-9-5.9-14.9-8.9a88 88 0 0 1-14-8.3 73 73 0 0 0-8.8-6.1c-3-1.7-7.7-4.9-10.5-7s-15-8.8-27.2-14.9a225 225 0 0 1-25.5-14 73 73 0 0 0-8.8-6.1c-3-1.7-7.7-4.9-10.5-7s-9.6-6.1-15.3-9-12.2-6.8-14.5-8.7-11.6-7.2-20.7-11.8-18.6-10-21-12-8.7-5.8-14-8.5c-5.2-2.6-12.4-6.9-16-9.6l-9.7-7.1c-11-8-2-15.7 10.9-9.3m-17.1 49c2.2.6 6.7 3.7 10.8 7.5 4 3.5 9.6 7.7 12.6 9.4 14.6 8.3 10.3 14.1-22.9 30.8a305 305 0 0 0-28.6 15.8c-3 2.4-7.1 5.1-9 6s-6.1 3.9-9.5 6.4c-15.7 12-38.1 15-49.9 6.6-3.1-2.2-7.6-5.1-10-6.5-12-6.8-13.4-12.3-4.7-18.2 2.5-1.7 6-4.4 7.8-5.9s10.7-6.5 20-11.2a95 95 0 0 0 24.1-15.1 86 86 0 0 1 17.5-11.7c5.6-2.9 12.5-7 15.4-9.1 7.5-5.7 17-7.4 26.4-4.8m72.7 21c18.1 7.8 21.9 15.4 8.9 18a25 25 0 0 0-14.2 6.5 131 131 0 0 0-33.6 28.9c-6.3 8.5-1.1 19 13.1 26.1 1.9.9 6.1 3.7 9.2 6.1a47 47 0 0 0 33.8 11.9c19.3 0 24.4-2.8 48-26 17-16.8 17.9-17.5 21.7-17.5 5.4 0 22.3 8.3 28.8 14.2 2.8 2.5 7 5.5 9.4 6.7 2.3 1.3 6.8 4.3 10 6.9a90 90 0 0 0 14.9 8.9 91 91 0 0 1 14.5 8.6c2.9 2.3 9.4 6 14.5 8.2a71 71 0 0 1 13.9 7.8c2.6 2.1 7.6 5.2 11 6.7 8.6 3.9 8.6 6.1 0 10a57 57 0 0 0-10.7 6.5 101 101 0 0 1-14.4 8.7c-5.4 2.7-12.3 6.8-15.2 9a45 45 0 0 1-12 6c-14.4 4.3-15.6 12.6-2.7 19.8 3.2 1.8 8.5 5.8 11.8 9 4.2 4 9.3 7.4 16.5 11a133 133 0 0 1 16.3 9.6c11.5 8.6 17.3 8.3 37.2-1.4a75 75 0 0 0 21.2-13.5c7.2-6.6 11.5-8.7 17.9-8.7q11 0 15.6-9.8c2.3-4.8 5.3-5.5 11.3-2.7q12.7 6.4-5.5 17.5a87 87 0 0 0-8.8 6.1c-1.8 1.6-5.5 4-8.2 5.4a62 62 0 0 0-11.2 8.4 81 81 0 0 1-12.1 9.1q-17.9 10 0 20c7 4 23.3 18.8 23.3 21.2 0 4.9-8.9 8-16.8 5.8-3.2-.8-6.7-3.4-14.3-10.5-22.1-21-34.8-22.3-55.9-6-3 2.4-7.5 5.3-10 6.5-6.8 3.4-20.6 17.8-22 22.9-2.1 7.8-.2 11.2 12.6 23.7 13.1 12.7 13.8 14.6 8.3 20.8-8.5 9.7-23.5 12-33.3 5.1-3.1-2.2-8.1-5.4-11.2-7.2s-7.4-4.8-9.7-6.7c-16.5-13.5-30.4-13.3-48.5.8a94 94 0 0 1-10 6.6 122 122 0 0 0-24.4 22.4c-6.9 9.5-1.5 18.3 17.7 28.5 15.4 8.2 15 15.7-1.1 20.2-12.2 3.4-13.2 3.1-23.4-6.6a90 90 0 0 0-13.2-10.6 68 68 0 0 1-9.5-6.1c-11.7-8.9-20.9-8.9-32.6 0-2.8 2.2-9.8 6.3-15.4 9.1-34.6 17.2-37.4 36.4-8.1 53.8q16.6 9.6.1 16.1c-6.7 2.8-10.2 2.8-14.4-.3-1.9-1.3-5.6-3.7-8.3-5.2-2.7-1.6-7.8-5-11.3-7.6-19.1-14.4-36.2-16.6-49.6-6.6a196 196 0 0 1-21.8 12.4c-9.1 4.6-18.5 10-20.9 12s-6.2 4.6-8.4 5.7-6.6 4-9.6 6.3a173 173 0 0 1-21.5 12.3 163 163 0 0 0-20.5 11.7c-2.4 2-11.9 7.4-21 12s-18.6 10-21 12a163 163 0 0 1-20.5 11.7 212 212 0 0 0-22 12.5c-3.3 2.5-10.3 6.7-15.5 9.3a97 97 0 0 0-14 8.5c-2.4 2-8.9 6-14.5 8.7a126 126 0 0 0-15.5 9.3 173 173 0 0 1-21.5 12.3 163 163 0 0 0-20.5 11.7c-2.4 2-9.2 6.1-15 9s-12.6 7-15 9-11.9 7.4-21 12-18.5 9.9-20.8 11.8-9.2 6.1-15.4 9.2c-21.4 10.9-37.7 29.9-34.8 40.6 1.4 5.3 14.9 19 23.5 23.9 10.8 6.3 9.8 11.3-3.2 17.7-13.6 6.6-25.6 4.4-40.4-7.2-8-6.3-29.1-16.5-34.1-16.5-8.8 0-28.9 11.8-41.5 24.4-17.5 17.7-17.6 21.1-.4 38.9 17 17.6 17.2 21 1.3 25.1-10.4 2.7-12.3 2.3-19.4-4a64 64 0 0 0-10.3-7.6c-2.2-1.1-6.5-4-9.7-6.4-16.5-12.8-27.1-14.3-38.3-5.4a113 113 0 0 1-14.7 8.6 73 73 0 0 0-17 11.2 76 76 0 0 1-12.1 9.2q-17.8 10 0 20c3.2 1.8 8.5 5.8 11.9 8.9a64 64 0 0 0 11.8 8.9c13.3 7.5 7.8 16.1-11.5 17.9-5.5.5-5.5.5-12-5.2a66 66 0 0 0-10.4-7.7c-2.2-1.1-6.5-4-9.7-6.4a53 53 0 0 0-25-11.4c-7.2 0-30.3 11.8-39 19.8-7.8 7.3-9.5 8.2-15.1 8.2-10.9 0-15-10.5-6.3-16a80 80 0 0 0 7.8-5.7c2.4-1.9 14.4-8.6 26.8-14.8a243 243 0 0 0 27-15c2.4-2 6.2-4.6 8.4-5.7s5.9-3.5 8.1-5.3 6.6-4.7 9.8-6.5c6.8-3.8 8.7-6.2 8.7-10.9 0-4.2-23.2-28.2-31-32.1a72 72 0 0 1-10.2-6.6c-14.2-11.1-22.6-12.7-31.5-6-3.2 2.4-12.8 7.8-21.3 12.1s-18 9.7-21 12a173 173 0 0 1-21.5 12.3 171 171 0 0 0-20.5 11.7c-2.4 2-6.4 4.7-8.9 6a61 61 0 0 0-11 8c-6.3 5.6-6.5 5.7-11.5 5.3-18.8-1.6-16.1-12 6.2-24.1 11.1-6.1 22.2-18.4 22.2-24.7 0-6.1-11.7-19.3-21.4-24.2a76 76 0 0 1-9.8-6.4c-19.9-15.5-35.7-15.5-55.6 0a76 76 0 0 1-9.7 6.4 78 78 0 0 0-11.4 8.6c-11.5 10.3-27.3 11.5-29.6 2.3-1.3-5.1 14.5-22.7 25.2-28 11.3-5.7 11.3-13.6.1-19.3a89 89 0 0 1-14.9-12 97 97 0 0 0-14.6-11.8 57 57 0 0 1-8.8-5.6c-10.4-8.3-13.8-8.2-32.3.9a69 69 0 0 0-23.2 15.7c-10.2 9.6-13.9 10.5-23.5 5.8-8.2-3.9-6.2-7.5 8.4-15.3 24.8-13.4 25.5-37.2 1.5-49.4-2.8-1.4-7-4.2-9.4-6.2a76 76 0 0 0-24.4-12.4c-11.1-3-9.9-6.2 5.1-14.2 5-2.8 10.8-6.3 12.8-7.9 7.7-6.2 11.8-4 13.6 7.3 1.5 9.4 12.3 22.3 23.1 27.8 2.4 1.2 6.7 3.9 9.5 6.1a47 47 0 0 0 50.6 0c2.8-2.2 7.2-5 9.7-6.2 6.8-3.4 20.6-17.8 22-22.9 2.7-10.2-4.1-18.9-21.8-28-6.4-3.2-13.5-7.4-15.7-9.1a30 30 0 0 0-14.7-7.1c-12.3-2.6-8.6-9.7 9.4-18.5 12.7-6.1 17.8-5.2 17.8 3.3 0 7.7 6.6 16.2 17.3 22.5 4 2.3 8.7 5.4 10.5 7a51 51 0 0 0 7.5 4.9c2.3 1.2 6.6 3.9 9.4 6.1 11.7 8.9 20.9 8.9 32.6 0 2.8-2.2 9.5-6.1 14.7-8.7s12.2-6.8 15.5-9.2c3.3-2.5 7.6-5.3 9.7-6.4q7-3.4 6.8-9.8c-.2-6.4-29-34.1-37.7-38.5-22.8-11.4-23.4-20.6-2-31.1q29.3-14.4 17.2 4.5c-8.2 12.8.5 24.7 28.1 38.2 21.4 10.6 36.2 11 49.1 1.4 3.2-2.4 7.8-5.4 10.3-6.6 8.6-4.3 25-22 25-26.9 0-7.1-15.4-22.1-30.9-30-11.8-6.1-26.1-16.2-26.1-18.5q.2-4.5 13.1-11.1c14.1-7 19.3-5.7 21.9 5.6 2.5 10.8 18.3 27.5 33 35 15.3 7.7 38.3 7 49.7-1.5 3.2-2.4 7.8-5.4 10.3-6.6 8.5-4.3 25-22 25-26.8 0-5.2-9.6-16.1-18.2-20.6a105 105 0 0 1-10.8-7.1c-3-2.3-7.1-5-9-6s-6.2-3.8-9.5-6.3a81 81 0 0 0-9.2-5.9c-5.1-2.1-3.3-4.6 8.2-11.7 3.3-2.1 7.5-4.8 9.4-6.2q6.4-4.7 12 .1c2.9 2.5 3.8 4.5 6.1 13.4 1.9 7.3 19.5 24.6 31.4 30.8 19 10 41.5 6.2 59.5-10 6.1-5.6 8.5-7 14.3-8.8 8.6-2.5 11.8-5.4 11.8-10.5 0-4.5-22.8-28.3-31-32.4a80 80 0 0 1-10.2-6.5 30 30 0 0 0-18-7q-14-1.5-2.2-9.7l8.8-6.7a73 73 0 0 1 21.4-10.7c4.4-.9 5.5 1.3 4.3 8.2-2.1 10.9 7.2 24.5 22.1 32.4a70 70 0 0 1 12.4 9.1c13 12.1 14.9 12.1 41.6-1.2 24.6-12.2 40.8-26 40.8-34.7 0-5.2-9.6-16.1-18.2-20.7-2.9-1.5-8-4.8-11.3-7.2s-8.3-5.9-11.1-7.6c-22.9-14.2-22.9-14.1-2.4-24.6a88 88 0 0 0 13.4-8.2 87 87 0 0 1 20.9-10.9c8.4-2.7 7.5 2.8-2.1 13.1-13.4 14.3-12.9 17.2 4.9 34.5 26.6 25.7 60.8 22.7 91.7-8.1 13.4-13.4 13.8-18.1 2-24.1a64 64 0 0 1-11.8-8.9 62 62 0 0 0-11.1-8.5c-2.4-1.3-7-4.2-10.2-6.6a32 32 0 0 0-16.8-6.9c-7.3-1.1-9.4-6.1-4.8-11.2 4.3-4.6 47.7-24.8 49.6-23 1 1.1-1 5-5.6 10.5-6 7.2-7.1 9.3-7.1 13.5 0 7.4 12 19.2 27.6 27 6 3 12.7 6.9 14.9 8.7 5.8 4.6 8.9 6 13.5 6s7.7-1.4 13.5-6c2.2-1.8 8.7-5.6 14.5-8.5a81 81 0 0 0 17.9-11.9c6.1-5.5 8.5-6.9 14.3-8.7 14.2-4.2 16.3-15.6 3.5-18.9a31 31 0 0 1-17.7-9.6c-4.9-4.5-10.2-8-17.9-11.9a93 93 0 0 1-20.9-13.4c-7.6-5.3-5.9-8.1 9.1-15.6 13.9-7 19.1-5.7 21.7 5.6a50 50 0 0 0 23.5 27.2c2.8 1.4 7.3 4.4 10 6.6 11.5 9.5 36.6 9 50.3-1 3.1-2.2 8-5.5 10.8-7.2 29.2-18 29.2-18 10.7-36.9-13.2-13.3-20.7-18.1-47.4-29.8q-9-3.7 3.5-12.2c8.2-5.7 10.1-5.9 12.4-1.6 3.1 5.9 6.5 8.5 14.1 10.8 6.7 2 8 2.8 17 11.5 27.9 26.7 57.7 27.1 84.8 1.2 19.6-18.7 19.5-20.6-2.9-42.3-13.6-13.3-22.9-18.7-35-20.4-12.8-1.8-13.9-3.7-5.8-9.8l9.3-7c6.5-5.1 36.8-18.5 38.3-16.9 1.5 1.5-1.3 5.1-6.2 7.8-13.9 7.9-12.8 17.3 2.5 21.9 6.1 1.8 8.3 3.1 14.3 8.6 3.9 3.6 8.9 7.4 11.2 8.6s6.7 4 9.9 6.4c14.2 10.6 39.3 8.1 54.9-5.4a77 77 0 0 1 9.8-6.7c3.6-2 8-5 9.8-6.6s13.6-8.1 26.1-14.3c18.7-9.4 23.8-12.4 29.3-17.4 8.5-7.7 9.3-8.1 18.5-9.2q18-2 13.8-14.2c-2.7-7.3-2.8-8-1.4-8.9 1.7-1 3.3-.6 11.7 3.1m30 42.8c3.1 2.3 8 5.4 10.7 6.8 16.1 8.4 15.5 14.9-2.3 23.6-27.1 13.5-76.5-8.4-51.5-22.8 2.6-1.6 7.1-4.5 10-6.7a28 28 0 0 1 33.1-.9m-261.4 42c26 12.9 22.4 27.4-8.8 35.7-9.6 2.6-9.6 2.6-19.2 0-23.8-6.3-31.6-15.3-22.4-25.8a42 42 0 0 1 50.4-9.9m-63.8-2.6c.9 1.4-4 5.8-6.4 5.8-4.1-.1-4.8-1.9-1.9-4.5 3-2.6 7.1-3.3 8.3-1.3m-27.2 59.1c19.6 9.7 20.5 12.3 8.7 23.9-8.2 8-10.5 8.8-26.6 8.7-27.2-.1-46.2-19.8-33.3-34.4 7.5-8.7 32-7.8 51.2 1.8m549.9 11.8a59 59 0 0 1 19.3 17c4 7.8.1 12.3-17.8 20.9-17.4 8.4-23.2 8.9-32.2 2.5-3.1-2.2-9.4-6.1-13.9-8.6-14.5-8.2-14.7-11.6-1.4-18.8 3.9-2.2 9.8-5.8 13-8.1 8.1-5.9 21.9-8 33-4.9m-652.6 34.2c3.2 2.4 9.6 6.3 14.1 8.7 16.6 8.6 16.6 15.4 0 24-4.5 2.4-10.9 6.3-14.1 8.7-8.3 6-13.1 6.1-21.3 0-3.3-2.4-9.5-6.2-13.9-8.6-14.7-7.8-15.1-12.8-1.8-20.3 3.1-1.7 8.1-5.4 11.2-8.3 11.5-10.6 16.1-11.3 25.8-4.2m750.7 23.1c22.4 10.8 17.3 27.5-11.1 35.5-3.7 1-8.5 2.6-10.5 3.5-8.2 3.5-11.8 2.5-24.1-6.7-12.1-9.1-11.9-12.4 1.6-22.5 20-15 29-17 44.1-9.8m-836 36.1c3.1 2.2 8.2 5.5 11.2 7.3q18 10.9-10.6 24.6c-18.6 8.9-52-.1-52-14.1 0-4.4 14.2-19.4 20-21.2 9-2.7 25.3-.9 31.4 3.4m735.2 18.5c23.5 11.4 23.2 21.7-1 33.6-20 9.8-24.3 9.7-38.8-1.1-13.4-10-13.3-13 .7-23.5 18.5-13.9 25.6-15.5 39.1-9m-839.3 28.1c1.2.7 3.5 2.3 5.1 3.6a47 47 0 0 0 7.7 4.8c2.6 1.4 7.7 5 11.3 8 10.9 9.2 10 10.5-16.4 23.4-21.3 10.5-25.4 10.7-34 1.6a84 84 0 0 0-9.8-8.2c-13.9-10-11.9-14.5 12.1-26.3 16-8 19.8-9.1 24-6.9m724 37.2c26.5 12.3 26.5 21.4-.1 34.5-17.7 8.7-23.4 9.2-32.6 2.7-3.1-2.2-8.2-5.5-11.2-7.3q-14-8.4-.7-15.8c2.6-1.5 7.3-4.7 10.3-7 13.5-10.5 22.8-12.4 34.3-7.1m-805.9 24.2c3.1 2.2 8 5.4 10.8 7.1 9 5.4 9.9 9 4.2 15.4-21.5 23.7-77.2 11.5-67.2-14.8 4.6-12.2 38.7-17.3 52.2-7.7m702.3 36.2c3 2.1 7.8 5.3 10.8 7.1 15.8 9.5 13.2 15.8-11.7 28.2-20.1 10.1-21.3 10.2-29.8 2.6-3.4-3-8.4-6.8-11.3-8.4-13.2-7.5-12.7-12.6 1.8-20.3a129 129 0 0 0 13.2-8.2c9.5-7.1 17.9-7.4 27-1m-806.4 10.4c1.2.7 3.5 2.3 5.1 3.6a47 47 0 0 0 7.7 4.8c2.6 1.4 7.7 5 11.4 8.1 8.3 7.1 8.5 9.2.9 14.4l-10.9 7.5c-12.5 8.7-44.6 4.8-55-6.7-7.7-8.4-3-19.8 9.4-22.8a92 92 0 0 0 14.5-5.6c9.4-4.5 13.2-5.2 16.9-3.3m705.8 49c22.4 10.7 26.2 21 10.7 29.4a80 80 0 0 0-10.8 7.1c-3 2.3-12.5 7.7-21 11.9s-18 9.7-21 12-9.8 6.4-15 9-12 6.7-15 9c-3 2.4-12.5 7.8-21 12s-18 9.7-21 12-12.5 7.8-21 12-18 9.7-21 12-9.8 6.4-15 9-12 6.7-15 9c-3 2.4-9.8 6.4-15 9s-12 6.7-15 9c-3 2.4-12.5 7.8-21 12s-18 9.7-21 12-9.8 6.4-15 9-12 6.7-15 9c-3 2.4-9.8 6.4-15 9s-12 6.7-15 9c-3 2.4-12.5 7.8-21 12s-18 9.7-21 12c-7 5.4-13.9 8.9-23.2 11.6l-10.9 3.2c-5.1 1.5-8.3.3-14.7-5.6a112 112 0 0 0-10.4-8.5q-18.2-12.5 9.6-26.4c5.6-2.8 12.6-7 15.6-9.3s12.5-7.8 21-12 18-9.7 21-12 9.8-6.4 15-9 12-6.7 15-9c3-2.4 12.5-7.8 21-12s18-9.7 21-12 9.8-6.4 15-9 12-6.7 15-9c3-2.4 9.8-6.4 15-9s12-6.7 15-9c3-2.4 12.5-7.8 21-12s18-9.7 21-12 12.5-7.8 21-12 18-9.7 21-12 12.5-7.8 21-12a190 190 0 0 0 30-18c1.9-1 6-3.7 9-6 3-2.4 12.4-7.8 20.9-12s17.8-9.5 20.7-11.7c9.6-7.2 21.5-7.8 34.5-1.7m-801.8 5 5 3.5c1.6 1.3 7.8 4.9 13.8 8 16.3 8.3 17.7 12.5 6.7 19.4-3.1 1.9-8.2 5.3-11.4 7.5-14.9 10.5-60.3-1.6-56.9-15.2 1.2-5.3 15.4-17.9 22.1-19.8l9.4-3c4.3-1.7 8.5-1.9 11.3-.4M415 965.9c3 2.2 8.1 5.5 11.3 7.2 16.7 9.2 16.6 17.8-.4 27.9-3.2 1.9-8.4 5.3-11.5 7.5-5.2 3.7-6.1 4-12.4 4s-7.2-.3-12.4-4c-3.1-2.2-8.2-5.5-11.4-7.3-20.1-11.7-20.1-20.9 0-31.3 20.6-10.5 26.8-11.2 36.8-4m-90.6 59.6c3.1 2.2 8 5.4 10.9 7.2 9.1 5.5 11.8 11.4 7 15.2-16.4 12.7-17.6 13.1-33.8 13-28.2-.1-48.5-22.4-31-34 11.5-7.7 37-8.4 46.9-1.4m-94.3 53.7c20.4 9.7 24.4 21.2 10.1 29.5-2.6 1.5-7.3 4.7-10.6 7-8.8 6.5-11.3 6.2-31.1-3.5-16.7-8.2-21.6-11.5-24-16.3q-5.6-11 9.3-15.2c3.1-.9 8.2-2.5 11.2-3.7a52 52 0 0 1 35.1 2.2m89.5 55.1c3.3 2.4 8.3 5.6 11.2 7.2 15.7 8.5 15.7 18.5 0 27a93 93 0 0 0-9.2 5.7c-8.6 6.2-33.2-1.3-44.1-13.5-8.7-9.6-5.9-14.5 13.8-24.2 16.7-8.3 19.7-8.5 28.3-2.2m108.5 53c9.6 4.5 23.9 15.7 23.9 18.7 0 2.3-12 12.5-19.8 16.8-2.6 1.4-7.3 4.5-10.6 6.9-9.9 7.3-18.6 5.2-37.1-8.7-14.1-10.6-14.1-13.4-.2-23.8 19.9-14.9 28.8-16.9 43.8-9.9m391.4 3.5c21.6 10.5 24 15.2 12.9 24.7-15.4 13-35.6 18.8-44.1 12.6a88 88 0 0 0-8-5c-17.2-8.7-14-21.5 8.2-32.3 15.2-7.3 15.8-7.3 31 0m-240.8 14.8c3.2 1.4 8.3 4.4 11.3 6.8s7.7 5.5 10.3 7c14.2 8.1 5.4 18.7-30.4 36.6a290 290 0 0 0-27.9 15.5c-3 2.4-7.3 5.2-9.6 6.3s-7 4.8-10.7 8.1c-7.4 6.7-10.4 7.9-15.6 6.4l-10.9-3.2c-17.6-5.1-31.6-16.2-29.8-23.5.9-3.7 17.1-14.8 33.6-23.1 8.5-4.3 18-9.7 21-12s12.7-7.9 21.6-12.3c8.8-4.4 17.4-9.1 19-10.5 6.7-5.5 9.6-5.9 18.1-2.1m131.6 41.8c4 1.8 9.8 5.3 12.9 7.7 3.2 2.4 7.5 5.6 9.8 7.1 5.9 4.1 5.5 6.4-2.6 13.3a67 67 0 0 1-25.6 13.6l-10.9 3.2c-5.1 1.5-8.3.3-14.7-5.6a112 112 0 0 0-10.4-8.5c-10.8-7.4-9.3-13.6 5.4-21.2 4.5-2.4 10.9-6.3 14.1-8.7 7.6-5.6 11.8-5.7 22-.9m-100.9 60.5c8.8 4.3 19.9 14.5 21.2 19.5 1.9 7.6-12.2 14.9-29.8 15.5-19 .5-19.7.3-36.5-12.7-7-5.4-2.8-10.9 15-19.7 16.2-8 18.5-8.2 30.1-2.6"/><path d="M1300.7 534.4c-2.1.8-5.9 3-8.4 5s-9.5 6.1-15.4 9.1q-51.8 26.4-5.9 49c5.2 2.6 12.1 6.7 15.3 9.1 15 11.2 24.1 11.3 46.3.1 29.6-14.8 39.7-27.1 31.6-38.3-15.1-20.6-49.7-39.2-63.5-34m27.8 26c24.3 11.9 24.5 15.8 1.7 27.4-19.1 9.8-28.3 9.6-42.7-.6l-10.5-7.4c-6.9-4.8-4.9-8.8 7-14.8 2.4-1.3 6.8-4 9.6-6.2 10.5-7.9 16.2-7.6 34.9 1.6m170-26a180 180 0 0 0-32.5 17.1 173 173 0 0 1-21.5 12.3 163 163 0 0 0-20.5 11.7 109 109 0 0 1-15.2 9.1c-33.6 16.9-38.2 38.6-10.9 52.4 2.3 1.2 7.1 4.8 10.6 8 11.8 11 23.8 14.5 37.2 11a85 85 0 0 0 28.3-13.5c2.4-2 11.9-7.4 21-12s18.5-9.9 21-12c2.4-2 6.5-4.7 9-6s6.6-4 9-6 6.7-4.8 9.4-6.2c8.9-4.4 25.6-22.1 25.6-26.9 0-5.2-2-7.9-8.2-11a78 78 0 0 1-10.6-7.1 87 87 0 0 0-15.2-9.1 82 82 0 0 1-13.5-7.7 23 23 0 0 0-23-4.1m20.2 23.3c3 2.1 8.2 5.5 11.6 7.6 15 9.1 12.9 18-6.6 27.9a71 71 0 0 0-9.7 6.3c-3 2.4-12.5 7.8-21 12s-18 9.7-21 12c-13.8 10.8-30.7 15.6-43.1 12.5-10.9-2.8-12.2-3.6-20-11.7-10.7-11.1-10.3-14 3.2-21.2 4.7-2.5 11-6.5 14-8.7 3-2.3 12.4-7.7 20.9-11.9s18-9.7 21-12a153 153 0 0 1 29.5-15.7 21 21 0 0 1 21.2 2.9M1217 585c-5.2 1.5-22.8 11-27 14.5-2.4 2-6.2 4.6-8.4 5.7a86 86 0 0 0-10.1 6.5 88 88 0 0 1-9.7 6.4c-9.9 5-9.2 12.7 1.8 18.9 3.1 1.7 8.8 6.1 12.6 9.7a75 75 0 0 0 44.8 19.7c20.9.1 56-22.8 56-36.4 0-8-17.1-25-33-33-5.8-2.9-12.5-6.7-15-8.5-5.1-3.6-8.4-4.6-12-3.5m10.6 22.8c2.2 1.6 8.5 5.2 14.1 8.1 11.6 5.9 15.8 10 14.8 14-1.8 7.2-21.9 16.6-35.5 16.6-10.7 0-30.8-8.2-34.7-14.1-3.8-5.9 3.2-14.1 18.9-21.9 12.9-6.5 16.5-6.9 22.4-2.7m94.3 29.2a80 80 0 0 0-20.7 13.4c-7.2 6.6-11.3 8.6-18.2 8.6-17.3.2-18.8 15-2 20 6.7 2 8 2.9 16.4 11 5 4.8 12 10.5 15.6 12.6s8.4 5.2 10.8 7c10 7.7 26 7.4 35.7-.8 1.7-1.4 5.7-4 9-5.9 6.4-3.5 28.6-24.4 31.1-29.1 3.7-7.2-2.1-12.8-13.3-12.8-.3 0-5.8-5.2-12.4-11.5-22.3-21.6-30.2-23.5-52-12.5m31.5 16.9c6.2 3 9.7 5.6 14.9 10.9 9.2 9.6 9 12.5-1.1 18.6l-10.8 7.1c-5.6 4-5.6 4-15.4 4s-9.8 0-15.4-4c-3.1-2.2-8.1-5.5-11.1-7.3-15.2-9.1-13-16 8.8-26.7 16.2-8 18.5-8.2 30.1-2.6m-235.9-13.5c-3.9 1.8-9 5-11.4 7a65 65 0 0 1-9.2 6.2c-2.7 1.3-7.6 5-11.1 8.3a81 81 0 0 1-12.1 9.1q-17.8 10-.1 20c3.1 1.7 8.8 6.1 12.6 9.7 10.3 9.7 31.1 19.6 41.4 19.7 18.2.2 63.4-31.9 63.4-45.1 0-6.4-9.7-13.3-39.3-28.3-22.8-11.5-23.8-11.7-34.2-6.6m26.2 22.6c26.8 13.2 27.7 19.3 4.5 30.8-18.5 9.1-21.6 9.2-38.4 1-14.3-7-17.6-10.9-15.2-17.2.9-2.4 18.5-15.3 24.6-18.1 8.1-3.7 10.8-3.3 24.5 3.5m359.8-20.1c-2.2 1-5.8 3.3-8 5.1a121 121 0 0 0-33.7 28.4c-7.8 10.8 2.4 23.9 29.1 37 27.4 13.5 46.1 10 68.8-12.8 19.4-19.6 17.3-29.8-9-43.2-6.2-3.1-13.6-7.4-16.4-9.6-9.2-7-21.9-9-30.8-4.9m27 22.7c3.1 2.1 8 5.4 11 7.2q20.5 12.3-3.3 23.9a49 49 0 0 1-44.9-2.2c-16.8-8.6-18.2-12.8-6.8-20.2l10.8-7.4c10.7-7.6 23.6-8.1 33.2-1.3m-289 18.3c-15.1 4-40 21.3-49.7 34.5q-9.5 13 12.7 25.8c3.9 2.3 8.5 5.4 10.4 7.1 6.2 5.4 30.7 16.7 36.1 16.7 15.4 0 60-32.8 60-44.1q.1-6.4-6.8-9.8a88 88 0 0 1-9.7-6.4 86 86 0 0 0-10.1-6.5c-2.2-1.1-6-3.7-8.5-5.8-10-8.4-25.9-13.8-34.4-11.5m21.8 23.9c6.2 3 9.8 5.6 14.4 10.5 11 11.4 10 13.8-8.9 23.2-17.6 8.7-18.1 8.7-36.5-.4-25.7-12.8-27.5-19.2-8.2-29.1 20.5-10.5 25-11 39.2-4.2m-247.9-7.5c-11 5.6-21.8 11.7-24 13.5a34 34 0 0 1-10.8 5.3c-19.7 5.9-16.4 13 14.4 31.4 3.7 2.2 8.2 5.3 10.1 6.9 6.5 5.5 30.5 16.6 36 16.6a52 52 0 0 0 24.9-11.5c2.4-2 6.7-4.8 9.4-6.2 3.1-1.5 9.2-6.6 15.4-12.8 14.7-14.7 14.6-16.1-2.8-28-3.6-2.5-8.5-5.5-11-6.9a93 93 0 0 1-10.5-6.9c-19.9-14.9-24.3-15-51.1-1.4m38 13.6q29 14 12.9 27.7c-16.4 13.9-24.4 15-42.8 6.1-27.6-13.4-27.6-17.9-.5-31.1 16.6-8.1 18.8-8.3 30.4-2.7m333.5-4.3a119 119 0 0 0-39 32.8q-9.4 13 12.6 25.8c3.9 2.3 8.5 5.5 10.4 7.1 21.5 18.5 53 13.1 79.8-13.7 13.7-13.7 13.8-15.3 3.1-26.1-4-4-9.3-8.2-11.8-9.5-2.5-1.2-7-4.1-10-6.5-3-2.3-7.1-5-9-6s-6.1-3.7-9.3-6.1c-8.2-6.1-10.2-6-26.8 2.2m21.4 14.5c1.2.7 3.5 2.3 5.1 3.6a47 47 0 0 0 7.7 4.8c7.4 3.8 17.9 13.2 17.9 16 0 6.5-24.4 18-38 18-15.5 0-34-10.6-34-19.5 0-9.2 32.8-27.3 41.3-22.9m-262.9 11.3c-2.7 1.9-6.9 4.7-9.4 6.2-21.2 12.7-34.7 29.4-32 39.5a62 62 0 0 0 21.2 22.4c2.9 1.5 7.7 4.6 10.5 6.8a38 38 0 0 0 44.7-.2 72 72 0 0 1 9.6-6.1c8.6-4.3 25-22 25-26.9 0-5.5-14.3-20.9-25.5-27.4a80 80 0 0 1-10.4-7c-11.6-10-25.6-13-33.7-7.3m20.4 19.6c3.7 1.7 9.2 5 12.2 7.4 3 2.3 7.7 5.5 10.3 7q13.4 7.5-.7 15.8c-3 1.8-8 5.1-11.1 7.2-6 4.3-16.6 5.9-27.9 4.2a68 68 0 0 1-22.8-14.7c-4.5-5.4-.5-14.5 8.4-19 2.2-1.1 6.7-4 10-6.5 7.6-5.5 11.7-5.8 21.6-1.4m-227.5-11.6A133 133 0 0 1 922 753c-32.3 16.1-36.9 36.6-11.7 51.2 4 2.2 9.7 6.4 12.7 9.3 9 8.5 10.5 9 25.5 9 15.7 0 23.7-3.3 36.3-14.9 6-5.5 8.2-6.8 14.3-8.6 17.3-5.2 16.8-9.3-4.3-30.7-25.8-26.1-44.1-34.2-56.5-24.9m26.3 22c25.7 12.7 26.9 21.8 4.6 32.8-16.9 8.5-33.2 6.9-44.8-4.4-11.9-11.5-12-15.2-.7-21.4 8.8-4.8 14-7.9 18.2-10.9 5.1-3.8 8.3-3.2 22.7 3.9m325.8 1.4c-14.7 7.3-19.4 10.2-24.5 15-3.5 3.3-9 7.4-12.2 9.2-12.8 7.2-12.1 12.5 3.2 22.4l25.2 16.7c20.9 16.3 50.2 12.3 74.1-9.9a76 76 0 0 1 12.1-9.2c15.1-8.5 12.5-13.4-16.8-31.1a92 92 0 0 1-10.3-7.1 122 122 0 0 0-28.9-14.4c-3.4-.5-5.9.5-21.9 8.4m36.2 17.7c24.7 12 26.2 19.8 5.9 30.1-19.7 9.9-39.1 7.3-52.3-7-8.4-9.1-7-11.8 9.9-20.6 20.4-10.5 20.1-10.5 36.5-2.5m-275.3 5.8a90 90 0 0 0-11.7 7.5c-2 1.8-5.8 4.3-8.5 5.6-10.4 5.3-22.1 18.3-22.1 24.6 0 8.6 17 25 35.7 34.3 21 10.6 26.4 11 38.1 3 3.7-2.6 9.2-5.4 12.2-6.3 7.5-2.3 9.3-3.3 16.1-9.6a82 82 0 0 1 11.4-8.5q17.6-10-.2-19.9a95 95 0 0 1-14.8-12 67 67 0 0 0-23.4-15.9c-18-8.9-20.6-9.1-32.8-2.8m31.4 22.2c21.8 10.7 24 17.6 8.8 26.7-3 1.8-8 5.1-11.1 7.3-8.8 6.2-15 5.9-30.9-1.8-24.1-11.7-25.4-15-10.4-26.2 19.6-14.6 24.8-15.3 43.6-6m-240.3-13.6a84 84 0 0 0-21.3 13.4c-7.4 6.7-11.4 8.7-18.1 8.7-15.4.1-18.7 12.4-5.4 20 3.1 1.7 8.4 5.7 11.8 8.9q6.3 5.9 17.2 11.4c6 3.1 13.3 7.4 16.2 9.6 11 8.3 17.5 8 37.4-2 14-7 26.3-16.8 33-26.2 6-8.4-2.4-24.1-17.6-32.9a85 85 0 0 1-10.5-7.1c-14.1-12.1-24.1-13-42.7-3.8m31 17c6 2.9 9.7 5.6 14.3 10.4 11 11.5 10.1 13.8-9.5 23.5-17.7 8.7-23.4 9.2-32.6 2.7-3.1-2.2-8.1-5.5-11.1-7.3-15.2-9.1-13-16 8.8-26.7 16.2-8 18.5-8.2 30.1-2.6m328.4 1.2c-11.9 6-15 8-22.7 15.4-5 4.7-9.2 8.5-9.4 8.5-7.4 0-14.7 3.8-14.7 7.7 0 5.6 15.9 22.7 25.7 27.6 2.7 1.4 6.9 4.2 9.4 6.3 22.8 19.2 48.5 13.8 78.2-16.5 15.7-15.9 16.7-20.5 5.9-26a88 88 0 0 1-9.7-6.4c-3.3-2.4-10.6-6.8-16.2-9.6-5.6-2.9-11.9-6.6-14-8.3-10.2-8.1-14.3-8-32.5 1.3m30.3 17.4 12.9 8.8c14.8 9.6 13.6 14.1-6.4 24.2s-32.1 9-46.5-4c-12.1-10.9-9.6-16.7 11.2-27 16.8-8.3 19.5-8.5 28.8-2m-260.6 5.4C951 845.3 919 871 919 882c0 6.1 11.5 19.2 21.1 24 2.4 1.2 7 4.2 10.1 6.5 6 4.5 22.4 10.5 28.6 10.5 5.5 0 27.9-12 36.1-19.4 6.1-5.5 8.5-6.9 14.3-8.7 14.8-4.4 16.1-12.6 3.1-19.9-3.5-1.9-10.7-8-17.8-15q-25.2-24.9-43-20.1m21.9 24c15.4 7.4 21.1 16.8 14.9 24.2-6.4 7.6-29.3 16.4-36 13.8-1.5-.6-5.5-1.9-8.9-2.8-7.5-2.1-22.9-12.9-23.8-16.7-1.3-4.9 2.6-8.5 16.4-15.4 18.8-9.5 23.5-9.8 37.4-3.1m-232.9-17.6a69 69 0 0 0-28.3 19.1c-22.3 21.7-22.5 23.4-3.1 42.2 28.4 27.5 57.7 25.9 88.7-5 19.3-19.3 19.2-19.6-12.3-38.7a104 104 0 0 1-10.4-7.2c-9.6-8.2-26.1-13.2-34.6-10.4m21.6 22.9c20.4 9.5 26 23.4 12.6 31.2a44 44 0 0 1-33.3 5.1c-29.3-7.8-34.5-21.9-12.4-33.9 13.9-7.6 20.8-8.1 33.1-2.4m334.9-3.1-6.4 4.6a123 123 0 0 1-13.5 7.8c-5.8 2.9-12.6 6.9-15.1 8.9a37 37 0 0 1-11.4 5.7c-14.6 4.4-15.8 12.7-2.9 19.9a98 98 0 0 1 15.3 12.4 67 67 0 0 0 23.5 15.9c20 9.6 25.8 9.8 37.2 1.3 3.2-2.4 10.1-6.5 15.3-9.1s12.2-6.8 15.5-9.2c3.3-2.5 7.6-5.3 9.7-6.4 9.9-5.1 9.2-12.7-1.9-18.9a81 81 0 0 1-12.1-9.1c-3.5-3.3-8.4-7-11.1-8.3a65 65 0 0 1-9.2-6.2c-11.5-9.6-25.7-13.7-32.9-9.3m18.5 20.8c8 3.7 24.1 15.6 24.9 18.4q1.2 5.1-6.9 10.4l-10.8 7.4c-11.1 8-16.6 7.7-35.5-1.6-22.3-11-23.6-15.6-6.7-24.6 4.4-2.4 10.6-6.2 13.9-8.6 7.3-5.4 11.6-5.7 21.1-1.4m-271.1 11.9c-14.7 7.3-19.4 10.2-24.5 15-3.5 3.3-9 7.4-12.2 9.2-15.1 8.5-12.5 13.4 16.8 31.1 3.9 2.3 8.5 5.5 10.3 7.1a89 89 0 0 0 30.2 14.2c7.1 0 18.1-3.9 24.7-8.8 3.2-2.4 7.8-5.4 10.3-6.6 7.7-3.8 25-22 25-26.1 0-4.7-2.2-7.5-8.3-10.6a84 84 0 0 1-14.7-11.8 67 67 0 0 0-20.7-14.9c-16.7-8.3-15.5-8.4-36.9 2.2m36.2 17.7c19.6 9.6 22.5 15.3 12.7 25.6-9.2 9.7-23 15.2-32 12.7a86 86 0 0 1-27.2-15.3c-8.3-9-6.9-11.7 10-20.5 20.4-10.5 20-10.5 36.5-2.5m-233.1-18.1c-3.9 1.8-9 5-11.4 7a55 55 0 0 1-9.4 6.2 127 127 0 0 0-24.9 22.8q-9.5 13 12.7 25.8c3.9 2.3 8.5 5.4 10.3 7 16.3 14.1 37.3 15.5 60.3 4.2 22.1-11 30.9-21 30.1-34.2-.5-6.3-24.6-27.8-39.5-35.3-16.2-8.1-18.2-8.4-28.2-3.5m27.1 23c25.7 12.7 26.9 21.7 4.5 32.8-27.1 13.5-76.4-8.4-51.4-22.8 2.6-1.5 7.3-4.7 10.3-7 14.3-11.1 19.4-11.5 36.6-3m328.9-2.6a52 52 0 0 0-8 5.2 78 78 0 0 1-8.8 5.7c-10.7 5.4-27.7 24-27.7 30.3 0 14.7 35.1 36.5 59 36.5 28 0 58.5-22 57.2-41.2-.3-3.6-12.5-15.7-20-19.9-3.7-2-8.2-5-10.1-6.7-11-9.6-31.8-14.5-41.6-9.9m28.6 22.3c18 8.6 24.5 17.8 17.3 24.5-13.8 13.1-36.3 15-56.1 4.9-16.8-8.6-18.2-12.8-6.8-20.2l10.8-7.4q15.4-11 34.8-1.8m-265.1 3-6.4 4.6c-1.6 1.4-10.2 6.1-19 10.5-22.3 11.2-28.6 16.6-28.6 24.7 0 6.3 10.1 17.6 21.5 24.3 3.9 2.3 8.8 5.7 11 7.5 20.1 17.2 43.6 14.7 66.3-7a91 91 0 0 1 15-12.1c11.6-5.9 11.3-10.5-1.4-23.6a61 61 0 0 0-21.5-16c-6.5-3.4-13.6-7.6-15.7-9.2q-11.8-9.6-21.2-3.7m18.6 22.2c3.3 2.4 8.5 5.7 11.6 7.5q25 14.2-4 28.5-24.8 12.3-49.4-8.7c-10.2-8.6-9.6-10.3 6.4-18.6 4.5-2.4 10.9-6.3 14.1-8.7 8.3-6 13.1-6.1 21.3 0m-234.7-10.7c-15.9 7.8-34.5 24.6-36.9 33.2-2.9 11.1 8.5 24.6 29.7 35.1 23.7 11.8 33.5 12.3 46.6 2.3 2.8-2.2 7.2-5 9.7-6.2 8.6-4.3 25-22 25-26.9 0-5.5-14.3-20.9-25.5-27.4a92 92 0 0 1-10.4-7c-12.7-11-20.9-11.6-38.2-3.1m25.8 16c3.2 1.4 8.3 4.4 11.3 6.8s7.7 5.5 10.3 7q13.4 7.5-.7 15.8c-3 1.8-8.1 5.1-11.2 7.3-9.4 6.7-20.9 6.1-36.7-1.8-22.6-11.2-21.8-19.9 2.8-31.9 13.6-6.6 16-6.9 24.2-3.2m340.3-3.5-6.4 4.6a58 58 0 0 1-7.9 5 176 176 0 0 0-30.8 28.7q-9.5 13 12.6 25.8c3.9 2.3 8.5 5.5 10.4 7.1 21.5 18.5 53 13.1 79.8-13.7 14.9-14.9 12.8-23-9.6-36.2-4.2-2.5-9.5-6-11.7-7.7a83 83 0 0 0-9-6c-2.7-1.5-7.1-4.3-9.8-6.2-5.9-4.3-12.1-4.7-17.6-1.4m18.8 22.3c3.3 2.5 7.8 5.4 10 6.5 13.8 7 19.9 16 14 20.5-17.6 13.3-37.3 16.6-53 8.9-19.3-9.6-20.6-19.6-3.6-28.8 2.9-1.6 7.9-4.8 11.2-7.2 8.3-6.1 13-6.1 21.4.1m-261.1 6c-2 .7-6.1 3.2-9 5.4-2.8 2.2-7.2 5-9.5 6.2-10.2 5-27.2 23.9-27.2 30 0 11.7 25.6 32.3 47.3 38 14.2 3.7 33.8-2.9 48.5-16.4 7.2-6.6 11.3-8.6 18.2-8.6 16.8-.1 19-16.2 2.8-20a27 27 0 0 1-15.3-9c-2.2-2.3-7.1-6-11-8.2-3.8-2.3-8.5-5.5-10.4-7.1-9.5-8.2-26.4-13.3-34.4-10.3m20.6 22.4c8.8 4 24.3 15.7 25.1 18.8 2.7 10.8-27.2 22.7-45 17.9-26.6-7-33.9-18.8-17.6-28.2 2.6-1.5 7-4.4 9.9-6.6 8.9-6.6 16-7.1 27.6-1.9m-224.6-16.4c-2 .8-6.1 3.2-9 5.4-2.8 2.2-9.8 6.3-15.5 9.1-19.9 9.9-27.1 21.4-20.4 32.3 9.3 15 42.1 36.8 55.3 36.8 5.8 0 16.2-4.8 24.9-11.5 3-2.4 7.4-5.2 9.6-6.3a69 69 0 0 0 17.5-15.4c7-9.8-3.2-25.8-22.6-35.5-6-3-13.4-7.3-16.2-9.5q-8.8-6.8-16.3-6.7c-1.9 0-5.2.6-7.3 1.3m20 23.3c3 2.1 8.2 5.5 11.6 7.6 13.2 8 13.9 11.9 4 20.3-16.5 14-24.5 15.1-43 5.9-21.4-10.5-24-17.8-9.5-26.2 2.6-1.5 7-4.4 9.9-6.6 9.5-7.1 17.9-7.4 27-1m336.3-3.6-6.4 4.6a123 123 0 0 1-14 8c-19.8 9.9-31.4 23.9-28.6 34.4 3.9 14.4 37.7 35.4 57 35.4 12.7 0 34-9.7 45.9-20.9 3.8-3.5 9.1-7.6 11.9-9 5.8-2.9 8.2-5.8 8.2-9.9s-1.4-5.3-26-21.2l-11.8-8a85 85 0 0 0-8.9-5.8 156 156 0 0 1-9.7-6.2c-5.9-4.3-12.1-4.7-17.6-1.4m18.6 22.2c3.3 2.4 8.3 5.6 11.2 7.2 6 3.3 12.8 10.2 13.8 13.9 1.1 4.3-1.8 7-14.1 13.2-17 8.6-25.7 8.6-42.8.1-20.3-10.1-21.2-16.5-3.5-25.7 4.5-2.4 10.9-6.3 14.1-8.7 8.3-6.1 13.1-6.1 21.3 0m-261.1 6.1c-27.1 8.7-50 29.6-46.5 42.7 1.5 5.5 14 18.6 21.8 22.7 3.2 1.7 7.9 4.9 10.4 7.1 6.4 5.7 8.1 6.1 23.6 6.1 15.6-.1 18.7-.9 26.5-6.8 2.8-2.2 7.1-4.9 9.3-6 9.7-4.9 21.4-18.1 21.4-24.2s-17-25-27.2-30c-2.3-1.2-6.7-4-9.5-6.2a33 33 0 0 0-29.8-5.4m26.3 23.4a96 96 0 0 0 10.3 6.6c9.1 4.9 12.1 11.5 7 15.6-14.7 11.8-17.6 13-33.1 13-14.5 0-16.1-.5-26.5-8.1-15.1-10.9-14.5-15.5 2.7-24.5 18-9.2 29.4-10 39.6-2.6m-232.5-18.4a89 89 0 0 1-9.3 6.1c-1.9 1-6 3.7-9 6-3 2.4-7.1 5.1-9 6-27.8 13.8-21.4 35.6 15.8 53.9 21 10.3 27.4 10.3 48.3 0 22.1-11 30.9-21 30.1-34.2-.5-6.3-24.6-27.8-39.5-35.3-17.1-8.5-19.1-8.7-27.4-2.5m26.3 22c25.7 12.7 26.9 21.7 4.5 32.8-13.9 6.9-23.7 6.5-39.8-1.7-18.5-9.5-18.1-18 1.5-27.9 2.7-1.4 6.2-3.6 7.8-4.9 7.7-6.4 9.9-6.2 26 1.7m321.2 3.7c-11.9 6-15 8-22.7 15.4-5 4.7-9.2 8.5-9.4 8.5-7.4 0-14.7 3.8-14.7 7.7 0 5.6 15.9 22.7 25.7 27.6 2.7 1.4 6.9 4.2 9.4 6.3 16.2 13.6 36.1 16.1 49.6 6 3.2-2.4 7.8-5.3 10.1-6.5 10.2-5.2 27.2-24 27.2-30.1 0-6.4-11.2-18.8-22.5-25a62 62 0 0 1-9.3-6.2c-14.3-12.4-24.5-13.3-43.4-3.7m29.7 15.8c8.6 3.9 24.2 15.6 24.9 18.7 1.1 4.1-1.9 7.8-10 12.4-2.4 1.4-6.9 4.3-10 6.5-11.1 7.9-31.4 4.6-44.3-7.1-12-10.8-9.6-16.7 11.2-26.9 15.4-7.7 18.4-8 28.2-3.6m-271.1 11.9c-14.7 7.3-19.4 10.2-24.5 15-3.5 3.3-9 7.4-12.2 9.2-6.4 3.6-8.7 6.2-8.7 10s2.3 6.4 8.7 10c3.2 1.8 7.6 4.7 9.8 6.5s6 4.2 8.4 5.5c2.3 1.2 7.1 4.8 10.6 8 9.7 9.1 10.9 9.5 25.6 9.5a79 79 0 0 0 48.8-20.9c6.1-5.5 8.5-6.9 14.3-8.7 16.9-5 15.8-19.9-1.4-19.9-8.5 0-11.7-1.7-21.8-11.5a66 66 0 0 0-20.7-14.9c-16.7-8.3-15.5-8.4-36.9 2.2m36.2 17.7c23.6 11.5 24.3 20.9 2.6 31.6-17.6 8.8-33.4 7-45.4-4.9-12.5-12.6-11.9-14.7 6.3-24.2 20.4-10.5 20-10.5 36.5-2.5m123.9 1.9c-6.3 2-15.7 7.1-20.5 11.1-2.4 2-6.5 4.7-9 6-10.3 5.2-22 18.2-22 24.5 0 6.1 17 24.9 27.2 30.1 2.3 1.2 6.9 4.1 10.1 6.5 13.5 10.1 33.4 7.6 49.6-6 2.5-2.1 6.8-4.9 9.5-6.3 8.9-4.5 19.6-16.2 19.6-21.4 0-5-22.1-28.5-31-32.9-2.5-1.2-6.9-4-9.7-6.2-8.6-6.6-15.3-8.1-23.8-5.4m20.2 23.3c2.9 2.1 7.9 5.3 11.1 7.1 13.4 7.7 14.4 12.4 4.5 20.8-16.2 13.7-34.9 17.3-46.7 8.9-3.1-2.2-7.6-5.1-10-6.5-13.4-7.7-13.6-11.7-.8-21.3 19.6-14.6 30.7-17 41.9-9"/></g></svg>