<svg xmlns="http://www.w3.org/2000/svg" width="2560" height="2560" viewBox="0 0 1920 1920"><g fill="#f97316"><path d="M982.5 72.4c-13.7 4.5-26.1 14.4-28.4 22.6-2.5 9-1.1 61.5 1.9 67.5 7.1 14.7 4.2 19-22.2 32.5a283 283 0 0 0-35.8 21c-6.8 3.4-36 32.7-39.9 40a74 74 0 0 1-6.7 10.1 178 178 0 0 0-22.8 49.4c-2 5.1-2.4 195-.5 201.6a37 37 0 0 0 5.1 8.6 61 61 0 0 1 6.3 9.3 61 61 0 0 0 6.4 9.5c12.7 15.4 8.9 18.5-23.2 18.5-28.4 0-56.1 8.7-75.6 23.8a79 79 0 0 1-10.6 6.9 158 158 0 0 0-34.6 34.6 100 100 0 0 1-15.9 19.2c-14.8 15.3-15 15.8-15 33.5 0 14.4 1 18.3 6.1 24.5 9.7 11.7 8.6 20.7-5.9 50.3a331 331 0 0 0-12.7 28.4 28 28 0 0 1-4.3 9 27 27 0 0 0-7.3 13.9 63 63 0 0 1-34.7 40.8 144 144 0 0 0-16.3 9.6c-13.9 10.2-23.5 4.5-24.9-14.9a46 46 0 0 0-3.1-15.1c-2.1-4.5-2.4-6.9-2.9-24-.4-15.1-.9-19.6-2.2-22.1-1-1.7-2.6-6.2-3.7-10-1-3.8-2.7-8.7-3.7-10.9-1.4-3.2-1.9-7.9-2.4-23-.6-17-.9-19.5-3-23.9a43 43 0 0 1-3-15 46 46 0 0 0-3.1-15.1c-1.8-4-2.4-7.6-2.9-18s-1.2-14-3-18-2.5-7.5-3-18a46 46 0 0 0-3-17.9c-1.6-3.5-2.5-8-3-15a46 46 0 0 0-3.1-15.1c-1.8-4-2.4-7.6-2.9-18a46 46 0 0 0-3-17.9c-1.6-3.5-2.5-8-3-15a46 46 0 0 0-3.1-15.1c-2.1-4.5-2.4-7-2.9-24-.6-16.7-.9-19.6-2.8-23.7-1.2-2.6-2.6-8-3.2-12-.5-4-1.9-9.6-3.2-12.3-2.1-4.6-2.3-6.7-2.6-24.1-.4-23.3.1-25.3 7.4-27.9 33.1-11.6 42.1-28.4 29.1-54.2-2.6-5-5.5-12.2-6.5-16-2.5-8.9-67.6-139.2-72.6-145.2a27 27 0 0 1-5.1-9.9c-4.7-17.3-16.7-37.1-27-44.8-11.1-8.1-14-13.6-16.1-29.8-1.2-9.7-9.6-13.9-15.4-7.6-4.5 4.8-5.2 12.6-2 21.7 2.4 6.9 2.5 10.2.4 15.1-.8 2-1.9 7-2.4 11s-1.9 9.4-3.1 12a47 47 0 0 0-2.9 14.8 40 40 0 0 1-3.1 15c-2.3 4.8-2.3 5.8-2.9 38.9-.5 33.3-.5 34.1-2.9 39-2.1 4.4-2.5 7-3.1 21-.5 14.2-.9 16.6-3 21-2.5 5-2.5 5-2.8 46-.4 48.4-.6 46.9 8.7 56.7 10.6 11.3 12.6 12.2 31.3 12.8 24.6.9 25.1 1.4 25.9 32.3.5 20.5.7 22.6 2.9 27.1 1.6 3.6 2.5 7.9 3 15s1.5 11.6 3.1 15.1c1.8 4 2.4 7.6 2.9 18a45 45 0 0 0 3.1 18c2 4.3 2.4 7.2 2.9 21 .6 13.7 1 16.7 3 20.9 1.6 3.5 2.5 7.9 3 15s1.5 11.6 3.1 15.1c1.8 4 2.4 7.6 2.9 18 .6 10.1 1.2 14 2.9 17.7 1.2 2.6 2.5 8 3.1 12a50 50 0 0 0 3.2 12.3c2 4.4 2.3 7.2 2.8 24 .6 17 .9 19.5 3 23.9 1.6 3.6 2.5 7.9 3 15a48 48 0 0 0 3 15 44 44 0 0 1 3 15 45 45 0 0 0 3.1 15.1c2 4.3 2.4 7.3 2.9 21 .6 13.9 1 16.7 3 21 2.1 4.3 2.5 7.1 3 21s1 16.7 3 21c7 15.1 4.2 24.4-12 41-13 13.4-15 16.5-15 23.7 0 1.5-.7 5.6-1.5 9.2a21 21 0 0 0 0 13.2 89 89 0 0 1 1.5 15.7c.1 5.8.7 10.7 1.6 13.2.9 2.2 2.7 7.5 4 11.9 5 16.3 24.1 31.2 52.7 41.1 6.8 2.4 7.1 3.4 7.8 24 .5 16.1.8 18.5 2.9 23 1.9 4.1 2.5 7.4 3 18a46 46 0 0 0 3 17.9c1.6 3.5 2.5 8 3 15 .6 7.2 1.5 11.5 3.1 15.1 2.1 4.5 2.4 7 2.9 24 .6 16.7.9 19.6 2.8 23.7 1.2 2.6 2.6 8 3.2 12 .5 4 1.9 9.5 3.1 12.2a47 47 0 0 1 2.9 15 45 45 0 0 0 3.1 15.1c2 4.3 2.4 7.3 2.9 21s1 16.7 3 20.9c1.6 3.5 2.5 7.9 3 15a45 45 0 0 0 3.1 15.1c2 4.3 2.4 7.3 2.9 21 .6 13.4 1 16.8 2.9 20.7 1.2 2.6 2.5 8 3.1 12 .5 4 1.9 9.5 3.1 12.3 2 4.2 2.4 7.4 2.9 21s1 16.7 3 20.9c1.6 3.5 2.5 7.9 3 15s1.5 11.6 3.1 15.1c1.8 4 2.4 7.6 2.9 18a45 45 0 0 0 3.1 18c2 4.3 2.4 7.2 2.9 21 .6 13.4 1 16.8 2.9 20.7 1.2 2.6 2.5 8 3.1 12 .5 4 1.9 9.5 3.1 12.3 2 4.2 2.4 7.4 2.9 21 .6 13.4 1 16.8 2.9 20.7 1.2 2.6 2.5 8 3.1 12a50 50 0 0 0 3.2 12.3c2 4.4 2.3 7.2 2.8 24 .6 16.7.9 19.6 2.8 23.7 1.2 2.6 2.6 8 3.2 12 .5 4 1.9 9.5 3.1 12.2a47 47 0 0 1 2.9 15 45 45 0 0 0 3.1 15.1c2 4.3 2.4 7.3 3 21a82 82 0 0 0 2.2 20.3c3.7 9.7 1.9 10.5-26.8 11.2-23 .5-23 .5-32 4.8-11.2 5.4-30.2 23.5-32.3 30.8-1.6 5.4-1.6 33.4 0 38.8 2 6.9 15.4 19.5 26.4 24.8 8.9 4.3 8.9 4.3 402.4 4.3s393.5 0 398-2.6c2.5-1.5 8.8-7.1 14.1-12.5 12-12.5 12.2-13.1 11.7-36-.4-20-3.4-28-15.2-40.2-11.9-12.5-7.2-11.6-68.7-12.2-61.1-.6-57.4 0-60-9.5-5.6-20.5-26.6-42.2-54.4-56.3-30.1-15.3-30-15.2-30-43.3 0-23 0-23.5-2.5-28.4-3.9-7.8-4-278.8-.1-282.9q4.5-4.8 14.1-.5c2.4 1.1 7.8 2.4 11.8 2.9s9.4 1.9 12 3a50 50 0 0 0 12 3c4 .6 9.4 2 12 3.2 4.1 1.9 7.2 2.2 23.7 2.8 17.1.7 19.7 1 26 3.3 8.8 3.3 12.2 3.3 21 .1 5.5-2 9.9-2.8 20-3.4 10.3-.6 14-1.2 18-3 3.4-1.6 7.9-2.5 14.5-3 5.2-.4 11.3-1.5 13.5-2.4s6.9-2.6 10.5-3.6a118 118 0 0 0 30.9-12.4c2.8-2.1 8-4.7 11.6-5.7 3.8-1.2 8.7-3.7 12.2-6.3 3.2-2.4 7.7-5.3 9.9-6.4s7.3-5 11.2-8.6 9-7.5 11.4-8.7 6.8-4.1 9.8-6.4 7.5-5.3 9.9-6.5c6.7-3.3 24.2-20.9 28-28 1.7-3.2 4.7-7.8 6.7-10.1 2-2.4 4.6-6.3 5.9-8.9 1.3-2.5 4.2-6.8 6.4-9.5s4.6-6.8 5.2-9c2.1-8.3 3.2-10.6 6.6-14.7 4-4.9 16.7-29.6 17.8-34.8.4-1.9 1.7-6.2 3-9.5 2.2-5.9 5.3-15 9.9-29.5 1.3-4.1 3.1-9.3 4-11.5 2.3-6 2.3-89 0-95-.9-2.2-2.6-7.4-3.9-11.5s-3.1-9.3-4-11.5c-1-2.2-2.1-8.4-2.5-14-1-13.4-28-69.3-39.4-81.4a76 76 0 0 1-9.5-12.7c-4.5-8.4-51-54.8-58.9-58.8a72 72 0 0 1-12.4-9.2c-11.6-10.7-62.3-35-80.3-38.5a125 125 0 0 1-20-5.3c-3-1.1-7.9-1.5-19.3-1.6-17.3 0-21.2-1-22.9-5.6l-3.7-9.8a69 69 0 0 1-3.6-14c-.7-5.4-2.2-9.9-6-17.7-8.2-17.1-7.9-23.8 1.9-34.3s11.7-16.6 7.8-24.3c-.9-1.7-2.5-6.2-3.5-10a79 79 0 0 0-12.6-25.2c-2-2.3-4.9-6.8-6.6-10-9.9-18.4-58.9-61.3-74.5-65-2.7-.7-9.9-3.5-16-6.4-11-5.2-11-5.2-39-5.7-15.4-.3-28.8-.9-29.8-1.4-5.2-2.4-2.7-10.3 6.4-20.1 16.1-17.4 15.4-11.9 15.7-116.7.2-83.5.1-93.1-1.4-97-1.8-4.7-3.8-12.6-5.2-20.3a77 77 0 0 0-3.1-10.5c-1.1-3-2.5-7.3-3-9.5s-2.9-6.2-5.2-9c-2.2-2.7-5.1-7-6.4-9.5a55 55 0 0 0-5.9-8.9c-2-2.3-5-6.9-6.7-10.1-5.9-11.1-33.1-36.6-45.9-43a133 133 0 0 1-16.3-9.6 44 44 0 0 0-12.6-6.4c-14-4.1-14.1-4.6-14.1-53.4 0-44.8 0-44.6-7.7-52.4-11.6-11.6-34.3-17.6-48.8-12.8m29.1 21.2c7.2 5.3 6.9 3.6 6.9 43.4 0 44.3 1.3 41.3-18 41.8-14 .4-18.6-.9-20.3-5.6-.5-1.5-2.2-5.9-3.8-9.7-5.4-13.3-4.9-60.6.8-67 5.1-5.9 27.9-7.8 34.4-2.9m-593.4 47.7c5.2 4.2 10.5 14.8 13.7 27.2.6 2.2 2.9 6.2 5.2 9 5.5 6.6 69.1 133.6 71.8 143.2 1 3.8 3.7 10.5 5.9 15 10 19.8 7.6 30.7-7.8 35.3-4.4 1.3-9 3.7-12.9 6.6-14.4 10.8-14.7 10.9-59.1 11.2-44.5.4-46.3.2-48.6-5.4-2.9-6.8-1.6-82.5 1.5-88.9 2.1-4.4 2.5-7 3.1-21 .5-14.1.9-16.6 3-21 2.4-4.9 2.4-5.6 3-39 .5-33 .6-34.1 2.8-39 1.7-3.6 2.6-7.8 3.2-15 1.3-17.4 7.4-24.7 15.2-18.2m607.3 60.3c5.2 2.3 16.6 6.1 27.2 9.3 3.6 1 8.5 3.5 11.6 5.9 3 2.2 10.1 6.4 15.8 9.2a70 70 0 0 1 28.8 26c1.7 3.2 4.7 7.8 6.7 10.1 2 2.4 4.6 6.4 5.9 8.9s4 6.5 5.9 8.9c2.1 2.5 4.2 6.6 5.2 9.9.8 3.2 2.4 7.8 3.5 10.4s2.4 8 2.9 12a50 50 0 0 0 3.2 12.3c2.3 5 2.3 5 2.3 98.5 0 106 .7 100.3-13.7 115.8-3.5 3.7-7.7 8.8-9.4 11.4-2.5 3.5-4.3 5-8 6.3-2.7.9-7 2.6-9.6 3.6a56 56 0 0 1-12.3 2.9c-5.6.7-9.6 2.1-16.4 5.5a122 122 0 0 1-15.8 6.4 132 132 0 0 0-16.8 6.7c-10 4.9-10 4.9-46.5 4.9s-36.5 0-46.5-4.9a132 132 0 0 0-16.8-6.7 122 122 0 0 1-15.8-6.4 46 46 0 0 0-16.4-5.5c-4.2-.5-9.7-1.8-12.3-2.9s-6.9-2.7-9.6-3.6a14 14 0 0 1-8-6.3l-6.4-8.5a59 59 0 0 1-5.8-8.9 41 41 0 0 0-5.4-8.1c-6.3-7.3-6-1.3-6-107.4.1-94.3.1-96.9 2.1-102.3 1.1-3 2.9-8.6 4-12.3 2.5-8.9 12.7-29.1 17.4-34.7 2-2.4 4.8-6.7 6.2-9.4 3.4-6.7 16-19.6 22.6-23.1a90 90 0 0 0 10.7-7.1 283 283 0 0 1 46.7-23.4c3.7-1 9.3-2.8 12.3-4 8.3-3 48.9-2.6 56.5.6M475.7 412.2c2.6 2.6 2.8 3.4 3.4 15 .5 9.5 1.1 13.4 2.8 17 1.2 2.6 2.5 8 3.1 12a50 50 0 0 0 3.2 12.3c2 4.4 2.3 7.2 2.8 24 .6 17 .9 19.5 3 23.9 1.6 3.6 2.5 7.9 3 15s1.5 11.6 3.1 15.1c1.8 4 2.4 7.6 2.9 18a46 46 0 0 0 3 17.9c1.6 3.5 2.5 8 3 15s1.5 11.6 3.1 15.1c1.8 4 2.4 7.6 2.9 18s1.2 14 3 18 2.5 7.5 3 18a46 46 0 0 0 3 17.9c1.6 3.5 2.5 8 3 15 .6 7.2 1.5 11.5 3.1 15.1 2.1 4.5 2.4 6.9 2.9 24 .4 15.1.9 19.6 2.2 22.1 1 1.7 2.6 6.2 3.7 10 1 3.8 2.7 8.7 3.7 10.9 1.4 3.2 1.9 7.9 2.4 23 .6 17 .9 19.5 3 23.9 1.6 3.5 2.5 8 3.1 15 .5 7.2 1.5 11.8 3.3 16.1 1.4 3.3 2.6 6.7 2.6 7.6s.9 4.2 2 7.3c3.6 10.6-1.3 14.4-12.6 9.6a54 54 0 0 0-10.9-2.9c-10.2-1.5-11.5-3-12.9-14.1-.3-2.5-1.5-6.8-2.7-9.5-2-4.2-2.4-7.4-2.9-21-.6-13.9-1-16.7-3-21-2.1-4.3-2.5-7.1-3-21-.6-13.7-1-16.7-3-20.9a43 43 0 0 1-3-15 48 48 0 0 0-3-15 44 44 0 0 1-3-15 46 46 0 0 0-3.1-15.1c-2.1-4.5-2.4-7-2.9-24-.6-16.7-.9-19.6-2.8-23.7-1.2-2.6-2.6-8-3.2-12-.5-4-1.9-9.6-3.1-12.3a46 46 0 0 1-2.9-18 46 46 0 0 0-3-17.9c-1.6-3.5-2.5-8-3-15a45 45 0 0 0-3.1-15.1c-2-4.3-2.4-7.3-2.9-21-.6-13.8-1-16.7-3-21a43 43 0 0 1-3-18 46 46 0 0 0-3-17.9c-1.6-3.5-2.5-8-3-15a46 46 0 0 0-3.1-15.1c-2.2-4.7-4.8-50.6-3.2-55.2 1.6-4.3 20.7-4.4 25-.1m412 167.8a58 58 0 0 0 12.3 3.1c5.6.7 10.1 2.1 18 5.9 5.8 2.7 12.5 5.4 15 6s9.5 3.5 15.5 6.3c11 5.2 11 5.2 47.5 5.2s36.5 0 47.5-5.2a132 132 0 0 1 15.5-6.3c2.5-.6 9.2-3.3 15-6a53 53 0 0 1 18-5.9c4.1-.6 9.8-2 12.5-3.2 7.5-3.4 15.6-3.2 19.2.4 2.8 2.7 2.8 2.7 3.3 33 .6 29.4.6 30.3 3 35.2 2.2 4.6 2.5 6.6 3 24 .6 16.7.9 19.6 2.8 23.7 1.2 2.6 2.7 8.1 3.2 12.3 2.2 17.7 21 41.5 37.8 47.9 9.5 3.7 9.5 3.7 10.4 25.1.4 9.9 1 20.3 1.4 23.1.7 6.3-7.8 16.6-18.5 22.3a76 76 0 0 0-13 9.6 77 77 0 0 1-12.3 9.1c-8 4-60.4 56.4-64.9 64.8a76 76 0 0 1-9.5 12.7 69 69 0 0 0-11.7 17.6c-3 6-7.2 12.9-9.2 15.3a82 82 0 0 0-12 23 213 213 0 0 1-8.1 22.7c-2.1 5.1-5 5.5-39.4 5.1-30.1-.3-30.6-.3-35.5-2.8-4.9-2.4-5.4-2.4-39-3-33.4-.5-34.1-.5-39-2.9-4.6-2.2-6.6-2.5-24.2-3-24.6-.8-27.4-2.4-29.2-17.1-.6-4.1-2-9.8-3.3-12.5-2.2-4.7-2.3-6.5-2.8-33-.6-27-.7-28.2-3-33-2.2-4.6-2.5-6.6-3-24-.6-16.7-.9-19.6-2.8-23.7-1.2-2.6-2.6-8-3.2-12-.5-4-1.9-9.6-3.2-12.3a61 61 0 0 1 .1-35c1.9-4.1 2.5-7.3 3-17.2.8-15.1 1.3-15.8 14.1-22.7q25.8-13.7 28-32.1c.5-4.2 1.9-9.7 3-12.3a50 50 0 0 0 3-12c.6-4 2-9.4 3.2-12 1.9-4.1 2.2-7 2.8-23.7.5-17.3.8-19.4 3-24s2.4-6.3 2.9-29.1c.6-26.1.8-27 6.6-29.5 3-1.3 10.8-.3 16.2 2.1m-46 6.3c4.1 4 4.4 41 .4 49.2-2.2 4.6-2.5 6.6-3.1 24-.5 16.8-.8 19.6-2.8 24a49 49 0 0 0-3.2 12.3c-.6 4-1.9 9.4-3 12a51 51 0 0 0-3 11.1c-2 14.5-18.7 22-34.5 15.4a130 130 0 0 0-35.1-9.5c-7.3-.4-9.2-1-19.4-5.8a44 44 0 0 0-21.1-6.1c-19.4-1.3-25.9-9.3-25.9-31.9 0-16.9.3-17.7 14.9-32.5a93 93 0 0 0 14.6-17.4 43 43 0 0 1 16.7-17.6c2.9-1.6 7.8-4.7 10.8-7.1a152 152 0 0 1 34.7-17.3A177 177 0 0 0 795 585c9.5-3.5 42.9-2.6 46.7 1.3m368.8 2.1a132 132 0 0 0 16.8 6.7c15.8 4.5 47 30.8 55.7 47 1.7 3.2 4.6 7.7 6.6 10 4.6 5.6 8.9 14 11.3 22.6 1 3.7 2.6 8.5 3.5 10.5 6.1 14.2-6.6 26.2-29.5 27.8-8.7.6-10.4 1-20.5 5.8a57 57 0 0 1-18.7 6.2c-4.2.5-9 1.6-10.6 2.4a62 62 0 0 1-9.7 3.5l-12.4 4a62 62 0 0 1-27 1.1c-7.7-2.1-15.6-15.2-17-28.3a48 48 0 0 0-3.2-12.2c-2-4.4-2.3-7.1-2.8-24-.6-17.4-.9-19.4-3.1-24-2.4-4.9-2.4-5.5-2.4-31.6 0-35.5-2.4-32.9 30.5-32.6 22.5.2 22.5.2 32.5 5.1M738 739c10.5 5 12.1 5.4 21 6 10.9.8 19.6 4.3 23.5 9.4 3.2 4.3 3 29.9-.3 37.1a45 45 0 0 0-3.1 12.1c-1.1 9.1-1.7 10.2-12.1 20.9a80 80 0 0 0-11.3 14.1c-1.4 2.7-4.2 7-6.2 9.4-2.1 2.5-7.5 12-12.1 21.2s-9.6 18.2-11.2 20a83 83 0 0 0-6 8 109 109 0 0 1-25.2 20.3 96 96 0 0 0-8.7 5.7c-3 2.3-8 4.8-11.7 5.9a45 45 0 0 0-12.3 6.3 73 73 0 0 1-9.2 6c-1.8 1-6 3.7-9.2 6.1a33 33 0 0 1-11.1 5.5c-2.9.7-7.1 2.1-9.3 3.1-10.6 4.9-20.6 0-21.9-10.6a138 138 0 0 0-12.7-39.5c-4.6-9.9-5.7-14.7-4.3-18.4 1.1-2.9 18.7-15.3 29.4-20.6 21.4-10.7 48.7-41.5 52.9-59.6 1.2-5.2 2.6-7.7 7.4-13.7 1.5-1.9 3.7-6.7 4.7-10.6 2.5-8.7 17.7-39.6 22.1-44.5 6.8-7.8 19.9-7.6 36.9.4m546.2-5c7.4 2.1 15.4 15.4 16.8 28.3.5 4 1.8 9.2 2.9 11.7 6.4 14.1 2.3 17-24.3 17a81 81 0 0 0-22.1 1.6c-9.4 3.6-12.7 4.1-29.8 4.7-21.8.7-20.7 1.8-20.7-21.8 0-19.3.7-21.5 7.6-24 2.7-.9 7-2.6 9.6-3.6 2.6-1.1 8.1-2.4 12.3-2.9 5.5-.7 9.6-2 15.7-5.1 13.5-6.8 22.5-8.5 32-5.9m41.8 74.2c3.9 1.9 6.9 2.2 23.5 2.8 16.8.5 19.6.8 24 2.8 2.8 1.3 8.2 2.7 12.2 3.2a51 51 0 0 1 11 2.6c2.1.9 6.9 2.5 10.6 3.5 13 3.7 53.7 25 61.7 32.4 3.9 3.5 9.7 7.8 12.9 9.5a220 220 0 0 1 41.6 41.9c1.4 2.9 5.5 8.4 9.1 12.2 11.6 12.4 37.4 66 38.4 80a50 50 0 0 0 2.3 13.6c.9 1.7 2.5 6.1 3.6 9.9l4 12.4c3.1 8.4 3.1 87.5 0 96l-4.3 13c-3.4 10.4-5.4 16.6-7.7 23-1.1 3-2.9 8.6-4 12.3a147 147 0 0 1-17.8 35.2 30 30 0 0 0-5.2 9c-2.1 8.3-3.2 10.6-6.6 14.7a61 61 0 0 0-5.8 8.8c-1.3 2.5-4 6.6-6 9s-4.7 6.4-6 8.9a26 26 0 0 1-12 12.3c-2.2 1.2-6.5 4-9.5 6.3-3 2.4-7.4 5.2-9.6 6.4a63 63 0 0 0-11.2 8.5c-3.9 3.6-9 7.5-11.2 8.6a91 91 0 0 0-10 6.5c-3.6 2.5-8 4.8-11.1 5.5a44 44 0 0 0-11.8 5.8 56 56 0 0 1-12.6 6.4 375 375 0 0 0-27 9.1 58 58 0 0 1-15 2.7c-7 .6-11.5 1.5-15 3.1-4 1.8-7.6 2.4-18 2.9a44 44 0 0 0-18 3.1 28 28 0 0 1-23-.1c-4.5-2.1-6.8-2.4-24-3-16.8-.5-19.6-.8-24-2.8a49 49 0 0 0-12.3-3.2c-4-.6-9.4-1.9-12-3a50 50 0 0 0-12-3c-4-.5-9.4-1.8-12-2.9a89 89 0 0 0-10.3-3.5c-4.4-1.2-7.2-3-13-8.2a77 77 0 0 0-18.2-12 73 73 0 0 1-17.8-12c-4-3.6-9.5-7.7-12.3-9.1a113 113 0 0 1-29.7-29.7c-1.9-3.6-7-9.9-12.5-15.6-8.6-9-9.7-10.6-17.7-26.6a185 185 0 0 0-12-21.2c-3.5-4.1-4.5-6.4-6.7-14.9-.8-3.2-3.4-6.7-11-14.7-13.1-14-14.7-20.1-8.8-32.4 2.3-4.7 2.3-5.2 2.8-59.7.5-60 .2-56.3 6.7-63.9 1.8-2.2 3.8-5.8 4.3-8s2-6.6 3.1-9.6 2.9-8.6 4-12.3a65 65 0 0 1 11.4-22.7c2-2.4 6.2-9.3 9.2-15.3a69 69 0 0 1 11.7-17.6 76 76 0 0 0 9.5-12.7c4.3-8.2 40.1-43.9 47.7-47.7 2.8-1.4 8.3-5.5 12.2-9.1s9-7.5 11.4-8.7 6.8-4.1 9.8-6.4 7.1-5.1 9-6 5.7-3.5 8.5-5.7c11.2-8.9 18.1-11.2 36-11.9 14-.5 16.6-.9 21-3 4.6-2.2 6.5-2.4 27-2.9 19.8-.6 22.4-.8 26.5-2.8a20 20 0 0 1 18 0m-543.2 32c5.1 6.4 7.5 17.1 8.2 36.3.6 17.3.9 19.4 3.1 24 2.3 4.8 2.4 6 2.9 33 .6 26.2.7 28.3 2.8 32.7 1.2 2.6 2.6 8 3.2 12a50 50 0 0 0 3.2 12.3c4 9 3.3 16-3 29-4 8.3-5.5 12.6-6.2 18.1-.5 4-1.7 9-2.6 11.1s-2.5 6.9-3.5 10.7a62 62 0 0 1-3.5 9.7c-.8 1.6-1.9 6.3-2.4 10.4s-1.8 9.7-2.9 12.3c-1.8 4.5-4.1 11.4-9.5 28.2-1.3 4.1-3.1 9.3-4 11.5s-1.5 5.8-1.6 8c0 2.2-1 6.5-2.1 9.5l-4.3 13c-1.3 4.1-3.1 9.3-4 11.5a57 57 0 0 0-1.6 17.2c0 10.8-.4 14.3-2 18.5-6.4 16.9 4.1 26.9 29.1 27.8 23.2.8 20.4-25.6 20.4 188.8 0 182.7 0 182.7-2.5 187.7-2.4 5-2.5 5.2-3 41-.3 19.8-.9 36.8-1.4 37.8-3.1 6.5-48.9 32.7-57.2 32.7-6.5 0-10-4.7-11.4-15.2-.5-4-1.9-9.6-3.1-12.3a46 46 0 0 1-2.9-18 46 46 0 0 0-3-17.9c-1.6-3.5-2.5-8-3-15a48 48 0 0 0-3-15 44 44 0 0 1-3-15 45 45 0 0 0-3.1-15.1c-2-4.3-2.4-7.3-2.9-21-.6-13.4-1-16.8-2.9-20.7-1.2-2.6-2.5-8-3.1-12-.5-4-1.9-9.6-3.1-12.3a46 46 0 0 1-2.9-18c-.6-10.5-1.2-14-3-18s-2.5-7.5-3-18a45 45 0 0 0-3.1-18c-2-4.3-2.4-7.2-2.9-21-.6-13.7-1-16.7-3-20.9a43 43 0 0 1-3-15 48 48 0 0 0-3-15 44 44 0 0 1-3-15 46 46 0 0 0-3.1-15.1c-2.1-4.5-2.4-7-2.9-24-.6-16.7-.9-19.6-2.8-23.7-1.2-2.6-2.6-8-3.2-12-.5-4-1.9-9.6-3.1-12.3-2-4.3-2.4-7.4-2.9-21-.5-12.1-1-16.8-2.3-19.1-.9-1.7-2.5-6.2-3.6-10-1-3.8-2.7-8.7-3.7-10.9-1.4-3.2-1.9-7.9-2.4-23-.6-17-.9-19.5-3-23.9a43 43 0 0 1-3-15 46 46 0 0 0-3.1-15.1c-1.8-4-2.4-7.6-2.9-18s-1.2-14-3-18-2.5-7.5-3-18a46 46 0 0 0-3-17.9c-1.6-3.5-2.5-8-3-15a45 45 0 0 0-3.1-15.1c-2-4.3-2.4-7.3-2.9-21-.6-13.8-1-16.7-3-21-3-6.5-3.8-17.5-1.7-22.7 1.6-3.9 2.4-4.3 14.2-6.6 9.9-2 24.3-7.8 29.7-11.9 2.9-2.2 6.9-4.9 8.8-5.8a96 96 0 0 0 8.7-5.7c3-2.3 8-4.8 11.7-5.9 3.9-1.2 8.8-3.7 12.3-6.3 3.2-2.4 7.4-5.1 9.3-6.1s6-3.7 9-6c3-2.4 7.4-5.3 9.8-6.4a74 74 0 0 0 22.1-22c1.7-3.3 4.8-7.9 6.7-10.3 2-2.3 7.3-11.7 11.9-20.8 12.2-24.3 22.1-35.9 26.3-30.8M543 903.1a73 73 0 0 0 18.3 4.4q10.2 1.3 13.3 12.4c.8 3.1 2.4 7.7 3.5 10.3s2.4 8 2.9 12a50 50 0 0 0 3.2 12.3c6.8 15-2 35.9-17 40.4a59 59 0 0 0-13.5 6.8c-10.4 7.2-21.4 7.2-36.2 0-11.9-5.8-15.9-8.6-17.2-12.4l-3.8-9.8c-5.6-14.1-6.4-55.2-1.2-65 2.3-4.5 9-10.5 13.3-12a83 83 0 0 1 34.4.6m42.3 111.3c.6 1.2 1.4 8.4 1.8 16.6.5 12.1 1 15.3 2.9 19.4 1.6 3.5 2.5 7.9 3 15s1.5 11.6 3.1 15.1c1.8 4 2.4 7.6 2.9 18s1.2 14 3 18 2.5 7.5 3 18a46 46 0 0 0 3 17.9c1.6 3.5 2.5 8 3 15 .6 7.2 1.5 11.5 3.1 15.1 2.1 4.5 2.4 6.9 2.9 24 .4 15.1.9 19.6 2.2 22.1 1 1.7 2.6 6.2 3.7 10 1 3.8 2.7 8.7 3.7 10.9 1.3 3 1.9 8 2.4 20 .6 13.4 1 16.8 2.9 20.7 1.2 2.6 2.5 8 3.1 12a50 50 0 0 0 3.2 12.3c2 4.4 2.3 7.2 2.8 24 .6 17 .9 19.5 3 23.9 1.6 3.6 2.5 7.9 3 15a48 48 0 0 0 3 15 44 44 0 0 1 3 15 45 45 0 0 0 3.1 15.1c2 4.3 2.4 7.3 2.9 21 .6 13.8 1 16.7 3 21 1.9 4.1 2.5 7.5 3 18s1.2 14 3 18 2.5 7.5 3 18c.6 10.1 1.2 14 2.9 17.7 1.2 2.6 2.5 8 3.1 12 .5 4 1.9 9.5 3.1 12.3 2 4.2 2.4 7.4 2.9 21s1 16.7 3 20.9c1.6 3.5 2.5 7.9 3 15a48 48 0 0 0 3 15 44 44 0 0 1 3 15c.6 7.1 1.5 11.6 3.1 15.1 1.8 4 2.4 7.6 2.9 18 .6 10.1 1.2 14 2.9 17.7 1.2 2.6 2.5 8 3.1 12a50 50 0 0 0 3.2 12.3c2.2 4.7 2.3 6.2 2.3 25.7 0 25.8-.3 26.3-13.4 26.3-14.7 0-19.2-7.1-20.2-32-.5-13.8-.9-16.7-2.9-20.9a43 43 0 0 1-3-15 47 47 0 0 0-2.9-14.8c-1.2-2.6-2.5-8-3.1-12-.5-4-1.9-9.6-3.2-12.3-2-4.4-2.3-7.2-2.8-24-.6-16.7-.9-19.6-2.8-23.7-1.2-2.6-2.6-8-3.2-12-.5-4-1.9-9.6-3.1-12.3-2-4.2-2.4-7.4-2.9-21-.6-13.4-1-16.8-2.9-20.7-1.2-2.6-2.5-8-3.1-12-.5-4-1.9-9.6-3.1-12.3-2-4.2-2.4-7.4-2.9-21-.6-13.8-1-16.7-3-21a43 43 0 0 1-3-18 46 46 0 0 0-3-17.9c-1.6-3.5-2.5-8-3-15a45 45 0 0 0-3.1-15.1c-2-4.3-2.4-7.3-2.9-21-.6-13.4-1-16.8-2.9-20.7-1.2-2.6-2.5-8-3.1-12-.5-4-1.9-9.6-3.1-12.3-2-4.2-2.4-7.4-2.9-21s-1-16.7-3-20.9a43 43 0 0 1-3-15 45 45 0 0 0-3.1-15.1c-2-4.3-2.4-7.3-2.9-21s-1-16.7-3-20.9a43 43 0 0 1-3-15 47 47 0 0 0-2.9-14.8c-1.2-2.6-2.5-8-3.1-12-.5-4-1.9-9.6-3.2-12.3-2-4.4-2.3-7.2-2.8-24-.6-17-.9-19.5-3-23.9a43 43 0 0 1-3-15 46 46 0 0 0-3.1-15.1c-1.8-4-2.4-7.6-2.9-18a44 44 0 0 0-3.1-18c-2.1-4.5-2.4-7.1-3.1-24-.4-10.5-1-21.1-1.4-23.7-.8-6.4 1.6-8.5 13.8-11.9 10.2-2.8 12.3-2.7 14.1.5m290.2 3.6c4.9 2.4 5.4 2.4 39 3 33.6.5 34.1.5 39 3 4.8 2.3 5.9 2.4 32.2 3 36.7.7 32.7-4.9 33.1 46.3.3 40-.2 47.5-3.1 47.9-.7 0-6.8.2-13.7.2-15.2.1-15.9.4-28.5 12.6a68 68 0 0 1-20.3 14.4 85 85 0 0 0-42.2 54.5c-3.3 14.2-2.6 14.1-72.1 14.1-57.4 0-63-.3-64.2-3.4-1.3-3.3 1-38.2 2.7-42.1 1-2.2 2.7-7.1 3.7-10.9a62 62 0 0 1 3.5-9.7c.8-1.6 1.9-6.3 2.4-10.4s1.8-9.7 2.9-12.3c1.8-4.5 4.1-11.4 9.5-28.2 1.3-4.1 3.1-9.3 4-11.5s1.5-5.8 1.6-8c0-2.2 1-6.5 2.1-9.5l4.3-13c1.3-4.1 3.1-9.3 4-11.5s1.5-5.9 1.6-8.1c0-8.3 5.9-19.5 11.3-22 6-2.7 40.9-1.5 47.2 1.6m131.4 124.1c5.6 2 5.6 1.9 6.1 47.4.5 42 .5 42 3 47 2.2 4.6 2.5 6.5 3 24 .6 17.3.9 19.4 3.1 24s2.4 6.5 2.9 27 .8 22.3 3 27 2.5 6.7 3 24 .9 19.4 3.1 24c2.3 4.8 2.4 6.2 2.9 30 .6 23.6.7 25.3 3 30 1.9 4.1 2.5 7.3 3 18a44 44 0 0 0 3.1 18c2.3 4.7 2.4 6.4 2.9 30 .6 23.8.7 25.2 3 30 2.3 4.7 2.5 6.4 3 27s.8 22.3 3.1 27c2.3 4.9 2.4 5.7 2.9 36 .4 26.8.7 31.4 2.2 34.1 1 1.7 2.6 6.2 3.7 10 1 3.8 2.6 8.6 3.5 10.6 2.2 5.2 2 11.5-.6 16.8-2.1 4.2-2.3 6.2-2.8 34.7-.5 30.3-.5 30.3-3.3 33-4.3 4.4-131.1 4.4-135.4 0-2.9-2.8-3.5-14.3-4.4-76.7-.2-15.6 1.7-33.3 4.1-38.5 2.3-4.8 2.4-6.2 3-33 .5-27.1.6-28.2 2.9-33 2.4-4.8 2.5-6.1 3.1-30 .5-23.8.6-25.2 2.9-30 2.3-4.7 2.5-6.4 3.1-27 .5-20.5.7-22.4 2.9-27 2.1-4.4 2.5-7 3.1-21 .5-14 .9-16.6 3-21 2.3-4.8 2.4-6.1 3-33 .5-27.1.6-28.2 2.9-33 2.3-4.7 2.5-6.4 3.1-27 .5-20.5.7-22.3 2.9-27s2.5-6.7 3.1-24c.5-17.4.8-19.4 3-24 2.3-4.8 2.4-6 3-33 .5-27.1.6-28.2 2.9-33 2.3-4.7 2.5-6.3 3-27 .6-22.8.9-24.1 5.4-28.3 4.2-4 15.6-5.5 22.6-3.1m-50.5 29.4c3.7 3.7 3.4 19.8-.4 28-2.3 4.8-2.4 6.2-3 33-.5 27-.6 28.2-2.9 33-2.2 4.6-2.5 6.6-3.1 24-.5 17.3-.8 19.4-3 24s-2.4 6.5-3 27c-.5 20.6-.7 22.3-3 27-2.3 4.8-2.4 5.9-3 33-.5 26.9-.6 28.2-2.9 33-2.1 4.4-2.5 7-3.1 21-.5 14-.9 16.6-3 21-2.2 4.6-2.4 6.5-3 27-.5 20.6-.7 22.3-3 27-2.3 4.8-2.4 6.2-3 30-.5 23.9-.6 25.2-3 30-2.3 4.8-2.4 5.9-3 33-.5 26.7-.6 28.2-2.8 33a39 39 0 0 0-3.1 14.3c-1.1 13.8-2.3 14.7-17.9 14.7-10.3 0-12.3-.3-17.2-2.5a62 62 0 0 0-35.7-.3c-9.3 4.1-15.5 2.3-16.8-4.9-1.9-10.3 0-57.2 2.5-62.3s2.5-5 3-188.2c.5-183.3.5-183.3 3.3-186 2.7-2.8 2.7-2.8 38.5-3.3 41.9-.6 38.8.3 53.3-14.7 10.3-10.6 11.3-12 13.3-20.2 5-19.7 18.9-36.7 25-30.6m86.4 26.2a90 90 0 0 1 12.7 21.3c8.3 16.5 9.2 17.9 17.9 27 5.5 5.7 10.6 12 12.5 15.6 4.4 8.3 39 42.8 46.9 46.8 2.9 1.5 8.4 5.5 12.2 9a86 86 0 0 0 13.4 10c10.2 5.7 13 9.6 12 17.1-2.4 18.2-.9 287.9 1.6 293.5 4 8.8 3.8 33.6-.3 37.7-2.8 2.8-78.8 5.6-82.3 3.1-5.9-4.3-7.9-15.5-8.4-47.3-.6-30.3-.6-31.1-3-36-2.3-4.7-2.5-6.3-3-27s-.8-22.3-3.1-27c-2.3-4.8-2.4-6.2-2.9-30-.6-23.6-.7-25.3-3-30-1.9-4.1-2.5-7.3-3-18a44 44 0 0 0-3.1-18c-2.3-4.7-2.4-6.4-2.9-30-.6-23.8-.7-25.2-3-30-2.2-4.6-2.5-6.7-3-24s-.9-19.4-3.1-24-2.4-6.5-2.9-27-.8-22.3-3-27-2.5-6.7-3-24-.9-19.4-3.1-24-2.4-6.1-2.4-21c0-21.5 1.5-24.2 9.3-16.8m-173.3 504.2c4 1.9 7.4 2.5 17.3 3 18.7 1 17.7-1 17.7 35.1 0 29 0 29-2.8 31.7-2.7 2.8-2.7 2.8-82.7 2.8-93.1 0-85.5 1.2-85.5-13.4 0-11.3.3-11.6 24.7-24.1a298 298 0 0 0 25.9-14.6c3-2.3 7.2-5.1 9.4-6.2a66 66 0 0 0 10.4-7.7c6.4-5.7 6.4-5.7 15.5-5 8.2.5 9.8.3 16.1-2a55 55 0 0 1 34 .4m312.9 1.6c3.1 2.2 8.1 5.4 11.2 7.2s7.4 4.8 9.7 6.6c2.3 1.9 11.6 7.2 20.6 11.6 19.6 9.9 24.3 13.8 30.1 25.4 4.8 9.6 5.2 14.2 1.4 17.8-4.3 4.1-161 3.7-165.1-.4-2.8-2.7-2.8-2.7-3.1-29-.6-46.4-3.8-43.6 51.4-43.4 38.2.2 38.2.2 43.8 4.2M683 1794a128 128 0 0 0 33.8-.4 24 24 0 0 1 12.5 0c4.9 1 23.7 1.3 89.7 1.3s84.8-.3 89.8-1.3a24 24 0 0 1 12.5 0c9.1 1.9 140.4 1.9 149.5 0 4.8-1 7.2-1.1 10-.3 2.6.8 50.2 1.3 156.9 1.7 175.3.6 155.9-.7 161.7 10.5 3.1 5.9 3.1 5.9 3.1 24.6 0 20.6-.2 21.3-6.9 26.3-5.3 4-788.1 3.1-796-.9-9.5-4.8-10-6-10.4-23.8-.7-31.7 4.9-35.8 50.3-36.8 15.4-.4 29.6-1.1 31.5-1.7 3.6-1 4.2-.9 12 .8"/><path d="M898.7 360.4c-10.1 3.7-17.7 13.7-17.7 23.4 0 20.1 35 42.3 68.5 43.4 8.9.3 12 .9 16.5 2.9 8.4 3.7 45.6 3.7 54 0 4.8-2.2 7.6-2.6 21.5-3.1 13.7-.6 16.7-1 21-3 3.5-1.6 7.7-2.5 14.6-3 32.9-2.2 46.8-43 20.1-58.8-5.5-3.2-189.9-4.9-198.5-1.8m188.7 21.5c3.2 3 4.2 7.8 2.6 12.5-1.5 4.8-3.8 5.8-14.5 6.7q-9 .7-14 3c-4.3 2-7.3 2.4-21 2.9-14 .6-16.6 1-21 3.1-7.7 3.7-45.3 3.7-53 0a44 44 0 0 0-18-3.1 52 52 0 0 1-18-2.8c-2.7-1.1-7-2.6-9.5-3.2-17.5-4.5-25.3-16.3-13.9-20.9 6.2-2.5 177.5-.8 180.3 1.8"/></g></svg>