<svg xmlns="http://www.w3.org/2000/svg" width="2560" height="2560" viewBox="0 0 1920 1920"><path fill="#f97316" d="M934.9 132.3c-7.8 2.9-42.6 37.1-47.3 46.4a45 45 0 0 1-5.4 8.5 27 27 0 0 0-7.3 13.7 142 142 0 0 1-17.4 35.1c-5.3 6.3-5.7 8-6.5 22.1-.6 12.7-.6 12.7-6.1 23.5s-5.4 10.9-5.7 52.5c-.2 36.6-.1 42.2 1.4 46 .9 2.4 2.6 7.8 3.9 11.9s3.1 9.3 4 11.5c1 2.2 2.1 8.4 2.5 14 .7 9.2 1.1 10.8 5.3 19.2 2.6 5 5.5 12.2 6.5 16 2.5 8.7 13.9 31.5 18.7 37.3 2 2.4 4.7 6.5 6 9s4 6.6 6 9 4.8 6.6 6.2 9.4a72 72 0 0 0 20 21.3c9.2 6.8 9.6 8 9.1 28.3-.3 13.9-.6 16-2.8 20.5-2.2 4.7-2.4 6.4-2.9 27-.7 27.7-1.8 29.9-13.2 28.1-11.8-1.9-14-4.3-15-17.1a45 45 0 0 0-2.8-13.7 50 50 0 0 1-3.1-12.2c-.5-4.2-1.6-8.9-2.4-10.5a62 62 0 0 1-3.5-9.9c-1-3.8-2.4-7.9-3-8.9-.5-1.1-1.9-5.1-3-8.9l-4-12.4c-1.1-3-2.5-7.3-3-9.5s-2.9-6.3-5.2-9-9.2-15.1-15.6-28c-11.5-23-11.5-23-23.8-35.5a98 98 0 0 1-15.4-18.7c-4.3-8-27.1-30.8-34.9-34.7a72 72 0 0 1-12.4-9.2 63 63 0 0 0-11.2-8.5c-2.2-1.2-6.6-4-9.6-6.4-3-2.3-7.1-5-9-6s-5.9-3.6-8.8-5.8a105 105 0 0 0-30.8-12.6c-3.4-1-8.4-3.4-11-5.3-7.2-5.2-9-5.9-16.6-6.9a49 49 0 0 1-11.6-3 48 48 0 0 0-17.7-2.9c-10.5-.5-14-1.1-18.5-3.1-13.9-6.1-35.3-2.7-50.1 8-4.4 3.2-4.4 3.2-13.5 2.6-20.7-1.6-25.1 12.6-5.6 18.4 8.6 2.6 12.4 6.4 14.2 14.2a170 170 0 0 0 18.5 36.9c4.8 5.8 9 14.1 11.4 23 1.1 4 3.3 8.8 4.8 10.7 5.1 6.4 5.6 7.3 7.4 13.6 1 3.4 2.7 8.7 3.8 11.7s2.5 7.3 3 9.5 2.9 6.2 5.2 9a71 71 0 0 1 6.6 9.9c1.3 2.6 5.3 7.8 8.7 11.5a76 76 0 0 1 9.5 12.7c4.1 7.8 51 54.9 58.1 58.4 2.5 1.2 7 4.1 10 6.5 3 2.3 10 6.5 15.5 9.3 5.5 2.7 12.5 7 15.6 9.4 3 2.3 8.7 5.7 12.5 7.5 6.4 2.9 10.1 4.2 30.4 10.7 4.1 1.3 9.3 3.1 11.5 4s5.8 1.5 8 1.6c2.2 0 6.5 1 9.5 2.1s8 2.7 11 3.5c3 .9 7.5 2.4 10 3.4 20.7 8.1 25.4 9 47.4 9 24.8 0 25.5.2 31.7 9.1 2.8 4.1 7.2 8.5 12 12.1 4.5 3.4 8 6.9 8.6 8.5l3.9 10.3a42 42 0 0 1 .4 30.5c-2.3 4.8-2.4 6.2-3 30-.5 24.1-.6 25.2-3 30-2.5 5-2.5 5-2.8 43-.3 42.4-.2 43.6 5.9 51 8.5 10.3 8.1 28.5-.7 28.5-10.9 0-35.5-21.3-38.9-33.6-4.4-16.3-26.4-57.2-36.6-67.9a91 91 0 0 1-12.8-16.1c-4.5-8.5-45-48.8-53-52.9a87 87 0 0 1-15.2-12.1 77 77 0 0 0-26.1-17.5 217 217 0 0 1-22.2-12.5 39 39 0 0 0-11.5-6c-3.1-.9-8.5-3.5-12.1-5.9a95 95 0 0 0-38.5-12.7q-8-.5-13-2.7c-3.5-1.6-8-2.5-15-3.1-7-.5-11.6-1.4-15.5-3.1-8.4-3.7-93.3-3.8-101.7-.1a58 58 0 0 1-12.5 3.2 50 50 0 0 0-12 3 56 56 0 0 1-12.2 3c-4.2.5-8.8 1.6-10.4 2.4s-5.9 2.3-9.9 3.5a34 34 0 0 0-20.2 14.9c-5.4 7.5-6.3 8.1-14.5 9.3a46 46 0 0 0-10.8 2.9 56 56 0 0 1-11.7 2.9c-11.5 1.5-16.9 6.2-14.5 12.8s13 8.9 24.5 4.9c13.5-4.7 15.4-4.1 28.4 8.4 8.6 8.3 11.5 10.2 18.5 11.9a213 213 0 0 1 21 9.1c9.1 4.4 19.1 8.6 22.3 9.5 4.6 1.3 7.2 2.8 12.8 8 3.8 3.5 9.6 7.8 12.8 9.5 7.5 4 25.8 22.4 29.4 29.6 1.4 2.7 4.2 7 6.2 9.4s4.8 6.6 6.2 9.3c1.3 2.7 5.3 8 8.8 11.7s7.5 9.1 9 12 5.5 8.3 9 12a68 68 0 0 1 9.1 12.1c1.5 3.1 6.6 9.5 11.9 14.9 5.5 5.7 10.5 12 12.4 15.7a110 110 0 0 0 28.2 28.3c2.4 1.2 6.9 4.1 9.9 6.5 3 2.3 10 6.5 15.5 9.3a96 96 0 0 1 14 8.2c6 4.8 9.2 6.1 16.7 7.1 3.8.5 9 1.8 11.6 2.9 2.6 1.2 8.1 2.5 12.2 3.1 5.6.7 10.1 2.2 18.4 6.1 10.9 5.1 11 5.2 23.5 5.8 9.5.5 13.7 1.2 17.2 2.7 2.6 1.2 6.2 2.4 8 2.8 1.9.4 6.1 1.7 9.4 2.9 16.8 6.3 28.3 9.4 36 9.8q8 .4 13 2.7c2.8 1.2 8.3 2.6 12.3 3.1s9.3 1.8 11.7 2.9 5.8 2.2 7.6 2.6c1.9.4 6.1 1.7 9.4 3l10.9 4c7.6 2.8 7.7 3.3 7.4 39-.3 30.5-.3 30.5-3.1 33.2-2.7 2.8-2.7 2.8-239 3.3-276.3.6-251.4-1.4-273.8 21.7-12.6 13-12.1 10.5-11.7 53.8.3 35 .3 35 2.8 40 2.4 4.9 2.5 5.7 3 33 .6 26.8.7 28.2 3 33 1.9 4.1 2.5 7.3 3 18a45 45 0 0 0 3.1 18c2 4.3 2.4 7.2 2.9 21 .6 13.4 1 16.8 2.9 20.7 1.2 2.6 2.6 8 3.1 12 .7 5.7 2.1 10 6.1 18.2 5.3 10.8 5.3 10.8 5.9 23.9.5 9.3 1.1 14.1 2.3 16.3a65 65 0 0 1 3.5 10c1.1 3.8 3.8 10.6 6.1 15.1s4.9 11.2 6 15 3.7 10.5 6 15 5 11.2 6.1 15c6.7 22.7 12.3 35.9 18.5 43.3 2 2.4 7.5 12 12.2 21.3a82 82 0 0 0 14.8 23.7c3.5 3.7 7.5 9 8.8 11.7s4.2 6.9 6.2 9.3 4.8 6.7 6.2 9.4 6.7 9.4 11.8 14.6c5.4 5.7 10.5 12 12.4 15.6 4.4 8.3 39 42.8 46.9 46.8 2.9 1.5 8.5 5.6 12.4 9.2s9.3 7.6 12 9c2.7 1.3 8.1 5.4 12 9a69 69 0 0 0 17.2 11.6c5.6 2.7 12.6 6.9 15.6 9.3 10 7.8 42.9 23.4 51.5 24.5 4.1.5 9.1 1.7 11.2 2.6s6.9 2.5 10.6 3.5a122 122 0 0 1 15.8 6.4 44 44 0 0 0 16.5 5.5c4.2.5 9.6 1.9 12.2 3a50 50 0 0 0 12 3c4 .6 9.4 2 12 3.2 4.1 1.9 7.1 2.2 23.7 2.8 17.3.5 19.5.8 24.5 3 8.6 3.9 159.3 3.9 168 .1 4.8-2.2 7.6-2.6 21.5-3.1 13.7-.6 16.7-1 21-3 3.5-1.6 7.8-2.5 14.5-3 5.2-.4 11.3-1.5 13.5-2.4s6.9-2.6 10.5-3.6c16.6-5 24.9-8.3 31.2-12.7 6.5-4.4 7-4.6 16.5-5.2 10.4-.8 13.1-1.8 19.8-7.1a99 99 0 0 1 13.8-8.1 136 136 0 0 0 15.7-9.3 36 36 0 0 1 10.6-5.5c6.8-1.7 9.9-3.6 16.9-10.1 4.5-4.2 9.7-7.6 17.7-11.6 13.3-6.6 82-72.8 88.8-85.5 1.7-3.2 4.6-7.7 6.6-10 2-2.4 4.7-6.5 6.1-9.2s5.3-8 8.8-11.7c7.1-7.6 42.8-76.5 45.5-87.8.6-2.8 2.3-6.7 3.6-8.5 7.2-9.8 7.4-10.3 8.4-18.1.5-4.2 1.9-9.8 3.1-12.4 1.1-2.6 2.4-8 2.9-12 .6-5.8 1.9-9.7 5.9-18 4-8.1 5.4-12.3 6.1-18 .5-4 1.9-9.4 3-12a50 50 0 0 0 3-12c.6-4 1.9-9.4 3.1-12a47 47 0 0 0 2.9-14.8c.5-7.1 1.4-11.5 3-15 2-4.2 2.4-7.2 3-20.9.5-13.9.9-16.7 3-21 2-4.3 2.4-7.1 3-21 .5-13.9.9-16.7 3-21 2-4.3 2.4-7.1 3-21 .5-14.2.9-16.6 3-21 3-5.9 4.5-93.8 1.9-103.5-2-7.3-15.1-19.7-26.5-25.2-8.9-4.3-8.9-4.3-251.6-4.8-242.8-.5-242.8-.5-245.5-3.3-2.8-2.7-2.8-2.7-3.3-39-.5-31.4-.8-36.7-2.3-39.9-2.3-5.1 1-24.3 4.5-26.2l2-1.4c.9-.8 4.6-1.8 8.2-2.3q6.6-.8 15.4-5.3a98 98 0 0 1 14.8-6.1c3.2-1 7.3-2.4 8.9-3.2 4.3-2.2 37.9-35.7 42.6-42.5 2.2-3.2 6.5-7.7 9.7-10s8.2-6.5 11.3-9.3a53 53 0 0 1 10.6-7.8 69 69 0 0 0 12.1-9.1c6-5.4 8.2-6.8 14.1-8.6 4.4-1.3 9.1-3.6 12.8-6.4a69 69 0 0 1 22.8-11.5c4.2-1.2 9.6-3.8 13.3-6.5 3.7-2.5 8.5-5 11.5-5.7a60 60 0 0 0 9.6-3.2c2.9-1.2 8.2-2.2 14.5-2.7a47 47 0 0 0 14.8-2.9c2.6-1.2 8-2.5 12-3.1 4-.5 9.6-1.9 12.3-3.2 5-2.3 5-2.3 72-2.8s67-.5 72-2.9c3.6-1.8 7.2-2.6 13-2.9a113 113 0 0 0 49.4-18c3.1-2.4 7.8-5.5 10.5-6.9 13.5-6.9 32-29.6 32-39.3 0-9.8-18.5-32.5-32.3-39.5a63 63 0 0 1-11.6-8.5c-7.9-7.4-11.2-9-19.9-10.1-6-.8-8.1-1.6-13.7-5.4a53 53 0 0 0-13.5-6.7 86 86 0 0 1-9.6-3.4c-1.6-.8-6.2-1.9-10.3-2.4s-9.7-1.8-12.3-2.8c-22.7-9.1-23.5-9.2-69.2-9.2s-46.9.2-69.5 9.3c-3 1.2-8.2 2.2-13 2.4-7.4.4-22.9 4.6-33.1 8.8-19.6 8.3-27.4 8.2-32.1-.1q-6.7-11.6 7.7-18.9c2.6-1.3 7.9-5.3 11.8-8.9s9.5-7.7 12.4-9.2c7.9-4 42.5-38.5 46.9-46.8a76 76 0 0 1 9.5-12.7c4.5-4.8 7.8-9.8 11.8-17.7 3.1-6.1 6.8-12.6 8.4-14.4 4.9-5.9 5.2-6.5 7.3-13.8a63 63 0 0 1 11.4-23c2-2.4 6.1-9.2 9-15s7-12.6 9-15 4.7-6.5 6-9 4-6.6 6-9 4.8-6.7 6.2-9.4c1.8-3.6 8.8-11.4 23.3-26.1a388 388 0 0 0 23.9-25.7c4.3-6.5 5.9-7.1 19.2-7.8 16.1-.9 22.1-4.8 19.3-12.7-1.8-5.3-6.2-6.7-23.4-7.3-17.4-.7-17.5-.7-26-8.5-9.9-9.1-9.4-9-34-9-20.5 0-21.7.1-27 2.4a44 44 0 0 1-18.1 3.1c-12.5.6-12.6.6-23.8 6a44 44 0 0 1-21.2 6c-11 .7-52.6 19.6-65.8 29.8a84 84 0 0 1-10.2 6.7 68 68 0 0 0-11.7 8.9 72 72 0 0 1-12.4 9.2c-8 4-66.4 62.3-70.9 70.8a76 76 0 0 1-9.5 12.7 64 64 0 0 0-8.7 11.6 63 63 0 0 1-6.2 9.3c-7 8.4-23.5 43.1-24.4 51.4-.9 7.9-1.9 10.4-6.3 15.4a99 99 0 0 0-8.4 14.5c-12.4 24.5-28.4 34.9-38.5 24.8q-9-9 1.3-21c4.8-5.5 5.2-7.4 5.8-30.1.5-20 .7-21.8 2.9-26.5 2.1-4.4 2.5-6.9 3-21 .8-19.1 0-17.5 15.1-33 7.1-7.2 12.7-14 14.3-17.1 1.4-2.7 4.2-7 6.2-9.4s4.7-6.5 6-9 4-6.6 6-9c4.7-5.6 16.8-29.8 18.5-36.8.6-2.8 2.3-6.7 3.6-8.5 7.2-9.8 7.4-10.3 8.4-18 .5-4.3 1.8-9.9 2.9-12.5 3.2-7.9 7.2-20.4 8.2-25.7 1.6-8.2 3.6-15.7 5.4-20.4 2.8-7.6 1.8-61.9-1.3-68.3-1.2-2.6-2.6-8-3.2-12a50 50 0 0 0-3-12 56 56 0 0 1-3-12.2c-.5-4.2-1.6-8.9-2.4-10.5-.9-1.6-2.4-5.9-3.4-9.7a451 451 0 0 0-30.7-61.4c-2-2.4-4.8-6.7-6.2-9.4-3-6-30.5-34.4-37-38.2a24 24 0 0 0-18.4-2.1m13.6 19.8c5.4 1.5 18.3 14.1 22.4 21.9 1.7 3.2 4.8 7.8 6.7 10.2 4.7 5.6 26.8 49.8 29.3 58.5 1 3.7 2.6 8.5 3.5 10.6a51 51 0 0 1 2.6 11c.5 4 1.8 9.3 3 11.9s2.4 8 3 12a50 50 0 0 0 3.2 12.3c3.6 7.8 3.6 63.2 0 71a48 48 0 0 0-3.2 12.2 51 51 0 0 1-2.6 11c-.8 2.1-2.6 7.2-3.9 11.3s-3 9.3-3.9 11.5-1.5 6-1.6 8.5a26 26 0 0 1-7 16 30 30 0 0 0-5 10.8 145 145 0 0 1-17.5 35.2c-2 2.4-4.7 6.5-6 9s-4 6.6-6 9-4.7 6.5-6 9c-8.1 15.9-29.5 15.6-40.8-.6a123 123 0 0 0-6.5-8.7 59 59 0 0 1-5.7-8.7c-1.3-2.5-4-6.6-6-9-4.8-5.7-14.9-26-17.4-34.7-1-3.7-4-11.2-6.6-16.5-4.4-9-4.8-10.5-5.5-20a49 49 0 0 0-2.3-13.5c-.9-1.7-2.5-6.1-3.6-9.9s-3-9.5-4.1-12.7c-2-5.6-2.1-7.5-1.8-46.6.3-40.7.3-40.7 5.7-51.6 5.4-11 5.4-11 6-24 .7-13.6 1.3-15.5 6.3-21.3 3.7-4.3 16.3-30 18.3-37.4.9-3.3 2.9-7.3 5-9.8 1.9-2.3 4.8-6.7 6.5-9.9 4-7.5 22.1-25.7 27.6-27.6 4.8-1.7 8.7-1.8 13.9-.4m-331 211.8c4.1 1.9 7.4 2.5 18 3.1a46 46 0 0 1 18 2.9c2.8 1.2 8.4 2.6 12.5 3.2 6.4.8 8.4 1.5 14 5.4 6.1 4.1 14.6 7.6 30.7 12.4 3.5 1 8.5 3.5 11.5 5.8 2.9 2.2 6.9 4.8 8.8 5.8s6 3.6 9 6c3 2.3 7.4 5.2 9.8 6.4s7.5 5.1 11.4 8.7 9.3 7.6 12.1 9a43 43 0 0 1 17.7 17.7q3.3 6.1 15.5 18.7c12.3 12.5 12.3 12.5 23.8 35.5 6.3 12.7 13.1 25 15.1 27.4 2.1 2.5 4.2 6.6 5.2 9.9.8 3.2 2.4 7.7 3.4 10.2s2.5 7 3.4 10c2.2 7.7 6.5 20.6 8.7 26.2 1.1 2.6 2.4 8 2.9 12a50 50 0 0 0 3.2 12.3c8.9 19.6-1.6 33.3-19.7 25.8-5.5-2.3-17.3-6.2-27.9-9.4a62 62 0 0 1-9.7-3.5c-1.6-.8-6.3-1.9-10.4-2.4s-9.7-1.8-12.3-2.9c-5.4-2.2-17.6-6.2-27.5-9.1a65 65 0 0 1-22.7-11.5c-3-2.3-9.8-6.4-15-9s-12-6.6-15-8.9a84 84 0 0 0-10.6-7c-7.4-4-37.3-34.3-40.9-41.5a62 62 0 0 0-9-12.1c-3.5-3.7-7.5-9-8.8-11.7a70 70 0 0 0-6.1-9.2 29 29 0 0 1-5.2-9.9c-.9-3.2-2.6-8.4-3.9-11.7a57 57 0 0 1-3-9.8 22 22 0 0 0-3.9-7.8c-5.4-7.3-6.5-9.1-7.7-14.3a78 78 0 0 0-12.4-24.6 143 143 0 0 1-20.1-43.5c-3-7.3 0-14.3 6.9-16.5 6.2-1.8 24.6-.7 30.2 1.9m702.7 40.1c4.6 1.3 8.8 6.1 8.8 10.1 0 8.3-5 15.3-27.4 37.9-15 15.1-22.1 23-23.9 26.6-1.4 2.7-4.2 7-6.2 9.4s-4.7 6.5-6 9-4 6.6-6 9-6.1 9.2-9 15-7 12.6-9 15a90 90 0 0 0-13 26.2c-.9 3.4-2.9 7.3-5.1 9.9-2 2.4-6.1 9.2-9.1 15.2a67 67 0 0 1-11.8 17.7 62 62 0 0 0-9 12.1 115 115 0 0 1-29.6 29.9c-3.2 1.7-9 6-12.8 9.5a70 70 0 0 1-11.9 8.9 71 71 0 0 0-12 9 60 60 0 0 1-25.9 14.5c-3.7 1-8.5 2.6-10.6 3.5s-7.1 2.1-11.2 2.6c-5.6.7-9.7 2.1-16.4 5.5a122 122 0 0 1-15.8 6.4c-3.7 1-8.6 2.7-10.8 3.6-2.2 1-8.4 2.1-14 2.5a45 45 0 0 0-15 3.1c-12 5.7-42.9 3.6-45.3-2.9l-3.6-9.5c-5.3-13.6-4.8-14.7 14.4-34.2 14-14.2 15.1-15.6 20.3-26 3-6.1 7.1-13 9.1-15.4 5.2-6.2 5.6-7.2 6.6-15.8 1-8.9 16.3-41.8 23.4-50.2 2.1-2.5 4.9-6.7 6.3-9.4s5.3-8 8.8-11.7 7.5-9.2 9-12.1c3.9-7.8 45.5-49.5 53.6-53.9 3.2-1.7 9-6 12.8-9.5s8.9-7.4 11.2-8.6c2.4-1.2 7-4.2 10.4-6.8 14-10.6 53.1-28.3 64.2-29 9.3-.7 10.7-1.1 21.3-6.1 11.4-5.4 11.4-5.4 24.4-6 8-.4 14.1-1.2 15.6-2 5.9-3.2 10.8-3.9 28.5-3.9 9.9-.1 19.7.4 21.7.9M623.5 687.8c3.6 1.7 7.8 2.6 15.1 3.2a44 44 0 0 1 15 3 48 48 0 0 0 14.9 3c6.4.4 11.8 1.5 15 2.8 2.8 1.2 7 2.6 9.5 3.2s7.5 3.1 11.1 5.6 9.3 5.3 12.8 6.4c3.5 1 8.6 3.6 11.5 5.8A198 198 0 0 0 750 733a77 77 0 0 1 26 17.4 84 84 0 0 0 15.7 12.5c8.1 4.4 31.9 28.3 35.8 36.1 1.7 3.3 6.5 9.3 12 15 10.2 10.5 30.8 48.3 35.4 64.9 4.5 16.1 13.1 28 24.4 33.8 2.7 1.3 7.7 5 11 8.1 3.4 3.2 8.4 7.3 11 9.1 7.6 5.2 7.7 5.7 7.7 39 0 37.8-1.7 41.6-15.8 35.5-2-.9-6.8-2.5-10.6-3.5a62 62 0 0 1-9.7-3.5c-1.6-.8-6.3-1.9-10.5-2.4-4.1-.5-9.6-1.9-12.2-3.1a47 47 0 0 0-14.8-2.9 51 51 0 0 1-14.6-2.8 53 53 0 0 0-7.9-2.7c-1.9-.4-6.1-1.7-9.4-2.9-19.9-7.5-27.8-9.4-39.1-9.8-11-.3-11-.3-21.9-5.6a52 52 0 0 0-18.3-6.2c-4-.5-9.4-1.9-12-3a55 55 0 0 0-12.2-3.1c-6.4-.8-8.3-1.5-13-4.9-3-2.2-10-6.3-15.5-9.1s-12.5-7-15.5-9.4c-3-2.3-7.3-5.1-9.5-6.3a26 26 0 0 1-12.2-12.7 88 88 0 0 0-11.8-14.5 80 80 0 0 1-11.9-14.9 68 68 0 0 0-9.1-12.1 67 67 0 0 1-9-12 67 67 0 0 0-9-12c-3.5-3.7-7.5-9-8.8-11.7a61 61 0 0 0-6.1-9.2 79 79 0 0 1-6.7-10c-4.2-8.1-39-42.7-46.7-46.5-3-1.5-8.2-5.4-11.7-8.6-7-6.5-9.9-8.3-16.5-9.9-2.5-.7-11.9-4.7-21-9s-18.7-8.7-21.5-9.8c-18.3-6.9-3.3-30.1 21.6-33.3 4.1-.5 9.5-1.8 12.1-3s8.1-2.5 12.3-3a39 39 0 0 0 9.8-2.2c6.6-3.5 9.6-3.7 54.2-3.5 43.9.2 44 .2 49 2.5m705.5 17.3 13 4.3c4.1 1.3 9.3 3.1 11.5 4s5.8 1.5 8 1.6c2.2 0 6.5 1 9.5 2.1s8.3 2.8 11.6 3.8c3.4 1 8.4 3.4 11.2 5.4q9 6.7 15.4 6.7c6.6 0 10.8 2.1 18 8.6 3.9 3.6 9.1 7.6 11.7 8.9 18.4 9.4 18.7 31.4.6 40.7-2.2 1.2-6.5 4-9.5 6.3a63 63 0 0 1-22.7 11.4c-3.7 1-8.6 2.7-10.8 3.6-2.2 1-8.4 2.1-14 2.5-7.2.6-11.4 1.5-15 3.2-5 2.3-5 2.3-72 2.8s-67 .5-71.7 2.8c-2.6 1.2-8 2.6-12 3.2-4 .5-9.5 1.9-12.3 3.1a37 37 0 0 1-13 2.7c-11 .5-29.6 6.7-38.5 12.7a46 46 0 0 1-11.5 5.6 84 84 0 0 0-24.5 12.3 36 36 0 0 1-10.6 5.5c-6.8 1.7-9.9 3.6-16.9 10.1a64 64 0 0 1-11.3 8.4 71 71 0 0 0-12 9 69 69 0 0 1-12.2 9.1 70 70 0 0 0-23.4 23.4c-6.2 11.2-23.2 27.4-31.1 29.6-3.3.9-10.9 3.9-17 6.8-23.1 10.8-27.8 8-28.3-16.8-.4-18.3.2-20.6 7.2-29.2 2.5-3 3.7-5.7 4.1-9 1.5-12.3 2.9-14 16.4-20.8a98 98 0 0 0 31-29.5c1.7-3.2 4.7-7.8 6.7-10.1a62 62 0 0 0 6.1-9.3c1.4-2.8 6.5-9.2 11.3-14.1s10.1-11.1 11.9-13.8c1.8-2.6 5.8-6.6 8.9-8.8s12.2-10.6 20.2-18.4a106 106 0 0 1 20-17c3.8-1.9 10.2-7.4 21-18 14.6-14.4 15.9-15.4 21.5-17 3.3-.9 8-2.5 10.5-3.5s7-2.5 10-3.4a292 292 0 0 0 26.5-8.9 56 56 0 0 1 14.5-2.7c5.2-.4 11.3-1.5 13.5-2.4s6.9-2.6 10.5-3.6c3.6-1.1 9-2.8 12-3.9 8.4-3.1 87.5-3.1 96 0m-214.7 6.6c5.1 8.9 3.9 13.4-6.8 24.2a70 70 0 0 1-15.9 13.2c-4.3 2.3-10.6 7.7-21.6 18.4a119 119 0 0 1-20.8 17.9 69 69 0 0 0-23.2 22.8c-2 3.8-7 10-12.5 15.8a84 84 0 0 0-11.8 14.6c-1.4 2.7-4.2 7-6.2 9.4s-4.7 6.4-6 8.9c-3.5 7-7 9.9-19 15.7-22 10.7-21.7 11.2-21.3-38.4.3-36.6.3-36.7 2.7-41.7 2.3-4.7 2.5-6.4 3-26.2.8-28.6-1.2-26.6 27.4-27.4 19.5-.5 21.6-.7 26.2-2.9 3.5-1.6 7.4-2.5 13-2.8 9.7-.5 25.2-5.2 40.5-12.3a57 57 0 0 1 18.3-5.9c4.3-.5 8.8-1.5 10-2.2 10.2-5.5 21.1-6 24-1.1m332.1 414.8c10.8 5.5 10.1 1.5 10.1 56.3 0 47.7 0 47.7-2.4 52.7-2.1 4.4-2.5 7-3.1 21-.5 13.9-.9 16.7-3 21-2 4.3-2.4 7.1-3 21-.5 13.9-.9 16.7-3 21-2 4.3-2.4 7.1-3 21-.5 13.7-.9 16.7-2.9 21a45 45 0 0 0-3.1 15.1 47 47 0 0 1-2.9 15 53 53 0 0 0-3.1 12.2c-.6 4-1.9 9.4-3.1 12-1.1 2.6-2.4 8-2.9 12-.6 5.8-1.9 9.7-5.9 18-4 8.1-5.4 12.3-6.1 18-.5 4-1.9 9.4-3.1 12a55 55 0 0 0-2.9 11.9c-.8 7.2-2 10-7.3 16.6a35 35 0 0 0-4.7 10.6c-3.9 14-37 78.2-44.5 86.1-3.5 3.7-7.5 9-8.8 11.7a61 61 0 0 1-6.1 9.2c-2 2.3-4.9 6.8-6.6 10-6.6 12.3-58.4 61.9-71.6 68.4-8 4-13.1 7.4-18.2 12.1-6 5.4-8.2 6.8-14.1 8.6a42 42 0 0 0-12.8 6.4c-3.2 2.4-10.3 6.7-15.8 9.5s-12.5 7-15.6 9.2c-5.5 4-6 4.2-15.5 4.8-10.5.8-12.1 1.3-19.8 6.9a47 47 0 0 1-11 5.4c-9.7 2.8-21.7 6.9-27.1 9.1a58 58 0 0 1-15 2.7 45 45 0 0 0-15 3.1c-4.3 2-7.3 2.4-21 2.9-14 .6-16.6 1-21 3.1-7.9 3.8-159.1 3.8-167 0-4.6-2.2-6.6-2.5-24-3.1-16.8-.5-19.6-.8-24-2.8a49 49 0 0 0-12.3-3.2c-4-.6-9.4-1.9-12-3a55 55 0 0 0-12.2-3.1c-5.6-.7-9.9-2.1-17-5.5-5.2-2.5-12.6-5.5-16.4-6.5a62 62 0 0 1-9.7-3.5c-1.6-.8-6.4-1.9-10.6-2.4-9.3-1.1-39.1-15-49.9-23.2-3.4-2.5-10.7-6.9-16.3-9.7a72 72 0 0 1-17.2-11.7c-4-3.6-9.4-7.6-12.1-9a66 66 0 0 1-12-9 69 69 0 0 0-12.2-9.1 113 113 0 0 1-29.7-29.7 86 86 0 0 0-12.4-15.6 84 84 0 0 1-11.8-14.6c-1.4-2.7-4.2-7-6.2-9.4s-4.8-6.6-6.2-9.3c-1.3-2.7-5.3-8-8.8-11.7a82 82 0 0 1-14.8-23.7 184 184 0 0 0-12.2-21.3 65 65 0 0 1-11.5-22.7 214 214 0 0 0-12.1-33.3c-2.6-5.8-5.4-12.8-6-15.5-.7-2.8-3.2-8.9-5.5-13.7-2.4-4.8-5.2-11.7-6.3-15.5-1-3.7-2.7-8.6-3.7-10.8a59 59 0 0 1-2.4-17c-.7-13-.7-13-6-23.7a47 47 0 0 1-6-18c-.5-4-1.9-9.6-3.1-12.3-2-4.3-2.4-7.4-2.9-21-.6-13.8-1-16.7-3-21a43 43 0 0 1-3-18 44 44 0 0 0-3.1-18c-2.3-4.8-2.4-6.2-2.9-33-.6-27.1-.7-28.2-3-33-2.5-5-2.5-5.2-2.8-39.5-.4-43.7 0-45 14-49.1 3.5-1 8.8-2.7 11.8-3.8 10.8-4 991.6-2.6 999.4 1.4"/></svg>