<?xml version="1.0" standalone="no"?>
<!DOCTYPE svg PUBLIC "-//W3C//DTD SVG 20010904//EN"
 "http://www.w3.org/TR/2001/REC-SVG-20010904/DTD/svg10.dtd">
<svg version="1.0" xmlns="http://www.w3.org/2000/svg"
 width="774.000000pt" height="960.000000pt" viewBox="0 0 774.000000 960.000000"
 preserveAspectRatio="xMidYMid meet">
<metadata>
Created by potrace 1.16, written by Peter Selinger 2001-2019
</metadata>
<g transform="translate(0.000000,960.000000) scale(0.100000,-0.100000)"
fill="#f97316" stroke="none">
<path d="M6333 8704 c-27 -27 -27 -43 -7 -166 4 -25 -1 -56 -15 -97 -15 -45
-21 -86 -21 -151 0 -114 -14 -148 -77 -191 -134 -91 -257 -234 -284 -329 -11
-39 -38 -108 -60 -153 -23 -45 -50 -112 -60 -150 -11 -37 -67 -163 -125 -280
-133 -266 -132 -251 -36 -443 38 -77 86 -159 106 -183 21 -25 42 -66 52 -99 8
-32 25 -79 37 -107 33 -76 31 -221 -3 -290 -25 -50 -25 -50 -30 -480 -5 -428
-5 -430 -29 -480 -21 -44 -25 -70 -31 -210 -5 -140 -9 -166 -30 -210 -23 -47
-24 -63 -30 -300 -5 -237 -6 -253 -29 -300 -21 -44 -25 -70 -31 -210 -5 -140
-9 -166 -30 -210 -23 -47 -24 -63 -30 -300 -5 -237 -6 -253 -29 -300 -21 -44
-25 -70 -31 -210 -5 -140 -9 -166 -30 -210 -23 -47 -24 -63 -30 -300 -5 -237
-6 -253 -29 -300 -21 -44 -25 -70 -31 -210 -5 -140 -9 -166 -30 -210 -22 -47
-24 -65 -30 -270 -4 -178 -9 -227 -23 -259 -72 -161 72 -231 168 -80 45 70 64
70 95 3 69 -147 178 -116 200 56 5 42 20 97 32 123 19 41 22 70 28 237 5 173
8 194 30 240 23 48 24 62 30 300 5 237 6 253 29 300 21 44 25 70 31 210 5 140
9 166 30 210 23 47 24 63 30 300 5 238 6 252 29 300 22 46 25 67 31 240 5 173
8 194 30 240 23 48 24 62 30 300 5 238 6 252 29 300 22 46 25 67 31 240 5 173
8 194 30 240 22 47 24 65 30 270 5 203 7 224 29 270 17 36 25 77 30 150 8 106
15 128 66 188 52 61 59 102 53 330 -6 202 -6 202 157 359 248 240 307 375 236
538 -17 39 -26 85 -31 155 -6 70 -15 115 -31 150 -18 40 -24 76 -29 180 -6
101 -12 140 -29 177 -12 26 -26 81 -31 124 -11 87 -21 105 -97 185 -77 82 -83
101 -83 289 0 136 3 168 20 212 60 158 -78 371 -177 272z m-123 -885 c23 -42
17 -199 -9 -254 -22 -45 -25 -67 -31 -240 -5 -173 -8 -194 -30 -240 -23 -48
-24 -61 -30 -340 -6 -291 -9 -319 -36 -329 -26 -10 -42 5 -64 58 -11 29 -39
75 -62 102 -22 27 -69 107 -104 178 -90 181 -91 171 42 438 59 117 115 244
125 281 11 37 41 112 68 165 26 53 51 111 55 127 16 68 55 95 76 54z m303
-244 c6 -11 14 -76 18 -145 5 -98 11 -136 29 -174 16 -35 25 -80 30 -150 6
-72 15 -115 31 -151 17 -36 23 -69 24 -116 1 -203 -278 -470 -325 -311 -24 78
-9 489 19 547 22 46 25 66 31 240 5 171 8 194 28 233 47 89 77 96 115 27z
m-312 -1441 c62 -66 35 -331 -36 -354 -98 -33 -150 15 -150 138 1 173 109 298
186 216z m-123 -616 c25 -25 8 -108 -23 -108 -33 0 -45 61 -19 98 17 25 25 27
42 10z m-48 -447 c15 -29 12 -126 -4 -166 -29 -68 -66 -34 -66 59 0 97 41 160
70 107z m-60 -420 c16 -31 13 -197 -5 -231 -36 -70 -65 -25 -65 100 0 123 37
192 70 131z m-60 -600 c16 -31 13 -197 -5 -231 -36 -70 -65 -25 -65 100 0 123
37 192 70 131z m-60 -420 c17 -32 13 -257 -5 -291 -39 -76 -65 -24 -65 130 0
152 33 229 70 161z m-60 -600 c20 -38 13 -262 -10 -298 -44 -73 -60 -39 -60
135 0 154 33 231 70 163z m-56 -413 c26 -98 -1 -328 -39 -328 -41 0 -53 255
-15 318 23 37 45 41 54 10z m-64 -607 c20 -38 13 -262 -10 -298 -44 -73 -60
-39 -60 135 0 154 33 231 70 163z m-56 -413 c28 -105 -1 -388 -39 -388 -41 0
-54 314 -15 378 23 37 45 41 54 10z"/>
<path d="M2915 8694 c-42 -17 -117 -37 -200 -53 -104 -20 -218 -66 -470 -189
-260 -127 -260 -127 -607 -471 -272 -270 -353 -356 -378 -402 -17 -32 -47 -77
-66 -100 -48 -57 -162 -286 -186 -373 -10 -38 -26 -82 -35 -99 -9 -18 -19 -73
-23 -132 -5 -71 -14 -116 -31 -155 -24 -55 -24 -57 -24 -420 0 -363 0 -365 24
-420 17 -39 26 -84 31 -155 4 -59 14 -114 23 -132 9 -17 25 -61 36 -99 12 -38
32 -105 47 -149 33 -102 214 -473 252 -517 16 -18 44 -59 62 -91 65 -115 160
-117 191 -4 26 94 32 109 66 149 19 23 46 64 60 92 14 28 52 78 83 111 32 33
74 88 94 122 46 78 84 110 142 119 171 25 364 -73 379 -193 8 -68 20 -119 45
-188 58 -160 10 -348 -129 -500 -49 -54 -74 -91 -82 -119 -21 -84 -31 -107
-66 -148 -19 -23 -46 -64 -59 -91 -14 -26 -56 -82 -94 -123 -71 -77 -90 -115
-90 -187 0 -62 -25 -105 -125 -208 -73 -77 -96 -108 -105 -141 -6 -24 -20 -68
-31 -98 -11 -30 -28 -83 -38 -118 -22 -74 -55 -113 -126 -149 -81 -40 -569
-534 -584 -590 -29 -106 87 -247 279 -343 58 -28 130 -71 160 -95 30 -23 74
-52 98 -64 24 -12 75 -51 114 -87 39 -36 94 -77 122 -91 74 -37 374 -336 416
-414 17 -32 46 -77 66 -100 20 -24 47 -66 61 -93 31 -61 190 -227 253 -264 66
-39 1758 -43 1847 -4 29 12 84 27 123 31 113 15 211 88 238 180 18 60 15 346
-4 396 -9 22 -26 74 -39 115 -13 41 -31 92 -39 113 -9 21 -21 71 -26 112 -7
56 -21 97 -55 164 -24 49 -54 122 -64 161 -21 73 -24 79 -73 138 -16 18 -40
56 -54 85 -19 36 -82 108 -209 237 -215 218 -209 205 -204 402 4 148 10 166
73 212 50 38 217 36 336 -4 147 -49 203 -36 318 73 85 83 101 111 111 202 7
62 19 98 60 182 34 70 54 127 60 168 12 83 20 95 94 148 210 150 218 186 107
501 -35 97 -26 484 11 522 36 36 89 41 166 15 144 -48 236 22 160 123 -13 17
-41 60 -61 96 -21 36 -51 80 -67 98 -16 18 -40 55 -54 82 -14 27 -38 64 -54
82 -43 50 -53 75 -62 154 -9 82 -62 200 -124 274 -20 24 -47 65 -61 92 -13 26
-37 63 -54 81 -38 44 -60 96 -60 144 0 61 -17 105 -61 158 -22 27 -51 70 -64
95 -13 26 -40 66 -60 90 -20 24 -48 67 -62 94 -16 31 -73 99 -148 176 -77 79
-132 144 -149 177 -14 29 -39 68 -56 86 -51 59 -60 93 -60 237 0 157 8 180 89
265 32 33 71 85 86 115 19 38 75 103 180 210 197 202 216 244 149 341 -65 94
-314 232 -450 249 -42 5 -96 19 -122 30 -26 12 -80 25 -120 30 -40 6 -94 20
-120 32 -63 31 -855 40 -927 12z m920 -212 c28 -13 83 -27 123 -32 40 -6 94
-19 120 -30 26 -12 80 -25 121 -30 144 -19 271 -101 271 -177 0 -32 -14 -49
-149 -187 -94 -95 -163 -174 -185 -213 -59 -101 -103 -122 -184 -87 -20 9 -82
19 -137 24 -70 5 -116 14 -155 31 -83 36 -515 37 -597 1 -29 -12 -86 -27 -127
-32 -66 -8 -100 -22 -278 -111 -203 -101 -203 -101 -516 -412 -343 -342 -362
-367 -416 -544 -13 -43 -31 -98 -40 -122 -31 -82 -19 -920 14 -986 41 -83 37
-215 -11 -316 -44 -92 -199 -269 -235 -269 -40 0 -143 178 -183 315 -30 103
-71 223 -94 280 -12 31 -23 89 -27 150 -6 72 -15 114 -32 150 -36 78 -36 752
0 830 17 36 26 78 32 150 4 56 15 118 25 140 9 22 26 71 36 108 25 87 126 290
173 346 19 23 49 68 66 100 23 43 94 120 288 313 257 256 257 256 499 377 133
66 273 130 310 141 37 10 93 28 123 39 30 11 71 20 90 21 37 0 59 6 150 40 89
32 851 26 925 -8z m-222 -896 c18 -7 40 -23 51 -34 26 -30 18 -31 -294 -35
-260 -4 -266 -4 -321 -30 -31 -14 -76 -31 -99 -37 -170 -46 -294 -132 -532
-368 -169 -168 -234 -239 -257 -282 -17 -32 -49 -80 -72 -106 -74 -90 -119
-196 -126 -299 -8 -124 -42 -183 -73 -126 -18 35 -12 270 9 316 10 22 24 65
30 95 33 144 71 197 313 437 258 257 492 399 703 428 50 7 110 22 135 33 57
26 475 33 533 8z m297 -66 c44 -44 15 -86 -52 -75 -88 15 -180 71 -141 86 43
17 172 10 193 -11z m-220 -231 c30 -11 86 -29 125 -40 264 -77 292 -147 166
-409 -44 -91 -87 -190 -96 -222 -9 -33 -29 -73 -51 -99 -19 -24 -47 -65 -61
-92 -13 -27 -53 -79 -87 -116 -34 -36 -77 -94 -95 -129 -39 -73 -108 -140
-180 -177 -29 -14 -96 -68 -150 -119 -54 -52 -117 -104 -142 -116 -24 -13 -69
-42 -99 -66 -89 -69 -533 -284 -587 -284 -83 0 -184 65 -200 129 -3 14 -17 53
-31 86 -17 42 -27 90 -32 160 -6 72 -15 114 -31 150 -34 72 -34 218 0 290 17
36 25 78 31 152 9 116 45 211 113 291 20 24 50 69 67 101 94 176 395 406 617
470 37 11 93 29 123 40 49 18 80 20 300 20 220 0 251 -2 300 -20z m608 -474
c22 -19 53 -61 71 -94 17 -33 47 -79 67 -102 19 -23 45 -61 56 -83 11 -23 30
-54 43 -71 71 -96 31 -144 -131 -155 -207 -14 -415 -176 -337 -262 26 -29 81
-22 169 19 79 38 79 38 240 41 192 4 216 -2 265 -75 18 -26 46 -64 62 -82 51
-60 98 -172 108 -258 6 -56 15 -85 34 -112 14 -20 38 -54 54 -76 47 -66 92
-161 85 -178 -17 -46 -248 -51 -339 -7 -46 22 -65 24 -270 30 -201 5 -224 7
-270 28 -27 13 -83 27 -123 32 -40 5 -96 20 -125 32 -70 31 -223 33 -277 4
-48 -26 -323 -298 -371 -368 -62 -91 -160 -148 -256 -148 -61 -1 -117 -33
-213 -124 -138 -131 -176 -122 -191 44 -4 52 -16 104 -29 134 -25 56 -36 143
-26 210 12 75 47 105 229 197 89 45 187 101 217 124 30 24 74 53 98 65 24 11
87 63 141 115 56 53 121 105 152 120 78 40 307 267 350 348 18 34 61 92 95
128 34 37 74 89 88 117 14 28 38 66 54 84 49 59 52 65 73 138 54 196 125 260
207 185z m-2353 -915 c8 -16 15 -53 15 -82 1 -55 9 -101 31 -181 23 -84 -48
-105 -94 -28 -20 34 -25 268 -7 302 15 28 37 23 55 -11z m1970 -654 c37 -16
48 -49 19 -60 -27 -10 -132 -7 -158 5 -96 44 39 96 139 55z m830 -132 c101
-52 99 -48 106 -327 5 -233 7 -244 32 -302 15 -33 27 -67 27 -76 0 -8 9 -43
21 -77 25 -75 14 -104 -46 -121 -139 -38 -203 -123 -215 -284 -7 -90 -11 -106
-59 -204 -34 -70 -54 -127 -60 -168 -20 -136 -79 -154 -266 -81 -26 10 -74 15
-135 16 -130 0 -156 9 -241 86 -41 36 -96 77 -123 91 -27 14 -72 46 -100 73
-94 88 -176 94 -176 13 0 -51 126 -193 241 -271 65 -44 68 -65 23 -165 -60
-136 -63 -148 -64 -247 0 -52 -6 -121 -14 -152 -23 -98 17 -164 136 -224 74
-37 257 -218 297 -294 18 -32 47 -77 66 -100 21 -25 41 -65 50 -98 9 -32 39
-105 67 -164 39 -83 52 -123 58 -182 5 -41 16 -88 24 -104 8 -16 24 -60 35
-98 11 -38 29 -94 40 -124 44 -121 23 -340 -33 -340 -33 0 -53 28 -131 180
-35 70 -81 147 -100 171 -20 23 -48 65 -62 92 -13 27 -53 79 -87 116 -34 36
-77 94 -95 127 -46 87 -809 848 -891 889 -74 37 -193 154 -238 235 -20 35 -58
88 -84 117 -79 87 -75 122 20 175 141 80 262 241 307 410 9 34 29 73 51 99 79
94 176 314 184 414 8 111 17 129 77 150 171 59 300 152 384 277 22 32 65 76
97 99 31 23 136 120 232 215 207 203 187 194 415 191 169 -2 171 -2 230 -33z
m-1035 -124 c57 -29 73 -51 50 -65 -17 -11 -231 17 -246 32 -58 59 95 84 196
33z m-352 -230 c23 -10 70 -24 105 -30 119 -22 122 -71 7 -131 -66 -35 -391
-37 -456 -2 -106 57 -83 113 53 133 38 5 89 18 114 30 56 25 122 25 177 0z
m-570 -291 c31 -12 80 -29 108 -39 95 -34 126 -73 67 -86 -45 -9 -114 -30
-175 -53 -110 -40 -329 -26 -347 23 -43 115 183 216 347 155z m230 -350 c55
-19 54 -62 -4 -167 -53 -94 -57 -96 -269 -103 -161 -5 -185 -8 -230 -29 -49
-23 -320 -48 -367 -34 -55 17 -23 98 77 193 92 87 105 91 330 91 99 0 194 4
210 10 17 5 55 18 85 29 62 23 122 26 168 10z m-239 -480 c68 -24 48 -89 -48
-162 -36 -26 -89 -70 -118 -98 -108 -102 -241 -141 -333 -97 -56 26 -217 36
-315 19 -88 -16 -99 -8 -93 71 7 99 55 143 168 157 41 6 98 20 125 32 40 18
77 24 180 29 79 4 140 12 155 20 70 38 211 53 279 29z m-197 -626 c98 -94 111
-142 55 -198 -55 -55 -179 -57 -208 -4 -101 189 11 337 153 202z m-742 10 c14
-9 49 -38 77 -65 59 -55 122 -87 171 -88 58 0 97 -24 140 -87 45 -65 133 -153
204 -201 65 -45 71 -60 79 -197 5 -97 11 -130 30 -170 31 -64 44 -991 15
-1059 -30 -72 -102 -42 -156 64 -10 20 -35 56 -54 79 -20 23 -49 68 -66 100
-44 81 -511 546 -588 585 -29 15 -85 56 -124 92 -39 36 -89 74 -112 85 -22 12
-66 40 -96 63 -30 24 -92 62 -138 86 -118 61 -148 112 -108 188 27 51 337 348
393 376 29 14 80 52 115 84 94 87 158 106 218 65z m1107 -380 c30 -21 79 -53
111 -71 87 -51 671 -636 714 -717 17 -33 60 -90 94 -126 34 -37 74 -89 87
-116 14 -27 42 -69 63 -94 43 -51 184 -330 184 -364 0 -67 11 -66 -732 -63
-638 3 -638 3 -665 31 -28 27 -28 27 -33 540 -5 512 -5 512 -30 562 -29 59
-43 323 -20 398 23 78 131 88 227 20z"/>
</g>
</svg>
