<?xml version="1.0" standalone="no"?>
<!DOCTYPE svg PUBLIC "-//W3C//DTD SVG 20010904//EN"
 "http://www.w3.org/TR/2001/REC-SVG-20010904/DTD/svg10.dtd">
<svg version="1.0" xmlns="http://www.w3.org/2000/svg"
 width="1920.000000pt" height="1920.000000pt" viewBox="0 0 1920.000000 1920.000000"
 preserveAspectRatio="xMidYMid meet">
<metadata>
Created by potrace 1.16, written by Peter Selinger 2001-2019
</metadata>
<g transform="translate(0.000000,1920.000000) scale(0.100000,-0.100000)"
fill="#f97316" stroke="none">
<path d="M11875 16241 c-98 -36 -157 -56 -256 -86 -100 -31 -429 -196 -499
-250 -30 -24 -98 -64 -150 -90 -52 -26 -120 -67 -150 -90 -30 -24 -98 -64
-150 -90 -52 -26 -120 -67 -150 -90 -30 -24 -125 -78 -210 -120 -85 -43 -180
-97 -210 -120 -30 -24 -98 -64 -150 -90 -52 -26 -120 -67 -150 -90 -30 -24
-98 -64 -150 -90 -52 -26 -120 -67 -150 -90 -30 -24 -152 -91 -270 -150 -118
-59 -240 -127 -270 -150 -30 -24 -98 -64 -150 -90 -52 -26 -120 -67 -150 -90
-30 -24 -97 -64 -149 -90 -52 -26 -118 -65 -147 -87 -31 -23 -80 -48 -118 -59
-39 -12 -88 -37 -123 -63 -32 -24 -74 -51 -93 -61 -19 -10 -60 -37 -90 -60
-30 -24 -125 -78 -210 -120 -85 -43 -180 -97 -210 -120 -30 -24 -125 -78 -210
-120 -85 -43 -180 -97 -210 -120 -30 -24 -98 -64 -150 -90 -52 -26 -120 -67
-150 -90 -30 -24 -97 -64 -148 -89 -51 -26 -119 -66 -152 -90 -32 -24 -80 -49
-106 -55 -68 -17 -99 -36 -170 -101 -49 -46 -98 -77 -226 -141 -90 -45 -188
-101 -218 -124 -30 -24 -125 -78 -210 -120 -85 -43 -180 -97 -210 -120 -30
-24 -98 -64 -150 -90 -52 -26 -120 -67 -150 -90 -30 -24 -152 -91 -270 -150
-118 -59 -240 -127 -270 -150 -30 -24 -71 -51 -90 -60 -19 -10 -60 -37 -90
-60 -30 -24 -98 -64 -150 -90 -52 -26 -120 -67 -150 -90 -30 -24 -152 -91
-270 -150 -118 -59 -240 -127 -270 -150 -30 -24 -98 -64 -150 -90 -52 -26
-120 -67 -150 -90 -30 -24 -98 -64 -150 -90 -52 -26 -120 -67 -150 -90 -30
-24 -152 -91 -270 -150 -118 -59 -240 -127 -270 -150 -30 -24 -71 -51 -90 -60
-19 -10 -60 -37 -90 -60 -30 -24 -152 -91 -270 -150 -118 -59 -240 -127 -270
-150 -30 -24 -98 -64 -150 -90 -52 -26 -120 -67 -150 -90 -30 -24 -125 -78
-210 -120 -85 -43 -180 -97 -210 -120 -30 -24 -71 -51 -90 -60 -19 -10 -60
-37 -90 -60 -30 -24 -75 -53 -100 -65 -48 -24 -288 -253 -321 -306 -11 -18
-23 -65 -29 -109 -5 -42 -20 -97 -32 -123 -19 -41 -22 -70 -28 -237 -5 -173
-8 -194 -30 -240 -32 -68 -42 -313 -15 -385 9 -25 28 -81 41 -125 15 -47 37
-94 54 -115 17 -19 42 -55 56 -80 28 -47 58 -92 99 -149 50 -68 34 -119 -59
-185 -123 -88 -200 -221 -201 -346 0 -149 162 -418 290 -482 22 -11 65 -39 95
-63 30 -23 71 -50 90 -60 19 -9 60 -36 90 -60 30 -23 71 -50 90 -60 19 -9 60
-36 90 -60 30 -23 152 -91 270 -150 118 -59 240 -126 270 -150 30 -23 100 -65
155 -93 55 -27 125 -70 156 -94 217 -169 466 -219 707 -143 193 60 268 101
376 204 100 96 129 110 185 94 20 -6 69 -20 109 -32 94 -28 401 -181 472 -236
30 -23 98 -64 150 -90 52 -26 120 -66 150 -90 30 -23 98 -64 150 -90 52 -26
120 -66 150 -90 30 -23 155 -93 278 -154 340 -170 352 -185 351 -436 0 -137
-3 -168 -20 -215 -49 -130 -49 -172 0 -300 11 -30 25 -75 31 -99 14 -55 94
-137 169 -175 28 -15 84 -56 123 -92 49 -46 102 -81 172 -116 56 -27 126 -69
156 -93 30 -23 98 -64 150 -90 52 -26 120 -66 150 -90 30 -23 98 -64 150 -90
52 -26 120 -66 150 -90 104 -80 549 -294 636 -305 42 -5 96 -19 122 -31 37
-17 76 -23 177 -29 105 -5 140 -11 180 -30 118 -54 293 -40 401 32 75 52 75
52 205 58 140 7 423 126 568 238 31 24 74 53 96 64 21 11 63 38 92 60 30 23
80 48 117 59 39 12 88 37 123 63 32 24 101 65 153 91 52 26 120 67 150 90 30
24 98 64 150 90 52 26 120 67 150 90 30 24 98 64 150 90 52 26 120 67 150 90
30 24 127 79 216 123 130 65 174 93 232 146 60 54 82 68 141 86 44 13 91 36
128 64 32 24 101 65 153 91 52 26 120 67 150 90 30 24 98 64 150 90 52 26 120
67 150 90 30 24 125 78 210 120 85 43 180 97 210 120 30 24 125 78 210 120 85
43 180 97 210 120 30 24 98 64 150 90 52 26 120 67 150 90 30 24 98 64 150 90
52 26 120 67 150 90 30 24 71 51 90 60 19 10 58 36 87 57 30 23 80 48 117 59
39 12 88 37 123 63 32 24 74 51 93 61 19 10 60 37 90 60 30 24 98 64 150 90
52 26 120 67 150 90 30 24 124 78 209 120 85 42 178 95 207 117 31 23 80 48
118 59 39 12 88 37 123 63 32 24 74 51 93 61 19 10 60 37 90 60 30 24 98 64
150 90 52 26 120 67 150 90 30 24 152 91 270 150 118 59 240 127 270 150 30
24 98 64 150 90 52 26 120 67 150 90 30 24 98 64 150 90 52 26 120 67 150 90
30 24 97 64 149 90 52 26 118 65 147 87 31 23 80 48 118 59 39 12 88 37 123
63 32 24 74 51 93 61 19 10 60 37 90 60 30 24 125 78 210 120 85 43 180 97
210 120 30 24 71 51 90 60 19 10 60 37 90 60 30 24 152 91 270 150 118 59 240
127 270 150 30 24 98 64 150 90 52 26 120 67 150 90 30 24 98 64 150 90 52 26
120 67 150 90 30 24 98 64 150 90 52 26 120 67 150 90 30 24 71 51 90 60 19
10 60 37 90 60 30 24 73 52 95 63 105 53 187 169 239 339 13 43 32 98 41 123
27 74 18 377 -15 445 -38 81 -49 282 -33 645 8 175 11 201 33 250 36 80 36
221 0 300 -24 53 -25 64 -30 330 -6 338 13 294 -233 537 -192 191 -192 191
-357 273 -91 45 -190 101 -220 125 -30 23 -98 64 -150 90 -52 26 -120 66 -150
90 -30 23 -98 64 -150 90 -52 26 -120 66 -150 90 -30 23 -98 64 -150 90 -52
26 -120 66 -150 90 -30 23 -125 77 -210 120 -85 42 -180 96 -210 120 -30 23
-98 64 -150 90 -52 26 -120 66 -150 90 -30 23 -125 77 -210 120 -85 42 -180
96 -210 120 -30 23 -125 77 -210 120 -85 42 -180 96 -210 120 -30 23 -98 64
-150 90 -52 26 -120 66 -150 90 -30 23 -98 64 -150 90 -52 26 -120 66 -150 90
-30 23 -125 77 -210 120 -85 42 -180 96 -210 120 -30 23 -98 64 -150 90 -52
26 -120 66 -150 90 -30 23 -98 64 -150 90 -52 26 -120 66 -150 90 -30 23 -98
64 -150 90 -52 26 -120 66 -150 90 -30 23 -152 91 -270 150 -118 59 -240 126
-270 150 -30 23 -98 64 -150 90 -52 26 -120 66 -150 90 -97 75 -309 174 -396
185 -42 5 -96 20 -122 32 -82 39 -379 38 -487 -1z m480 -199 c28 -13 84 -27
125 -32 90 -12 278 -97 376 -172 34 -25 103 -67 155 -93 52 -26 119 -66 149
-90 30 -23 152 -91 270 -150 118 -59 240 -126 270 -150 30 -23 98 -64 150 -90
52 -26 120 -66 150 -90 30 -23 98 -64 150 -90 52 -26 120 -66 150 -90 30 -23
98 -64 150 -90 52 -26 120 -66 150 -90 30 -23 125 -77 210 -120 85 -42 180
-96 210 -120 30 -23 98 -64 150 -90 52 -26 120 -66 150 -90 30 -23 98 -64 150
-90 52 -26 120 -66 150 -90 30 -23 125 -77 210 -120 85 -42 180 -96 210 -120
30 -23 125 -77 210 -120 85 -42 180 -96 210 -120 30 -23 98 -64 150 -90 52
-26 120 -66 150 -90 30 -23 125 -77 210 -120 85 -42 180 -96 210 -120 30 -23
98 -64 150 -90 52 -26 120 -66 150 -90 30 -23 98 -64 150 -90 52 -26 120 -66
150 -90 30 -23 98 -64 150 -90 52 -26 120 -66 150 -90 30 -23 129 -80 220
-125 161 -80 168 -85 272 -188 136 -133 141 -145 136 -320 -4 -168 -2 -165
-190 -262 -80 -41 -169 -94 -199 -116 -30 -23 -70 -50 -89 -59 -19 -10 -60
-37 -90 -61 -30 -23 -179 -104 -330 -179 -151 -76 -300 -157 -330 -180 -30
-24 -71 -51 -90 -60 -19 -10 -60 -37 -90 -60 -30 -24 -98 -64 -150 -90 -52
-26 -120 -67 -150 -90 -30 -24 -125 -78 -210 -120 -85 -43 -180 -97 -210 -120
-30 -24 -125 -78 -210 -120 -85 -43 -180 -97 -210 -120 -30 -24 -97 -64 -149
-90 -52 -26 -118 -65 -147 -87 -31 -23 -80 -48 -118 -59 -39 -12 -88 -37 -123
-63 -32 -24 -101 -65 -153 -91 -52 -26 -120 -67 -150 -90 -30 -24 -98 -64
-150 -90 -52 -26 -120 -67 -150 -90 -30 -24 -98 -64 -150 -90 -52 -26 -120
-67 -150 -90 -30 -24 -71 -51 -90 -60 -19 -10 -58 -36 -87 -57 -30 -23 -80
-48 -117 -59 -39 -12 -88 -37 -123 -63 -32 -24 -101 -65 -153 -91 -52 -26
-120 -67 -150 -90 -30 -24 -125 -78 -210 -120 -85 -43 -180 -97 -210 -120 -30
-24 -98 -64 -150 -90 -52 -26 -120 -67 -150 -90 -30 -24 -125 -78 -210 -120
-85 -43 -180 -97 -210 -120 -30 -24 -98 -64 -150 -90 -52 -26 -120 -67 -150
-90 -30 -24 -71 -51 -90 -60 -19 -10 -60 -37 -90 -60 -30 -24 -152 -91 -270
-150 -118 -59 -240 -127 -270 -150 -30 -24 -71 -51 -90 -60 -19 -10 -60 -37
-90 -60 -30 -24 -152 -91 -270 -150 -118 -59 -240 -127 -270 -150 -30 -24 -98
-64 -150 -90 -52 -26 -120 -67 -150 -90 -30 -24 -98 -64 -150 -90 -52 -26
-120 -67 -150 -90 -30 -24 -98 -64 -150 -90 -52 -26 -120 -67 -150 -90 -30
-24 -97 -64 -149 -90 -52 -26 -118 -65 -147 -87 -31 -23 -80 -48 -118 -59 -39
-12 -88 -37 -123 -63 -32 -24 -101 -65 -153 -91 -52 -26 -120 -67 -150 -90
-30 -24 -152 -91 -270 -150 -118 -59 -240 -127 -270 -150 -30 -24 -98 -64
-150 -90 -52 -26 -120 -67 -150 -90 -30 -24 -98 -64 -150 -90 -52 -26 -120
-67 -150 -90 -30 -24 -97 -64 -149 -90 -52 -26 -118 -65 -147 -87 -31 -23 -80
-48 -118 -59 -40 -12 -88 -37 -125 -65 -142 -106 -155 -109 -531 -109 -329 0
-336 0 -385 23 -27 13 -84 27 -125 32 -90 11 -390 152 -496 232 -33 25 -103
67 -155 93 -52 26 -119 66 -149 90 -30 23 -71 50 -90 60 -19 9 -60 36 -90 60
-30 23 -98 64 -150 90 -52 26 -120 66 -150 90 -30 23 -125 77 -210 120 -85 42
-180 96 -210 120 -30 23 -98 64 -150 90 -52 26 -120 66 -150 90 -30 23 -152
91 -270 150 -118 59 -240 126 -270 150 -30 23 -71 50 -90 60 -19 9 -60 36 -90
60 -30 23 -98 64 -150 90 -52 26 -120 66 -150 90 -30 23 -152 91 -270 150
-118 59 -240 126 -270 150 -30 23 -71 50 -90 60 -19 9 -60 36 -90 60 -30 23
-125 77 -210 120 -85 42 -180 96 -210 120 -30 23 -71 50 -90 60 -19 9 -60 36
-90 60 -30 23 -152 91 -270 150 -118 59 -240 126 -270 150 -30 23 -98 64 -150
90 -52 26 -120 66 -150 90 -30 23 -125 77 -210 120 -85 42 -180 96 -210 120
-30 23 -98 64 -150 90 -52 26 -120 66 -150 90 -64 49 -163 101 -232 122 -90
26 -110 79 -67 173 11 25 24 77 28 115 13 108 66 182 173 236 23 12 68 41 98
64 30 24 71 51 90 60 19 10 60 37 90 60 30 24 125 78 210 120 85 43 180 97
210 120 30 24 98 64 150 90 52 26 120 67 150 90 30 24 152 91 270 150 118 59
240 127 270 150 30 24 71 51 90 60 19 10 60 37 90 60 30 24 152 91 270 150
118 59 240 127 270 150 30 24 98 64 150 90 52 26 120 67 150 90 30 24 98 64
150 90 52 26 120 67 150 90 30 24 152 91 270 150 118 59 240 127 270 150 30
24 98 64 150 90 52 26 120 67 150 90 30 24 71 51 90 60 19 10 60 37 90 60 30
24 152 91 270 150 118 59 240 127 270 150 30 24 98 64 150 90 52 26 120 67
150 90 30 24 125 78 210 120 85 43 180 97 210 120 30 24 127 79 216 123 130
65 174 93 232 146 60 54 82 68 141 86 44 13 91 36 128 64 32 24 101 65 153 91
52 26 120 67 150 90 30 24 98 64 150 90 52 26 120 67 150 90 30 24 125 78 210
120 85 43 180 97 210 120 30 24 125 78 210 120 85 43 180 97 210 120 30 24 71
51 90 60 19 10 58 36 87 57 30 23 80 48 117 59 39 12 88 37 123 63 32 24 101
65 153 91 52 26 120 67 150 90 30 24 98 64 150 90 52 26 120 67 150 90 30 24
152 91 270 150 118 59 240 127 270 150 30 24 98 64 150 90 52 26 120 67 150
90 30 24 98 64 150 90 52 26 120 67 150 90 30 24 125 78 210 120 85 43 180 97
210 120 30 24 98 64 150 90 52 26 120 67 150 90 30 24 98 64 150 90 52 26 120
67 150 90 71 56 379 209 468 234 39 10 79 24 89 30 11 5 51 19 89 30 38 11 94
30 124 41 84 31 371 26 445 -8z m6364 -4338 c58 -48 68 -197 21 -299 -21 -45
-24 -69 -29 -230 -7 -205 -10 -216 -78 -240 -94 -32 -427 -201 -482 -243 -31
-24 -101 -67 -156 -94 -55 -28 -125 -70 -155 -93 -30 -24 -98 -64 -150 -90
-52 -26 -120 -67 -150 -90 -30 -24 -152 -91 -270 -150 -118 -59 -240 -127
-270 -150 -30 -24 -71 -51 -90 -60 -19 -10 -60 -37 -90 -60 -30 -24 -98 -64
-150 -90 -52 -26 -120 -67 -150 -90 -30 -24 -97 -64 -149 -90 -52 -26 -118
-65 -147 -87 -31 -23 -80 -48 -118 -59 -39 -12 -88 -37 -123 -63 -32 -24 -101
-65 -153 -91 -52 -26 -120 -67 -150 -90 -30 -24 -98 -64 -150 -90 -52 -26
-120 -67 -150 -90 -30 -24 -125 -78 -210 -120 -85 -43 -180 -97 -210 -120 -30
-24 -98 -64 -150 -90 -52 -26 -120 -67 -150 -90 -30 -24 -98 -64 -150 -90 -52
-26 -120 -67 -150 -90 -30 -24 -97 -64 -149 -90 -52 -26 -118 -65 -147 -87
-31 -23 -80 -48 -118 -59 -39 -12 -88 -37 -123 -63 -32 -24 -101 -65 -153 -91
-52 -26 -120 -67 -150 -90 -30 -24 -98 -64 -150 -90 -52 -26 -120 -67 -150
-90 -30 -24 -98 -64 -150 -90 -52 -26 -120 -67 -150 -90 -30 -24 -125 -78
-210 -120 -85 -43 -180 -97 -210 -120 -30 -24 -98 -64 -150 -90 -52 -26 -120
-67 -150 -90 -30 -24 -125 -78 -210 -120 -85 -43 -180 -97 -210 -120 -30 -24
-71 -51 -90 -60 -19 -10 -60 -37 -90 -60 -30 -24 -125 -78 -210 -120 -85 -43
-180 -97 -210 -120 -30 -24 -125 -78 -210 -120 -85 -43 -180 -97 -210 -120
-30 -24 -98 -64 -150 -90 -52 -26 -120 -67 -150 -90 -30 -24 -127 -79 -216
-123 -130 -65 -174 -93 -232 -146 -60 -54 -82 -68 -141 -86 -44 -13 -91 -36
-128 -64 -32 -24 -101 -65 -153 -91 -52 -26 -120 -67 -150 -90 -30 -24 -98
-64 -150 -90 -52 -26 -120 -67 -150 -90 -30 -24 -152 -91 -270 -150 -118 -59
-240 -127 -270 -150 -30 -24 -98 -64 -150 -90 -52 -26 -120 -67 -150 -91 -80
-62 -533 -284 -579 -284 -85 1 -91 24 -91 353 1 351 24 405 201 457 42 13 90
37 126 64 32 24 101 65 153 91 52 26 120 67 150 90 30 24 98 64 150 90 52 26
120 67 150 90 30 24 98 64 150 90 52 26 120 67 150 90 30 24 152 91 270 150
118 59 240 127 270 150 30 24 97 64 149 90 52 26 118 65 147 87 31 23 80 48
118 59 39 12 88 37 123 63 32 24 101 65 153 91 52 26 120 67 150 90 30 24 98
64 150 90 52 26 120 67 150 90 30 24 98 64 150 90 52 26 120 67 150 90 30 24
98 64 150 90 52 26 120 67 150 90 30 24 152 91 270 150 118 59 240 127 270
150 30 24 71 51 90 60 19 10 60 37 90 60 30 24 152 91 270 150 118 59 240 127
270 150 30 24 71 51 90 60 19 10 60 37 90 60 30 24 98 64 150 90 52 26 120 67
150 90 30 24 125 78 210 120 85 43 180 97 210 120 30 24 98 64 150 90 52 26
120 67 150 90 30 24 125 78 210 120 85 43 180 97 210 120 30 24 97 64 149 90
52 26 118 65 147 87 31 23 80 48 118 59 39 12 88 37 123 63 32 24 74 51 93 61
19 10 60 37 90 60 30 24 98 64 150 90 52 26 120 67 150 90 30 24 98 64 150 90
52 26 120 67 150 90 30 24 97 64 149 90 52 26 118 65 147 87 31 23 80 48 118
59 39 12 88 37 123 63 32 24 101 65 153 91 52 26 120 67 150 90 30 24 125 78
210 120 85 43 180 97 210 120 30 24 125 78 210 120 85 43 180 97 210 120 30
24 98 64 150 90 52 26 120 67 150 90 30 24 71 51 90 60 19 10 60 37 90 61 30
23 179 104 330 179 151 76 300 157 330 180 30 24 71 51 90 60 19 10 60 37 90
61 69 54 274 154 317 154 19 0 43 -10 62 -26z m-41 -1004 c11 -11 24 -37 27
-57 9 -63 23 -115 45 -178 31 -85 26 -363 -7 -440 -12 -27 -29 -76 -38 -108
-19 -71 -132 -196 -217 -242 -29 -16 -78 -47 -108 -71 -30 -23 -98 -63 -150
-89 -52 -26 -120 -67 -150 -90 -30 -24 -98 -64 -150 -90 -52 -26 -120 -67
-150 -90 -30 -24 -98 -64 -150 -90 -52 -26 -120 -67 -150 -90 -30 -24 -152
-91 -270 -150 -118 -59 -240 -127 -270 -150 -30 -24 -71 -51 -90 -60 -19 -10
-60 -37 -90 -60 -30 -24 -125 -78 -210 -120 -85 -43 -180 -97 -210 -120 -30
-24 -71 -51 -90 -60 -19 -10 -58 -36 -87 -57 -30 -23 -80 -48 -117 -59 -39
-12 -88 -37 -123 -63 -32 -24 -101 -65 -153 -91 -52 -26 -120 -67 -150 -90
-30 -24 -98 -64 -150 -90 -52 -26 -120 -67 -150 -90 -30 -24 -98 -64 -150 -90
-52 -26 -120 -67 -150 -90 -30 -24 -152 -91 -270 -150 -118 -59 -240 -127
-270 -150 -30 -24 -98 -64 -150 -90 -52 -26 -120 -67 -150 -90 -30 -24 -71
-51 -90 -60 -19 -10 -58 -36 -87 -57 -30 -23 -80 -48 -117 -59 -39 -12 -88
-37 -123 -63 -32 -24 -128 -78 -213 -121 -85 -43 -180 -97 -210 -120 -30 -24
-98 -64 -150 -90 -52 -26 -120 -67 -150 -90 -30 -24 -71 -51 -90 -60 -19 -10
-58 -36 -87 -57 -30 -23 -80 -48 -117 -59 -39 -12 -88 -37 -123 -63 -32 -24
-74 -51 -93 -61 -19 -10 -60 -37 -90 -60 -30 -24 -98 -64 -150 -90 -52 -26
-120 -67 -150 -90 -30 -24 -98 -64 -150 -90 -52 -26 -120 -67 -150 -90 -30
-24 -125 -78 -210 -120 -85 -43 -180 -97 -210 -120 -30 -24 -125 -78 -210
-120 -85 -43 -180 -97 -210 -120 -30 -24 -98 -64 -150 -90 -52 -26 -120 -67
-150 -90 -30 -24 -97 -64 -148 -89 -51 -26 -119 -66 -152 -90 -32 -24 -80 -49
-106 -55 -68 -17 -99 -36 -170 -101 -49 -46 -98 -77 -226 -141 -90 -45 -188
-101 -218 -124 -30 -24 -98 -64 -150 -90 -52 -26 -120 -67 -150 -90 -30 -24
-98 -64 -150 -90 -52 -26 -120 -67 -150 -90 -30 -24 -97 -64 -149 -90 -52 -26
-118 -65 -147 -87 -31 -23 -80 -48 -118 -59 -39 -12 -88 -37 -123 -63 -32 -24
-74 -51 -93 -61 -19 -10 -62 -38 -95 -64 -78 -59 -405 -219 -465 -227 -82 -11
-121 8 -230 111 -55 52 -119 104 -143 116 -23 12 -67 40 -97 64 -30 23 -75 52
-100 65 -25 13 -81 58 -125 101 -44 43 -109 99 -145 126 -158 118 -127 164
115 172 177 7 249 31 385 131 47 35 66 41 132 50 89 11 532 223 638 305 30 24
98 64 150 90 52 26 120 67 150 90 30 24 152 91 270 150 118 59 240 127 270
150 30 24 98 64 150 90 52 26 120 67 150 90 30 24 97 64 148 89 51 26 119 66
152 90 32 24 80 49 106 55 68 17 99 36 170 101 49 46 98 77 226 141 90 45 188
101 218 124 30 24 98 64 150 90 52 26 120 67 150 90 30 24 125 78 210 120 85
43 180 97 210 120 30 24 125 78 210 120 85 43 180 97 210 120 30 24 71 51 90
60 19 10 60 37 90 60 30 24 125 78 210 120 85 43 180 97 210 120 30 24 98 64
150 90 52 26 120 67 150 90 30 24 125 78 210 120 85 43 180 97 210 120 30 24
98 64 150 90 52 26 120 67 150 90 30 24 98 64 150 90 52 26 120 67 150 90 30
24 97 64 149 90 52 26 118 65 147 87 31 23 80 48 118 59 39 12 88 37 123 63
32 24 101 65 153 91 52 26 120 67 150 90 30 24 98 64 150 90 52 26 120 67 150
90 30 24 98 64 150 90 52 26 120 67 150 90 30 24 125 78 210 120 85 43 180 97
210 120 30 24 98 64 150 90 52 26 120 67 150 90 30 24 97 64 149 90 52 26 118
65 147 87 31 23 80 48 118 59 39 12 88 37 123 63 32 24 101 65 153 91 52 26
120 67 150 90 30 24 98 64 150 90 52 26 120 67 150 90 30 24 71 51 90 60 19
10 60 37 90 60 30 24 152 91 270 150 118 59 240 127 270 150 30 24 98 64 150
90 52 26 120 67 150 90 30 24 98 64 150 90 52 26 120 67 150 91 30 23 138 83
239 133 199 98 239 108 279 71z m-18060 -1870 c37 -17 92 -50 122 -74 30 -24
98 -65 150 -91 52 -26 120 -66 150 -90 30 -23 125 -77 210 -120 85 -42 180
-96 210 -120 30 -23 98 -64 150 -90 52 -26 120 -66 150 -90 30 -23 152 -91
270 -150 118 -59 240 -126 270 -150 30 -23 71 -50 90 -60 19 -9 60 -36 90 -60
30 -23 125 -77 210 -120 85 -42 180 -96 210 -120 30 -23 71 -50 90 -60 19 -9
60 -36 90 -60 30 -23 152 -91 270 -150 118 -59 240 -126 270 -150 30 -23 98
-64 150 -90 52 -26 120 -66 150 -90 30 -23 71 -50 90 -60 19 -9 60 -36 90 -60
30 -23 152 -91 270 -150 118 -59 240 -126 270 -150 30 -23 98 -64 150 -90 52
-26 120 -66 150 -90 30 -23 125 -77 210 -120 85 -42 180 -96 210 -120 30 -23
98 -64 150 -90 52 -26 120 -66 150 -90 30 -23 71 -50 90 -60 19 -9 60 -36 90
-60 30 -23 98 -64 150 -90 52 -26 120 -66 150 -90 101 -78 429 -234 516 -245
42 -5 96 -20 122 -32 44 -21 65 -23 319 -28 364 -7 328 36 328 -390 0 -445 17
-422 -318 -431 -182 -4 -229 -9 -261 -23 -27 -12 -52 -16 -80 -12 -137 20
-139 19 -168 -8 -50 -45 -32 -108 41 -146 62 -31 99 -68 141 -139 46 -80 159
-190 232 -227 28 -14 95 -68 149 -119 54 -52 117 -104 141 -116 144 -73 248
-177 234 -235 -15 -60 -221 -76 -331 -25 -41 19 -75 25 -180 31 -102 5 -141
11 -180 29 -27 12 -84 26 -125 31 -89 11 -506 208 -616 292 -33 25 -103 67
-155 93 -52 26 -119 66 -149 90 -30 23 -98 64 -150 90 -52 26 -120 66 -150 90
-30 23 -102 66 -160 95 -262 131 -405 379 -320 555 29 61 42 350 19 434 -31
116 -265 314 -519 441 -124 61 -250 131 -280 155 -30 23 -98 64 -150 90 -52
26 -120 66 -150 90 -30 23 -98 64 -150 90 -52 26 -120 66 -150 90 -72 56 -406
222 -495 247 -107 29 -189 80 -291 178 -50 49 -111 98 -135 110 -24 13 -70 42
-102 66 -133 99 -307 84 -410 -36 -55 -64 -60 -97 -56 -352 4 -247 3 -252 -51
-250 -43 1 -253 104 -320 156 -30 24 -98 65 -150 91 -52 26 -120 66 -150 90
-30 23 -152 91 -270 150 -118 59 -240 126 -270 150 -30 23 -71 50 -90 60 -19
9 -60 36 -90 60 -30 23 -75 52 -100 65 -121 61 -271 260 -286 380 -12 88 5
119 146 266 172 178 184 224 89 339 -22 27 -51 70 -64 95 -13 26 -40 65 -59
89 -21 25 -42 66 -52 99 -8 32 -25 80 -37 107 -37 84 -33 339 6 415 56 108 99
122 215 70z m1972 -2230 c30 -22 76 -51 101 -64 197 -105 128 -271 -143 -346
-179 -50 -203 -19 -196 257 3 124 5 144 23 163 49 55 132 51 215 -10z"/>
<path d="M11145 15236 c-69 -22 -268 -127 -325 -171 -30 -24 -152 -91 -270
-150 -118 -59 -240 -127 -270 -150 -30 -24 -125 -78 -210 -120 -85 -43 -180
-97 -210 -120 -30 -24 -152 -91 -270 -150 -118 -59 -240 -127 -270 -150 -30
-24 -98 -64 -150 -90 -52 -26 -120 -67 -150 -90 -30 -24 -71 -51 -90 -60 -19
-10 -60 -37 -90 -60 -30 -24 -125 -78 -210 -120 -85 -43 -180 -97 -210 -120
-30 -24 -98 -64 -150 -90 -52 -26 -120 -67 -150 -90 -30 -24 -125 -78 -210
-120 -85 -43 -180 -97 -210 -120 -30 -24 -125 -78 -210 -120 -85 -43 -180 -97
-210 -120 -30 -24 -98 -64 -150 -90 -52 -26 -120 -67 -150 -90 -30 -24 -125
-78 -210 -120 -85 -43 -180 -97 -210 -120 -30 -24 -98 -64 -150 -90 -52 -26
-120 -67 -150 -90 -30 -24 -98 -64 -150 -90 -52 -26 -120 -67 -150 -90 -30
-24 -98 -64 -150 -90 -52 -26 -120 -67 -150 -90 -30 -24 -125 -78 -210 -120
-85 -43 -180 -97 -210 -120 -30 -24 -125 -78 -210 -120 -85 -43 -180 -97 -210
-120 -30 -24 -152 -91 -270 -150 -118 -59 -240 -127 -270 -150 -30 -24 -98
-64 -150 -90 -52 -26 -120 -67 -150 -90 -30 -24 -98 -64 -150 -90 -52 -26
-120 -67 -150 -90 -30 -24 -71 -51 -90 -60 -19 -10 -60 -37 -90 -60 -30 -24
-152 -91 -270 -150 -118 -59 -240 -127 -270 -150 -30 -24 -97 -64 -149 -90
-52 -26 -118 -65 -147 -87 -31 -23 -80 -48 -118 -59 -39 -12 -88 -37 -123 -63
-32 -24 -78 -53 -103 -66 -79 -39 -384 -354 -400 -413 -41 -151 145 -447 346
-550 27 -14 74 -45 105 -69 144 -111 477 -238 626 -238 63 0 111 -6 155 -20
77 -24 103 -25 159 -4 30 12 93 19 199 23 155 7 155 7 265 58 61 28 135 58
166 67 33 9 81 34 115 60 33 24 156 92 274 151 118 59 240 127 270 150 30 24
98 64 150 90 52 26 120 67 150 90 30 24 152 91 270 150 118 59 240 127 270
150 30 24 98 64 150 90 52 26 120 67 150 90 30 24 71 51 90 60 19 10 60 37 90
60 30 24 98 64 150 90 52 26 120 67 150 90 30 24 152 91 270 150 118 59 240
127 270 150 30 24 98 64 150 90 52 26 120 67 150 90 30 24 98 64 150 90 52 26
120 67 150 90 30 24 98 64 150 90 52 26 120 67 150 90 30 24 124 78 209 120
84 42 181 97 215 123 123 94 445 223 502 201 85 -31 139 -479 75 -614 -52
-109 -39 -257 29 -339 38 -46 47 -67 70 -155 33 -128 313 -341 476 -361 42 -5
96 -20 122 -32 65 -30 313 -39 382 -13 48 18 123 38 205 54 281 55 429 186
445 391 5 65 15 112 31 150 24 55 24 55 24 515 0 555 3 545 -229 773 -171 168
-247 210 -404 222 -53 4 -105 11 -114 14 -72 31 30 149 203 237 57 28 129 71
159 94 30 24 98 64 150 90 52 26 120 67 150 90 30 24 98 64 150 90 52 26 120
67 150 90 30 24 125 78 210 120 85 43 180 97 210 120 30 24 98 64 150 90 52
26 120 67 150 90 30 24 152 91 270 150 118 59 240 127 270 150 30 24 98 64
150 90 52 26 120 67 150 90 30 24 102 66 159 95 240 119 406 340 406 540 0
293 -362 615 -881 784 -121 40 -655 55 -759 22z m705 -207 c30 -11 86 -29 124
-40 124 -36 435 -201 490 -259 125 -133 158 -318 85 -470 -47 -97 -73 -122
-194 -182 -55 -28 -125 -70 -155 -93 -30 -24 -98 -64 -150 -90 -52 -26 -120
-67 -150 -90 -30 -24 -152 -91 -270 -150 -118 -59 -240 -127 -270 -150 -30
-24 -98 -64 -150 -90 -52 -26 -120 -67 -150 -90 -30 -24 -125 -78 -210 -120
-85 -43 -180 -97 -210 -120 -30 -24 -98 -64 -150 -90 -52 -26 -120 -67 -150
-90 -30 -24 -98 -64 -150 -90 -52 -26 -120 -67 -150 -90 -30 -24 -98 -64 -150
-90 -52 -26 -120 -67 -150 -90 -30 -24 -71 -51 -90 -60 -58 -29 -118 -83 -160
-146 -48 -69 -62 -78 -146 -90 -125 -18 -441 -188 -564 -304 -86 -82 -108 -97
-157 -111 -32 -9 -85 -26 -118 -39 -33 -13 -76 -26 -95 -30 -53 -11 -288 -132
-350 -180 -30 -24 -125 -78 -210 -120 -85 -43 -180 -97 -210 -120 -30 -24 -98
-64 -150 -90 -52 -26 -120 -67 -150 -90 -30 -24 -98 -64 -150 -90 -52 -26
-120 -67 -150 -90 -30 -24 -98 -64 -150 -90 -52 -26 -120 -67 -150 -90 -30
-24 -152 -91 -270 -150 -118 -59 -240 -127 -270 -150 -30 -24 -98 -64 -150
-90 -52 -26 -120 -67 -150 -90 -30 -24 -71 -51 -90 -60 -19 -10 -60 -37 -90
-60 -30 -24 -98 -64 -150 -90 -52 -26 -120 -67 -150 -90 -30 -24 -152 -91
-270 -150 -118 -59 -240 -127 -270 -150 -30 -24 -98 -64 -150 -90 -52 -26
-120 -67 -150 -90 -30 -24 -151 -91 -268 -149 -117 -58 -239 -126 -272 -150
-36 -27 -80 -49 -112 -56 -29 -7 -100 -36 -157 -64 -105 -51 -105 -51 -265
-57 -117 -4 -171 -10 -198 -22 -49 -22 -81 -21 -151 3 -41 15 -83 20 -154 20
-72 1 -112 6 -153 21 -30 11 -86 29 -123 40 -90 26 -278 120 -347 174 -30 23
-73 51 -95 63 -119 60 -204 254 -161 365 20 53 150 183 216 217 24 12 68 40
97 62 30 23 80 48 117 59 39 12 88 37 123 63 32 24 101 65 153 91 52 26 120
67 150 90 30 24 152 91 270 150 118 59 240 127 270 150 30 24 71 51 90 60 19
10 60 37 90 60 30 24 98 64 150 90 52 26 120 67 150 90 30 24 98 64 150 90 52
26 120 67 150 90 30 24 152 91 270 150 118 59 240 127 270 150 30 24 125 78
210 120 85 43 180 97 210 120 30 24 125 78 210 120 85 43 180 97 210 120 30
24 98 64 150 90 52 26 120 67 150 90 30 24 98 64 150 90 52 26 120 67 150 90
30 24 98 64 150 90 52 26 120 67 150 90 30 24 125 78 210 120 85 43 180 97
210 120 30 24 98 64 150 90 52 26 120 67 150 90 30 24 125 78 210 120 85 43
180 97 210 120 30 24 125 78 210 120 85 43 180 97 210 120 30 24 98 64 150 90
52 26 120 67 150 90 30 24 125 78 210 120 85 43 180 97 210 120 30 24 71 51
90 60 19 10 60 37 90 60 30 24 98 64 150 90 52 26 120 67 150 90 30 24 152 91
270 150 118 59 240 127 270 150 30 24 125 78 210 120 85 43 180 97 210 120 30
24 152 91 270 150 118 59 240 127 270 150 57 45 236 139 305 161 74 23 637 18
705 -7z m-2315 -3009 c43 -20 71 -24 210 -29 158 -6 161 -7 237 -43 231 -110
354 -414 192 -473 -27 -10 -76 -28 -109 -40 -33 -13 -75 -26 -94 -30 -18 -4
-53 -16 -76 -26 -24 -11 -77 -23 -117 -29 -40 -5 -95 -19 -123 -32 -70 -32
-216 -33 -290 -2 -55 24 -179 66 -265 90 -30 9 -75 24 -100 34 -25 10 -67 26
-94 35 -63 23 -76 53 -76 174 0 155 15 173 245 289 247 124 336 140 460 82z
m682 -782 c44 -41 20 -109 -44 -124 -16 -3 -82 -32 -148 -63 -188 -88 -789
-87 -968 2 -147 73 -183 117 -144 171 21 29 80 20 237 -36 30 -11 78 -26 105
-33 28 -8 79 -26 115 -41 91 -37 190 -37 280 0 36 15 88 30 115 33 49 5 227
58 315 94 61 25 108 24 137 -3z m-1157 -391 c105 -52 105 -52 480 -52 375 0
375 0 480 52 117 59 160 66 197 31 62 -58 -1 -170 -102 -182 -69 -9 -120 -21
-189 -46 -93 -34 -666 -27 -741 9 -40 19 -74 25 -170 31 -160 9 -197 35 -181
128 15 96 76 104 226 29z m120 -392 c59 -25 60 -25 390 -25 330 0 331 0 390
25 98 41 198 29 188 -23 -5 -23 -149 -81 -243 -97 -44 -7 -102 -24 -130 -36
-46 -22 -63 -24 -205 -24 -142 0 -159 2 -205 24 -27 12 -87 29 -132 36 -143
24 -254 100 -195 134 29 17 80 12 142 -14z"/>
<path d="M13905 14396 c-160 -52 -449 -312 -470 -423 -4 -21 -20 -74 -37 -118
-17 -44 -35 -93 -41 -108 -6 -17 -39 -50 -81 -81 -90 -67 -167 -149 -199 -212
-30 -60 -68 -99 -122 -126 -22 -12 -65 -40 -95 -63 -30 -24 -125 -78 -210
-120 -85 -43 -180 -97 -210 -120 -30 -24 -75 -53 -100 -65 -68 -34 -263 -234
-278 -286 -34 -115 -13 -164 127 -304 195 -193 469 -294 636 -235 39 14 102
30 142 35 132 17 444 183 573 305 87 82 107 96 157 110 32 9 134 53 227 98
169 82 169 82 415 87 303 6 350 23 513 178 52 50 122 105 154 123 329 183 331
553 4 736 -76 42 -99 71 -121 148 -22 79 -43 106 -192 253 -185 180 -228 196
-522 199 -167 2 -241 -1 -270 -11z m577 -228 c129 -61 207 -151 208 -237 0
-19 5 -60 12 -91 23 -111 -8 -139 -162 -151 -67 -5 -110 -14 -145 -30 -76 -36
-394 -36 -470 -1 -36 17 -78 26 -151 32 -171 13 -212 60 -165 192 10 29 24 73
31 97 22 81 138 177 264 217 100 32 492 13 578 -28z m542 -610 c23 -32 23
-210 0 -232 -44 -44 -64 -5 -64 123 0 128 23 168 64 109z m-300 -73 c37 -37
37 -372 0 -422 -54 -73 -114 -87 -384 -93 -245 -5 -245 -5 -415 -87 -292 -142
-290 -144 -290 269 0 300 0 300 25 320 36 29 181 22 260 -13 83 -37 396 -37
480 0 37 16 84 26 145 31 147 11 163 11 179 -5z m-1323 -31 c35 -37 38 -823 3
-871 -36 -50 -352 -202 -444 -213 -41 -5 -96 -18 -123 -30 -73 -33 -132 -36
-202 -11 -33 12 -91 31 -128 42 -276 80 -352 295 -143 401 23 11 66 40 96 63
30 24 125 78 210 120 85 43 180 97 210 120 30 24 75 53 99 65 56 28 221 187
272 262 58 85 104 101 150 52z"/>
<path d="M15630 12693 c-135 -45 -586 -265 -659 -321 -31 -24 -128 -80 -216
-124 -88 -44 -185 -100 -215 -123 -30 -24 -98 -64 -150 -90 -52 -26 -120 -67
-150 -90 -30 -24 -98 -64 -150 -90 -52 -26 -120 -67 -150 -90 -30 -24 -125
-78 -210 -120 -85 -43 -180 -97 -210 -120 -30 -24 -125 -78 -210 -120 -85 -43
-180 -97 -210 -120 -30 -24 -71 -51 -90 -60 -19 -10 -60 -37 -90 -60 -30 -24
-125 -78 -210 -120 -85 -43 -180 -97 -210 -120 -30 -24 -125 -78 -210 -120
-85 -43 -180 -97 -210 -120 -30 -24 -98 -64 -150 -90 -52 -26 -120 -67 -150
-90 -30 -24 -152 -91 -270 -150 -118 -59 -240 -127 -270 -150 -30 -24 -98 -64
-150 -90 -52 -26 -120 -67 -150 -90 -30 -24 -98 -64 -150 -90 -52 -26 -120
-67 -150 -90 -30 -24 -71 -51 -90 -60 -19 -10 -58 -36 -87 -57 -30 -23 -80
-48 -117 -59 -39 -12 -88 -37 -123 -63 -32 -24 -101 -65 -153 -91 -52 -26
-120 -67 -150 -90 -30 -24 -98 -64 -150 -90 -52 -26 -120 -67 -150 -90 -30
-24 -152 -91 -270 -150 -118 -59 -240 -127 -270 -150 -30 -24 -98 -64 -150
-90 -52 -26 -120 -67 -150 -90 -30 -24 -98 -64 -150 -90 -52 -26 -120 -67
-150 -90 -30 -24 -71 -51 -90 -60 -19 -10 -60 -37 -90 -60 -30 -24 -152 -91
-270 -150 -118 -59 -240 -127 -270 -150 -30 -24 -98 -64 -150 -90 -52 -26
-120 -67 -150 -90 -30 -24 -152 -91 -270 -150 -118 -59 -240 -127 -270 -150
-30 -24 -71 -51 -90 -60 -19 -10 -60 -37 -90 -60 -30 -24 -75 -53 -100 -65
-69 -34 -263 -234 -278 -286 -15 -53 -15 -215 0 -268 16 -55 209 -252 286
-290 30 -15 82 -54 117 -86 70 -65 99 -82 165 -100 25 -6 74 -31 110 -55 114
-77 279 -125 428 -125 92 0 135 -5 184 -20 79 -25 97 -25 176 0 35 11 91 20
125 20 124 0 681 239 836 358 31 24 101 67 156 94 55 28 125 70 155 93 30 24
98 64 150 90 52 26 120 67 150 90 30 24 98 64 150 90 52 26 120 67 150 90 30
24 125 78 210 120 85 43 180 97 210 120 30 24 98 64 150 90 52 26 120 67 150
90 30 24 97 64 149 90 52 26 118 65 147 87 31 23 80 48 118 59 39 12 88 37
123 63 32 24 74 51 93 61 19 10 60 37 90 60 30 24 98 64 150 90 52 26 120 67
150 90 30 24 125 78 210 120 85 43 180 97 210 120 30 24 98 64 150 90 52 26
120 67 150 90 30 24 125 78 210 120 85 43 180 97 210 120 30 24 98 64 150 90
52 26 120 67 150 90 30 24 98 64 150 90 52 26 120 67 150 90 30 24 152 91 270
150 118 59 240 127 270 150 30 24 98 64 150 90 52 26 120 67 150 90 30 24 98
64 150 90 52 26 120 67 150 90 30 24 125 78 210 120 85 43 180 97 210 120 30
24 98 64 150 90 52 26 120 67 150 90 30 24 125 78 210 120 85 43 180 97 210
120 30 24 98 64 150 90 52 26 120 67 150 90 30 24 125 78 210 120 85 43 180
97 210 120 30 24 71 51 90 60 19 10 60 37 90 60 69 54 135 87 227 114 46 14
92 37 130 65 32 24 103 66 158 94 152 76 180 106 272 285 102 200 106 248 30
393 -54 104 -271 330 -357 374 -25 12 -70 41 -100 65 -63 49 -179 109 -230
120 -19 4 -62 17 -95 29 -305 114 -545 133 -765 59z m565 -189 c54 -23 168
-62 278 -94 88 -26 158 -61 227 -114 30 -24 79 -55 108 -71 282 -152 280 -526
-4 -691 -27 -15 -75 -47 -106 -70 -34 -25 -78 -47 -110 -54 -69 -17 -179 -72
-248 -125 -30 -24 -71 -51 -90 -60 -19 -10 -60 -37 -90 -60 -30 -24 -125 -78
-210 -120 -85 -43 -180 -97 -210 -120 -30 -24 -98 -64 -150 -90 -52 -26 -120
-67 -150 -90 -30 -24 -125 -78 -210 -120 -85 -43 -180 -97 -210 -120 -30 -24
-98 -64 -150 -90 -52 -26 -120 -67 -150 -90 -30 -24 -125 -78 -210 -120 -85
-43 -180 -97 -210 -120 -30 -24 -98 -64 -150 -90 -52 -26 -120 -67 -150 -90
-30 -24 -98 -64 -150 -90 -52 -26 -120 -67 -150 -90 -30 -24 -152 -91 -270
-150 -118 -59 -240 -127 -270 -150 -30 -24 -98 -64 -150 -90 -52 -26 -120 -67
-150 -90 -30 -24 -98 -64 -150 -90 -52 -26 -120 -67 -150 -90 -30 -24 -125
-78 -210 -120 -85 -43 -180 -97 -210 -120 -30 -24 -98 -64 -150 -90 -52 -26
-120 -67 -150 -90 -30 -24 -125 -78 -210 -120 -85 -43 -180 -97 -210 -120 -30
-24 -98 -64 -150 -90 -52 -26 -120 -67 -150 -90 -30 -24 -71 -51 -90 -60 -19
-10 -58 -36 -87 -57 -30 -23 -80 -48 -117 -59 -39 -12 -88 -37 -123 -63 -32
-24 -101 -65 -153 -91 -52 -26 -120 -67 -150 -90 -30 -24 -98 -64 -150 -90
-52 -26 -120 -67 -150 -90 -30 -24 -125 -78 -210 -120 -85 -43 -180 -97 -210
-120 -30 -24 -98 -64 -150 -90 -52 -26 -120 -67 -150 -90 -30 -24 -98 -64
-150 -90 -52 -26 -120 -67 -150 -90 -30 -24 -98 -64 -150 -90 -52 -26 -120
-67 -150 -90 -69 -54 -496 -268 -587 -295 -37 -10 -93 -28 -123 -39 -34 -13
-81 -20 -123 -21 -41 0 -90 -8 -124 -20 -72 -25 -94 -25 -166 0 -45 16 -83 20
-184 20 -102 1 -139 5 -183 21 -30 11 -82 28 -116 37 -33 10 -87 37 -119 60
-34 25 -87 51 -127 63 -58 17 -81 31 -140 85 -39 36 -91 76 -117 89 -98 50
-121 95 -121 235 0 138 23 185 115 232 22 12 65 40 95 63 30 24 71 51 90 60
19 10 60 37 90 60 30 24 152 91 270 150 118 59 240 127 270 150 30 24 98 64
150 90 52 26 120 67 150 90 30 24 152 91 270 150 118 59 240 127 270 150 30
24 71 51 90 60 19 10 60 37 90 60 30 24 98 64 150 90 52 26 120 67 150 90 30
24 98 64 150 90 52 26 120 67 150 90 30 24 152 91 270 150 118 59 240 127 270
150 30 24 98 64 150 90 52 26 120 67 150 90 30 24 97 64 149 90 52 26 118 65
147 87 31 23 80 48 118 59 39 12 88 37 123 63 32 24 74 51 93 61 19 10 60 37
90 60 30 24 98 64 150 90 52 26 120 67 150 90 30 24 98 64 150 90 52 26 120
67 150 90 30 24 152 91 270 150 118 59 240 127 270 150 30 24 98 64 150 90 52
26 120 67 150 90 30 24 125 78 210 120 85 43 180 97 210 120 30 24 125 78 210
120 85 43 180 97 210 120 30 24 71 51 90 60 19 10 60 37 90 60 30 24 125 78
210 120 85 43 180 97 210 120 30 24 125 78 210 120 85 43 180 97 210 120 30
24 98 64 150 90 52 26 120 67 150 90 30 24 98 64 150 90 52 26 120 67 150 90
30 24 125 78 210 120 85 43 180 97 210 120 69 54 496 268 587 295 37 10 93 28
123 40 82 30 429 26 505 -6z"/>
<path d="M6165 9296 c-73 -24 -504 -246 -566 -291 -73 -53 -119 -59 -202 -22
-109 47 -640 32 -752 -21 -119 -57 -365 -295 -385 -372 -27 -106 -32 -113
-189 -275 -187 -191 -213 -256 -169 -409 15 -53 149 -189 230 -234 32 -18 88
-59 125 -93 259 -235 966 -295 1268 -109 61 38 271 263 304 326 56 106 222
260 351 324 58 29 130 72 160 95 30 24 125 78 210 120 85 43 180 97 210 120
30 24 75 53 99 65 68 34 147 119 161 171 6 24 20 69 30 100 28 79 26 118 -9
165 -44 60 -302 309 -341 330 -45 25 -467 32 -535 10z m500 -197 c74 -21 205
-164 205 -225 0 -118 -113 -235 -331 -345 -90 -45 -189 -101 -219 -124 -30
-24 -102 -66 -159 -95 -93 -46 -117 -64 -226 -171 -212 -206 -225 -192 -225
245 0 268 -2 300 -20 360 -32 102 -33 102 215 228 116 59 230 114 255 122 56
18 444 22 505 5z m-1261 -324 c98 -50 101 -58 101 -256 0 -228 6 -222 -208
-230 -132 -5 -159 -9 -202 -30 -69 -32 -161 -32 -230 0 -44 21 -70 25 -210 30
-168 7 -189 13 -224 57 -26 33 -26 67 -2 136 10 29 24 73 31 97 22 81 138 177
264 217 93 30 612 14 680 -21z m-1168 -632 c26 -60 16 -204 -15 -237 -82 -87
-164 45 -121 193 24 86 108 113 136 44z m624 -83 c50 -16 104 -30 120 -30 16
0 70 14 120 30 195 65 359 42 431 -60 24 -34 54 -75 67 -92 65 -90 -16 -235
-155 -273 -32 -9 -80 -26 -108 -38 -77 -34 -592 -39 -681 -7 -33 11 -88 29
-124 40 -108 31 -142 89 -104 178 9 20 19 79 23 129 11 140 26 151 203 152
105 1 127 -2 208 -29z"/>
</g>
</svg>
