<?xml version="1.0" standalone="no"?>
<!DOCTYPE svg PUBLIC "-//W3C//DTD SVG 20010904//EN"
 "http://www.w3.org/TR/2001/REC-SVG-20010904/DTD/svg10.dtd">
<svg version="1.0" xmlns="http://www.w3.org/2000/svg"
 width="1044.000000pt" height="822.000000pt" viewBox="0 0 1044.000000 822.000000"
 preserveAspectRatio="xMidYMid meet">
<metadata>
Created by potrace 1.16, written by Peter Selinger 2001-2019
</metadata>
<g transform="translate(0.000000,822.000000) scale(0.100000,-0.100000)"
fill="#f97316" stroke="none">
<path d="M3450 7293 c-58 -20 -126 -44 -152 -55 -26 -10 -81 -23 -122 -28
-116 -15 -679 -298 -784 -394 -39 -36 -95 -77 -124 -92 -80 -40 -664 -623
-709 -708 -19 -36 -70 -100 -124 -156 -51 -52 -104 -118 -118 -146 -14 -27
-42 -70 -62 -94 -43 -51 -109 -179 -120 -230 -4 -19 -17 -62 -30 -95 -28 -75
-69 -199 -96 -289 -11 -38 -27 -82 -36 -99 -9 -18 -19 -73 -23 -132 -5 -71
-14 -116 -31 -155 -38 -86 -38 -934 0 -1020 17 -39 26 -84 31 -155 4 -59 14
-114 23 -132 9 -17 25 -61 36 -99 52 -176 81 -246 199 -488 114 -233 134 -266
193 -331 36 -39 80 -99 98 -132 42 -78 690 -728 761 -763 25 -12 70 -41 100
-65 30 -23 73 -51 95 -63 22 -11 65 -40 96 -64 100 -77 314 -171 543 -239 38
-11 81 -26 97 -35 16 -8 63 -19 105 -24 41 -5 96 -19 122 -30 26 -12 80 -25
120 -30 40 -5 96 -20 125 -32 84 -37 813 -36 897 1 38 17 80 26 135 28 79 5
231 47 350 97 103 43 410 31 482 -20 89 -63 101 -67 203 -74 66 -5 112 -14
150 -31 86 -37 754 -37 840 0 39 17 85 26 155 31 67 5 116 15 147 29 26 12 81
26 122 31 42 5 89 16 105 24 16 9 59 24 97 34 38 11 132 51 209 90 77 38 172
79 212 91 46 14 92 37 130 65 32 24 101 65 153 91 52 26 120 67 150 90 30 24
75 53 100 65 71 36 480 446 521 524 18 33 56 86 83 116 82 89 86 94 106 169
25 90 67 173 115 232 21 24 68 107 106 184 63 132 91 205 140 369 11 38 26 81
35 97 8 16 19 63 24 105 5 41 19 96 31 122 19 39 23 73 29 207 5 139 9 167 31
215 36 83 36 337 0 420 -22 48 -26 76 -31 215 -6 134 -10 168 -29 207 -12 26
-26 81 -31 122 -5 42 -16 89 -24 105 -9 16 -24 59 -35 97 -12 38 -32 105 -47
149 -34 108 -272 589 -318 643 -19 24 -49 69 -66 101 -43 80 -750 786 -825
824 -27 14 -75 45 -106 69 -124 95 -740 381 -884 409 -82 16 -158 36 -200 53
-34 13 -116 15 -589 16 -616 0 -688 -11 -860 -128 -83 -57 -212 -68 -311 -26
-74 32 -203 74 -260 85 -82 16 -158 36 -200 53 -96 37 -1134 20 -1255 -21z
m1285 -191 c28 -13 83 -27 123 -32 40 -5 94 -18 120 -28 132 -53 271 -92 328
-92 93 0 128 -15 206 -86 51 -47 102 -81 180 -120 77 -39 129 -73 179 -120 40
-36 90 -74 113 -85 22 -12 66 -40 96 -63 30 -24 93 -62 139 -87 95 -50 114
-70 135 -142 9 -30 33 -73 57 -102 22 -27 52 -72 66 -99 13 -26 53 -79 88
-116 35 -37 75 -90 88 -117 14 -27 42 -69 62 -93 48 -57 90 -141 113 -227 11
-37 51 -132 91 -210 39 -78 79 -173 90 -210 10 -37 26 -85 35 -106 9 -21 21
-70 26 -110 5 -40 19 -94 31 -122 18 -39 24 -78 29 -180 6 -107 12 -139 31
-180 23 -47 24 -61 24 -235 0 -174 -1 -188 -24 -235 -19 -41 -25 -73 -31 -180
-5 -104 -11 -140 -29 -180 -16 -35 -25 -80 -31 -150 -4 -64 -15 -118 -28 -150
-12 -27 -26 -70 -32 -95 -6 -25 -46 -119 -90 -210 -44 -91 -86 -190 -95 -221
-9 -36 -30 -75 -55 -105 -22 -27 -45 -67 -51 -89 -21 -83 -32 -106 -66 -147
-19 -23 -46 -63 -59 -90 -13 -26 -56 -82 -94 -125 -48 -53 -73 -89 -81 -117
-31 -121 -49 -141 -200 -217 -89 -44 -116 -64 -229 -174 -117 -113 -133 -125
-187 -140 -102 -28 -213 -88 -292 -159 -88 -79 -109 -86 -265 -86 -123 0 -212
-21 -391 -93 -30 -12 -90 -23 -150 -27 -72 -6 -114 -15 -150 -32 -78 -36 -811
-36 -890 0 -27 13 -83 27 -123 32 -40 6 -94 19 -120 30 -26 12 -80 25 -120 30
-40 5 -94 18 -120 29 -54 22 -176 62 -275 91 -90 27 -278 121 -347 175 -30 23
-71 50 -90 60 -19 9 -60 36 -90 59 -30 24 -78 55 -106 70 -76 41 -553 522
-589 595 -15 29 -55 84 -90 121 -72 76 -285 481 -325 617 -30 101 -70 222 -93
278 -12 31 -23 89 -27 150 -6 72 -15 114 -32 150 -36 79 -36 931 0 1010 17 36
26 78 32 150 4 55 15 118 25 140 9 22 27 74 40 115 29 94 51 159 76 230 11 30
29 86 40 123 25 87 67 171 114 227 20 24 48 67 62 94 14 28 67 94 118 146 54
56 105 120 124 156 43 82 460 499 537 537 27 14 84 56 126 94 111 100 650 368
771 383 42 5 90 16 106 24 16 9 59 24 97 35 38 11 94 29 124 41 91 33 1151 26
1225 -8z m2220 0 c28 -13 83 -27 123 -32 40 -5 94 -18 120 -29 26 -11 73 -27
104 -36 81 -22 631 -298 698 -349 30 -24 78 -55 106 -70 74 -40 613 -582 647
-652 14 -27 42 -70 62 -94 48 -57 269 -498 294 -587 23 -79 54 -172 88 -262
13 -35 28 -95 33 -135 5 -39 19 -93 31 -121 20 -42 24 -74 29 -210 6 -140 10
-166 31 -210 22 -46 24 -62 24 -205 0 -143 -2 -159 -24 -205 -21 -44 -25 -70
-31 -210 -5 -136 -9 -168 -29 -210 -12 -27 -26 -82 -31 -121 -5 -40 -20 -100
-33 -135 -34 -90 -65 -183 -88 -262 -25 -88 -127 -290 -174 -347 -45 -53 -108
-182 -130 -264 -13 -47 -28 -71 -80 -126 -35 -37 -76 -92 -90 -121 -36 -71
-276 -316 -349 -355 -28 -15 -76 -46 -106 -70 -30 -23 -97 -63 -148 -88 -51
-26 -119 -66 -152 -90 -37 -27 -79 -49 -112 -56 -29 -7 -119 -46 -200 -86 -81
-41 -178 -82 -215 -93 -37 -10 -85 -26 -106 -35 -21 -9 -70 -21 -110 -26 -40
-5 -94 -19 -121 -31 -34 -15 -82 -24 -150 -29 -73 -6 -115 -15 -151 -32 -88
-41 -709 -41 -832 1 -48 16 -118 31 -156 34 -138 10 -129 90 16 140 181 64
197 66 281 36 94 -32 627 -25 700 10 37 17 76 26 151 31 57 4 114 14 130 23
17 8 63 25 104 37 81 24 121 55 121 95 0 85 -107 122 -216 74 -32 -15 -82 -24
-148 -29 -73 -6 -115 -15 -151 -32 -65 -30 -444 -41 -509 -14 -78 32 -45 77
114 154 95 47 95 47 305 52 238 6 296 20 515 121 58 26 128 54 155 60 67 16
178 72 245 124 30 24 71 51 90 60 19 10 60 37 90 60 30 24 75 53 100 65 68 34
360 327 399 400 17 32 48 78 68 102 41 49 303 568 303 601 0 12 12 49 25 82
14 33 30 93 35 133 5 40 20 94 32 120 31 64 41 786 12 863 -9 24 -26 78 -39
119 -13 41 -31 92 -39 113 -9 21 -21 71 -26 112 -11 85 -175 432 -244 513 -19
24 -49 69 -66 101 -24 45 -102 128 -343 368 -312 311 -312 311 -635 472 -295
148 -330 162 -398 171 -42 5 -96 19 -122 31 -42 20 -70 23 -267 29 -249 7
-294 19 -415 114 -30 24 -74 53 -98 65 -24 12 -74 51 -113 86 -40 37 -105 83
-151 107 -180 93 -180 125 -3 189 86 32 1149 24 1220 -9z m-178 -782 c27 -12
82 -25 123 -30 68 -9 103 -23 385 -162 310 -153 310 -153 542 -382 176 -173
239 -243 263 -287 17 -32 47 -77 67 -101 70 -84 224 -413 233 -500 5 -42 16
-90 24 -106 8 -16 24 -60 35 -98 11 -38 30 -95 41 -127 33 -94 27 -787 -8
-862 -13 -27 -27 -82 -32 -122 -5 -40 -17 -89 -26 -110 -9 -21 -25 -69 -35
-106 -25 -88 -246 -529 -294 -587 -20 -24 -48 -67 -62 -94 -34 -67 -160 -196
-226 -231 -29 -16 -77 -47 -107 -71 -30 -23 -71 -50 -90 -59 -19 -10 -60 -37
-90 -60 -70 -54 -140 -89 -227 -113 -37 -11 -105 -38 -150 -61 -45 -22 -112
-50 -150 -60 -37 -11 -95 -30 -128 -42 -222 -78 -320 44 -165 206 32 33 69 83
83 111 14 27 44 72 66 99 23 28 46 68 52 90 21 81 32 107 58 138 48 57 51 64
72 136 10 40 51 136 90 214 40 78 80 173 91 211 10 38 26 82 35 99 9 19 19 73
23 132 5 72 14 115 30 151 18 39 24 75 30 179 5 105 11 140 31 185 37 84 37
396 0 480 -20 45 -26 80 -31 185 -6 101 -12 140 -29 177 -12 26 -26 81 -31
122 -5 42 -16 89 -24 105 -9 16 -24 59 -34 97 -11 38 -51 133 -91 211 -39 78
-79 173 -90 210 -23 86 -78 196 -126 253 -20 24 -48 66 -62 93 -13 27 -53 80
-88 117 -35 37 -75 90 -89 118 -14 28 -39 66 -55 84 -121 140 -14 248 166 168z"/>
<path d="M4067 6672 c-36 -40 -9 -102 45 -102 51 0 78 69 40 103 -24 22 -65
21 -85 -1z"/>
<path d="M4098 6225 c-49 -28 -63 -84 -30 -124 34 -43 262 -111 372 -111 69
-1 110 -6 150 -21 30 -11 86 -29 123 -39 134 -40 538 -252 618 -326 115 -104
220 -143 262 -96 48 52 -10 140 -131 201 -24 12 -75 51 -114 87 -162 149 -726
394 -909 394 -71 1 -108 6 -149 22 -72 27 -156 33 -192 13z"/>
<path d="M2640 6153 c-14 -9 -50 -40 -81 -69 -30 -28 -77 -63 -105 -77 -74
-38 -137 -98 -174 -169 -19 -35 -55 -85 -80 -113 -74 -78 -89 -125 -52 -158
49 -45 72 -30 307 203 141 140 215 205 252 224 59 29 83 58 83 99 0 63 -92
100 -150 60z"/>
<path d="M5456 6145 c-51 -48 -29 -108 57 -151 32 -16 95 -69 162 -134 140
-137 178 -156 218 -112 43 47 20 86 -150 253 -188 185 -223 203 -287 144z"/>
<path d="M3810 5673 c-320 -107 -488 -211 -732 -451 -178 -176 -233 -237 -259
-285 -18 -34 -56 -87 -83 -117 -82 -89 -86 -94 -107 -170 -11 -40 -27 -86 -36
-103 -9 -19 -19 -73 -23 -132 -5 -73 -14 -115 -30 -151 -32 -68 -40 -256 -15
-324 18 -48 38 -123 54 -205 52 -265 103 -344 438 -675 288 -285 288 -285 428
-351 182 -87 341 -139 423 -139 42 0 91 -10 152 -30 109 -36 135 -37 225 -4
45 16 104 28 166 33 86 7 106 12 205 59 60 28 132 56 159 63 131 31 196 78
413 293 248 245 258 257 283 346 10 39 54 139 96 223 75 150 76 153 83 252 5
71 14 116 31 155 34 78 34 221 1 297 -12 29 -27 85 -32 125 -5 40 -18 94 -30
120 -11 26 -25 81 -30 123 -20 160 -54 205 -417 566 -373 369 -488 445 -701
459 -71 5 -111 13 -147 31 -92 43 -378 39 -515 -8z m505 -192 c36 -17 78 -25
153 -31 203 -15 316 -84 600 -365 268 -264 306 -319 322 -466 5 -41 18 -95 29
-121 12 -26 25 -80 31 -120 5 -40 19 -95 32 -123 33 -73 33 -218 -1 -290 -17
-36 -25 -78 -31 -154 -8 -103 -8 -104 -88 -270 -45 -91 -89 -193 -98 -226 -36
-133 -314 -374 -489 -423 -39 -11 -114 -41 -167 -67 -89 -44 -106 -48 -200
-55 -74 -6 -117 -15 -153 -31 -69 -32 -161 -32 -230 0 -35 16 -79 25 -150 31
-56 4 -118 15 -140 25 -22 9 -71 26 -108 36 -304 86 -721 471 -795 734 -11 39
-27 87 -36 108 -9 21 -21 70 -26 110 -5 40 -19 95 -32 122 -34 74 -34 277 0
350 17 36 26 78 32 150 4 63 15 119 28 150 11 28 28 76 37 109 13 47 28 71 79
125 34 36 77 94 95 127 23 44 71 100 169 196 146 145 376 281 569 338 37 10
93 29 123 40 84 31 372 26 445 -9z"/>
<path d="M2675 5591 c-48 -29 -131 -123 -160 -181 -15 -31 -69 -97 -124 -155
-105 -110 -194 -271 -255 -460 -14 -44 -37 -114 -50 -155 -13 -41 -32 -95 -41
-120 -49 -133 -11 -440 59 -464 92 -33 120 24 126 257 5 164 9 199 27 242 23
55 62 171 93 278 43 146 133 302 235 407 50 52 102 115 115 140 12 24 38 66
56 93 67 98 13 177 -81 118z"/>
<path d="M1547 4212 c-49 -54 23 -162 106 -162 31 0 57 29 57 64 0 78 -118
148 -163 98z"/>
<path d="M6527 4212 c-49 -54 23 -162 106 -162 31 0 57 29 57 64 0 78 -118
148 -163 98z"/>
<path d="M6042 4094 c-40 -27 -46 -54 -52 -219 -5 -130 -10 -169 -27 -210 -24
-58 -67 -186 -89 -265 -8 -30 -37 -102 -64 -160 -27 -58 -56 -132 -65 -164
-13 -47 -28 -72 -74 -120 -32 -34 -72 -83 -90 -109 -18 -27 -55 -64 -82 -84
-77 -55 -91 -104 -43 -148 70 -65 228 35 309 195 14 29 52 80 84 114 73 78 86
99 100 161 6 28 34 97 60 155 46 97 59 135 125 340 13 41 31 93 40 115 18 47
22 278 6 337 -19 67 -87 98 -138 62z"/>
<path d="M2627 2772 c-21 -23 -22 -54 -3 -90 24 -46 248 -258 301 -285 28 -14
75 -45 106 -69 101 -78 383 -201 524 -229 82 -16 157 -36 205 -54 122 -46 381
-9 404 58 31 86 -31 120 -234 127 -131 5 -163 9 -205 29 -27 12 -82 26 -122
31 -40 5 -89 17 -110 26 -21 9 -69 25 -106 35 -89 25 -277 119 -347 174 -30
23 -75 52 -100 65 -25 13 -81 58 -125 100 -108 105 -151 123 -188 82z"/>
<path d="M6033 2712 c-71 -57 -128 -123 -159 -184 -35 -68 -160 -197 -227
-233 -168 -90 -218 -225 -83 -225 84 0 372 244 488 413 22 32 62 74 89 94 77
55 91 104 43 148 -42 39 -91 34 -151 -13z"/>
<path d="M2147 2652 c-46 -50 -24 -82 215 -318 244 -243 286 -267 378 -219 95
49 59 137 -71 175 -74 22 -74 22 -244 190 -203 201 -235 220 -278 172z"/>
<path d="M4033 1720 c-87 -52 -35 -160 77 -160 55 0 107 29 116 65 16 65 -34
115 -116 115 -27 0 -58 -8 -77 -20z"/>
<path d="M6345 6956 c-47 -18 -75 -49 -75 -83 0 -66 49 -94 180 -103 66 -5
111 -14 145 -30 35 -15 81 -24 151 -30 68 -5 116 -14 150 -29 27 -12 82 -26
122 -31 40 -5 94 -18 120 -29 167 -68 266 -83 306 -46 75 69 -17 161 -217 217
-38 10 -82 25 -98 34 -16 8 -63 19 -105 24 -41 5 -96 19 -122 31 -32 14 -80
24 -148 29 -69 5 -115 14 -150 30 -64 29 -201 37 -259 16z"/>
<path d="M8147 6072 c-42 -46 -25 -76 143 -247 88 -90 147 -158 163 -191 14
-27 42 -70 62 -94 50 -60 210 -382 233 -469 45 -167 222 -257 222 -113 0 99
-172 491 -265 602 -20 24 -48 67 -62 94 -27 55 -354 395 -405 422 -37 19 -72
18 -91 -4z"/>
<path d="M8922 3854 c-40 -27 -46 -54 -52 -219 -6 -138 -10 -169 -32 -225 -34
-88 -67 -184 -84 -250 -9 -30 -37 -102 -64 -160 -27 -58 -56 -131 -65 -164
-13 -47 -28 -71 -80 -126 -47 -50 -79 -97 -120 -181 -66 -131 -328 -415 -439
-475 -28 -15 -76 -46 -106 -70 -30 -23 -74 -51 -97 -63 -76 -38 -96 -101 -47
-146 43 -40 90 -34 161 19 32 24 78 54 103 66 110 55 544 512 612 644 44 87
78 138 123 186 73 78 78 86 98 165 9 33 38 107 66 164 28 58 51 113 51 123 0
11 13 54 29 96 16 42 36 100 44 127 9 28 22 68 31 90 18 47 22 278 6 337 -19
67 -87 98 -138 62z"/>
</g>
</svg>
