<?xml version="1.0" standalone="no"?>
<!DOCTYPE svg PUBLIC "-//W3C//DTD SVG 20010904//EN"
 "http://www.w3.org/TR/2001/REC-SVG-20010904/DTD/svg10.dtd">
<svg version="1.0" xmlns="http://www.w3.org/2000/svg"
 width="792.000000pt" height="990.000000pt" viewBox="0 0 792.000000 990.000000"
 preserveAspectRatio="xMidYMid meet">
<metadata>
Created by potrace 1.16, written by Peter Selinger 2001-2019
</metadata>
<g transform="translate(0.000000,990.000000) scale(0.100000,-0.100000)"
fill="#f97316" stroke="none">
<path d="M3055 8880 c-16 -5 -55 -18 -85 -29 -30 -11 -73 -21 -95 -21 -22 -1
-58 -8 -80 -16 -22 -9 -74 -27 -115 -40 -41 -13 -100 -32 -130 -43 -63 -22
-122 -42 -230 -77 -41 -13 -111 -36 -155 -50 -44 -14 -127 -48 -185 -74 -58
-27 -125 -54 -150 -60 -25 -6 -94 -34 -154 -63 -110 -52 -110 -52 -266 -57
-145 -5 -158 -7 -200 -32 -55 -32 -284 -262 -302 -303 -11 -24 -14 -420 -18
-2075 -5 -2045 -5 -2045 -30 -2100 -33 -73 -34 -164 -2 -237 12 -29 27 -87 32
-129 14 -111 114 -235 240 -299 28 -14 83 -55 122 -91 39 -36 89 -74 112 -85
22 -12 66 -40 96 -64 30 -23 71 -50 90 -60 19 -9 60 -36 90 -60 30 -23 74 -52
98 -64 24 -12 75 -51 114 -87 39 -36 89 -74 112 -85 22 -12 66 -40 96 -64 30
-23 74 -52 98 -64 24 -12 75 -51 114 -87 39 -36 89 -74 112 -85 22 -12 66 -40
96 -64 30 -23 74 -52 98 -64 24 -12 75 -51 114 -87 39 -36 89 -74 112 -85 22
-12 66 -40 96 -64 30 -23 71 -50 90 -60 19 -9 60 -36 90 -60 30 -23 74 -52 98
-64 24 -12 75 -51 114 -87 39 -36 89 -74 112 -85 22 -12 66 -40 96 -64 30 -23
71 -50 90 -60 19 -9 60 -36 90 -60 30 -23 74 -52 98 -64 24 -12 75 -51 114
-87 39 -36 89 -74 112 -85 22 -12 66 -40 96 -64 230 -178 393 -187 692 -38 81
40 178 81 215 92 37 10 186 77 330 150 144 72 293 139 330 150 37 10 186 77
330 150 144 72 293 139 330 150 177 49 449 204 569 325 141 142 134 116 134
496 0 331 -3 357 -55 418 -17 20 -50 69 -73 108 -44 76 -156 190 -219 223 -21
11 -67 40 -103 66 -40 28 -92 54 -135 66 -87 26 -143 54 -220 111 -33 24 -82
56 -108 72 -27 15 -78 55 -115 88 -36 32 -82 68 -101 78 -20 10 -65 39 -101
65 -39 27 -92 54 -133 66 -57 17 -80 31 -139 85 -39 36 -89 74 -112 85 -22 12
-66 40 -96 64 -30 23 -71 50 -90 60 -19 9 -60 36 -90 60 -30 23 -75 52 -99 64
-23 13 -71 48 -105 80 -33 31 -83 72 -109 90 -84 57 -77 -103 -77 1807 0 1841
3 1754 -55 1822 -17 20 -50 69 -73 108 -88 151 -160 184 -353 160 -65 -9 -65
-9 -130 49 -40 36 -104 77 -169 110 -58 29 -130 73 -161 97 -198 153 -593 273
-754 228z m41 -256 c11 -26 14 -99 14 -327 0 -309 3 -336 47 -394 56 -76 33
-129 -68 -153 -30 -7 -93 -32 -141 -56 -48 -24 -117 -53 -155 -63 -37 -11 -95
-30 -128 -42 -173 -61 -444 3 -640 152 -33 26 -76 54 -95 64 -19 9 -60 36 -90
60 -30 23 -73 52 -96 63 -182 93 -140 281 75 338 36 10 105 37 153 60 48 24
117 52 155 63 37 11 93 29 123 40 62 22 120 41 230 77 177 57 238 77 282 95
26 11 80 24 120 29 40 5 93 16 118 23 58 18 79 12 96 -29z m386 -5 c89 -30
255 -115 318 -163 30 -23 81 -57 113 -76 69 -41 163 -136 173 -174 13 -54 -67
-113 -211 -155 -103 -31 -223 -71 -280 -94 -114 -46 -246 -32 -271 29 -18 42
-20 566 -3 611 19 50 61 56 161 22z m786 -626 c26 -11 68 -17 137 -18 128 -2
121 0 134 -36 15 -44 15 -2678 0 -2732 -12 -46 -28 -53 -68 -33 -48 25 -89 20
-145 -19 -41 -28 -66 -37 -128 -45 -89 -11 -190 -57 -278 -126 -91 -71 -179
-106 -292 -114 -95 -6 -99 -8 -265 -88 -92 -45 -190 -87 -218 -93 -27 -7 -89
-31 -136 -55 -47 -23 -112 -50 -145 -59 -111 -32 -215 -118 -297 -247 -40 -62
-59 -71 -79 -35 -28 49 -18 2543 11 2602 22 45 25 67 30 230 7 205 10 216 78
240 27 10 75 28 108 40 33 13 76 26 95 30 19 4 74 27 121 50 47 24 112 51 145
60 83 24 108 39 179 105 70 65 107 80 199 80 57 0 169 31 341 96 33 12 76 25
95 29 44 9 177 76 216 108 63 52 99 59 162 30z m-2765 -94 c25 -7 63 -33 109
-75 39 -36 89 -74 112 -85 22 -12 66 -40 96 -64 30 -23 71 -50 90 -60 19 -9
60 -36 90 -60 30 -23 101 -65 157 -94 169 -86 177 -105 171 -357 -3 -132 -6
-155 -28 -204 -39 -86 -39 -3033 -1 -3120 22 -48 26 -75 31 -210 8 -197 42
-265 167 -329 22 -11 62 -37 89 -57 27 -21 74 -52 104 -69 30 -17 77 -48 103
-68 28 -22 77 -45 120 -58 72 -21 72 -21 287 -233 146 -144 233 -222 272 -244
32 -18 87 -58 123 -91 35 -32 89 -73 120 -90 30 -17 85 -58 122 -92 73 -66
186 -127 286 -154 74 -20 159 -98 176 -160 15 -54 15 -641 0 -683 -21 -60 -79
-54 -173 18 -34 26 -81 57 -105 69 -23 12 -74 51 -113 87 -39 36 -89 74 -112
85 -22 12 -66 40 -96 64 -30 23 -71 50 -90 60 -19 9 -60 36 -90 60 -30 23 -74
52 -98 64 -24 12 -75 51 -114 87 -39 36 -89 74 -112 85 -22 12 -66 40 -96 64
-30 23 -71 50 -90 60 -19 9 -60 36 -90 60 -30 23 -74 52 -98 64 -24 12 -75 51
-114 87 -39 36 -89 74 -112 85 -22 12 -66 40 -96 64 -30 23 -74 52 -98 64 -24
12 -75 51 -114 87 -39 36 -89 74 -112 85 -22 12 -66 40 -96 64 -30 23 -74 52
-98 64 -24 12 -75 51 -114 87 -39 36 -89 74 -112 85 -22 12 -66 40 -96 64 -30
23 -71 50 -90 60 -19 9 -60 36 -90 60 -30 23 -75 52 -100 65 -24 12 -69 46
-100 75 -30 28 -81 71 -112 93 -60 44 -63 49 -86 167 -6 28 -20 77 -32 110
-26 71 -23 131 12 202 23 48 23 48 28 2048 3 1100 6 2001 8 2002 1 1 9 8 17
16 16 17 317 13 388 -4z m2775 -3023 c40 -39 56 -299 34 -520 -16 -153 -40
-172 -104 -80 -18 26 -48 65 -67 88 -47 57 -160 291 -167 346 -18 140 208 263
304 166z m-556 -216 c49 -14 89 -62 147 -178 27 -54 66 -118 86 -142 20 -24
48 -67 62 -94 14 -28 67 -94 118 -146 207 -213 115 -384 -262 -488 -37 -11
-132 -51 -210 -91 -78 -39 -173 -79 -210 -90 -104 -28 -202 -83 -281 -155
-150 -137 -367 -109 -443 59 -26 56 -29 800 -4 881 24 78 63 126 120 148 28
10 97 40 155 67 58 26 128 54 155 60 28 7 113 44 190 82 196 98 272 116 377
87z m976 -284 c33 -25 79 -54 102 -66 22 -11 73 -50 112 -86 39 -36 89 -74
112 -85 22 -12 66 -40 96 -64 30 -23 71 -50 90 -60 19 -9 60 -36 90 -60 30
-23 75 -52 100 -65 25 -13 101 -78 170 -144 71 -70 150 -135 182 -154 32 -17
88 -59 124 -93 37 -33 81 -67 98 -76 17 -8 63 -37 101 -64 39 -27 92 -64 119
-82 85 -55 111 -125 92 -251 -16 -106 -151 -188 -321 -194 -155 -6 -166 -1
-315 143 -70 68 -147 133 -171 145 -24 12 -69 41 -99 65 -30 23 -74 52 -98 64
-24 12 -75 51 -114 87 -39 36 -89 74 -112 85 -22 12 -66 40 -96 64 -30 23 -71
50 -90 60 -19 9 -60 36 -90 60 -30 23 -71 50 -90 60 -218 111 -286 244 -210
410 18 39 24 76 29 172 10 186 62 222 189 129z m-134 -831 c31 -22 81 -54 112
-72 30 -18 74 -47 97 -66 23 -19 58 -42 77 -52 19 -9 60 -36 90 -60 30 -23 74
-52 98 -64 24 -12 75 -51 114 -87 39 -36 89 -74 112 -85 22 -12 66 -40 96 -64
30 -23 75 -52 100 -65 58 -29 178 -145 197 -188 19 -46 0 -75 -64 -96 -26 -8
-73 -24 -103 -35 -35 -13 -81 -21 -125 -21 -88 -1 -134 -21 -213 -93 -32 -30
-81 -67 -108 -83 -27 -16 -76 -48 -109 -72 -77 -57 -137 -87 -222 -111 -37
-11 -93 -29 -123 -40 -62 -23 -208 -28 -273 -10 -26 7 -68 39 -135 103 -54 50
-124 106 -155 124 -31 17 -87 59 -123 93 -37 33 -81 67 -98 76 -17 8 -62 37
-101 64 -193 134 -253 170 -319 190 -276 83 -241 314 61 397 37 11 132 51 210
91 78 39 173 79 210 90 37 10 129 49 203 86 229 115 380 130 494 50z m2095
-469 c17 -20 4 -43 -31 -55 -73 -26 -110 -1 -68 45 26 27 80 33 99 10z m138
-264 c33 -21 52 -521 22 -599 -25 -66 -315 -234 -486 -282 -37 -10 -186 -77
-330 -150 -144 -72 -293 -139 -330 -150 -37 -10 -186 -77 -330 -150 -144 -72
-293 -139 -330 -150 -37 -10 -138 -53 -223 -95 -277 -136 -274 -139 -278 309
-4 422 -4 420 175 476 38 12 89 30 115 40 27 11 80 24 118 28 51 7 100 23 178
59 59 28 132 57 162 66 30 8 83 35 118 59 35 25 84 50 109 56 75 19 102 38
223 156 139 136 140 136 260 145 89 6 105 10 209 59 103 49 120 54 209 61 63
5 116 15 152 29 75 31 229 51 257 33z"/>
</g>
</svg>
