<?xml version="1.0" standalone="no"?>
<!DOCTYPE svg PUBLIC "-//W3C//DTD SVG 20010904//EN"
 "http://www.w3.org/TR/2001/REC-SVG-20010904/DTD/svg10.dtd">
<svg version="1.0" xmlns="http://www.w3.org/2000/svg"
 width="1146.000000pt" height="852.000000pt" viewBox="0 0 1146.000000 852.000000"
 preserveAspectRatio="xMidYMid meet">
<metadata>
Created by potrace 1.16, written by Peter Selinger 2001-2019
</metadata>
<g transform="translate(0.000000,852.000000) scale(0.100000,-0.100000)"
fill="#f97316" stroke="none">
<path d="M1909 7676 c-50 -18 -84 -44 -151 -114 -79 -82 -81 -90 -88 -302 -5
-165 -8 -190 -29 -235 -16 -36 -25 -79 -31 -151 -5 -71 -14 -115 -30 -150 -20
-42 -24 -72 -30 -209 -5 -137 -9 -167 -29 -210 -16 -35 -25 -79 -31 -151 -5
-71 -14 -115 -30 -150 -20 -42 -24 -72 -30 -209 -5 -138 -9 -167 -29 -210 -19
-41 -25 -75 -31 -180 -5 -106 -11 -139 -30 -180 -21 -45 -24 -69 -30 -240 -5
-170 -8 -195 -29 -240 -16 -36 -25 -79 -31 -151 -5 -71 -14 -115 -30 -150 -20
-42 -24 -72 -30 -209 -5 -137 -9 -167 -29 -210 -16 -35 -25 -79 -31 -151 -5
-71 -14 -114 -30 -150 -21 -44 -24 -69 -30 -239 -5 -171 -8 -195 -29 -240 -19
-41 -25 -74 -31 -180 -5 -107 -11 -139 -30 -180 -23 -48 -24 -62 -30 -330 -5
-271 -6 -282 -30 -335 -36 -80 -36 -221 0 -300 25 -54 25 -59 30 -395 6 -407
40 -509 199 -603 73 -43 9089 -43 9162 0 115 67 131 109 139 338 5 169 8 189
30 235 23 48 24 62 30 300 4 208 8 257 23 289 22 49 22 103 0 152 -11 26 -19
82 -23 169 -6 105 -12 139 -30 180 -19 40 -25 75 -30 180 -6 105 -12 140 -30
180 -19 40 -25 75 -30 180 -6 105 -12 140 -30 180 -19 40 -25 75 -30 180 -6
105 -12 139 -31 180 -20 43 -24 72 -29 210 -6 137 -10 167 -30 209 -16 35 -25
79 -30 150 -6 72 -15 116 -31 151 -20 43 -24 73 -29 210 -6 137 -10 167 -30
209 -16 35 -25 79 -30 150 -6 72 -15 116 -31 151 -20 43 -24 73 -29 210 -6
138 -10 167 -30 210 -19 41 -25 75 -30 180 -6 105 -12 139 -31 180 -20 43 -24
72 -29 210 -6 139 -10 167 -30 210 -21 43 -25 71 -30 210 -6 138 -10 167 -30
210 -19 41 -25 75 -30 180 -6 105 -12 140 -30 180 -19 41 -25 75 -30 180 -9
184 -79 323 -199 393 -69 40 -3678 43 -3771 3 -39 -17 -85 -26 -155 -31 -72
-6 -114 -15 -150 -32 -106 -50 -467 -34 -551 25 -38 26 -85 52 -104 57 -57 16
-2845 13 -2891 -4z m154 -197 c51 -14 48 -36 -13 -103 -68 -76 -80 -104 -87
-204 -4 -65 -12 -99 -31 -137 -36 -69 -37 -223 -4 -298 26 -58 28 -95 5 -145
-11 -27 -18 -81 -23 -197 -5 -139 -9 -167 -30 -210 -20 -43 -24 -71 -30 -210
-5 -139 -9 -167 -30 -210 -20 -43 -24 -71 -30 -210 -5 -138 -9 -167 -29 -210
-19 -41 -25 -75 -31 -180 -5 -106 -11 -139 -30 -180 -21 -45 -24 -69 -30 -240
-5 -170 -8 -195 -29 -240 -16 -36 -25 -79 -31 -151 -5 -71 -14 -114 -30 -150
-21 -44 -24 -69 -30 -239 -5 -170 -8 -195 -29 -240 -16 -36 -25 -79 -31 -151
-5 -71 -14 -114 -30 -150 -22 -45 -24 -67 -30 -269 -5 -204 -7 -224 -29 -270
-65 -138 -41 -263 74 -385 129 -136 112 -154 -131 -148 -195 4 -189 -4 -189
266 0 197 1 209 24 257 19 41 25 73 31 180 5 106 11 139 30 180 21 45 24 69
30 240 5 170 8 195 29 240 16 36 25 79 31 151 5 71 14 115 30 150 20 42 24 72
30 209 5 137 9 167 29 210 16 35 25 79 31 151 5 71 14 114 30 150 21 44 24 69
30 239 5 171 8 195 29 240 19 41 25 74 31 180 5 105 11 139 30 180 20 43 24
72 30 210 5 137 9 167 29 210 16 35 25 79 31 151 5 71 14 115 30 150 20 42 24
73 30 209 6 145 10 166 34 219 20 44 29 82 33 145 4 65 12 98 32 136 25 49 26
56 26 235 1 102 5 193 9 204 19 39 103 56 179 35z m2040 0 c56 -15 49 -38 -42
-133 -124 -130 -116 -93 -116 -511 0 -360 0 -360 -30 -420 -29 -60 -30 -61
-30 -235 0 -201 1 -206 92 -301 68 -71 66 -83 -17 -145 -85 -64 -127 -126
-135 -202 -3 -31 -18 -84 -33 -116 -40 -87 -39 -282 1 -369 34 -72 34 -121 1
-194 -45 -103 -33 -520 19 -623 58 -116 55 -133 -47 -238 -131 -137 -121 -88
-121 -577 0 -420 0 -420 -27 -482 -25 -55 -28 -75 -28 -165 0 -146 7 -164 106
-268 130 -138 117 -150 -156 -150 -256 0 -281 15 -191 114 71 78 74 87 81 231
6 106 12 139 31 180 21 46 24 67 29 270 6 218 6 221 36 280 29 60 29 60 29
420 0 360 0 360 24 410 22 46 25 67 31 240 6 175 8 194 32 245 24 54 25 66 33
325 7 264 8 271 33 320 26 49 26 53 26 275 1 225 1 225 31 285 30 60 30 60 30
390 0 330 0 330 30 390 30 60 30 60 30 285 0 261 -2 270 -80 360 -92 107 -80
116 155 119 74 0 152 -4 173 -10z m5373 -29 c42 -40 47 -59 50 -185 1 -108 5
-126 30 -180 24 -53 28 -76 33 -190 5 -109 10 -138 30 -180 21 -44 25 -70 31
-210 5 -139 9 -167 30 -210 20 -43 24 -72 30 -210 6 -138 10 -167 30 -210 20
-41 25 -73 30 -180 5 -108 10 -138 30 -180 21 -44 24 -70 30 -215 5 -140 10
-172 28 -210 32 -68 28 -160 -8 -160 -39 0 -104 130 -115 230 -4 36 -19 90
-33 120 -21 47 -26 75 -31 187 -7 149 -22 183 -109 250 -41 31 -61 39 -159 63
-63 16 -57 36 41 140 99 104 106 122 106 268 0 89 -3 110 -27 165 -26 59 -27
72 -32 282 -6 207 -7 223 -30 270 -23 46 -25 63 -26 200 -2 171 -5 182 -85
271 -77 84 -68 105 37 101 50 -2 68 -8 89 -27z m-4021 -108 c36 -17 78 -26
151 -32 73 -5 113 -14 150 -31 49 -24 49 -24 1731 -29 1965 -6 1733 18 1744
-182 5 -95 11 -133 27 -168 30 -63 29 -110 -4 -141 -44 -41 -5030 -37 -5071 4
-28 27 -28 27 -31 205 -6 293 -19 282 325 282 264 1 279 4 362 64 73 54 82 55
336 53 218 -2 233 -3 280 -25z m-1867 -103 c53 -18 62 -54 62 -247 0 -192 -7
-223 -55 -246 -50 -24 -1380 -24 -1430 0 -58 27 -73 138 -34 244 11 30 25 78
31 105 22 111 27 122 61 139 40 19 1309 25 1365 5z m-31 -742 c41 -41 44 -470
4 -552 -23 -47 -25 -64 -31 -270 -5 -206 -7 -223 -30 -270 -23 -48 -24 -59
-30 -330 -5 -270 -6 -282 -29 -330 -22 -46 -25 -66 -31 -240 -5 -174 -8 -194
-30 -240 -24 -50 -24 -53 -30 -420 -5 -366 -5 -370 -29 -420 -23 -47 -25 -64
-31 -270 -5 -202 -7 -224 -29 -270 -16 -34 -25 -79 -30 -143 -13 -161 67 -146
-809 -150 -828 -3 -814 -4 -839 56 -22 52 -13 162 17 227 22 46 24 67 30 270
5 203 7 224 29 270 16 36 25 79 31 151 5 71 14 114 30 150 21 44 24 69 30 239
5 170 8 195 29 240 16 36 25 79 31 151 5 71 14 114 30 150 21 44 24 69 30 239
5 171 8 195 29 240 19 41 25 74 31 180 5 105 11 139 30 180 20 43 24 72 30
210 5 139 9 167 30 210 20 43 24 71 30 210 5 138 9 167 29 210 19 40 25 74 30
172 11 199 -58 182 753 180 668 -2 668 -2 695 -30z m5678 17 c19 -9 37 -27 43
-42 5 -15 22 -58 37 -97 33 -82 46 -237 25 -300 -22 -68 19 -65 -942 -65 -948
0 -899 3 -1002 -67 -101 -70 -706 -75 -803 -7 -32 22 -69 47 -83 55 -21 12
-215 15 -1192 19 -1372 6 -1221 -16 -1226 181 -5 175 31 282 108 321 51 26
4981 28 5035 2z m-3332 -715 c51 -14 48 -36 -13 -103 -92 -103 -85 -39 -85
-746 0 -710 -8 -643 91 -751 72 -79 72 -99 0 -178 -95 -103 -90 -81 -96 -456
-5 -337 -10 -375 -45 -375 -30 0 -33 43 -37 395 -3 360 -3 360 -31 422 -34 79
-34 127 1 206 27 62 27 62 27 712 0 735 8 668 -85 771 -59 65 -63 90 -17 103
44 13 244 13 290 0z m1980 0 c51 -14 48 -36 -13 -103 -85 -95 -84 -91 -88
-346 -3 -159 0 -243 9 -285 16 -76 16 -154 0 -230 -22 -101 -10 -255 28 -342
17 -40 31 -89 31 -110 0 -80 18 -114 101 -193 96 -92 99 -107 34 -180 -80 -90
-80 -89 -80 -320 0 -205 0 -205 30 -265 30 -60 30 -60 30 -355 0 -295 0 -295
32 -375 18 -44 37 -99 43 -121 7 -27 29 -63 65 -103 95 -107 74 -121 -185
-121 -274 0 -286 12 -155 150 101 107 107 124 108 305 1 125 0 132 -28 190
-30 60 -30 60 -30 480 0 454 -2 469 -70 525 -52 43 -50 17 -50 825 0 847 8
765 -85 871 -85 97 -69 110 130 113 58 0 122 -4 143 -10z m-561 -119 c130 -37
170 -127 166 -378 -4 -278 88 -247 -738 -247 -827 0 -735 -32 -735 255 0 267
-13 253 233 260 189 6 190 6 275 67 26 19 59 38 75 43 40 12 680 12 724 0z
m-1845 -143 c44 -43 44 -411 0 -454 -34 -35 -1382 -51 -1452 -17 -66 31 -76
209 -20 349 15 39 32 82 37 97 21 59 9 58 740 55 668 -2 668 -2 695 -30z
m3959 1 c24 -24 28 -37 35 -120 4 -60 14 -109 28 -138 46 -100 11 -196 -79
-220 -25 -7 -268 -9 -704 -8 -811 4 -721 -28 -721 257 0 215 3 228 60 252 62
25 1354 4 1381 -23z m-3959 -721 c31 -30 49 -451 24 -538 -22 -72 4 -70 -755
-67 -753 3 -695 -2 -750 72 -25 32 -38 427 -17 497 22 72 -9 69 773 66 698 -2
698 -2 725 -30z m1980 0 c44 -43 44 -531 0 -574 -27 -28 -27 -28 -686 -28
-736 0 -680 -5 -735 69 -32 42 -32 491 -1 526 34 38 45 39 727 37 668 -2 668
-2 695 -30z m1897 19 c20 -8 47 -34 66 -63 18 -26 59 -75 91 -109 73 -77 82
-106 77 -266 -5 -202 67 -182 -694 -186 -433 -2 -648 1 -675 8 -66 18 -143
101 -164 175 -9 33 -26 83 -38 110 -50 115 -28 308 38 336 38 15 1261 11 1299
-5z m553 -48 c35 -40 37 -50 44 -208 5 -132 9 -162 29 -204 16 -35 25 -80 30
-150 6 -73 15 -115 31 -151 22 -45 24 -65 25 -200 1 -142 3 -153 29 -210 24
-52 29 -78 35 -190 6 -106 12 -139 31 -180 24 -52 31 -171 15 -258 -13 -68
-52 -39 -81 61 -9 28 -35 77 -60 110 -67 89 -67 88 -64 372 3 276 -16 348
-125 479 -51 61 -56 90 -56 351 0 253 4 281 50 353 34 54 39 55 67 25z m-4451
-794 c51 -24 56 -54 52 -326 -4 -333 108 -293 -828 -293 -930 0 -824 -32 -828
247 -4 249 29 329 154 373 63 23 1402 21 1450 -1z m2080 -10 c69 -51 69 -51
69 -315 0 -334 107 -294 -795 -294 -898 0 -794 -35 -798 268 -4 279 10 329
102 356 73 22 1392 8 1422 -15z m2140 1 c73 -55 89 -118 89 -347 0 -297 105
-263 -804 -263 -838 0 -770 -6 -825 69 -22 29 -37 357 -21 443 8 43 58 100 99
112 73 22 1432 8 1462 -14z m-4199 -848 c44 -43 44 -471 0 -514 -30 -31 -1522
-51 -1620 -23 -69 20 -93 183 -46 310 11 30 25 78 31 105 34 172 -59 155 850
152 758 -2 758 -2 785 -30z m2078 17 c19 -9 37 -27 43 -42 5 -15 22 -58 38
-97 58 -145 46 -383 -21 -411 -50 -21 -1559 -21 -1609 0 -50 21 -56 51 -56
276 0 220 6 251 53 274 48 24 1502 24 1552 0z m2122 -17 c28 -27 28 -27 34
-210 4 -132 10 -194 22 -225 44 -115 57 -114 -760 -110 -781 3 -710 -6 -767
103 -41 77 -49 393 -11 435 35 38 45 39 757 37 698 -2 698 -2 725 -30z m542
-227 c14 -24 19 -58 23 -148 5 -100 9 -126 33 -177 67 -144 32 -227 -98 -233
-160 -8 -189 23 -106 114 73 81 81 106 86 269 6 214 18 247 62 175z m-4368
-408 c133 -130 120 -152 -91 -152 -187 0 -215 22 -137 108 24 26 58 66 76 90
44 57 50 55 152 -46z m4427 -363 c41 -14 39 1 33 -309 -6 -262 -8 -277 -30
-325 -21 -43 -25 -70 -30 -202 -6 -150 -6 -153 -34 -180 -38 -39 -8942 -46
-8993 -7 -71 52 -68 40 -74 417 -6 335 -6 343 -30 392 -45 94 -30 189 35 216
32 12 9086 11 9123 -2z"/>
</g>
</svg>
