<?xml version="1.0" standalone="no"?>
<!DOCTYPE svg PUBLIC "-//W3C//DTD SVG 20010904//EN"
 "http://www.w3.org/TR/2001/REC-SVG-20010904/DTD/svg10.dtd">
<svg version="1.0" xmlns="http://www.w3.org/2000/svg"
 width="768.000000pt" height="852.000000pt" viewBox="0 0 768.000000 852.000000"
 preserveAspectRatio="xMidYMid meet">
<metadata>
Created by potrace 1.16, written by Peter Selinger 2001-2019
</metadata>
<g transform="translate(0.000000,852.000000) scale(0.100000,-0.100000)"
fill="#f97316" stroke="none">
<path d="M1955 7614 c-80 -31 -129 -44 -162 -44 -45 0 -96 -23 -157 -69 -28
-21 -71 -49 -96 -61 -29 -15 -124 -101 -267 -243 -245 -243 -276 -286 -327
-454 -13 -43 -31 -96 -40 -118 -22 -58 -22 -472 0 -530 9 -22 26 -74 39 -117
42 -135 88 -213 190 -318 149 -154 155 -238 24 -332 -96 -69 -171 -153 -220
-249 -44 -84 -44 -84 -47 -1551 -2 -1328 -1 -1471 14 -1510 9 -24 27 -78 40
-121 67 -221 143 -333 391 -577 228 -225 228 -225 368 -291 318 -151 126 -139
2135 -139 1958 0 1776 -8 2055 96 33 12 76 25 95 29 104 22 189 81 368 259
216 212 228 228 253 316 11 39 38 107 60 152 22 44 51 114 64 157 13 42 30 95
39 119 31 82 19 2841 -13 2907 -17 36 -26 76 -31 145 -11 140 -55 208 -208
317 -122 87 -117 128 28 278 96 99 144 180 185 313 13 43 30 95 39 117 22 58
22 472 0 530 -9 22 -27 75 -40 118 -53 173 -79 208 -362 488 -442 437 -203
399 -2508 399 -1652 -1 -1874 -3 -1909 -16z m3835 -205 c30 -11 86 -29 125
-40 227 -66 568 -407 610 -609 4 -19 18 -62 32 -95 40 -95 39 -519 -1 -612
-14 -34 -26 -71 -26 -80 0 -64 -97 -206 -128 -187 -56 36 -41 191 34 346 73
150 83 275 32 398 -15 36 -34 92 -43 125 -48 172 -408 420 -633 435 -67 5
-113 14 -147 29 -28 12 -83 26 -123 31 -40 6 -94 19 -120 31 -32 14 -80 24
-148 29 -68 5 -116 14 -150 29 -27 12 -80 26 -119 31 -38 5 -99 22 -135 37
-120 51 -306 42 -435 -20 -124 -60 -433 -354 -454 -432 -17 -63 -13 -352 5
-400 9 -22 26 -74 39 -116 13 -43 42 -113 64 -157 22 -45 50 -113 61 -153 12
-45 33 -89 55 -117 43 -56 51 -85 37 -131 -6 -20 -20 -70 -32 -111 -54 -189
-76 -201 -362 -198 -275 4 -313 29 -338 228 -5 41 -16 92 -24 112 -26 61 -21
95 23 152 47 61 100 171 135 281 14 44 37 114 50 155 13 41 32 95 41 120 37
100 18 320 -38 426 -160 306 -525 473 -787 360 -48 -21 -91 -30 -165 -36 -68
-5 -116 -15 -149 -30 -35 -16 -81 -25 -150 -30 -68 -5 -116 -15 -148 -29 -26
-12 -80 -25 -120 -31 -40 -5 -94 -18 -120 -30 -26 -11 -81 -25 -122 -30 -42
-5 -88 -16 -104 -24 -15 -8 -54 -22 -87 -31 -94 -27 -130 -53 -291 -217 -247
-249 -296 -383 -217 -583 17 -44 36 -98 42 -120 6 -22 29 -62 51 -88 62 -75
77 -180 35 -244 -54 -82 -142 1 -194 182 -11 39 -29 94 -39 124 -30 81 -25
495 6 565 12 25 28 73 36 106 37 142 254 407 400 486 28 15 77 47 109 70 42
31 71 44 105 49 66 8 118 20 182 44 85 30 3754 31 3840 0z m-2470 -320 c157
-75 205 -170 205 -399 0 -136 -3 -161 -21 -205 -22 -52 -57 -154 -97 -287 -64
-209 -108 -210 -317 -4 -170 168 -253 219 -383 236 -40 5 -103 21 -142 35 -88
31 -122 31 -210 0 -38 -14 -102 -30 -142 -35 -86 -11 -412 -168 -517 -248 -97
-75 -204 -104 -227 -62 -125 229 -96 433 88 612 68 66 87 79 138 93 33 9 81
25 107 36 26 11 80 24 120 29 40 5 94 18 120 30 26 11 80 24 120 30 40 5 95
19 122 31 34 15 82 24 150 29 70 6 116 15 150 30 35 16 80 25 151 30 56 4 112
13 126 20 103 56 342 55 459 -1z m1535 13 c28 -13 83 -27 123 -32 40 -6 94
-19 120 -31 32 -14 80 -24 148 -29 68 -5 116 -14 150 -29 27 -12 82 -26 122
-31 40 -6 94 -19 120 -31 32 -14 80 -24 150 -29 198 -15 407 -138 443 -262 10
-34 28 -90 40 -123 73 -205 -41 -481 -159 -386 -15 12 -49 34 -76 49 -27 15
-77 48 -111 74 -107 80 -313 177 -401 188 -41 5 -98 20 -127 32 -75 33 -219
33 -294 0 -29 -12 -84 -26 -121 -31 -85 -11 -118 -28 -197 -101 -35 -32 -86
-70 -114 -85 -29 -14 -94 -66 -146 -115 -88 -84 -106 -96 -145 -90 -42 5 -131
155 -169 285 -11 39 -29 95 -40 125 -29 78 -30 354 -2 415 40 87 198 213 316
251 70 23 308 14 370 -14z m-2278 -842 c26 -11 80 -25 120 -30 131 -17 212
-67 391 -244 181 -178 189 -190 202 -290 5 -42 16 -89 24 -105 9 -16 24 -59
35 -97 10 -38 41 -114 67 -169 75 -154 69 -243 -20 -309 -58 -44 -331 -30
-403 20 -89 63 -101 67 -203 74 -70 5 -109 14 -145 31 -50 23 -53 24 -480 29
-414 5 -432 6 -480 27 -27 12 -75 29 -106 37 -152 42 -179 236 -66 471 31 66
57 126 57 132 0 82 456 368 617 388 69 8 120 21 183 45 66 25 136 22 207 -10z
m2818 1 c28 -12 84 -26 125 -31 90 -12 278 -97 375 -171 34 -26 81 -57 104
-69 106 -53 159 -127 172 -235 4 -38 18 -92 30 -120 33 -72 32 -151 -5 -245
-52 -139 -51 -136 -103 -155 -26 -9 -70 -27 -98 -39 -48 -20 -70 -21 -450 -26
-389 -5 -401 -6 -447 -28 -26 -12 -78 -26 -116 -31 -77 -10 -91 -16 -175 -75
-71 -50 -404 -65 -463 -20 -76 56 -101 255 -48 379 23 54 62 169 95 280 61
207 238 390 293 302 8 -13 6 -32 -12 -81 -74 -212 89 -231 195 -22 34 68 33
109 -6 170 -57 90 -20 167 85 180 70 9 121 22 184 46 73 27 192 24 265 -9z
m-1380 -1007 c35 -16 55 -54 55 -103 0 -49 20 -99 59 -142 111 -127 88 -139
-259 -139 -347 0 -370 12 -259 139 39 43 59 93 59 142 0 48 20 87 53 103 45
22 246 22 292 0z m2454 -55 c136 -47 12 -190 -183 -209 -44 -5 -105 -18 -134
-29 -83 -33 -164 -23 -143 18 11 20 41 34 109 51 33 8 64 30 123 85 96 90 151
111 228 84z m-5020 -93 c50 -47 81 -68 112 -76 73 -18 109 -38 109 -59 0 -35
-62 -38 -155 -8 -44 15 -93 29 -110 32 -51 9 -207 78 -213 93 -9 24 12 45 64
64 91 32 116 26 193 -46z m1140 -157 c42 -15 58 -44 32 -59 -28 -14 -667 -14
-710 1 -41 14 -58 44 -34 58 25 15 670 14 712 0z m3272 1 c26 -15 10 -44 -32
-59 -42 -14 -682 -15 -709 -1 -26 14 -15 39 24 56 39 17 686 20 717 4z m-4544
-128 c159 -63 268 -90 378 -94 91 -3 119 -8 160 -28 47 -23 63 -24 302 -29
286 -7 280 -5 340 -97 70 -108 84 -125 124 -154 72 -52 46 -51 1241 -48 1080
3 1124 4 1158 22 50 27 146 122 191 188 58 85 48 82 354 88 256 6 272 7 319
29 36 17 78 26 150 31 68 5 116 15 148 29 26 12 80 26 120 31 40 5 94 18 118
29 64 29 111 27 141 -5 35 -38 44 -2703 9 -2802 -12 -31 -28 -82 -36 -112 -8
-30 -37 -102 -64 -160 -27 -58 -56 -132 -66 -165 -34 -127 -253 -312 -429
-364 -111 -33 -226 -72 -280 -95 -78 -33 -3590 -39 -3683 -6 -31 11 -88 30
-125 41 -331 96 -640 404 -736 735 -11 38 -30 95 -41 126 -32 90 -27 2763 5
2798 40 45 109 49 202 12z m2029 -65 c21 -15 55 -38 74 -52 54 -38 120 -45
420 -45 300 0 366 7 420 45 125 88 96 80 270 80 174 0 144 9 270 -80 19 -13
66 -31 104 -39 86 -18 112 -50 64 -78 -34 -19 -2159 -19 -2205 0 -58 25 -44
72 21 72 62 0 135 26 190 69 93 72 289 87 372 28z"/>
<path d="M2807 6012 c-27 -29 -20 -63 26 -135 23 -36 51 -81 62 -99 39 -64
116 -63 147 2 48 101 -164 310 -235 232z"/>
<path d="M1907 5412 c-36 -40 -9 -102 45 -102 51 0 78 69 40 103 -24 22 -65
21 -85 -1z"/>
<path d="M5687 5472 c-36 -40 -9 -102 45 -102 51 0 78 69 40 103 -24 22 -65
21 -85 -1z"/>
</g>
</svg>
