<?xml version="1.0" standalone="no"?>
<!DOCTYPE svg PUBLIC "-//W3C//DTD SVG 20010904//EN"
 "http://www.w3.org/TR/2001/REC-SVG-20010904/DTD/svg10.dtd">
<svg version="1.0" xmlns="http://www.w3.org/2000/svg"
 width="1002.000000pt" height="948.000000pt" viewBox="0 0 1002.000000 948.000000"
 preserveAspectRatio="xMidYMid meet">
<metadata>
Created by potrace 1.16, written by Peter Selinger 2001-2019
</metadata>
<g transform="translate(0.000000,948.000000) scale(0.100000,-0.100000)"
fill="#f97316" stroke="none">
<path d="M3719 8551 c-24 -15 -98 -84 -164 -152 -147 -152 -175 -206 -266
-513 -11 -38 -26 -81 -35 -97 -8 -16 -19 -63 -24 -105 -5 -41 -19 -96 -31
-122 -19 -39 -23 -73 -29 -207 -5 -141 -9 -166 -30 -210 -25 -50 -25 -50 -30
-472 -5 -423 -5 -423 -33 -450 -27 -28 -27 -28 -505 -31 -558 -4 -582 0 -582
91 0 25 -88 194 -120 231 -160 181 -490 94 -626 -166 -49 -93 -49 -93 -54
-493 -5 -400 -5 -400 -30 -450 -25 -50 -25 -50 -30 -510 -5 -460 -5 -460 -30
-510 -24 -49 -24 -56 -30 -360 -6 -346 -15 -386 -119 -510 -23 -27 -46 -68
-52 -90 -10 -40 -23 -79 -54 -164 -14 -38 -16 -85 -13 -310 3 -280 50 -432
183 -591 20 -24 47 -65 60 -90 13 -25 40 -66 60 -90 20 -24 61 -92 90 -150 29
-58 70 -126 90 -150 20 -24 47 -65 60 -90 13 -25 40 -66 60 -90 20 -24 61 -92
90 -150 29 -58 69 -125 89 -149 19 -23 50 -69 67 -102 39 -72 151 -181 234
-228 33 -18 85 -57 115 -86 101 -95 70 -90 520 -90 395 0 395 0 442 27 64 38
116 102 134 165 17 57 34 80 71 94 32 12 4674 12 4706 0 37 -14 54 -37 71 -94
18 -63 70 -127 134 -165 74 -43 810 -43 884 0 58 35 111 96 126 147 20 64 16
765 -4 816 -9 22 -27 74 -40 115 -13 41 -36 111 -50 155 -14 44 -76 183 -137
309 -112 228 -112 228 -117 1950 -5 1721 -5 1721 -28 1768 -12 26 -27 81 -32
124 -11 87 -21 105 -99 188 -90 94 -127 111 -241 111 -199 0 -400 -149 -400
-296 0 -116 -11 -119 -470 -119 -514 0 -462 -37 -470 335 -6 259 -7 272 -30
320 -22 46 -25 66 -30 240 -6 170 -9 195 -30 239 -16 36 -25 79 -30 150 -5 68
-15 116 -29 148 -12 26 -25 80 -31 120 -5 40 -18 94 -30 120 -11 26 -25 80
-30 122 -16 126 -126 334 -239 450 -199 205 -247 201 -476 -35 -132 -135 -145
-159 -145 -261 0 -132 -15 -141 -245 -149 -163 -5 -185 -8 -230 -30 -50 -24
-915 -44 -1053 -24 -80 12 -149 103 -191 253 -24 86 -42 111 -188 253 -154
151 -209 171 -304 110z m160 -185 c52 -27 109 -101 126 -163 9 -32 28 -86 41
-120 13 -34 24 -65 24 -70 0 -40 30 -92 90 -158 56 -62 73 -88 86 -134 8 -31
24 -77 35 -103 11 -26 24 -80 29 -120 5 -40 19 -95 32 -123 20 -44 23 -72 28
-240 6 -174 9 -194 31 -240 24 -50 24 -52 29 -450 5 -400 5 -400 30 -450 38
-76 38 -334 0 -410 -25 -50 -25 -50 -30 -510 -5 -457 -5 -460 -28 -510 -17
-36 -26 -78 -32 -151 -5 -70 -14 -115 -30 -150 -18 -39 -24 -74 -29 -179 -8
-148 -11 -156 -92 -241 -63 -67 -184 -296 -214 -407 -50 -184 -192 -216 -281
-64 -20 34 -49 77 -65 95 -16 17 -36 58 -44 90 -9 31 -39 105 -67 164 -38 82
-52 124 -58 180 -5 40 -18 94 -29 120 -12 26 -25 80 -31 120 -5 40 -19 96 -32
123 -21 46 -23 69 -28 270 -6 206 -8 223 -31 270 -40 82 -37 631 3 672 82 82
248 26 248 -84 0 -66 21 -105 99 -184 108 -110 132 -110 237 -5 87 87 95 103
104 226 5 65 15 112 31 150 22 51 24 67 24 240 0 173 -2 189 -24 240 -16 38
-26 85 -31 150 -9 123 -17 139 -104 226 -105 105 -129 105 -237 -5 -65 -66
-81 -88 -94 -136 -32 -108 -176 -149 -253 -71 -40 40 -43 829 -3 911 21 44 25
70 31 210 5 136 9 168 29 210 12 28 26 83 31 123 5 40 18 94 29 120 22 54 62
176 91 275 68 229 209 355 329 293z m2539 -20 c59 -53 161 -272 172 -367 5
-41 18 -95 29 -121 12 -26 25 -80 31 -120 5 -40 19 -95 31 -123 16 -35 24 -79
29 -150 5 -75 12 -113 30 -150 22 -46 24 -64 27 -243 2 -175 4 -197 25 -240
21 -44 22 -65 28 -317 6 -265 6 -271 33 -332 59 -136 36 -723 -28 -723 -20 0
-18 -30 -25 300 -6 292 -6 296 -33 357 -27 62 -27 62 -27 345 -1 319 -3 337
-55 404 -39 52 -38 43 -20 164 6 37 2 56 -20 105 -22 47 -29 82 -34 160 -7
107 -11 120 -66 184 -21 26 -41 66 -50 99 -31 113 -133 230 -253 291 -121 61
-124 66 -117 205 8 146 17 177 64 229 79 88 161 104 229 43z m-569 -627 c17
-30 7 -99 -14 -99 -35 0 -61 90 -33 118 16 16 30 11 47 -19z m-1275 -21 c45
-41 57 -210 15 -223 -59 -19 -145 194 -93 232 26 19 49 16 78 -9z m744 -2 c56
-29 71 -108 22 -114 -49 -6 -123 91 -93 121 11 11 42 8 71 -7z m-436 -23 c39
-35 17 -163 -26 -147 -36 14 -50 112 -19 146 20 22 22 22 45 1z m1028 -181 c0
-38 -19 -49 -40 -23 -20 23 -27 71 -13 85 10 10 53 -41 53 -62z m288 -275 c14
-30 7 -70 -11 -64 -19 6 -39 55 -32 78 9 26 26 20 43 -14z m-1497 -3 c23 -24
24 -34 30 -177 4 -132 8 -158 29 -202 22 -46 24 -66 30 -270 6 -206 8 -223 31
-270 38 -79 38 -872 0 -950 -24 -48 -25 -62 -31 -300 -6 -244 -7 -251 -33
-308 -23 -48 -27 -71 -27 -141 0 -132 -25 -173 -90 -146 -43 18 -56 58 -33
106 16 35 18 83 23 504 5 465 5 465 30 520 23 51 25 66 25 210 0 144 -2 159
-25 210 -25 55 -25 55 -30 455 -5 400 -5 400 -30 450 -80 163 2 415 101 309z
m1317 -297 c14 -30 7 -70 -11 -64 -19 6 -39 55 -32 78 9 26 26 20 43 -14z
m-240 -120 c14 -30 7 -70 -11 -64 -19 6 -39 55 -32 78 9 26 26 20 43 -14z
m-240 -120 c14 -30 7 -70 -11 -64 -19 6 -39 55 -32 78 9 26 26 20 43 -14z
m-251 -95 c30 -19 43 -105 20 -136 -37 -50 -89 64 -57 125 12 21 19 23 37 11z
m-229 -205 c14 -30 7 -70 -11 -64 -19 6 -39 55 -32 78 9 26 26 20 43 -14z
m3192 -56 c27 -52 8 -241 -25 -241 -48 0 -66 213 -21 246 26 19 33 18 46 -5z
m-6750 -21 c35 -19 44 -53 51 -185 5 -108 10 -139 30 -180 39 -81 38 -2010 -1
-2095 -24 -53 -25 -62 -23 -235 2 -237 2 -345 0 -490 -2 -107 1 -126 22 -175
20 -45 26 -79 31 -185 7 -129 7 -130 53 -222 26 -50 55 -123 66 -160 10 -38
37 -105 60 -150 22 -45 49 -112 60 -150 10 -37 27 -86 37 -108 12 -27 19 -81
24 -170 6 -105 12 -140 31 -180 50 -108 34 -305 -24 -305 -36 0 -136 130 -202
260 -29 58 -70 126 -90 150 -20 24 -47 65 -60 90 -13 25 -40 66 -60 90 -20 24
-61 92 -90 150 -29 58 -70 126 -90 150 -20 24 -47 65 -60 90 -13 25 -40 66
-61 91 -127 152 -169 296 -169 588 0 262 1 279 22 326 12 28 29 75 37 107 10
33 31 74 52 99 107 129 119 175 124 514 5 305 5 311 30 360 25 50 25 50 30
510 5 460 5 460 30 510 25 50 25 50 30 450 5 414 7 431 48 454 22 13 39 13 62
1z m316 -151 c24 -27 33 -154 12 -182 -32 -43 -68 15 -68 110 0 85 20 111 56
72z m6729 -9 c18 -34 22 -259 5 -291 -37 -68 -70 9 -70 161 0 154 26 206 65
130z m-2220 -60 c18 -34 21 -200 5 -231 -33 -61 -70 8 -70 131 0 125 29 170
65 100z m-2468 -123 c43 -42 43 -232 0 -274 -39 -39 -174 -41 -252 -4 -74 36
-254 42 -340 12 -72 -26 -104 -26 -153 -4 -33 16 -89 18 -519 23 -570 6 -538
-2 -538 139 0 83 13 112 60 132 11 4 401 7 867 6 848 -2 848 -2 875 -30z
m4172 27 c74 -15 96 -69 67 -166 -35 -114 -15 -110 -528 -106 -496 4 -473 -3
-473 137 0 83 13 112 60 132 23 9 827 12 874 3z m-1944 -204 c34 -66 12 -250
-30 -250 -26 0 -35 37 -35 140 0 135 28 182 65 110z m2232 -180 c17 -50 17
-2810 0 -2860 -33 -95 -94 -27 -240 265 -63 127 -131 250 -151 273 -73 88 -72
165 6 322 51 105 51 105 58 265 5 142 9 166 30 210 25 50 25 50 30 600 5 548
5 550 28 600 13 28 27 83 32 124 12 87 31 121 107 191 63 58 83 60 100 10z
m-5268 -101 c54 -19 56 -28 61 -354 6 -293 6 -301 30 -350 23 -47 25 -63 30
-270 6 -199 8 -225 28 -267 12 -26 26 -80 32 -120 5 -40 18 -94 30 -120 11
-26 25 -80 30 -122 7 -57 20 -97 55 -165 24 -49 54 -122 64 -162 11 -39 33
-87 48 -106 69 -86 137 -212 127 -236 -12 -33 -62 -37 -465 -37 -399 0 -399 0
-465 -25 -113 -43 -143 -35 -203 53 -47 68 -243 263 -323 321 -84 61 -79 -3
-76 1012 3 992 -1 923 63 950 32 13 896 11 934 -2z m3281 -8 c15 -29 12 -126
-4 -166 -29 -68 -66 -34 -66 59 0 97 41 160 70 107z m1547 -14 c38 -37 38
-118 2 -192 -24 -50 -24 -50 -29 -600 -5 -550 -5 -550 -29 -600 -21 -44 -25
-69 -30 -211 -10 -251 -49 -311 -211 -325 -146 -12 -226 -55 -389 -213 -153
-147 -149 -146 -357 -146 -215 0 -245 14 -200 99 13 25 31 74 39 108 9 34 35
99 58 145 23 45 50 114 61 152 10 37 25 81 34 97 8 16 19 63 24 105 5 41 19
96 30 122 12 26 25 80 30 120 6 40 19 94 31 120 19 39 23 73 29 207 5 141 9
166 30 210 24 49 24 56 30 390 7 478 -29 445 477 442 343 -2 343 -2 370 -30z
m-1063 -99 c19 -71 6 -643 -16 -688 -18 -38 -23 -70 -28 -210 -6 -148 -9 -171
-32 -220 -15 -33 -27 -82 -30 -121 -3 -36 -15 -87 -27 -115 -12 -27 -26 -81
-31 -121 -5 -40 -17 -89 -26 -110 -9 -21 -25 -69 -35 -106 -11 -38 -39 -107
-63 -155 -24 -48 -49 -112 -56 -142 -41 -175 -189 -150 -289 49 -83 163 -63
260 68 334 78 44 186 149 231 226 21 36 57 90 79 120 49 64 49 65 54 211 3 98
7 124 29 171 14 31 29 85 33 120 4 35 19 91 33 124 26 58 26 67 32 330 4 237
7 274 23 298 21 33 43 35 51 5z m-1740 -80 c17 -49 -16 -136 -48 -125 -32 11
-32 110 1 142 20 20 36 15 47 -17z m231 -167 c6 -21 -8 -66 -26 -76 -28 -18
-34 50 -7 82 15 18 26 16 33 -6z m249 -133 c17 -49 -16 -136 -48 -125 -32 11
-32 110 1 142 20 20 36 15 47 -17z m231 -167 c6 -21 -8 -66 -26 -76 -28 -18
-34 50 -7 82 15 18 26 16 33 -6z m-780 -120 c6 -21 -8 -66 -26 -76 -28 -18
-34 50 -7 82 15 18 26 16 33 -6z m-380 -485 c22 -16 22 -57 1 -107 -8 -20 -18
-59 -22 -88 -19 -142 -83 -99 -87 58 -3 129 42 186 108 137z m265 -125 c25
-48 5 -151 -29 -151 -43 0 -55 128 -15 157 24 18 31 17 44 -6z m-3060 -292 c8
-14 10 -86 6 -232 -7 -271 -7 -256 0 -433 6 -155 0 -194 -31 -194 -47 0 -65
230 -25 319 11 24 20 51 20 61 0 10 -9 37 -20 61 -57 127 -9 529 50 418z
m3445 -9 c47 -23 64 -24 302 -29 315 -7 333 -16 353 -173 11 -88 67 -212 124
-276 123 -138 165 -132 -954 -132 -949 0 -991 2 -1004 36 -7 17 15 64 39 84
33 27 57 72 76 141 21 76 76 194 115 246 40 53 55 57 130 33 156 -48 408 -26
503 44 87 64 214 74 316 26z m2347 -460 c84 -24 128 -82 257 -339 66 -131 136
-257 156 -281 20 -25 62 -94 92 -154 47 -93 69 -125 144 -202 93 -97 113 -128
124 -206 10 -67 1 -86 -48 -99 -113 -30 -130 -41 -247 -154 -190 -185 -252
-196 -294 -53 -9 31 -33 74 -57 103 -25 30 -99 165 -184 335 -79 157 -160 306
-180 330 -97 116 -146 357 -110 546 20 107 222 208 347 174z m-5428 -60 c24
-22 58 -68 76 -102 19 -35 62 -93 96 -129 51 -54 66 -78 79 -125 22 -82 29
-97 63 -135 47 -55 55 -79 63 -184 6 -94 10 -107 58 -205 44 -89 53 -118 62
-195 14 -124 11 -130 -67 -165 -220 -99 -292 -79 -335 96 -7 27 -32 88 -55
136 -24 48 -52 117 -63 155 -10 37 -41 113 -67 168 -49 100 -49 100 -52 376
-4 324 1 349 63 349 28 0 45 -9 79 -40z m1763 -261 c99 -46 2193 -45 2288 1
69 33 161 34 230 0 47 -22 63 -24 292 -29 238 -6 242 -6 267 -30 34 -32 34
-70 0 -102 -45 -42 -2078 -37 -2179 5 -103 43 -250 43 -345 0 -65 -29 -65 -29
-917 -32 -930 -3 -915 -4 -929 52 -25 103 -10 106 518 106 446 0 468 2 568 40
67 25 137 22 207 -11z m898 -359 c50 -25 50 -25 1170 -30 859 -4 1125 -8 1141
-17 44 -25 79 -83 215 -354 76 -153 152 -293 169 -312 77 -88 93 -224 28 -246
-42 -15 -4347 -15 -4400 -1 -40 11 -87 59 -117 118 -11 21 -36 58 -55 81 -21
25 -42 66 -52 99 -8 32 -24 78 -35 104 -11 26 -24 81 -29 121 -7 56 -21 99
-60 177 -59 121 -64 164 -24 201 26 24 26 24 837 29 678 4 816 7 837 19 86 49
285 55 375 11z m3737 -47 c8 -10 29 -43 45 -73 17 -30 55 -99 85 -153 31 -53
63 -123 72 -155 10 -31 30 -93 45 -137 77 -221 81 -238 81 -334 0 -169 -65
-183 -84 -18 -8 74 -32 120 -91 177 -65 63 -76 87 -73 168 3 65 1 71 -37 126
-39 57 -40 59 -43 164 -2 79 -9 120 -23 156 -29 69 -14 121 23 79z m-6402
-793 c107 -151 151 -298 109 -366 -65 -107 -129 -83 -129 49 0 21 -9 63 -21
95 -61 167 -32 325 41 222z m630 12 c67 -33 78 -110 19 -131 -74 -26 -315 -10
-348 23 -66 66 223 161 329 108z m5754 4 c36 -15 50 -43 60 -126 3 -25 15 -68
28 -95 35 -80 35 -451 -1 -489 -54 -57 -451 -45 -451 14 0 23 34 37 104 43
199 17 330 179 247 308 -63 99 -195 198 -264 199 -90 0 -127 60 -74 118 39 42
273 61 351 28z m-524 -321 c52 -22 86 -28 168 -33 123 -6 157 -26 116 -66 -19
-20 330 -18 -2953 -16 -2772 1 -2762 1 -2776 38 -14 37 -38 37 2538 42 2522 5
2522 5 2577 29 89 38 101 41 185 37 59 -3 97 -11 145 -31z m-5477 -291 c70
-32 92 -37 184 -42 122 -6 158 -25 119 -65 -16 -15 -356 -34 -392 -21 -42 15
-64 46 -64 90 0 83 34 91 153 38z"/>
</g>
</svg>
