<?xml version="1.0" standalone="no"?>
<!DOCTYPE svg PUBLIC "-//W3C//DTD SVG 20010904//EN"
 "http://www.w3.org/TR/2001/REC-SVG-20010904/DTD/svg10.dtd">
<svg version="1.0" xmlns="http://www.w3.org/2000/svg"
 width="1062.000000pt" height="858.000000pt" viewBox="0 0 1062.000000 858.000000"
 preserveAspectRatio="xMidYMid meet">
<metadata>
Created by potrace 1.16, written by Peter Selinger 2001-2019
</metadata>
<g transform="translate(0.000000,858.000000) scale(0.100000,-0.100000)"
fill="#f97316" stroke="none">
<path d="M1067 7676 c-73 -26 -142 -95 -166 -165 -16 -49 -16 -1468 1 -1522
45 -152 293 -230 475 -151 29 12 86 27 127 32 106 13 327 124 418 208 84 78
95 83 212 92 72 6 116 15 151 31 43 20 73 24 210 29 140 6 166 10 210 31 78
38 1231 38 1310 0 41 -19 73 -25 173 -30 187 -10 176 11 180 -359 5 -401 -5
-437 -150 -545 -102 -76 -290 -271 -321 -333 -14 -27 -42 -70 -62 -94 -20 -24
-47 -64 -60 -90 -13 -25 -42 -68 -64 -95 -23 -28 -46 -68 -52 -90 -5 -22 -19
-65 -30 -95 -11 -30 -30 -89 -43 -130 -13 -41 -31 -93 -40 -115 -8 -22 -15
-55 -16 -73 0 -69 -22 -97 -96 -126 -38 -14 -89 -42 -114 -62 -25 -20 -90 -59
-145 -86 -55 -28 -125 -70 -155 -93 -30 -24 -125 -78 -210 -120 -85 -43 -180
-97 -210 -120 -30 -24 -125 -78 -210 -120 -85 -43 -180 -97 -210 -120 -30 -24
-125 -78 -210 -120 -85 -43 -180 -97 -210 -120 -30 -24 -71 -51 -90 -60 -19
-10 -60 -37 -90 -60 -30 -24 -156 -93 -279 -155 -291 -145 -351 -202 -351
-330 0 -107 154 -290 245 -290 88 0 432 147 525 225 24 20 119 74 210 120 91
46 186 100 210 120 24 20 92 61 150 90 58 29 126 70 150 90 24 20 119 74 210
120 91 46 186 100 210 120 124 104 357 188 400 145 52 -52 16 -110 -109 -174
-49 -25 -108 -62 -132 -82 -24 -20 -91 -60 -149 -89 -58 -29 -126 -70 -150
-90 -24 -20 -92 -61 -150 -90 -58 -29 -126 -70 -150 -90 -24 -20 -92 -61 -150
-90 -58 -29 -126 -70 -150 -90 -24 -20 -92 -61 -150 -90 -58 -29 -126 -70
-150 -90 -24 -20 -62 -46 -84 -57 -23 -11 -66 -40 -96 -63 -30 -24 -75 -53
-100 -65 -68 -34 -206 -178 -220 -229 -27 -103 133 -301 243 -301 46 0 631
290 697 345 24 20 119 74 210 120 91 46 186 100 210 120 24 20 92 61 150 90
58 29 126 70 150 90 66 56 533 285 580 285 69 0 103 -69 60 -123 -12 -15 -87
-59 -169 -101 -81 -41 -168 -91 -191 -111 -24 -20 -65 -47 -90 -60 -25 -13
-66 -40 -90 -60 -24 -20 -92 -61 -150 -90 -58 -29 -126 -70 -150 -90 -24 -20
-92 -61 -150 -90 -58 -29 -126 -70 -150 -90 -24 -20 -119 -74 -210 -120 -91
-46 -185 -99 -210 -120 -24 -20 -66 -48 -93 -62 -122 -61 -289 -254 -289 -333
0 -108 181 -264 286 -247 86 14 178 50 233 91 32 24 101 65 153 91 52 26 120
67 150 90 30 24 152 91 270 150 118 59 240 127 270 150 30 24 98 64 150 90 52
26 120 67 150 90 30 24 98 64 150 90 52 26 120 67 150 90 30 24 71 51 90 60
19 10 60 37 90 60 69 54 377 208 467 235 37 10 95 29 128 41 86 30 305 25 380
-9 28 -13 83 -27 123 -32 40 -5 96 -20 125 -32 82 -36 514 -35 597 1 39 17 85
26 155 31 69 6 115 15 149 30 32 14 84 26 145 31 53 5 120 12 149 15 49 6 57
4 105 -29 29 -19 171 -94 317 -167 146 -73 290 -151 320 -175 30 -23 98 -64
150 -90 52 -26 120 -66 150 -90 30 -23 125 -77 210 -120 85 -42 180 -96 210
-120 30 -23 98 -64 150 -90 52 -26 120 -66 150 -90 30 -23 125 -77 210 -120
85 -42 181 -97 212 -121 199 -155 411 -164 532 -22 46 54 61 104 45 160 -15
56 -267 312 -345 351 -27 14 -70 42 -94 62 -24 20 -92 61 -150 90 -58 29 -126
70 -150 90 -24 20 -119 74 -210 120 -91 46 -186 100 -210 120 -24 20 -92 61
-150 90 -58 29 -126 70 -150 90 -24 20 -120 75 -212 121 -174 87 -241 136
-265 192 -25 59 32 101 117 87 56 -9 406 -184 460 -229 24 -21 92 -62 150 -91
58 -29 126 -70 150 -90 24 -20 92 -61 150 -90 58 -29 126 -70 150 -90 24 -20
119 -74 210 -120 91 -46 186 -100 210 -120 64 -54 412 -225 457 -225 48 0 90
28 166 110 176 190 90 363 -268 543 -94 47 -191 102 -215 122 -24 20 -119 74
-210 120 -91 46 -185 99 -210 120 -24 20 -65 47 -90 60 -25 13 -66 40 -90 60
-25 21 -119 74 -210 120 -91 46 -185 99 -210 120 -24 20 -65 47 -90 60 -25 13
-66 40 -90 60 -24 20 -64 47 -89 60 -100 50 -125 122 -54 151 56 24 112 11
180 -40 32 -24 157 -93 278 -154 121 -60 240 -127 265 -147 24 -20 92 -61 150
-90 58 -29 126 -70 150 -90 24 -20 92 -61 150 -90 58 -29 126 -70 150 -90 24
-20 92 -61 150 -90 58 -29 126 -70 150 -90 83 -69 348 -175 437 -175 101 0
213 127 213 240 0 132 -217 355 -470 480 -91 45 -190 101 -220 125 -30 23 -98
64 -150 90 -52 26 -120 66 -150 90 -30 23 -98 64 -150 90 -52 26 -120 66 -150
90 -30 23 -125 77 -210 120 -85 42 -180 96 -210 120 -30 23 -125 77 -210 120
-85 42 -180 96 -210 120 -30 23 -71 50 -90 60 -19 9 -60 36 -90 59 -30 24 -92
62 -138 86 -114 61 -119 69 -187 291 -13 43 -42 113 -64 157 -22 45 -50 113
-60 152 -21 73 -24 79 -73 138 -16 18 -40 56 -54 85 -19 38 -90 116 -265 292
-291 294 -269 247 -269 555 0 299 -1 296 101 335 78 30 137 81 195 166 25 36
43 50 80 64 185 64 311 158 333 246 7 24 21 69 32 99 42 114 42 126 0 240 -11
30 -25 73 -31 96 -25 99 -145 184 -259 184 -98 0 -131 13 -210 84 -53 47 -91
72 -142 91 -73 28 -82 38 -105 114 -60 204 -276 246 -442 87 -127 -121 -116
-48 -122 -864 -5 -732 -5 -732 -40 -732 -35 0 -35 0 -40 732 -6 816 5 743
-122 864 -144 139 -252 139 -396 0 -127 -121 -116 -48 -122 -864 -5 -732 -5
-732 -40 -732 -35 0 -35 -1 -40 757 -6 815 -2 769 -70 847 -83 94 -206 120
-301 64 -73 -43 -176 -161 -194 -222 -29 -96 -36 -100 -219 -107 -132 -5 -157
-9 -201 -30 -78 -38 -1111 -38 -1190 0 -41 19 -73 25 -180 31 -105 5 -139 11
-180 30 -43 20 -72 24 -210 29 -181 8 -182 8 -273 93 -74 68 -171 118 -338
172 -125 41 -428 53 -517 22z m463 -207 c30 -11 86 -29 123 -40 232 -67 261
-112 256 -387 -6 -257 -4 -257 -233 -33 -214 210 -279 249 -434 261 -83 6 -96
10 -120 34 -51 50 -32 150 33 177 44 18 317 10 375 -12z m3859 10 c58 -20 56
8 61 -804 5 -750 5 -750 33 -801 44 -82 17 -104 -128 -104 -149 0 -177 25
-144 130 18 59 19 98 19 779 0 510 3 727 11 751 18 51 82 72 148 49z m-688
-25 c24 -26 24 -26 29 -747 4 -592 8 -726 19 -747 8 -13 44 -56 81 -95 104
-110 103 -127 -17 -179 -133 -58 -213 -59 -232 -5 -15 43 -16 1706 -1 1746 22
58 80 71 121 27z m1380 0 c23 -25 45 -1602 24 -1722 -13 -70 -78 -91 -163 -52
-24 11 -61 24 -83 30 -87 24 -84 75 11 176 84 90 80 49 80 826 0 453 4 696 10
715 22 58 80 71 121 27z m-3686 -294 c40 -18 76 -24 180 -30 105 -5 140 -11
185 -31 88 -38 1115 -38 1200 1 88 40 336 38 377 -3 44 -43 44 -591 0 -634
-40 -41 -230 -42 -317 -3 -86 39 -1233 39 -1320 1 -48 -22 -76 -26 -215 -31
-134 -6 -167 -10 -205 -28 -86 -41 -152 -21 -165 50 -17 93 0 675 20 698 43
48 168 53 260 10z m4042 0 c43 -39 42 -106 -4 -207 -32 -71 -44 -284 -23 -388
31 -145 14 -220 -48 -213 -44 5 -47 35 -47 421 0 355 0 355 24 381 29 31 69
34 98 6z m-5024 -138 c108 -53 237 -181 237 -234 0 -36 -51 -191 -71 -214 -22
-27 -92 -62 -164 -83 -38 -11 -97 -30 -130 -42 -74 -26 -127 -21 -164 15 -36
37 -41 527 -6 566 51 57 174 54 298 -8z m5391 -44 c80 -73 95 -177 41 -284
-126 -254 -278 -134 -230 182 15 101 125 160 189 102z m-4910 -290 c10 -35 20
-330 12 -372 -17 -88 -242 -225 -406 -245 -41 -6 -97 -20 -125 -33 -79 -36
-214 -33 -252 5 -73 73 -25 171 91 188 37 5 80 16 95 24 16 8 60 23 98 33 175
49 402 229 403 321 1 67 69 130 84 79z m3833 -1118 c33 -22 93 -51 134 -65 41
-13 92 -30 114 -39 22 -8 56 -15 75 -16 90 -1 103 -10 342 -247 170 -170 234
-240 258 -284 17 -32 46 -76 65 -99 21 -25 41 -65 50 -98 9 -32 38 -104 65
-162 27 -58 56 -130 64 -160 8 -30 25 -82 36 -114 33 -91 27 -485 -8 -561 -13
-27 -27 -83 -32 -123 -5 -40 -18 -94 -29 -120 -11 -26 -25 -67 -31 -92 -6 -25
-33 -92 -60 -150 -27 -58 -56 -130 -65 -162 -9 -33 -30 -73 -51 -99 -19 -24
-47 -66 -61 -93 -27 -55 -310 -350 -371 -388 -25 -15 -60 -22 -135 -28 -71 -6
-117 -15 -151 -30 -35 -16 -81 -25 -150 -30 -73 -6 -115 -15 -151 -32 -76 -35
-512 -36 -590 0 -27 13 -83 27 -123 32 -40 6 -94 19 -120 31 -32 14 -80 24
-149 29 -76 6 -110 13 -135 28 -64 40 -464 453 -491 508 -14 27 -42 70 -62 94
-47 56 -89 140 -115 227 -31 105 -70 223 -93 278 -20 48 -36 226 -40 445 -1
87 18 211 42 265 10 23 22 58 26 76 4 19 17 61 30 94 13 33 30 85 39 117 9 33
31 74 52 99 19 24 46 64 59 89 13 25 40 66 60 90 20 24 48 66 62 93 35 70 103
139 174 177 34 18 104 73 158 124 105 99 177 143 286 175 110 33 226 71 280
94 45 19 76 22 300 27 203 5 257 9 285 23 56 26 90 21 157 -23z m1570 -1671
c26 -11 73 -40 103 -63 30 -24 73 -53 96 -64 22 -11 60 -37 84 -57 25 -21 119
-74 210 -120 91 -46 186 -100 210 -120 24 -20 119 -74 210 -120 91 -46 186
-100 210 -120 24 -20 92 -61 150 -90 58 -29 126 -70 150 -90 24 -20 92 -61
150 -90 58 -29 126 -70 150 -90 24 -20 120 -75 213 -121 214 -108 287 -171
287 -252 0 -52 -33 -75 -85 -60 -16 5 -63 18 -103 29 -90 24 -174 65 -232 114
-24 20 -92 61 -150 90 -58 29 -126 70 -150 90 -24 20 -92 61 -150 90 -58 29
-126 70 -150 90 -24 20 -92 61 -150 90 -58 29 -126 70 -150 90 -25 20 -144 87
-265 147 -121 61 -246 130 -278 154 -122 91 -223 84 -340 -25 -112 -104 -132
-164 -79 -237 46 -62 196 -201 244 -224 23 -12 68 -41 98 -65 30 -23 73 -52
96 -63 22 -11 60 -37 84 -57 25 -21 117 -73 205 -117 88 -44 185 -99 215 -123
30 -23 73 -52 96 -63 22 -11 60 -37 84 -57 25 -21 119 -74 210 -120 91 -46
185 -99 209 -119 24 -20 111 -71 192 -112 188 -95 223 -138 185 -227 -14 -34
-19 -37 -53 -37 -49 0 -357 149 -423 205 -24 20 -119 74 -210 120 -91 46 -186
100 -210 120 -24 20 -92 61 -150 90 -58 29 -126 70 -150 90 -24 20 -92 61
-150 90 -58 29 -126 70 -150 90 -94 79 -443 240 -519 240 -120 -1 -291 -144
-291 -245 0 -98 227 -308 456 -423 93 -47 190 -102 214 -122 24 -20 92 -61
150 -90 58 -29 126 -70 150 -90 24 -20 119 -74 210 -120 91 -46 186 -100 210
-120 24 -20 89 -59 145 -87 55 -27 125 -69 155 -93 30 -23 75 -52 98 -64 57
-29 128 -95 140 -129 43 -124 -181 -109 -338 22 -24 21 -119 75 -210 121 -91
46 -186 100 -210 120 -24 20 -92 61 -150 90 -58 29 -126 70 -150 90 -24 20
-119 74 -210 120 -91 46 -186 100 -210 120 -24 20 -89 59 -145 87 -55 27 -125
69 -155 93 -30 23 -156 93 -280 155 -363 181 -355 157 -126 389 112 114 172
182 190 218 14 29 38 67 54 85 49 59 52 65 73 138 10 39 38 108 60 153 23 45
50 113 61 151 10 37 25 81 34 97 8 16 19 63 24 105 5 41 19 96 30 121 11 25
24 72 29 104 17 106 46 122 148 78z m-3797 -44 c20 -21 24 -40 30 -118 4 -52
14 -106 23 -124 9 -17 25 -61 36 -99 67 -228 124 -360 185 -433 21 -25 49 -68
63 -95 18 -36 90 -116 243 -271 217 -219 245 -255 219 -280 -8 -8 -110 -62
-228 -120 -118 -59 -240 -126 -270 -150 -31 -23 -72 -51 -91 -60 -19 -10 -60
-37 -90 -60 -30 -24 -98 -64 -150 -90 -52 -26 -120 -67 -150 -90 -30 -24 -100
-66 -155 -93 -56 -28 -121 -67 -145 -87 -25 -20 -146 -88 -270 -150 -124 -62
-245 -130 -270 -150 -24 -20 -89 -59 -144 -87 -54 -27 -123 -68 -153 -90 -89
-68 -233 -98 -273 -58 -44 44 -10 119 74 162 22 11 66 40 96 63 30 24 127 79
215 123 88 44 181 97 205 117 24 20 92 61 150 90 58 29 126 70 150 90 24 20
92 61 150 90 58 29 126 70 150 90 24 20 62 46 84 57 23 11 66 40 96 63 30 24
129 80 220 125 240 120 350 233 350 360 0 130 -118 245 -252 245 -75 0 -541
-219 -638 -300 -24 -20 -92 -61 -150 -90 -58 -29 -126 -70 -150 -90 -24 -20
-119 -74 -210 -120 -91 -46 -186 -100 -210 -120 -45 -37 -523 -283 -614 -315
-112 -40 -150 53 -49 123 25 18 64 47 86 65 23 19 62 44 87 57 25 13 66 40 90
60 24 20 92 61 150 90 58 29 126 70 150 90 24 20 92 61 150 90 58 29 126 70
150 90 24 20 92 61 150 90 58 29 126 70 150 90 24 20 92 61 150 90 58 29 126
70 150 90 24 20 94 62 155 92 196 98 313 239 285 343 -25 92 -188 230 -272
230 -57 0 -292 -112 -368 -175 -24 -20 -119 -74 -210 -120 -91 -46 -186 -100
-210 -120 -24 -20 -92 -61 -150 -90 -58 -29 -126 -70 -150 -90 -24 -20 -119
-74 -210 -120 -91 -46 -186 -100 -210 -121 -131 -109 -490 -238 -527 -188 -52
71 1 130 216 238 93 47 187 101 211 121 24 20 62 46 84 57 23 11 66 40 96 63
30 24 127 79 215 123 88 44 181 97 205 117 24 20 119 74 210 120 91 46 186
100 210 120 24 20 117 73 205 117 88 44 185 100 215 123 30 24 97 64 148 89
51 26 120 67 153 91 74 54 121 60 159 20z"/>
<path d="M5260 4676 c-19 -8 -72 -26 -118 -41 -100 -32 -153 -71 -211 -154
-27 -39 -69 -81 -112 -112 -178 -130 -209 -190 -209 -409 0 -222 -12 -199 234
-449 236 -239 277 -271 346 -271 46 0 49 2 169 82 30 21 73 23 151 6 86 -17
158 20 294 152 150 146 187 222 161 332 -9 41 -15 115 -15 212 0 185 -7 210
-85 294 -34 37 -80 99 -103 139 -99 170 -350 280 -502 219z m323 -437 c133
-37 203 -213 146 -369 -11 -30 -28 -83 -38 -118 -41 -141 -243 -239 -342 -167
-81 58 -121 77 -180 85 -113 16 -114 18 -114 289 0 308 -18 289 285 290 117 1
222 -4 243 -10z"/>
</g>
</svg>
