<?xml version="1.0" standalone="no"?>
<!DOCTYPE svg PUBLIC "-//W3C//DTD SVG 20010904//EN"
 "http://www.w3.org/TR/2001/REC-SVG-20010904/DTD/svg10.dtd">
<svg version="1.0" xmlns="http://www.w3.org/2000/svg"
 width="1920.000000pt" height="1920.000000pt" viewBox="0 0 1920.000000 1920.000000"
 preserveAspectRatio="xMidYMid meet">
<metadata>
Created by potrace 1.16, written by Peter Selinger 2001-2019
</metadata>
<g transform="translate(0.000000,1920.000000) scale(0.100000,-0.100000)"
fill="#f97316" stroke="none">
<path d="M9660 18574 c-33 -22 -164 -150 -201 -196 -17 -21 -38 -67 -50 -108
-11 -39 -39 -110 -63 -158 -23 -48 -48 -109 -55 -136 -46 -185 -127 -203 -281
-61 -40 36 -93 77 -119 90 -25 12 -64 37 -86 55 -83 66 -223 109 -280 86 -66
-28 -69 -43 -75 -313 -6 -298 -3 -292 -148 -303 -225 -16 -337 -225 -252 -467
38 -108 39 -106 -150 -298 -183 -187 -172 -156 -168 -500 3 -251 4 -262 28
-310 19 -41 25 -72 30 -175 9 -167 3 -157 228 -381 193 -193 199 -198 302
-249 58 -29 130 -71 160 -95 70 -54 280 -159 379 -190 42 -13 96 -30 119 -39
39 -15 121 -16 785 -14 742 3 742 3 852 55 61 28 135 58 166 67 33 9 82 34
115 60 33 24 75 51 94 61 19 10 60 37 90 60 30 24 71 51 90 60 19 10 60 37 90
60 30 24 74 53 98 64 80 40 185 152 239 254 48 92 48 92 51 562 4 580 17 520
-149 691 -158 163 -173 202 -128 324 85 227 77 299 -39 367 -44 26 -54 28
-172 29 -69 0 -130 2 -137 2 -23 4 -33 69 -33 225 0 217 -20 269 -129 338 -75
48 -138 39 -226 -31 -22 -18 -61 -43 -86 -55 -26 -13 -79 -54 -119 -90 -110
-101 -176 -121 -223 -65 -28 33 -51 91 -112 292 -40 130 -89 214 -179 307
-136 140 -192 168 -256 125z m118 -208 c37 -32 85 -123 111 -211 28 -95 69
-217 97 -292 13 -34 24 -68 24 -77 0 -8 9 -38 20 -66 11 -28 20 -65 20 -83 0
-41 -162 -373 -213 -437 -20 -25 -51 -65 -70 -90 -54 -74 -67 -68 -128 55 -30
58 -71 127 -93 153 -109 131 -153 369 -97 527 12 33 31 91 42 128 10 38 39
107 63 155 24 48 49 112 56 142 25 105 103 150 168 96z m-992 -497 c22 -17 61
-42 87 -55 26 -14 79 -53 117 -88 38 -35 93 -77 123 -94 69 -39 98 -74 157
-192 26 -52 65 -116 86 -140 106 -127 150 -326 72 -324 -48 2 -196 72 -267
127 -29 23 -146 89 -259 147 -266 136 -246 107 -250 370 -4 288 23 338 134
249z m1990 -4 c17 -41 20 -348 4 -407 -14 -49 -62 -89 -173 -145 -51 -25 -117
-65 -147 -88 -30 -24 -71 -51 -90 -60 -19 -10 -60 -37 -90 -60 -30 -24 -74
-52 -97 -64 -23 -11 -68 -45 -100 -74 -84 -77 -101 -87 -155 -87 -91 0 -98 37
-22 122 18 21 44 59 58 86 13 26 41 68 61 92 20 25 72 115 115 200 90 180 113
210 187 252 30 17 85 59 123 94 38 35 91 74 117 88 26 13 65 38 87 55 56 45
102 43 122 -4z m-2315 -545 c22 -6 67 -38 110 -76 63 -56 107 -83 294 -176
121 -60 245 -129 275 -152 30 -24 127 -79 215 -124 254 -128 307 -190 259
-300 -11 -24 -19 -81 -23 -160 -10 -180 -81 -225 -256 -163 -33 12 -91 31
-129 42 -233 68 -429 196 -668 436 -220 222 -227 230 -243 288 -9 33 -26 83
-38 110 -30 70 -31 212 -2 245 36 40 124 53 206 30z m2716 -22 c29 -27 30 -77
2 -138 -11 -25 -24 -77 -28 -116 -11 -90 -17 -101 -121 -209 -50 -52 -100
-116 -119 -151 -90 -171 -414 -396 -678 -474 -37 -10 -95 -29 -128 -41 -92
-32 -243 -25 -282 14 -42 42 -47 193 -9 302 14 41 26 91 26 109 0 45 18 62 80
75 71 15 103 34 175 101 35 32 83 68 106 81 24 12 69 41 99 64 30 24 71 51 90
60 19 10 60 37 90 60 70 55 378 209 467 234 37 10 84 26 103 35 51 22 99 20
127 -6z m-2952 -579 c33 -9 85 -56 290 -258 250 -246 250 -246 450 -343 340
-164 360 -168 755 -168 395 0 415 4 755 168 200 97 200 97 389 282 103 102
206 211 228 243 79 116 251 123 332 13 27 -36 38 -628 13 -688 -19 -46 -169
-154 -245 -177 -83 -26 -98 -35 -197 -131 -50 -48 -110 -97 -135 -110 -25 -13
-70 -42 -100 -66 -145 -113 -101 -108 -985 -116 -434 -3 -813 -9 -841 -13 -51
-7 -51 -7 -115 50 -41 36 -104 77 -172 111 -76 39 -128 73 -178 120 -40 36
-90 74 -113 85 -22 12 -66 40 -96 64 -30 23 -96 63 -147 88 -182 92 -183 93
-183 427 0 277 4 293 77 363 64 61 135 79 218 56z m-76 -1069 c35 -17 79 -44
98 -60 19 -17 57 -42 85 -56 28 -14 81 -54 117 -88 48 -45 100 -80 177 -119
119 -61 160 -96 170 -143 19 -96 -123 -68 -291 58 -33 25 -110 70 -170 101
-266 136 -444 429 -186 307z m3259 18 c33 -33 -7 -123 -78 -175 -25 -19 -62
-47 -82 -64 -21 -16 -66 -46 -100 -65 -35 -20 -74 -46 -88 -58 -14 -13 -47
-36 -75 -51 -27 -16 -72 -45 -100 -66 -77 -58 -146 -65 -164 -16 -19 49 35
117 139 175 36 20 108 77 162 128 89 86 102 94 169 114 39 12 94 37 122 56 52
36 76 41 95 22z m-954 -527 c34 -32 34 -70 0 -102 -26 -24 -26 -24 -704 -24
-678 0 -678 0 -704 24 -43 40 -26 102 34 124 59 22 1350 1 1374 -22z"/>
<path d="M7559 14341 c-50 -16 -76 -36 -194 -151 -79 -77 -139 -127 -175 -145
-43 -21 -128 -100 -390 -360 -245 -244 -348 -339 -385 -358 -76 -38 -136 -97
-180 -176 -45 -84 -110 -148 -186 -186 -89 -44 -633 -594 -648 -655 -7 -25
-21 -70 -32 -100 -11 -30 -30 -89 -43 -130 -13 -41 -31 -94 -40 -118 -15 -39
-16 -247 -14 -2290 3 -2247 3 -2247 52 -2340 53 -101 106 -156 190 -199 27
-14 93 -67 147 -119 54 -51 121 -105 149 -119 28 -14 83 -55 122 -91 39 -36
93 -76 120 -90 27 -13 81 -54 120 -90 39 -36 93 -76 120 -90 27 -13 81 -54
120 -90 39 -36 93 -77 121 -91 28 -14 94 -67 148 -119 54 -51 121 -105 149
-119 28 -14 83 -55 122 -91 39 -36 93 -76 120 -90 27 -13 81 -54 120 -90 39
-36 89 -74 112 -86 22 -11 67 -40 99 -64 38 -28 84 -51 130 -65 91 -27 156
-60 230 -115 91 -68 -33 -64 1983 -62 1849 3 1849 3 1899 27 36 17 75 26 145
31 102 7 114 11 205 75 33 24 102 64 154 90 116 57 278 208 330 304 38 72 72
106 136 138 34 18 117 92 265 238 161 159 229 219 270 240 104 51 848 805 908
920 47 90 47 90 47 2380 0 2290 0 2290 -23 2342 -12 29 -27 87 -32 129 -6 43
-18 90 -30 108 -34 56 -214 223 -270 251 -30 15 -96 68 -151 121 -84 80 -115
102 -210 150 -95 47 -126 69 -210 149 -54 52 -121 106 -149 120 -28 14 -83 55
-122 91 -39 36 -93 76 -120 90 -27 13 -81 54 -120 90 -39 36 -93 76 -120 90
-27 13 -81 54 -120 90 -39 36 -93 77 -121 91 -28 14 -94 67 -148 118 -54 52
-117 104 -141 115 -24 12 -68 41 -98 65 -30 23 -71 50 -90 60 -19 9 -61 37
-92 61 -166 129 19 119 -2183 121 -1083 1 -1982 -2 -1996 -6z m4031 -226 c36
-16 92 -51 125 -76 34 -25 76 -54 95 -64 19 -9 60 -36 90 -60 30 -23 75 -52
99 -65 25 -12 88 -64 142 -116 54 -51 121 -105 149 -119 28 -14 83 -55 122
-91 39 -36 93 -76 120 -90 27 -13 81 -54 120 -90 39 -36 93 -76 120 -90 27
-13 81 -54 120 -90 39 -36 93 -77 121 -91 28 -14 94 -67 148 -119 84 -80 115
-102 210 -150 95 -47 126 -69 210 -149 54 -52 120 -105 147 -119 152 -77 153
-206 3 -288 -42 -24 -178 -152 -541 -514 -392 -389 -496 -487 -540 -509 -42
-21 -112 -84 -295 -266 -159 -158 -259 -249 -297 -271 -32 -18 -83 -51 -114
-73 -56 -40 -56 -40 -2027 -40 -1972 0 -1972 0 -2032 -22 -115 -44 -192 -15
-344 131 -55 52 -123 107 -151 121 -28 14 -83 55 -122 91 -39 36 -93 76 -120
90 -27 13 -81 54 -120 90 -39 36 -93 77 -121 91 -28 14 -94 67 -148 119 -54
51 -121 105 -149 119 -28 14 -83 55 -122 91 -39 36 -93 77 -121 91 -28 14 -94
67 -148 118 -54 52 -117 104 -141 115 -24 12 -68 41 -98 65 -30 23 -74 52 -98
64 -24 12 -74 50 -111 85 -38 34 -94 74 -124 89 -75 35 -86 94 -37 202 27 61
389 415 460 450 45 22 152 123 570 540 414 413 526 518 570 540 36 18 96 68
176 147 81 79 135 124 161 134 93 33 3969 13 4043 -21z m2306 -2070 c12 -30
14 -326 12 -2232 -3 -2198 -3 -2198 -37 -2273 -46 -99 -628 -695 -735 -751
-46 -24 -114 -84 -276 -244 -157 -156 -230 -220 -269 -240 -75 -38 -249 -208
-290 -284 -51 -96 -142 -161 -225 -161 -52 0 -59 22 -67 190 -5 124 -9 152
-30 195 -33 70 -32 162 1 230 36 72 45 3722 10 3822 -36 103 -21 140 79 195
39 22 131 106 301 274 186 184 258 248 300 269 44 22 148 120 540 511 517 515
537 532 633 533 34 1 39 -3 53 -34z m-8267 -121 c39 -11 70 -32 123 -80 39
-36 89 -74 112 -85 22 -12 66 -40 96 -64 30 -23 75 -52 99 -65 25 -12 88 -64
142 -116 54 -51 121 -105 149 -119 28 -14 83 -55 122 -91 39 -36 93 -77 121
-91 28 -14 94 -67 148 -119 54 -51 121 -105 149 -119 28 -14 83 -55 122 -91
39 -36 93 -76 120 -90 27 -13 80 -54 119 -89 38 -35 96 -78 129 -96 86 -46
264 -230 280 -290 15 -54 7 -117 -22 -177 -23 -47 -23 -47 -28 -2149 -5 -2101
-5 -2101 -29 -2127 -39 -41 -86 -36 -159 18 -33 25 -79 54 -102 66 -22 11 -73
50 -112 86 -39 36 -93 76 -120 90 -27 13 -81 54 -120 90 -39 36 -93 77 -121
91 -28 14 -94 67 -148 119 -54 51 -121 105 -149 119 -28 14 -83 55 -122 91
-39 36 -93 76 -120 90 -27 13 -81 54 -120 90 -39 36 -93 76 -120 90 -27 13
-81 54 -120 90 -39 36 -94 77 -122 91 -64 32 -308 270 -336 328 -23 48 -32
4421 -9 4482 18 48 55 55 148 27z m6107 -1580 c76 -57 69 152 72 -1925 2
-1849 2 -1849 -19 -1907 -49 -134 -49 -169 -1 -302 21 -58 38 -444 21 -471 -4
-6 -38 -20 -75 -30 -38 -10 -94 -27 -124 -38 -54 -20 -76 -20 -1883 -21 -2009
0 -1883 -4 -1906 60 -24 70 -14 4334 10 4400 11 30 25 78 31 105 22 114 28
126 61 140 61 27 3777 16 3813 -11z"/>
<path d="M10860 14017 c-55 -22 -55 -22 -1530 -27 -1426 -5 -1476 -6 -1510
-24 -19 -11 -76 -58 -125 -106 -77 -75 -108 -96 -205 -145 -115 -57 -115 -57
-480 -420 -291 -289 -376 -368 -420 -390 -82 -40 -511 -472 -528 -531 -15 -52
-15 -96 0 -148 17 -58 386 -431 467 -471 32 -16 95 -66 152 -120 54 -52 117
-104 141 -115 24 -12 68 -41 98 -65 30 -23 74 -52 98 -64 24 -12 75 -51 114
-87 39 -36 89 -74 112 -85 22 -12 66 -40 96 -64 30 -23 102 -66 160 -96 93
-47 120 -68 233 -177 245 -237 69 -217 1927 -217 1605 0 1605 0 1670 29 56 24
83 29 191 35 194 11 250 41 457 245 111 108 173 161 212 181 82 40 1085 1041
1131 1128 37 71 41 122 11 164 -49 68 -309 311 -361 338 -31 15 -96 67 -152
121 -54 51 -121 105 -150 120 -29 14 -96 68 -150 120 -54 51 -121 105 -150
120 -29 14 -96 68 -150 120 -83 79 -115 102 -209 149 -79 40 -130 74 -182 121
-77 70 -187 131 -289 159 -44 12 -72 28 -123 75 -95 86 -111 92 -256 100 -74
4 -139 13 -160 22 -64 27 -83 28 -140 5z m128 -203 c20 -9 79 -19 130 -23 165
-13 147 163 147 -1461 0 -1400 0 -1400 -28 -1427 -48 -48 -3170 -43 -3272 5
-70 33 -116 69 -138 107 -9 15 -14 359 -18 1320 -4 715 -10 1321 -14 1347 -8
55 19 90 76 102 18 3 680 6 1473 6 1383 1 1443 2 1491 20 63 23 106 24 153 4z
m676 -248 c48 -22 98 -56 146 -100 53 -49 103 -83 183 -123 93 -46 125 -69
208 -148 54 -52 121 -106 150 -121 29 -14 96 -68 150 -120 54 -51 121 -105
150 -120 29 -14 96 -68 149 -119 56 -53 122 -106 158 -125 158 -84 219 -192
167 -296 -34 -69 -459 -492 -530 -527 -76 -38 -136 -97 -179 -176 -48 -86
-167 -206 -246 -246 -38 -19 -103 -75 -211 -181 -221 -217 -373 -284 -456
-201 -41 41 -45 2568 -4 2611 34 36 76 34 165 -8z m-4068 -81 c21 -52 21
-2138 0 -2190 -25 -60 -122 -40 -236 49 -30 24 -74 53 -98 65 -24 12 -75 51
-114 87 -39 36 -89 74 -112 85 -22 12 -66 40 -96 64 -30 23 -75 52 -99 65 -25
12 -88 64 -142 116 -55 52 -121 105 -151 120 -66 33 -253 214 -279 269 -24 51
-24 119 0 170 27 59 272 296 341 330 44 22 131 103 420 391 388 386 420 412
513 413 34 1 39 -3 53 -34z"/>
<path d="M7799 5161 c-51 -17 -76 -36 -194 -151 -78 -76 -139 -127 -175 -145
-41 -20 -111 -83 -270 -240 -160 -158 -229 -220 -270 -240 -42 -21 -114 -86
-300 -270 -186 -184 -258 -249 -300 -270 -41 -20 -108 -80 -258 -229 -249
-246 -256 -255 -286 -352 -13 -44 -31 -97 -40 -119 -19 -51 -23 -395 -4 -459
16 -55 152 -193 228 -231 36 -18 99 -70 181 -150 80 -78 145 -133 179 -150 30
-15 96 -68 151 -121 55 -52 121 -105 151 -120 33 -17 99 -72 179 -149 80 -78
145 -133 179 -150 30 -15 96 -68 151 -121 54 -51 121 -105 149 -119 28 -14 82
-55 121 -90 49 -45 104 -82 180 -121 70 -36 132 -76 174 -114 116 -105 -16
-95 1185 -95 1055 0 1055 0 1110 25 54 24 60 25 300 25 240 0 246 -1 300 -25
55 -25 55 -25 510 -25 511 0 509 0 669 118 36 27 109 71 162 97 64 33 119 70
167 114 39 36 95 77 124 92 39 19 119 91 298 269 159 158 261 250 290 265 68
34 126 85 170 151 25 36 68 79 113 113 39 29 178 161 308 292 264 268 259 260
259 407 0 47 7 115 15 151 14 59 14 73 0 132 -8 36 -15 90 -15 121 0 110 -8
123 -194 309 -126 126 -186 179 -226 199 -39 20 -101 73 -210 180 -106 104
-173 161 -209 180 -31 15 -97 67 -152 121 -55 52 -121 105 -151 120 -33 17
-99 72 -179 149 -80 78 -145 133 -179 150 -30 15 -96 68 -151 121 -54 51 -121
105 -149 119 -29 15 -80 53 -115 85 -102 95 -102 95 -315 95 -176 0 -188 -1
-240 -25 -55 -25 -55 -25 -1560 -25 -1505 0 -1505 0 -1617 53 -116 55 -189 71
-244 53z m107 -201 c115 -44 32 -221 -125 -266 -94 -27 -108 -39 -356 -284
-183 -181 -253 -244 -295 -265 -57 -28 -748 -702 -807 -787 -72 -104 -2 -229
177 -318 91 -45 124 -72 170 -140 44 -64 102 -116 169 -150 25 -12 88 -64 142
-116 55 -52 121 -105 151 -120 33 -17 99 -72 179 -149 81 -80 145 -133 180
-150 37 -19 104 -76 209 -179 85 -83 178 -167 205 -186 61 -43 66 -69 15 -87
-98 -35 -236 24 -379 161 -56 53 -123 107 -153 122 -33 17 -99 72 -179 149
-81 79 -145 133 -180 150 -37 19 -103 76 -209 180 -106 104 -173 161 -209 180
-31 15 -97 67 -152 121 -54 51 -121 105 -149 119 -28 14 -82 54 -120 89 -38
35 -93 77 -123 94 -100 56 -134 132 -93 210 27 52 278 288 336 317 42 21 114
86 300 270 186 184 258 249 300 270 41 21 110 82 270 240 159 157 229 220 270
240 36 18 96 69 176 147 145 142 199 168 280 138z m3736 -60 c23 -7 65 -36
107 -75 39 -35 94 -76 122 -91 29 -14 96 -68 150 -120 55 -52 121 -105 151
-120 33 -17 99 -72 179 -149 80 -78 145 -133 179 -150 30 -15 96 -68 151 -121
55 -52 121 -105 151 -120 36 -18 103 -76 208 -179 107 -105 172 -161 210 -180
206 -104 284 -274 162 -356 -26 -18 -155 -139 -287 -269 -181 -180 -253 -244
-295 -265 -41 -21 -110 -82 -270 -240 -155 -154 -230 -220 -268 -239 -30 -15
-96 -67 -151 -120 -54 -52 -121 -106 -149 -120 -68 -35 -115 -77 -164 -149
-46 -68 -82 -87 -160 -86 -127 1 -156 40 -73 99 28 19 174 157 325 306 208
205 288 278 329 299 35 18 98 70 180 150 75 72 147 133 176 148 75 38 131 91
175 167 43 73 79 109 143 142 138 70 199 217 155 372 -16 58 -386 430 -468
471 -36 18 -98 70 -181 150 -80 78 -145 133 -179 150 -30 15 -96 68 -151 121
-55 52 -121 105 -151 120 -33 17 -97 70 -173 144 -125 122 -150 140 -225 160
-117 31 -178 121 -102 149 36 13 148 13 194 1z m-545 -59 c18 -5 72 -38 119
-72 111 -81 117 -93 112 -255 -5 -202 209 -179 -1638 -179 -1851 0 -1633 -25
-1638 187 -5 182 47 284 162 317 42 12 2841 14 2883 2z m657 -440 c77 -75 143
-129 176 -146 30 -15 96 -68 151 -121 55 -52 121 -105 151 -120 33 -17 99 -72
178 -149 83 -80 146 -132 186 -154 85 -45 267 -230 283 -286 22 -79 7 -150
-40 -189 -58 -49 -89 -37 -210 80 -48 45 -111 95 -140 110 -37 18 -104 75
-209 179 -106 104 -173 161 -209 180 -31 15 -97 67 -152 121 -55 52 -121 105
-151 120 -147 74 -237 203 -238 337 0 204 46 212 224 38z m-3934 54 c29 -31
39 -125 20 -195 -16 -63 -489 -541 -584 -591 -46 -24 -114 -84 -276 -245 -221
-218 -243 -234 -320 -234 -83 0 -150 52 -150 118 0 49 533 590 634 643 47 25
116 86 296 264 296 292 318 306 380 240z m3585 -336 c30 -8 70 -41 165 -134
81 -78 146 -133 180 -150 30 -15 96 -68 151 -121 55 -52 121 -105 151 -120 36
-18 104 -76 208 -179 112 -109 173 -161 218 -185 120 -64 174 -149 138 -218
-28 -53 -328 -338 -386 -367 -42 -21 -118 -90 -330 -300 -201 -199 -289 -280
-326 -298 -28 -14 -83 -55 -122 -91 -98 -90 -80 -87 -586 -84 -434 3 -434 3
-502 51 -98 67 -100 67 -464 67 -364 0 -366 0 -464 -67 -103 -72 -1187 -76
-1283 -5 -32 23 -107 67 -168 98 -103 53 -119 66 -265 209 -107 105 -172 161
-210 180 -36 18 -99 71 -180 150 -82 79 -146 132 -185 153 -90 48 -303 264
-312 315 -8 49 320 389 431 448 46 24 114 84 276 244 148 147 230 220 265 238
28 14 83 55 124 91 40 36 88 70 105 75 47 14 3321 14 3371 0z m2071 -1134 c21
-52 19 -199 -5 -250 -28 -60 -332 -356 -401 -390 -44 -22 -131 -102 -420 -390
-272 -271 -378 -369 -416 -388 -27 -14 -85 -57 -127 -96 -111 -100 -182 -117
-206 -50 -18 52 -13 178 8 224 28 60 331 355 401 390 41 21 110 82 270 240
160 158 229 220 270 240 42 21 113 86 296 266 271 269 296 285 330 204z
m-7433 -49 c31 -13 87 -53 127 -90 40 -37 95 -79 123 -93 28 -14 94 -67 148
-119 55 -52 121 -105 151 -120 36 -18 103 -76 208 -179 107 -105 172 -161 210
-180 36 -18 99 -71 180 -150 83 -80 146 -132 186 -154 85 -45 267 -230 283
-286 62 -224 -74 -270 -269 -91 -40 37 -95 79 -123 93 -28 14 -94 67 -148 119
-55 52 -121 105 -151 120 -33 17 -99 72 -179 149 -80 78 -145 133 -179 150
-30 15 -96 68 -151 121 -55 52 -121 105 -151 120 -33 17 -98 70 -173 144 -66
64 -142 131 -168 149 -61 42 -77 78 -77 176 0 145 36 173 153 121z m3333
-1319 c98 -67 100 -67 464 -67 364 0 366 0 464 67 107 75 1004 75 1112 1 78
-53 112 -68 156 -68 93 0 122 -50 116 -201 -4 -106 -14 -130 -72 -173 -47 -36
-917 -32 -996 4 -54 24 -60 25 -300 25 -240 0 -246 -1 -300 -25 -78 -35 -2037
-45 -2115 -11 -54 24 -63 51 -47 131 7 31 12 80 12 108 0 88 17 115 94 145 36
14 89 42 116 62 74 55 62 54 666 52 562 -2 562 -2 630 -50z"/>
<path d="M9409 3296 c-130 -47 -268 -230 -261 -345 2 -30 278 -311 342 -349
61 -36 447 -42 510 -8 58 32 160 137 203 211 22 38 55 89 74 113 63 83 45 130
-103 273 -124 120 -101 114 -439 116 -220 2 -299 0 -326 -11z m542 -446 c10
-6 19 -19 19 -30 0 -34 -32 -40 -224 -40 -215 0 -291 22 -230 67 22 16 405 18
435 3z"/>
</g>
</svg>
