<?xml version="1.0" standalone="no"?>
<!DOCTYPE svg PUBLIC "-//W3C//DTD SVG 20010904//EN"
 "http://www.w3.org/TR/2001/REC-SVG-20010904/DTD/svg10.dtd">
<svg version="1.0" xmlns="http://www.w3.org/2000/svg"
 width="1920.000000pt" height="1920.000000pt" viewBox="0 0 1920.000000 1920.000000"
 preserveAspectRatio="xMidYMid meet">
<metadata>
Created by potrace 1.16, written by Peter Selinger 2001-2019
</metadata>
<g transform="translate(0.000000,1920.000000) scale(0.100000,-0.100000)"
fill="#f97316" stroke="none">
<path d="M13065 16156 c-99 -29 -311 -134 -385 -191 -30 -24 -179 -105 -330
-180 -151 -76 -300 -157 -330 -180 -30 -24 -125 -78 -210 -120 -85 -43 -180
-97 -210 -120 -30 -24 -98 -64 -150 -90 -52 -26 -120 -67 -150 -90 -30 -24
-125 -78 -210 -120 -85 -43 -180 -97 -210 -120 -30 -24 -98 -64 -150 -90 -52
-26 -120 -67 -150 -90 -30 -24 -98 -64 -150 -90 -52 -26 -120 -67 -150 -90
-30 -24 -125 -78 -210 -120 -85 -43 -180 -97 -210 -120 -30 -24 -98 -64 -150
-90 -52 -26 -120 -67 -150 -90 -30 -24 -152 -91 -270 -150 -118 -59 -240 -127
-270 -150 -30 -24 -98 -64 -150 -90 -52 -26 -120 -67 -150 -90 -30 -24 -98
-64 -150 -90 -52 -26 -120 -67 -150 -90 -30 -24 -125 -78 -210 -120 -85 -43
-180 -97 -210 -120 -30 -24 -98 -64 -150 -90 -52 -26 -120 -67 -150 -90 -30
-24 -98 -64 -150 -90 -52 -26 -120 -67 -150 -90 -30 -24 -125 -78 -210 -120
-85 -43 -180 -97 -210 -120 -30 -24 -125 -78 -210 -120 -85 -43 -180 -97 -210
-120 -30 -24 -125 -78 -210 -120 -85 -43 -180 -97 -210 -120 -30 -24 -98 -64
-150 -90 -52 -26 -120 -67 -150 -90 -30 -24 -125 -78 -210 -120 -85 -43 -180
-97 -210 -120 -30 -24 -125 -78 -210 -120 -85 -43 -180 -97 -210 -120 -30 -24
-125 -78 -210 -120 -85 -43 -180 -97 -210 -120 -30 -24 -98 -64 -150 -90 -52
-26 -120 -67 -150 -90 -30 -24 -98 -64 -150 -90 -52 -26 -120 -67 -150 -90
-30 -24 -125 -78 -210 -120 -85 -43 -180 -97 -210 -120 -30 -24 -98 -64 -150
-90 -52 -26 -120 -67 -150 -90 -30 -24 -125 -78 -210 -120 -85 -43 -180 -97
-210 -120 -30 -24 -98 -64 -150 -90 -52 -26 -120 -67 -150 -90 -30 -24 -125
-78 -210 -120 -85 -43 -180 -97 -210 -120 -30 -24 -98 -64 -150 -90 -52 -26
-120 -67 -150 -90 -30 -24 -98 -64 -150 -90 -52 -26 -120 -67 -150 -90 -30
-24 -152 -91 -270 -150 -118 -59 -240 -127 -270 -150 -30 -24 -71 -51 -90 -60
-19 -10 -60 -37 -90 -60 -30 -24 -125 -78 -210 -120 -85 -43 -180 -97 -210
-120 -30 -24 -75 -53 -99 -65 -100 -50 -171 -148 -171 -237 0 -18 -14 -74 -30
-124 -45 -134 -43 -873 1 -949 35 -59 204 -222 260 -250 24 -12 69 -41 99 -65
30 -23 74 -52 96 -63 90 -46 109 -95 74 -195 -24 -67 -29 -338 -8 -411 22 -79
269 -312 398 -376 58 -29 130 -71 160 -95 30 -23 128 -79 218 -124 131 -66
176 -94 234 -147 61 -56 102 -81 292 -176 122 -60 246 -129 276 -153 30 -23
98 -64 150 -90 52 -26 120 -66 150 -90 30 -23 125 -77 210 -120 85 -42 180
-96 210 -120 30 -23 71 -50 90 -60 19 -9 60 -36 90 -60 30 -23 152 -91 270
-150 118 -59 240 -126 270 -150 30 -23 71 -50 90 -60 19 -9 60 -36 90 -60 30
-23 98 -64 150 -90 52 -26 120 -66 150 -90 30 -23 98 -64 150 -90 52 -26 120
-66 150 -90 30 -23 98 -64 150 -90 52 -26 120 -66 150 -90 30 -23 125 -77 210
-120 85 -42 180 -96 210 -120 30 -23 152 -91 270 -150 118 -59 241 -127 272
-151 200 -156 320 -161 598 -24 106 52 218 115 249 138 31 24 101 67 156 94
55 28 125 70 155 93 30 24 125 78 210 120 85 43 180 97 210 120 30 24 98 64
150 90 52 26 120 67 150 90 30 24 125 78 210 120 85 43 180 97 210 120 30 24
98 64 150 90 52 26 120 67 150 90 30 24 98 64 150 90 52 26 120 67 150 90 30
24 125 78 210 120 85 43 180 97 210 120 30 24 98 64 150 90 52 26 120 67 150
90 30 24 125 78 210 120 85 43 180 97 210 120 30 24 98 64 150 90 52 26 120
67 150 90 30 24 98 64 150 90 52 26 120 67 150 90 30 24 98 64 150 90 52 26
120 67 150 90 30 24 125 78 210 120 85 43 180 97 210 120 30 24 98 64 150 90
52 26 120 67 150 90 30 24 125 78 210 120 85 43 180 97 210 120 30 24 98 64
150 90 52 26 120 67 150 90 30 24 125 78 210 120 85 43 180 97 210 120 30 24
98 64 150 90 52 26 120 67 150 90 30 24 98 64 150 90 52 26 120 67 150 90 30
24 125 78 210 120 85 43 180 97 210 120 30 24 125 78 210 120 85 43 180 97
210 120 30 24 71 51 90 60 19 10 60 37 90 60 30 24 125 78 210 120 85 43 180
97 210 120 30 24 98 64 150 90 52 26 120 67 150 90 30 24 125 78 210 120 85
43 180 97 210 120 30 24 71 51 90 60 19 10 60 37 90 60 30 24 125 78 210 120
85 43 180 97 210 120 30 24 125 78 210 120 85 43 180 97 210 120 30 24 98 64
150 90 52 26 120 67 150 90 30 24 98 64 150 90 52 26 120 67 150 90 30 24 152
91 270 150 118 59 240 127 270 150 30 24 71 51 90 60 19 10 58 36 87 57 30 23
80 48 117 59 39 12 88 37 123 63 32 24 101 65 153 91 52 26 120 67 150 90 30
24 74 53 98 64 56 28 185 151 209 199 16 32 19 71 23 304 6 315 0 298 132 368
47 25 109 64 139 86 30 23 74 52 99 64 72 36 265 235 279 288 25 91 10 738
-18 796 -13 28 -27 82 -32 123 -16 142 -118 297 -234 355 -22 11 -65 39 -95
63 -30 23 -71 50 -90 60 -19 9 -60 36 -90 60 -30 23 -125 77 -210 120 -85 42
-180 96 -210 120 -30 23 -98 64 -150 90 -52 26 -120 66 -150 90 -30 23 -98 64
-150 90 -52 26 -120 66 -150 90 -30 23 -98 64 -150 90 -52 26 -120 66 -150 90
-30 23 -71 50 -90 60 -19 10 -61 37 -93 61 -35 26 -84 51 -123 63 -37 11 -87
36 -117 59 -29 21 -68 47 -87 57 -19 9 -60 36 -90 60 -30 23 -98 64 -150 90
-52 26 -120 66 -150 90 -30 23 -98 64 -150 90 -52 26 -120 66 -150 90 -30 23
-98 64 -150 90 -52 26 -120 66 -150 90 -30 23 -125 77 -210 120 -85 42 -180
96 -210 120 -30 23 -71 50 -90 60 -19 9 -60 36 -90 60 -30 23 -125 77 -210
120 -85 42 -180 96 -210 120 -30 23 -98 64 -150 90 -52 26 -120 66 -150 90
-30 23 -98 64 -150 90 -52 26 -120 66 -150 90 -30 23 -125 77 -210 120 -85 42
-180 96 -210 120 -112 86 -413 217 -495 214 -11 0 -56 -11 -100 -23z m202
-201 c108 -29 295 -119 373 -180 30 -23 125 -77 210 -120 85 -42 180 -96 210
-120 30 -23 98 -64 150 -90 52 -26 120 -66 150 -90 30 -23 98 -64 150 -90 52
-26 120 -66 150 -90 30 -23 125 -77 210 -120 85 -42 180 -96 210 -120 30 -23
71 -50 90 -60 19 -9 60 -36 90 -60 30 -23 125 -77 210 -120 85 -42 180 -96
210 -120 30 -23 98 -64 150 -90 52 -26 120 -66 150 -90 30 -23 98 -64 150 -90
52 -26 120 -66 150 -90 30 -23 98 -64 150 -90 52 -26 120 -66 150 -90 30 -23
71 -50 90 -60 19 -10 61 -37 93 -61 35 -26 84 -51 123 -63 37 -11 87 -36 117
-59 29 -21 68 -47 87 -57 19 -9 60 -36 90 -60 30 -23 98 -64 150 -90 52 -26
120 -66 150 -90 30 -23 98 -64 150 -90 52 -26 120 -66 150 -90 30 -23 98 -64
150 -90 52 -26 120 -66 150 -90 30 -23 125 -77 210 -120 85 -42 180 -96 210
-119 30 -24 79 -55 107 -71 62 -33 169 -140 179 -179 10 -42 -17 -70 -128
-126 -57 -29 -128 -72 -158 -96 -30 -23 -125 -77 -210 -119 -85 -43 -180 -97
-210 -120 -30 -24 -98 -64 -150 -90 -52 -26 -120 -67 -150 -90 -30 -24 -125
-78 -210 -120 -85 -43 -180 -97 -210 -120 -30 -24 -125 -78 -210 -120 -85 -43
-180 -97 -210 -120 -30 -24 -98 -64 -150 -90 -52 -26 -120 -67 -150 -90 -30
-24 -98 -64 -150 -90 -52 -26 -120 -67 -150 -90 -30 -24 -125 -78 -210 -120
-85 -43 -180 -97 -210 -120 -30 -24 -98 -64 -150 -90 -52 -26 -120 -67 -150
-90 -30 -24 -125 -78 -210 -120 -85 -43 -180 -97 -210 -120 -30 -24 -98 -64
-150 -90 -52 -26 -120 -67 -150 -90 -30 -24 -98 -64 -150 -90 -52 -26 -120
-67 -150 -90 -30 -24 -125 -78 -210 -120 -85 -43 -180 -97 -210 -120 -30 -24
-125 -78 -210 -120 -85 -43 -180 -97 -210 -120 -30 -24 -98 -64 -150 -90 -52
-26 -120 -67 -150 -90 -30 -24 -125 -78 -210 -120 -85 -43 -180 -97 -210 -120
-30 -24 -71 -51 -90 -60 -19 -10 -60 -37 -90 -60 -30 -24 -125 -78 -210 -120
-85 -43 -180 -97 -210 -120 -30 -24 -125 -78 -210 -120 -85 -43 -180 -97 -210
-120 -30 -24 -71 -51 -90 -60 -19 -10 -60 -37 -90 -60 -30 -24 -125 -78 -210
-120 -85 -43 -180 -97 -210 -120 -30 -24 -152 -91 -270 -150 -118 -59 -240
-127 -270 -150 -30 -24 -71 -51 -90 -60 -19 -10 -60 -37 -90 -60 -30 -24 -125
-78 -210 -120 -85 -43 -180 -97 -210 -120 -30 -24 -125 -78 -210 -120 -85 -43
-180 -97 -210 -120 -30 -24 -71 -51 -90 -60 -19 -10 -60 -37 -90 -60 -30 -24
-125 -78 -210 -120 -85 -43 -180 -97 -210 -120 -30 -24 -125 -78 -210 -120
-85 -43 -180 -97 -210 -120 -30 -24 -125 -78 -210 -120 -85 -43 -180 -97 -210
-120 -30 -24 -71 -51 -90 -60 -19 -10 -60 -37 -90 -60 -30 -24 -152 -91 -270
-150 -118 -59 -240 -127 -270 -150 -30 -24 -98 -64 -150 -90 -52 -26 -120 -67
-150 -90 -30 -24 -125 -78 -210 -120 -85 -43 -180 -97 -210 -120 -30 -24 -98
-64 -150 -90 -52 -26 -120 -67 -150 -90 -30 -24 -97 -64 -149 -90 -52 -26
-121 -68 -155 -93 -125 -96 -164 -107 -376 -107 -212 0 -251 11 -376 107 -34
25 -103 67 -155 93 -52 26 -119 66 -149 90 -30 23 -125 77 -210 120 -85 42
-180 96 -210 120 -30 23 -125 77 -210 120 -85 42 -180 96 -210 120 -30 23 -98
64 -150 90 -52 26 -120 66 -150 90 -30 23 -71 50 -90 60 -19 9 -60 36 -90 60
-30 23 -125 77 -210 120 -85 42 -180 96 -210 120 -30 23 -98 64 -150 90 -52
26 -120 66 -150 90 -30 23 -98 64 -150 90 -52 26 -120 66 -150 90 -30 23 -98
64 -150 90 -52 26 -120 66 -150 90 -30 23 -125 77 -210 120 -85 42 -180 96
-210 120 -30 23 -71 50 -90 60 -19 9 -60 36 -90 60 -30 23 -125 77 -210 120
-85 42 -180 96 -210 120 -30 23 -125 77 -210 120 -85 42 -180 96 -210 120 -30
23 -71 50 -90 60 -19 9 -60 36 -90 60 -30 23 -125 77 -210 120 -85 42 -180 96
-210 119 -30 24 -101 66 -157 95 -236 121 -208 208 119 372 90 45 188 101 218
124 30 24 71 51 90 60 19 10 60 37 90 60 30 24 152 91 270 150 118 59 240 127
270 150 30 24 98 64 150 90 52 26 120 67 150 90 30 24 98 64 150 90 52 26 120
67 150 90 30 24 125 78 210 120 85 43 180 97 210 120 30 24 98 64 150 90 52
26 120 67 150 90 30 24 125 78 210 120 85 43 180 97 210 120 30 24 98 64 150
90 52 26 120 67 150 90 30 24 125 78 210 120 85 43 180 97 210 120 30 24 98
64 150 90 52 26 120 67 150 90 30 24 98 64 150 90 52 26 120 67 150 90 30 24
125 78 210 120 85 43 180 97 210 120 30 24 125 78 210 120 85 43 180 97 210
120 30 24 125 78 210 120 85 43 180 97 210 120 30 24 98 64 150 90 52 26 120
67 150 90 30 24 125 78 210 120 85 43 180 97 210 120 30 24 125 78 210 120 85
43 180 97 210 120 30 24 125 78 210 120 85 43 180 97 210 120 30 24 98 64 150
90 52 26 120 67 150 90 30 24 98 64 150 90 52 26 120 67 150 90 30 24 125 78
210 120 85 43 180 97 210 120 30 24 98 64 150 90 52 26 120 67 150 90 30 24
98 64 150 90 52 26 120 67 150 90 30 24 152 91 270 150 118 59 240 127 270
150 30 24 98 64 150 90 52 26 120 67 150 90 30 24 125 78 210 120 85 43 180
97 210 120 30 24 98 64 150 90 52 26 120 67 150 90 30 24 98 64 150 90 52 26
120 67 150 90 30 24 125 78 210 120 85 43 180 97 210 120 30 24 98 64 150 90
52 26 120 67 150 90 30 24 125 78 210 120 85 43 180 97 210 120 30 24 179 105
330 180 151 76 300 157 330 180 76 60 264 151 368 180 108 29 91 29 199 0z
m5609 -3610 c18 -43 21 -665 3 -712 -14 -38 -56 -81 -104 -105 -22 -12 -65
-40 -95 -63 -30 -24 -100 -65 -155 -93 -68 -34 -124 -71 -174 -116 -61 -54
-85 -69 -141 -86 -43 -13 -90 -37 -127 -64 -32 -24 -101 -65 -153 -91 -52 -26
-120 -67 -150 -90 -30 -24 -125 -78 -210 -120 -85 -43 -180 -97 -210 -120 -30
-24 -98 -64 -150 -90 -52 -26 -120 -67 -150 -90 -30 -24 -125 -78 -210 -120
-85 -43 -180 -97 -210 -120 -30 -24 -125 -78 -210 -120 -85 -43 -180 -97 -210
-120 -30 -24 -125 -78 -210 -120 -85 -43 -180 -97 -210 -120 -30 -24 -98 -64
-150 -90 -52 -26 -120 -67 -150 -90 -30 -24 -98 -64 -150 -90 -52 -26 -120
-67 -150 -90 -30 -24 -152 -91 -270 -150 -118 -59 -240 -127 -270 -150 -30
-24 -71 -51 -90 -60 -19 -10 -60 -37 -90 -60 -30 -24 -125 -78 -210 -120 -85
-43 -180 -97 -210 -120 -30 -24 -98 -64 -150 -90 -52 -26 -120 -67 -150 -90
-30 -24 -125 -78 -210 -120 -85 -43 -180 -97 -210 -120 -30 -24 -125 -78 -210
-120 -85 -43 -180 -97 -210 -120 -30 -24 -98 -64 -150 -90 -52 -26 -120 -67
-150 -90 -30 -24 -125 -78 -210 -120 -85 -43 -180 -97 -210 -120 -30 -24 -98
-64 -150 -90 -52 -26 -120 -67 -150 -90 -30 -24 -98 -64 -150 -90 -52 -26
-120 -67 -150 -90 -30 -24 -125 -78 -210 -120 -85 -43 -180 -97 -210 -120 -30
-24 -98 -64 -150 -90 -52 -26 -120 -67 -150 -90 -30 -24 -125 -78 -210 -120
-85 -43 -180 -97 -210 -120 -30 -24 -98 -64 -150 -90 -52 -26 -120 -67 -150
-90 -30 -24 -98 -64 -150 -90 -52 -26 -120 -67 -150 -90 -30 -24 -98 -64 -150
-90 -52 -26 -120 -67 -150 -90 -30 -24 -98 -64 -150 -90 -52 -26 -120 -67
-150 -90 -30 -24 -125 -78 -210 -120 -85 -43 -180 -97 -210 -120 -30 -24 -125
-78 -210 -120 -85 -43 -180 -97 -210 -120 -30 -24 -98 -64 -150 -90 -52 -26
-120 -67 -150 -90 -30 -24 -125 -78 -210 -120 -85 -43 -180 -97 -210 -120 -30
-24 -98 -64 -150 -90 -52 -26 -120 -67 -150 -90 -30 -24 -98 -64 -150 -90 -52
-26 -120 -67 -150 -90 -30 -24 -97 -64 -149 -90 -52 -26 -122 -68 -155 -93
-113 -86 -537 -286 -607 -287 -114 0 -114 -2 -117 390 -3 391 -3 392 74 420
94 33 188 80 243 123 31 24 101 67 156 94 55 28 125 70 155 93 30 24 98 64
150 90 52 26 120 67 150 90 30 24 125 78 210 120 85 43 180 97 210 120 30 24
98 64 150 90 52 26 120 67 150 90 30 24 152 91 270 150 118 59 240 127 270
150 30 24 71 51 90 60 19 10 60 37 90 60 30 24 125 78 210 120 85 43 180 97
210 120 30 24 125 78 210 120 85 43 180 97 210 120 30 24 125 78 210 120 85
43 180 97 210 120 30 24 71 51 90 60 19 10 60 37 90 60 30 24 125 78 210 120
85 43 180 97 210 120 30 24 125 78 210 120 85 43 180 97 210 120 30 24 71 51
90 60 19 10 60 37 90 60 30 24 152 91 270 150 118 59 240 127 270 150 30 24
125 78 210 120 85 43 180 97 210 120 30 24 71 51 90 60 19 10 60 37 90 60 30
24 125 78 210 120 85 43 180 97 210 120 30 24 125 78 210 120 85 43 180 97
210 120 30 24 71 51 90 60 19 10 60 37 90 60 30 24 125 78 210 120 85 43 180
97 210 120 30 24 98 64 150 90 52 26 120 67 150 90 30 24 125 78 210 120 85
43 180 97 210 120 30 24 125 78 210 120 85 43 180 97 210 120 30 24 98 64 150
90 52 26 120 67 150 90 30 24 98 64 150 90 52 26 120 67 150 90 30 24 125 78
210 120 85 43 180 97 210 120 30 24 98 64 150 90 52 26 120 67 150 90 30 24
125 78 210 120 85 43 180 97 210 120 30 24 98 64 150 90 52 26 120 67 150 90
30 24 98 64 150 90 52 26 120 67 150 90 30 24 125 78 210 120 85 43 180 97
210 120 30 24 125 78 210 120 85 43 180 97 210 120 30 24 98 64 150 90 52 26
120 67 150 90 30 24 125 78 210 120 85 43 180 97 210 121 150 117 329 173 356
109z m-660 -1440 c17 -42 20 -286 3 -334 -15 -42 -163 -153 -288 -216 -52 -26
-118 -65 -147 -87 -31 -23 -80 -48 -118 -59 -39 -12 -88 -37 -123 -63 -32 -24
-74 -51 -93 -61 -19 -10 -60 -37 -90 -60 -30 -24 -152 -91 -270 -150 -118 -59
-240 -127 -270 -150 -30 -24 -98 -64 -150 -90 -52 -26 -120 -67 -150 -90 -30
-24 -98 -64 -150 -90 -52 -26 -120 -67 -150 -90 -30 -24 -125 -78 -210 -120
-85 -43 -180 -97 -210 -120 -30 -24 -125 -78 -210 -120 -85 -43 -180 -97 -210
-120 -30 -24 -71 -51 -90 -60 -19 -10 -60 -37 -90 -60 -30 -24 -125 -78 -210
-120 -85 -43 -180 -97 -210 -120 -30 -24 -98 -64 -150 -90 -52 -26 -120 -67
-150 -90 -30 -24 -125 -78 -210 -120 -85 -43 -180 -97 -210 -120 -30 -24 -71
-51 -90 -60 -19 -10 -60 -37 -90 -60 -30 -24 -125 -78 -210 -120 -85 -43 -180
-97 -210 -120 -30 -24 -125 -78 -210 -120 -85 -43 -180 -97 -210 -120 -30 -24
-98 -64 -150 -90 -52 -26 -120 -67 -150 -90 -30 -24 -98 -64 -150 -90 -52 -26
-120 -67 -150 -90 -30 -24 -125 -78 -210 -120 -85 -43 -180 -97 -210 -120 -30
-24 -98 -64 -150 -90 -52 -26 -120 -67 -150 -90 -30 -24 -125 -78 -210 -120
-85 -43 -180 -97 -210 -120 -30 -24 -98 -64 -150 -90 -52 -26 -120 -67 -150
-90 -30 -24 -125 -78 -210 -120 -85 -43 -180 -97 -210 -120 -30 -24 -98 -64
-150 -90 -52 -26 -120 -67 -150 -90 -30 -24 -98 -64 -150 -90 -52 -26 -120
-67 -150 -90 -30 -24 -98 -64 -150 -90 -52 -26 -120 -67 -150 -90 -30 -24
-125 -78 -210 -120 -85 -43 -180 -97 -210 -120 -30 -24 -98 -64 -150 -90 -52
-26 -120 -67 -150 -90 -30 -24 -125 -78 -210 -120 -85 -43 -180 -97 -210 -120
-30 -24 -98 -64 -150 -90 -52 -26 -120 -67 -150 -90 -30 -24 -98 -64 -150 -90
-52 -26 -120 -67 -150 -90 -30 -24 -125 -78 -210 -120 -85 -43 -180 -97 -210
-120 -30 -24 -98 -64 -150 -90 -52 -26 -120 -67 -150 -90 -30 -24 -125 -78
-210 -120 -85 -43 -180 -97 -210 -120 -30 -24 -97 -64 -149 -90 -52 -26 -122
-68 -155 -93 -34 -26 -144 -87 -245 -137 -266 -130 -380 -127 -567 17 -34 26
-158 95 -275 153 -118 59 -239 126 -269 150 -30 23 -125 77 -210 120 -85 42
-180 96 -210 120 -30 23 -98 64 -150 90 -52 26 -120 66 -150 90 -30 23 -98 64
-150 90 -52 26 -120 66 -150 90 -30 23 -98 64 -150 90 -52 26 -120 66 -150 90
-30 23 -71 50 -90 60 -19 9 -60 36 -90 60 -30 23 -152 91 -270 150 -118 59
-240 126 -270 150 -30 23 -71 50 -90 60 -19 9 -60 36 -90 60 -30 23 -125 77
-210 120 -85 42 -180 96 -210 120 -30 23 -98 64 -150 90 -52 26 -120 66 -150
90 -30 23 -155 93 -278 154 -191 96 -232 120 -294 177 -58 53 -102 81 -232
146 -89 44 -186 99 -216 123 -30 23 -101 66 -158 94 -202 101 -231 148 -232
364 0 212 17 243 116 207 87 -30 317 -151 374 -195 30 -23 71 -50 90 -60 19
-9 60 -36 90 -60 30 -23 125 -77 210 -120 85 -42 180 -96 210 -120 30 -23 98
-64 150 -90 52 -26 120 -66 150 -90 30 -23 98 -64 150 -90 52 -26 120 -66 150
-90 30 -23 98 -64 150 -90 52 -26 120 -66 150 -90 30 -23 98 -64 150 -90 52
-26 120 -66 150 -90 30 -23 98 -64 150 -90 52 -26 120 -66 150 -90 30 -23 125
-77 210 -120 85 -42 180 -96 210 -120 30 -23 98 -64 150 -90 52 -26 120 -66
150 -90 30 -23 71 -50 90 -60 19 -9 60 -36 90 -60 30 -23 125 -77 210 -120 85
-42 180 -96 210 -120 30 -23 71 -50 90 -60 19 -9 60 -36 90 -60 30 -23 154
-92 275 -153 121 -60 245 -130 276 -154 169 -132 305 -173 570 -173 247 0 247
0 499 125 139 69 278 145 309 168 31 24 101 67 156 94 55 28 125 70 155 93 30
24 98 64 150 90 52 26 120 67 150 90 30 24 98 64 150 90 52 26 120 67 150 90
30 24 125 78 210 120 85 43 180 97 210 120 30 24 98 64 150 90 52 26 120 67
150 90 30 24 125 78 210 120 85 43 180 97 210 120 30 24 125 78 210 120 85 43
180 97 210 120 30 24 98 64 150 90 52 26 120 67 150 90 30 24 98 64 150 90 52
26 120 67 150 90 30 24 98 64 150 90 52 26 120 67 150 90 30 24 98 64 150 90
52 26 120 67 150 90 30 24 125 78 210 120 85 43 180 97 210 120 30 24 98 64
150 90 52 26 120 67 150 90 30 24 125 78 210 120 85 43 180 97 210 120 30 24
98 64 150 90 52 26 120 67 150 90 30 24 98 64 150 90 52 26 120 67 150 90 30
24 125 78 210 120 85 43 180 97 210 120 30 24 98 64 150 90 52 26 120 67 150
90 30 24 125 78 210 120 85 43 180 97 210 120 30 24 125 78 210 120 85 43 180
97 210 120 30 24 98 64 150 90 52 26 120 67 150 90 30 24 125 78 210 120 85
43 180 97 210 120 30 24 71 51 90 60 19 10 60 37 90 60 30 24 152 91 270 150
118 59 240 127 270 150 30 24 98 64 150 90 52 26 120 67 150 90 30 24 98 64
150 90 52 26 120 67 150 90 30 24 125 78 210 120 85 43 180 97 210 120 30 24
125 78 210 120 85 43 180 97 210 120 30 24 125 78 210 120 85 43 180 97 210
120 30 24 98 64 150 90 52 26 120 67 150 90 30 24 125 78 210 120 85 43 180
97 210 120 30 24 100 66 155 93 55 27 117 64 139 81 56 45 102 43 122 -4z
m-17756 -2716 c58 -27 130 -70 160 -93 30 -24 125 -78 210 -121 85 -42 180
-96 210 -120 30 -23 71 -50 90 -60 19 -9 60 -36 90 -60 30 -23 125 -77 210
-120 85 -42 180 -96 210 -120 30 -23 125 -77 210 -120 85 -42 180 -96 210
-120 30 -23 71 -50 90 -60 19 -9 60 -36 90 -60 30 -23 125 -77 210 -120 85
-42 180 -96 210 -120 30 -23 98 -64 150 -90 52 -26 120 -66 150 -90 30 -23 98
-64 150 -90 52 -26 120 -66 150 -90 30 -23 98 -64 150 -90 52 -26 120 -66 150
-90 30 -23 125 -77 210 -120 85 -42 180 -96 210 -120 30 -23 71 -50 90 -60 19
-9 60 -36 90 -60 30 -23 98 -64 150 -90 52 -26 120 -66 150 -90 30 -23 125
-77 210 -120 85 -42 180 -96 210 -120 30 -23 125 -77 210 -120 85 -42 180 -96
210 -120 30 -23 98 -64 150 -90 52 -26 119 -66 149 -89 30 -22 93 -62 140 -87
135 -72 126 -40 126 -449 0 -395 -1 -400 -84 -400 -47 0 -267 106 -341 164
-30 24 -152 92 -270 151 -118 59 -240 126 -270 150 -30 23 -71 50 -90 60 -19
9 -60 36 -90 60 -30 23 -125 77 -210 120 -85 42 -180 96 -210 120 -30 23 -71
50 -90 60 -19 9 -60 36 -90 60 -30 23 -98 64 -150 90 -52 26 -120 66 -150 90
-30 23 -125 77 -210 120 -85 42 -180 96 -210 120 -30 23 -98 64 -150 90 -52
26 -120 66 -150 90 -30 23 -98 64 -150 90 -52 26 -120 66 -150 90 -30 23 -98
64 -150 90 -52 26 -120 66 -150 90 -30 23 -98 64 -150 90 -52 26 -120 66 -150
90 -30 23 -98 64 -150 90 -52 26 -120 66 -150 90 -30 23 -125 77 -210 120 -85
42 -180 96 -210 120 -30 23 -73 51 -95 63 -22 11 -65 40 -96 64 -67 51 -409
221 -492 243 -47 13 -71 28 -129 81 -39 36 -89 74 -112 85 -22 12 -66 40 -96
64 -30 23 -73 51 -95 63 -111 57 -115 71 -115 458 0 445 0 444 210 343z"/>
<path d="M13005 15596 c-63 -20 -145 -65 -205 -111 -30 -24 -125 -78 -210
-120 -85 -43 -180 -97 -210 -120 -30 -24 -125 -78 -210 -120 -85 -43 -180 -97
-210 -120 -30 -24 -125 -78 -210 -120 -85 -43 -180 -97 -210 -120 -30 -24
-125 -78 -210 -120 -85 -43 -180 -97 -210 -120 -30 -24 -98 -64 -150 -90 -52
-26 -120 -67 -150 -90 -30 -24 -98 -64 -150 -90 -52 -26 -120 -67 -150 -90
-30 -24 -125 -78 -210 -120 -85 -43 -180 -97 -210 -120 -30 -24 -98 -64 -150
-90 -52 -26 -120 -67 -150 -90 -30 -24 -125 -78 -210 -120 -85 -43 -180 -97
-210 -120 -30 -24 -125 -78 -210 -120 -85 -43 -180 -97 -210 -120 -30 -24 -98
-64 -150 -90 -52 -26 -120 -67 -150 -90 -30 -24 -125 -78 -210 -120 -85 -43
-180 -97 -210 -120 -30 -24 -125 -78 -210 -120 -85 -43 -180 -97 -210 -120
-30 -24 -125 -78 -210 -120 -85 -43 -180 -97 -210 -120 -30 -24 -125 -78 -210
-120 -85 -43 -180 -97 -210 -120 -30 -24 -71 -51 -90 -60 -19 -10 -60 -37 -90
-60 -30 -24 -125 -78 -210 -120 -85 -43 -180 -97 -210 -120 -30 -24 -125 -78
-210 -120 -85 -43 -180 -97 -210 -120 -30 -24 -125 -78 -210 -120 -85 -43
-180 -97 -210 -120 -30 -24 -98 -64 -150 -90 -52 -26 -120 -67 -150 -90 -30
-24 -125 -78 -210 -120 -85 -43 -180 -97 -210 -120 -30 -24 -98 -64 -150 -90
-52 -26 -120 -67 -150 -90 -30 -24 -125 -78 -210 -120 -85 -43 -180 -97 -210
-120 -30 -24 -98 -64 -150 -90 -52 -26 -120 -67 -150 -90 -30 -24 -125 -78
-210 -120 -85 -43 -180 -97 -210 -120 -30 -24 -125 -78 -210 -120 -85 -43
-180 -97 -210 -120 -30 -24 -98 -64 -150 -90 -52 -26 -120 -67 -150 -90 -30
-24 -98 -64 -150 -90 -52 -26 -120 -67 -150 -90 -30 -24 -125 -78 -210 -120
-85 -43 -180 -97 -210 -120 -30 -24 -152 -91 -270 -150 -118 -59 -240 -127
-270 -150 -30 -24 -75 -53 -98 -65 -48 -23 -198 -162 -244 -224 -53 -73 -33
-133 79 -237 77 -72 102 -82 233 -89 135 -7 147 -12 199 -88 75 -111 154 -173
342 -268 158 -80 179 -94 264 -174 109 -104 136 -119 229 -131 114 -14 198
-61 316 -174 106 -101 200 -157 321 -190 44 -12 72 -29 130 -81 97 -87 205
-141 305 -154 90 -12 97 -15 181 -91 37 -33 85 -70 107 -81 23 -11 66 -39 96
-63 30 -23 102 -66 160 -96 68 -34 127 -73 166 -110 70 -65 95 -80 178 -104
106 -30 174 -72 277 -171 108 -103 191 -152 314 -186 77 -21 182 -75 232 -119
18 -15 83 -54 145 -85 78 -40 133 -77 181 -121 38 -35 88 -73 111 -85 22 -11
67 -40 99 -64 164 -123 458 -82 644 89 78 72 154 115 249 142 83 24 108 39
179 105 72 67 152 111 252 139 86 23 182 71 253 126 30 24 73 52 95 63 22 11
73 50 114 86 57 51 87 70 130 82 80 23 105 38 176 104 72 67 152 111 252 139
86 23 182 71 253 126 30 24 73 52 95 63 22 11 73 50 114 86 58 52 86 69 130
81 102 28 213 89 289 159 80 73 157 116 259 145 87 23 182 71 253 126 30 24
125 78 210 120 85 43 180 97 210 120 30 24 98 64 150 90 52 26 120 67 150 90
30 24 98 64 150 90 52 26 120 67 150 90 30 24 125 78 210 120 85 43 180 97
210 120 30 24 98 64 150 90 52 26 120 67 150 90 30 24 98 64 150 90 52 26 120
67 150 90 30 24 125 78 210 120 85 43 180 97 210 120 30 24 125 78 210 120 85
43 180 97 210 120 30 24 98 64 150 90 52 26 120 67 150 90 30 24 125 78 210
120 85 43 180 97 210 120 30 24 74 53 98 65 24 11 87 63 141 115 105 100 168
139 288 174 46 14 92 37 130 65 32 24 184 107 338 184 246 123 289 148 354
206 57 51 86 70 130 82 85 25 107 39 207 135 81 77 101 90 151 104 119 32 451
206 532 279 58 52 85 69 130 81 119 33 213 88 320 189 88 83 108 97 158 111
140 38 334 147 442 249 87 82 109 98 158 112 82 23 107 38 178 104 50 46 76
63 122 75 32 9 85 27 118 40 33 13 76 26 95 30 120 25 324 184 422 328 47 69
81 87 165 87 72 1 117 17 182 65 29 20 81 46 118 57 81 24 113 54 113 104 0
44 -170 224 -250 264 -25 12 -70 41 -100 65 -30 23 -98 64 -150 90 -52 26
-120 66 -150 90 -30 23 -98 64 -150 90 -52 26 -120 66 -150 90 -30 23 -125 77
-210 120 -85 42 -180 96 -210 120 -30 23 -71 50 -90 60 -19 9 -60 36 -90 60
-30 23 -125 77 -210 120 -85 42 -180 96 -210 120 -30 23 -125 77 -210 120 -85
42 -180 96 -210 120 -30 23 -71 50 -90 60 -19 9 -60 36 -90 60 -30 23 -125 77
-210 120 -85 42 -180 96 -210 120 -30 23 -98 64 -150 90 -52 26 -120 66 -150
90 -30 23 -98 64 -150 90 -52 26 -120 66 -150 90 -30 23 -98 64 -150 90 -52
26 -120 66 -150 90 -30 23 -98 64 -150 90 -52 26 -120 66 -150 90 -30 23 -125
77 -210 120 -85 42 -181 97 -212 121 -142 110 -382 160 -533 110z m51 -253
c38 -91 -19 -188 -126 -213 -72 -17 -673 -317 -730 -365 -24 -20 -171 -100
-325 -177 -154 -77 -302 -157 -330 -178 -27 -21 -75 -53 -105 -70 -30 -18 -70
-45 -88 -61 -18 -16 -54 -40 -80 -53 -27 -14 -68 -41 -92 -61 -25 -21 -147
-88 -272 -151 -124 -62 -242 -126 -260 -142 -18 -16 -60 -44 -92 -63 -75 -41
-177 -136 -227 -211 -50 -72 -64 -80 -174 -89 -99 -8 -552 -218 -652 -302 -24
-19 -92 -60 -152 -91 -60 -31 -128 -72 -152 -92 -24 -20 -146 -88 -272 -151
-199 -99 -238 -122 -297 -178 -59 -56 -98 -79 -297 -178 -126 -63 -249 -132
-273 -152 -24 -20 -119 -74 -210 -120 -91 -46 -186 -100 -210 -120 -24 -20
-92 -61 -150 -90 -58 -29 -126 -70 -150 -90 -24 -20 -120 -75 -212 -121 -91
-46 -182 -96 -200 -112 -18 -16 -62 -46 -98 -67 -36 -20 -80 -50 -98 -66 -18
-16 -52 -38 -75 -50 -23 -12 -65 -39 -94 -61 -29 -22 -79 -48 -114 -58 -35
-11 -92 -39 -128 -64 -36 -24 -91 -51 -122 -60 -32 -9 -80 -34 -110 -56 -30
-23 -130 -79 -223 -127 -137 -69 -182 -97 -237 -149 -60 -56 -98 -78 -357
-208 -160 -80 -306 -158 -324 -174 -18 -16 -60 -44 -93 -63 -33 -19 -101 -72
-150 -120 -110 -104 -115 -107 -209 -119 -110 -14 -330 -125 -426 -215 -56
-52 -98 -79 -232 -146 -89 -45 -190 -102 -223 -126 -33 -25 -158 -94 -277
-154 -119 -60 -232 -121 -250 -137 -18 -16 -60 -44 -93 -63 -35 -20 -112 -83
-186 -155 -139 -134 -157 -144 -265 -144 -79 0 -116 -13 -189 -68 -33 -24
-105 -67 -160 -94 -95 -48 -110 -60 -285 -233 -238 -234 -279 -257 -464 -263
-232 -8 -291 75 -116 163 19 10 60 37 90 60 30 24 154 93 275 153 121 60 240
126 263 146 24 19 119 74 211 120 92 47 188 101 212 121 24 21 88 60 144 87
55 28 125 70 155 93 30 24 100 66 155 93 56 28 120 66 144 86 23 19 118 74
210 120 92 47 188 101 212 122 24 20 118 73 209 119 91 46 186 100 210 120 24
20 89 60 145 87 55 28 127 71 160 95 33 25 130 80 215 123 86 43 176 95 200
115 24 20 92 61 150 90 58 29 125 69 149 89 23 19 118 74 210 120 92 47 188
101 212 122 24 20 91 60 149 89 58 29 125 69 149 89 23 19 118 74 210 120 92
47 187 101 210 120 23 20 118 74 210 120 92 47 188 101 212 122 24 20 119 74
211 120 91 46 182 96 200 112 18 16 62 46 98 67 36 20 80 50 98 66 18 16 109
67 200 113 92 46 188 101 212 121 24 20 119 74 210 120 91 46 186 100 210 120
24 20 119 74 210 120 91 46 186 100 210 120 24 20 117 73 205 117 88 44 187
101 220 125 33 25 103 67 155 93 53 27 116 65 140 85 24 20 119 74 210 120 91
46 185 99 208 119 24 19 119 74 211 120 92 47 188 101 212 122 24 20 91 60
149 89 58 29 126 70 150 90 24 20 119 74 210 120 91 46 185 99 208 118 23 19
91 60 151 91 60 31 128 72 152 92 24 20 91 60 149 89 58 29 126 70 150 90 24
20 117 73 205 117 88 44 187 101 220 125 33 25 130 80 215 123 86 43 176 95
200 115 24 20 119 74 210 120 91 46 186 100 210 120 24 20 120 75 212 121 91
46 182 97 201 114 103 90 218 115 243 53z m376 7 c33 -17 76 -44 95 -60 19
-17 110 -68 201 -114 92 -46 187 -100 211 -120 24 -20 92 -61 152 -92 60 -31
128 -71 150 -90 23 -19 90 -59 150 -90 60 -31 128 -72 151 -91 23 -19 90 -59
148 -88 58 -29 126 -70 150 -90 24 -20 87 -58 140 -85 52 -26 122 -68 155 -93
33 -24 133 -81 222 -126 89 -44 177 -94 195 -110 18 -16 62 -46 98 -66 36 -21
80 -51 98 -67 18 -16 109 -66 200 -112 92 -46 188 -101 212 -121 24 -20 119
-74 210 -120 91 -46 185 -99 210 -120 24 -20 65 -47 90 -60 25 -13 66 -40 90
-60 23 -20 119 -74 211 -121 92 -46 187 -101 210 -120 24 -20 91 -60 149 -89
58 -29 125 -69 149 -89 24 -20 96 -63 160 -96 154 -79 240 -154 226 -196 -25
-70 -197 -74 -291 -8 -30 21 -83 56 -117 77 -34 21 -100 75 -147 121 -47 45
-112 97 -145 115 -33 19 -75 47 -93 63 -44 38 -420 223 -495 243 -50 14 -70
27 -157 110 -55 52 -117 103 -138 114 -21 10 -65 40 -99 66 -41 30 -84 52
-127 64 -41 11 -85 33 -118 58 -29 22 -99 64 -156 93 -57 29 -122 68 -145 87
-22 19 -90 59 -149 89 -59 29 -122 67 -140 83 -18 16 -58 43 -88 61 -30 17
-77 49 -105 70 -27 21 -150 88 -272 149 -122 61 -237 123 -255 140 -18 16 -58
43 -88 61 -30 17 -77 49 -105 70 -27 20 -96 61 -153 90 -57 29 -122 68 -145
87 -23 19 -116 72 -207 118 -91 46 -186 100 -210 120 -24 20 -87 58 -140 85
-52 26 -124 69 -160 96 -36 26 -80 58 -97 71 -110 80 -20 157 109 93z m-171
-490 c22 -6 67 -37 108 -75 40 -35 96 -77 126 -94 146 -83 103 -141 -229 -308
-127 -64 -256 -135 -286 -158 -30 -24 -71 -51 -90 -60 -19 -10 -61 -39 -95
-64 -157 -120 -381 -150 -499 -66 -31 22 -76 51 -100 65 -120 68 -134 123 -47
182 25 17 60 44 78 59 17 15 107 65 200 112 133 67 184 99 241 151 47 42 109
83 175 117 56 29 125 70 154 91 75 57 170 74 264 48z m727 -210 c181 -78 219
-154 89 -180 -71 -14 -87 -21 -142 -65 -22 -17 -62 -44 -90 -60 -54 -31 -200
-166 -246 -229 -63 -85 -11 -190 131 -261 19 -9 61 -37 92 -61 118 -92 195
-119 338 -119 193 0 244 28 480 260 170 168 179 175 217 175 54 0 223 -83 288
-142 28 -25 70 -55 94 -67 23 -13 68 -43 100 -69 31 -25 98 -65 149 -89 51
-24 116 -63 145 -86 29 -23 94 -60 145 -82 51 -22 114 -57 139 -78 26 -21 76
-52 110 -67 86 -39 86 -61 0 -100 -35 -16 -83 -45 -107 -65 -24 -20 -89 -59
-144 -87 -54 -27 -123 -68 -152 -90 -31 -23 -81 -48 -120 -60 -144 -43 -156
-126 -27 -198 32 -18 85 -58 118 -90 42 -40 93 -74 165 -110 58 -29 131 -72
163 -96 115 -86 173 -83 372 14 112 55 155 82 212 135 72 66 115 87 179 87 74
0 125 32 156 98 23 48 53 55 113 27 85 -41 66 -102 -55 -175 -30 -18 -70 -46
-88 -61 -18 -16 -55 -40 -82 -54 -27 -14 -77 -51 -112 -84 -35 -32 -89 -73
-121 -91 -119 -67 -119 -133 0 -200 70 -40 233 -188 233 -212 0 -49 -89 -80
-168 -58 -32 8 -67 34 -143 105 -221 210 -348 223 -559 60 -30 -24 -75 -53
-100 -65 -68 -34 -206 -178 -220 -229 -21 -78 -2 -112 126 -237 131 -127 138
-146 83 -208 -85 -97 -235 -120 -333 -51 -31 22 -81 54 -112 72 -30 18 -74 48
-97 67 -165 135 -304 133 -485 -8 -32 -24 -77 -54 -100 -66 -48 -23 -198 -162
-244 -224 -69 -95 -15 -183 177 -285 154 -82 150 -157 -11 -202 -122 -34 -132
-31 -234 66 -49 46 -109 94 -132 106 -24 12 -67 39 -95 61 -117 89 -209 89
-326 0 -28 -22 -98 -63 -154 -91 -346 -172 -374 -364 -81 -538 111 -65 111
-116 1 -161 -67 -28 -102 -28 -144 3 -19 13 -56 37 -83 52 -27 16 -78 50 -113
76 -191 144 -362 166 -496 66 -28 -22 -127 -78 -218 -124 -91 -46 -185 -100
-209 -120 -24 -20 -62 -46 -84 -57 -23 -11 -66 -40 -96 -63 -30 -24 -127 -79
-215 -123 -88 -44 -181 -97 -205 -117 -24 -20 -119 -74 -210 -120 -91 -46
-186 -100 -210 -120 -24 -20 -117 -73 -205 -117 -88 -44 -187 -101 -220 -125
-33 -25 -103 -67 -155 -93 -53 -27 -116 -65 -140 -85 -24 -20 -89 -60 -145
-87 -55 -28 -125 -70 -155 -93 -30 -24 -127 -79 -215 -123 -88 -44 -181 -97
-205 -117 -24 -20 -92 -61 -150 -90 -58 -29 -126 -70 -150 -90 -24 -20 -119
-74 -210 -120 -91 -46 -185 -99 -208 -118 -23 -19 -92 -61 -154 -92 -214 -109
-377 -299 -348 -406 14 -53 149 -190 235 -239 108 -63 98 -113 -32 -177 -136
-66 -256 -44 -404 72 -80 63 -291 165 -341 165 -88 0 -289 -118 -415 -244
-175 -177 -176 -211 -4 -389 170 -176 172 -210 13 -251 -104 -27 -123 -23
-194 40 -35 31 -81 65 -103 76 -22 11 -65 40 -97 64 -165 128 -271 143 -383
54 -22 -18 -88 -56 -147 -86 -73 -37 -127 -72 -170 -112 -35 -33 -89 -74 -121
-92 -119 -67 -119 -133 0 -200 32 -18 85 -58 119 -89 33 -32 86 -72 118 -89
133 -75 78 -161 -115 -179 -55 -5 -55 -5 -120 52 -35 31 -82 66 -104 77 -22
11 -65 40 -97 64 -83 64 -192 114 -250 114 -72 0 -303 -118 -390 -198 -78 -73
-95 -82 -151 -82 -109 0 -150 105 -63 160 20 12 55 38 78 57 24 19 144 86 268
148 124 62 245 129 270 150 24 20 62 46 84 57 23 11 59 35 81 53 22 18 66 47
98 65 68 38 87 62 87 109 0 42 -232 282 -310 321 -25 12 -71 42 -102 66 -142
111 -226 127 -315 60 -32 -24 -128 -78 -213 -121 -85 -43 -180 -97 -210 -120
-30 -24 -127 -79 -215 -123 -88 -44 -180 -97 -205 -117 -24 -20 -64 -47 -89
-60 -26 -12 -75 -49 -110 -80 -63 -56 -65 -57 -115 -53 -188 16 -161 120 62
241 111 61 222 184 222 247 0 61 -117 193 -214 242 -22 11 -67 40 -98 64 -199
155 -357 155 -556 0 -31 -24 -75 -53 -97 -64 -22 -11 -73 -50 -114 -86 -115
-103 -273 -115 -296 -23 -13 51 145 227 252 280 113 57 113 136 1 193 -28 14
-95 68 -149 120 -54 51 -119 104 -146 118 -26 13 -66 38 -88 56 -104 83 -138
82 -323 -9 -125 -62 -151 -79 -232 -157 -102 -96 -139 -105 -235 -58 -82 39
-62 75 84 153 248 134 255 372 15 494 -28 14 -70 42 -94 62 -56 47 -168 104
-244 124 -111 30 -99 62 51 142 50 28 108 63 128 79 77 62 118 40 136 -73 15
-94 123 -223 231 -278 24 -12 67 -39 95 -61 129 -98 377 -98 506 0 28 22 72
50 97 62 68 34 206 178 220 229 27 102 -41 189 -218 280 -64 32 -135 74 -157
91 -54 43 -85 58 -147 71 -123 26 -86 97 94 185 127 61 178 52 178 -33 0 -77
66 -162 173 -225 40 -23 87 -54 105 -70 18 -15 52 -37 75 -49 23 -12 66 -39
94 -61 117 -89 209 -89 326 0 28 22 95 61 147 87 52 26 122 68 155 92 33 25
76 53 97 64 47 24 68 54 68 98 0 45 -290 341 -377 385 -228 114 -234 206 -20
311 195 96 253 81 172 -45 -82 -128 5 -247 281 -382 214 -106 362 -110 491
-14 32 24 78 54 103 66 86 43 250 220 250 269 0 71 -154 221 -309 300 -118 61
-261 162 -261 185 0 29 46 68 131 111 141 70 193 57 219 -56 25 -108 183 -275
330 -350 153 -77 383 -70 497 15 32 24 78 54 103 66 85 43 250 220 250 268 0
52 -96 161 -182 206 -29 16 -78 48 -108 71 -30 23 -71 50 -90 60 -19 10 -62
38 -95 63 -33 24 -75 51 -92 59 -51 21 -33 46 82 117 33 21 75 48 94 62 43 31
82 31 120 -1 29 -25 38 -45 61 -134 19 -73 195 -246 314 -308 190 -100 415
-62 595 100 61 56 85 70 143 88 86 25 118 54 118 105 0 45 -228 283 -310 324
-25 12 -71 42 -102 65 -64 48 -96 60 -180 70 -94 10 -101 42 -22 97 26 18 65
48 88 67 43 36 166 98 214 107 44 9 55 -13 43 -82 -21 -109 72 -245 221 -324
34 -18 90 -59 124 -91 130 -121 149 -121 416 12 246 122 408 260 408 347 0 52
-96 161 -182 207 -29 15 -80 48 -113 72 -33 25 -83 59 -111 76 -229 142 -229
141 -24 246 55 29 116 65 134 82 36 31 146 88 209 109 84 27 75 -28 -21 -131
-134 -143 -129 -172 49 -345 266 -257 608 -227 917 81 134 134 138 181 20 241
-28 14 -81 54 -118 89 -37 35 -87 73 -111 85 -24 13 -70 42 -102 66 -57 42
-93 57 -168 69 -73 11 -94 61 -48 112 43 46 477 248 496 230 10 -11 -10 -50
-56 -105 -60 -72 -71 -93 -71 -135 0 -74 120 -192 276 -270 60 -30 127 -69
149 -87 58 -46 89 -60 135 -60 46 0 77 14 135 60 22 18 87 56 145 85 72 36
128 74 179 119 61 55 85 69 143 87 142 42 163 156 35 189 -91 24 -110 34 -177
96 -49 45 -102 80 -179 119 -61 30 -125 67 -143 83 -18 16 -48 38 -66 51 -76
53 -59 81 91 156 139 70 191 57 217 -56 22 -94 129 -218 235 -272 28 -14 73
-44 100 -66 115 -95 366 -90 503 10 31 22 80 55 108 72 292 180 292 180 107
369 -132 133 -207 181 -474 298 -60 26 -49 64 35 122 82 57 101 59 124 16 31
-59 65 -85 141 -108 67 -20 80 -28 170 -115 279 -267 577 -271 848 -12 196
187 195 206 -29 423 -136 133 -229 187 -350 204 -128 18 -139 37 -58 98 25 18
66 50 93 70 65 51 368 185 383 169 15 -15 -13 -51 -62 -78 -139 -79 -128 -173
25 -219 61 -18 83 -31 143 -86 39 -36 89 -74 112 -86 22 -11 67 -40 99 -64
142 -106 393 -81 549 54 18 16 62 46 98 67 36 20 80 50 98 66 18 16 136 81
261 143 187 94 238 124 293 174 85 77 93 81 185 92 120 13 167 61 138 142 -27
73 -28 80 -14 89 17 10 33 6 117 -31z m300 -428 c31 -23 80 -54 107 -68 161
-84 155 -149 -23 -236 -271 -135 -765 84 -515 228 26 16 71 45 100 67 101 75
235 79 331 9z m-2614 -420 c260 -129 224 -274 -88 -357 -96 -26 -96 -26 -192
0 -238 63 -316 153 -224 258 128 145 330 185 504 99z m-638 26 c9 -14 -40 -58
-64 -58 -41 1 -48 19 -19 45 30 26 71 33 83 13z m-272 -591 c196 -97 205 -123
87 -239 -82 -80 -105 -88 -266 -87 -272 1 -462 198 -333 344 75 87 320 78 512
-18z m5499 -118 c42 -11 168 -124 193 -170 40 -78 1 -123 -178 -209 -174 -84
-232 -89 -322 -25 -31 22 -94 61 -139 86 -145 82 -147 116 -14 188 39 22 98
58 130 81 81 59 219 80 330 49z m-6526 -342 c32 -24 96 -63 141 -87 166 -86
166 -154 0 -240 -45 -24 -109 -63 -141 -87 -83 -60 -131 -61 -213 0 -33 24
-95 62 -139 86 -147 78 -151 128 -18 203 31 17 81 54 112 83 115 106 161 113
258 42z m7507 -231 c224 -108 173 -275 -111 -355 -37 -10 -85 -26 -105 -35
-82 -35 -118 -25 -241 67 -121 91 -119 124 16 225 200 150 290 170 441 98z
m-8360 -361 c31 -22 82 -55 112 -73 120 -73 84 -154 -106 -246 -186 -89 -520
1 -520 141 0 44 142 194 200 212 90 27 253 9 314 -34z m7352 -185 c235 -114
232 -217 -10 -336 -200 -98 -243 -97 -388 11 -134 100 -133 130 7 235 185 139
256 155 391 90z m-8393 -281 c12 -7 35 -23 51 -36 16 -13 50 -35 77 -48 26
-14 77 -50 113 -80 109 -92 100 -105 -164 -234 -213 -105 -254 -107 -340 -16
-19 20 -63 57 -98 82 -139 100 -119 145 121 263 160 80 198 91 240 69z m7240
-372 c265 -123 265 -214 -1 -345 -177 -87 -234 -92 -326 -27 -31 22 -82 55
-112 73 -94 57 -96 107 -7 158 26 15 73 47 103 70 135 105 228 124 343 71z
m-8059 -242 c31 -22 80 -54 108 -71 90 -54 99 -90 42 -154 -215 -237 -772
-115 -672 148 46 122 387 173 522 77z m7023 -362 c30 -21 78 -53 108 -71 158
-95 132 -158 -117 -282 -201 -101 -213 -102 -298 -26 -34 30 -84 68 -113 84
-132 75 -127 126 18 203 44 24 103 60 132 82 95 71 179 74 270 10z m-8064
-104 c12 -7 35 -23 51 -36 16 -13 50 -35 77 -48 26 -14 77 -50 114 -81 83 -71
85 -92 9 -144 -29 -19 -78 -53 -109 -75 -125 -87 -446 -48 -550 67 -77 84 -30
198 94 228 30 7 95 32 145 56 94 45 132 52 169 33z m7058 -490 c224 -107 262
-210 107 -294 -29 -15 -78 -47 -108 -71 -30 -23 -125 -77 -210 -119 -85 -43
-180 -97 -210 -120 -30 -24 -98 -64 -150 -90 -52 -26 -120 -67 -150 -90 -30
-24 -125 -78 -210 -120 -85 -43 -180 -97 -210 -120 -30 -24 -125 -78 -210
-120 -85 -43 -180 -97 -210 -120 -30 -24 -98 -64 -150 -90 -52 -26 -120 -67
-150 -90 -30 -24 -98 -64 -150 -90 -52 -26 -120 -67 -150 -90 -30 -24 -125
-78 -210 -120 -85 -43 -180 -97 -210 -120 -30 -24 -98 -64 -150 -90 -52 -26
-120 -67 -150 -90 -30 -24 -98 -64 -150 -90 -52 -26 -120 -67 -150 -90 -30
-24 -125 -78 -210 -120 -85 -43 -180 -97 -210 -120 -70 -54 -139 -89 -232
-116 -40 -12 -89 -26 -109 -32 -51 -15 -83 -3 -147 56 -31 29 -78 67 -104 85
-121 83 -89 171 96 264 56 28 126 70 156 93 30 24 125 78 210 120 85 43 180
97 210 120 30 24 98 64 150 90 52 26 120 67 150 90 30 24 125 78 210 120 85
43 180 97 210 120 30 24 98 64 150 90 52 26 120 67 150 90 30 24 98 64 150 90
52 26 120 67 150 90 30 24 125 78 210 120 85 43 180 97 210 120 30 24 125 78
210 120 85 43 180 97 210 120 30 24 125 78 210 120 85 43 180 97 210 120 30
24 71 51 90 60 19 10 60 37 90 60 30 24 124 78 209 120 85 42 178 95 207 117
96 72 215 78 345 17z m-8018 -50 c12 -7 35 -23 50 -35 16 -13 78 -49 138 -80
163 -83 177 -125 67 -194 -31 -19 -82 -53 -114 -75 -149 -105 -603 16 -569
152 12 53 154 179 221 198 32 9 75 23 94 30 43 17 85 19 113 4z m-873 -558
c30 -22 81 -55 113 -72 167 -92 166 -178 -4 -279 -32 -19 -84 -53 -115 -75
-52 -37 -61 -40 -124 -40 -63 0 -72 3 -124 40 -31 22 -82 55 -114 73 -201 117
-201 209 0 313 206 105 268 112 368 40z m-906 -596 c31 -22 80 -54 109 -72 91
-55 118 -114 70 -152 -164 -127 -176 -131 -338 -130 -282 1 -485 224 -310 340
115 77 370 84 469 14z m-943 -537 c204 -97 244 -212 101 -295 -26 -15 -73 -47
-106 -70 -88 -65 -113 -62 -311 35 -167 82 -216 115 -240 163 -38 72 -6 125
93 152 31 9 82 25 112 37 94 35 252 26 351 -22z m895 -551 c33 -24 83 -56 112
-72 157 -85 157 -185 0 -270 -29 -16 -71 -41 -92 -57 -86 -62 -332 13 -441
135 -87 96 -59 145 138 242 167 83 197 85 283 22z m1085 -530 c96 -45 239
-157 239 -187 0 -23 -120 -125 -198 -168 -26 -14 -73 -45 -106 -69 -99 -73
-186 -52 -371 87 -141 106 -141 134 -2 238 199 149 288 169 438 99z m3914 -35
c216 -105 240 -152 129 -247 -154 -130 -356 -188 -441 -126 -22 16 -58 38 -80
50 -172 87 -140 215 82 323 152 73 158 73 310 0z m-2408 -148 c32 -14 83 -44
113 -68 30 -23 77 -55 103 -70 142 -81 54 -187 -304 -366 -123 -62 -249 -132
-279 -155 -30 -24 -73 -52 -96 -63 -22 -11 -70 -48 -107 -81 -74 -67 -104 -79
-156 -64 -20 6 -69 20 -109 32 -176 51 -316 162 -298 235 9 37 171 148 336
231 85 43 180 97 210 120 30 24 127 79 216 123 88 44 174 91 190 105 67 55 96
59 181 21z m1316 -418 c40 -18 98 -53 129 -77 32 -24 75 -56 98 -71 59 -41 55
-64 -26 -133 -77 -65 -154 -106 -256 -136 -40 -12 -89 -26 -109 -32 -51 -15
-83 -3 -147 56 -31 29 -78 67 -104 85 -108 74 -93 136 54 212 45 24 109 63
141 87 76 56 118 57 220 9z m-1009 -605 c88 -43 199 -145 212 -195 19 -76
-122 -149 -298 -155 -190 -5 -197 -3 -365 127 -70 54 -28 109 150 197 162 80
185 82 301 26z"/>
<path d="M13007 13856 c-21 -8 -59 -30 -84 -50 -25 -20 -95 -61 -154 -91 -345
-177 -365 -338 -59 -490 52 -26 121 -67 153 -91 150 -112 241 -113 463 -1 296
148 397 271 316 383 -151 206 -497 392 -635 340z m278 -260 c243 -119 245
-158 17 -274 -191 -98 -283 -96 -427 6 -36 26 -83 59 -105 74 -69 48 -49 88
70 148 24 13 68 40 96 62 105 79 162 76 349 -16z"/>
<path d="M14985 13856 c-69 -22 -268 -127 -325 -171 -30 -24 -127 -79 -215
-123 -88 -44 -181 -97 -205 -117 -24 -20 -93 -61 -152 -91 -336 -169 -382
-386 -109 -524 23 -12 71 -48 106 -80 118 -110 238 -145 372 -110 104 28 221
84 283 135 24 20 119 74 210 120 91 46 185 99 210 120 24 20 65 47 90 60 25
13 66 40 90 60 24 20 67 48 94 62 89 44 256 221 256 269 0 52 -20 79 -82 110
-27 14 -75 46 -106 71 -32 26 -100 67 -152 91 -52 24 -113 59 -135 77 -69 57
-141 69 -230 41z m202 -233 c30 -21 82 -55 116 -76 150 -91 129 -180 -66 -279
-23 -11 -67 -40 -97 -63 -30 -24 -125 -78 -210 -120 -85 -43 -180 -97 -210
-120 -138 -108 -307 -156 -431 -125 -109 28 -122 36 -200 117 -107 111 -103
140 32 212 47 25 110 65 140 87 30 23 124 77 209 119 85 43 180 97 210 120 56
44 206 123 295 157 76 28 144 19 212 -29z"/>
<path d="M12170 13350 c-52 -15 -228 -110 -270 -145 -24 -20 -62 -46 -84 -57
-23 -11 -68 -41 -101 -65 -33 -25 -76 -53 -97 -64 -99 -50 -92 -127 18 -189
31 -17 88 -61 126 -97 121 -113 311 -197 448 -197 209 -1 560 228 560 364 0
80 -171 250 -330 330 -58 29 -125 67 -150 85 -51 36 -84 46 -120 35z m106
-228 c22 -16 85 -52 141 -81 116 -59 158 -100 148 -140 -18 -72 -219 -166
-355 -166 -107 0 -308 82 -347 141 -38 59 32 141 189 219 129 65 165 69 224
27z"/>
<path d="M13219 12830 c-103 -52 -153 -84 -207 -134 -72 -66 -113 -86 -182
-86 -173 -2 -188 -150 -20 -200 67 -20 80 -29 164 -110 50 -48 120 -105 156
-126 35 -21 84 -52 108 -70 100 -77 260 -74 357 8 17 14 57 40 90 59 64 35
286 244 311 291 37 72 -21 128 -133 128 -3 0 -58 52 -124 115 -223 216 -302
235 -520 125z m315 -169 c62 -30 97 -56 149 -109 92 -96 90 -125 -11 -186 -28
-17 -77 -49 -108 -71 -56 -40 -56 -40 -154 -40 -98 0 -98 0 -154 40 -31 22
-81 55 -111 73 -152 91 -130 160 88 267 162 80 185 82 301 26z"/>
<path d="M11175 12796 c-39 -18 -90 -50 -114 -70 -25 -21 -66 -48 -92 -62 -27
-13 -76 -50 -111 -83 -35 -32 -89 -73 -121 -91 -119 -67 -119 -133 -1 -200 31
-17 88 -61 126 -97 103 -97 311 -196 414 -197 182 -2 634 319 634 451 0 64
-97 133 -393 283 -228 115 -238 117 -342 66z m262 -226 c268 -132 277 -193 45
-308 -185 -91 -216 -92 -384 -10 -143 70 -176 109 -152 172 9 24 185 153 246
181 81 37 108 33 245 -35z"/>
<path d="M15035 12771 c-22 -10 -58 -33 -80 -51 -22 -17 -62 -43 -88 -57 -52
-26 -202 -163 -249 -227 -78 -108 24 -239 291 -370 274 -135 461 -100 688 128
194 196 173 298 -90 432 -62 31 -136 74 -164 96 -92 70 -219 90 -308 49z m270
-227 c31 -21 80 -54 110 -72 137 -82 126 -161 -33 -239 -133 -66 -292 -58
-449 22 -168 86 -182 128 -68 202 28 18 76 51 108 74 107 76 236 81 332 13z"/>
<path d="M12415 12361 c-151 -40 -400 -213 -497 -345 -63 -87 -21 -172 127
-258 39 -23 85 -54 104 -71 62 -54 307 -167 361 -167 154 0 600 328 600 441 0
44 -21 74 -68 98 -21 11 -64 39 -97 64 -33 24 -78 54 -101 65 -22 11 -60 37
-85 58 -100 84 -259 138 -344 115z m218 -239 c62 -30 98 -56 144 -105 110
-114 100 -138 -89 -232 -176 -87 -181 -87 -365 4 -257 128 -275 192 -82 291
205 105 250 110 392 42z"/>
<path d="M10154 12197 c-110 -56 -218 -117 -240 -135 -23 -19 -67 -41 -108
-53 -197 -59 -164 -130 144 -314 37 -22 82 -53 101 -69 65 -55 305 -166 360
-166 58 0 177 55 249 115 24 20 67 48 94 62 31 15 92 66 154 128 147 147 146
161 -28 280 -36 25 -85 55 -110 69 -25 13 -72 44 -105 69 -199 149 -243 150
-511 14z m380 -136 c193 -93 236 -186 129 -277 -164 -139 -244 -150 -428 -61
-276 134 -276 179 -5 311 166 81 188 83 304 27z"/>
<path d="M13869 12104 c-138 -68 -297 -202 -390 -328 -63 -86 -21 -173 126
-258 39 -23 85 -55 104 -71 215 -185 530 -131 798 137 137 137 138 153 31 261
-40 40 -93 82 -118 95 -25 12 -70 41 -100 65 -30 23 -71 50 -90 60 -19 10 -61
37 -93 61 -82 61 -102 60 -268 -22z m214 -145 c12 -7 35 -23 51 -36 16 -13 50
-35 77 -48 74 -38 179 -132 179 -160 0 -65 -244 -180 -380 -180 -155 0 -340
106 -340 195 0 92 328 273 413 229z"/>
<path d="M11454 11846 c-27 -19 -69 -47 -94 -62 -212 -127 -347 -294 -320
-395 15 -53 139 -185 212 -224 29 -15 77 -46 105 -68 128 -97 319 -96 447 2
28 21 71 49 96 61 86 43 250 220 250 269 0 55 -143 209 -255 274 -38 22 -85
53 -104 70 -116 100 -256 130 -337 73z m204 -196 c37 -17 92 -50 122 -74 30
-23 77 -55 103 -70 89 -51 87 -101 -7 -158 -30 -18 -80 -51 -111 -72 -60 -43
-166 -59 -279 -42 -44 7 -188 99 -228 147 -45 54 -5 145 84 190 22 11 67 40
100 65 76 55 117 58 216 14z"/>
<path d="M9383 11766 c-32 -24 -105 -67 -163 -96 -323 -161 -369 -366 -117
-512 40 -22 97 -64 127 -93 90 -85 105 -90 255 -90 157 0 237 33 363 149 60
55 82 68 143 86 173 52 168 93 -43 307 -258 261 -441 342 -565 249z m263 -220
c257 -127 269 -218 46 -328 -169 -85 -332 -69 -448 44 -119 115 -120 152 -7
214 88 48 140 79 182 109 51 38 83 32 227 -39z"/>
<path d="M12904 11532 c-147 -73 -194 -102 -245 -150 -35 -33 -90 -74 -122
-92 -128 -72 -121 -125 32 -224 35 -22 98 -63 141 -91 42 -27 92 -62 111 -76
209 -163 502 -123 741 99 35 33 89 74 121 92 151 85 125 134 -168 311 -38 23
-85 55 -103 71 -44 38 -241 136 -289 144 -34 5 -59 -5 -219 -84z m362 -177
c247 -120 262 -198 59 -301 -197 -99 -391 -73 -523 70 -84 91 -70 118 99 206
204 105 201 105 365 25z"/>
<path d="M10513 11297 c-44 -24 -97 -58 -117 -75 -20 -18 -58 -43 -85 -56
-104 -53 -221 -183 -221 -246 0 -86 170 -250 357 -343 210 -106 264 -110 381
-30 37 26 92 54 122 63 75 23 93 33 161 96 32 29 83 67 114 85 117 66 117 133
-2 199 -32 18 -99 72 -148 120 -83 81 -103 94 -234 159 -180 89 -206 91 -328
28z m314 -222 c218 -107 240 -176 88 -267 -30 -18 -80 -51 -111 -73 -88 -62
-150 -59 -309 18 -241 117 -254 150 -104 262 196 146 248 153 436 60z"/>
<path d="M8424 11211 c-107 -53 -156 -83 -213 -134 -74 -67 -114 -87 -181 -87
-154 -1 -187 -124 -54 -200 31 -17 84 -57 118 -89 42 -39 99 -77 172 -114 60
-31 133 -74 162 -96 110 -83 175 -80 374 20 140 70 263 168 330 262 60 84 -24
241 -176 329 -39 23 -86 54 -105 71 -141 121 -241 130 -427 38z m310 -170 c60
-29 97 -56 143 -104 110 -115 101 -138 -95 -235 -177 -87 -234 -92 -326 -27
-31 22 -81 55 -111 73 -152 91 -130 160 88 267 162 80 185 82 301 26z"/>
<path d="M12018 11029 c-119 -60 -150 -80 -227 -154 -50 -47 -92 -85 -94 -85
-74 0 -147 -38 -147 -77 0 -56 159 -227 257 -276 27 -14 69 -42 94 -63 228
-192 485 -138 782 165 157 159 167 205 59 260 -21 11 -64 39 -97 64 -33 24
-106 68 -162 96 -56 29 -119 66 -140 83 -102 81 -143 80 -325 -13z m303 -174
c35 -25 93 -64 129 -88 148 -96 136 -141 -64 -242 -200 -100 -321 -90 -465 40
-121 109 -96 167 112 270 168 83 195 85 288 20z"/>
<path d="M9715 10801 c-205 -54 -525 -311 -525 -421 0 -61 115 -192 211 -240
24 -12 70 -42 101 -65 60 -45 224 -105 286 -105 55 0 279 120 361 194 61 55
85 69 143 87 148 44 161 126 31 199 -35 19 -107 80 -178 150 -169 166 -311
233 -430 201z m219 -240 c154 -74 211 -168 149 -242 -64 -76 -293 -164 -360
-138 -15 6 -55 19 -89 28 -75 21 -229 129 -238 167 -13 49 26 85 164 154 188
95 235 98 374 31z"/>
<path d="M7605 10737 c-101 -34 -169 -80 -283 -191 -223 -217 -225 -234 -31
-422 284 -275 577 -259 887 50 193 193 192 196 -123 387 -38 23 -85 56 -104
72 -96 82 -261 132 -346 104z m216 -229 c204 -95 260 -234 126 -312 -103 -61
-227 -80 -333 -51 -293 78 -345 219 -124 339 139 76 208 81 331 24z"/>
<path d="M11170 10539 c-19 -12 -48 -33 -64 -46 -16 -13 -77 -48 -135 -78 -58
-29 -126 -69 -151 -89 -27 -22 -72 -44 -114 -57 -146 -44 -158 -127 -29 -199
32 -18 101 -73 153 -124 88 -84 106 -96 235 -159 200 -96 258 -98 372 -13 32
24 101 65 153 91 52 26 122 68 155 92 33 25 76 53 97 64 99 51 92 127 -19 189
-32 18 -86 59 -121 91 -35 33 -84 70 -111 83 -26 14 -67 41 -92 62 -115 96
-257 137 -329 93z m185 -208 c80 -37 241 -156 249 -184 8 -33 -15 -70 -69
-104 -28 -18 -76 -51 -108 -74 -111 -80 -166 -77 -355 16 -223 110 -236 156
-67 246 44 24 106 62 139 86 73 54 116 57 211 14z"/>
<path d="M8644 10212 c-147 -73 -194 -102 -245 -150 -35 -33 -90 -74 -122 -92
-151 -85 -125 -134 168 -311 39 -23 85 -55 103 -71 59 -51 251 -141 302 -142
71 0 181 39 247 88 32 24 78 54 103 66 77 38 250 220 250 261 0 47 -22 75 -83
106 -29 14 -94 67 -147 118 -82 79 -112 101 -207 149 -167 83 -155 84 -369
-22z m362 -177 c196 -96 225 -153 127 -256 -92 -97 -230 -152 -320 -127 -75
20 -230 108 -272 153 -83 90 -69 117 100 205 204 105 200 105 365 25z"/>
<path d="M6675 10216 c-39 -18 -90 -50 -114 -70 -25 -21 -67 -49 -94 -62 -52
-27 -201 -164 -249 -228 -63 -87 -21 -172 127 -258 39 -23 85 -54 103 -70 163
-141 373 -155 603 -42 221 110 309 210 301 342 -5 63 -246 278 -395 353 -162
81 -182 84 -282 35z m271 -230 c257 -127 269 -217 45 -328 -271 -135 -764 84
-514 228 26 15 73 47 103 70 143 111 194 115 366 30z"/>
<path d="M10235 10012 c-22 -11 -58 -34 -80 -52 -22 -17 -62 -43 -88 -57 -107
-54 -277 -240 -277 -303 0 -147 351 -365 590 -365 280 0 585 220 572 412 -3
36 -125 157 -200 199 -37 20 -82 50 -101 67 -110 96 -318 145 -416 99z m286
-223 c180 -86 245 -178 173 -245 -138 -131 -363 -150 -561 -49 -168 86 -182
128 -68 202 28 18 76 51 108 74 103 73 218 79 348 18z"/>
<path d="M7870 9759 c-19 -12 -48 -33 -64 -46 -16 -14 -102 -61 -190 -105
-223 -112 -286 -166 -286 -247 0 -63 101 -176 215 -243 39 -23 88 -57 110 -75
201 -172 436 -147 663 70 54 52 122 107 150 121 116 59 113 105 -14 236 -87
89 -107 105 -215 160 -65 34 -136 76 -157 92 -80 64 -148 76 -212 37z m186
-222 c33 -24 85 -57 116 -75 166 -95 153 -189 -40 -285 -166 -82 -329 -53
-494 87 -102 86 -96 103 64 186 45 24 109 63 141 87 83 60 131 61 213 0z"/>
<path d="M5709 9644 c-159 -78 -345 -246 -369 -332 -29 -111 85 -246 297 -351
237 -118 335 -123 466 -23 28 22 72 50 97 62 86 43 250 220 250 269 0 55 -143
209 -255 274 -38 22 -85 54 -104 70 -127 110 -209 116 -382 31z m258 -160 c32
-14 83 -44 113 -68 30 -23 77 -55 103 -70 89 -51 87 -101 -7 -158 -30 -18 -81
-51 -112 -73 -94 -67 -209 -61 -367 18 -226 112 -218 199 28 319 136 66 160
69 242 32z"/>
<path d="M9370 9519 c-19 -12 -48 -33 -64 -46 -16 -13 -52 -36 -79 -50 -53
-26 -256 -216 -308 -287 -63 -86 -21 -173 126 -258 39 -23 85 -55 104 -71 215
-185 530 -131 798 137 149 149 128 230 -96 362 -42 25 -95 60 -117 77 -23 18
-63 45 -90 60 -27 15 -71 43 -98 62 -59 43 -121 47 -176 14z m188 -223 c33
-25 78 -54 100 -65 138 -70 199 -160 140 -205 -176 -133 -373 -166 -530 -89
-193 96 -206 196 -36 288 29 16 79 48 112 72 83 61 130 61 214 -1z"/>
<path d="M6947 9236 c-20 -7 -61 -32 -90 -54 -28 -22 -72 -50 -95 -62 -102
-50 -272 -239 -272 -300 0 -117 256 -323 473 -380 142 -37 338 29 485 164 72
66 113 86 182 86 168 1 190 162 28 200 -65 15 -101 36 -153 90 -22 23 -71 60
-110 82 -38 23 -85 55 -104 71 -95 82 -264 133 -344 103z m206 -224 c88 -40
243 -157 251 -188 27 -108 -272 -227 -450 -179 -266 70 -339 188 -176 282 26
15 70 44 99 66 89 66 160 71 276 19z"/>
<path d="M4907 9176 c-20 -8 -61 -32 -90 -54 -28 -22 -98 -63 -155 -91 -199
-99 -271 -214 -204 -323 93 -150 421 -368 553 -368 58 0 162 48 249 115 30 24
74 52 96 63 46 23 143 108 175 154 70 98 -32 258 -226 355 -60 30 -134 73
-162 95 -60 46 -112 67 -163 67 -19 0 -52 -6 -73 -13z m200 -233 c30 -21 82
-55 116 -76 132 -80 139 -119 40 -203 -165 -140 -245 -151 -430 -59 -214 105
-240 178 -95 262 26 15 70 44 99 66 95 71 179 74 270 10z"/>
<path d="M8470 8979 c-19 -12 -48 -33 -64 -46 -16 -13 -79 -49 -140 -80 -198
-99 -314 -239 -286 -344 39 -144 377 -354 570 -354 127 0 340 97 459 209 38
35 91 76 119 90 58 29 82 58 82 99 0 42 -14 53 -260 212 -42 28 -96 64 -118
80 -22 17 -62 43 -89 58 -26 15 -70 43 -97 62 -59 43 -121 47 -176 14z m186
-222 c33 -24 83 -56 112 -72 60 -33 128 -102 138 -139 11 -43 -18 -70 -141
-132 -170 -86 -257 -86 -428 -1 -203 101 -212 165 -35 257 45 24 109 63 141
87 83 61 131 61 213 0z"/>
<path d="M6045 8696 c-271 -87 -500 -296 -465 -427 15 -55 140 -186 218 -227
32 -17 79 -49 104 -71 64 -57 81 -61 236 -61 156 1 187 9 265 68 28 22 71 49
93 60 97 49 214 181 214 242 0 61 -170 250 -272 300 -23 12 -67 40 -95 62 -87
67 -197 86 -298 54z m263 -234 c31 -23 78 -53 103 -66 91 -49 121 -115 70
-156 -147 -118 -176 -130 -331 -130 -145 0 -161 5 -265 81 -151 109 -145 155
27 245 180 92 294 100 396 26z"/>
<path d="M3983 8646 c-32 -24 -74 -51 -93 -61 -19 -10 -60 -37 -90 -60 -30
-24 -71 -51 -90 -60 -278 -138 -214 -356 158 -539 210 -103 274 -103 483 0
221 110 309 210 301 342 -5 63 -246 278 -395 353 -171 85 -191 87 -274 25z
m263 -220 c257 -127 269 -217 45 -328 -139 -69 -237 -65 -398 17 -185 95 -181
180 15 279 27 14 62 36 78 49 77 64 99 62 260 -17z"/>
<path d="M7458 8389 c-119 -60 -150 -80 -227 -154 -50 -47 -92 -85 -94 -85
-74 0 -147 -38 -147 -77 0 -56 159 -227 257 -276 27 -14 69 -42 94 -63 162
-136 361 -161 496 -60 32 24 78 53 101 65 102 52 272 240 272 301 0 64 -112
188 -225 250 -33 18 -75 46 -93 62 -143 124 -245 133 -434 37z m297 -158 c86
-39 242 -156 249 -187 11 -41 -19 -78 -100 -124 -24 -14 -69 -43 -100 -65
-111 -79 -314 -46 -443 71 -120 108 -96 167 112 269 154 77 184 80 282 36z"/>
<path d="M5044 8112 c-147 -73 -194 -102 -245 -150 -35 -33 -90 -74 -122 -92
-64 -36 -87 -62 -87 -100 0 -38 23 -64 87 -100 32 -18 76 -47 98 -65 22 -18
60 -42 84 -55 23 -12 71 -48 106 -80 97 -91 109 -95 256 -95 155 0 347 82 488
209 61 55 85 69 143 87 169 50 158 199 -14 199 -85 0 -117 17 -218 115 -82 79
-111 101 -207 149 -167 83 -155 84 -369 -22z m362 -177 c236 -115 243 -209 26
-316 -176 -88 -334 -70 -454 49 -125 126 -119 147 63 242 204 105 200 105 365
25z"/>
<path d="M6645 7916 c-63 -20 -157 -71 -205 -111 -24 -20 -65 -47 -90 -60
-103 -52 -220 -182 -220 -245 0 -61 170 -249 272 -301 23 -12 69 -41 101 -65
135 -101 334 -76 496 60 25 21 68 49 95 63 89 45 196 162 196 214 0 50 -221
285 -310 329 -25 12 -69 40 -97 62 -86 66 -153 81 -238 54z m202 -233 c29 -21
79 -53 111 -71 134 -77 144 -124 45 -208 -162 -137 -349 -173 -467 -89 -31 22
-76 51 -100 65 -134 77 -136 117 -8 213 196 146 307 170 419 90z"/>
</g>
</svg>
