<?xml version="1.0" standalone="no"?>
<!DOCTYPE svg PUBLIC "-//W3C//DTD SVG 20010904//EN"
 "http://www.w3.org/TR/2001/REC-SVG-20010904/DTD/svg10.dtd">
<svg version="1.0" xmlns="http://www.w3.org/2000/svg"
 width="1158.000000pt" height="930.000000pt" viewBox="0 0 1158.000000 930.000000"
 preserveAspectRatio="xMidYMid meet">
<metadata>
Created by potrace 1.16, written by Peter Selinger 2001-2019
</metadata>
<g transform="translate(0.000000,930.000000) scale(0.100000,-0.100000)"
fill="#f97316" stroke="none">
<path d="M5667 8430 c-146 -49 -146 -49 -223 -120 -34 -33 -86 -71 -115 -86
-139 -70 -203 -192 -167 -318 16 -58 565 -610 646 -650 29 -15 85 -56 124 -92
39 -36 94 -77 122 -91 37 -18 125 -99 326 -298 211 -209 288 -279 330 -300 40
-20 106 -78 240 -210 133 -131 200 -190 240 -210 38 -19 102 -74 210 -180 107
-105 172 -161 210 -180 105 -53 227 -189 214 -239 -6 -24 -146 -136 -214 -171
-19 -10 -60 -37 -90 -60 -30 -24 -98 -64 -150 -90 -52 -26 -120 -67 -150 -90
-30 -24 -97 -64 -149 -90 -52 -26 -118 -65 -148 -87 -33 -25 -80 -49 -121 -60
-37 -11 -83 -25 -103 -31 -52 -15 -82 -3 -154 62 -36 33 -84 66 -108 74 -23 8
-69 25 -102 37 -33 11 -91 30 -129 41 -38 11 -80 26 -95 33 -14 7 -48 18 -76
25 -27 6 -97 34 -155 60 -117 54 -315 121 -360 121 -29 0 -214 -56 -302 -91
-60 -24 -117 -24 -176 0 -26 11 -74 27 -107 36 -57 16 -67 25 -275 229 -153
151 -232 222 -275 245 -44 25 -130 103 -330 301 -206 204 -283 274 -325 295
-38 19 -102 74 -210 179 -102 100 -176 163 -215 185 -42 24 -122 94 -270 240
-156 154 -227 217 -275 244 -42 23 -98 70 -160 133 -164 167 -192 176 -358
123 -134 -43 -226 -86 -291 -137 -31 -24 -78 -55 -106 -69 -136 -69 -248 -227
-225 -315 16 -61 684 -731 770 -773 42 -21 112 -84 300 -270 186 -184 258
-249 300 -270 42 -21 114 -86 300 -270 186 -184 258 -249 300 -270 42 -21 114
-86 300 -270 191 -188 259 -249 307 -274 91 -48 333 -296 333 -340 0 -74 -61
-134 -214 -213 -56 -28 -126 -70 -156 -93 -30 -24 -71 -51 -90 -60 -19 -10
-60 -37 -90 -60 -30 -24 -71 -51 -90 -60 -19 -10 -60 -37 -90 -60 -30 -24 -98
-64 -150 -90 -52 -26 -120 -67 -150 -91 -211 -165 -379 -199 -560 -114 -115
54 -115 54 -240 60 -142 7 -147 9 -238 92 -112 102 -205 140 -361 148 -141 7
-150 10 -231 85 -127 117 -291 130 -485 38 -60 -28 -130 -57 -155 -63 -95 -24
-167 -84 -216 -182 -15 -29 -50 -77 -78 -107 -127 -135 -121 -168 57 -338 94
-90 184 -142 300 -174 38 -11 105 -38 150 -60 45 -23 112 -50 150 -60 37 -11
109 -40 158 -64 69 -35 108 -48 167 -55 58 -8 100 -21 172 -56 52 -25 126 -55
163 -65 37 -11 161 -66 275 -123 114 -56 230 -108 257 -115 28 -6 97 -34 155
-60 101 -47 186 -78 333 -121 38 -11 105 -39 150 -61 45 -23 112 -50 150 -60
37 -11 132 -51 210 -90 78 -40 173 -80 210 -91 38 -10 105 -37 150 -59 45 -23
112 -50 150 -60 37 -11 107 -39 155 -63 48 -24 103 -47 122 -51 19 -4 62 -17
95 -30 75 -28 199 -69 288 -95 37 -11 161 -67 275 -124 114 -56 230 -108 257
-115 28 -6 97 -34 155 -60 165 -77 416 -156 485 -154 28 1 75 3 105 4 30 1 75
-2 100 -6 58 -9 182 26 330 95 58 27 125 54 150 60 69 18 122 53 194 131 130
140 121 175 -92 392 -196 197 -197 198 -465 277 -38 11 -105 39 -150 61 -45
23 -112 50 -150 60 -37 11 -107 39 -155 63 -48 23 -109 48 -137 55 -27 6 -97
34 -155 60 -101 47 -186 78 -333 121 -37 11 -134 53 -215 94 -81 40 -169 78
-197 85 -27 6 -97 34 -155 60 -101 47 -186 78 -333 121 -38 11 -105 39 -150
61 -45 23 -112 50 -150 60 -37 11 -107 39 -156 63 -48 24 -105 49 -128 55 -97
26 -89 98 17 159 25 14 70 45 100 68 30 23 71 50 90 59 19 10 60 37 90 60 30
24 125 78 210 120 85 43 174 93 197 112 23 18 67 48 97 66 31 18 80 50 110 71
49 35 63 39 128 44 128 8 142 0 318 -173 108 -106 172 -161 210 -180 40 -20
107 -79 240 -210 114 -112 202 -191 230 -205 25 -12 69 -40 97 -62 122 -93
251 -94 383 -3 56 39 75 46 140 54 41 6 96 19 122 31 26 11 80 25 122 30 241
30 412 220 426 470 7 133 17 160 61 160 34 0 185 -41 244 -66 22 -9 83 -20
135 -24 59 -5 114 -15 145 -28 28 -11 75 -28 106 -36 44 -12 72 -30 128 -80
40 -36 91 -71 114 -79 23 -8 69 -25 102 -37 33 -11 91 -30 128 -41 38 -11 105
-38 150 -60 45 -23 112 -50 150 -60 37 -11 107 -39 155 -63 48 -23 110 -48
137 -55 28 -6 97 -34 155 -60 100 -47 199 -83 320 -117 30 -9 75 -24 100 -34
261 -104 422 -118 622 -54 376 120 550 320 415 480 -19 21 -52 71 -75 111 -62
105 -196 204 -312 228 -19 4 -62 17 -95 30 -81 30 -208 72 -275 91 -30 8 -102
37 -160 63 -101 47 -205 85 -320 117 -30 8 -102 37 -160 63 -101 47 -186 78
-333 121 -38 11 -105 39 -150 61 -45 23 -112 50 -150 60 -37 11 -107 39 -155
63 -48 23 -109 48 -137 55 -27 6 -97 34 -155 60 -100 47 -199 83 -320 117 -30
9 -75 24 -100 34 -25 10 -76 28 -115 39 -235 69 -216 165 59 303 55 28 126 70
156 93 30 24 100 66 155 94 55 28 125 69 155 91 105 76 191 66 302 -36 39 -36
94 -77 122 -91 35 -17 110 -83 236 -208 133 -131 200 -190 240 -210 36 -18 99
-71 181 -150 74 -72 146 -133 175 -148 27 -14 67 -39 89 -57 100 -80 151 -82
261 -8 77 53 77 53 188 56 276 8 627 195 674 358 39 136 10 284 -73 373 -113
121 -186 146 -291 99 -158 -70 -241 -42 -434 147 -107 104 -174 162 -211 180
-37 19 -103 75 -209 180 -108 105 -172 161 -210 180 -38 19 -103 75 -210 180
-91 89 -174 161 -200 175 -25 12 -70 41 -100 64 -30 23 -77 55 -105 71 -27 15
-115 92 -195 170 -153 151 -170 163 -265 190 -59 17 -65 21 -420 375 -369 367
-380 376 -476 404 -43 12 -73 31 -128 80 -40 36 -98 79 -129 97 -31 17 -111
84 -177 148 -71 69 -145 130 -180 150 -87 49 -246 208 -300 301 -47 82 -261
303 -324 335 -64 32 -124 29 -254 -15z m228 -184 c31 -13 55 -41 55 -65 0 -7
-37 -11 -102 -11 -110 0 -108 1 -198 -67 -58 -44 -104 -41 -130 8 -23 42 37
97 110 99 14 1 50 12 80 25 63 27 136 31 185 11z m43 -305 c26 -11 73 -27 105
-36 53 -15 70 -27 185 -138 75 -72 152 -136 187 -156 35 -20 110 -83 180 -150
70 -68 145 -131 180 -150 86 -48 187 -150 239 -241 65 -111 114 -151 231 -185
59 -17 64 -21 455 -409 296 -295 409 -401 453 -424 81 -45 132 -95 173 -169
69 -123 141 -127 200 -12 33 66 40 67 131 22 66 -32 102 -61 239 -194 109
-107 177 -165 215 -184 37 -19 102 -75 209 -180 107 -105 172 -161 210 -180
162 -82 270 -251 214 -335 -133 -200 -253 -212 -434 -46 -40 37 -96 79 -124
93 -37 18 -120 94 -296 268 -185 183 -258 249 -300 270 -38 19 -102 74 -210
180 -108 106 -172 161 -210 180 -40 20 -107 79 -240 210 -133 131 -200 190
-240 210 -38 19 -102 74 -210 180 -107 105 -172 161 -210 180 -36 18 -99 71
-181 150 -81 80 -145 133 -180 150 -38 20 -107 80 -239 210 -134 132 -200 190
-240 210 -40 20 -106 78 -240 210 -133 131 -200 190 -240 210 -63 32 -187 146
-205 189 -36 85 64 120 193 67z m-274 -210 c169 -167 245 -236 283 -255 60
-30 86 -62 81 -103 -5 -48 -43 -42 -108 15 -30 27 -80 62 -110 77 -105 52
-440 399 -440 455 0 88 41 62 294 -189z m-3233 -574 c58 -39 49 -77 -18 -77
-41 0 -131 -40 -194 -85 -59 -42 -90 -51 -121 -34 -75 40 -61 114 29 146 209
76 254 84 304 50z m4014 -109 c49 -25 283 -253 332 -325 26 -37 46 -56 72 -64
77 -25 120 -56 236 -169 78 -76 139 -127 175 -145 38 -19 102 -75 210 -180
108 -106 172 -161 210 -180 39 -20 106 -78 235 -205 126 -124 198 -187 240
-209 41 -23 109 -82 215 -186 110 -108 171 -161 210 -180 63 -32 415 -373 477
-462 26 -37 46 -56 72 -64 66 -21 115 -51 171 -104 30 -29 82 -69 115 -88 106
-62 164 -137 135 -172 -19 -23 -43 -18 -101 24 -30 21 -73 48 -97 60 -55 28
-179 146 -227 216 -28 39 -48 58 -74 66 -81 26 -124 59 -296 229 -125 123
-196 186 -232 204 -29 14 -80 52 -115 84 -35 32 -92 76 -128 96 -49 28 -132
104 -335 306 -207 205 -283 274 -325 295 -38 19 -101 73 -210 180 -107 105
-172 161 -210 180 -64 32 -298 257 -356 341 -29 42 -46 56 -82 68 -80 28 -125
62 -253 193 -200 204 -222 270 -64 191z m-4516 -206 c25 -21 73 -53 106 -72
46 -25 146 -118 420 -390 289 -287 373 -364 425 -393 51 -28 119 -91 325 -297
212 -213 273 -268 330 -300 54 -30 109 -77 240 -210 131 -132 186 -180 240
-210 56 -31 115 -83 300 -270 185 -186 244 -238 300 -270 58 -32 120 -89 360
-330 240 -240 302 -297 360 -330 55 -30 112 -80 270 -240 154 -155 215 -209
265 -236 44 -24 105 -75 191 -160 140 -138 149 -142 206 -90 37 33 37 33 23
90 -14 60 -6 84 24 73 18 -7 16 -201 -3 -220 -29 -29 -223 -15 -266 19 -22 17
-69 47 -105 67 -48 26 -109 80 -235 207 -131 132 -186 180 -240 210 -52 29
-105 74 -210 180 -101 102 -158 151 -205 177 -52 29 -136 106 -425 393 -289
287 -373 364 -425 393 -51 28 -116 87 -295 267 -185 186 -244 238 -300 270
-56 31 -115 83 -300 270 -185 186 -244 238 -300 270 -56 31 -115 83 -300 270
-185 186 -244 238 -300 270 -67 37 -508 464 -559 540 -54 81 4 118 83 52z
m568 -4 c56 -26 96 -59 223 -183 101 -98 176 -162 215 -184 43 -24 127 -100
300 -270 176 -174 256 -246 300 -270 43 -24 120 -92 270 -240 150 -148 227
-217 270 -240 43 -24 121 -93 270 -240 143 -142 228 -217 268 -239 84 -47 130
-94 181 -181 24 -42 52 -83 61 -91 24 -20 43 -62 56 -120 21 -99 90 -139 152
-89 59 46 55 142 -8 216 -73 85 -113 196 -80 223 30 25 69 -2 244 -174 121
-119 193 -182 229 -200 29 -15 85 -56 124 -92 57 -52 102 -81 228 -144 185
-92 207 -110 260 -201 50 -85 97 -125 191 -164 84 -35 118 -73 145 -165 9 -30
25 -79 35 -108 39 -111 17 -148 -133 -223 -55 -27 -118 -63 -140 -79 -60 -44
-86 -40 -160 26 -35 31 -85 67 -113 81 -35 18 -116 91 -265 238 -160 158 -229
219 -270 240 -43 21 -123 95 -360 330 -237 236 -317 309 -360 330 -42 21 -114
86 -300 270 -185 183 -258 249 -300 270 -40 20 -106 78 -240 210 -134 132
-200 190 -240 210 -42 21 -119 91 -330 300 -216 213 -288 279 -336 304 -103
54 -574 534 -574 585 0 91 76 117 187 64z m5461 -1616 c5 -31 -27 -65 -102
-108 -32 -20 -78 -51 -101 -70 -23 -18 -87 -55 -141 -80 -54 -25 -120 -63
-145 -84 -26 -22 -71 -53 -100 -71 -30 -17 -84 -60 -121 -95 -48 -45 -80 -66
-110 -74 -24 -6 -72 -20 -107 -32 -66 -21 -134 -28 -147 -15 -18 17 102 116
211 173 61 32 128 73 151 91 23 18 86 54 140 79 54 25 120 63 145 84 26 22 70
53 99 70 30 17 72 47 95 65 98 81 226 117 233 67z m-2348 -213 c30 -11 86 -29
123 -40 38 -10 107 -39 155 -63 48 -24 103 -47 122 -51 19 -4 62 -17 95 -30
73 -27 197 -69 283 -94 96 -29 120 -57 152 -180 14 -54 165 -216 210 -226 28
-6 165 33 275 78 102 42 157 33 340 -56 88 -44 194 -89 235 -102 93 -29 159
-51 230 -76 30 -11 86 -29 123 -40 38 -11 105 -38 150 -60 45 -23 112 -50 150
-60 37 -11 107 -39 155 -63 48 -23 110 -48 137 -55 28 -6 97 -34 155 -60 101
-47 205 -85 320 -117 30 -8 102 -37 160 -63 101 -47 186 -78 333 -121 38 -11
107 -40 155 -64 48 -24 103 -47 122 -51 19 -4 62 -17 95 -30 73 -27 197 -69
283 -94 156 -46 155 -146 -1 -166 -34 -5 -68 -20 -120 -56 -83 -56 -125 -62
-205 -30 -52 21 -174 61 -268 89 -34 11 -84 35 -110 54 -72 52 -90 59 -166 69
-50 6 -98 22 -167 55 -53 25 -130 56 -171 69 -94 29 -159 51 -230 76 -30 11
-86 29 -123 40 -38 11 -105 38 -150 60 -45 23 -113 50 -151 61 -37 10 -82 26
-99 35 -22 11 -73 18 -162 23 -162 8 -237 39 -356 146 -82 74 -179 127 -282
155 -38 11 -105 38 -150 60 -45 23 -112 50 -150 60 -38 11 -104 38 -149 60
-83 42 -214 93 -283 111 -22 6 -67 19 -100 29 -33 11 -91 29 -129 40 -38 11
-83 27 -100 36 -22 12 -70 18 -164 23 -165 8 -453 137 -593 265 -39 36 -94 77
-121 91 -59 30 -124 87 -144 127 -51 98 141 189 286 136z m4720 -179 c27 -14
40 -64 40 -152 0 -133 -36 -179 -175 -219 -38 -11 -91 -29 -117 -40 -92 -38
-151 -16 -163 58 -3 21 -10 60 -15 86 -33 161 7 215 165 228 57 4 107 15 135
28 49 22 100 27 130 11z m-3495 -261 c-8 -12 -45 -12 -45 0 0 10 30 20 43 14
4 -3 5 -9 2 -14z m-2091 -702 c46 -33 17 -88 -74 -141 -31 -18 -78 -50 -105
-70 -27 -21 -117 -72 -199 -113 -83 -41 -173 -92 -201 -113 -27 -21 -73 -51
-101 -68 -27 -16 -71 -45 -97 -65 -26 -20 -89 -56 -141 -80 -70 -34 -113 -62
-171 -116 -178 -166 -485 -265 -485 -156 0 32 29 53 181 130 71 36 144 79 163
95 18 16 83 54 144 84 60 30 125 68 144 85 19 16 68 51 110 78 145 93 199 128
266 177 37 26 137 83 223 126 85 43 169 90 186 104 65 55 121 70 157 43z
m2000 -92 c30 -28 33 -47 10 -69 -56 -57 -158 -1 -126 69 16 35 78 35 116 0z
m237 -221 c40 -43 36 -245 -6 -305 -45 -64 -106 -107 -162 -113 -27 -3 -82
-14 -124 -24 -116 -28 -126 -20 -140 113 -5 44 -11 103 -15 132 -8 65 21 99
94 108 26 3 62 8 79 11 18 3 65 27 105 54 87 59 130 65 169 24z m-5247 -43
c50 -42 -17 -108 -144 -141 -25 -6 -71 -27 -103 -47 -111 -67 -306 3 -220 79
112 100 398 166 467 109z m548 -194 c90 -44 101 -65 93 -165 -11 -131 28 -154
140 -84 60 37 60 37 187 37 174 0 210 -27 228 -169 29 -235 227 -309 490 -186
161 76 216 77 317 7 42 -29 98 -56 139 -69 38 -11 107 -39 154 -63 47 -23 108
-47 135 -54 28 -6 97 -34 155 -60 101 -47 186 -78 333 -121 38 -11 107 -40
155 -64 48 -23 110 -48 137 -55 28 -6 124 -47 215 -90 155 -75 230 -103 393
-151 38 -11 105 -39 150 -61 45 -23 112 -50 150 -60 38 -11 105 -38 150 -60
45 -23 112 -50 150 -60 38 -11 104 -38 149 -60 44 -22 114 -51 157 -64 201
-61 241 -83 241 -133 0 -54 -21 -69 -113 -82 -33 -5 -103 -30 -166 -59 -141
-65 -163 -66 -290 -5 -53 25 -127 55 -164 65 -38 11 -105 38 -150 60 -45 23
-112 50 -150 60 -38 11 -105 38 -150 60 -45 23 -112 50 -150 60 -37 11 -107
39 -155 63 -48 23 -109 48 -137 55 -27 6 -97 34 -155 60 -101 47 -186 78 -333
121 -38 11 -107 40 -155 64 -48 23 -109 48 -137 55 -27 6 -124 47 -215 90
-155 74 -249 110 -380 147 -30 8 -102 37 -160 63 -98 46 -196 82 -316 116 -28
8 -121 49 -208 91 -87 42 -190 85 -228 95 -38 11 -108 39 -156 63 -48 23 -109
48 -137 55 -27 6 -124 47 -215 90 -154 74 -229 103 -390 150 -139 42 -158 131
-48 225 77 67 324 79 440 23z m-1094 -182 c28 -13 69 -27 89 -31 20 -4 62 -17
92 -29 31 -13 81 -28 112 -34 33 -7 93 -33 145 -63 97 -56 206 -108 226 -108
61 0 169 -67 132 -81 -52 -20 -108 -9 -223 45 -64 29 -142 58 -175 65 -33 6
-97 32 -150 60 -50 27 -109 52 -130 56 -46 8 -171 68 -203 98 -55 50 -3 63 85
22z m1004 -387 c92 -48 114 -78 55 -78 -39 0 -183 68 -212 100 -37 41 61 27
157 -22z m437 -187 c58 -27 124 -53 146 -57 40 -7 276 -119 328 -156 82 -58
-19 -50 -153 12 -59 27 -125 52 -146 56 -56 8 -338 154 -342 177 -6 31 56 20
167 -32z m649 -271 c42 -26 41 -40 -5 -40 -39 0 -103 31 -103 50 0 17 74 11
108 -10z m211 -70 c119 -57 150 -90 84 -90 -55 0 -223 83 -223 111 0 19 78 8
139 -21z m283 -110 c29 -10 78 -24 109 -30 34 -7 91 -31 145 -62 113 -65 199
-104 249 -114 21 -4 88 -31 149 -60 60 -29 128 -56 150 -60 23 -3 64 -17 91
-29 28 -12 68 -25 90 -29 68 -13 235 -103 235 -128 0 -16 -65 -8 -135 17 -38
13 -78 25 -87 25 -10 0 -41 11 -71 23 -29 13 -69 27 -89 31 -21 4 -88 31 -149
61 -62 30 -131 57 -153 61 -23 3 -79 25 -126 49 -105 51 -131 61 -200 75 -73
14 -330 155 -330 180 0 16 65 11 122 -10z m1437 -569 c58 -26 132 -53 165 -60
33 -6 95 -30 141 -56 45 -25 113 -52 151 -61 38 -8 110 -37 159 -64 50 -26
108 -51 130 -55 90 -14 219 -115 147 -115 -27 0 -155 35 -237 64 -38 14 -80
26 -92 26 -13 0 -66 23 -119 51 -53 27 -127 57 -165 65 -40 10 -100 34 -146
61 -43 24 -118 65 -168 90 -211 107 -182 154 34 54z m1361 -336 c0 -18 -31
-35 -64 -35 -30 0 -32 7 -9 32 20 22 73 25 73 3z"/>
</g>
</svg>
