<?xml version="1.0" standalone="no"?>
<!DOCTYPE svg PUBLIC "-//W3C//DTD SVG 20010904//EN"
 "http://www.w3.org/TR/2001/REC-SVG-20010904/DTD/svg10.dtd">
<svg version="1.0" xmlns="http://www.w3.org/2000/svg"
 width="1152.000000pt" height="834.000000pt" viewBox="0 0 1152.000000 834.000000"
 preserveAspectRatio="xMidYMid meet">
<metadata>
Created by potrace 1.16, written by Peter Selinger 2001-2019
</metadata>
<g transform="translate(0.000000,834.000000) scale(0.100000,-0.100000)"
fill="#f97316" stroke="none">
<path d="M10175 7408 c-16 -6 -129 -14 -250 -18 -197 -6 -225 -9 -267 -28 -26
-12 -80 -26 -120 -32 -40 -5 -95 -19 -122 -31 -34 -15 -82 -24 -150 -29 -68
-5 -116 -15 -148 -29 -26 -12 -80 -25 -120 -31 -40 -5 -95 -19 -122 -31 -34
-15 -82 -24 -150 -29 -68 -5 -116 -15 -148 -29 -26 -12 -80 -25 -120 -31 -40
-5 -95 -19 -122 -31 -34 -15 -82 -24 -150 -29 -68 -5 -116 -15 -148 -29 -26
-12 -80 -25 -120 -31 -40 -5 -94 -18 -120 -30 -26 -11 -80 -24 -120 -30 -40
-5 -94 -18 -120 -30 -26 -11 -80 -24 -120 -30 -40 -5 -95 -19 -122 -31 -34
-15 -82 -24 -150 -29 -68 -5 -116 -15 -148 -29 -26 -12 -80 -25 -120 -31 -40
-5 -95 -19 -122 -31 -34 -15 -82 -24 -150 -29 -70 -6 -116 -15 -150 -30 -35
-16 -81 -25 -150 -30 -68 -5 -116 -15 -148 -29 -26 -12 -80 -25 -120 -31 -40
-5 -95 -19 -122 -31 -34 -15 -82 -24 -150 -29 -68 -5 -116 -15 -148 -29 -26
-12 -80 -25 -120 -31 -40 -5 -94 -18 -120 -30 -26 -11 -80 -24 -120 -30 -40
-5 -95 -19 -122 -31 -34 -15 -82 -24 -150 -29 -68 -5 -116 -15 -148 -29 -26
-12 -80 -25 -120 -31 -40 -5 -95 -19 -122 -31 -34 -15 -82 -24 -150 -29 -68
-5 -116 -15 -148 -29 -26 -12 -80 -25 -120 -31 -40 -5 -95 -19 -122 -31 -34
-15 -82 -24 -150 -29 -68 -5 -116 -15 -148 -29 -26 -12 -80 -25 -120 -31 -40
-5 -95 -19 -122 -31 -34 -15 -82 -24 -150 -29 -68 -5 -116 -15 -148 -29 -26
-12 -80 -25 -120 -31 -40 -5 -95 -19 -122 -31 -34 -15 -82 -24 -150 -29 -68
-5 -116 -15 -148 -29 -26 -12 -80 -25 -120 -31 -40 -5 -95 -19 -122 -31 -34
-15 -82 -24 -150 -29 -68 -5 -116 -15 -148 -29 -26 -12 -80 -25 -120 -31 -40
-5 -94 -18 -120 -30 -26 -11 -78 -24 -116 -29 -75 -9 -107 -23 -166 -70 -22
-17 -64 -38 -95 -47 -31 -8 -78 -25 -106 -36 -37 -16 -82 -23 -176 -28 -151
-8 -179 -21 -280 -128 -195 -206 -73 -641 231 -820 77 -46 149 -39 290 28 115
55 115 55 335 60 202 6 224 8 269 30 36 16 79 25 150 30 70 6 116 15 150 30
35 16 81 25 150 30 68 5 116 15 148 29 26 12 80 25 120 31 40 5 94 18 120 30
26 11 80 24 120 30 40 5 94 18 120 30 26 11 80 24 120 30 40 5 95 19 122 31
34 15 82 24 150 29 68 5 116 15 148 29 26 12 80 25 120 31 40 5 95 19 122 31
34 15 82 24 150 29 68 5 116 15 148 29 26 12 80 25 120 31 40 5 95 19 122 31
34 15 82 24 150 29 71 6 116 15 151 31 71 33 154 32 189 0 58 -54 19 -117 -82
-131 -67 -9 -83 -16 -164 -73 -57 -40 -57 -40 -186 -47 -159 -8 -177 -17 -312
-156 -70 -72 -99 -110 -108 -140 -17 -58 -17 -1708 0 -1768 33 -116 414 -443
548 -471 19 -4 62 -17 95 -30 75 -28 199 -69 288 -95 38 -11 107 -40 155 -64
48 -24 103 -47 122 -51 19 -4 62 -17 95 -30 33 -12 82 -30 109 -40 61 -22 76
-54 76 -163 0 -129 -48 -188 -239 -295 -326 -182 -203 -550 227 -682 43 -13
97 -31 122 -40 70 -26 317 -17 382 13 26 12 79 26 118 31 204 26 430 221 430
371 0 92 -153 282 -329 408 -78 56 -91 84 -91 194 0 149 30 196 142 229 35 10
88 27 118 38 30 11 73 20 96 21 55 0 136 42 182 95 115 131 65 299 -120 403
-32 17 -87 59 -123 92 -37 33 -106 81 -157 107 -127 67 -141 99 -77 180 121
151 107 312 -40 467 -102 106 -114 110 -343 114 -171 3 -206 1 -265 -16 -121
-34 -137 -9 -131 215 4 190 24 214 153 182 35 -9 58 -8 112 4 38 9 88 18 113
21 25 3 66 14 92 26 26 11 80 24 120 30 40 5 94 18 120 30 26 11 80 24 120 30
40 5 94 18 120 30 26 11 80 24 120 30 40 5 94 18 120 30 26 11 79 24 117 29
315 40 338 409 31 501 -135 40 -140 56 -140 431 0 352 1 357 76 384 27 9 70
26 96 36 26 11 80 24 120 29 40 5 95 19 122 31 34 15 82 24 150 29 70 6 116
15 150 30 35 16 81 25 150 30 68 5 116 15 148 29 26 12 80 25 120 31 40 5 95
19 122 31 34 15 82 24 150 29 68 5 116 15 148 29 26 12 80 25 120 31 40 5 94
18 120 30 26 11 80 24 120 30 40 5 95 19 122 31 34 15 82 24 150 29 68 5 116
15 148 29 26 12 80 25 120 31 40 5 94 18 120 30 26 11 80 24 120 30 40 5 94
18 120 30 26 11 80 24 120 30 40 5 96 19 123 31 33 15 77 24 130 27 119 6 295
67 405 140 47 31 102 67 123 81 251 163 255 489 10 721 -112 107 -201 145
-278 118z m-138 -244 c72 -54 148 -244 148 -374 0 -175 -53 -225 -259 -240
-68 -5 -116 -15 -148 -29 -26 -12 -80 -25 -120 -31 -40 -5 -94 -18 -120 -30
-26 -11 -80 -24 -120 -30 -40 -5 -94 -18 -120 -30 -26 -11 -80 -24 -120 -30
-40 -5 -95 -19 -122 -31 -34 -15 -82 -24 -150 -29 -68 -5 -116 -15 -148 -29
-26 -12 -80 -25 -120 -31 -40 -5 -94 -18 -120 -30 -26 -11 -80 -24 -120 -30
-40 -5 -95 -19 -122 -31 -34 -15 -82 -24 -150 -29 -68 -5 -116 -15 -148 -29
-26 -12 -80 -25 -120 -31 -40 -5 -95 -19 -122 -31 -34 -15 -82 -24 -150 -29
-70 -6 -116 -15 -150 -30 -35 -16 -81 -25 -150 -30 -68 -5 -116 -15 -148 -29
-26 -12 -81 -26 -122 -31 -42 -5 -89 -16 -105 -24 -16 -9 -59 -24 -97 -35 -38
-10 -87 -27 -109 -37 -27 -12 -81 -19 -170 -24 -101 -6 -140 -12 -177 -29 -26
-12 -80 -25 -120 -31 -40 -5 -94 -18 -120 -30 -26 -11 -80 -24 -120 -30 -40
-5 -94 -18 -120 -30 -26 -11 -81 -25 -122 -30 -42 -5 -89 -16 -105 -24 -16 -9
-59 -24 -97 -35 -38 -10 -86 -26 -107 -35 -21 -9 -70 -21 -110 -26 -40 -5 -94
-19 -122 -31 -42 -20 -74 -24 -210 -29 -137 -6 -167 -10 -209 -30 -35 -16 -79
-25 -150 -30 -68 -5 -116 -15 -148 -29 -26 -12 -80 -25 -120 -31 -40 -5 -95
-19 -122 -31 -34 -15 -82 -24 -150 -29 -68 -5 -116 -15 -148 -29 -26 -12 -80
-25 -120 -31 -40 -5 -95 -19 -122 -31 -34 -15 -82 -24 -150 -29 -68 -5 -116
-15 -148 -29 -26 -12 -80 -25 -120 -31 -40 -5 -94 -18 -120 -30 -26 -11 -80
-24 -120 -30 -40 -5 -94 -18 -120 -30 -26 -11 -80 -24 -120 -30 -40 -5 -95
-19 -122 -31 -34 -15 -82 -24 -150 -29 -70 -6 -116 -15 -150 -30 -35 -16 -81
-25 -150 -30 -71 -6 -116 -15 -151 -31 -152 -70 -217 -26 -226 153 -6 123 -6
123 -67 247 -86 172 -82 197 34 214 22 4 61 16 87 27 25 11 79 24 119 30 40 5
95 19 122 31 34 15 82 24 150 29 68 5 116 15 148 29 26 12 80 25 120 31 40 5
95 19 122 31 34 15 82 24 150 29 68 5 116 15 148 29 26 12 80 25 120 31 40 5
95 19 122 31 34 15 82 24 150 29 68 5 116 15 148 29 26 12 80 25 120 31 40 5
95 19 122 31 34 15 82 24 150 29 68 5 116 15 148 29 26 12 80 25 120 31 40 5
95 19 122 31 34 15 82 24 150 29 68 5 116 15 148 29 26 12 80 25 120 31 40 5
95 19 122 31 34 15 82 24 150 29 68 5 116 15 148 29 26 12 80 25 120 31 40 5
94 18 120 30 26 11 80 24 120 30 40 5 95 19 122 31 34 15 82 24 150 29 68 5
116 15 148 29 26 12 80 25 120 31 40 5 95 19 122 31 34 15 82 24 150 29 70 6
116 15 150 30 35 16 81 25 150 30 68 5 116 15 148 29 26 12 80 25 120 31 40 5
95 19 122 31 34 15 82 24 150 29 68 5 116 15 148 29 26 12 80 25 120 31 40 5
94 18 120 30 26 11 80 24 120 30 40 5 94 18 120 30 26 11 80 24 120 30 40 5
95 19 122 31 34 15 82 24 150 29 68 5 116 15 148 29 26 12 80 25 120 31 40 5
95 19 122 31 34 15 82 24 150 29 68 5 116 15 148 29 26 12 80 25 120 31 40 5
95 19 122 31 34 15 82 24 150 29 68 5 116 15 148 29 26 12 81 26 123 31 41 5
86 15 98 22 83 44 339 53 394 12z m315 -41 c31 -35 60 -105 54 -129 -12 -45
-40 -20 -76 63 -29 69 -16 109 22 66z m-3858 -1584 c28 -22 35 -73 17 -135 -6
-22 -4 -52 6 -95 24 -104 15 -448 -13 -485 -44 -60 -64 -67 -201 -74 -128 -6
-128 -6 -243 -60 -172 -81 -256 -77 -324 14 -28 37 -37 380 -13 486 8 36 12
81 10 102 -6 47 22 78 72 78 43 0 43 2 0 -51 -86 -109 50 -204 198 -139 25 11
80 25 121 30 42 5 88 16 104 24 15 8 54 22 87 31 166 48 194 105 90 184 -64
48 -67 64 -22 91 41 26 78 25 111 -1z m-268 -60 c10 -17 -21 -41 -57 -42 -41
-2 -46 21 -9 40 31 16 57 16 66 2z m-240 -61 c12 -19 -35 -48 -78 -48 -48 0
-47 17 3 42 40 21 65 23 75 6z m-502 -153 c42 -42 36 -499 -7 -542 -42 -42
-172 -42 -214 0 -54 53 -46 499 9 528 50 27 190 36 212 14z m-4206 -82 c86
-64 132 -443 63 -517 -128 -136 -314 233 -241 476 19 66 115 88 178 41z m341
-74 c68 -136 55 -371 -18 -305 -15 14 -19 36 -24 139 -4 96 -9 132 -27 170
-50 112 13 108 69 -4z m3352 -288 c29 -23 12 -51 -32 -51 -23 0 -59 21 -59 35
0 32 59 42 91 16z m-296 -105 c91 -38 42 -145 -67 -146 -46 -1 -104 -29 -167
-83 -75 -64 -90 -61 -106 26 -17 91 28 186 99 206 51 15 202 13 241 -3z m2098
-77 c116 -58 109 -94 -26 -148 -128 -51 -187 -35 -187 51 0 96 112 147 213 97z
m-478 -103 c97 -41 82 -119 -32 -165 -125 -50 -183 -35 -183 49 0 93 118 156
215 116z m-535 -79 c194 -100 122 -253 -95 -202 -33 8 -85 15 -115 15 -141 0
-307 130 -240 188 53 45 361 44 450 -1z m-905 -114 c56 -23 175 -63 279 -94
187 -55 190 -60 196 -394 6 -259 7 -272 30 -320 31 -65 41 -230 17 -287 -16
-39 -24 -42 -142 -67 -53 -10 -180 -51 -257 -82 -27 -11 -79 -24 -118 -28 -69
-9 -141 -41 -170 -76 -44 -53 -94 -51 -110 4 -23 76 -8 1305 15 1331 41 46
164 52 260 13z m1259 -1139 c9 -8 16 -19 16 -24 0 -62 -377 -58 -429 4 -26 31
4 36 206 36 161 0 194 -3 207 -16z m-574 -199 c69 -35 82 -59 91 -171 9 -128
27 -154 179 -267 56 -41 59 -67 10 -84 -64 -23 -123 -8 -300 76 -153 73 -242
108 -378 147 -52 14 -177 61 -239 89 -72 32 -25 73 147 127 36 11 86 29 112
39 26 11 80 24 120 29 40 5 89 16 108 24 51 22 94 19 150 -9z m439 -86 c78
-27 35 -179 -52 -179 -99 0 -118 160 -22 183 33 8 41 7 74 -4z m370 -205 c73
-61 34 -114 -96 -129 -75 -8 -99 -2 -107 30 -24 93 125 165 203 99z m-975
-305 c35 -28 33 -39 -8 -39 -32 0 -86 32 -86 51 0 17 67 9 94 -12z m645 -413
c42 -42 40 -351 -2 -393 -40 -40 -114 -40 -154 0 -32 31 -48 278 -24 358 21
70 125 90 180 35z m-490 -620 c47 -50 48 -156 1 -171 -75 -24 -141 75 -106
158 19 46 68 52 105 13z m548 -38 c61 -62 39 -216 -35 -238 -73 -23 -207 -10
-239 23 -57 56 -36 209 32 238 50 21 213 6 242 -23z m373 -17 c25 -47 -9 -106
-67 -117 -65 -13 -80 79 -19 121 29 21 73 19 86 -4z"/>
</g>
</svg>
