<?xml version="1.0" standalone="no"?>
<!DOCTYPE svg PUBLIC "-//W3C//DTD SVG 20010904//EN"
 "http://www.w3.org/TR/2001/REC-SVG-20010904/DTD/svg10.dtd">
<svg version="1.0" xmlns="http://www.w3.org/2000/svg"
 width="1038.000000pt" height="732.000000pt" viewBox="0 0 1038.000000 732.000000"
 preserveAspectRatio="xMidYMid meet">
<metadata>
Created by potrace 1.16, written by Peter Selinger 2001-2019
</metadata>
<g transform="translate(0.000000,732.000000) scale(0.100000,-0.100000)"
fill="#f97316" stroke="none">
<path d="M4800 6484 c-8 -3 -37 -15 -65 -27 -45 -20 -74 -22 -300 -27 -236 -6
-253 -7 -300 -30 -41 -19 -73 -25 -180 -30 -101 -6 -140 -12 -177 -29 -26 -12
-80 -25 -120 -31 -40 -5 -95 -19 -123 -31 -33 -15 -76 -24 -130 -27 -76 -4
-213 -40 -345 -92 -25 -10 -70 -25 -100 -34 -30 -8 -91 -27 -135 -41 -112 -37
-686 -320 -754 -373 -31 -24 -74 -53 -96 -64 -22 -12 -65 -40 -95 -63 -30 -24
-75 -53 -100 -65 -69 -34 -540 -506 -580 -581 -17 -32 -46 -77 -66 -100 -20
-24 -46 -63 -59 -89 -13 -25 -42 -68 -64 -95 -23 -28 -46 -68 -52 -90 -10 -40
-23 -79 -54 -164 -14 -38 -15 -95 -11 -465 3 -231 6 -450 6 -486 1 -36 -2
-132 -5 -215 -6 -127 -4 -157 10 -195 9 -25 27 -79 40 -121 30 -97 142 -322
189 -378 19 -23 49 -68 66 -100 40 -75 451 -487 520 -521 25 -12 70 -41 100
-65 30 -23 71 -50 90 -60 19 -9 60 -36 90 -60 30 -23 71 -50 90 -60 19 -9 60
-36 90 -60 71 -55 286 -162 373 -187 38 -10 107 -38 155 -62 48 -24 103 -47
122 -51 19 -4 62 -17 95 -30 75 -28 199 -69 289 -96 38 -11 81 -26 97 -35 16
-8 63 -19 105 -24 41 -5 96 -19 122 -30 26 -12 80 -25 120 -30 40 -6 94 -19
120 -31 37 -17 76 -23 177 -29 105 -5 139 -11 180 -30 43 -20 72 -24 210 -30
139 -5 167 -9 215 -31 86 -38 1353 -38 1440 0 45 20 80 26 185 31 105 6 140
12 180 30 40 19 75 25 180 30 101 6 140 12 177 29 26 12 80 25 120 31 40 5 94
18 120 30 26 11 81 25 122 30 42 5 89 16 105 24 16 9 59 24 97 35 148 44 233
75 334 122 58 26 128 54 155 60 69 17 538 252 605 304 30 24 71 51 90 60 19
10 60 37 90 60 30 24 75 53 100 65 70 35 480 446 520 522 18 33 44 74 59 91
48 57 51 64 72 137 10 39 38 107 60 152 22 44 51 114 64 157 13 42 31 96 40
121 26 69 17 257 -16 325 -32 68 -32 161 0 230 16 36 25 79 31 151 5 69 14
116 30 150 28 63 28 125 0 188 -16 34 -25 81 -30 150 -5 68 -15 116 -29 148
-12 26 -26 80 -31 122 -11 85 -64 202 -124 275 -19 23 -49 68 -66 100 -65 122
-694 728 -820 791 -58 29 -130 71 -160 95 -71 55 -405 222 -493 247 -38 10
-109 39 -158 63 -67 34 -108 48 -164 55 -41 5 -91 17 -112 26 -21 9 -69 25
-107 35 -38 11 -81 26 -97 35 -16 8 -63 19 -105 24 -41 5 -96 19 -122 30 -26
12 -80 25 -120 30 -40 6 -94 19 -120 31 -37 17 -76 23 -177 29 -107 5 -139 11
-180 30 -48 23 -59 24 -360 30 -305 5 -311 5 -360 30 -48 24 -726 44 -785 24z
m790 -229 c65 -29 65 -29 360 -30 290 0 296 0 345 -24 41 -19 73 -25 180 -31
102 -5 141 -11 180 -29 28 -12 83 -26 123 -31 40 -6 94 -19 120 -30 26 -12 79
-25 119 -30 40 -5 89 -17 110 -26 21 -9 69 -25 107 -35 38 -11 81 -26 97 -35
16 -8 63 -19 105 -24 57 -7 103 -22 183 -59 58 -28 131 -57 162 -65 81 -23
394 -180 459 -230 30 -24 102 -67 160 -96 127 -63 587 -503 650 -621 17 -32
47 -77 67 -101 56 -67 104 -176 113 -260 5 -40 19 -95 31 -122 15 -34 24 -82
29 -150 5 -68 15 -116 29 -146 11 -25 21 -65 21 -90 0 -25 -10 -65 -21 -90
-14 -30 -24 -78 -29 -145 -4 -63 -15 -119 -28 -150 -11 -27 -28 -77 -37 -110
-16 -55 -27 -69 -139 -185 -84 -85 -133 -145 -156 -187 -38 -73 -106 -141
-177 -177 -28 -14 -82 -54 -122 -90 -57 -53 -102 -81 -231 -146 -88 -44 -187
-100 -220 -124 -36 -26 -80 -49 -111 -56 -29 -7 -80 -32 -118 -58 -36 -25 -93
-53 -126 -63 -33 -9 -103 -37 -155 -62 -52 -25 -120 -52 -150 -61 -76 -21
-206 -65 -262 -87 -26 -11 -80 -24 -120 -29 -40 -5 -94 -18 -120 -30 -26 -11
-80 -24 -120 -30 -40 -5 -95 -19 -123 -31 -39 -18 -77 -24 -180 -29 -105 -6
-140 -12 -180 -30 -43 -20 -72 -24 -210 -30 -141 -6 -166 -9 -210 -31 -79 -38
-1471 -38 -1550 0 -44 22 -69 25 -210 31 -138 6 -167 10 -210 30 -40 18 -75
24 -180 30 -103 5 -141 11 -180 29 -27 12 -83 26 -123 31 -40 6 -94 19 -120
30 -26 12 -80 25 -120 30 -40 5 -94 18 -120 29 -56 22 -186 66 -262 87 -30 9
-102 37 -160 64 -58 27 -131 56 -162 65 -81 22 -512 238 -578 289 -30 24 -71
51 -90 61 -19 9 -60 36 -90 59 -30 24 -78 55 -106 70 -80 43 -618 587 -634
641 -23 81 -9 840 17 900 12 28 29 75 37 107 10 33 31 74 52 99 19 24 46 64
59 89 13 25 40 66 60 90 20 24 48 67 62 94 34 69 335 373 407 412 28 15 76 46
106 70 30 23 71 50 90 59 19 10 60 37 90 61 66 51 616 327 698 349 31 9 77 25
102 35 25 10 70 25 100 34 79 22 207 65 265 89 31 12 89 23 150 27 67 5 117
15 149 29 28 12 82 26 121 31 39 5 93 19 121 31 38 17 78 23 179 29 107 6 139
12 180 31 48 23 60 24 285 26 217 1 240 3 290 23 30 13 66 26 80 31 77 25 724
4 790 -26z m-4427 -3036 c12 -6 132 -121 267 -254 161 -159 260 -250 290 -265
25 -12 70 -41 100 -65 30 -23 71 -50 90 -60 19 -9 60 -36 90 -60 67 -52 536
-287 605 -304 28 -6 97 -34 155 -60 101 -47 186 -78 334 -122 38 -11 81 -26
97 -35 16 -8 63 -19 105 -24 41 -5 96 -19 122 -30 26 -12 80 -25 120 -30 40
-6 94 -19 120 -31 37 -17 76 -23 177 -29 105 -5 139 -11 180 -30 43 -20 72
-24 210 -30 139 -5 167 -9 215 -31 87 -38 1473 -38 1560 0 48 22 76 26 215 31
138 6 167 10 210 30 41 19 75 25 180 30 101 6 140 12 177 29 26 12 80 25 120
31 40 5 94 18 120 30 26 11 81 25 122 30 42 5 89 16 105 24 16 9 59 24 97 35
147 44 233 75 334 121 58 27 130 56 160 64 31 8 82 34 114 57 32 23 87 50 121
61 38 11 88 36 122 62 32 24 130 80 219 124 130 65 175 93 232 146 39 36 95
77 124 92 72 36 298 259 345 339 108 186 229 110 143 -91 -11 -26 -25 -68 -31
-93 -5 -25 -32 -93 -59 -151 -27 -58 -56 -130 -65 -162 -9 -33 -30 -73 -51
-99 -19 -24 -47 -66 -61 -93 -34 -68 -276 -314 -347 -352 -28 -15 -76 -46
-106 -70 -30 -23 -71 -50 -90 -59 -19 -10 -60 -37 -90 -60 -71 -56 -499 -269
-587 -294 -38 -10 -105 -37 -150 -60 -45 -22 -112 -50 -150 -61 -99 -29 -221
-69 -275 -91 -26 -11 -80 -24 -120 -29 -40 -5 -94 -18 -120 -30 -26 -11 -80
-24 -120 -30 -40 -5 -95 -19 -123 -31 -39 -18 -78 -24 -180 -29 -105 -6 -140
-12 -180 -30 -40 -19 -75 -25 -180 -30 -107 -6 -139 -12 -180 -31 -79 -38
-1352 -38 -1430 0 -44 21 -70 25 -210 31 -138 5 -167 9 -210 29 -41 19 -75 25
-180 31 -102 5 -141 11 -180 29 -27 12 -83 26 -123 31 -40 6 -94 19 -120 30
-26 12 -79 25 -119 30 -40 5 -89 17 -110 26 -21 8 -72 26 -113 39 -94 29 -159
51 -230 76 -30 11 -86 29 -123 40 -38 11 -105 38 -150 60 -45 23 -112 50 -150
60 -88 25 -276 119 -347 174 -30 23 -71 50 -90 60 -19 9 -60 36 -90 60 -30 23
-71 50 -90 60 -19 9 -60 36 -90 59 -30 24 -78 55 -106 70 -71 38 -313 284
-347 352 -14 27 -42 70 -62 94 -47 56 -149 258 -174 347 -11 37 -29 93 -40
123 -30 81 -24 169 12 192 15 10 15 10 40 -3z"/>
<path d="M4584 6128 c-22 -3 -61 -16 -89 -29 -42 -19 -75 -23 -210 -29 -137
-6 -167 -10 -210 -30 -40 -18 -76 -24 -180 -30 -101 -6 -141 -12 -179 -29 -28
-12 -82 -26 -121 -31 -39 -5 -93 -18 -120 -30 -27 -12 -82 -25 -122 -30 -54
-7 -95 -21 -162 -55 -49 -24 -120 -53 -158 -63 -88 -25 -675 -318 -733 -367
-24 -20 -67 -48 -94 -62 -38 -19 -133 -107 -364 -336 -343 -342 -362 -367
-416 -544 -13 -43 -32 -98 -41 -123 -40 -109 -17 -380 44 -502 43 -86 55 -120
62 -182 17 -152 59 -212 351 -503 182 -180 267 -258 304 -276 27 -14 70 -42
95 -62 24 -21 161 -95 304 -166 240 -118 326 -153 475 -195 30 -9 98 -36 150
-61 52 -25 126 -54 164 -64 38 -11 81 -26 97 -35 16 -8 63 -19 105 -24 41 -5
96 -19 122 -31 31 -14 81 -24 147 -29 67 -5 116 -15 150 -30 34 -15 83 -25
150 -30 71 -6 118 -16 162 -34 99 -41 1748 -41 1846 0 51 22 85 28 192 34 102
6 141 12 180 30 35 15 81 24 150 30 59 4 114 14 132 23 17 9 61 25 99 36 163
48 238 77 394 152 139 66 177 80 242 89 88 11 669 291 758 365 24 20 67 48 94
62 34 17 108 82 224 197 216 212 228 228 253 316 11 39 40 113 66 163 42 85
46 100 53 193 5 72 14 114 31 150 31 67 40 313 14 384 -9 25 -28 80 -41 123
-54 179 -69 198 -446 574 -343 341 -343 341 -448 393 -58 29 -130 71 -160 95
-68 53 -178 108 -247 125 -29 6 -121 46 -205 87 -84 41 -184 84 -222 94 -38
11 -81 26 -97 35 -16 8 -63 19 -105 24 -41 5 -96 19 -122 30 -26 12 -80 25
-120 30 -40 6 -94 19 -120 31 -37 17 -76 23 -177 29 -105 5 -140 11 -180 30
-40 18 -76 24 -180 30 -109 6 -140 12 -195 35 -64 28 -1208 47 -1346 23z
m1351 -227 c41 -19 73 -25 180 -31 105 -5 140 -11 180 -30 40 -18 75 -24 180
-30 102 -5 141 -11 180 -29 28 -12 83 -26 123 -31 40 -6 94 -19 120 -30 26
-12 79 -25 119 -30 40 -5 89 -17 110 -26 21 -9 69 -25 106 -35 37 -11 132 -51
210 -90 78 -40 173 -80 210 -91 87 -24 157 -59 227 -113 30 -23 102 -66 160
-95 105 -52 105 -52 362 -308 279 -278 304 -311 347 -457 11 -39 29 -95 40
-125 25 -67 28 -194 7 -245 -23 -55 -55 -48 -109 23 -71 91 -337 346 -387 372
-25 12 -70 41 -100 65 -30 23 -71 50 -90 60 -19 9 -60 36 -90 60 -61 47 -535
288 -590 300 -19 4 -62 17 -95 30 -75 28 -199 69 -289 96 -38 11 -81 26 -97
35 -16 8 -63 19 -105 24 -41 5 -96 19 -122 30 -26 12 -80 25 -120 30 -40 6
-94 20 -120 32 -41 19 -71 22 -237 28 -173 5 -195 8 -245 30 -86 39 -1533 39
-1620 1 -48 -22 -76 -26 -215 -31 -138 -6 -167 -10 -210 -30 -35 -16 -74 -25
-130 -28 -77 -4 -216 -41 -347 -94 -26 -10 -82 -23 -123 -28 -41 -5 -88 -16
-104 -24 -16 -9 -59 -24 -97 -34 -89 -25 -662 -311 -734 -367 -30 -24 -74 -52
-96 -64 -23 -11 -73 -49 -112 -85 -39 -36 -95 -77 -124 -92 -37 -19 -108 -81
-238 -209 -189 -186 -217 -209 -244 -199 -41 16 -51 217 -15 314 11 30 29 86
40 123 42 144 64 175 306 419 153 153 242 235 277 254 28 15 76 46 106 70 71
55 619 328 707 353 37 10 111 40 163 65 71 34 114 48 170 55 41 6 96 19 122
31 26 11 80 24 120 30 40 5 96 19 123 31 39 18 78 24 180 29 105 6 139 12 180
31 43 20 71 24 210 29 107 4 168 10 185 20 70 38 86 39 755 37 650 -2 650 -2
700 -26z m60 -780 c46 -22 66 -25 240 -31 168 -5 196 -8 240 -28 28 -13 83
-27 123 -32 40 -6 94 -19 120 -30 26 -12 79 -25 119 -30 40 -5 89 -17 110 -26
21 -8 72 -26 113 -39 94 -29 159 -51 230 -76 30 -11 86 -29 123 -40 90 -26
517 -240 587 -294 30 -23 71 -50 90 -60 19 -9 60 -36 90 -59 30 -24 78 -55
107 -71 68 -36 193 -165 228 -235 16 -32 64 -92 115 -145 135 -139 139 -160
61 -325 -28 -58 -57 -132 -67 -165 -19 -72 -184 -250 -277 -301 -29 -15 -79
-48 -112 -73 -75 -57 -567 -300 -614 -303 -55 -5 -60 17 -24 113 55 154 75
214 85 264 40 202 39 191 24 268 -8 39 -19 95 -24 122 -6 28 -19 75 -31 105
-11 30 -25 75 -32 100 -10 40 -36 71 -242 277 -232 231 -232 231 -555 392
-295 148 -330 162 -398 171 -42 5 -96 19 -122 30 -26 12 -80 25 -120 30 -40 6
-94 20 -120 32 -45 21 -63 22 -357 28 -304 5 -311 6 -365 30 -81 37 -278 37
-360 0 -52 -23 -67 -25 -305 -30 -230 -6 -254 -8 -297 -28 -26 -12 -80 -26
-120 -32 -40 -5 -94 -18 -120 -30 -26 -11 -80 -25 -122 -30 -57 -7 -97 -20
-163 -54 -48 -24 -120 -53 -160 -65 -46 -14 -92 -37 -130 -65 -32 -24 -105
-67 -163 -96 -105 -52 -105 -52 -368 -314 -315 -312 -316 -313 -346 -412 -13
-44 -31 -97 -40 -119 -39 -101 0 -222 88 -276 77 -47 123 -12 110 83 -13 101
-9 169 14 223 11 28 28 77 37 110 28 101 364 432 519 512 60 30 136 75 167 98
35 26 79 48 111 55 29 7 98 35 153 62 76 36 118 50 175 58 41 5 96 18 122 30
26 11 80 24 120 30 40 5 96 19 123 32 47 21 67 23 300 28 239 6 252 7 300 31
75 36 276 36 350 -1 49 -24 56 -24 360 -30 297 -5 312 -6 360 -28 28 -13 83
-27 123 -32 40 -6 94 -19 120 -30 26 -12 81 -25 122 -30 69 -8 101 -22 395
-169 320 -159 320 -159 457 -298 127 -129 137 -142 153 -198 9 -33 25 -81 36
-107 53 -130 55 -404 3 -525 -9 -21 -25 -69 -35 -106 -70 -248 -184 -380 -374
-436 -103 -30 -223 -70 -280 -94 -31 -12 -89 -23 -150 -27 -70 -6 -115 -15
-150 -31 -40 -18 -76 -24 -180 -29 -107 -6 -139 -12 -180 -31 -78 -37 -1771
-38 -1850 -1 -36 17 -78 26 -151 32 -69 5 -115 14 -150 30 -34 15 -80 24 -150
30 -68 5 -116 14 -150 29 -27 12 -82 26 -122 31 -40 5 -94 18 -120 29 -26 11
-67 25 -92 31 -25 6 -92 33 -150 60 -101 46 -186 77 -333 120 -91 27 -518 241
-587 294 -30 24 -78 55 -107 71 -92 49 -381 353 -422 443 -75 165 -67 272 26
361 53 50 90 95 108 131 37 73 161 200 235 239 33 18 91 61 129 96 39 35 89
74 113 86 24 12 68 41 98 64 69 54 616 328 707 355 37 10 93 28 123 39 30 11
73 21 95 21 22 1 58 8 80 16 22 9 74 26 115 39 41 13 93 31 115 40 22 10 85
21 140 25 70 6 115 15 150 31 43 20 72 24 210 29 107 4 168 10 185 20 70 38
82 39 845 37 740 -2 740 -2 790 -26z"/>
</g>
</svg>
