<?xml version="1.0" standalone="no"?>
<!DOCTYPE svg PUBLIC "-//W3C//DTD SVG 20010904//EN"
 "http://www.w3.org/TR/2001/REC-SVG-20010904/DTD/svg10.dtd">
<svg version="1.0" xmlns="http://www.w3.org/2000/svg"
 width="1032.000000pt" height="918.000000pt" viewBox="0 0 1032.000000 918.000000"
 preserveAspectRatio="xMidYMid meet">
<metadata>
Created by potrace 1.16, written by Peter Selinger 2001-2019
</metadata>
<g transform="translate(0.000000,918.000000) scale(0.100000,-0.100000)"
fill="#f97316" stroke="none">
<path d="M3589 8276 c-80 -29 -326 -271 -347 -342 -17 -58 -17 -750 0 -808 19
-64 98 -137 186 -170 143 -55 134 -105 -49 -291 -157 -161 -143 -102 -149
-627 -5 -448 -5 -448 -33 -475 -27 -28 -27 -28 -1105 -33 -1077 -5 -1077 -5
-1124 -32 -58 -35 -111 -96 -126 -147 -17 -55 -17 -2247 0 -2302 27 -92 125
-165 239 -180 38 -5 91 -19 117 -31 47 -23 47 -23 1009 -28 963 -5 963 -5 990
-33 28 -27 28 -27 33 -750 5 -722 5 -722 53 -814 91 -173 213 -262 473 -347
174 -57 2634 -57 2808 0 276 90 366 158 407 305 11 39 27 86 37 103 15 28 17
96 22 753 6 848 -9 771 152 784 65 5 108 14 143 31 50 23 50 23 985 28 1051 6
976 -1 1063 100 59 70 57 22 57 1230 0 1208 2 1160 -57 1230 -85 99 -53 94
-733 100 -605 5 -605 5 -655 30 -50 25 -50 25 -472 30 -542 6 -477 -55 -483
453 -5 430 -12 463 -126 597 -42 52 -124 213 -124 246 0 33 23 51 82 64 100
21 192 97 216 179 19 62 15 645 -4 696 -27 70 -43 119 -54 163 -13 51 -175
226 -249 270 -53 31 -3098 49 -3182 18z m3132 -196 c51 -14 88 -59 110 -132
10 -35 28 -89 39 -121 36 -102 26 -605 -13 -644 -44 -44 -3350 -44 -3394 0
-35 34 -50 670 -18 752 19 52 91 122 141 140 48 17 3073 22 3135 5z m-239
-1140 c49 -14 89 -62 147 -178 27 -54 66 -118 87 -142 103 -124 109 -154 109
-582 0 -388 0 -388 -26 -413 -60 -60 -150 -42 -251 51 -39 36 -93 77 -121 91
-28 14 -95 67 -149 119 -112 108 -387 254 -615 328 -144 47 -892 53 -985 8
-26 -12 -81 -27 -122 -32 -86 -11 -187 -57 -276 -125 -30 -24 -71 -51 -90 -60
-19 -10 -60 -37 -90 -60 -30 -24 -75 -53 -99 -65 -25 -12 -101 -78 -171 -145
-116 -113 -131 -125 -186 -140 -32 -9 -79 -23 -104 -30 -109 -30 -110 -25
-110 482 0 493 -13 442 155 614 108 111 126 134 140 181 19 67 24 73 60 92 37
19 2629 24 2697 6z m-857 -914 c22 -10 71 -27 108 -37 156 -44 420 -191 528
-294 54 -52 121 -106 149 -120 29 -15 80 -53 115 -85 111 -103 42 -94 765
-100 635 -5 635 -5 700 -35 65 -30 65 -30 622 -30 558 0 558 0 585 -28 44 -43
44 -2150 0 -2194 -27 -28 -27 -28 -915 -28 -887 0 -887 0 -952 -29 -65 -30
-65 -30 -370 -35 -366 -7 -321 9 -525 -191 -160 -158 -388 -294 -582 -349 -37
-10 -85 -26 -106 -35 -21 -9 -70 -21 -110 -26 -40 -5 -95 -19 -123 -31 -73
-34 -653 -40 -743 -9 -31 11 -90 31 -131 44 -105 34 -166 54 -230 77 -30 11
-83 28 -117 38 -36 11 -85 35 -116 58 -29 22 -72 50 -97 63 -24 12 -87 64
-141 116 -54 51 -119 104 -146 118 -26 13 -66 38 -88 56 -88 71 25 64 -1275
70 -1173 5 -1175 5 -1225 26 -27 12 -72 30 -99 39 -82 30 -77 -53 -74 1140 3
1055 3 1055 31 1082 27 28 27 28 1055 24 952 -3 1035 -2 1120 15 81 15 101 16
158 5 63 -13 67 -13 147 17 45 17 104 38 132 48 39 14 76 43 175 139 76 74
145 132 176 148 27 14 70 42 94 62 24 20 65 47 90 60 25 13 66 40 91 61 68 57
172 102 262 114 43 5 83 12 88 16 74 45 879 62 974 20z m-1958 -3263 c30 -21
79 -53 110 -71 32 -18 98 -73 149 -122 50 -48 111 -98 135 -110 24 -12 68 -41
97 -63 51 -38 161 -84 302 -123 30 -9 75 -24 100 -34 220 -86 244 -90 576 -90
255 1 316 4 349 16 42 17 118 37 200 53 178 35 571 222 683 325 39 36 93 76
120 90 26 13 79 52 116 86 97 88 151 103 197 54 47 -50 36 -1436 -13 -1535
-47 -95 -81 -127 -160 -150 -35 -10 -88 -27 -118 -38 -86 -32 -2614 -32 -2700
0 -30 11 -88 29 -128 41 -129 37 -204 105 -237 214 -27 88 -18 1434 10 1464
48 53 131 50 212 -7z"/>
<path d="M5005 5950 c-22 -4 -62 -18 -90 -30 -34 -15 -83 -25 -150 -30 -111
-8 -325 -101 -425 -185 -24 -20 -66 -48 -94 -62 -32 -16 -108 -82 -210 -182
-258 -251 -96 -226 -1476 -226 -1327 0 -1210 9 -1305 -97 -68 -76 -66 -40 -63
-962 3 -936 -4 -869 106 -953 72 -54 36 -53 1282 -53 820 0 1177 -3 1205 -11
32 -9 77 -47 225 -194 114 -112 202 -191 230 -205 25 -12 69 -41 98 -63 52
-39 151 -79 316 -128 38 -11 82 -27 99 -36 18 -9 74 -19 132 -23 71 -6 118
-16 162 -34 82 -34 144 -34 226 0 44 18 91 28 162 34 64 5 117 15 148 29 26
11 71 27 100 35 140 40 249 85 299 123 29 22 73 51 98 63 27 14 115 92 225
200 99 97 191 183 205 191 21 12 212 14 1190 14 1327 0 1210 -9 1305 97 67 75
65 41 65 938 0 897 2 863 -65 938 -95 106 18 98 -1280 93 -1324 -4 -1188 -16
-1325 114 -55 52 -124 107 -152 121 -28 14 -95 68 -149 120 -126 120 -440 287
-572 304 -40 5 -101 21 -137 36 -71 29 -296 44 -385 24z m390 -228 c28 -13 84
-27 125 -32 138 -17 425 -168 557 -292 57 -54 126 -110 155 -124 29 -15 93
-66 143 -114 145 -140 -16 -124 1297 -130 1138 -5 1138 -5 1165 -33 44 -44 44
-1550 0 -1594 -27 -28 -27 -28 -1165 -33 -1088 -5 -1139 -6 -1172 -24 -19 -10
-116 -98 -215 -196 -108 -107 -198 -187 -225 -200 -24 -12 -68 -41 -97 -63
-31 -23 -80 -48 -116 -58 -97 -29 -217 -69 -272 -92 -31 -12 -89 -23 -150 -27
-71 -6 -114 -15 -150 -31 -69 -32 -161 -32 -230 0 -36 16 -79 25 -150 31 -61
4 -119 15 -150 27 -55 23 -175 63 -272 92 -36 10 -85 35 -116 58 -29 22 -73
51 -97 63 -27 13 -117 93 -225 200 -99 98 -196 186 -215 196 -34 18 -85 19
-1202 24 -1168 5 -1168 5 -1195 33 -44 44 -44 1550 0 1594 27 28 27 28 1165
33 1343 6 1205 -17 1470 244 90 87 176 163 201 176 25 12 72 43 106 69 121 92
288 162 408 171 57 4 114 13 128 20 89 48 399 56 494 12z"/>
</g>
</svg>
