<?xml version="1.0" standalone="no"?>
<!DOCTYPE svg PUBLIC "-//W3C//DTD SVG 20010904//EN"
 "http://www.w3.org/TR/2001/REC-SVG-20010904/DTD/svg10.dtd">
<svg version="1.0" xmlns="http://www.w3.org/2000/svg"
 width="1374.000000pt" height="1836.000000pt" viewBox="0 0 1374.000000 1836.000000"
 preserveAspectRatio="xMidYMid meet">
<metadata>
Created by potrace 1.16, written by Peter Selinger 2001-2019
</metadata>
<g transform="translate(0.000000,1836.000000) scale(0.100000,-0.100000)"
fill="#f97316" stroke="none">
<path d="M4290 17493 c-58 -20 -126 -44 -152 -55 -26 -10 -82 -23 -123 -28
-41 -5 -88 -16 -104 -24 -16 -9 -60 -24 -97 -34 -38 -11 -105 -37 -149 -60
-44 -22 -112 -49 -152 -61 -137 -41 -207 -118 -223 -244 -5 -43 -20 -99 -32
-125 -22 -46 -23 -59 -28 -439 -6 -471 1 -454 -204 -515 -103 -30 -219 -69
-271 -91 -81 -35 -215 -31 -252 6 -28 27 -28 30 -34 180 -5 131 -9 159 -29
202 -19 41 -25 73 -30 175 -9 185 -46 240 -220 324 -164 79 -339 66 -645 -49
-33 -13 -76 -26 -95 -30 -19 -4 -74 -27 -121 -50 -47 -24 -112 -51 -145 -60
-120 -34 -376 -266 -403 -365 -27 -101 -10 -1817 19 -1875 25 -50 25 -50 30
-415 6 -432 -7 -385 155 -550 220 -224 199 -63 205 -1615 5 -1330 5 -1330 30
-1380 34 -69 34 -159 0 -235 -39 -86 -38 -516 0 -600 25 -55 25 -55 30 -2705
5 -2650 5 -2650 30 -2700 25 -50 25 -50 30 -775 6 -836 -5 -755 116 -870 81
-77 174 -127 319 -174 44 -14 114 -37 155 -50 41 -13 93 -31 115 -40 22 -8 58
-15 80 -16 22 0 65 -10 95 -21 30 -10 89 -30 130 -43 41 -13 93 -31 115 -40
22 -8 58 -15 80 -16 22 0 65 -10 95 -21 30 -10 89 -30 130 -43 102 -33 165
-54 230 -77 30 -11 89 -30 130 -43 41 -13 93 -31 115 -40 22 -8 58 -15 80 -16
22 0 65 -10 95 -21 30 -10 89 -30 130 -43 41 -13 93 -31 115 -40 22 -8 58 -15
80 -16 22 0 65 -10 95 -21 30 -11 86 -29 124 -40 38 -11 81 -26 97 -35 16 -8
63 -19 104 -24 41 -5 97 -18 123 -29 54 -22 176 -62 276 -92 38 -11 81 -26 97
-35 16 -8 63 -19 105 -24 41 -5 96 -19 122 -30 26 -12 79 -25 119 -30 40 -5
89 -17 110 -26 21 -9 69 -25 107 -35 38 -11 81 -26 97 -35 16 -8 63 -19 105
-24 41 -5 96 -19 122 -30 26 -12 79 -25 119 -30 40 -5 89 -17 110 -26 21 -9
69 -25 107 -35 38 -11 81 -26 97 -35 16 -8 63 -19 105 -24 41 -5 96 -19 122
-30 26 -12 80 -25 120 -30 40 -6 94 -19 120 -30 26 -12 76 -25 112 -29 36 -5
103 -21 148 -37 93 -31 137 -28 252 15 41 15 79 20 149 21 94 0 197 26 361 90
25 10 70 25 100 33 30 9 80 25 110 36 61 22 118 41 230 77 41 13 111 36 155
50 44 14 129 49 189 76 99 46 118 51 210 58 68 5 116 15 148 29 26 12 79 25
117 30 90 11 138 40 222 128 79 83 89 114 89 260 0 205 50 226 290 121 25 -10
78 -23 118 -28 40 -6 94 -20 120 -32 130 -61 422 -34 662 62 25 10 70 25 100
34 77 22 206 65 262 87 26 11 82 24 123 29 41 5 88 16 104 24 16 9 59 24 97
35 38 10 86 26 106 35 51 22 114 20 168 -5 107 -50 230 -38 333 32 64 43 82
50 150 59 42 5 90 16 106 24 16 9 59 24 97 35 38 11 94 29 124 40 62 22 120
41 230 77 41 13 111 36 155 50 207 67 338 158 364 254 28 104 10 3257 -19
3315 -25 50 -25 50 -30 1050 -5 1000 -5 1000 -30 1050 -25 50 -25 50 -30 1230
-5 1180 -5 1180 -27 1225 -29 58 -29 118 0 183 36 84 34 516 -3 597 -25 55
-25 55 -28 635 -3 658 -6 625 52 702 57 76 221 404 251 502 13 42 31 96 40
121 24 65 16 197 -16 265 -24 50 -24 50 -29 1015 -6 1111 6 993 -116 1110 -81
76 -409 253 -519 279 -27 6 -124 47 -215 90 -408 196 -648 205 -995 41 -129
-61 -275 -240 -275 -336 0 -43 -30 -72 -102 -100 -162 -61 -258 -195 -258
-358 0 -118 -14 -149 -76 -171 -141 -49 -208 -89 -295 -175 -107 -106 -109
-113 -109 -344 0 -208 -6 -228 -77 -277 -70 -47 -219 -195 -264 -261 -95 -139
-216 -94 -239 89 -16 122 -60 174 -227 263 -130 70 -127 62 -133 308 -6 254 1
239 -174 410 -133 131 -133 131 -337 232 -247 122 -263 126 -397 81 -51 -17
-109 -31 -130 -31 -20 -1 -55 -8 -77 -16 -22 -9 -73 -26 -113 -39 -115 -37
-229 -131 -280 -231 -50 -98 -82 -121 -186 -134 -120 -15 -216 -69 -342 -192
-123 -120 -135 -143 -145 -271 -10 -141 -43 -181 -165 -196 -151 -19 -293
-153 -313 -296 -13 -91 -40 -120 -111 -120 -109 0 -104 -26 -110 623 -6 654 6
587 -124 721 -84 86 -96 104 -111 157 -9 32 -26 82 -38 109 -20 46 -22 71 -27
325 -6 314 -4 305 -93 397 -70 74 -118 104 -197 127 -117 33 -130 68 -130 356
-1 170 -4 223 -16 255 -9 22 -27 75 -40 119 -43 139 -133 227 -343 330 -185
91 -461 107 -661 39z m171 -199 c24 -26 24 -26 29 -772 6 -868 -11 -763 149
-927 137 -139 141 -145 152 -239 4 -39 18 -93 31 -121 38 -82 36 -1174 -2
-1250 -29 -58 -46 -2013 -19 -2115 15 -55 147 -194 219 -230 83 -42 227 -157
239 -191 7 -19 11 -114 11 -237 0 -232 5 -260 62 -329 22 -26 51 -69 64 -95
13 -26 37 -63 54 -81 61 -70 60 -58 60 -618 0 -543 -2 -563 -48 -585 -9 -5
-136 -11 -282 -14 -299 -6 -315 -10 -393 -100 -54 -63 -57 -86 -57 -424 0
-371 9 -340 -149 -501 -73 -74 -128 -139 -144 -170 -14 -28 -43 -72 -65 -98
-57 -70 -62 -96 -62 -341 0 -272 9 -251 -179 -441 -202 -204 -231 -259 -241
-450 -5 -103 -11 -140 -29 -180 -12 -27 -26 -82 -30 -120 -13 -111 -66 -182
-182 -240 -103 -53 -341 -302 -354 -372 -4 -21 -20 -72 -35 -113 -16 -41 -31
-92 -35 -112 -14 -89 -58 -72 -207 79 -149 152 -179 215 -188 392 -4 69 -12
139 -19 156 -16 39 -230 255 -310 313 -86 61 -91 77 -91 260 0 237 -43 305
-230 366 -197 63 -190 42 -190 562 0 456 -1 469 -57 534 -60 69 -112 93 -223
100 -79 6 -108 13 -155 37 -104 53 -99 30 -105 446 -5 360 -6 362 -30 412 -43
86 -38 515 6 600 67 126 132 157 344 165 201 7 292 56 328 179 17 54 17 1048
0 1102 -42 140 -177 197 -332 139 -52 -19 -76 -21 -188 -18 -201 5 -182 -54
-186 603 -3 625 -6 601 74 630 27 9 70 26 96 36 27 11 79 24 118 28 206 26
250 107 250 467 0 285 3 298 82 371 94 86 335 90 365 7 6 -16 23 -60 38 -99
23 -58 29 -92 35 -195 8 -151 13 -164 93 -247 120 -125 186 -144 335 -94 51
17 109 31 130 31 85 0 205 93 230 178 8 26 12 133 12 316 0 349 2 356 155 428
90 43 281 50 331 13 53 -40 85 -122 94 -237 5 -70 15 -118 29 -150 12 -26 26
-82 31 -125 11 -84 31 -122 72 -137 103 -37 162 120 99 264 -17 39 -26 84 -31
155 -26 352 -343 552 -645 407 -79 -38 -102 -56 -200 -155 -139 -140 -135
-126 -135 -431 0 -282 -3 -295 -76 -321 -27 -9 -70 -26 -95 -36 -166 -67 -229
-25 -229 153 -1 59 -7 108 -16 133 -9 22 -27 75 -40 119 -25 83 -52 124 -131
198 -83 77 -100 83 -243 83 -158 0 -169 -6 -340 -182 -155 -158 -150 -144
-150 -417 0 -249 -4 -265 -76 -291 -27 -9 -70 -26 -96 -36 -120 -49 -184 -34
-246 58 -22 32 -86 103 -142 158 -147 144 -134 97 -140 530 -5 369 -6 370 -30
420 -32 65 -46 1790 -15 1872 24 62 100 128 171 148 33 9 106 38 164 65 58 27
130 56 160 64 30 8 87 27 125 40 180 65 185 56 185 -332 1 -235 4 -294 16
-327 22 -54 43 -140 50 -198 10 -89 123 -197 206 -197 53 0 208 51 343 113 97
45 119 51 190 55 76 4 213 40 345 92 25 10 70 25 100 34 250 70 343 128 379
235 7 23 11 159 11 426 0 313 3 401 14 436 34 103 66 182 81 198 25 29 205
118 280 140 39 11 95 29 125 40 30 11 73 21 95 21 22 1 58 8 80 16 22 9 74 26
115 39 41 13 91 30 110 39 55 24 102 20 131 -10z m464 -28 c129 -63 138 -72
171 -162 55 -149 54 -144 54 -397 0 -157 4 -254 12 -281 25 -86 152 -178 332
-241 73 -26 76 -38 76 -327 1 -192 4 -251 16 -283 21 -56 40 -113 53 -162 9
-32 35 -67 111 -147 128 -135 122 -107 118 -518 -4 -412 -15 -437 -168 -367
-30 14 -78 24 -146 29 -69 5 -115 14 -150 30 -34 15 -80 24 -153 30 -193 15
-194 17 -203 418 -4 174 -9 335 -10 357 -4 51 103 63 209 24 141 -52 243 -25
243 64 0 42 -38 73 -121 97 -41 12 -86 29 -101 36 -16 8 -62 19 -103 24 -41 5
-97 18 -123 29 -26 11 -74 27 -107 36 -73 20 -204 139 -230 209 -30 80 -17
1497 14 1530 38 40 79 35 206 -28z m-2768 -757 c39 -37 45 -56 53 -163 6 -73
15 -115 32 -151 32 -69 40 -417 11 -475 -24 -46 -86 -81 -138 -78 -40 3 -40 3
-80 98 -52 124 -64 723 -15 775 32 34 97 31 137 -6z m9200 -531 c30 -28 30
-78 0 -138 -21 -44 -22 -56 -27 -475 -6 -505 16 -431 -184 -635 -181 -184
-176 -174 -176 -394 0 -212 -27 -267 -138 -281 -99 -12 -112 -17 -158 -48 -69
-46 -101 -93 -124 -176 -12 -40 -28 -88 -37 -105 -13 -23 -18 -70 -23 -191 -5
-137 -9 -167 -29 -210 -100 -220 80 -418 398 -436 98 -5 142 -13 196 -33 170
-62 301 11 359 200 13 43 31 97 40 119 8 22 15 58 16 80 0 22 10 65 21 95 11
30 28 83 38 118 58 197 352 195 442 -3 29 -62 28 -461 -1 -537 -39 -102 -23
-148 89 -251 58 -55 121 -86 169 -87 41 0 97 -25 109 -48 4 -9 10 -273 13
-587 5 -570 5 -570 29 -620 61 -127 40 -233 -62 -309 -166 -123 -254 -262
-267 -421 -4 -49 -11 -98 -15 -108 -9 -21 -173 -146 -230 -175 -147 -74 -169
-123 -175 -392 -5 -197 -7 -219 -28 -265 -13 -27 -27 -82 -31 -121 -11 -96
-13 -98 -181 -269 -127 -129 -154 -162 -191 -235 -94 -182 -45 -408 77 -364
50 17 66 52 74 168 13 175 95 313 228 384 139 74 182 137 192 282 5 68 14 110
30 145 21 45 24 69 29 240 8 237 31 284 180 360 137 69 228 188 242 317 10 97
40 178 79 213 31 28 47 7 32 -43 -19 -63 -14 -116 16 -179 27 -58 27 -58 30
-1148 2 -599 0 -1105 -3 -1123 -10 -53 -59 -100 -124 -118 -112 -32 -252 -153
-279 -240 -16 -56 -17 -630 0 -685 33 -112 128 -170 290 -179 188 -9 172 39
178 -543 5 -482 5 -482 30 -532 27 -54 46 -3138 20 -3234 -14 -53 -58 -90
-132 -112 -35 -10 -88 -27 -118 -38 -62 -22 -120 -41 -230 -77 -177 -57 -238
-77 -282 -95 -66 -27 -109 -25 -139 7 -38 41 -38 589 1 674 39 86 39 2493 0
2580 -23 52 -25 67 -30 305 -6 234 -8 253 -29 299 -17 36 -26 78 -31 151 -4
59 -14 113 -23 132 -9 17 -25 61 -36 99 -12 38 -32 105 -47 149 -34 108 -272
589 -318 643 -19 24 -49 69 -66 101 -40 75 -451 487 -520 521 -25 12 -70 42
-102 66 -76 59 -192 114 -241 114 -118 0 -471 -159 -585 -264 -39 -36 -95 -77
-123 -92 -63 -31 -227 -187 -280 -266 -24 -35 -68 -79 -112 -111 -92 -69 -168
-150 -200 -213 -14 -28 -42 -70 -62 -95 -47 -55 -344 -655 -379 -764 -15 -44
-35 -111 -47 -149 -11 -38 -26 -81 -35 -97 -8 -16 -19 -63 -24 -105 -5 -41
-19 -96 -31 -122 -17 -37 -23 -76 -29 -177 -5 -106 -11 -139 -30 -180 -21 -45
-24 -69 -30 -240 -5 -173 -8 -195 -30 -245 -36 -80 -40 -1559 -4 -1607 84
-114 164 -44 174 151 9 192 66 241 282 241 186 0 172 36 176 -473 4 -511 1
-522 -120 -522 -85 0 -153 -66 -132 -128 11 -33 83 -72 132 -72 122 0 122 1
122 -592 0 -609 8 -574 -140 -592 -25 -3 -66 -14 -90 -25 -101 -46 -196 -11
-220 80 -25 90 -8 717 20 779 35 76 34 886 0 951 -17 30 -64 51 -94 39 -61
-23 -61 -21 -73 -590 -8 -340 -8 -346 -33 -395 -36 -73 -45 -724 -10 -821 39
-112 14 -161 -100 -194 -36 -10 -90 -28 -120 -39 -67 -24 -131 -45 -230 -76
-41 -13 -100 -33 -130 -44 -65 -23 -128 -44 -230 -77 -41 -13 -100 -33 -130
-43 -116 -42 -231 -20 -251 48 -24 81 -7 639 21 701 21 46 24 67 22 130 -4 99
-5 199 -2 258 1 32 -6 63 -22 97 -34 74 -33 219 2 290 25 50 25 50 30 502 6
529 -7 478 141 557 111 59 189 131 207 192 19 67 16 613 -4 723 -27 143 -31
151 -107 196 -36 22 -83 56 -103 75 -73 70 -68 35 -74 645 -5 550 -5 550 -29
600 -68 138 -27 214 121 226 62 5 109 14 143 30 40 18 76 24 176 29 257 13
359 146 369 485 5 171 8 195 29 240 16 36 25 79 31 151 5 70 14 115 30 150 18
39 24 74 29 179 10 187 41 230 242 330 216 109 239 150 239 426 1 160 3 191
21 239 24 64 36 116 45 183 8 70 50 113 134 138 291 86 330 111 413 272 42 82
42 82 40 250 -5 286 -5 299 2 422 6 107 5 127 -14 180 -25 71 -26 104 -5 153
11 24 19 82 23 168 10 178 39 243 176 384 120 124 118 118 125 340 5 169 8
189 30 235 23 48 24 62 30 300 6 294 -6 261 150 420 187 191 203 230 210 510
3 137 10 228 17 240 23 40 63 68 125 86 234 69 298 102 298 156 0 120 -163
117 -425 -7 -193 -91 -209 -123 -215 -440 -7 -357 -77 -481 -351 -620 -178
-91 -196 -140 -80 -223 80 -58 102 -285 41 -412 -21 -46 -24 -67 -29 -240 -7
-222 -2 -207 -121 -330 -130 -133 -184 -254 -190 -422 -1 -37 -62 -19 -130 38
-25 20 -65 47 -89 59 -164 82 -172 111 -169 567 4 448 -17 397 199 507 291
150 279 118 279 739 0 589 -8 563 191 624 156 48 229 136 229 275 0 97 16 121
101 154 175 66 199 121 199 457 0 333 20 367 246 432 129 38 152 68 128 174
-25 105 -16 420 12 458 32 42 118 82 202 92 179 22 252 119 252 335 0 161 7
176 101 211 96 36 230 164 249 236 24 95 35 115 85 165 42 42 65 56 111 69 33
9 79 25 104 35 61 26 108 25 137 -2z m643 -118 c91 -43 197 -88 235 -100 97
-28 363 -167 389 -203 21 -28 21 -37 26 -990 5 -962 5 -962 29 -1012 35 -73
40 -180 12 -260 -12 -33 -31 -91 -42 -128 -25 -86 -119 -275 -160 -321 -37
-43 -79 -56 -180 -56 -144 0 -171 24 -139 126 24 79 30 463 8 538 -14 49 -235
281 -308 324 -116 69 -255 37 -383 -87 -113 -109 -135 -141 -158 -222 -11 -39
-26 -84 -35 -100 -8 -16 -19 -64 -24 -106 -25 -193 -98 -253 -244 -198 -53 20
-85 25 -159 25 -199 0 -274 84 -205 230 18 38 22 71 27 205 9 225 38 283 164
331 65 24 82 37 183 138 134 134 134 135 134 352 1 212 32 274 177 347 176 90
177 92 183 637 5 455 5 455 44 548 26 63 46 96 60 101 37 14 195 -37 366 -119z
m-3574 -674 c319 -156 323 -164 324 -482 0 -313 33 -378 221 -434 83 -25 121
-63 139 -141 44 -187 162 -320 301 -339 87 -12 112 -38 117 -123 6 -101 -10
-128 -98 -162 -61 -23 -87 -42 -171 -121 -125 -118 -119 -116 -404 -112 -223
3 -223 3 -291 50 -92 62 -283 128 -375 128 -38 1 -86 9 -119 21 -30 11 -86 29
-124 40 -38 11 -81 26 -97 35 -16 8 -63 19 -105 24 -41 5 -96 19 -122 31 -32
14 -80 24 -148 29 -68 5 -116 14 -150 29 -27 12 -82 26 -122 31 -40 6 -94 19
-120 30 -26 12 -80 25 -120 30 -40 6 -94 19 -120 30 -26 12 -80 25 -120 30
-147 19 -223 78 -230 179 -8 115 16 147 124 162 138 19 314 141 342 235 7 23
12 85 12 138 0 186 94 269 323 286 171 12 307 94 307 185 0 135 82 189 365
244 28 5 75 19 105 30 93 36 134 27 356 -83z m-3185 -915 c73 -6 120 -15 155
-31 34 -15 80 -24 149 -30 61 -4 119 -15 150 -28 28 -11 71 -27 98 -37 88 -31
99 -116 79 -580 -9 -215 -12 -232 -47 -241 -38 -9 -192 14 -243 36 -26 12 -80
25 -120 30 -40 6 -94 19 -120 31 -36 17 -75 23 -170 28 -182 10 -177 2 -177
269 0 197 1 209 24 257 17 36 25 73 28 130 5 110 11 142 29 160 17 17 19 17
165 6z m1149 -562 c30 -11 86 -29 124 -40 38 -11 81 -26 97 -35 16 -8 63 -19
105 -24 41 -5 96 -19 122 -30 26 -12 80 -25 120 -30 40 -6 94 -19 120 -30 26
-12 80 -25 120 -30 40 -6 94 -19 120 -31 32 -14 80 -24 148 -29 68 -5 116 -14
150 -29 27 -12 82 -26 122 -31 40 -5 94 -18 120 -28 120 -48 272 -92 318 -92
96 0 185 -43 154 -73 -38 -38 -164 -79 -265 -87 -69 -6 -115 -15 -150 -31 -40
-18 -76 -24 -180 -29 -101 -6 -140 -12 -175 -28 -75 -36 -125 -30 -200 23 -39
28 -92 54 -135 66 -38 12 -82 28 -97 35 -16 8 -62 19 -104 24 -41 5 -96 19
-122 31 -32 14 -80 24 -148 29 -68 5 -116 14 -150 29 -27 12 -82 26 -122 31
-40 6 -94 19 -120 31 -30 13 -80 24 -140 28 -141 12 -147 20 -147 200 0 188
10 199 170 200 66 0 105 -5 145 -20z m-1055 -488 c28 -12 83 -26 123 -31 40
-5 94 -18 120 -29 26 -10 69 -27 96 -36 79 -29 76 3 76 -707 0 -746 0 -745
-137 -763 -26 -3 -79 -12 -117 -20 -104 -20 -218 26 -393 157 -124 93 -115 28
-111 769 4 755 -14 691 188 686 83 -2 115 -8 155 -26z m3568 -162 c51 -14 48
-36 -12 -103 -68 -75 -73 -86 -81 -193 -10 -137 -20 -145 -182 -154 -95 -5
-134 -12 -172 -29 -35 -16 -81 -25 -150 -30 -71 -6 -116 -15 -151 -31 -40 -18
-77 -24 -180 -30 -103 -5 -140 -12 -180 -30 -40 -18 -77 -24 -180 -30 -102 -5
-141 -12 -179 -29 -35 -16 -81 -25 -150 -30 -71 -6 -116 -15 -151 -31 -40 -18
-77 -24 -180 -30 -106 -6 -139 -11 -180 -30 -52 -25 -231 -34 -297 -16 -28 7
-28 7 2 49 86 119 -31 211 -190 148 -33 -13 -74 -20 -118 -20 -124 0 -133 52
-16 86 29 8 83 37 120 65 74 55 121 63 191 34 46 -20 101 -19 149 1 22 9 84
20 139 24 69 6 115 15 150 31 40 18 77 24 180 30 102 5 141 12 179 29 35 16
81 25 150 30 71 6 116 15 151 31 40 18 76 24 180 29 104 6 140 12 179 30 35
16 80 25 150 30 70 6 116 15 151 30 34 16 79 25 145 30 101 7 117 13 193 67
71 52 233 72 340 42z m-2776 -70 c47 -17 78 -52 56 -60 -37 -15 -161 -10 -177
7 -46 45 41 84 121 53z m203 -77 c31 -25 18 -46 -23 -38 -36 7 -77 32 -77 46
0 18 77 11 100 -8z m237 -58 c6 -16 -11 -34 -33 -34 -19 0 -47 27 -40 38 11
18 66 15 73 -4z m-138 -600 c-30 -36 -139 -63 -139 -34 0 20 65 50 109 50 38
0 42 -2 30 -16z m2348 -57 c28 -27 28 -28 31 -185 5 -233 -4 -250 -191 -343
-85 -43 -116 -65 -183 -133 -104 -105 -104 -105 -104 -395 0 -375 -17 -385
-249 -157 -242 238 -260 238 -495 7 -167 -164 -196 -201 -196 -250 0 -53 -1
-52 410 -466 458 -460 445 -436 270 -529 -139 -73 -259 -193 -275 -276 -7 -33
-51 -158 -81 -227 -17 -41 -73 -76 -169 -108 -97 -31 -104 -36 -181 -105 -75
-68 -118 -84 -212 -78 -129 8 -117 -152 -117 1518 0 1708 -23 1510 177 1521
96 5 134 12 173 30 40 18 77 24 180 30 103 5 140 12 180 30 40 18 77 24 180
30 102 5 141 12 179 29 35 16 80 25 151 30 56 4 112 13 126 20 94 51 348 56
396 7z m-2534 14 c17 -6 16 -8 -5 -28 -62 -58 -248 -60 -248 -3 0 36 184 59
253 31z m-45 -314 c43 -44 43 -2931 -1 -2974 -27 -28 -27 -28 -317 -28 -362 0
-343 -10 -348 179 -5 163 3 187 86 279 97 106 92 70 92 697 0 598 1 590 -62
667 -22 26 -51 69 -64 95 -13 26 -37 63 -54 81 -54 62 -60 89 -60 285 0 252
11 272 153 272 146 0 302 163 323 338 15 119 43 145 157 139 58 -2 71 -7 95
-30z m599 -25 c32 -20 33 -67 33 -1478 0 -1575 5 -1473 -67 -1494 -79 -24
-268 -9 -300 23 -44 44 -44 2870 0 2914 29 29 30 30 287 41 19 1 40 -2 47 -6z
m-4901 -429 c12 -28 14 -113 12 -483 -4 -545 12 -501 -180 -511 -95 -5 -133
-11 -168 -27 -63 -30 -110 -29 -141 4 -24 26 -24 26 -24 495 0 574 -21 521
208 530 89 4 171 13 197 21 57 19 79 13 96 -29z m5997 -494 c12 -6 90 -78 172
-158 98 -96 171 -159 210 -180 39 -22 112 -85 210 -181 107 -104 168 -156 213
-180 190 -101 297 -330 199 -428 -27 -27 -29 -27 -181 -30 -238 -5 -172 -49
-683 462 -523 521 -493 473 -375 597 99 106 165 134 235 98z m1004 -1392 c31
-30 43 -134 28 -233 -12 -82 -102 -151 -250 -192 -231 -64 -333 -165 -345
-342 -5 -68 -14 -110 -30 -145 -21 -45 -24 -69 -29 -242 -7 -218 -8 -222 -97
-280 -27 -18 -76 -52 -109 -76 -33 -25 -78 -54 -100 -65 -135 -68 -168 -130
-175 -332 -5 -131 -9 -163 -28 -205 -13 -27 -27 -78 -32 -113 -18 -127 -128
-194 -238 -145 -28 13 -80 18 -219 22 -259 8 -237 -27 -241 389 -4 414 1 432
121 432 55 0 130 45 204 123 93 98 93 99 93 421 0 315 2 324 76 351 27 9 69
25 94 35 25 10 71 25 102 34 119 34 193 118 208 237 5 42 21 108 36 145 15 38
31 82 37 97 13 36 61 73 128 97 98 36 729 25 766 -13z m-3600 -300 c28 -27 28
-27 33 -240 4 -174 8 -218 22 -243 10 -17 26 -64 37 -103 28 -102 132 -221
241 -276 96 -49 150 -164 136 -287 -15 -121 -18 -391 -5 -436 34 -121 186
-233 332 -243 185 -13 191 -23 197 -377 4 -245 7 -281 24 -315 45 -90 213
-191 348 -208 134 -17 161 -53 169 -232 5 -110 10 -140 30 -182 24 -50 24 -50
24 -557 0 -624 26 -561 -233 -568 -209 -6 -224 -12 -333 -127 -91 -97 -89 -83
-89 -545 0 -416 2 -435 47 -495 59 -80 243 -158 406 -172 152 -13 142 22 142
-509 0 -447 0 -447 -24 -497 -34 -72 -40 -197 -13 -284 40 -124 -41 -166 -188
-99 -34 16 -76 22 -175 28 -105 5 -140 11 -185 31 -142 62 -278 30 -397 -94
-91 -95 -87 -73 -93 -479 -5 -358 -5 -358 -33 -385 -36 -36 -117 -38 -192 -4
-27 12 -82 26 -122 31 -40 5 -89 17 -110 26 -21 9 -69 25 -107 35 -38 11 -81
26 -97 35 -16 8 -63 19 -105 24 -41 5 -96 19 -122 30 -26 12 -80 25 -120 30
-40 5 -94 18 -120 29 -45 18 -114 41 -282 95 -41 13 -93 31 -115 40 -22 8 -58
15 -80 16 -22 0 -65 10 -95 21 -30 10 -89 30 -130 43 -41 13 -93 31 -115 40
-22 8 -58 15 -80 16 -22 0 -65 10 -95 21 -30 10 -89 30 -130 43 -41 13 -93 31
-115 40 -22 8 -58 15 -80 16 -22 0 -65 10 -95 21 -30 10 -89 30 -130 43 -102
33 -165 54 -230 77 -30 11 -89 30 -130 43 -41 13 -93 31 -115 40 -22 8 -58 15
-80 16 -22 0 -65 10 -95 21 -30 11 -86 29 -124 40 -38 11 -81 26 -97 35 -16 8
-63 19 -104 24 -41 5 -97 18 -123 29 -55 22 -178 63 -277 92 -38 11 -89 31
-113 45 -83 48 -76 -11 -82 799 -5 720 -5 720 -30 770 -42 83 -39 3151 3 3192
39 39 305 48 403 13 32 -11 87 -29 120 -39 177 -52 197 -78 204 -269 7 -194
75 -303 241 -387 135 -69 171 -129 179 -300 10 -203 30 -237 309 -520 278
-282 282 -290 291 -530 10 -275 74 -366 360 -510 189 -96 215 -118 241 -207
10 -35 27 -88 38 -118 11 -30 25 -75 32 -99 20 -82 205 -254 349 -326 223
-112 291 -200 301 -390 5 -102 11 -140 28 -177 12 -26 26 -82 31 -125 11 -84
31 -122 72 -137 103 -37 162 120 99 264 -20 45 -26 79 -31 180 -8 164 -9 165
-203 357 -155 154 -167 163 -272 216 -131 66 -161 94 -186 179 -112 378 -172
467 -353 522 -235 72 -298 151 -307 381 -5 135 -9 167 -27 205 -27 57 -28 122
-1 180 14 30 24 78 29 145 4 63 15 119 28 150 11 28 28 76 37 109 20 70 79
139 157 181 29 16 78 47 108 71 30 23 73 51 95 62 118 59 166 133 175 272 5
67 14 111 30 145 18 40 24 76 29 180 11 197 29 233 236 445 195 200 185 175
185 464 0 237 4 259 60 323 17 18 42 57 56 86 17 33 72 98 150 178 159 162
148 127 154 480 6 378 -4 360 212 356 125 -2 128 -3 155 -30z m1920 -540 c32
-31 48 -335 23 -420 -21 -73 -156 -90 -280 -36 -86 37 -516 37 -600 -1 -47
-21 -73 -25 -186 -28 -163 -5 -186 3 -242 85 -42 60 -185 206 -259 262 -56 42
-58 76 -8 97 28 12 124 14 562 14 311 0 540 4 558 10 17 5 55 18 85 30 91 34
309 26 347 -13z m-5544 -327 c114 0 119 -18 115 -462 -4 -438 7 -413 -168
-413 -175 0 -164 -29 -168 438 -4 494 -4 493 128 456 36 -11 77 -19 93 -19z
m5126 -311 c17 -6 31 -16 32 -22 0 -7 0 -199 -1 -427 -2 -473 2 -450 -89 -544
-66 -69 -74 -82 -90 -150 -25 -100 -68 -155 -111 -141 -41 13 -45 39 -50 325
-6 266 -7 277 -30 325 -35 71 -39 567 -5 605 36 40 259 58 344 29z m3479 -29
c37 -17 92 -50 122 -74 30 -23 78 -55 106 -70 71 -38 313 -284 347 -352 14
-27 42 -70 62 -94 47 -56 268 -497 295 -587 30 -101 70 -222 93 -278 12 -31
23 -89 27 -150 6 -72 15 -114 31 -150 21 -44 24 -68 27 -205 5 -193 -2 -218
-69 -267 -106 -76 -95 -140 32 -188 104 -40 99 -11 99 -535 0 -524 5 -495 -99
-535 -140 -53 -140 -137 0 -190 107 -41 100 3 97 -648 -3 -552 -3 -552 -28
-602 -25 -50 -25 -50 -27 -420 -1 -203 -2 -375 -2 -382 -4 -65 -200 -34 -255
41 -35 46 -31 378 4 456 22 49 25 68 25 180 0 112 -3 131 -25 180 -25 55 -25
55 -25 1020 0 965 0 965 25 1020 36 78 36 220 1 300 -17 39 -26 84 -31 155 -5
72 -14 114 -30 150 -19 40 -25 75 -30 180 -6 101 -12 140 -29 177 -12 26 -26
81 -31 122 -5 42 -16 89 -24 105 -9 16 -24 59 -34 97 -24 87 -198 435 -246
492 -19 24 -50 70 -67 102 -46 87 -275 310 -360 350 -76 36 -81 36 -178 9
-106 -30 -124 -41 -226 -139 -51 -49 -114 -99 -144 -115 -76 -38 -250 -209
-290 -285 -17 -32 -47 -78 -67 -101 -20 -24 -46 -64 -59 -89 -13 -25 -40 -66
-60 -91 -21 -24 -68 -107 -106 -184 -63 -132 -91 -205 -140 -369 -11 -38 -26
-81 -35 -97 -8 -16 -19 -63 -24 -105 -5 -41 -19 -96 -30 -122 -12 -26 -25 -81
-31 -122 -18 -142 -52 -165 -249 -165 -201 0 -239 35 -178 165 16 35 22 74 28
175 5 102 11 141 29 180 12 28 26 83 31 123 5 40 18 94 29 120 21 54 62 176
91 275 25 83 308 653 348 699 16 18 43 54 60 80 70 102 118 113 193 43 109
-102 214 0 129 126 -62 92 -14 210 111 274 26 13 78 53 118 89 80 74 260 172
378 205 37 10 84 26 103 35 55 24 112 20 188 -14z m-4080 -53 c42 -43 42 -291
0 -334 -62 -61 -216 -39 -238 34 -20 65 -9 266 15 293 46 51 175 55 223 7z
m6259 -34 c11 -28 13 -92 11 -333 -4 -362 -1 -355 -138 -355 -136 0 -134 -3
-138 323 -4 356 -9 343 136 386 91 27 110 24 129 -21z m-2191 -719 c61 -29
132 -102 167 -171 14 -27 42 -69 62 -93 48 -57 211 -383 231 -461 8 -32 24
-79 35 -103 11 -25 23 -78 29 -118 5 -40 19 -95 31 -123 18 -39 24 -78 29
-180 6 -101 12 -140 28 -175 53 -112 20 -159 -120 -171 -51 -4 -113 -14 -138
-22 -105 -33 -104 -37 -110 455 -5 404 -6 417 -26 445 -42 56 -106 56 -148 0
-20 -28 -21 -41 -26 -460 -6 -481 1 -442 -85 -538 -91 -102 -64 -187 51 -158
22 6 98 14 169 19 102 6 141 13 180 31 91 41 275 39 315 -3 80 -86 -47 -176
-265 -189 -104 -5 -140 -12 -180 -30 -111 -51 -302 -36 -341 28 -54 86 -98
102 -174 63 -22 -11 -41 -20 -44 -20 -18 0 -22 136 -28 900 -3 476 -9 888 -13
916 -18 134 214 232 371 158z m-2647 -220 c41 -35 54 -88 49 -211 -6 -158 -38
-191 -199 -203 -75 -6 -118 -14 -154 -31 -120 -56 -365 -37 -442 34 -81 75
-92 129 -47 244 15 38 31 81 37 97 18 50 50 56 319 56 212 1 249 3 293 20 71
26 108 25 144 -6z m2072 -101 c12 -13 15 -161 19 -837 5 -821 5 -821 29 -854
36 -52 64 -58 126 -27 66 32 59 35 85 -36 38 -105 150 -199 238 -199 121 0
122 -5 122 -539 0 -542 -5 -570 -86 -505 -94 76 -107 84 -144 84 -37 0 -50 -8
-145 -84 -80 -64 -82 -50 -83 449 -1 377 0 403 19 455 38 104 40 118 30 158
-32 119 -165 106 -187 -18 -4 -19 -18 -64 -33 -100 -40 -99 -41 -1121 -1
-1210 33 -74 33 -165 1 -235 -29 -64 -29 -126 0 -190 31 -68 38 -213 15 -314
-13 -55 -14 -81 -6 -109 16 -59 12 -123 -13 -172 -21 -43 -22 -56 -23 -328 0
-332 -2 -337 -120 -287 -22 9 -72 20 -112 25 -40 5 -94 18 -120 29 -26 10 -77
28 -115 40 -90 28 -145 64 -163 107 -29 69 -15 3166 14 3229 17 36 26 78 32
151 5 68 14 116 29 150 12 27 26 82 31 122 5 40 18 94 29 120 22 54 62 176 91
275 27 89 128 291 175 347 20 24 47 65 61 92 13 26 37 62 52 80 16 18 39 49
52 68 53 80 76 94 101 63z m-914 -1686 c28 -27 28 -27 28 -527 0 -602 16 -550
-177 -561 -68 -4 -143 -14 -168 -22 -109 -35 -110 -30 -110 502 0 461 2 478
49 559 42 73 71 83 223 80 124 -3 128 -4 155 -31z m2100 -205 c6 -4 17 -20 22
-35 15 -39 15 -1605 0 -1644 -18 -48 -60 -83 -119 -99 -30 -8 -76 -24 -102
-35 -82 -34 -136 -22 -158 35 -15 39 -14 1672 1 1715 19 53 35 57 309 69 19 1
40 -2 47 -6z m-3817 -293 c150 -73 138 -33 131 -441 -8 -471 14 -443 -349
-443 -247 0 -247 0 -307 31 -105 54 -100 31 -103 442 -4 502 -31 463 308 459
225 -2 225 -2 320 -48z m2929 -1034 c106 -95 128 -98 211 -30 98 80 109 56
109 -243 1 -267 1 -269 -98 -307 -58 -22 -88 -43 -163 -111 -125 -116 -125
-116 -138 66 -6 83 -14 128 -29 160 -26 57 -26 123 0 180 32 70 35 136 10 218
-49 162 -26 178 98 67z m970 -669 c24 -63 1 -115 -64 -140 -27 -10 -71 -27
-97 -38 -26 -10 -80 -23 -120 -28 -40 -5 -95 -19 -122 -31 -34 -15 -83 -24
-150 -29 -56 -5 -115 -13 -133 -20 -86 -31 -141 21 -114 110 14 47 33 59 115
71 34 4 84 18 111 30 33 15 82 24 145 29 52 4 109 13 125 20 172 74 282 83
304 26z m-967 -412 c75 -80 121 -104 202 -104 109 0 116 -12 116 -196 0 -184
-22 -217 -177 -265 -38 -12 -85 -27 -106 -35 -142 -53 -177 11 -177 321 1 313
39 388 142 279z m905 -2 c23 -56 15 -262 -12 -298 -34 -45 -122 -83 -220 -95
-144 -18 -155 -6 -155 160 0 162 36 223 137 235 26 3 82 14 123 24 92 22 108
19 127 -26z m-4662 -502 c40 -18 75 -24 180 -30 102 -5 141 -11 180 -29 27
-12 78 -26 113 -31 110 -15 139 -70 89 -170 -21 -44 -22 -53 -23 -418 -1 -258
-4 -376 -12 -384 -15 -15 -62 -12 -108 7 -22 9 -72 20 -112 25 -40 6 -94 19
-120 30 -26 12 -80 25 -120 30 -40 6 -94 19 -120 30 -26 12 -67 23 -92 26
-145 18 -140 0 -140 472 0 415 2 435 54 458 47 22 169 13 231 -16z"/>
<path d="M3238 12380 c-143 -50 -207 -101 -237 -189 -16 -48 -16 -1888 0
-1942 15 -49 61 -105 118 -140 123 -78 429 50 480 200 16 48 16 1888 0 1942
-46 151 -171 196 -361 129z m158 -215 c24 -58 21 -1736 -4 -1785 -39 -78 -161
-108 -188 -45 -24 58 -21 1736 4 1785 39 78 161 108 188 45z"/>
<path d="M10383 12085 c-72 -31 -68 33 -71 -960 -2 -651 0 -901 9 -932 67
-243 525 -247 597 -4 17 55 17 1647 0 1702 -34 114 -127 170 -297 180 -69 3
-133 9 -141 12 -39 14 -68 15 -97 2z m316 -249 c26 -26 26 -26 26 -796 0 -877
7 -825 -105 -825 -112 0 -105 -52 -105 824 0 755 0 769 20 791 43 48 119 50
164 6z"/>
</g>
</svg>
