<?xml version="1.0" standalone="no"?>
<!DOCTYPE svg PUBLIC "-//W3C//DTD SVG 20010904//EN"
 "http://www.w3.org/TR/2001/REC-SVG-20010904/DTD/svg10.dtd">
<svg version="1.0" xmlns="http://www.w3.org/2000/svg"
 width="1152.000000pt" height="660.000000pt" viewBox="0 0 1152.000000 660.000000"
 preserveAspectRatio="xMidYMid meet">
<metadata>
Created by potrace 1.16, written by Peter Selinger 2001-2019
</metadata>
<g transform="translate(0.000000,660.000000) scale(0.100000,-0.100000)"
fill="#f97316" stroke="none">
<path d="M9840 5704 c-8 -3 -37 -15 -65 -27 -47 -20 -71 -22 -360 -27 -304 -6
-311 -6 -360 -30 -50 -25 -50 -25 -450 -30 -400 -5 -400 -5 -450 -30 -49 -25
-55 -25 -360 -30 -304 -6 -311 -6 -360 -30 -50 -25 -50 -25 -480 -30 -430 -5
-430 -5 -480 -30 -48 -24 -60 -25 -300 -30 -239 -6 -252 -7 -300 -31 -50 -24
-50 -24 -510 -29 -460 -5 -460 -5 -510 -30 -49 -24 -57 -25 -330 -30 -271 -6
-282 -7 -330 -30 -50 -25 -51 -25 -450 -30 -400 -5 -400 -5 -450 -30 -49 -25
-53 -25 -390 -30 -336 -6 -341 -6 -390 -30 -50 -25 -52 -25 -420 -30 -367 -6
-370 -6 -420 -30 -46 -22 -65 -25 -235 -30 -230 -6 -218 0 -431 -217 -193
-196 -181 -163 -177 -508 3 -253 4 -261 28 -310 39 -79 39 -1531 0 -1610 -33
-66 -44 -606 -15 -686 47 -127 50 -145 32 -230 -37 -178 69 -381 246 -470 23
-12 68 -41 100 -65 98 -73 287 -89 402 -33 49 24 55 24 420 29 368 6 370 6
420 30 49 25 54 25 390 30 336 6 341 6 390 30 50 25 52 25 420 30 368 6 370 6
420 30 49 25 56 25 360 30 304 6 311 6 360 30 50 25 50 25 450 30 400 5 400 5
450 30 49 24 58 25 330 30 271 6 282 7 330 30 50 25 53 25 420 30 368 6 370 6
420 30 49 25 54 25 390 30 336 6 341 6 390 30 50 25 52 25 420 30 368 6 370 6
420 30 49 24 58 25 330 30 271 6 282 7 330 30 50 25 51 25 445 30 455 6 429 0
546 122 160 166 149 30 152 1873 2 1253 0 1651 -9 1685 -14 52 -346 399 -429
448 -44 27 -297 45 -350 26z m539 -420 c54 -45 52 15 49 -1735 -3 -1635 -3
-1635 -34 -1694 -55 -105 -27 -99 -477 -105 -392 -5 -392 -5 -442 -30 -49 -24
-57 -25 -330 -30 -271 -6 -282 -7 -330 -30 -50 -25 -53 -25 -420 -30 -368 -6
-370 -6 -420 -30 -49 -25 -54 -25 -390 -30 -336 -6 -341 -6 -390 -30 -50 -25
-52 -25 -420 -30 -368 -6 -370 -6 -420 -30 -49 -24 -58 -25 -330 -30 -271 -6
-282 -7 -330 -30 -50 -25 -51 -25 -450 -30 -400 -5 -400 -5 -450 -30 -49 -25
-55 -25 -360 -30 -304 -6 -311 -6 -360 -30 -50 -25 -52 -25 -420 -30 -368 -6
-370 -6 -420 -30 -49 -25 -54 -25 -390 -30 -336 -6 -341 -6 -390 -30 -50 -25
-52 -25 -420 -30 -365 -5 -371 -6 -420 -30 -85 -40 -275 -39 -287 3 -1 7 -1
780 2 1719 6 2016 -29 1760 243 1769 166 5 187 8 232 30 49 24 54 24 420 29
368 6 370 6 420 30 49 25 54 25 390 30 336 6 341 6 390 30 49 25 54 25 390 30
336 6 341 6 390 30 49 25 56 25 360 30 304 6 311 6 360 30 50 25 52 25 420 30
368 6 370 6 420 30 49 25 54 25 390 30 336 6 341 6 390 30 49 25 54 25 390 30
336 6 341 6 390 30 50 25 52 25 420 30 368 6 370 6 420 30 49 25 54 25 390 30
336 6 341 6 390 30 50 25 52 25 420 30 367 6 370 6 420 30 46 22 66 25 240 30
145 5 198 10 225 23 52 24 93 21 129 -9z m-6973 -285 c10 -17 -21 -41 -57 -42
-41 -2 -46 21 -9 40 31 16 57 16 66 2z m-780 -60 c10 -17 -21 -41 -57 -42 -41
-2 -46 21 -9 40 31 16 57 16 66 2z m-840 -60 c10 -17 -21 -41 -57 -42 -41 -2
-46 21 -9 40 31 16 57 16 66 2z m-676 -238 c6 -12 10 -125 10 -296 0 -276 -4
-315 -35 -315 -46 0 -73 546 -29 608 19 27 40 28 54 3z m0 -2270 c14 -27 14
-635 0 -662 -15 -28 -37 -23 -55 11 -42 82 -16 670 30 670 8 0 19 -9 25 -19z"/>
<path d="M8685 4797 c-152 -51 -286 -165 -362 -310 -48 -92 -48 -92 -51 -929
-2 -751 -1 -841 14 -880 9 -24 27 -78 40 -121 106 -347 502 -647 854 -647 295
0 744 259 789 456 12 52 26 77 73 136 15 19 39 70 52 114 13 43 31 97 40 119
8 22 15 72 16 112 0 48 7 91 20 125 49 130 -53 328 -220 427 -187 109 -459
-132 -480 -427 -12 -169 -71 -257 -171 -257 -110 0 -103 -49 -109 808 -5 752
-5 752 -28 799 -12 26 -27 81 -32 123 -12 96 -25 117 -142 231 -129 126 -200
155 -303 121z m174 -215 c47 -35 63 -67 71 -143 5 -41 19 -96 32 -124 23 -50
23 -50 28 -835 5 -845 3 -808 61 -874 60 -69 111 -90 224 -94 193 -8 291 56
336 218 11 40 27 86 36 103 9 19 19 73 23 135 12 158 65 247 156 258 109 14
195 -123 148 -234 -9 -20 -19 -82 -24 -137 -4 -63 -15 -119 -28 -150 -11 -27
-28 -75 -36 -106 -10 -36 -31 -75 -56 -105 -23 -28 -47 -72 -56 -101 -26 -90
-142 -170 -319 -222 -39 -11 -95 -29 -125 -40 -77 -28 -223 -28 -300 0 -30 11
-86 29 -125 40 -204 59 -315 171 -374 376 -11 37 -29 93 -40 123 -26 70 -33
1638 -8 1721 51 167 263 275 376 191z"/>
<path d="M5480 4519 c-112 -54 -299 -235 -319 -309 -9 -34 -11 -273 -9 -965 4
-1091 -18 -988 266 -1266 187 -183 213 -200 438 -273 138 -45 212 -48 310 -11
36 14 89 31 118 39 28 8 78 24 111 36 33 12 80 29 105 38 33 11 75 44 159 126
149 146 168 172 192 256 11 39 40 112 64 161 34 68 48 108 55 164 5 42 20 99
32 128 57 130 16 327 -93 452 -172 195 -524 63 -559 -210 -5 -42 -19 -97 -30
-123 -12 -26 -25 -80 -31 -121 -15 -126 -114 -212 -214 -187 -62 16 -60 -22
-65 881 -6 941 2 892 -179 1079 -158 162 -204 176 -351 105z m218 -194 c108
-97 106 -85 112 -1025 6 -956 -1 -882 89 -962 101 -90 168 -108 280 -77 175
48 287 183 311 375 5 42 19 96 30 122 11 25 25 74 29 108 15 104 52 134 147
119 123 -18 174 -185 105 -340 -12 -27 -26 -83 -31 -123 -6 -56 -20 -98 -58
-180 -28 -59 -58 -134 -68 -167 -23 -85 -94 -156 -179 -180 -33 -9 -80 -25
-105 -35 -25 -10 -70 -25 -100 -34 -30 -8 -80 -24 -110 -35 -72 -27 -168 -27
-240 0 -30 11 -86 29 -125 40 -172 50 -320 173 -392 325 -38 79 -38 79 -41
989 -2 501 0 925 3 943 22 123 256 217 343 137z"/>
<path d="M2269 4257 c-84 -31 -267 -214 -287 -287 -10 -35 -12 -257 -10 -965
4 -1091 -18 -988 266 -1266 152 -149 174 -167 247 -200 277 -126 451 -142 621
-56 50 25 117 53 150 62 121 35 438 326 464 426 6 24 20 69 31 99 11 30 30 89
43 130 13 41 31 93 40 115 19 51 22 336 4 399 -52 173 -321 291 -468 205 -138
-82 -191 -172 -200 -341 -14 -289 -223 -499 -323 -325 -9 17 -13 220 -17 872
-5 930 -4 916 -121 1050 -76 86 -311 130 -440 82z m287 -213 c75 -55 68 28 74
-952 6 -993 -1 -913 89 -994 211 -187 408 -119 567 195 78 152 78 152 84 272
7 134 15 158 61 174 83 29 184 7 205 -45 23 -55 19 -314 -7 -384 -10 -30 -30
-89 -43 -130 -29 -88 -52 -159 -72 -216 -24 -69 -155 -188 -229 -209 -33 -9
-109 -39 -170 -68 -136 -64 -268 -77 -380 -38 -33 12 -91 31 -130 42 -172 50
-320 173 -392 325 -38 79 -38 79 -41 989 -3 993 -4 960 40 1010 51 59 278 78
344 29z"/>
</g>
</svg>
