<?xml version="1.0" standalone="no"?>
<!DOCTYPE svg PUBLIC "-//W3C//DTD SVG 20010904//EN"
 "http://www.w3.org/TR/2001/REC-SVG-20010904/DTD/svg10.dtd">
<svg version="1.0" xmlns="http://www.w3.org/2000/svg"
 width="924.000000pt" height="924.000000pt" viewBox="0 0 924.000000 924.000000"
 preserveAspectRatio="xMidYMid meet">
<metadata>
Created by potrace 1.16, written by Peter Selinger 2001-2019
</metadata>
<g transform="translate(0.000000,924.000000) scale(0.100000,-0.100000)"
fill="#f97316" stroke="none">
<path d="M4235 8334 c-100 -39 -131 -44 -254 -44 -89 -1 -138 -5 -166 -16 -42
-17 -118 -37 -200 -53 -78 -15 -200 -58 -315 -111 -58 -27 -130 -56 -161 -64
-34 -9 -81 -34 -115 -60 -33 -24 -102 -65 -154 -91 -52 -26 -120 -67 -150 -90
-30 -24 -74 -52 -96 -64 -23 -11 -73 -49 -112 -85 -39 -36 -95 -77 -124 -92
-80 -40 -724 -683 -769 -768 -19 -35 -73 -104 -131 -164 -75 -79 -100 -112
-108 -145 -22 -85 -32 -108 -67 -149 -40 -49 -167 -296 -178 -348 -4 -19 -17
-62 -30 -95 -28 -75 -69 -199 -96 -289 -11 -38 -27 -82 -36 -99 -9 -18 -19
-73 -23 -132 -5 -71 -14 -116 -31 -155 -37 -85 -38 -1173 -1 -1257 12 -29 27
-85 32 -125 5 -40 18 -94 30 -120 11 -26 25 -81 30 -122 5 -42 16 -89 24 -105
9 -16 24 -59 34 -97 25 -88 318 -675 367 -734 20 -24 48 -67 62 -94 14 -28 67
-94 118 -146 54 -57 105 -120 124 -156 45 -85 450 -488 530 -529 31 -16 96
-67 152 -121 54 -51 119 -104 146 -118 26 -13 73 -44 104 -68 31 -23 168 -98
305 -165 229 -112 315 -147 464 -189 30 -9 75 -24 100 -34 131 -51 269 -88
345 -93 55 -2 97 -11 135 -28 84 -37 1113 -38 1197 -1 29 12 85 27 125 32 40
5 94 18 120 30 26 11 80 25 122 30 57 7 97 20 165 55 49 24 120 54 158 65 169
49 240 77 417 163 104 51 214 112 245 135 31 24 77 54 102 67 26 13 78 53 117
89 39 36 95 77 124 92 77 39 604 563 648 645 17 32 47 77 66 100 20 24 60 91
89 149 29 58 70 126 90 150 46 55 108 178 124 245 6 28 47 124 90 215 75 155
103 230 152 394 11 38 26 81 35 97 8 16 19 63 24 105 5 41 20 96 32 122 19 41
22 71 28 237 5 173 8 195 30 245 38 83 38 396 1 480 -22 48 -26 76 -31 215 -6
134 -10 168 -29 207 -12 26 -26 81 -31 122 -5 42 -16 89 -24 105 -9 16 -24 59
-35 97 -27 90 -68 214 -96 289 -13 33 -26 76 -30 95 -12 54 -258 540 -300 590
-20 24 -48 66 -62 93 -13 27 -53 79 -87 116 -34 36 -77 94 -95 127 -45 84
-569 608 -649 648 -29 15 -85 56 -124 92 -39 36 -91 76 -117 89 -25 13 -71 43
-102 67 -31 23 -168 98 -305 165 -229 112 -315 147 -464 189 -30 9 -75 24
-100 34 -177 70 -241 84 -395 90 -132 5 -156 9 -200 30 -65 32 -734 44 -810
14z m800 -213 c44 -21 70 -25 210 -31 129 -5 170 -10 210 -27 56 -23 182 -66
265 -89 30 -9 75 -24 100 -34 25 -10 71 -26 102 -34 81 -23 512 -239 578 -290
30 -24 74 -53 98 -65 24 -12 74 -51 113 -86 38 -35 96 -78 128 -95 81 -43 437
-402 476 -479 14 -29 55 -84 90 -121 35 -37 75 -90 88 -117 14 -27 42 -69 62
-93 48 -57 269 -498 294 -587 22 -77 51 -163 93 -275 15 -42 28 -84 28 -93 0
-8 11 -43 25 -76 14 -33 30 -92 35 -132 5 -40 19 -94 31 -122 20 -42 24 -74
29 -210 6 -140 10 -166 31 -210 37 -77 37 -394 0 -470 -22 -46 -25 -66 -31
-240 -5 -168 -8 -196 -28 -240 -13 -27 -27 -82 -32 -121 -5 -40 -20 -100 -33
-135 -34 -90 -65 -183 -88 -262 -11 -37 -51 -132 -91 -210 -39 -78 -79 -173
-90 -210 -23 -86 -65 -170 -113 -227 -20 -24 -61 -92 -90 -150 -29 -58 -70
-126 -90 -150 -20 -24 -48 -67 -62 -94 -37 -74 -396 -434 -474 -476 -32 -17
-90 -60 -128 -95 -39 -35 -89 -74 -113 -86 -24 -12 -68 -41 -98 -64 -69 -54
-376 -208 -467 -235 -146 -43 -232 -74 -334 -121 -78 -36 -127 -52 -180 -59
-41 -5 -95 -18 -121 -30 -26 -11 -80 -24 -120 -30 -40 -5 -95 -19 -123 -32
-79 -37 -1112 -36 -1190 0 -36 17 -78 26 -150 32 -61 4 -119 15 -150 27 -58
24 -186 67 -265 89 -30 9 -75 24 -100 34 -25 10 -71 26 -102 34 -81 23 -512
239 -578 290 -30 24 -75 53 -99 66 -25 12 -88 64 -141 115 -55 53 -122 106
-157 124 -81 44 -319 283 -358 361 -17 33 -65 93 -120 150 -51 52 -104 118
-118 146 -14 27 -42 70 -62 94 -48 57 -331 623 -351 701 -8 32 -24 79 -35 103
-11 25 -23 78 -29 118 -5 40 -18 94 -30 120 -11 26 -24 80 -30 120 -5 40 -19
96 -32 123 -37 79 -36 1172 0 1250 17 36 26 78 32 150 5 72 15 117 34 162 14
34 26 70 26 78 0 9 13 51 28 93 42 112 71 198 93 275 26 91 127 290 178 352
23 28 46 68 52 90 25 96 34 112 124 205 54 56 105 120 124 156 44 82 520 559
597 597 28 14 83 55 122 91 39 36 90 75 114 87 24 12 68 41 98 64 30 24 97 64
148 89 51 26 119 66 152 90 36 27 80 49 112 56 29 7 94 33 143 57 50 24 115
51 145 59 30 8 76 24 102 35 26 11 80 24 120 29 40 5 96 19 123 31 43 20 73
24 210 29 107 4 168 10 185 20 67 37 98 39 455 37 347 -2 350 -2 400 -26z"/>
<path d="M4200 7924 c-8 -3 -37 -15 -65 -26 -31 -13 -88 -24 -150 -28 -67 -5
-116 -15 -147 -29 -26 -12 -81 -26 -122 -31 -42 -5 -89 -16 -105 -24 -16 -9
-59 -24 -97 -34 -89 -25 -422 -192 -494 -247 -30 -24 -71 -51 -90 -60 -19 -10
-60 -37 -90 -60 -30 -24 -75 -53 -100 -65 -70 -34 -839 -805 -880 -881 -17
-32 -46 -77 -66 -100 -20 -24 -46 -64 -59 -89 -13 -25 -40 -66 -60 -90 -47
-57 -103 -167 -126 -251 -10 -37 -41 -113 -69 -169 -27 -57 -50 -113 -50 -124
0 -12 -12 -48 -25 -81 -14 -33 -30 -93 -35 -133 -5 -40 -20 -96 -32 -125 -36
-82 -36 -1232 0 -1314 12 -29 27 -87 32 -128 5 -41 16 -88 24 -104 9 -16 24
-59 35 -97 49 -168 80 -244 199 -488 114 -233 134 -266 193 -331 36 -39 80
-99 98 -132 42 -78 690 -728 761 -763 25 -12 70 -41 100 -65 30 -23 73 -51 95
-63 22 -11 65 -40 96 -64 66 -51 280 -156 394 -192 44 -14 114 -37 155 -50
117 -38 171 -56 230 -78 30 -11 78 -24 105 -30 78 -14 156 -35 200 -52 30 -11
79 -15 197 -16 148 0 163 -2 248 -30 110 -36 135 -37 225 -4 60 23 94 27 230
34 136 6 167 10 209 30 36 16 79 25 151 30 59 4 113 14 132 23 17 9 61 25 99
36 38 12 105 32 149 47 112 36 685 319 754 372 31 24 79 55 106 69 75 38 663
625 705 704 17 32 46 77 66 100 20 24 46 64 59 89 13 25 40 66 60 90 46 55 50
62 68 136 9 34 66 161 126 283 61 123 111 232 111 244 0 12 12 49 25 82 14 33
30 93 35 133 5 40 19 94 31 120 14 31 24 80 29 147 5 70 14 116 31 155 37 84
37 754 1 837 -12 29 -27 85 -32 125 -5 40 -18 94 -30 120 -11 26 -25 80 -30
120 -5 40 -21 100 -35 133 -13 33 -25 68 -25 77 0 9 -13 50 -30 91 -16 42 -30
84 -30 95 0 32 -203 432 -244 481 -21 25 -48 66 -61 91 -13 25 -39 65 -59 89
-20 23 -49 68 -66 100 -41 76 -750 787 -820 821 -25 12 -70 41 -100 65 -67 52
-415 227 -485 244 -27 7 -97 35 -155 62 -78 37 -124 52 -178 59 -40 6 -94 19
-120 31 -32 14 -80 24 -148 29 -73 5 -113 14 -150 31 -47 23 -845 43 -904 23z
m895 -222 c36 -17 78 -26 151 -32 68 -5 116 -14 150 -29 27 -12 83 -26 124
-32 56 -7 99 -21 170 -55 52 -25 126 -55 163 -65 88 -25 396 -179 467 -233 30
-24 78 -55 106 -70 74 -40 613 -582 647 -652 14 -27 42 -70 62 -94 20 -24 47
-65 60 -90 13 -25 40 -66 60 -90 47 -56 208 -377 235 -467 29 -99 69 -221 91
-275 11 -26 24 -80 29 -120 5 -40 18 -94 30 -120 11 -26 24 -80 30 -120 5 -40
19 -95 32 -123 36 -79 36 -753 0 -830 -17 -36 -26 -78 -32 -151 -5 -68 -14
-116 -29 -150 -12 -27 -26 -82 -31 -122 -5 -40 -18 -94 -29 -120 -11 -26 -25
-67 -31 -92 -6 -25 -60 -146 -120 -270 -60 -124 -116 -250 -125 -282 -9 -33
-29 -73 -51 -99 -19 -24 -46 -64 -59 -89 -13 -25 -40 -66 -60 -90 -20 -24 -48
-67 -62 -94 -34 -69 -454 -493 -527 -532 -28 -15 -76 -46 -106 -70 -69 -53
-616 -327 -707 -354 -101 -30 -222 -70 -278 -93 -31 -12 -89 -23 -150 -27 -71
-6 -115 -15 -150 -31 -43 -20 -73 -24 -210 -29 -139 -6 -166 -10 -210 -31 -69
-32 -161 -32 -230 1 -45 21 -68 24 -240 30 -168 5 -196 8 -240 28 -27 13 -82
27 -122 32 -40 5 -89 17 -110 26 -21 8 -72 26 -113 39 -94 29 -159 51 -230 76
-30 11 -86 29 -123 40 -89 25 -278 120 -347 174 -30 23 -71 50 -90 60 -19 9
-60 36 -90 59 -30 24 -78 55 -106 70 -76 41 -553 522 -589 595 -15 29 -55 84
-90 121 -72 76 -285 481 -325 617 -29 99 -70 221 -91 275 -11 26 -24 80 -29
120 -5 40 -19 96 -32 123 -36 79 -36 1231 0 1310 13 28 27 82 32 122 5 40 17
89 26 110 9 21 25 69 35 106 11 38 38 105 60 150 23 45 50 112 61 150 23 86
65 170 113 227 20 24 47 65 60 90 13 25 40 66 60 90 20 24 48 67 62 94 35 70
633 672 707 712 28 15 76 46 106 70 30 23 71 50 90 59 19 10 60 37 90 60 70
55 378 209 467 234 37 10 85 26 106 35 21 9 70 21 110 26 40 5 94 19 121 31
34 15 82 24 151 29 56 4 112 13 126 20 68 37 97 39 514 37 407 -2 410 -2 460
-25z"/>
<path d="M4544 7522 c-75 -55 -213 -209 -224 -252 -29 -110 145 -310 270 -310
75 0 297 185 302 252 4 72 -30 146 -106 226 -110 118 -168 138 -242 84z m114
-204 c44 -48 41 -118 -8 -143 -69 -36 -130 -6 -130 64 0 83 87 133 138 79z"/>
<path d="M3287 6972 c-36 -40 -9 -102 45 -102 51 0 78 69 40 103 -24 22 -65
21 -85 -1z"/>
<path d="M5867 6972 c-36 -40 -9 -102 45 -102 51 0 78 69 40 103 -24 22 -65
21 -85 -1z"/>
<path d="M6407 6124 c-27 -14 -92 -67 -146 -119 -54 -51 -121 -105 -150 -119
-29 -15 -96 -69 -150 -120 -54 -52 -121 -106 -150 -120 -29 -15 -96 -69 -150
-120 -54 -52 -121 -106 -150 -120 -29 -15 -96 -69 -150 -120 -54 -52 -120
-105 -148 -119 -28 -14 -82 -55 -121 -91 -39 -36 -93 -76 -120 -90 -27 -14
-62 -36 -78 -49 -64 -53 -90 -57 -177 -27 -36 13 -82 20 -127 20 -45 0 -91 -7
-127 -20 -87 -30 -113 -26 -177 27 -16 14 -75 47 -130 75 -56 27 -126 69 -156
93 -30 23 -71 50 -90 60 -19 9 -60 36 -90 60 -30 23 -98 64 -150 90 -52 26
-121 67 -153 91 -71 53 -118 59 -161 19 -49 -45 -29 -108 47 -146 23 -12 67
-40 97 -64 30 -23 98 -64 150 -90 52 -26 120 -66 150 -90 30 -23 71 -50 90
-60 19 -9 60 -36 90 -60 30 -23 96 -63 147 -88 226 -114 245 -219 72 -403
-102 -108 -113 -143 -63 -189 42 -39 88 -34 163 20 79 55 125 64 221 40 66
-16 74 -16 140 0 70 17 158 17 318 -1 117 -13 125 59 21 174 -100 109 -96 262
8 333 26 18 76 59 110 91 33 31 84 68 113 83 28 14 95 68 149 119 54 52 121
106 150 120 29 15 96 69 150 120 54 52 121 106 150 120 29 15 96 69 150 120
54 52 121 106 150 120 29 15 96 69 150 120 54 52 117 104 142 116 94 48 149
108 149 163 0 59 -80 74 -163 31z m-1710 -1426 c70 -71 9 -208 -92 -208 -106
0 -130 187 -30 231 33 15 96 3 122 -23z"/>
<path d="M2276 5965 c-55 -51 -15 -135 64 -135 49 0 90 37 90 80 0 43 -41 80
-90 80 -25 0 -45 -8 -64 -25z"/>
<path d="M6776 5965 c-55 -51 -15 -135 64 -135 49 0 90 37 90 80 0 43 -41 80
-90 80 -25 0 -45 -8 -64 -25z"/>
<path d="M1909 4857 c-50 -19 -85 -45 -150 -113 -120 -126 -115 -198 23 -331
166 -159 338 -128 445 80 93 182 -128 435 -318 364z m94 -208 c78 -35 39 -129
-53 -129 -38 0 -70 32 -70 70 0 58 61 87 123 59z"/>
<path d="M7198 4861 c-79 -26 -220 -163 -238 -232 -30 -109 146 -309 270 -309
75 0 297 185 302 252 11 166 -186 336 -334 289z m85 -212 c55 -25 59 -87 7
-114 -65 -33 -130 -6 -130 55 0 58 61 87 123 59z"/>
<path d="M2327 3372 c-36 -40 -9 -102 45 -102 51 0 78 69 40 103 -24 22 -65
21 -85 -1z"/>
<path d="M6733 3340 c-35 -21 -49 -55 -39 -95 15 -59 128 -85 193 -45 87 52
35 160 -77 160 -27 0 -58 -8 -77 -20z"/>
<path d="M3287 2412 c-22 -24 -21 -65 1 -85 40 -36 102 -9 102 45 0 51 -69 78
-103 40z"/>
<path d="M5808 2405 c-81 -43 -102 -104 -52 -150 38 -35 89 -33 142 5 137 99
60 223 -90 145z"/>
<path d="M4499 2192 c-193 -123 -228 -255 -103 -391 170 -184 400 -160 462 48
44 147 -118 371 -268 371 -33 0 -58 -8 -91 -28z m141 -192 c26 -26 25 -68 -2
-97 -43 -46 -118 -16 -118 47 0 17 9 39 20 50 11 11 33 20 50 20 17 0 39 -9
50 -20z"/>
</g>
</svg>
